G04 ================== begin FILE IDENTIFICATION RECORD ==================*
G04 Layout Name:  G:/Work/io/design/pcb/io_4di_4aic_dbdoctor_2.brd*
G04 Film Name:    BOTTOM*
G04 File Format:  Gerber RS274X*
G04 File Origin:  Cadence Allegro 17.2-S007*
G04 Origin Date:  Tue Sep 11 21:02:19 2018*
G04 *
G04 Layer:  ETCH/BOTTOM*
G04 Layer:  PIN/BOTTOM*
G04 Layer:  VIA CLASS/BOTTOM*
G04 *
G04 Offset:    (0.000 0.000)*
G04 Mirror:    No*
G04 Mode:      Positive*
G04 Rotation:  0*
G04 FullContactRelief:  No*
G04 UndefLineWidth:     0.200*
G04 ================== end FILE IDENTIFICATION RECORD ====================*
%FSLAX25Y25*MOMM*%
%IR0*IPPOS*OFA0.00000B0.00000*MIA0B0*SFA1.00000B1.00000*%
%ADD25R,1.X.6*%
%ADD11C,1.*%
%ADD27C,2.*%
%ADD22R,.8X1.4*%
%ADD19C,1.3*%
%ADD14C,2.2*%
%ADD10C,4.*%
%ADD16C,3.2*%
%ADD13R,.9X1.5*%
%ADD18R,1.5X.9*%
%ADD17C,1.6*%
%ADD26R,2.X2.*%
%ADD24R,.9X1.8*%
%ADD20R,1.3X1.3*%
%ADD15R,2.2X2.2*%
%ADD23R,1.6X1.6*%
%ADD21R,1.2X2.*%
%ADD12C,.6*%
%ADD28C,.2*%
%ADD29C,.3*%
%ADD30C,.5*%
%ADD31C,.25*%
%ADD32C,.8*%
%ADD35C,2.01*%
%ADD37C,2.004*%
%ADD33C,1.404*%
%ADD38C,2.404*%
%ADD34C,3.61*%
%ADD36C,1.704*%
G75*
%LPD*%
G75*
G36*
G01X50100Y50100D02*
Y1466500D01*
G02X84200Y1480600I19982J-40D01*
G01X225100Y1339800D01*
X5609800D01*
Y1320000D01*
G03X5630000Y1299800I20200J0D01*
G01X5790000D01*
G03X5810200Y1320000I0J20200D01*
G01Y1480000D01*
G03X5790000Y1500200I-20200J0D01*
G01X5770200D01*
Y4535100D01*
X5940200Y4705100D01*
Y5553900D01*
G03Y5626100I-60200J36100D01*
G01Y6730000D01*
G03X5938900Y6742600I-60216J154D01*
G01X5937700Y6747900D01*
X6335200Y7145400D01*
Y7484600D01*
X6265400Y7554400D01*
X6267700Y7560400D01*
G03X6209600Y7502300I-93700J35600D01*
G01X6215600Y7504600D01*
X6264800Y7455400D01*
Y7439100D01*
G02X6233000Y7423000I-19994J36D01*
G03Y7261000I-59000J-81000D01*
G02X6264800Y7244900I11806J-16136D01*
G01Y7174600D01*
X5892700Y6802500D01*
X5164900Y7530200D01*
X4355100D01*
X4195100Y7370200D01*
X3929500D01*
G02X3915400Y7404400I-27J19995D01*
G03X3930100Y7442700I-35418J35565D01*
G01X3929900Y7447200D01*
X4302500Y7819800D01*
X5819800D01*
Y7770000D01*
G03X5840000Y7749800I20200J0D01*
G01X6000000D01*
G03X6020200Y7770000I0J20200D01*
G01Y7930000D01*
G03X6000000Y7950200I-20200J0D01*
G01X5840000D01*
G03X5819800Y7930000I0J-20200D01*
G01Y7880200D01*
X4277500D01*
X3887200Y7489900D01*
X3882700Y7490100D01*
G03X3844600Y7404400I-2697J-50120D01*
G02X3830500Y7370200I-14073J-14205D01*
G01X3194900D01*
X3038200Y7527000D01*
X3037500Y7529400D01*
G03X2989400Y7577500I-67500J-19400D01*
G01X2987000Y7578200D01*
X2675300Y7889800D01*
X2685400Y7899900D01*
X2689600Y7899800D01*
X2850000D01*
G03X2870200Y7920000I0J20200D01*
G01Y8080000D01*
G03X2850000Y8100200I-20200J0D01*
G01X2690000D01*
G03X2669800Y8080000I0J-20200D01*
G01Y7920000D01*
Y7919600D01*
X2669900Y7915400D01*
X2659800Y7905300D01*
X2504900Y8060200D01*
X2122300D01*
X2122200Y8060300D01*
Y8277900D01*
X2120200Y8279900D01*
Y8301400D01*
X2121900Y8303900D01*
G03X2125200Y8315000I-17018J11100D01*
G01Y8465000D01*
G03X2105000Y8485200I-20200J0D01*
G01X2015000D01*
G03X1994800Y8465000I0J-20200D01*
G01Y8315000D01*
G03X1998100Y8303900I20318J0D01*
G01X1999800Y8301400D01*
Y8230100D01*
X2001800Y8228100D01*
Y8060300D01*
G03X2122300Y7939800I60200J-60300D01*
G01X2455100D01*
X2895500Y7499400D01*
X2734800Y7338700D01*
Y6661900D01*
X2734000Y6660000D01*
G03Y6620000I46000J-20000D01*
G01X2734800Y6618100D01*
Y6315200D01*
X2661300D01*
X2476300Y6130200D01*
X2440000D01*
G03X2419800Y6110000I0J-20200D01*
G01Y5970000D01*
G03X2429800Y5952500I20312J0D01*
G01X2434800Y5949700D01*
Y5900300D01*
X2429800Y5897500D01*
G03X2419800Y5880000I10312J-17500D01*
G01Y5740000D01*
G03X2440000Y5719800I20200J0D01*
G01X2476300D01*
X2551300Y5644800D01*
X3354800D01*
Y5615000D01*
G03X3368200Y5596000I20170J0D01*
G01X3374800Y5593600D01*
Y5576000D01*
X3372300Y5573200D01*
G03X3445800Y5504800I37690J-33190D01*
G01X3576000D01*
G02X3591400Y5472000I-4J-20017D01*
G03X3592500Y5406600I38610J-32060D01*
G02Y5393400I-7487J-6600D01*
G03Y5326600I37500J-33400D01*
G02Y5313400I-7487J-6600D01*
G03Y5246600I37500J-33400D01*
G02Y5233400I-7487J-6600D01*
G03X3670100Y5169800I37540J-33338D01*
G01X5249900D01*
G03X5259800Y5159900I40100J30200D01*
G01Y5032500D01*
X5382500Y4909800D01*
X5404800D01*
Y4865000D01*
G03X5425000Y4844800I20200J0D01*
G01X5515000D01*
G03X5535200Y4865000I0J20200D01*
G01Y5015000D01*
G03X5530800Y5027600I-20241J0D01*
G02Y5052400I15677J12400D01*
G03X5535200Y5065000I-15841J12600D01*
G01Y5215000D01*
G03X5530800Y5227600I-20241J0D01*
G02Y5252400I15677J12400D01*
G03X5535200Y5265000I-15841J12600D01*
G01Y5415000D01*
G03X5530800Y5427600I-20241J0D01*
G02Y5452400I15677J12400D01*
G03X5535200Y5465000I-15841J12600D01*
G01Y5615000D01*
G03X5515000Y5635200I-20200J0D01*
G01X5425000D01*
G03X5404800Y5615000I0J-20200D01*
G01Y5570200D01*
X5377500D01*
X5297200Y5489900D01*
X5292700Y5490100D01*
G03X5249900Y5470200I-2724J-50117D01*
G01X4737300D01*
G02X4718200Y5495800I74J19981D01*
G03X4624400Y5531000I-48137J14305D01*
G01X4621700Y5525200D01*
X3944500D01*
G02X3924700Y5548000I3J20000D01*
G03X3921100Y5575000I-49708J7112D01*
G02X3925200Y5587600I9162J3986D01*
G03X3935200Y5605000I-10138J17400D01*
G01Y5755000D01*
G03X3915000Y5775200I-20200J0D01*
G01X3825000D01*
G03X3804800Y5755000I0J-20200D01*
G01Y5605000D01*
G03X3815600Y5587100I20234J0D01*
G02X3825900Y5565300I-9280J-17718D01*
G03X3825300Y5548000I49105J-10363D01*
G02X3805500Y5525200I-19803J-2800D01*
G01X3754600D01*
X3704600Y5575200D01*
X3690000D01*
G02X3672600Y5605000I5J19983D01*
G03X3675200Y5615000I-17621J9919D01*
G01Y5765000D01*
G03X3655000Y5785200I-20200J0D01*
G01X3565000D01*
G03X3544800Y5765000I0J-20200D01*
G01Y5615000D01*
G03X3547400Y5605000I20221J-81D01*
G02X3530000Y5575200I-17405J-9817D01*
G01X3465200D01*
Y5593600D01*
X3471800Y5596000D01*
G03X3485200Y5615000I-6770J19000D01*
G01Y5765000D01*
G03X3465000Y5785200I-20200J0D01*
G01X3375000D01*
G03X3354800Y5765000I0J-20200D01*
G01Y5735200D01*
X2942700D01*
Y5904100D01*
X3030900Y5992300D01*
G02X3060000Y5991500I14173J-14132D01*
G03X3075000Y5984800I15000J13441D01*
G01X3225000D01*
G03X3245200Y6005000I0J20200D01*
G01Y6095000D01*
G03X3225000Y6115200I-20200J0D01*
G01X3075000D01*
G03X3054800Y6095000I0J-20200D01*
G01Y6082700D01*
X3028900D01*
X2877300Y5931100D01*
Y5735200D01*
X2720200D01*
Y5774800D01*
X2734000D01*
X2736800Y5772300D01*
G03Y5847700I33200J37700D01*
G01X2734000Y5845200D01*
X2720200D01*
Y5880000D01*
G03X2700000Y5900200I-20200J0D01*
G01X2620000D01*
G03X2599800Y5880000I0J-20200D01*
G01Y5772400D01*
G02X2565700Y5758300I-19979J33D01*
G01X2540200Y5783700D01*
Y5880000D01*
G03X2530200Y5897500I-20312J0D01*
G01X2525200Y5900300D01*
Y5949700D01*
X2530200Y5952500D01*
G03X2540200Y5970000I-10312J17500D01*
G01Y6066300D01*
X2565700Y6091700D01*
G02X2599800Y6077600I14121J-14133D01*
G01Y5970000D01*
G03X2620000Y5949800I20200J0D01*
G01X2700000D01*
G03X2720200Y5970000I0J20200D01*
G01Y5996400D01*
G02X2748700Y6014500I19984J21D01*
G03X2736800Y6097700I21278J45494D01*
G01X2734000Y6095200D01*
X2720200D01*
Y6110000D01*
G03X2700000Y6130200I-20200J0D01*
G01X2652400D01*
G02X2638300Y6164300I33J19979D01*
G01X2698700Y6224800D01*
X2758100D01*
X2760000Y6224000D01*
G03X2826000Y6290000I20000J46000D01*
G01X2825200Y6291900D01*
Y6618100D01*
X2826000Y6620000D01*
G03Y6660000I-46000J20000D01*
G01X2825200Y6661900D01*
Y7301300D01*
X2959400Y7435500D01*
X3145100Y7249800D01*
X4244900D01*
X4404900Y7409800D01*
X4964800D01*
Y7335800D01*
G03X5035200I35200J-35800D01*
G01Y7409800D01*
X5115100D01*
X5819800Y6705100D01*
Y5626100D01*
G03Y5553900I60200J-36100D01*
G01Y4754900D01*
X5649800Y4584900D01*
Y4400200D01*
X5025200D01*
Y4508700D01*
X4828700Y4705200D01*
X4161300D01*
X4054800Y4598700D01*
Y4258700D01*
X3851300Y4055200D01*
X3805000D01*
G03X3784800Y4035000I0J-20200D01*
G01Y3885000D01*
G03X3798200Y3866000I20170J0D01*
G01X3804800Y3863600D01*
Y3820300D01*
X3799800Y3817500D01*
G03X3789800Y3800000I10312J-17500D01*
G01Y3660000D01*
G03X3810000Y3639800I20200J0D01*
G01X3890000D01*
G03X3910200Y3660000I0J20200D01*
G01Y3800000D01*
G03X3900200Y3817500I-20312J0D01*
G01X3895200Y3820300D01*
Y3863600D01*
X3901800Y3866000D01*
G03X3915200Y3885000I-6770J19000D01*
G01Y3991300D01*
X3940700Y4016700D01*
G02X3974800Y4002600I14121J-14133D01*
G01Y3885000D01*
G03X3995000Y3864800I20200J0D01*
G01X4085000D01*
G03X4105200Y3885000I0J20200D01*
G01Y3891400D01*
G02X4129400Y3910900I19986J-37D01*
G03X4157700Y3913000I10585J49090D01*
G02X4184800Y3894300I7111J-18682D01*
G01Y3734600D01*
X3560600Y3110300D01*
X3556800Y3110100D01*
G03X3524200Y3095200I3194J-50101D01*
G01X3465200D01*
Y3135000D01*
G03X3445000Y3155200I-20200J0D01*
G01X3355000D01*
G03X3334800Y3135000I0J-20200D01*
G01Y2985000D01*
G03X3355000Y2964800I20200J0D01*
G01X3445000D01*
G03X3465200Y2985000I0J20200D01*
G01Y3024800D01*
X3524200D01*
G03X3610100Y3056800I35799J35196D01*
G01X3610300Y3060600D01*
X4255200Y3705400D01*
Y4494200D01*
G03X4184800I-35200J35800D01*
G01Y4025700D01*
G02X4157700Y4007000I-19989J-18D01*
G03X4129400Y4009100I-17715J-46990D01*
G02X4105200Y4028600I-4214J19537D01*
G01Y4035000D01*
G03X4085000Y4055200I-20200J0D01*
G01X4027400D01*
G02X4013300Y4089300I33J19979D01*
G01X4145200Y4221300D01*
Y4561300D01*
X4198700Y4614800D01*
X4500000D01*
G02X4517400Y4585000I-5J-19983D01*
G03X4514800Y4575000I17621J-9919D01*
G01Y4485000D01*
G03X4535000Y4464800I20200J0D01*
G01X4685000D01*
G03X4705200Y4485000I0J20200D01*
G01Y4575000D01*
G03X4702600Y4585000I-20221J81D01*
G02X4720000Y4614800I17405J9817D01*
G01X4791300D01*
X4934800Y4471300D01*
Y4400200D01*
X4698600D01*
X4696100Y4401900D01*
G03X4685000Y4405200I-11100J-17018D01*
G01X4535000D01*
G03X4514800Y4385000I0J-20200D01*
G01Y4295000D01*
G03X4535000Y4274800I20200J0D01*
G01X4685000D01*
G03X4696100Y4278100I0J20318D01*
G01X4698600Y4279800D01*
X5149800D01*
Y4188600D01*
X5148100Y4186100D01*
G03X5144800Y4175000I17018J-11100D01*
G01Y4025000D01*
G03X5165000Y4004800I20200J0D01*
G01X5255000D01*
G03X5275200Y4025000I0J20200D01*
G01Y4175000D01*
G03X5271900Y4186100I-20318J0D01*
G01X5270200Y4188600D01*
Y4279800D01*
X5649800D01*
Y3930200D01*
X5515200D01*
Y3945000D01*
G03X5495000Y3965200I-20200J0D01*
G01X5405000D01*
G03X5384800Y3945000I0J-20200D01*
G01Y3795000D01*
G03X5405000Y3774800I20200J0D01*
G01X5495000D01*
G03X5515200Y3795000I0J20200D01*
G01Y3809800D01*
X5649800D01*
Y2925200D01*
X4815200D01*
Y2965000D01*
G03X4801900Y2984000I-20221J0D01*
G02X4795700Y2996200I3380J9393D01*
G03X4699700Y2994400I-48275J13790D01*
G02X4695100Y2982600I-9517J-3086D01*
G03X4684800Y2965000I9887J-17600D01*
G01Y2815000D01*
G03X4705000Y2794800I20200J0D01*
G01X4795000D01*
G03X4797600Y2795000I-245J20181D01*
G02X4819400Y2780800I2592J-19855D01*
G03X4837300Y2754900I48150J14142D01*
G01Y2695200D01*
X4825000D01*
G03X4804800Y2675000I0J-20200D01*
G01Y2525000D01*
G03X4825000Y2504800I20200J0D01*
G01X4915000D01*
G03X4935200Y2525000I0J20200D01*
G01Y2675000D01*
G03X4915000Y2695200I-20200J0D01*
G01X4897700D01*
Y2754900D01*
G03X4908800Y2823500I-30207J40086D01*
G02X4925300Y2854800I16509J11296D01*
G01X5649800D01*
Y1500200D01*
X5630000D01*
G03X5609800Y1480000I0J-20200D01*
G01Y1460200D01*
X274900D01*
X150200Y1584900D01*
Y1648300D01*
X201300D01*
G03X324000Y1706500I53712J45202D01*
G01X323000Y1711700D01*
X876100Y2264800D01*
X1024700D01*
X1024800Y2254900D01*
G03X1045000Y2234800I20200J100D01*
G01X1195000D01*
G03X1214400Y2249500I0J20151D01*
G01X1216500Y2256800D01*
X1319300D01*
G03X1440700I60700J35200D01*
G01X1520600D01*
X1615800Y2352000D01*
X1621000Y2351000D01*
G03X1694500Y2455600I12998J68990D01*
G02X1711700Y2485800I17200J10202D01*
G01X1839100D01*
X1884800Y2440100D01*
Y2325000D01*
G03X1897500Y2291600I50270J0D01*
G02Y2278400I-7487J-6600D01*
G03X1884800Y2245000I37570J-33400D01*
G01Y2226200D01*
X1714100D01*
G03Y2105800I-80100J-60200D01*
G01X1884800D01*
Y2095000D01*
G03X1935000Y2044800I50200J0D01*
G01X2025000D01*
G03X2075200Y2095000I0J50200D01*
G01Y2245000D01*
G03X2062500Y2278400I-50270J0D01*
G02Y2291600I7487J6600D01*
G03X2075200Y2325000I-37570J33400D01*
G01Y2475000D01*
G03X2062500Y2508400I-50270J0D01*
G02Y2521600I7487J6600D01*
G03X2075200Y2555000I-37570J33400D01*
G01Y2705000D01*
G03X2062500Y2738400I-50270J0D01*
G02Y2751600I7487J6600D01*
G03X2075200Y2785000I-37570J33400D01*
G01Y2935000D01*
G03X2025000Y2985200I-50200J0D01*
G01X1935000D01*
G03X1884800Y2935000I0J-50200D01*
G01Y2920200D01*
X1415100D01*
X1394200Y2899300D01*
X1389500Y2899800D01*
G03X1479800Y2790700I-9493J-99777D01*
G01X1480600Y2799800D01*
X1884800D01*
Y2785000D01*
G03X1897500Y2751600I50270J0D01*
G02Y2738400I-7487J-6600D01*
G03X1894200Y2734200I37765J-33069D01*
G01X1714100D01*
G03X1542100Y2634100I-80086J-60212D01*
G02X1523700Y2606200I-18375J-7899D01*
G01X1460100D01*
G03Y2485800I-80100J-60200D01*
G01X1556300D01*
G02X1573500Y2455600I0J-19998D01*
G03X1565000Y2407000I60494J-35624D01*
G01X1566000Y2401800D01*
X1491400Y2327200D01*
X1440700D01*
G03X1319300I-60700J-35200D01*
G01X1215200D01*
Y2345000D01*
G03X1195000Y2365200I-20200J0D01*
G01X1045000D01*
G03X1024800Y2345100I0J-20200D01*
G01X1024700Y2335200D01*
X846900D01*
X273200Y1761500D01*
X268000Y1762500D01*
G03X201300Y1738700I-12979J-68991D01*
G01X150200D01*
Y2973300D01*
X201300D01*
G03Y3063700I53700J45200D01*
G01X150200D01*
Y3583300D01*
X208900D01*
G03X314000Y3656500I36111J60203D01*
G01X313000Y3661700D01*
X866100Y4214800D01*
X1024700D01*
X1024800Y4204900D01*
G03X1045000Y4184800I20200J100D01*
G01X1195000D01*
G03X1214400Y4199500I0J20151D01*
G01X1216500Y4206800D01*
X1309300D01*
G03X1430700I60700J35200D01*
G01X1510600D01*
X1605800Y4302000D01*
X1611000Y4301000D01*
G03X1674600Y4321400I12944J68987D01*
G02X1703200Y4321700I14447J-13858D01*
G01X1795100Y4229800D01*
X1884800D01*
Y4215000D01*
G03X1897500Y4181600I50270J0D01*
G02Y4168400I-7487J-6600D01*
G03X1884800Y4135000I37570J-33400D01*
G01Y4120200D01*
X1724500D01*
X1723400Y4128900D01*
G03X1633500Y4016200I-99392J-12922D01*
G01X1638200Y4016700D01*
X1655700Y3999200D01*
X1709400D01*
G03X1717300Y3999700I155J60210D01*
G01X1717900Y3999800D01*
X1884800D01*
Y3985000D01*
G03X1935000Y3934800I50200J0D01*
G01X2025000D01*
G03X2075200Y3985000I0J50200D01*
G01Y4135000D01*
G03X2062500Y4168400I-50270J0D01*
G02Y4181600I7487J6600D01*
G03X2075200Y4215000I-37570J33400D01*
G01Y4365000D01*
G03X2062500Y4398400I-50270J0D01*
G02Y4411600I7487J6600D01*
G03X2075200Y4445000I-37570J33400D01*
G01Y4595000D01*
G03X2062500Y4628400I-50270J0D01*
G02Y4641600I7487J6600D01*
G03X2075200Y4675000I-37570J33400D01*
G01Y4825000D01*
G03X2025000Y4875200I-50200J0D01*
G01X1935000D01*
G03X1884800Y4825000I0J-50200D01*
G01Y4810200D01*
X1450100D01*
G03Y4689800I-80100J-60200D01*
G01X1512900D01*
G02X1531400Y4662200I-10J-20007D01*
G03X1532100Y4584100I92608J-38223D01*
G02X1513700Y4556200I-18375J-7899D01*
G01X1450100D01*
G03Y4435800I-80100J-60200D01*
G01X1546300D01*
G02X1563500Y4405600I0J-19998D01*
G03X1555000Y4357000I60494J-35624D01*
G01X1556000Y4351800D01*
X1481400Y4277200D01*
X1430700D01*
G03X1309300I-60700J-35200D01*
G01X1215200D01*
Y4295000D01*
G03X1195000Y4315200I-20200J0D01*
G01X1045000D01*
G03X1024800Y4295100I0J-20200D01*
G01X1024700Y4285200D01*
X836900D01*
X263200Y3711500D01*
X258000Y3712500D01*
G03X208900Y3703700I-12973J-68994D01*
G01X150200D01*
Y4788600D01*
X262000Y4900300D01*
X264400Y4901000D01*
G03X312500Y4949100I-19400J67500D01*
G01X313200Y4951500D01*
X440200Y5078600D01*
Y5451400D01*
X441900Y5453900D01*
G03X445200Y5465000I-17018J11100D01*
G01Y5615000D01*
G03X425000Y5635200I-20200J0D01*
G01X335000D01*
G03X314800Y5615000I0J-20200D01*
G01Y5465000D01*
G03X318100Y5453900I20318J0D01*
G01X319800Y5451400D01*
Y5128400D01*
X228000Y5036700D01*
X225600Y5036000D01*
G03X177500Y4987900I19400J-67500D01*
G01X176800Y4985500D01*
X84200Y4892900D01*
G02X50100Y4907000I-14118J14140D01*
G01Y9149900D01*
X8649900D01*
Y50100D01*
X50100D01*
G37*
%LPC*%
G75*
G36*
G01X7879800Y4800000D02*
Y5000000D01*
G02X7900000Y5020200I20200J0D01*
G01X8100000D01*
G02X8120200Y5000000I0J-20200D01*
G01Y4800000D01*
G02X8100000Y4779800I-20200J0D01*
G01X7900000D01*
G02X7879800Y4800000I0J20200D01*
G37*
G36*
G01X7289800Y4075000D02*
Y4135000D01*
G02X7310000Y4155200I20200J0D01*
G01X7410000D01*
G02X7430200Y4135000I0J-20200D01*
G01Y4075000D01*
G02X7410000Y4054800I-20200J0D01*
G01X7310000D01*
G02X7289800Y4075000I0J20200D01*
G37*
G36*
G01Y3305000D02*
Y3365000D01*
G02X7310000Y3385200I20200J0D01*
G01X7410000D01*
G02X7430200Y3365000I0J-20200D01*
G01Y3305000D01*
G02X7410000Y3284800I-20200J0D01*
G01X7310000D01*
G02X7289800Y3305000I0J20200D01*
G37*
G36*
G01Y2545000D02*
Y2605000D01*
G02X7310000Y2625200I20200J0D01*
G01X7410000D01*
G02X7430200Y2605000I0J-20200D01*
G01Y2545000D01*
G02X7410000Y2524800I-20200J0D01*
G01X7310000D01*
G02X7289800Y2545000I0J20200D01*
G37*
G36*
G01Y1795000D02*
Y1855000D01*
G02X7310000Y1875200I20200J0D01*
G01X7410000D01*
G02X7430200Y1855000I0J-20200D01*
G01Y1795000D01*
G02X7410000Y1774800I-20200J0D01*
G01X7310000D01*
G02X7289800Y1795000I0J20200D01*
G37*
G36*
G01X6414800Y2130000D02*
Y2310000D01*
G02X6435000Y2330200I20200J0D01*
G01X6525000D01*
G02X6545200Y2310000I0J-20200D01*
G01Y2130000D01*
G02X6525000Y2109800I-20200J0D01*
G01X6435000D01*
G02X6414800Y2130000I0J20200D01*
G37*
G36*
G01X6369800Y1740000D02*
Y1900000D01*
G02X6390000Y1920200I20200J0D01*
G01X6550000D01*
G02X6570200Y1900000I0J-20200D01*
G01Y1740000D01*
G02X6550000Y1719800I-20200J0D01*
G01X6390000D01*
G02X6369800Y1740000I0J20200D01*
G37*
G36*
G01X5384800Y3525000D02*
Y3675000D01*
G02X5405000Y3695200I20200J0D01*
G01X5495000D01*
G02X5515200Y3675000I0J-20200D01*
G01Y3525000D01*
G02X5495000Y3504800I-20200J0D01*
G01X5405000D01*
G02X5384800Y3525000I0J20200D01*
G37*
G36*
G01X4494800Y2815000D02*
Y2965000D01*
G02X4515000Y2985200I20200J0D01*
G01X4605000D01*
G02X4625200Y2965000I0J-20200D01*
G01Y2815000D01*
G02X4605000Y2794800I-20200J0D01*
G01X4515000D01*
G02X4494800Y2815000I0J20200D01*
G37*
G36*
G01X4614800Y2525000D02*
Y2675000D01*
G02X4635000Y2695200I20200J0D01*
G01X4725000D01*
G02X4745200Y2675000I0J-20200D01*
G01Y2525000D01*
G02X4725000Y2504800I-20200J0D01*
G01X4635000D01*
G02X4614800Y2525000I0J20200D01*
G37*
G36*
G01X3994800Y5605000D02*
Y5755000D01*
G02X4015000Y5775200I20200J0D01*
G01X4105000D01*
G02X4125200Y5755000I0J-20200D01*
G01Y5605000D01*
G02X4105000Y5584800I-20200J0D01*
G01X4015000D01*
G02X3994800Y5605000I0J20200D01*
G37*
G36*
G01X3144800Y3485000D02*
Y3635000D01*
G02X3165000Y3655200I20200J0D01*
G01X3255000D01*
G02X3275200Y3635000I0J-20200D01*
G01Y3485000D01*
G02X3255000Y3464800I-20200J0D01*
G01X3165000D01*
G02X3144800Y3485000I0J20200D01*
G37*
G36*
G01Y2985000D02*
Y3135000D01*
G02X3165000Y3155200I20200J0D01*
G01X3255000D01*
G02X3275200Y3135000I0J-20200D01*
G01Y2985000D01*
G02X3255000Y2964800I-20200J0D01*
G01X3165000D01*
G02X3144800Y2985000I0J20200D01*
G37*
G36*
G01X3054800Y6555000D02*
Y6645000D01*
G02X3075000Y6665200I20200J0D01*
G01X3225000D01*
G02X3245200Y6645000I0J-20200D01*
G01Y6555000D01*
G02X3225000Y6534800I-20200J0D01*
G01X3075000D01*
G02X3054800Y6555000I0J20200D01*
G37*
G36*
G01X2324800Y4515000D02*
Y4605000D01*
G02X2345000Y4625200I20200J0D01*
G01X2495000D01*
G02X2515200Y4605000I0J-20200D01*
G01Y4515000D01*
G02X2495000Y4494800I-20200J0D01*
G01X2345000D01*
G02X2324800Y4515000I0J20200D01*
G37*
G36*
G01Y4295000D02*
Y4385000D01*
G02X2345000Y4405200I20200J0D01*
G01X2495000D01*
G02X2515200Y4385000I0J-20200D01*
G01Y4295000D01*
G02X2495000Y4274800I-20200J0D01*
G01X2345000D01*
G02X2324800Y4295000I0J20200D01*
G37*
G36*
G01Y2625000D02*
Y2715000D01*
G02X2345000Y2735200I20200J0D01*
G01X2495000D01*
G02X2515200Y2715000I0J-20200D01*
G01Y2625000D01*
G02X2495000Y2604800I-20200J0D01*
G01X2345000D01*
G02X2324800Y2625000I0J20200D01*
G37*
G36*
G01Y2315000D02*
Y2405000D01*
G02X2345000Y2425200I20200J0D01*
G01X2495000D01*
G02X2515200Y2405000I0J-20200D01*
G01Y2315000D01*
G02X2495000Y2294800I-20200J0D01*
G01X2345000D01*
G02X2324800Y2315000I0J20200D01*
G37*
G36*
G01X1804800Y8315000D02*
Y8465000D01*
G02X1825000Y8485200I20200J0D01*
G01X1915000D01*
G02X1935200Y8465000I0J-20200D01*
G01Y8315000D01*
G02X1915000Y8294800I-20200J0D01*
G01X1825000D01*
G02X1804800Y8315000I0J20200D01*
G37*
G36*
G01X1539800Y8290000D02*
Y8490000D01*
G02X1560000Y8510200I20200J0D01*
G01X1680000D01*
G02X1700200Y8490000I0J-20200D01*
G01Y8290000D01*
G02X1680000Y8269800I-20200J0D01*
G01X1560000D01*
G02X1539800Y8290000I0J20200D01*
G37*
G36*
G01X1024800Y4015000D02*
Y4105000D01*
G02X1045000Y4125200I20200J0D01*
G01X1195000D01*
G02X1215200Y4105000I0J-20200D01*
G01Y4015000D01*
G02X1195000Y3994800I-20200J0D01*
G01X1045000D01*
G02X1024800Y4015000I0J20200D01*
G37*
G36*
G01Y2065000D02*
Y2155000D01*
G02X1045000Y2175200I20200J0D01*
G01X1195000D01*
G02X1215200Y2155000I0J-20200D01*
G01Y2065000D01*
G02X1195000Y2044800I-20200J0D01*
G01X1045000D01*
G02X1024800Y2065000I0J20200D01*
G37*
G36*
G01X269800Y7190000D02*
Y7410000D01*
G02X290000Y7430200I20200J0D01*
G01X510000D01*
G02X530200Y7410000I0J-20200D01*
G01Y7190000D01*
G02X510000Y7169800I-20200J0D01*
G01X290000D01*
G02X269800Y7190000I0J20200D01*
G37*
G36*
G01X2963800Y8151100D02*
X2525100Y8589800D01*
X1544900D01*
X1380200Y8425100D01*
Y8290000D01*
G02X1366800Y8271000I-20170J0D01*
G01X1360200Y8268600D01*
Y8086300D01*
X1368500Y8084900D01*
G02X1385200Y8065000I-3507J-19900D01*
G01Y7935000D01*
G02X1365000Y7914800I-20200J0D01*
G01X1314100D01*
X1010200Y7610900D01*
Y7130900D01*
X728100Y6848800D01*
X509700D01*
G02Y6989200I-109700J70200D01*
G01X669900D01*
X869800Y7189100D01*
Y7669100D01*
X1214800Y8014100D01*
Y8065000D01*
G02X1231500Y8084900I20207J0D01*
G01X1239800Y8086300D01*
Y8268600D01*
X1233200Y8271000D01*
G02X1219800Y8290000I6770J19000D01*
G01Y8490000D01*
G02X1240000Y8510200I20200J0D01*
G01X1295100D01*
X1495100Y8710200D01*
X2574900D01*
X3084200Y8200900D01*
Y8080100D01*
G02X2963800I-60200J-80100D01*
G01Y8151100D01*
G37*
G36*
G01X5345200Y6640000D02*
G03X5363700Y6620100I19985J30D01*
G02X5377700Y6617000I-3746J-50080D01*
G03X5404800Y6635700I7111J18682D01*
G01Y6645000D01*
G02X5425000Y6665200I20200J0D01*
G01X5515000D01*
G02X5535200Y6645000I0J-20200D01*
G01Y6495000D01*
G02X5515000Y6474800I-20200J0D01*
G01X5425000D01*
G02X5404800Y6495000I0J20200D01*
G01Y6504300D01*
G03X5377700Y6523000I-19989J18D01*
G02X5363700Y6519900I-17746J46980D01*
G03X5345200Y6500000I1485J-19930D01*
G01Y6495000D01*
G02X5325000Y6474800I-20200J0D01*
G01X5235000D01*
G02X5214800Y6495000I0J20200D01*
G01Y6645000D01*
G02X5235000Y6665200I20200J0D01*
G01X5325000D01*
G02X5345200Y6645000I0J-20200D01*
G01Y6640000D01*
G37*
G36*
G01X3245200Y6365000D02*
G02X3225000Y6344800I-20200J0D01*
G01X3075000D01*
G02X3054800Y6365000I0J20200D01*
G01Y6455000D01*
G02X3075000Y6475200I20200J0D01*
G01X3225000D01*
G02X3245200Y6455000I0J-20200D01*
G01Y6440200D01*
X3269900D01*
G02Y6379800I40100J-30200D01*
G01X3245200D01*
Y6365000D01*
G37*
G36*
G01X5345200Y6275000D02*
G02X5325000Y6254800I-20200J0D01*
G01X5235000D01*
G02X5214800Y6275000I0J20200D01*
G01Y6425000D01*
G02X5235000Y6445200I20200J0D01*
G01X5325000D01*
G02X5345200Y6425000I0J-20200D01*
G01Y6420000D01*
G03X5363700Y6400100I19985J30D01*
G02X5377700Y6397000I-3746J-50080D01*
G03X5404800Y6415700I7111J18682D01*
G01Y6425000D01*
G02X5425000Y6445200I20200J0D01*
G01X5515000D01*
G02X5535200Y6425000I0J-20200D01*
G01Y6275000D01*
G02X5515000Y6254800I-20200J0D01*
G01X5425000D01*
G02X5404800Y6275000I0J20200D01*
G01Y6284300D01*
G03X5377700Y6303000I-19989J18D01*
G02X5363700Y6299900I-17746J46980D01*
G03X5345200Y6280000I1485J-19930D01*
G01Y6275000D01*
G37*
G36*
G01Y6055000D02*
G02X5325000Y6034800I-20200J0D01*
G01X5235000D01*
G02X5214800Y6055000I0J20200D01*
G01Y6205000D01*
G02X5235000Y6225200I20200J0D01*
G01X5325000D01*
G02X5345200Y6205000I0J-20200D01*
G01Y6200000D01*
G03X5363700Y6180100I19985J30D01*
G02X5377700Y6177000I-3746J-50080D01*
G03X5404800Y6195700I7111J18682D01*
G01Y6205000D01*
G02X5425000Y6225200I20200J0D01*
G01X5515000D01*
G02X5535200Y6205000I0J-20200D01*
G01Y6055000D01*
G02X5515000Y6034800I-20200J0D01*
G01X5425000D01*
G02X5404800Y6055000I0J20200D01*
G01Y6064300D01*
G03X5377700Y6083000I-19989J18D01*
G02X5363700Y6079900I-17746J46980D01*
G03X5345200Y6060000I1485J-19930D01*
G01Y6055000D01*
G37*
G36*
G01Y5835000D02*
G02X5325000Y5814800I-20200J0D01*
G01X5235000D01*
G02X5214800Y5835000I0J20200D01*
G01Y5985000D01*
G02X5235000Y6005200I20200J0D01*
G01X5325000D01*
G02X5345200Y5985000I0J-20200D01*
G01Y5980000D01*
G03X5363700Y5960100I19985J30D01*
G02X5377700Y5957000I-3746J-50080D01*
G03X5404800Y5975700I7111J18682D01*
G01Y5985000D01*
G02X5425000Y6005200I20200J0D01*
G01X5515000D01*
G02X5535200Y5985000I0J-20200D01*
G01Y5835000D01*
G02X5515000Y5814800I-20200J0D01*
G01X5425000D01*
G02X5404800Y5835000I0J20200D01*
G01Y5844300D01*
G03X5377700Y5863000I-19989J18D01*
G02X5363700Y5859900I-17746J46980D01*
G03X5345200Y5840000I1485J-19930D01*
G01Y5835000D01*
G37*
G36*
G01X3245200Y5815000D02*
G02X3225000Y5794800I-20200J0D01*
G01X3075000D01*
G02X3058100Y5804000I0J20122D01*
G03X3035200Y5812200I-16812J-10875D01*
G02Y5907800I-15200J47800D01*
G03X3058100Y5916000I6088J19075D01*
G02X3075000Y5925200I16900J-10922D01*
G01X3225000D01*
G02X3245200Y5905000I0J-20200D01*
G01Y5815000D01*
G37*
G36*
G01X525000Y5635200D02*
X539800D01*
Y5649700D01*
X536500Y5652600D01*
G02X603500I33500J37400D01*
G01X600200Y5649700D01*
Y5635200D01*
X615000D01*
G02X635200Y5615000I0J-20200D01*
G01Y5465000D01*
G02X615000Y5444800I-20200J0D01*
G01X525000D01*
G02X504800Y5465000I0J20200D01*
G01Y5615000D01*
G02X525000Y5635200I20200J0D01*
G37*
G36*
G01X2235200Y4445000D02*
G02X2215000Y4424800I-20200J0D01*
G01X2125000D01*
G02X2104800Y4445000I0J20200D01*
G01Y4595000D01*
G02X2125000Y4615200I20200J0D01*
G01X2139800D01*
Y4654800D01*
X2125000D01*
G02X2104800Y4675000I0J20200D01*
G01Y4825000D01*
G02X2125000Y4845200I20200J0D01*
G01X2215000D01*
G02X2235200Y4825000I0J-20200D01*
G01Y4780200D01*
X2324800D01*
Y4795000D01*
G02X2345000Y4815200I20200J0D01*
G01X2495000D01*
G02X2515200Y4795000I0J-20200D01*
G01Y4705000D01*
G02X2495000Y4684800I-20200J0D01*
G01X2345000D01*
G02X2324800Y4705000I0J20200D01*
G01Y4719800D01*
X2235200D01*
Y4675000D01*
G02X2215000Y4654800I-20200J0D01*
G01X2200200D01*
Y4615200D01*
X2215000D01*
G02X2235200Y4595000I0J-20200D01*
G01Y4445000D01*
G37*
G36*
G01X7943500Y4190700D02*
X7917600Y4164800D01*
X7670300D01*
X7667500Y4159800D01*
G02X7650000Y4149800I-17500J10312D01*
G01X7550000D01*
G02X7529800Y4170000I0J20200D01*
G01Y4230000D01*
G02X7550000Y4250200I20200J0D01*
G01X7650000D01*
G02X7667500Y4240200I0J-20312D01*
G01X7670300Y4235200D01*
X7866200D01*
G03X7885300Y4261200I6J20011D01*
G02X7949800Y4187800I114731J35780D01*
G01X7943500Y4190700D01*
G37*
G36*
G01X2235200Y3985000D02*
G02X2215000Y3964800I-20200J0D01*
G01X2125000D01*
G02X2104800Y3985000I0J20200D01*
G01Y4135000D01*
G02X2125000Y4155200I20200J0D01*
G01X2139800D01*
Y4194800D01*
X2125000D01*
G02X2104800Y4215000I0J20200D01*
G01Y4365000D01*
G02X2125000Y4385200I20200J0D01*
G01X2215000D01*
G02X2235200Y4365000I0J-20200D01*
G01Y4215000D01*
G02X2215000Y4194800I-20200J0D01*
G01X2200200D01*
Y4155200D01*
X2215000D01*
G02X2235200Y4135000I0J-20200D01*
G01Y4090200D01*
X2287500D01*
X2324800Y4127500D01*
Y4195000D01*
G02X2345000Y4215200I20200J0D01*
G01X2495000D01*
G02X2515200Y4195000I0J-20200D01*
G01Y4105000D01*
G02X2495000Y4084800I-20200J0D01*
G01X2367500D01*
X2312500Y4029800D01*
X2235200D01*
Y3985000D01*
G37*
G36*
G01X7919100Y4046700D02*
X7943500Y4022300D01*
X7949800Y4025200D01*
G02X7884900Y3950600I50202J-109205D01*
G03X7865700Y3976300I-19172J5699D01*
G01X7670800D01*
X7668000Y3970800D01*
G02X7650000Y3959800I-18000J9227D01*
G01X7550000D01*
G02X7529800Y3980000I0J20200D01*
G01Y4040000D01*
G02X7550000Y4060200I20200J0D01*
G01X7650000D01*
G02X7666800Y4051200I0J-20180D01*
G01X7669800Y4046700D01*
X7919100D01*
G37*
G36*
G01X3465200Y3485000D02*
G02X3445000Y3464800I-20200J0D01*
G01X3355000D01*
G02X3334800Y3485000I0J20200D01*
G01Y3635000D01*
G02X3355000Y3655200I20200J0D01*
G01X3445000D01*
G02X3465200Y3635000I0J-20200D01*
G01Y3595200D01*
X3514200D01*
G02X3570000Y3606000I35761J-35215D01*
G01X3571900Y3605200D01*
X3596300D01*
X3612300Y3621300D01*
G03X3614000Y3647600I-14117J14117D01*
G02X3609800Y3660000I16021J12338D01*
G01Y3800000D01*
G02X3630000Y3820200I20200J0D01*
G01X3710000D01*
G02X3730200Y3800000I0J-20200D01*
G01Y3660000D01*
G02X3720200Y3642500I-20312J0D01*
G01X3715200Y3639700D01*
Y3596300D01*
X3633700Y3514800D01*
X3571900D01*
X3570000Y3514000D01*
G02X3514200Y3524800I-20039J46015D01*
G01X3465200D01*
Y3485000D01*
G37*
G36*
G01X7943500Y3428700D02*
X7909600Y3394800D01*
X7670300D01*
X7667500Y3389800D01*
G02X7650000Y3379800I-17500J10312D01*
G01X7550000D01*
G02X7529800Y3400000I0J20200D01*
G01Y3460000D01*
G02X7550000Y3480200I20200J0D01*
G01X7650000D01*
G02X7667500Y3470200I0J-20312D01*
G01X7670300Y3465200D01*
X7880400D01*
X7893800Y3478600D01*
G02X7949800Y3425800I106126J56461D01*
G01X7943500Y3428700D01*
G37*
G36*
G01X7919100Y3284700D02*
X7943500Y3260300D01*
X7949800Y3263200D01*
G02X7884900Y3188600I50202J-109205D01*
G03X7865700Y3214300I-19172J5699D01*
G01X7671400D01*
X7669800Y3206200D01*
G02X7650000Y3189800I-19800J3752D01*
G01X7550000D01*
G02X7529800Y3210000I0J20200D01*
G01Y3270000D01*
G02X7550000Y3290200I20200J0D01*
G01X7650000D01*
G02X7661600Y3286500I-48J-20185D01*
G01X7664200Y3284700D01*
X7919100D01*
G37*
G36*
G01X7943500Y2666700D02*
X7911600Y2634800D01*
X7670300D01*
X7667500Y2629800D01*
G02X7650000Y2619800I-17500J10312D01*
G01X7550000D01*
G02X7529800Y2640000I0J20200D01*
G01Y2700000D01*
G02X7550000Y2720200I20200J0D01*
G01X7650000D01*
G02X7667500Y2710200I0J-20312D01*
G01X7670300Y2705200D01*
X7882400D01*
X7893700Y2716500D01*
X7890800Y2722800D01*
G02X7949800Y2663800I109200J50200D01*
G01X7943500Y2666700D01*
G37*
G36*
G01X2235200Y2555000D02*
G02X2215000Y2534800I-20200J0D01*
G01X2125000D01*
G02X2104800Y2555000I0J20200D01*
G01Y2705000D01*
G02X2125000Y2725200I20200J0D01*
G01X2139800D01*
Y2764800D01*
X2125000D01*
G02X2104800Y2785000I0J20200D01*
G01Y2935000D01*
G02X2125000Y2955200I20200J0D01*
G01X2215000D01*
G02X2235200Y2935000I0J-20200D01*
G01Y2890200D01*
X2324800D01*
Y2905000D01*
G02X2345000Y2925200I20200J0D01*
G01X2495000D01*
G02X2515200Y2905000I0J-20200D01*
G01Y2815000D01*
G02X2495000Y2794800I-20200J0D01*
G01X2345000D01*
G02X2324800Y2815000I0J20200D01*
G01Y2829800D01*
X2235200D01*
Y2785000D01*
G02X2215000Y2764800I-20200J0D01*
G01X2200200D01*
Y2725200D01*
X2215000D01*
G02X2235200Y2705000I0J-20200D01*
G01Y2555000D01*
G37*
G36*
G01X7884900Y2426600D02*
G03X7865700Y2452300I-19172J5699D01*
G01X7671500D01*
X7669500Y2444900D01*
G02X7650000Y2429800I-19500J5041D01*
G01X7550000D01*
G02X7529800Y2450000I0J20200D01*
G01Y2510000D01*
G02X7550000Y2530200I20200J0D01*
G01X7650000D01*
G02X7663300Y2525200I0J-20189D01*
G01X7666200Y2522700D01*
X7919100D01*
X7943500Y2498300D01*
X7949800Y2501200D01*
G02X7884900Y2426600I50202J-109205D01*
G37*
G36*
G01X2235200Y2095000D02*
G02X2215000Y2074800I-20200J0D01*
G01X2125000D01*
G02X2104800Y2095000I0J20200D01*
G01Y2245000D01*
G02X2125000Y2265200I20200J0D01*
G01X2139800D01*
Y2304800D01*
X2125000D01*
G02X2104800Y2325000I0J20200D01*
G01Y2475000D01*
G02X2125000Y2495200I20200J0D01*
G01X2215000D01*
G02X2235200Y2475000I0J-20200D01*
G01Y2325000D01*
G02X2215000Y2304800I-20200J0D01*
G01X2200200D01*
Y2265200D01*
X2215000D01*
G02X2235200Y2245000I0J-20200D01*
G01Y2200200D01*
X2324800D01*
Y2215000D01*
G02X2345000Y2235200I20200J0D01*
G01X2495000D01*
G02X2515200Y2215000I0J-20200D01*
G01Y2125000D01*
G02X2495000Y2104800I-20200J0D01*
G01X2345000D01*
G02X2324800Y2125000I0J20200D01*
G01Y2139800D01*
X2235200D01*
Y2095000D01*
G37*
G36*
G01X7759400Y1955200D02*
X7850400Y2046200D01*
X7884900D01*
X7887300Y2052700D01*
G02X7894200Y1954000I112711J-41712D01*
G03X7862400Y1958700I-17646J-9463D01*
G01X7788600Y1884800D01*
X7670300D01*
X7667500Y1879800D01*
G02X7650000Y1869800I-17500J10312D01*
G01X7550000D01*
G02X7529800Y1890000I0J20200D01*
G01Y1950000D01*
G02X7550000Y1970200I20200J0D01*
G01X7650000D01*
G02X7667500Y1960200I0J-20312D01*
G01X7670300Y1955200D01*
X7759400D01*
G37*
G36*
G01X6266200Y1970800D02*
Y1906700D01*
G02X6165800I-50200J-86700D01*
G01Y1929200D01*
X6159800Y1935200D01*
Y2109700D01*
X6154800Y2112500D01*
G02X6144800Y2130000I10312J17500D01*
G01Y2310000D01*
G02X6165000Y2330200I20200J0D01*
G01X6255000D01*
G02X6275200Y2310000I0J-20200D01*
G01Y2130000D01*
G02X6265200Y2112500I-20312J0D01*
G01X6260200Y2109700D01*
Y1976800D01*
X6266200Y1970800D01*
G37*
G36*
G01X8120200Y1530000D02*
G02X8100000Y1509800I-20200J0D01*
G01X7900000D01*
G02X7879800Y1530000I0J20200D01*
G01Y1594800D01*
X7850400D01*
X7750400Y1694800D01*
X7670300D01*
X7667500Y1689800D01*
G02X7650000Y1679800I-17500J10312D01*
G01X7550000D01*
G02X7529800Y1700000I0J20200D01*
G01Y1760000D01*
G02X7550000Y1780200I20200J0D01*
G01X7650000D01*
G02X7667500Y1770200I0J-20312D01*
G01X7670300Y1765200D01*
X7779600D01*
X7845700Y1699100D01*
G03X7879800Y1713300I14108J14166D01*
G01Y1730000D01*
G02X7900000Y1750200I20200J0D01*
G01X8100000D01*
G02X8120200Y1730000I0J-20200D01*
G01Y1530000D01*
G37*
G36*
G01X6375000Y6394800D02*
X6285000D01*
G02X6264800Y6415000I0J20200D01*
G01Y6565000D01*
G02X6285000Y6585200I20200J0D01*
G01X6352500D01*
X6407500Y6640200D01*
X6435100D01*
G03X6454900Y6662600I-36J19983D01*
G02X6454800Y6665000I20115J2040D01*
G01Y6815000D01*
G02X6475000Y6835200I20200J0D01*
G01X6565000D01*
G02X6585200Y6815000I0J-20200D01*
G01Y6774200D01*
X6623200D01*
G02X6709200Y6739800I35800J-35200D01*
G03X6743300Y6726000I19993J373D01*
G01X7137500Y7120200D01*
X7272600D01*
G03X7291200Y7147600I26J19996D01*
G02X7289800Y7155000I18857J7400D01*
G01Y7215000D01*
G02X7291200Y7222400I20257J0D01*
G03X7272600Y7249800I-18574J7404D01*
G01X6852500D01*
X6395200Y6792500D01*
Y6665000D01*
G02X6375000Y6644800I-20200J0D01*
G01X6285000D01*
G02X6264800Y6665000I0J20200D01*
G01Y6815000D01*
G02X6285000Y6835200I20200J0D01*
G01X6352500D01*
X6827500Y7310200D01*
X7528600D01*
X7531000Y7316800D01*
G02X7550000Y7330200I19000J-6770D01*
G01X7650000D01*
G02X7667500Y7320200I0J-20312D01*
G01X7670300Y7315200D01*
X7698400D01*
X7893700Y7510500D01*
X7890800Y7516800D01*
G02X7949800Y7457800I109200J50200D01*
G01X7943500Y7460700D01*
X7747100Y7264300D01*
G03X7761300Y7230200I14166J-14108D01*
G01X7835300D01*
X7836300Y7231200D01*
X7888600D01*
G02Y7140800I111400J-45200D01*
G01X7873700D01*
X7872700Y7139800D01*
X7763300D01*
G03X7749100Y7105700I-34J-19992D01*
G01X7943500Y6911300D01*
X7949800Y6914200D01*
G02X7890800Y6855200I50200J-109200D01*
G01X7893700Y6861500D01*
X7700400Y7054800D01*
X7670300D01*
X7667500Y7049800D01*
G02X7650000Y7039800I-17500J10312D01*
G01X7550000D01*
G02X7531000Y7053200I0J20170D01*
G01X7528600Y7059800D01*
X7162500D01*
X6682500Y6579800D01*
X6584800D01*
Y6569000D01*
X6584900Y6568200D01*
G02X6585200Y6565000I-19874J-3477D01*
G01Y6525200D01*
X6624200D01*
G02Y6454800I35800J-35200D01*
G01X6585200D01*
Y6415000D01*
G02X6565000Y6394800I-20200J0D01*
G01X6475000D01*
G02X6454800Y6415000I0J20200D01*
G01Y6565000D01*
G02X6455100Y6568200I20174J-277D01*
G01X6455200Y6569000D01*
Y6579800D01*
X6432500D01*
X6395200Y6542500D01*
Y6415000D01*
G02X6375000Y6394800I-20200J0D01*
G37*
G36*
G01X7943500Y5387300D02*
X7949800Y5390200D01*
G02X7893800Y5337400I50126J-109261D01*
G01X7696400Y5534800D01*
X7670300D01*
X7667500Y5529800D01*
G02X7650000Y5519800I-17500J10312D01*
G01X7550000D01*
G02X7531000Y5533200I0J20170D01*
G01X7528600Y5539800D01*
X6697500D01*
X6352500Y5884800D01*
X6285000D01*
G02X6264800Y5905000I0J20200D01*
G01Y6055000D01*
G02X6285000Y6075200I20200J0D01*
G01X6375000D01*
G02X6395200Y6055000I0J-20200D01*
G01Y5927500D01*
X6722500Y5600200D01*
X7272600D01*
G03X7291200Y5627600I26J19996D01*
G02X7289800Y5635000I18857J7400D01*
G01Y5695000D01*
G02X7291200Y5702400I20257J0D01*
G03X7272600Y5729800I-18574J7404D01*
G01X7197500D01*
X6857500Y6069800D01*
X6584800D01*
Y6059000D01*
X6584900Y6058200D01*
G02X6585200Y6055000I-19874J-3477D01*
G01Y6015200D01*
X6624200D01*
G02Y5944800I35800J-35200D01*
G01X6585200D01*
Y5905000D01*
G02X6565000Y5884800I-20200J0D01*
G01X6475000D01*
G02X6454800Y5905000I0J20200D01*
G01Y6055000D01*
G02X6455100Y6058200I20174J-277D01*
G01X6455200Y6059000D01*
Y6069800D01*
X6417500D01*
X6352500Y6134800D01*
X6285000D01*
G02X6264800Y6155000I0J20200D01*
G01Y6305000D01*
G02X6285000Y6325200I20200J0D01*
G01X6375000D01*
G02X6395200Y6305000I0J-20200D01*
G01Y6177500D01*
X6442500Y6130200D01*
X6458700D01*
Y6142800D01*
X6457400Y6145100D01*
G02X6454800Y6155000I17548J9900D01*
G01Y6305000D01*
G02X6475000Y6325200I20200J0D01*
G01X6565000D01*
G02X6585200Y6305000I0J-20200D01*
G01Y6266200D01*
X6624200D01*
G02Y6195800I35800J-35200D01*
G01X6585200D01*
Y6155000D01*
G02X6585100Y6152600I-20215J-360D01*
G03X6604900Y6130200I19836J-2417D01*
G01X6882500D01*
X7222500Y5790200D01*
X7528600D01*
X7531000Y5796800D01*
G02X7550000Y5810200I19000J-6770D01*
G01X7650000D01*
G02X7667500Y5800200I0J-20312D01*
G01X7670300Y5795200D01*
X7702400D01*
X7893800Y5986600D01*
G02X7949800Y5933800I106126J56461D01*
G01X7943500Y5936700D01*
X7751100Y5744300D01*
G03X7765300Y5710200I14166J-14108D01*
G01X7870700D01*
X7873700Y5707200D01*
X7888600D01*
G02Y5616800I111400J-45200D01*
G01X7836300D01*
X7833300Y5619800D01*
X7759300D01*
G03X7745100Y5585700I-34J-19992D01*
G01X7943500Y5387300D01*
G37*
G36*
G01X5705000Y4844800D02*
X5615000D01*
G02X5594800Y4865000I0J20200D01*
G01Y5015000D01*
G02X5599200Y5027600I20241J0D01*
G03Y5052400I-15677J12400D01*
G02X5594800Y5065000I15841J12600D01*
G01Y5215000D01*
G02X5599200Y5227600I20241J0D01*
G03Y5252400I-15677J12400D01*
G02X5594800Y5265000I15841J12600D01*
G01Y5415000D01*
G02X5599200Y5427600I20241J0D01*
G03Y5452400I-15677J12400D01*
G02X5594800Y5465000I15841J12600D01*
G01Y5615000D01*
G02X5615000Y5635200I20200J0D01*
G01X5705000D01*
G02X5725200Y5615000I0J-20200D01*
G01Y5465000D01*
G02X5720800Y5452400I-20241J0D01*
G03Y5427600I15677J-12400D01*
G02X5725200Y5415000I-15841J-12600D01*
G01Y5265000D01*
G02X5720800Y5252400I-20241J0D01*
G03Y5227600I15677J-12400D01*
G02X5725200Y5215000I-15841J-12600D01*
G01Y5065000D01*
G02X5720800Y5052400I-20241J0D01*
G03Y5027600I15677J-12400D01*
G02X5725200Y5015000I-15841J-12600D01*
G01Y4865000D01*
G02X5705000Y4844800I-20200J0D01*
G37*
G36*
G01X5305000Y3504800D02*
X5215000D01*
G02X5194800Y3525000I0J20200D01*
G01Y3684800D01*
X4825400D01*
X4374800Y4135400D01*
Y4214200D01*
G02X4445200I35200J35800D01*
G01Y4164600D01*
X4682900Y3926900D01*
G03X4715000Y3932200I14155J14129D01*
G02X4800100Y3940200I45014J-22206D01*
G01X4847500D01*
X4954800Y4047500D01*
Y4175000D01*
G02X4975000Y4195200I20200J0D01*
G01X5065000D01*
G02X5085200Y4175000I0J-20200D01*
G01Y4025000D01*
G02X5065000Y4004800I-20200J0D01*
G01X4997500D01*
X4872500Y3879800D01*
X4800100D01*
G02X4782200Y3865000I-40066J30233D01*
G03X4776900Y3832900I8829J-17945D01*
G01X4854600Y3755200D01*
X5180000D01*
G03X5197400Y3785000I-5J19983D01*
G02X5194800Y3795000I17621J9919D01*
G01Y3801400D01*
G03X5170600Y3820900I-19986J-37D01*
G02Y3919100I-10600J49100D01*
G03X5194800Y3938600I4214J19537D01*
G01Y3945000D01*
G02X5215000Y3965200I20200J0D01*
G01X5305000D01*
G02X5325200Y3945000I0J-20200D01*
G01Y3795000D01*
G02X5305000Y3774800I-20200J0D01*
G01X5290200D01*
Y3760300D01*
X5293500Y3757400D01*
G02X5308000Y3705400I-33513J-37367D01*
G03X5313400Y3693400I9566J-2910D01*
G02X5325200Y3675000I-8446J-18400D01*
G01Y3525000D01*
G02X5305000Y3504800I-20200J0D01*
G37*
G54D35*
X1050000Y1581500D03*
Y3130500D03*
X1040000Y3531500D03*
Y5080500D03*
G54D37*
X3278000Y8000000D03*
X3532000D03*
X3786000D03*
X4040000D03*
X5964000Y1400000D03*
X5962000Y1820000D03*
X5920000Y7342000D03*
Y7596000D03*
X6218000Y1400000D03*
X6174000Y7850000D03*
G54D33*
X255000Y1947500D03*
Y2764500D03*
X245000Y3897500D03*
Y4714500D03*
X1380000Y2038000D03*
X1370000Y3988000D03*
X1634000Y1912000D03*
X1624000Y3862000D03*
G54D38*
X8000000Y6424000D03*
G54D34*
X745000Y1784500D03*
Y2927500D03*
X735000Y3734500D03*
Y4877500D03*
G54D36*
X1554000Y8000000D03*
X1808000D03*
%LPD*%
G75*
G54D10*
X350000Y350000D03*
Y8850000D03*
X8350000Y350000D03*
Y8850000D03*
G54D20*
X1300000Y8000000D03*
G54D11*
G01D02*
X940000Y7640000D01*
Y7160000D01*
X699000Y6919000D01*
X400000D01*
X255000Y1693500D03*
Y1947500D03*
Y2764500D03*
Y3018500D03*
X245000Y3643500D03*
Y3897500D03*
Y4714500D03*
Y4968500D03*
X1380000Y2038000D03*
Y2292000D03*
Y2546000D03*
Y2800000D03*
X1370000Y3988000D03*
Y4242000D03*
Y4496000D03*
Y4750000D03*
X1634000Y1912000D03*
Y2166000D03*
Y2420000D03*
Y2674000D03*
X1624000Y3862000D03*
Y4116000D03*
Y4370000D03*
Y4624000D03*
X2970000Y7510000D03*
X5880000Y5590000D03*
G54D30*
G01X90000Y1690000D02*
X93500Y1693500D01*
X255000D01*
G01Y3018500D02*
X91500D01*
X90000Y3020000D01*
G01X1808000Y8000000D02*
X1712800D01*
G01X1808000D02*
X1903200D01*
G01X1808000D02*
Y7904800D01*
G01X2910000Y5690000D02*
X2570000D01*
X2480000Y5780000D01*
Y5810000D01*
G01Y6040000D02*
Y5810000D01*
G01Y6040000D02*
Y6070000D01*
X2680000Y6270000D01*
X2780000D01*
G01D02*
Y6640000D01*
G01X2970000Y7510000D02*
X2780000Y7320000D01*
Y6640000D01*
G01X2910000Y5690000D02*
X3420000D01*
G01X3550000Y3560000D02*
X3615000D01*
X3670000Y3615000D01*
Y3730000D01*
G01X3420000Y5690000D02*
Y5550000D01*
X3410000Y5540000D01*
G01X3850000Y3730000D02*
Y3960000D01*
G01D02*
Y3990000D01*
X4100000Y4240000D01*
Y4580000D01*
X4180000Y4660000D01*
X4810000D01*
X4980000Y4490000D01*
Y4340000D01*
G01X7360000Y5665000D02*
X7852000D01*
X7855000Y5662000D01*
X8000000D01*
G01X7360000Y7185000D02*
X7854000D01*
X7855000Y7186000D01*
X8000000D01*
G54D12*
G01X6210000Y2220000D02*
Y1956000D01*
X6216000Y1950000D01*
Y1820000D01*
X250000Y2380000D03*
X210000Y3340000D03*
X230000Y4370000D03*
X190000Y5300000D03*
X310000Y5880000D03*
X390000Y8290000D03*
X660000Y2380000D03*
X610000Y4490000D03*
X570000Y5690000D03*
X590000Y7690000D03*
X790000Y870000D03*
X740000Y3340000D03*
X880000Y4030000D03*
X710000Y6580000D03*
X1080000Y2730000D03*
X1160000Y4480000D03*
X1190000Y5360000D03*
X1040000Y8860000D03*
X1380000Y380000D03*
X1330000Y1790000D03*
X1490000Y3340000D03*
X1250000Y6580000D03*
X1300000Y7290000D03*
X1770000Y7310000D03*
X1780000Y7750000D03*
X2100000Y860000D03*
X2170000Y5890000D03*
X2210000Y6940000D03*
X2270000Y7780000D03*
X2100000Y8920000D03*
X2360000Y3410000D03*
X2470000Y5180000D03*
X2430000Y8330000D03*
X2810000Y4300000D03*
X2770000Y5810000D03*
Y6060000D03*
X2780000Y6270000D03*
Y6640000D03*
X2650000Y7490000D03*
X2880000Y390000D03*
X2900000Y1870000D03*
X2910000Y5590000D03*
X3020000Y5860000D03*
X2930000Y6390000D03*
Y6700000D03*
X2950000Y7020000D03*
X3220000Y2820000D03*
X3190000Y3810000D03*
X3120000Y4720000D03*
X3130000Y5200000D03*
X3310000Y6410000D03*
X3320000Y7760000D03*
X3560000Y3060000D03*
X3550000Y3560000D03*
X3410000Y5540000D03*
X3550000Y5950000D03*
X3510000Y6980000D03*
X3800000Y870000D03*
X3720000Y2780000D03*
X3710000Y4290000D03*
X3880000Y5060000D03*
X3630000Y5200000D03*
Y5280000D03*
Y5360000D03*
Y5440000D03*
X3875000Y5555000D03*
X3880000Y7440000D03*
X3690000Y8840000D03*
X4060000Y1810000D03*
X4150000Y2680000D03*
X4140000Y3960000D03*
X3990000Y6490000D03*
X4330000Y3090000D03*
X4310000Y3590000D03*
X4410000Y4250000D03*
X4220000Y4530000D03*
X4280000Y8040000D03*
X4690000Y340000D03*
X4500000Y2650000D03*
X4650000Y3030000D03*
X4690000Y3350000D03*
X4670000Y5510000D03*
X4430000Y5940000D03*
X4460000Y6980000D03*
X4480000Y7470000D03*
X4867500Y2795000D03*
X4747400Y3010000D03*
X4860000Y3220000D03*
Y3510000D03*
X4760000Y3910000D03*
X4750000Y4340000D03*
X4940000Y5050000D03*
X4790000Y7260000D03*
X4860000Y8840000D03*
X5120000Y3330000D03*
X5160000Y3870000D03*
X5070000Y3940000D03*
X4970000Y6570000D03*
X5000000Y7300000D03*
X5050000Y7720000D03*
X5070000Y8030000D03*
X5230000Y1810000D03*
X5260000Y3720000D03*
X5440000Y4040000D03*
X5290000Y5200000D03*
Y5280000D03*
Y5360000D03*
Y5440000D03*
X5360000Y5910000D03*
Y6130000D03*
Y6350000D03*
Y6570000D03*
X5760000Y880000D03*
X5660000Y4730000D03*
Y5750000D03*
Y6120000D03*
Y6350000D03*
X5650000Y6600000D03*
X5600000Y7270000D03*
X5650000Y7630000D03*
X5670000Y8020000D03*
X5890000Y2170000D03*
X5930000Y7060000D03*
X5970000Y8840000D03*
X6270000Y2760000D03*
X6100000Y4320000D03*
X6170000Y4830000D03*
X6120000Y5280000D03*
Y6740000D03*
X6550000Y7370000D03*
X6390000Y8010000D03*
X6660000Y360000D03*
X6740000Y3000000D03*
X6660000Y5980000D03*
Y6231000D03*
Y6490000D03*
X6659000Y6739000D03*
X6810000Y7020000D03*
X6910000Y2120000D03*
X6970000Y3480000D03*
X6920000Y4220000D03*
X6930000Y4970000D03*
X7120000Y6670000D03*
Y8860000D03*
X7390000Y860000D03*
X7520000Y4490000D03*
X7620000Y5220000D03*
X7460000Y6100000D03*
X7470000Y7590000D03*
X7720000Y2180000D03*
X7710000Y2920000D03*
Y3690000D03*
X7650000Y6790000D03*
X7820000Y7900000D03*
X8250000Y4400000D03*
G54D21*
X1300000Y8390000D03*
X1620000D03*
G54D31*
G01X2660000Y6040000D02*
X2680000Y6060000D01*
X2770000D01*
G01X3150000Y6050000D02*
X3042400D01*
X2910000Y5917600D01*
Y5690000D01*
G01X4750000Y2890000D02*
X4747400Y2892600D01*
Y3010000D01*
G01X5260000Y3720000D02*
Y3600000D01*
G54D13*
X380000Y5540000D03*
X570000D03*
X1980000Y2170000D03*
Y2400000D03*
Y2630000D03*
Y2860000D03*
Y4060000D03*
Y4290000D03*
Y4520000D03*
Y4750000D03*
X1870000Y8390000D03*
X2170000Y2170000D03*
Y2400000D03*
Y2630000D03*
Y2860000D03*
Y4060000D03*
Y4290000D03*
Y4520000D03*
Y4750000D03*
X2060000Y8390000D03*
X3210000Y3060000D03*
Y3560000D03*
X3400000Y3060000D03*
Y3560000D03*
X3610000Y5690000D03*
X3420000D03*
X3850000Y3960000D03*
X3870000Y5680000D03*
X4040000Y3960000D03*
X4060000Y5680000D03*
X4680000Y2600000D03*
X4560000Y2890000D03*
X4870000Y2600000D03*
X4750000Y2890000D03*
X5210000Y4100000D03*
X5020000D03*
X5450000Y3600000D03*
X5260000D03*
X5450000Y3870000D03*
X5260000D03*
X5470000Y4940000D03*
Y5140000D03*
Y5340000D03*
Y5540000D03*
X5280000Y5910000D03*
X5470000D03*
X5280000Y6130000D03*
X5470000D03*
X5280000Y6350000D03*
X5470000D03*
X5280000Y6570000D03*
X5470000D03*
X5660000Y4940000D03*
Y5140000D03*
Y5340000D03*
Y5540000D03*
X6330000Y5980000D03*
X6520000D03*
X6330000Y6230000D03*
X6520000D03*
X6330000Y6490000D03*
X6520000D03*
X6330000Y6740000D03*
X6520000D03*
G54D22*
X2480000Y5810000D03*
Y6040000D03*
X2660000Y5810000D03*
Y6040000D03*
X3670000Y3730000D03*
X3850000D03*
G54D32*
G01X5710000Y1400000D02*
X250000D01*
X90000Y1560000D01*
Y1690000D01*
G01Y3020000D02*
Y1690000D01*
G01Y3640000D02*
Y3020000D01*
G01X245000Y3643500D02*
X93500D01*
X90000Y3640000D01*
G01X245000Y4968500D02*
X90000Y4813500D01*
Y3640000D01*
G01X380000Y5540000D02*
Y5103500D01*
X245000Y4968500D01*
G01X1300000Y8000000D02*
Y8390000D01*
G01D02*
Y8430000D01*
X1520000Y8650000D01*
X2550000D01*
X3024000Y8176000D01*
Y8000000D01*
G01X1620000Y8390000D02*
X1870000D01*
G01X1808000Y8000000D02*
Y8193000D01*
G01D02*
X1870000Y8255000D01*
G01D02*
Y8390000D01*
G01X2062000Y8000000D02*
X2060000Y7998000D01*
G01X2062000Y8000000D02*
Y8253000D01*
X2060000Y8255000D01*
Y8390000D01*
G01X2970000Y7510000D02*
X2480000Y8000000D01*
X2062000D01*
G01X2970000Y7510000D02*
X3170000Y7310000D01*
X4220000D01*
X4380000Y7470000D01*
X4480000D01*
G01X4610000Y4340000D02*
X4750000D01*
G01X5000000Y7470000D02*
X4480000D01*
G01X4980000Y4340000D02*
X4750000D01*
G01X5210000Y4100000D02*
Y4340000D01*
G01D02*
X4980000D01*
G01X5710000D02*
X5210000D01*
G01X5875000Y6735000D02*
X5140000Y7470000D01*
X5000000D01*
G01X5450000Y3870000D02*
X5710000D01*
G01Y2880000D02*
Y1400000D01*
G01Y3870000D02*
Y2880000D01*
G01Y3870000D02*
Y4340000D01*
G01D02*
Y4560000D01*
X5880000Y4730000D01*
Y5590000D01*
G01D02*
Y6730000D01*
X5875000Y6735000D01*
G54D23*
X2770000Y8000000D03*
X5710000Y1400000D03*
X5920000Y7850000D03*
X6470000Y1820000D03*
G54D14*
X400000Y6919000D03*
G54D15*
Y7300000D03*
G54D24*
X6210000Y2220000D03*
X6480000D03*
G54D16*
X745000Y1784500D03*
Y2927500D03*
X735000Y3734500D03*
Y4877500D03*
G54D25*
X7360000Y1825000D03*
Y2575000D03*
Y3335000D03*
Y4105000D03*
Y5665000D03*
Y7185000D03*
X7600000Y1730000D03*
Y1920000D03*
Y2480000D03*
Y2670000D03*
Y3240000D03*
Y3430000D03*
Y4010000D03*
Y4200000D03*
Y5570000D03*
Y5760000D03*
Y7090000D03*
Y7280000D03*
G54D26*
X8000000Y1630000D03*
Y4900000D03*
G54D17*
X1050000Y1581500D03*
Y3130500D03*
X1040000Y3531500D03*
Y5080500D03*
X3024000Y8000000D03*
X3278000D03*
X3532000D03*
X3786000D03*
X4040000D03*
X5964000Y1400000D03*
X5962000Y1820000D03*
X5920000Y7342000D03*
Y7596000D03*
X6218000Y1400000D03*
X6216000Y1820000D03*
X6174000Y7342000D03*
Y7596000D03*
Y7850000D03*
G54D18*
X1120000Y2110000D03*
Y2300000D03*
Y4060000D03*
Y4250000D03*
X2420000Y2170000D03*
Y2360000D03*
Y2670000D03*
Y2860000D03*
Y4150000D03*
Y4340000D03*
Y4560000D03*
Y4750000D03*
X3150000Y5860000D03*
Y6050000D03*
Y6410000D03*
Y6600000D03*
X4610000Y4340000D03*
Y4530000D03*
G54D27*
X8000000Y2011000D03*
Y2392000D03*
Y2773000D03*
Y3154000D03*
Y3535000D03*
Y3916000D03*
Y4297000D03*
Y5281000D03*
Y5662000D03*
Y6043000D03*
Y6424000D03*
Y6805000D03*
Y7186000D03*
Y7567000D03*
G54D28*
G01X570000Y5540000D02*
Y5690000D01*
G01X1380000Y2546000D02*
X1864000D01*
X1980000Y2430000D01*
Y2400000D01*
G01X1380000Y2800000D02*
X1440000Y2860000D01*
X1980000D01*
G01Y4290000D02*
X1820000D01*
X1614000Y4496000D01*
X1370000D01*
G01X1980000Y4750000D02*
X1370000D01*
G01X1634000Y2166000D02*
X1976000D01*
X1980000Y2170000D01*
G01Y2630000D02*
X1936000Y2674000D01*
X1634000D01*
G01X1980000Y4060000D02*
X1710000D01*
X1709400Y4059400D01*
X1680600D01*
X1624000Y4116000D01*
G01Y4624000D02*
X1728000Y4520000D01*
X1980000D01*
G01X2170000Y2400000D02*
Y2170000D01*
G01D02*
X2420000D01*
G01X2170000Y2860000D02*
Y2630000D01*
G01Y2860000D02*
X2420000D01*
G01X2170000Y4060000D02*
Y4290000D01*
G01X2420000Y4150000D02*
X2390000D01*
X2300000Y4060000D01*
X2170000D01*
G01Y4750000D02*
Y4520000D01*
G01X2420000Y4750000D02*
X2170000D01*
G01X2420000Y2360000D02*
Y2670000D01*
G01Y2284800D02*
Y2360000D01*
G01X2314800D02*
X2420000D01*
G01D02*
X2525200D01*
G01X2420000Y2670000D02*
Y2745200D01*
G01X2314800Y2670000D02*
X2420000D01*
G01D02*
X2525200D01*
G01X2420000Y4340000D02*
Y4560000D01*
G01Y4264800D02*
Y4340000D01*
G01X2314800D02*
X2420000D01*
G01D02*
X2525200D01*
G01X2420000Y4560000D02*
Y4635200D01*
G01X2314800Y4560000D02*
X2420000D01*
G01D02*
X2525200D01*
G01X3020000Y5860000D02*
X3150000D01*
G01X3044800Y6600000D02*
X3150000D01*
G01X3210000Y2954800D02*
Y3060000D01*
G01D02*
Y3165200D01*
G01X3134800Y3060000D02*
X3210000D01*
G01D02*
X3285200D01*
G01X3210000Y3454800D02*
Y3560000D01*
G01D02*
Y3665200D01*
G01X3134800Y3560000D02*
X3210000D01*
G01D02*
X3285200D01*
G01X3150000Y6524800D02*
Y6600000D01*
G01Y6410000D02*
X3310000D01*
G01X3150000Y6600000D02*
Y6675200D01*
G01Y6600000D02*
X3255200D01*
G01X5290000Y5200000D02*
X3630000D01*
G01Y5280000D02*
X5290000D01*
G01X3630000Y5360000D02*
X5290000D01*
G01Y5440000D02*
X3630000D01*
G01X3870000Y5680000D02*
X3875000Y5675000D01*
Y5555000D01*
G01X4040000Y3960000D02*
X4140000D01*
G01X4060000Y5574800D02*
Y5680000D01*
G01D02*
Y5785200D01*
G01X3984800Y5680000D02*
X4060000D01*
G01D02*
X4135200D01*
G01X5920000Y7850000D02*
X4290000D01*
X3880000Y7440000D01*
G01X4560000Y2784800D02*
Y2890000D01*
G01X4604800Y2600000D02*
X4680000D01*
G01X4560000Y2890000D02*
Y2995200D01*
G01X4484800Y2890000D02*
X4560000D01*
G01D02*
X4635200D01*
G01X4610000Y4454800D02*
Y4530000D01*
G01X4504800D02*
X4610000D01*
G01D02*
X4715200D01*
G01X4680000Y2494800D02*
Y2600000D01*
G01D02*
Y2705200D01*
G01Y2600000D02*
X4755200D01*
G01X4870000D02*
Y2607500D01*
X4867500Y2610000D01*
Y2795000D01*
G01X5020000Y4100000D02*
Y4070000D01*
X4860000Y3910000D01*
X4760000D01*
G01X5160000Y3870000D02*
X5260000D01*
G01X5470000Y4940000D02*
X5395000D01*
X5290000Y5045000D01*
Y5200000D01*
G01X5470000Y5140000D02*
Y5170000D01*
X5360000Y5280000D01*
X5290000D01*
G01X5470000Y5340000D02*
X5450000Y5360000D01*
X5290000D01*
G01X5470000Y5540000D02*
X5390000D01*
X5290000Y5440000D01*
G01X5360000Y5910000D02*
X5280000D01*
G01Y6130000D02*
X5360000D01*
G01Y6350000D02*
X5280000D01*
G01Y6570000D02*
X5360000D01*
G01X7600000Y5570000D02*
X6710000D01*
X6330000Y5950000D01*
Y5980000D01*
G01Y6230000D02*
Y6200000D01*
X6430000Y6100000D01*
X6870000D01*
X7210000Y5760000D01*
X7600000D01*
G01X6330000Y6490000D02*
Y6520000D01*
X6420000Y6610000D01*
X6670000D01*
X7150000Y7090000D01*
X7600000D01*
G01Y7280000D02*
X6840000D01*
X6330000Y6770000D01*
Y6740000D01*
G01X7279800Y1825000D02*
X7360000D01*
G01X7279800Y2575000D02*
X7360000D01*
G01X7279800Y3335000D02*
X7360000D01*
G01X7279800Y4105000D02*
X7360000D01*
G01Y1764800D02*
Y1825000D01*
G01D02*
Y1885200D01*
G01Y1825000D02*
X7440200D01*
G01X7360000Y2514800D02*
Y2575000D01*
G01D02*
Y2635200D01*
G01Y2575000D02*
X7440200D01*
G01X7360000Y3274800D02*
Y3335000D01*
G01D02*
Y3395200D01*
G01Y3335000D02*
X7440200D01*
G01X7360000Y4044800D02*
Y4105000D01*
G01D02*
Y4165200D01*
G01Y4105000D02*
X7440200D01*
G54D19*
X1554000Y8000000D03*
X1808000D03*
X2062000D03*
G54D29*
G01X1120000Y2300000D02*
X861500D01*
X255000Y1693500D01*
G01X1120000Y4250000D02*
X851500D01*
X245000Y3643500D01*
G01X1120000Y2110000D02*
X1225200D01*
G01X1014800D02*
X1120000D01*
G01D02*
Y2034800D01*
G01Y2185200D02*
Y2110000D01*
G01X1380000Y2292000D02*
X1128000D01*
X1120000Y2300000D01*
G01Y4060000D02*
X1225200D01*
G01X1014800D02*
X1120000D01*
G01D02*
Y3984800D01*
G01Y4135200D02*
Y4060000D01*
G01X1370000Y4242000D02*
X1128000D01*
X1120000Y4250000D01*
G01X1634000Y2420000D02*
X1506000Y2292000D01*
X1380000D01*
G01X1624000Y4370000D02*
X1496000Y4242000D01*
X1370000D01*
G01X1634000Y1912000D02*
X1714200D01*
G01X1553800D02*
X1634000D01*
G01D02*
Y1831800D01*
G01Y1992200D02*
Y1912000D01*
G01X1624000Y3862000D02*
X1704200D01*
G01X1543800D02*
X1624000D01*
G01D02*
Y3781800D01*
G01Y3942200D02*
Y3862000D01*
G01X1620000Y8390000D02*
X1529800D01*
G01X1620000D02*
Y8520200D01*
G01Y8390000D02*
Y8259800D01*
G01X1870000Y8390000D02*
Y8495200D01*
G01Y8390000D02*
X1945200D01*
G01X2660000Y5810000D02*
X2770000D01*
G01X3560000Y3060000D02*
X4220000Y3720000D01*
Y4530000D01*
G01X3400000Y3060000D02*
X3560000D01*
G01X3550000Y3560000D02*
X3400000D01*
G01X3610000Y5690000D02*
X3685200D01*
G01X3534800D02*
X3610000D01*
G01D02*
Y5795200D01*
G01X4670000Y5510000D02*
X4650000Y5490000D01*
X3740000D01*
X3690000Y5540000D01*
X3410000D01*
G01X4410000Y4250000D02*
Y4150000D01*
X4840000Y3720000D01*
X5260000D01*
G01X4750000Y2890000D02*
X5700000D01*
X5710000Y2880000D01*
G01X5000000Y7300000D02*
Y7470000D01*
G01X5450000Y3494800D02*
Y3600000D01*
G01D02*
Y3705200D01*
G01Y3600000D02*
X5525200D01*
G01X5470000Y5910000D02*
Y5804800D01*
G01Y5910000D02*
X5545200D01*
G01X5470000Y6130000D02*
Y5910000D01*
G01X5545200Y6130000D02*
X5470000D01*
G01Y6350000D02*
Y6130000D01*
G01X5545200Y6350000D02*
X5470000D01*
G01Y6570000D02*
Y6350000D01*
G01Y6570000D02*
Y6675200D01*
G01X5545200Y6570000D02*
X5470000D01*
G01X5660000Y4940000D02*
X5735200D01*
G01X5584800D02*
X5660000D01*
G01D02*
Y4834800D01*
G01Y5140000D02*
X5584800D01*
G01X5735200D02*
X5660000D01*
G01Y5340000D02*
X5584800D01*
G01X5735200D02*
X5660000D01*
G01Y5540000D02*
X5735200D01*
G01X5584800D02*
X5660000D01*
G01Y5645200D02*
Y5540000D01*
G01X6174000Y7596000D02*
X6300000Y7470000D01*
Y7160000D01*
X5875000Y6735000D01*
G01X6174000Y7342000D02*
Y7231800D01*
G01Y7452200D02*
Y7342000D01*
G01D02*
X6063800D01*
G01X6470000Y1709800D02*
Y1820000D01*
G01D02*
X6580200D01*
G01X6359800D02*
X6470000D01*
G01D02*
Y1930200D01*
G01X6480000Y2220000D02*
X6555200D01*
G01X6480000D02*
X6404800D01*
G01X6480000D02*
Y2099800D01*
G01Y2220000D02*
Y2340200D01*
G01X6520000Y5980000D02*
X6660000D01*
G01X6520000Y6230000D02*
X6521000Y6231000D01*
X6660000D01*
G01X6520000Y6490000D02*
X6660000D01*
G01X6520000Y6740000D02*
X6521000Y6739000D01*
X6659000D01*
G01X7600000Y1730000D02*
X7765000D01*
X7865000Y1630000D01*
X8000000D01*
G01X7600000Y1920000D02*
X7774000D01*
X7865000Y2011000D01*
X8000000D01*
G01X7600000Y2480000D02*
X7607500Y2487500D01*
X7904500D01*
X8000000Y2392000D01*
G01X7600000Y2670000D02*
X7897000D01*
X8000000Y2773000D01*
G01X7600000Y3240000D02*
X7609500Y3249500D01*
X7904500D01*
X8000000Y3154000D01*
G01X7600000Y3430000D02*
X7895000D01*
X8000000Y3535000D01*
G01Y3916000D02*
X7904500Y4011500D01*
X7601500D01*
X7600000Y4010000D01*
G01Y4200000D02*
X7903000D01*
X8000000Y4297000D01*
G01X7600000Y5570000D02*
X7711000D01*
X8000000Y5281000D01*
G01X7600000Y5760000D02*
X7717000D01*
X8000000Y6043000D01*
G01X7600000Y7090000D02*
X7715000D01*
X8000000Y6805000D01*
G01X7600000Y7280000D02*
X7713000D01*
X8000000Y7567000D01*
M02*
