G04 ================== begin FILE IDENTIFICATION RECORD ==================*
G04 Layout Name:  G:/Work/io/design/pcb/io_4di_4aic_dbdoctor.brd*
G04 Film Name:    BOTTOM*
G04 File Format:  Gerber RS274X*
G04 File Origin:  Cadence Allegro 17.2-P019*
G04 Origin Date:  Sat May 05 11:38:41 2018*
G04 *
G04 Layer:  ETCH/BOTTOM*
G04 Layer:  PIN/BOTTOM*
G04 Layer:  VIA CLASS/BOTTOM*
G04 *
G04 Offset:    (0.000 0.000)*
G04 Mirror:    No*
G04 Mode:      Positive*
G04 Rotation:  0*
G04 FullContactRelief:  No*
G04 UndefLineWidth:     0.200*
G04 ================== end FILE IDENTIFICATION RECORD ====================*
%FSLAX25Y25*MOMM*%
%IR0*IPPOS*OFA0.00000B0.00000*MIA0B0*SFA1.00000B1.00000*%
%ADD12C,1.*%
%ADD21C,2.2*%
%ADD18R,1.4X.8*%
%ADD10C,3.2*%
%ADD14R,.9X1.5*%
%ADD13C,1.5*%
%ADD19C,1.6*%
%ADD15R,1.5X.9*%
%ADD16R,.9X1.8*%
%ADD20R,2.2X2.2*%
%ADD17R,1.6X1.6*%
%ADD11C,.6*%
%ADD22C,.2*%
%ADD23C,.3*%
%ADD24C,.5*%
%ADD25C,.25*%
%ADD26C,.8*%
%ADD32C,1.01*%
%ADD31C,2.004*%
%ADD30C,1.404*%
%ADD27C,5.004*%
%ADD28C,3.61*%
%ADD29C,1.91*%
G75*
%LPD*%
G75*
G36*
G01X50100Y50100D02*
Y9949900D01*
X4566500D01*
G02X4580600Y9915800I-40J-19982D01*
G01X4515100Y9850200D01*
X4420000D01*
G03X4399800Y9830000I0J-20200D01*
G01Y9670000D01*
G03X4420000Y9649800I20200J0D01*
G01X4580000D01*
G03X4600200Y9670000I0J20200D01*
G01Y9765100D01*
X4621800Y9786700D01*
G02X4655600Y9768800I14140J-14161D01*
G03X4835600Y9808200I98425J-18791D01*
G02X4851900Y9839800I16268J11613D01*
G01X4910100D01*
G02X4926400Y9808200I32J-19987D01*
G03X5089600I81600J-58200D01*
G02X5105900Y9839800I16268J11613D01*
G01X5164100D01*
G02X5180400Y9808200I32J-19987D01*
G03X5343600I81600J-58200D01*
G02X5359900Y9839800I16268J11613D01*
G01X5418100D01*
G02X5434400Y9808200I32J-19987D01*
G03X5597600I81600J-58200D01*
G02X5613900Y9839800I16268J11613D01*
G01X5672100D01*
G02X5688400Y9808200I32J-19987D01*
G03X5851600I81600J-58200D01*
G02X5867900Y9839800I16268J11613D01*
G01X9525100D01*
X9839800Y9525100D01*
Y9257600D01*
G02X9803900Y9245500I-19990J2D01*
G03Y9088500I-103900J-78500D01*
G02X9839800Y9076400I15910J-12102D01*
G01Y8876600D01*
G02X9803900Y8864500I-19990J2D01*
G03Y8707500I-103900J-78500D01*
G02X9839800Y8695400I15910J-12102D01*
G01Y8495600D01*
G02X9803900Y8483500I-19990J2D01*
G03Y8326500I-103900J-78500D01*
G02X9839800Y8314400I15910J-12102D01*
G01Y8114600D01*
G02X9803900Y8102500I-19990J2D01*
G03Y7945500I-103900J-78500D01*
G02X9839800Y7933400I15910J-12102D01*
G01Y7733600D01*
G02X9803900Y7721500I-19990J2D01*
G03Y7564500I-103900J-78500D01*
G02X9839800Y7552400I15910J-12102D01*
G01Y7352600D01*
G02X9803900Y7340500I-19990J2D01*
G03Y7183500I-103900J-78500D01*
G02X9839800Y7171400I15910J-12102D01*
G01Y6971600D01*
G02X9803900Y6959500I-19990J2D01*
G03Y6802500I-103900J-78500D01*
G02X9839800Y6790400I15910J-12102D01*
G01Y6649000D01*
G02X9814900Y6629600I-19996J-15D01*
G03X9810000Y6630200I-4900J-19708D01*
G01X9590000D01*
G03X9569800Y6610000I0J-20200D01*
G01Y6390000D01*
G03X9590000Y6369800I20200J0D01*
G01X9810000D01*
G03X9814900Y6370400I0J20308D01*
G02X9839800Y6351000I4904J-19385D01*
G01Y5990200D01*
X9316100D01*
G03Y5869800I-36100J-60200D01*
G01X9839800D01*
Y5757600D01*
G02X9803900Y5745500I-19990J2D01*
G03Y5588500I-103900J-78500D01*
G02X9839800Y5576400I15910J-12102D01*
G01Y5376600D01*
G02X9803900Y5364500I-19990J2D01*
G03X9576800Y5328000I-103866J-78501D01*
G01X9574400Y5321200D01*
X9525400D01*
X9519400Y5315200D01*
X9075300D01*
X9075200Y5325100D01*
G03X9055000Y5345200I-20200J-100D01*
G01X8905000D01*
G03X8884800Y5325000I0J-20200D01*
G01Y5235000D01*
G03X8905000Y5214800I20200J0D01*
G01X9055000D01*
G03X9075200Y5234900I0J20200D01*
G01X9075300Y5244800D01*
X9548600D01*
X9554600Y5250800D01*
X9574400D01*
X9576800Y5244000D01*
G03X9803900Y5207500I123234J42001D01*
G02X9839800Y5195400I15910J-12102D01*
G01Y4995600D01*
G02X9803900Y4983500I-19990J2D01*
G03Y4826500I-103900J-78500D01*
G02X9839800Y4814400I15910J-12102D01*
G01Y4614600D01*
G02X9803900Y4602500I-19990J2D01*
G03X9576800Y4566000I-103866J-78501D01*
G01X9574400Y4559200D01*
X9525400D01*
X9521400Y4555200D01*
X9075300D01*
X9075200Y4565100D01*
G03X9055000Y4585200I-20200J-100D01*
G01X8905000D01*
G03X8884800Y4565000I0J-20200D01*
G01Y4475000D01*
G03X8905000Y4454800I20200J0D01*
G01X9055000D01*
G03X9075200Y4474900I0J20200D01*
G01X9075300Y4484800D01*
X9550600D01*
X9554600Y4488800D01*
X9574400D01*
X9576800Y4482000D01*
G03X9803900Y4445500I123234J42001D01*
G02X9839800Y4433400I15910J-12102D01*
G01Y4233600D01*
G02X9803900Y4221500I-19990J2D01*
G03Y4064500I-103900J-78500D01*
G02X9839800Y4052400I15910J-12102D01*
G01Y3852600D01*
G02X9803900Y3840500I-19990J2D01*
G03X9576800Y3804000I-103866J-78501D01*
G01X9574400Y3797200D01*
X9540400D01*
X9538400Y3795200D01*
X9075300D01*
X9075200Y3805100D01*
G03X9055000Y3825200I-20200J-100D01*
G01X8905000D01*
G03X8884800Y3805000I0J-20200D01*
G01Y3715000D01*
G03X8905000Y3694800I20200J0D01*
G01X9055000D01*
G03X9075200Y3714900I0J20200D01*
G01X9075300Y3724800D01*
X9575000D01*
X9577400Y3718200D01*
G03X9803900Y3683500I122617J43794D01*
G02X9839800Y3671400I15910J-12102D01*
G01Y3471600D01*
G02X9803900Y3459500I-19990J2D01*
G03Y3302500I-103900J-78500D01*
G02X9839800Y3290400I15910J-12102D01*
G01Y3149000D01*
G02X9814900Y3129600I-19996J-15D01*
G03X9810000Y3130200I-4900J-19708D01*
G01X9590000D01*
G03X9569800Y3110000I0J-20200D01*
G01Y3035200D01*
X9075300D01*
X9075200Y3045100D01*
G03X9055000Y3065200I-20200J-100D01*
G01X8905000D01*
G03X8884800Y3045000I0J-20200D01*
G01Y2955000D01*
G03X8905000Y2934800I20200J0D01*
G01X9055000D01*
G03X9075200Y2954900I0J20200D01*
G01X9075300Y2964800D01*
X9569800D01*
Y2890000D01*
G03X9590000Y2869800I20200J0D01*
G01X9810000D01*
G03X9814900Y2870400I0J20308D01*
G02X9839800Y2851000I4904J-19385D01*
G01Y2814900D01*
X9755100Y2730200D01*
X8436900D01*
X8399300Y2767800D01*
G02X8417200Y2801600I14161J14140D01*
G03X8337600Y2881200I18800J98400D01*
G02X8303800Y2863300I-19660J-3739D01*
G01X8281300Y2885800D01*
X8281800Y2890500D01*
G03X8191500Y2800200I-99800J9500D01*
G01X8196200Y2800700D01*
X8387100Y2609800D01*
X9804900D01*
X9915800Y2720600D01*
G02X9949900Y2706500I14118J-14140D01*
G01Y50100D01*
X50100D01*
G37*
%LPC*%
G75*
G36*
G01X8644800Y5615000D02*
Y5705000D01*
G02X8665000Y5725200I20200J0D01*
G01X8815000D01*
G02X8835200Y5705000I0J-20200D01*
G01Y5615000D01*
G02X8815000Y5594800I-20200J0D01*
G01X8665000D01*
G02X8644800Y5615000I0J20200D01*
G37*
G36*
G01Y4855000D02*
Y4945000D01*
G02X8665000Y4965200I20200J0D01*
G01X8815000D01*
G02X8835200Y4945000I0J-20200D01*
G01Y4855000D01*
G02X8815000Y4834800I-20200J0D01*
G01X8665000D01*
G02X8644800Y4855000I0J20200D01*
G37*
G36*
G01Y4095000D02*
Y4185000D01*
G02X8665000Y4205200I20200J0D01*
G01X8815000D01*
G02X8835200Y4185000I0J-20200D01*
G01Y4095000D01*
G02X8815000Y4074800I-20200J0D01*
G01X8665000D01*
G02X8644800Y4095000I0J20200D01*
G37*
G36*
G01Y3335000D02*
Y3425000D01*
G02X8665000Y3445200I20200J0D01*
G01X8815000D01*
G02X8835200Y3425000I0J-20200D01*
G01Y3335000D01*
G02X8815000Y3314800I-20200J0D01*
G01X8665000D01*
G02X8644800Y3335000I0J20200D01*
G37*
G36*
G01X8589800Y2820000D02*
Y2980000D01*
G02X8610000Y3000200I20200J0D01*
G01X8770000D01*
G02X8790200Y2980000I0J-20200D01*
G01Y2820000D01*
G02X8770000Y2799800I-20200J0D01*
G01X8610000D01*
G02X8589800Y2820000I0J20200D01*
G37*
G36*
G01X7899800Y120000D02*
Y280000D01*
G02X7920000Y300200I20200J0D01*
G01X8080000D01*
G02X8100200Y280000I0J-20200D01*
G01Y120000D01*
G02X8080000Y99800I-20200J0D01*
G01X7920000D01*
G02X7899800Y120000I0J20200D01*
G37*
G36*
G01X6729800Y9590000D02*
Y9750000D01*
G02X6750000Y9770200I20200J0D01*
G01X6910000D01*
G02X6930200Y9750000I0J-20200D01*
G01Y9590000D01*
G02X6910000Y9569800I-20200J0D01*
G01X6750000D01*
G02X6729800Y9590000I0J20200D01*
G37*
G36*
G01X6474800Y3385000D02*
Y3475000D01*
G02X6495000Y3495200I20200J0D01*
G01X6645000D01*
G02X6665200Y3475000I0J-20200D01*
G01Y3385000D01*
G02X6645000Y3364800I-20200J0D01*
G01X6495000D01*
G02X6474800Y3385000I0J20200D01*
G37*
G36*
G01X4784800Y6685000D02*
Y6835000D01*
G02X4805000Y6855200I20200J0D01*
G01X4895000D01*
G02X4915200Y6835000I0J-20200D01*
G01Y6685000D01*
G02X4895000Y6664800I-20200J0D01*
G01X4805000D01*
G02X4784800Y6685000I0J20200D01*
G37*
G36*
G01X4584800Y3765000D02*
Y3855000D01*
G02X4605000Y3875200I20200J0D01*
G01X4755000D01*
G02X4775200Y3855000I0J-20200D01*
G01Y3765000D01*
G02X4755000Y3744800I-20200J0D01*
G01X4605000D01*
G02X4584800Y3765000I0J20200D01*
G37*
G36*
G01X4544800Y3145000D02*
Y3295000D01*
G02X4565000Y3315200I20200J0D01*
G01X4655000D01*
G02X4675200Y3295000I0J-20200D01*
G01Y3145000D01*
G02X4655000Y3124800I-20200J0D01*
G01X4565000D01*
G02X4544800Y3145000I0J20200D01*
G37*
G36*
G01X4134800Y4475000D02*
Y4565000D01*
G02X4155000Y4585200I20200J0D01*
G01X4305000D01*
G02X4325200Y4565000I0J-20200D01*
G01Y4475000D01*
G02X4305000Y4454800I-20200J0D01*
G01X4155000D01*
G02X4134800Y4475000I0J20200D01*
G37*
G36*
G01X4144800Y3845000D02*
Y3935000D01*
G02X4165000Y3955200I20200J0D01*
G01X4315000D01*
G02X4335200Y3935000I0J-20200D01*
G01Y3845000D01*
G02X4315000Y3824800I-20200J0D01*
G01X4165000D01*
G02X4144800Y3845000I0J20200D01*
G37*
G36*
G01X4374800Y2635000D02*
Y2725000D01*
G02X4395000Y2745200I20200J0D01*
G01X4545000D01*
G02X4565200Y2725000I0J-20200D01*
G01Y2635000D01*
G02X4545000Y2614800I-20200J0D01*
G01X4395000D01*
G02X4374800Y2635000I0J20200D01*
G37*
G36*
G01X4144800Y2375000D02*
Y2465000D01*
G02X4165000Y2485200I20200J0D01*
G01X4315000D01*
G02X4335200Y2465000I0J-20200D01*
G01Y2375000D01*
G02X4315000Y2354800I-20200J0D01*
G01X4165000D01*
G02X4144800Y2375000I0J20200D01*
G37*
G36*
G01Y1745000D02*
Y1835000D01*
G02X4165000Y1855200I20200J0D01*
G01X4315000D01*
G02X4335200Y1835000I0J-20200D01*
G01Y1745000D01*
G02X4315000Y1724800I-20200J0D01*
G01X4165000D01*
G02X4144800Y1745000I0J20200D01*
G37*
G36*
G01X7721900Y6357300D02*
X6298100D01*
G02Y6422700I-38100J32700D01*
G01X7721900D01*
G02Y6357300I38100J-32700D01*
G37*
G36*
G01X8595200Y5424900D02*
G02X8575000Y5404800I-20200J100D01*
G01X8425000D01*
G02X8404800Y5425000I0J20200D01*
G01Y5515000D01*
G02X8425000Y5535200I20200J0D01*
G01X8575000D01*
G02X8595200Y5515100I0J-20200D01*
G01X8595300Y5505200D01*
X8644700D01*
X8644800Y5515100D01*
G02X8665000Y5535200I20200J-100D01*
G01X8815000D01*
G02X8835200Y5515100I0J-20200D01*
G01X8835300Y5505200D01*
X8884700D01*
X8884800Y5515100D01*
G02X8905000Y5535200I20200J-100D01*
G01X9055000D01*
G02X9075200Y5515000I0J-20200D01*
G01Y5425000D01*
G02X9055000Y5404800I-20200J0D01*
G01X8905000D01*
G02X8884800Y5424900I0J20200D01*
G01X8884700Y5434800D01*
X8835300D01*
X8835200Y5424900D01*
G02X8815000Y5404800I-20200J100D01*
G01X8665000D01*
G02X8644800Y5424900I0J20200D01*
G01X8644700Y5434800D01*
X8595300D01*
X8595200Y5424900D01*
G37*
G36*
G01X1130200Y5070100D02*
G02X1069800I-30200J-40100D01*
G01Y5179900D01*
G02X1130200I30200J40100D01*
G01Y5070100D01*
G37*
G36*
G01X620200D02*
G02X559800I-30200J-40100D01*
G01Y5179900D01*
G02X620200I30200J40100D01*
G01Y5070100D01*
G37*
G36*
G01X8595200Y4664900D02*
G02X8575000Y4644800I-20200J100D01*
G01X8425000D01*
G02X8404800Y4665000I0J20200D01*
G01Y4755000D01*
G02X8425000Y4775200I20200J0D01*
G01X8575000D01*
G02X8595200Y4755100I0J-20200D01*
G01X8595300Y4745200D01*
X8644700D01*
X8644800Y4755100D01*
G02X8665000Y4775200I20200J-100D01*
G01X8815000D01*
G02X8835200Y4755100I0J-20200D01*
G01X8835300Y4745200D01*
X8884700D01*
X8884800Y4755100D01*
G02X8905000Y4775200I20200J-100D01*
G01X9055000D01*
G02X9075200Y4755000I0J-20200D01*
G01Y4665000D01*
G02X9055000Y4644800I-20200J0D01*
G01X8905000D01*
G02X8884800Y4664900I0J20200D01*
G01X8884700Y4674800D01*
X8835300D01*
X8835200Y4664900D01*
G02X8815000Y4644800I-20200J100D01*
G01X8665000D01*
G02X8644800Y4664900I0J20200D01*
G01X8644700Y4674800D01*
X8595300D01*
X8595200Y4664900D01*
G37*
G36*
G01X5718600Y4514800D02*
G03X5699100Y4490600I37J-19986D01*
G02X5600900I-49100J-10600D01*
G03X5581400Y4514800I-19537J4214D01*
G01X5575000D01*
G02X5554800Y4535000I0J20200D01*
G01Y4625000D01*
G02X5575000Y4645200I20200J0D01*
G01X5725000D01*
G02X5745200Y4625000I0J-20200D01*
G01Y4535000D01*
G02X5725000Y4514800I-20200J0D01*
G01X5718600D01*
G37*
G36*
G01X2395200Y4385000D02*
G02X2375000Y4364800I-20200J0D01*
G01X2285000D01*
G02X2264800Y4385000I0J20200D01*
G01Y4535000D01*
G02X2285000Y4555200I20200J0D01*
G01X2375000D01*
G02X2395200Y4535000I0J-20200D01*
G01Y4490200D01*
X2429900D01*
G02Y4429800I40100J-30200D01*
G01X2395200D01*
Y4385000D01*
G37*
G36*
G01X4015200Y4255000D02*
G02X3995000Y4234800I-20200J0D01*
G01X3905000D01*
G02X3884800Y4255000I0J20200D01*
G01Y4405000D01*
G02X3905000Y4425200I20200J0D01*
G01X3919800D01*
Y4494800D01*
X3905000D01*
G02X3884800Y4515000I0J20200D01*
G01Y4665000D01*
G02X3905000Y4685200I20200J0D01*
G01X3995000D01*
G02X4015200Y4665000I0J-20200D01*
G01Y4515000D01*
G02X3995000Y4494800I-20200J0D01*
G01X3980200D01*
Y4425200D01*
X3995000D01*
G02X4015200Y4405000I0J-20200D01*
G01Y4360200D01*
X4134800D01*
Y4375000D01*
G02X4155000Y4395200I20200J0D01*
G01X4305000D01*
G02X4325200Y4375000I0J-20200D01*
G01Y4285000D01*
G02X4305000Y4264800I-20200J0D01*
G01X4155000D01*
G02X4134800Y4285000I0J20200D01*
G01Y4299800D01*
X4015200D01*
Y4255000D01*
G37*
G36*
G01X8595200Y3904900D02*
G02X8575000Y3884800I-20200J100D01*
G01X8425000D01*
G02X8404800Y3905000I0J20200D01*
G01Y3995000D01*
G02X8425000Y4015200I20200J0D01*
G01X8575000D01*
G02X8595200Y3995100I0J-20200D01*
G01X8595300Y3985200D01*
X8644700D01*
X8644800Y3995100D01*
G02X8665000Y4015200I20200J-100D01*
G01X8815000D01*
G02X8835200Y3995100I0J-20200D01*
G01X8835300Y3985200D01*
X8884700D01*
X8884800Y3995100D01*
G02X8905000Y4015200I20200J-100D01*
G01X9055000D01*
G02X9075200Y3995000I0J-20200D01*
G01Y3905000D01*
G02X9055000Y3884800I-20200J0D01*
G01X8905000D01*
G02X8884800Y3904900I0J20200D01*
G01X8884700Y3914800D01*
X8835300D01*
X8835200Y3904900D01*
G02X8815000Y3884800I-20200J100D01*
G01X8665000D01*
G02X8644800Y3904900I0J20200D01*
G01X8644700Y3914800D01*
X8595300D01*
X8595200Y3904900D01*
G37*
G36*
G01X2475200Y3830000D02*
G02X2455000Y3809800I-20200J0D01*
G01X2365000D01*
G02X2344800Y3830000I0J20200D01*
G01Y4010000D01*
G02X2365000Y4030200I20200J0D01*
G01X2379800D01*
Y4079800D01*
X2365000D01*
G02X2344800Y4100000I0J20200D01*
G01Y4280000D01*
G02X2365000Y4300200I20200J0D01*
G01X2455000D01*
G02X2475200Y4280000I0J-20200D01*
G01Y4100000D01*
G02X2455000Y4079800I-20200J0D01*
G01X2440200D01*
Y4030200D01*
X2455000D01*
G02X2475200Y4010000I0J-20200D01*
G01Y3830000D01*
G37*
G36*
G01X4844800Y4398700D02*
X5062500Y4616400D01*
X5063300Y4618400D01*
G02X5091600Y4646700I46700J-18400D01*
G01X5093600Y4647500D01*
X5251300Y4805200D01*
X5554700D01*
X5554800Y4815100D01*
G02X5575000Y4835200I20200J-100D01*
G01X5725000D01*
G02X5745200Y4815100I0J-20200D01*
G01X5745300Y4805200D01*
X5874800D01*
Y4844200D01*
G02X5945200I35200J35800D01*
G01Y4805200D01*
X7706300D01*
G02Y4714800I53700J-45200D01*
G01X5743000D01*
X5740000Y4711500D01*
G02X5725000Y4704800I-15000J13441D01*
G01X5575000D01*
G02X5560000Y4711500I0J20141D01*
G01X5557000Y4714800D01*
X5288700D01*
X5157500Y4583600D01*
X5156700Y4581600D01*
G02X5128400Y4553300I-46700J18400D01*
G01X5126400Y4552500D01*
X4935200Y4361300D01*
Y3860200D01*
X4960000D01*
G02X4980200Y3840000I0J-20200D01*
G01Y3760000D01*
G02X4960000Y3739800I-20200J0D01*
G01X4820000D01*
G02X4799800Y3760000I0J20200D01*
G01Y3840000D01*
G02X4820000Y3860200I20200J0D01*
G01X4844800D01*
Y4398700D01*
G37*
G36*
G01X4015200Y3625000D02*
G02X3995000Y3604800I-20200J0D01*
G01X3905000D01*
G02X3884800Y3625000I0J20200D01*
G01Y3775000D01*
G02X3905000Y3795200I20200J0D01*
G01X3919800D01*
Y3854800D01*
X3905000D01*
G02X3884800Y3875000I0J20200D01*
G01Y4025000D01*
G02X3905000Y4045200I20200J0D01*
G01X3995000D01*
G02X4015200Y4025000I0J-20200D01*
G01Y3875000D01*
G02X3995000Y3854800I-20200J0D01*
G01X3980200D01*
Y3795200D01*
X3995000D01*
G02X4015200Y3775000I0J-20200D01*
G01Y3730200D01*
X4144800D01*
Y3745000D01*
G02X4165000Y3765200I20200J0D01*
G01X4315000D01*
G02X4335200Y3745000I0J-20200D01*
G01Y3655000D01*
G02X4315000Y3634800I-20200J0D01*
G01X4165000D01*
G02X4144800Y3655000I0J20200D01*
G01Y3669800D01*
X4015200D01*
Y3625000D01*
G37*
G36*
G01X3855200D02*
G02X3805000Y3574800I-50200J0D01*
G01X3715000D01*
G02X3667100Y3609900I0J50234D01*
G03X3642500Y3623000I-19031J-6091D01*
G02Y3777000I-22500J77000D01*
G03X3667100Y3790100I5569J19191D01*
G02X3679800Y3810800I47877J-15128D01*
G03Y3839200I-14071J14200D01*
G02X3667100Y3859900I35177J35828D01*
G03X3642500Y3873000I-19031J-6091D01*
G02Y4027000I-22500J77000D01*
G03X3667100Y4040100I5569J19191D01*
G02X3715000Y4075200I47900J-15134D01*
G01X3805000D01*
G02X3855200Y4025000I0J-50200D01*
G01Y3875000D01*
G02X3840200Y3839200I-50221J0D01*
G03Y3810800I14071J-14200D01*
G02X3855200Y3775000I-35221J-35800D01*
G01Y3625000D01*
G37*
G36*
G01X4725200Y3554800D02*
Y3501900D01*
X4726000Y3500000D01*
G02X4634000I-46000J-20000D01*
G01X4634800Y3501900D01*
Y3554800D01*
X4605000D01*
G02X4584800Y3575000I0J20200D01*
G01Y3665000D01*
G02X4605000Y3685200I20200J0D01*
G01X4755000D01*
G02X4774000Y3671800I0J-20170D01*
G01X4776400Y3665200D01*
X4799700D01*
X4802500Y3670200D01*
G02X4820000Y3680200I17500J-10312D01*
G01X4960000D01*
G02X4980200Y3660000I0J-20200D01*
G01Y3580000D01*
G02X4960000Y3559800I-20200J0D01*
G01X4820000D01*
G02X4802500Y3569800I0J20312D01*
G01X4799700Y3574800D01*
X4776400D01*
X4774000Y3568200D01*
G02X4755000Y3554800I-19000J6770D01*
G01X4725200D01*
G37*
G36*
G01X8575000Y3314800D02*
X8425000D01*
G02X8404800Y3335000I0J20200D01*
G01Y3395400D01*
X8234800Y3565400D01*
Y5095400D01*
X7905400Y5424800D01*
X4625400D01*
X4434800Y5615400D01*
Y6344200D01*
G02X4505200I35200J35800D01*
G01Y5644600D01*
X4550700Y5599100D01*
G03X4584800Y5613300I14108J14166D01*
G01Y6104200D01*
G02X4655200I35200J35800D01*
G01Y5961000D01*
G03X4685100Y5943600I19994J-33D01*
G02X4745200Y5864200I24915J-43587D01*
G01Y5644600D01*
X4754600Y5635200D01*
X4930000D01*
G03X4949900Y5656600I-42J19992D01*
G02X5035800Y5695200I50091J3408D01*
G01X8404700D01*
X8404800Y5705100D01*
G02X8425000Y5725200I20200J-100D01*
G01X8575000D01*
G02X8595200Y5705000I0J-20200D01*
G01Y5615000D01*
G02X8575000Y5594800I-20200J0D01*
G01X8425000D01*
G02X8404800Y5614900I0J20200D01*
G01X8404700Y5624800D01*
X8053300D01*
G03X8039100Y5590700I-34J-19992D01*
G01X8535200Y5094600D01*
Y4965200D01*
X8575000D01*
G02X8595200Y4945000I0J-20200D01*
G01Y4855000D01*
G02X8575000Y4834800I-20200J0D01*
G01X8425000D01*
G02X8404800Y4855000I0J20200D01*
G01Y4945000D01*
G02X8425000Y4965200I20200J0D01*
G01X8464800D01*
Y5065400D01*
X8409300Y5120900D01*
G03X8375200Y5106700I-14108J-14166D01*
G01Y4284600D01*
X8454600Y4205200D01*
X8575000D01*
G02X8595200Y4185000I0J-20200D01*
G01Y4095000D01*
G02X8575000Y4074800I-20200J0D01*
G01X8425000D01*
G02X8404800Y4095000I0J20200D01*
G01Y4155400D01*
X8339300Y4220900D01*
G03X8305200Y4206700I-14108J-14166D01*
G01Y3594600D01*
X8454600Y3445200D01*
X8575000D01*
G02X8595200Y3425000I0J-20200D01*
G01Y3335000D01*
G02X8575000Y3314800I-20200J0D01*
G37*
G36*
G01X8595200Y3144900D02*
G02X8575000Y3124800I-20200J100D01*
G01X8425000D01*
G02X8404800Y3145000I0J20200D01*
G01Y3235000D01*
G02X8425000Y3255200I20200J0D01*
G01X8575000D01*
G02X8595200Y3235100I0J-20200D01*
G01X8595300Y3225200D01*
X8644700D01*
X8644800Y3235100D01*
G02X8665000Y3255200I20200J-100D01*
G01X8815000D01*
G02X8835200Y3235100I0J-20200D01*
G01X8835300Y3225200D01*
X8884700D01*
X8884800Y3235100D01*
G02X8905000Y3255200I20200J-100D01*
G01X9055000D01*
G02X9075200Y3235000I0J-20200D01*
G01Y3145000D01*
G02X9055000Y3124800I-20200J0D01*
G01X8905000D01*
G02X8884800Y3144900I0J20200D01*
G01X8884700Y3154800D01*
X8835300D01*
X8835200Y3144900D01*
G02X8815000Y3124800I-20200J100D01*
G01X8665000D01*
G02X8644800Y3144900I0J20200D01*
G01X8644700Y3154800D01*
X8595300D01*
X8595200Y3144900D01*
G37*
G36*
G01X4865200Y3145000D02*
G02X4845000Y3124800I-20200J0D01*
G01X4755000D01*
G02X4734800Y3145000I0J20200D01*
G01Y3295000D01*
G02X4755000Y3315200I20200J0D01*
G01X4845000D01*
G02X4865200Y3295000I0J-20200D01*
G01Y3293600D01*
G03X4889400Y3274100I19986J37D01*
G02Y3175900I10600J-49100D01*
G03X4865200Y3156400I-4214J-19537D01*
G01Y3145000D01*
G37*
G36*
G01X6387200Y2979900D02*
X6590100Y3182800D01*
X6589900Y3187300D01*
G02X6637300Y3139900I50100J2700D01*
G01X6632800Y3140100D01*
X6429900Y2937200D01*
X6430100Y2932700D01*
G02X6382700Y2980100I-50100J-2700D01*
G01X6387200Y2979900D01*
G37*
G36*
G01X6040100Y2487200D02*
X5677200Y2850100D01*
X5672700Y2849900D01*
G02X5720100Y2897300I-2700J50100D01*
G01X5719900Y2892800D01*
X6082800Y2529900D01*
X6087300Y2530100D01*
G02X6039900Y2482700I2700J-50100D01*
G01X6040100Y2487200D01*
G37*
G36*
G01X2395200Y2285000D02*
G02X2375000Y2264800I-20200J0D01*
G01X2285000D01*
G02X2264800Y2285000I0J20200D01*
G01Y2435000D01*
G02X2285000Y2455200I20200J0D01*
G01X2375000D01*
G02X2395200Y2435000I0J-20200D01*
G01Y2390200D01*
X2429900D01*
G02Y2329800I40100J-30200D01*
G01X2395200D01*
Y2285000D01*
G37*
G36*
G01X4015200Y2155000D02*
G02X3995000Y2134800I-20200J0D01*
G01X3905000D01*
G02X3884800Y2155000I0J20200D01*
G01Y2305000D01*
G02X3905000Y2325200I20200J0D01*
G01X3919800D01*
Y2394800D01*
X3905000D01*
G02X3884800Y2415000I0J20200D01*
G01Y2565000D01*
G02X3905000Y2585200I20200J0D01*
G01X3995000D01*
G02X4015200Y2565000I0J-20200D01*
G01Y2415000D01*
G02X3995000Y2394800I-20200J0D01*
G01X3980200D01*
Y2325200D01*
X3995000D01*
G02X4015200Y2305000I0J-20200D01*
G01Y2260200D01*
X4144800D01*
Y2275000D01*
G02X4165000Y2295200I20200J0D01*
G01X4315000D01*
G02X4335200Y2275000I0J-20200D01*
G01Y2185000D01*
G02X4315000Y2164800I-20200J0D01*
G01X4165000D01*
G02X4144800Y2185000I0J20200D01*
G01Y2199800D01*
X4015200D01*
Y2155000D01*
G37*
G36*
G01X2475200Y1740000D02*
G02X2455000Y1719800I-20200J0D01*
G01X2365000D01*
G02X2344800Y1740000I0J20200D01*
G01Y1920000D01*
G02X2365000Y1940200I20200J0D01*
G01X2379800D01*
Y1989800D01*
X2365000D01*
G02X2344800Y2010000I0J20200D01*
G01Y2190000D01*
G02X2365000Y2210200I20200J0D01*
G01X2455000D01*
G02X2475200Y2190000I0J-20200D01*
G01Y2010000D01*
G02X2455000Y1989800I-20200J0D01*
G01X2440200D01*
Y1940200D01*
X2455000D01*
G02X2475200Y1920000I0J-20200D01*
G01Y1740000D01*
G37*
G36*
G01X4015200Y1525000D02*
G02X3995000Y1504800I-20200J0D01*
G01X3905000D01*
G02X3884800Y1525000I0J20200D01*
G01Y1675000D01*
G02X3905000Y1695200I20200J0D01*
G01X3919800D01*
Y1754800D01*
X3905000D01*
G02X3884800Y1775000I0J20200D01*
G01Y1925000D01*
G02X3905000Y1945200I20200J0D01*
G01X3995000D01*
G02X4015200Y1925000I0J-20200D01*
G01Y1775000D01*
G02X3995000Y1754800I-20200J0D01*
G01X3980200D01*
Y1695200D01*
X3995000D01*
G02X4015200Y1675000I0J-20200D01*
G01Y1630200D01*
X4144800D01*
Y1645000D01*
G02X4165000Y1665200I20200J0D01*
G01X4315000D01*
G02X4335200Y1645000I0J-20200D01*
G01Y1555000D01*
G02X4315000Y1534800I-20200J0D01*
G01X4165000D01*
G02X4144800Y1555000I0J20200D01*
G01Y1569800D01*
X4015200D01*
Y1525000D01*
G37*
G36*
G01X3855200D02*
G02X3805000Y1474800I-50200J0D01*
G01X3715000D01*
G02X3667100Y1509900I0J50234D01*
G03X3642500Y1523000I-19031J-6091D01*
G02Y1677000I-22500J77000D01*
G03X3667100Y1690100I5569J19191D01*
G02X3679800Y1710800I47877J-15128D01*
G03Y1739200I-14071J14200D01*
G02X3667100Y1759900I35177J35828D01*
G03X3642500Y1773000I-19031J-6091D01*
G02Y1927000I-22500J77000D01*
G03X3667100Y1940100I5569J19191D01*
G02X3715000Y1975200I47900J-15134D01*
G01X3805000D01*
G02X3855200Y1925000I0J-50200D01*
G01Y1775000D01*
G02X3840200Y1739200I-50221J0D01*
G03Y1710800I14071J-14200D01*
G02X3855200Y1675000I-35221J-35800D01*
G01Y1525000D01*
G37*
G36*
G01X4705000Y6664800D02*
X4615000D01*
G02X4594800Y6685000I0J20200D01*
G01Y6835000D01*
G02X4608200Y6854000I20170J0D01*
G01X4614800Y6856400D01*
Y6888100D01*
X4614000Y6890000D01*
G02Y6930000I46000J20000D01*
G01X4614800Y6931900D01*
Y6971300D01*
X4509300Y7076700D01*
G03X4475200Y7062600I-14121J-14133D01*
G01Y7005000D01*
G02X4455000Y6984800I-20200J0D01*
G01X4305000D01*
G02X4284800Y7005000I0J20200D01*
G01Y7095000D01*
G02X4305000Y7115200I20200J0D01*
G01X4422600D01*
G03X4436700Y7149300I-33J19979D01*
G01X4411300Y7174800D01*
X4305000D01*
G02X4286000Y7188200I0J20170D01*
G01X4283600Y7194800D01*
X4201300D01*
X4183600Y7212500D01*
X4181600Y7213300D01*
G02X4180000Y7214000I19305J46304D01*
G01X4178100Y7214800D01*
X3691300D01*
X3576100Y7329900D01*
X3571800Y7329800D01*
G02X3524800Y7453700I-1800J70181D01*
G01Y7646300D01*
G02Y7753700I45200J53700D01*
G01Y8268700D01*
X4101300Y8845200D01*
X6198100D01*
X6200000Y8846000D01*
G02X6240000I20000J-46000D01*
G01X6241900Y8845200D01*
X6991300D01*
X7224800Y9078700D01*
Y9211300D01*
X7115400Y9320700D01*
X7109800Y9319200D01*
G02X7180800Y9390200I-25800J96800D01*
G01X7179300Y9384600D01*
X7315200Y9248700D01*
Y9041300D01*
X7028700Y8754800D01*
X6241900D01*
X6240000Y8754000D01*
G02X6200000I-20000J46000D01*
G01X6198100Y8754800D01*
X4465700D01*
G03X4447000Y8727700I-18J-19989D01*
G02X4353000I-47000J-17700D01*
G03X4334300Y8754800I-18682J7111D01*
G01X4138700D01*
X3615200Y8231300D01*
Y7753700D01*
G02Y7646300I-45200J-53700D01*
G01Y7453700D01*
G02X3640200Y7398200I-45182J-53733D01*
G01X3640100Y7393900D01*
X3728700Y7305200D01*
X4178100D01*
X4180000Y7306000D01*
G02X4243400Y7285200I20015J-46018D01*
G01X4283600D01*
X4286000Y7291800D01*
G02X4305000Y7305200I19000J-6770D01*
G01X4455000D01*
G02X4475200Y7285000I0J-20200D01*
G01Y7238700D01*
X4705200Y7008700D01*
Y6931900D01*
X4706000Y6930000D01*
G02Y6890000I-46000J-20000D01*
G01X4705200Y6888100D01*
Y6856400D01*
X4711800Y6854000D01*
G02X4725200Y6835000I-6770J-19000D01*
G01Y6685000D01*
G02X4705000Y6664800I-20200J0D01*
G37*
G36*
G01X3805000Y4204800D02*
X3715000D01*
G02X3667100Y4239900I0J50234D01*
G03X3642500Y4253000I-19031J-6091D01*
G02Y4407000I-22500J77000D01*
G03X3667100Y4420100I5569J19191D01*
G02X3683800Y4444300I47856J-15163D01*
G03Y4475700I-12419J15700D01*
G02X3667100Y4499900I31156J39363D01*
G03X3642500Y4513000I-19031J-6091D01*
G02Y4667000I-22500J77000D01*
G03X3667100Y4680100I5569J19191D01*
G02X3715000Y4715200I47900J-15134D01*
G01X3805000D01*
G02X3855200Y4665000I0J-50200D01*
G01Y4515000D01*
G02X3836200Y4475700I-50144J0D01*
G03Y4444300I12419J-15700D01*
G02X3855200Y4405000I-31144J-39300D01*
G01Y4255000D01*
G02X3805000Y4204800I-50200J0D01*
G37*
G36*
G01X2185000Y3809800D02*
X2095000D01*
G02X2074800Y3830000I0J20200D01*
G01Y4010000D01*
G02X2075400Y4014900I20308J0D01*
G03X2056000Y4039800I-19385J4904D01*
G01X1995200D01*
Y4025000D01*
G02X1975000Y4004800I-20200J0D01*
G01X1825000D01*
G02X1804800Y4025000I0J20200D01*
G01Y4115000D01*
G02X1825000Y4135200I20200J0D01*
G01X1975000D01*
G02X1995200Y4115000I0J-20200D01*
G01Y4100200D01*
X2052500D01*
X2074800Y4122500D01*
Y4280000D01*
G02X2095000Y4300200I20200J0D01*
G01X2109800D01*
Y4364800D01*
X2095000D01*
G02X2074800Y4385000I0J20200D01*
G01Y4429800D01*
X2052500D01*
X2022500Y4459800D01*
X1995200D01*
Y4445000D01*
G02X1975000Y4424800I-20200J0D01*
G01X1825000D01*
G02X1804800Y4445000I0J20200D01*
G01Y4535000D01*
G02X1825000Y4555200I20200J0D01*
G01X1975000D01*
G02X1995200Y4535000I0J-20200D01*
G01Y4520200D01*
X2047500D01*
X2057700Y4510000D01*
G03X2074800Y4517000I7099J7044D01*
G01Y4535000D01*
G02X2095000Y4555200I20200J0D01*
G01X2185000D01*
G02X2205200Y4535000I0J-20200D01*
G01Y4385000D01*
G02X2185000Y4364800I-20200J0D01*
G01X2170200D01*
Y4300200D01*
X2185000D01*
G02X2205200Y4280000I0J-20200D01*
G01Y4100000D01*
G02X2185000Y4079800I-20200J0D01*
G01X2117500D01*
X2077700Y4040000D01*
X2088200Y4029600D01*
X2092900Y4030100D01*
G02X2095000Y4030200I2010J-20104D01*
G01X2185000D01*
G02X2205200Y4010000I0J-20200D01*
G01Y3830000D01*
G02X2185000Y3809800I-20200J0D01*
G37*
G36*
G01X1705000Y3784800D02*
X1615000D01*
G02X1594800Y3805000I0J20200D01*
G01Y3955000D01*
G02X1601600Y3970100I20165J0D01*
G03Y3999900I-13354J14900D01*
G02X1594800Y4015000I13365J15100D01*
G01Y4165000D01*
G02X1601600Y4180100I20165J0D01*
G03Y4209900I-13354J14900D01*
G02X1594800Y4225000I13365J15100D01*
G01Y4375000D01*
G02X1601600Y4390100I20165J0D01*
G03Y4419900I-13354J14900D01*
G02X1594800Y4435000I13365J15100D01*
G01Y4585000D01*
G02X1615000Y4605200I20200J0D01*
G01X1705000D01*
G02X1725200Y4585000I0J-20200D01*
G01Y4457500D01*
X1742500Y4440200D01*
X1772500D01*
X1847500Y4365200D01*
X1975000D01*
G02X1995200Y4345000I0J-20200D01*
G01Y4255000D01*
G02X1975000Y4234800I-20200J0D01*
G01X1825000D01*
G02X1804800Y4255000I0J20200D01*
G01Y4322500D01*
X1747500Y4379800D01*
X1725200D01*
Y4225000D01*
G02X1718400Y4209900I-20165J0D01*
G03Y4180100I13354J-14900D01*
G02X1725200Y4165000I-13365J-15100D01*
G01Y4015000D01*
G02X1718400Y3999900I-20165J0D01*
G03Y3970100I13354J-14900D01*
G02X1725200Y3955000I-13365J-15100D01*
G01Y3910200D01*
X1804800D01*
Y3925000D01*
G02X1825000Y3945200I20200J0D01*
G01X1975000D01*
G02X1995200Y3925000I0J-20200D01*
G01Y3835000D01*
G02X1975000Y3814800I-20200J0D01*
G01X1825000D01*
G02X1804800Y3835000I0J20200D01*
G01Y3849800D01*
X1725200D01*
Y3805000D01*
G02X1705000Y3784800I-20200J0D01*
G37*
G36*
G01X4750000Y2629800D02*
X4610000D01*
G02X4589800Y2650000I0J20200D01*
G01Y2730000D01*
G02X4610000Y2750200I20200J0D01*
G01X4724000D01*
X4776000Y2802200D01*
X4764100Y2814100D01*
X4757900Y2811400D01*
G02X4750000Y2809800I-7900J18703D01*
G01X4610000D01*
G02X4589900Y2828200I0J20179D01*
G01X4589100Y2837300D01*
X4565200D01*
Y2825000D01*
G02X4545000Y2804800I-20200J0D01*
G01X4395000D01*
G02X4374800Y2825000I0J20200D01*
G01Y2915000D01*
G02X4395000Y2935200I20200J0D01*
G01X4545000D01*
G02X4565200Y2915000I0J-20200D01*
G01Y2902700D01*
X4589100D01*
X4589900Y2911800D01*
G02X4610000Y2930200I20100J-1779D01*
G01X4610500D01*
G03X4630300Y2953000I-3J20000D01*
G02X4729700I49700J7000D01*
G03X4749500Y2930200I19803J-2800D01*
G01X4750000D01*
G02X4770200Y2910000I0J-20200D01*
G01Y2830000D01*
G02X4768600Y2822100I-20303J0D01*
G01X4765900Y2815900D01*
X4777800Y2804000D01*
X5501500Y3527700D01*
X5745500D01*
G03X5765100Y3551300I-53J19983D01*
G02X5764800Y3555000I19918J3477D01*
G01Y3705000D01*
G02X5785000Y3725200I20200J0D01*
G01X5875000D01*
G02X5895200Y3705000I0J-20200D01*
G01Y3555000D01*
G02X5883200Y3536500I-20260J0D01*
G03X5872400Y3511600I8050J-18284D01*
G02X5875200Y3495200I-47408J-16533D01*
G01Y3491000D01*
X5879000Y3487200D01*
G03X5912200Y3495300I14131J14169D01*
G02X5942700Y3527100I47795J-15314D01*
G03X5955300Y3550400I-6876J18775D01*
G02X5954800Y3555000I19714J4470D01*
G01Y3705000D01*
G02X5975000Y3725200I20200J0D01*
G01X6065000D01*
G02X6085200Y3705000I0J-20200D01*
G01Y3555000D01*
G02X6085100Y3552600I-20215J-360D01*
G01X6084500Y3547700D01*
X6095000Y3537200D01*
X6210500Y3652700D01*
X6474800D01*
Y3665000D01*
G02X6495000Y3685200I20200J0D01*
G01X6501400D01*
G03X6520900Y3709400I-37J19986D01*
G02X6619100I49100J10600D01*
G03X6638600Y3685200I19537J-4214D01*
G01X6645000D01*
G02X6665200Y3665000I0J-20200D01*
G01Y3652700D01*
X7721900D01*
G02Y3587300I38100J-32700D01*
G01X6665200D01*
Y3575000D01*
G02X6645000Y3554800I-20200J0D01*
G01X6495000D01*
G02X6474800Y3575000I0J20200D01*
G01Y3587300D01*
X6237500D01*
X6209600Y3559300D01*
G03X6223700Y3525200I14145J-14116D01*
G01X6305000D01*
G02X6325200Y3505000I0J-20200D01*
G01Y3415000D01*
G02X6305000Y3394800I-20200J0D01*
G01X6155000D01*
G02X6134800Y3415000I0J20200D01*
G01Y3436300D01*
G03X6100700Y3450400I-19984J-45D01*
G01X6097500Y3447300D01*
X5998100D01*
G02X5975300Y3432200I-38070J32720D01*
G03X5967200Y3399000I6069J-19069D01*
G01X6063500Y3302700D01*
X6134800D01*
Y3315000D01*
G02X6155000Y3335200I20200J0D01*
G01X6305000D01*
G02X6325200Y3315000I0J-20200D01*
G01Y3302700D01*
X6341700D01*
X6344600Y3305600D01*
G02Y3234400I35400J-35600D01*
G01X6341700Y3237300D01*
X6325200D01*
Y3225000D01*
G02X6305000Y3204800I-20200J0D01*
G01X6155000D01*
G02X6134800Y3225000I0J20200D01*
G01Y3237300D01*
X6036500D01*
X5829000Y3444800D01*
X5824800D01*
G02X5786900Y3462300I190J50203D01*
G01X5528500D01*
X4770200Y2704000D01*
Y2650000D01*
G02X4750000Y2629800I-20200J0D01*
G37*
G36*
G01X3805000Y2104800D02*
X3715000D01*
G02X3667100Y2139900I0J50234D01*
G03X3642500Y2153000I-19031J-6091D01*
G02Y2307000I-22500J77000D01*
G03X3667100Y2320100I5569J19191D01*
G02X3683800Y2344300I47856J-15163D01*
G03Y2375700I-12419J15700D01*
G02X3667100Y2399900I31156J39363D01*
G03X3642500Y2413000I-19031J-6091D01*
G02Y2567000I-22500J77000D01*
G03X3667100Y2580100I5569J19191D01*
G02X3715000Y2615200I47900J-15134D01*
G01X3805000D01*
G02X3855200Y2565000I0J-50200D01*
G01Y2415000D01*
G02X3836200Y2375700I-50144J0D01*
G03Y2344300I12419J-15700D01*
G02X3855200Y2305000I-31144J-39300D01*
G01Y2155000D01*
G02X3805000Y2104800I-50200J0D01*
G37*
G36*
G01X7036000Y1940200D02*
X7040200D01*
G02X6989800Y1889800I-200J-50200D01*
G01Y1894000D01*
X6462800Y2421000D01*
X6450900Y2409100D01*
X6453600Y2402900D01*
G02X6455200Y2395000I-18703J-7900D01*
G01Y2305000D01*
G02X6435000Y2284800I-20200J0D01*
G01X6285000D01*
G02X6264800Y2305000I0J20200D01*
G01Y2395000D01*
G02X6285000Y2415200I20200J0D01*
G01X6435000D01*
G02X6442900Y2413600I0J-20303D01*
G01X6449100Y2410900D01*
X6461000Y2422800D01*
X6409000Y2474800D01*
X6285000D01*
G02X6264800Y2495000I0J20200D01*
G01Y2507300D01*
X6238100D01*
G02Y2572700I-38100J32700D01*
G01X6264800D01*
Y2585000D01*
G02X6285000Y2605200I20200J0D01*
G01X6435000D01*
G02X6455200Y2585000I0J-20200D01*
G01Y2521000D01*
X7036000Y1940200D01*
G37*
G36*
G01X2185000Y1719800D02*
X2095000D01*
G02X2074800Y1740000I0J20200D01*
G01Y1920000D01*
G02X2075900Y1926600I20204J24D01*
G01X2076400Y1928100D01*
Y1939800D01*
X1995200D01*
Y1925000D01*
G02X1975000Y1904800I-20200J0D01*
G01X1825000D01*
G02X1804800Y1925000I0J20200D01*
G01Y2015000D01*
G02X1825000Y2035200I20200J0D01*
G01X1975000D01*
G02X1995200Y2015000I0J-20200D01*
G01Y2000200D01*
X2042500D01*
X2074800Y2032500D01*
Y2190000D01*
G02X2095000Y2210200I20200J0D01*
G01X2109800D01*
Y2264800D01*
X2095000D01*
G02X2074800Y2285000I0J20200D01*
G01Y2329800D01*
X2052500D01*
X2022500Y2359800D01*
X1995200D01*
Y2345000D01*
G02X1975000Y2324800I-20200J0D01*
G01X1825000D01*
G02X1804800Y2345000I0J20200D01*
G01Y2435000D01*
G02X1825000Y2455200I20200J0D01*
G01X1975000D01*
G02X1995200Y2435000I0J-20200D01*
G01Y2420200D01*
X2047500D01*
X2057700Y2410000D01*
G03X2074800Y2417000I7099J7044D01*
G01Y2435000D01*
G02X2095000Y2455200I20200J0D01*
G01X2185000D01*
G02X2205200Y2435000I0J-20200D01*
G01Y2285000D01*
G02X2185000Y2264800I-20200J0D01*
G01X2170200D01*
Y2210200D01*
X2185000D01*
G02X2205200Y2190000I0J-20200D01*
G01Y2010000D01*
G02X2185000Y1989800I-20200J0D01*
G01X2117500D01*
X2077700Y1950000D01*
X2088200Y1939600D01*
X2092900Y1940100D01*
G02X2095000Y1940200I2010J-20104D01*
G01X2185000D01*
G02X2205200Y1920000I0J-20200D01*
G01Y1740000D01*
G02X2185000Y1719800I-20200J0D01*
G37*
G36*
G01X1705000Y1684800D02*
X1615000D01*
G02X1594800Y1705000I0J20200D01*
G01Y1855000D01*
G02X1601600Y1870100I20165J0D01*
G03Y1899900I-13354J14900D01*
G02X1594800Y1915000I13365J15100D01*
G01Y2065000D01*
G02X1601600Y2080100I20165J0D01*
G03Y2109900I-13354J14900D01*
G02X1594800Y2125000I13365J15100D01*
G01Y2275000D01*
G02X1601600Y2290100I20165J0D01*
G03Y2319900I-13354J14900D01*
G02X1594800Y2335000I13365J15100D01*
G01Y2485000D01*
G02X1615000Y2505200I20200J0D01*
G01X1705000D01*
G02X1725200Y2485000I0J-20200D01*
G01Y2335000D01*
G02X1718400Y2319900I-20165J0D01*
G03Y2290100I13354J-14900D01*
G02X1725200Y2275000I-13365J-15100D01*
G01Y2230200D01*
X1804800D01*
Y2245000D01*
G02X1825000Y2265200I20200J0D01*
G01X1975000D01*
G02X1995200Y2245000I0J-20200D01*
G01Y2155000D01*
G02X1975000Y2134800I-20200J0D01*
G01X1825000D01*
G02X1804800Y2155000I0J20200D01*
G01Y2169800D01*
X1725200D01*
Y2125000D01*
G02X1718400Y2109900I-20165J0D01*
G03Y2080100I13354J-14900D01*
G02X1725200Y2065000I-13365J-15100D01*
G01Y1915000D01*
G02X1718400Y1899900I-20165J0D01*
G03Y1870100I13354J-14900D01*
G02X1725200Y1855000I-13365J-15100D01*
G01Y1810200D01*
X1804800D01*
Y1825000D01*
G02X1825000Y1845200I20200J0D01*
G01X1975000D01*
G02X1995200Y1825000I0J-20200D01*
G01Y1735000D01*
G02X1975000Y1714800I-20200J0D01*
G01X1825000D01*
G02X1804800Y1735000I0J20200D01*
G01Y1749800D01*
X1725200D01*
Y1705000D01*
G02X1705000Y1684800I-20200J0D01*
G37*
G36*
G01X518800Y1474100D02*
G02X398100Y1594800I-172800J-52100D01*
G03X418000Y1628100I5737J19168D01*
G01X384800Y1661300D01*
Y2398700D01*
X564800Y2578700D01*
Y3571300D01*
X555700Y3580400D01*
G03X522100Y3561800I-14112J-14156D01*
G02X385800Y3698100I-176100J-39800D01*
G03X404400Y3731700I4444J19488D01*
G01X394800Y3741300D01*
Y4488700D01*
X721300Y4815200D01*
X1166300D01*
X1187900Y4836900D01*
X1187800Y4841200D01*
G02X1256200Y4772800I70200J1800D01*
G01X1251900Y4772900D01*
X1203700Y4724800D01*
X758700D01*
X485200Y4451300D01*
Y4077900D01*
G03X521000Y4065600I20004J-25D01*
G02X700200Y4006800I79034J-61602D01*
G03X729800Y3989800I19990J537D01*
G02X789300Y4001600I48328J-87775D01*
G03X805700Y4035600I2280J19856D01*
G01X801500Y4039800D01*
G02X716600Y4140100I-23524J66170D01*
G03X699200Y4169800I-17466J9714D01*
G01X658900D01*
G02X664300Y4236200I-58896J38209D01*
G01X666900Y4230200D01*
X673700D01*
G03X691100Y4260100I32J19994D01*
G02X686800Y4351500I86899J49889D01*
G03X668600Y4379800I-18192J8303D01*
G01X662600D01*
X659700Y4375100D01*
G02X661700Y4445400I-59712J36877D01*
G01X664600Y4440200D01*
X705600D01*
G03X721700Y4472100I19J20003D01*
G02X840600Y4545700I56243J41980D01*
G01X843400Y4540200D01*
X1185600D01*
G03X1201700Y4572100I19J20003D01*
G02X1314300I56300J41900D01*
G03X1330400Y4540200I16081J-11897D01*
G01X1404800D01*
Y4585000D01*
G02X1425000Y4605200I20200J0D01*
G01X1515000D01*
G02X1535200Y4585000I0J-20200D01*
G01Y4435000D01*
G02X1528400Y4419900I-20165J0D01*
G03Y4390100I13354J-14900D01*
G02X1535200Y4375000I-13365J-15100D01*
G01Y4225000D01*
G02X1528400Y4209900I-20165J0D01*
G03Y4180100I13354J-14900D01*
G02X1535200Y4165000I-13365J-15100D01*
G01Y4015000D01*
G02X1528400Y3999900I-20165J0D01*
G03Y3970100I13354J-14900D01*
G02X1535200Y3955000I-13365J-15100D01*
G01Y3805000D01*
G02X1515000Y3784800I-20200J0D01*
G01X1425000D01*
G02X1404800Y3805000I0J20200D01*
G01Y3849800D01*
X991500D01*
X911600Y3929700D01*
G03X877600Y3913300I-14144J-14120D01*
G02X729800Y3814200I-99563J-11275D01*
G03X700200Y3797200I-9610J-17537D01*
G02X609900Y3700300I-100170J2823D01*
G03X597700Y3666200I1906J-19914D01*
G01X628700Y3635200D01*
X1129300D01*
X1187900Y3693900D01*
X1187800Y3698200D01*
G02X1256200Y3629800I70200J1800D01*
G01X1251900Y3629900D01*
X1166700Y3544800D01*
X655200D01*
Y2615200D01*
X1066300D01*
X1187900Y2736900D01*
X1187800Y2741200D01*
G02X1256200Y2672800I70200J1800D01*
G01X1251900Y2672900D01*
X1103700Y2524800D01*
X638700D01*
X475200Y2361300D01*
Y1698700D01*
X489800Y1684100D01*
X499900Y1694200D01*
X499800Y1698400D01*
G02X547000Y1785000I100182J1560D01*
G03Y1819000I-10587J17000D01*
G02X700200Y1906800I53036J85017D01*
G03X729800Y1889800I19990J537D01*
G02X789300Y1901600I48328J-87775D01*
G03X805700Y1935600I2280J19856D01*
G01X801500Y1939800D01*
G02X721700Y2047900I-23492J66162D01*
G03X705600Y2079800I-16081J11897D01*
G01X694500D01*
X692500Y2077800D01*
X663400D01*
G02X659700Y2144900I-63396J30156D01*
G01X662600Y2140200D01*
X668600D01*
G03X686800Y2168500I8J19997D01*
G02Y2251500I91200J41500D01*
G03X668600Y2279800I-18192J8303D01*
G01X662600D01*
X659700Y2275100D01*
G02X663400Y2342200I-59696J36944D01*
G01X692500D01*
X694500Y2340200D01*
X705600D01*
G03X721700Y2372100I19J20003D01*
G02X840600Y2445700I56243J41980D01*
G01X843400Y2440200D01*
X1185600D01*
G03X1201700Y2472100I19J20003D01*
G02X1314300I56300J41900D01*
G03X1330400Y2440200I16081J-11897D01*
G01X1404800D01*
Y2485000D01*
G02X1425000Y2505200I20200J0D01*
G01X1515000D01*
G02X1535200Y2485000I0J-20200D01*
G01Y2335000D01*
G02X1528400Y2319900I-20165J0D01*
G03Y2290100I13354J-14900D01*
G02X1535200Y2275000I-13365J-15100D01*
G01Y2125000D01*
G02X1528400Y2109900I-20165J0D01*
G03Y2080100I13354J-14900D01*
G02X1535200Y2065000I-13365J-15100D01*
G01Y1915000D01*
G02X1528400Y1899900I-20165J0D01*
G03Y1870100I13354J-14900D01*
G02X1535200Y1855000I-13365J-15100D01*
G01Y1705000D01*
G02X1515000Y1684800I-20200J0D01*
G01X1425000D01*
G02X1404800Y1705000I0J20200D01*
G01Y1749800D01*
X991500D01*
X911600Y1829700D01*
G03X877600Y1813300I-14144J-14120D01*
G02X729800Y1714200I-99563J-11275D01*
G03X700200Y1697200I-9610J-17537D01*
G02X598400Y1599800I-100178J2804D01*
G01X594200Y1599900D01*
X584100Y1589800D01*
X595900Y1578000D01*
X1172100D01*
X1187900Y1593900D01*
X1187800Y1598200D01*
G02X1256200Y1529800I70200J1800D01*
G01X1251900Y1529900D01*
X1209500Y1487600D01*
X558500D01*
X552100Y1494000D01*
G03X518800Y1474100I-14132J-14163D01*
G37*
G54D32*
X9600000Y1400000D03*
Y1800000D03*
G54D31*
X6830000Y9162000D03*
Y9416000D03*
X7084000Y9162000D03*
Y9670000D03*
X7746000Y200000D03*
G54D30*
X1258000Y1371000D03*
Y3471000D03*
G54D27*
X500000Y500000D03*
Y6000000D03*
Y9500000D03*
X9000000D03*
X9500000Y500000D03*
G54D28*
X346000Y2692000D03*
Y4792000D03*
G54D29*
X778000Y1262000D03*
Y2852000D03*
Y3362000D03*
Y4952000D03*
%LPD*%
G75*
G54D10*
X500000Y500000D03*
X346000Y1422000D03*
Y2692000D03*
Y3522000D03*
Y4792000D03*
X500000Y6000000D03*
Y9500000D03*
X9000000D03*
X9500000Y500000D03*
G54D11*
X330000Y960000D03*
X180000Y1710000D03*
X260000Y2200000D03*
X370000Y3110000D03*
X270000Y4160000D03*
X350000Y5440000D03*
X590000Y5220000D03*
Y5030000D03*
X580000Y7070000D03*
X590000Y8690000D03*
X1170000Y870000D03*
X1090000Y3100000D03*
X1100000Y5220000D03*
Y5030000D03*
X1450000Y6250000D03*
X1460000Y9480000D03*
X1580000Y380000D03*
X1670000Y3490000D03*
X1660000Y7280000D03*
X1710000Y8400000D03*
X2000000Y1430000D03*
X1790000Y2970000D03*
X2220000Y5570000D03*
X2470000Y2360000D03*
X2420000Y3190000D03*
X2470000Y4460000D03*
X2770000Y340000D03*
X2620000Y8990000D03*
X2830000Y1120000D03*
X3010000Y2890000D03*
X3120000Y4580000D03*
X3180000Y6390000D03*
X3340000Y7130000D03*
X3320000Y8050000D03*
X3620000Y1600000D03*
Y1850000D03*
Y2230000D03*
Y2490000D03*
X3590000Y2870000D03*
X3620000Y3700000D03*
Y3950000D03*
Y4330000D03*
Y4590000D03*
X3600000Y5560000D03*
X3450000Y9590000D03*
X3870000Y330000D03*
X3960000Y1130000D03*
X4160000Y2020000D03*
X4100000Y2830000D03*
X4050000Y3320000D03*
X4030000Y8320000D03*
X4340000Y6060000D03*
X4200000Y7260000D03*
X4180000Y7790000D03*
X4400000Y8520000D03*
Y8710000D03*
X4390000Y9420000D03*
X4560000Y1140000D03*
X4610000Y2290000D03*
X4680000Y2960000D03*
Y3480000D03*
X4690000Y4620000D03*
X4620000Y6140000D03*
X4470000Y6380000D03*
X4660000Y6910000D03*
X4550000Y7260000D03*
X4540000Y7660000D03*
Y8000000D03*
X4900000Y3225000D03*
X4710000Y5900000D03*
X4880000Y7030000D03*
X4870000Y8040000D03*
X4710000Y8540000D03*
X4850000Y9160000D03*
X5000000Y2660000D03*
X5210000Y3870000D03*
X5110000Y4600000D03*
X5000000Y5660000D03*
X5070000Y5860000D03*
X4990000Y8540000D03*
X5260000Y340000D03*
X5290000Y2120000D03*
Y5170000D03*
X5460000Y6090000D03*
X5400000Y6590000D03*
X5240000Y8590000D03*
X5230000Y9230000D03*
X5670000Y2900000D03*
X5590000Y3030000D03*
X5650000Y4480000D03*
X5640000Y7010000D03*
X5630000Y8040000D03*
X5660000Y8610000D03*
X5880000Y2990000D03*
X5850000Y3290000D03*
X5825000Y3495000D03*
X5960000Y3480000D03*
X5880000Y3940000D03*
X5910000Y4880000D03*
X5850000Y5900000D03*
X5980000Y8460000D03*
X5780000Y9060000D03*
X5930000Y9550000D03*
X6240000Y2080000D03*
X6090000Y2480000D03*
X6200000Y2540000D03*
X6190000Y3990000D03*
Y4570000D03*
X6140000Y5900000D03*
X6260000Y6390000D03*
X6200000Y7410000D03*
Y7830000D03*
X6220000Y8800000D03*
X6380000Y2930000D03*
X6520000Y3270000D03*
X6380000D03*
X6460000Y8260000D03*
X6490000Y9510000D03*
X6570000Y2600000D03*
X6750000Y2970000D03*
X6640000Y3190000D03*
X6570000Y3720000D03*
X6590000Y4220000D03*
X6780000Y5940000D03*
X6610000Y6580000D03*
X6670000Y6890000D03*
X6740000Y7150000D03*
X6680000Y7530000D03*
X6620000Y8600000D03*
X6590000Y9030000D03*
X7070000Y370000D03*
X7040000Y1890000D03*
X7290000Y2970000D03*
X7330000Y4160000D03*
X7170000Y5100000D03*
X7360000Y6510000D03*
X7330000Y6800000D03*
X7340000Y7100000D03*
X7260000Y8720000D03*
X7460000Y5990000D03*
X7500000Y7780000D03*
X7720000Y2160000D03*
X7760000Y3620000D03*
Y6390000D03*
X8040000Y3960000D03*
Y4930000D03*
X8030000Y5970000D03*
X7970000Y6440000D03*
Y7400000D03*
X8000000Y9070000D03*
X8020000Y9570000D03*
X8330000Y1800000D03*
Y2380000D03*
X8640000Y410000D03*
X8690000Y3700000D03*
X8650000Y4460000D03*
X8690000Y5220000D03*
X8610000Y7990000D03*
Y8520000D03*
X8670000Y9160000D03*
X8760000Y980000D03*
X9120000Y1760000D03*
X9170000Y6380000D03*
X9090000Y6710000D03*
X9030000Y7120000D03*
X9000000Y7410000D03*
X9470000Y2360000D03*
X9290000Y2830000D03*
X9320000Y3160000D03*
Y3550000D03*
X9300000Y4210000D03*
X9310000Y4930000D03*
X9330000Y5640000D03*
X9410000Y6990000D03*
X9420000Y7790000D03*
X9380000Y8560000D03*
X9750000Y870000D03*
X9600000Y1400000D03*
Y1800000D03*
X9670000Y6160000D03*
X9510000Y9510000D03*
G54D20*
X9700000Y3000000D03*
Y6500000D03*
G54D21*
Y3381000D03*
Y3762000D03*
Y4143000D03*
Y4524000D03*
Y4905000D03*
Y5286000D03*
Y5667000D03*
Y6881000D03*
Y7262000D03*
Y7643000D03*
Y8024000D03*
Y8405000D03*
Y8786000D03*
Y9167000D03*
G54D12*
X600000Y1700000D03*
Y1904000D03*
Y2312000D03*
Y2108000D03*
Y3800000D03*
Y4208000D03*
Y4004000D03*
Y4412000D03*
X778000Y1802000D03*
Y2006000D03*
Y2210000D03*
Y2414000D03*
Y3902000D03*
Y4106000D03*
Y4310000D03*
Y4514000D03*
X1258000Y1371000D03*
Y1600000D03*
Y2514000D03*
Y2743000D03*
Y3471000D03*
Y3700000D03*
Y4614000D03*
Y4843000D03*
X3570000Y7400000D03*
Y7700000D03*
X7760000Y4760000D03*
X9280000Y5930000D03*
G54D22*
G01X600000Y2108000D02*
X680000D01*
X682000Y2110000D01*
X830000D01*
X950000Y1990000D01*
X1470000D01*
G01X600000Y2312000D02*
X680000D01*
X682000Y2310000D01*
X820000D01*
X930000Y2200000D01*
X1470000D01*
G01X600000Y4208000D02*
X608000Y4200000D01*
X900000D01*
X1010000Y4090000D01*
X1470000D01*
G01X600000Y4412000D02*
X602000Y4410000D01*
X890000D01*
X1000000Y4300000D01*
X1470000D01*
G01X590000Y5030000D02*
Y5220000D01*
G01X778000Y2006000D02*
X1004000Y1780000D01*
X1470000D01*
G01X778000Y2414000D02*
X782000Y2410000D01*
X1470000D01*
G01X778000Y4106000D02*
X1004000Y3880000D01*
X1470000D01*
G01X778000Y4514000D02*
X782000Y4510000D01*
X1470000D01*
G01X1100000Y5030000D02*
Y5220000D01*
G01X1900000Y1780000D02*
X1660000D01*
G01D02*
Y1990000D01*
G01X1900000Y2200000D02*
X1660000D01*
G01D02*
Y2410000D01*
G01X1900000Y3880000D02*
X1660000D01*
G01D02*
Y4090000D01*
G01X1900000Y4300000D02*
X1870000D01*
X1760000Y4410000D01*
X1730000D01*
X1660000Y4480000D01*
G01D02*
Y4300000D01*
G01Y4510000D02*
Y4480000D01*
G01X2140000Y2100000D02*
Y2055000D01*
X2055000Y1970000D01*
X1900000D01*
G01Y2390000D02*
X2035000D01*
X2065000Y2360000D01*
X2140000D01*
G01Y4190000D02*
Y4145000D01*
X2065000Y4070000D01*
X1900000D01*
G01Y4490000D02*
X2035000D01*
X2065000Y4460000D01*
X2140000D01*
G01Y1709800D02*
Y1830000D01*
G01D02*
Y1950200D01*
G01X2064800Y1830000D02*
X2140000D01*
G01D02*
X2215200D01*
G01X2140000Y2360000D02*
Y2100000D01*
G01Y3799800D02*
Y3920000D01*
G01D02*
Y4040200D01*
G01X2064800Y3920000D02*
X2140000D01*
G01D02*
X2215200D01*
G01X2140000Y4460000D02*
Y4190000D01*
G01X2410000Y2100000D02*
Y1830000D01*
G01X2330000Y2360000D02*
X2470000D01*
G01X2410000Y4190000D02*
Y3920000D01*
G01X2330000Y4460000D02*
X2470000D01*
G01X3760000Y1600000D02*
X3620000D01*
G01X3760000Y1850000D02*
X3620000D01*
G01X3760000Y2230000D02*
X3620000D01*
G01X3760000Y2490000D02*
X3620000D01*
G01X3760000Y3700000D02*
X3620000D01*
G01X3760000Y3950000D02*
X3620000D01*
G01X3760000Y4330000D02*
X3620000D01*
G01X3760000Y4590000D02*
X3620000D01*
G01X4240000Y1600000D02*
X3950000D01*
G01D02*
Y1850000D01*
G01X4134800Y1790000D02*
X4240000D01*
G01Y2230000D02*
X3950000D01*
G01D02*
Y2490000D01*
G01X4134800Y2420000D02*
X4240000D01*
G01Y3700000D02*
X3950000D01*
G01D02*
Y3950000D01*
G01X4134800Y3890000D02*
X4240000D01*
G01X4230000Y4330000D02*
X3950000D01*
G01D02*
Y4590000D01*
G01X4124800Y4520000D02*
X4230000D01*
G01X4240000Y1714800D02*
Y1790000D01*
G01D02*
Y1865200D01*
G01Y1790000D02*
X4345200D01*
G01X4240000Y2344800D02*
Y2420000D01*
G01D02*
Y2495200D01*
G01Y2420000D02*
X4345200D01*
G01X4364800Y2680000D02*
X4470000D01*
G01X4240000Y3814800D02*
Y3890000D01*
G01D02*
Y3965200D01*
G01Y3890000D02*
X4345200D01*
G01X4230000Y4444800D02*
Y4520000D01*
G01D02*
Y4595200D01*
G01Y4520000D02*
X4335200D01*
G01X4380000Y6974800D02*
Y7050000D01*
G01D02*
Y7125200D01*
G01X4274800Y7050000D02*
X4380000D01*
G01D02*
X4485200D01*
G01X4470000Y2604800D02*
Y2680000D01*
G01D02*
Y2755200D01*
G01Y2680000D02*
X4575200D01*
G01X4610000Y3114800D02*
Y3220000D01*
G01D02*
Y3325200D01*
G01X4534800Y3220000D02*
X4610000D01*
G01D02*
X4685200D01*
G01X4574800Y3810000D02*
X4680000D01*
G01X4800000Y3220000D02*
X4895000D01*
X4900000Y3225000D01*
G01X4680000Y3734800D02*
Y3810000D01*
G01D02*
Y3885200D01*
G01Y3810000D02*
X4785200D01*
G01X4850000Y6654800D02*
Y6760000D01*
G01D02*
Y6865200D01*
G01X4774800Y6760000D02*
X4850000D01*
G01D02*
X4925200D01*
G01X6090000Y2480000D02*
X5670000Y2900000D01*
G01X5650000Y4480000D02*
Y4580000D01*
G01Y4770000D02*
Y4761600D01*
X5651600Y4760000D01*
G01X5944800Y3630000D02*
X6020000D01*
G01X6254800Y2350000D02*
X6360000D01*
G01X6230000Y3384800D02*
Y3460000D01*
G01D02*
Y3535200D01*
G01Y3460000D02*
X6335200D01*
G01X6020000Y3630000D02*
Y3735200D01*
G01Y3630000D02*
X6095200D01*
G01X6360000Y2274800D02*
Y2350000D01*
G01D02*
Y2425200D01*
G01Y2350000D02*
X6465200D01*
G01X6640000Y3190000D02*
X6380000Y2930000D01*
G01X6464800Y3430000D02*
X6570000D01*
G01Y3354800D02*
Y3430000D01*
G01D02*
Y3505200D01*
G01Y3430000D02*
X6675200D01*
G01X6973800Y9162000D02*
X7084000D01*
G01Y9051800D02*
Y9162000D01*
G01D02*
Y9272200D01*
G01Y9162000D02*
X7194200D01*
G01X8634800Y3380000D02*
X8740000D01*
G01X8634800Y4140000D02*
X8740000D01*
G01X8634800Y4900000D02*
X8740000D01*
G01X8634800Y5660000D02*
X8740000D01*
G01Y3304800D02*
Y3380000D01*
G01D02*
Y3455200D01*
G01Y3380000D02*
X8845200D01*
G01X8740000Y4064800D02*
Y4140000D01*
G01D02*
Y4215200D01*
G01Y4140000D02*
X8845200D01*
G01X8740000Y4824800D02*
Y4900000D01*
G01D02*
Y4975200D01*
G01Y4900000D02*
X8845200D01*
G01X8740000Y5584800D02*
Y5660000D01*
G01D02*
Y5735200D01*
G01Y5660000D02*
X8845200D01*
G54D13*
X778000Y1262000D03*
Y2852000D03*
Y3362000D03*
Y4952000D03*
G54D23*
G01X8500000Y3380000D02*
X8470000D01*
X8270000Y3580000D01*
Y5110000D01*
X7920000Y5460000D01*
X4640000D01*
X4470000Y5630000D01*
Y6380000D01*
G01X8500000Y4140000D02*
X8470000D01*
X8340000Y4270000D01*
Y5139900D01*
X7949900Y5530000D01*
X4650000D01*
X4620000Y5560000D01*
Y6140000D01*
G01X4754000Y9750000D02*
X4643800D01*
G01X8500000Y4900000D02*
Y5080000D01*
X7985000Y5595000D01*
X4973000D01*
X4968000Y5600000D01*
X4740000D01*
X4710000Y5630000D01*
Y5900000D01*
G01X4754000Y9750000D02*
Y9639800D01*
G01Y9750000D02*
X4864200D01*
G01X5000000Y5660000D02*
X8500000D01*
G01X5910000Y4880000D02*
Y4760000D01*
G01X7746000Y200000D02*
Y89800D01*
G01Y200000D02*
X7635800D01*
G01X7746000D02*
Y310200D01*
G01Y200000D02*
X7856200D01*
G01X8690000Y2900000D02*
X8579800D01*
G01X8740000Y3190000D02*
X8500000D01*
G01X8740000Y3950000D02*
X8500000D01*
G01Y4710000D02*
X8740000D01*
G01X8500000Y5470000D02*
X8740000D01*
G01X8690000Y2900000D02*
Y2789800D01*
G01Y2900000D02*
Y3010200D01*
G01Y2900000D02*
X8800200D01*
G01X8980000Y3190000D02*
X8740000D01*
G01X8980000Y3950000D02*
X8740000D01*
G01Y4710000D02*
X8980000D01*
G01X8740000Y5470000D02*
X8980000D01*
G01Y3000000D02*
X9700000D01*
G01Y3762000D02*
X9555000D01*
X9553000Y3760000D01*
X8980000D01*
G01X9700000Y4524000D02*
X9540000D01*
X9536000Y4520000D01*
X8980000D01*
G01X9700000Y5286000D02*
X9540000D01*
X9534000Y5280000D01*
X8980000D01*
G54D14*
X1470000Y1780000D03*
Y1990000D03*
Y2200000D03*
Y2410000D03*
Y3880000D03*
Y4090000D03*
Y4300000D03*
Y4510000D03*
X1660000Y1780000D03*
Y1990000D03*
Y2200000D03*
Y2410000D03*
Y3880000D03*
Y4090000D03*
Y4300000D03*
Y4510000D03*
X2140000Y2360000D03*
Y4460000D03*
X2330000Y2360000D03*
Y4460000D03*
X3760000Y1600000D03*
Y1850000D03*
Y2230000D03*
Y2490000D03*
Y3700000D03*
Y3950000D03*
Y4330000D03*
Y4590000D03*
X3950000Y1600000D03*
Y1850000D03*
Y2230000D03*
Y2490000D03*
Y3700000D03*
Y3950000D03*
Y4330000D03*
Y4590000D03*
X4610000Y3220000D03*
X4660000Y6760000D03*
X4800000Y3220000D03*
X4850000Y6760000D03*
X6020000Y3630000D03*
X5830000D03*
G54D24*
G01X610000Y2560000D02*
X430000Y2380000D01*
Y1680000D01*
X577200Y1532800D01*
X1190800D01*
X1258000Y1600000D01*
G01Y2743000D02*
X1085000Y2570000D01*
X620000D01*
X610000Y2560000D01*
G01Y3590000D02*
Y2560000D01*
G01X1258000Y3700000D02*
X1148000Y3590000D01*
X610000D01*
G01X1258000Y4843000D02*
X1185000Y4770000D01*
X740000D01*
X440000Y4470000D01*
Y3760000D01*
X610000Y3590000D01*
G01X3570000Y7400000D02*
Y7700000D01*
G01X4200000Y7260000D02*
X3710000D01*
X3570000Y7400000D01*
G01X4400000Y8800000D02*
X4120000D01*
X3570000Y8250000D01*
Y7700000D01*
G01X4660000Y6910000D02*
Y6990000D01*
X4410000Y7240000D01*
X4380000D01*
G01D02*
X4220000D01*
X4200000Y7260000D01*
G01X6220000Y8800000D02*
X4400000D01*
G01X4680000Y3480000D02*
Y3620000D01*
G01D02*
X4890000D01*
G01X4660000Y6910000D02*
Y6760000D01*
G01X4890000Y3800000D02*
Y4380000D01*
X5110000Y4600000D01*
G01X5651600Y4760000D02*
X5270000D01*
X5110000Y4600000D01*
G01X5910000Y4760000D02*
X5651600D01*
G01X7760000D02*
X5910000D01*
G01X7084000Y9416000D02*
X7270000Y9230000D01*
Y9060000D01*
X7010000Y8800000D01*
X6220000D01*
G54D15*
X1900000Y1780000D03*
Y1970000D03*
Y2200000D03*
Y2390000D03*
Y3880000D03*
Y4070000D03*
Y4300000D03*
Y4490000D03*
X4240000Y1600000D03*
Y1790000D03*
Y2230000D03*
Y2420000D03*
X4470000Y2680000D03*
Y2870000D03*
X4240000Y3700000D03*
Y3890000D03*
X4230000Y4330000D03*
Y4520000D03*
X4380000Y7050000D03*
Y7240000D03*
X4680000Y3620000D03*
Y3810000D03*
X5650000Y4580000D03*
Y4770000D03*
X6230000Y3270000D03*
Y3460000D03*
X6360000Y2350000D03*
Y2540000D03*
X6570000Y3430000D03*
Y3620000D03*
X8740000Y3190000D03*
Y3380000D03*
X8500000Y3190000D03*
Y3380000D03*
X8740000Y3950000D03*
Y4140000D03*
X8500000Y3950000D03*
Y4140000D03*
X8740000Y4710000D03*
X8500000D03*
X8740000Y4900000D03*
X8500000D03*
X8740000Y5470000D03*
X8500000D03*
X8740000Y5660000D03*
X8500000D03*
X8980000Y3000000D03*
Y3190000D03*
Y3760000D03*
Y3950000D03*
Y4520000D03*
Y4710000D03*
Y5280000D03*
Y5470000D03*
G54D25*
G01X4400000Y8710000D02*
Y8800000D01*
G01X4470000Y2870000D02*
X4680000D01*
G01Y2690000D02*
X4710000D01*
X5515000Y3495000D01*
X5825000D01*
G01X4680000Y2870000D02*
Y2960000D01*
G01X5825000Y3495000D02*
X6050000Y3270000D01*
X6230000D01*
G01X5830000Y3630000D02*
X5825000Y3625000D01*
Y3495000D01*
G01X6570000Y3620000D02*
X6224000D01*
X6084000Y3480000D01*
X5960000D01*
G01X6360000Y2540000D02*
X6200000D01*
G01X6230000Y3270000D02*
X6380000D01*
G01X6260000Y6390000D02*
X7760000D01*
G01X7040000Y1890000D02*
X6390000Y2540000D01*
X6360000D01*
G01X7760000Y3620000D02*
X6570000D01*
G01D02*
Y3720000D01*
G54D16*
X2140000Y1830000D03*
Y2100000D03*
Y3920000D03*
Y4190000D03*
X2410000Y1830000D03*
Y2100000D03*
Y3920000D03*
Y4190000D03*
G54D26*
G01X9900000Y5930000D02*
Y9550000D01*
X9550000Y9900000D01*
X4650000D01*
X4500000Y9750000D01*
G01X9900000Y5930000D02*
Y2790000D01*
X9780000Y2670000D01*
X8412000D01*
X8182000Y2900000D01*
G01X9280000Y5930000D02*
X9900000D01*
G54D17*
X4500000Y9750000D03*
X6830000Y9670000D03*
X8000000Y200000D03*
X8690000Y2900000D03*
G54D18*
X4680000Y2690000D03*
Y2870000D03*
X4890000Y3620000D03*
Y3800000D03*
G54D19*
X4754000Y9750000D03*
X5008000D03*
X5262000D03*
X5516000D03*
X5770000D03*
X6830000Y9162000D03*
Y9416000D03*
X7084000Y9162000D03*
Y9416000D03*
Y9670000D03*
X7746000Y200000D03*
X8182000Y2900000D03*
X8436000D03*
M02*
