G04 ================== begin FILE IDENTIFICATION RECORD ==================*
G04 Layout Name:  G:/Work/io/design/pcb/io_4di_4aic_dbdoctor.brd*
G04 Film Name:    DRILL*
G04 File Format:  Gerber RS274X*
G04 File Origin:  Cadence Allegro 17.2-P019*
G04 Origin Date:  Sat May 05 11:38:41 2018*
G04 *
G04 Layer:  MANUFACTURING/NCDRILL_LEGEND*
G04 Layer:  MANUFACTURING/NCDRILL_FIGURE*
G04 Layer:  MANUFACTURING/NCLEGEND-1-2*
G04 Layer:  BOARD GEOMETRY/OUTLINE*
G04 *
G04 Offset:    (0.000 0.000)*
G04 Mirror:    No*
G04 Mode:      Positive*
G04 Rotation:  0*
G04 FullContactRelief:  No*
G04 UndefLineWidth:     0.200*
G04 ================== end FILE IDENTIFICATION RECORD ====================*
%FSLAX25Y25*MOMM*%
%IR0*IPPOS*OFA0.00000B0.00000*MIA0B0*SFA1.00000B1.00000*%
%AMMACRO14*
1,1,.2,.5,0.0*
20,1,.2,.5,0.0,.492404,-.086824,0.0*
1,1,.2,.492404,-.086824*
20,1,.2,.492404,-.086824,.469846,-.17101,0.0*
1,1,.2,.469846,-.17101*
20,1,.2,.469846,-.17101,.433013,-.25,0.0*
1,1,.2,.433013,-.25*
20,1,.2,.433013,-.25,.383022,-.321394,0.0*
1,1,.2,.383022,-.321394*
20,1,.2,.383022,-.321394,.321394,-.383022,0.0*
1,1,.2,.321394,-.383022*
20,1,.2,.321394,-.383022,.25,-.433013,0.0*
1,1,.2,.25,-.433013*
20,1,.2,.25,-.433013,.17101,-.469846,0.0*
1,1,.2,.17101,-.469846*
20,1,.2,.17101,-.469846,.086824,-.492404,0.0*
1,1,.2,.086824,-.492404*
20,1,.2,.086824,-.492404,0.0,-.5,0.0*
1,1,.2,0.0,-.5*
20,1,.2,0.0,-.5,-.086824,-.492404,0.0*
1,1,.2,-.086824,-.492404*
20,1,.2,-.086824,-.492404,-.17101,-.469846,0.0*
1,1,.2,-.17101,-.469846*
20,1,.2,-.17101,-.469846,-.25,-.433013,0.0*
1,1,.2,-.25,-.433013*
20,1,.2,-.25,-.433013,-.321394,-.383022,0.0*
1,1,.2,-.321394,-.383022*
20,1,.2,-.321394,-.383022,-.383022,-.321394,0.0*
1,1,.2,-.383022,-.321394*
20,1,.2,-.383022,-.321394,-.433013,-.25,0.0*
1,1,.2,-.433013,-.25*
20,1,.2,-.433013,-.25,-.469846,-.17101,0.0*
1,1,.2,-.469846,-.17101*
20,1,.2,-.469846,-.17101,-.492404,-.086824,0.0*
1,1,.2,-.492404,-.086824*
20,1,.2,-.492404,-.086824,-.5,0.0,0.0*
1,1,.2,-.5,0.0*
20,1,.2,-.5,0.0,-.492404,.086824,0.0*
1,1,.2,-.492404,.086824*
20,1,.2,-.492404,.086824,-.469846,.17101,0.0*
1,1,.2,-.469846,.17101*
20,1,.2,-.469846,.17101,-.433013,.25,0.0*
1,1,.2,-.433013,.25*
20,1,.2,-.433013,.25,-.383022,.321394,0.0*
1,1,.2,-.383022,.321394*
20,1,.2,-.383022,.321394,-.321394,.383022,0.0*
1,1,.2,-.321394,.383022*
20,1,.2,-.321394,.383022,-.25,.433013,0.0*
1,1,.2,-.25,.433013*
20,1,.2,-.25,.433013,-.17101,.469846,0.0*
1,1,.2,-.17101,.469846*
20,1,.2,-.17101,.469846,-.086824,.492404,0.0*
1,1,.2,-.086824,.492404*
20,1,.2,-.086824,.492404,0.0,.5,0.0*
1,1,.2,0.0,.5*
20,1,.2,0.0,.5,.086824,.492404,0.0*
1,1,.2,.086824,.492404*
20,1,.2,.086824,.492404,.17101,.469846,0.0*
1,1,.2,.17101,.469846*
20,1,.2,.17101,.469846,.25,.433013,0.0*
1,1,.2,.25,.433013*
20,1,.2,.25,.433013,.321394,.383022,0.0*
1,1,.2,.321394,.383022*
20,1,.2,.321394,.383022,.383022,.321394,0.0*
1,1,.2,.383022,.321394*
20,1,.2,.383022,.321394,.433013,.25,0.0*
1,1,.2,.433013,.25*
20,1,.2,.433013,.25,.469846,.17101,0.0*
1,1,.2,.469846,.17101*
20,1,.2,.469846,.17101,.492404,.086824,0.0*
1,1,.2,.492404,.086824*
20,1,.2,.492404,.086824,.5,0.0,0.0*
1,1,.2,.5,0.0*
1,1,.2,.183,.208*
20,1,.2,.183,.208,.133,.233,0.0*
1,1,.2,.133,.233*
20,1,.2,.133,.233,.075,.25,0.0*
1,1,.2,.075,.25*
20,1,.2,.075,.25,.008,.25,0.0*
1,1,.2,.008,.25*
20,1,.2,.008,.25,-.067,.225,0.0*
1,1,.2,-.067,.225*
20,1,.2,-.067,.225,-.125,.183,0.0*
1,1,.2,-.125,.183*
20,1,.2,-.125,.183,-.167,.133,0.0*
1,1,.2,-.167,.133*
20,1,.2,-.167,.133,-.2,.05,0.0*
1,1,.2,-.2,.05*
20,1,.2,-.2,.05,-.208,-.025,0.0*
1,1,.2,-.208,-.025*
20,1,.2,-.208,-.025,-.192,-.1,0.0*
1,1,.2,-.192,-.1*
20,1,.2,-.192,-.1,-.167,-.15,0.0*
1,1,.2,-.167,-.15*
20,1,.2,-.167,-.15,-.117,-.2,0.0*
1,1,.2,-.117,-.2*
20,1,.2,-.117,-.2,-.058,-.233,0.0*
1,1,.2,-.058,-.233*
20,1,.2,-.058,-.233,0.0,-.25,0.0*
1,1,.2,0.0,-.25*
20,1,.2,0.0,-.25,.058,-.25,0.0*
1,1,.2,.058,-.25*
20,1,.2,.058,-.25,.117,-.233,0.0*
1,1,.2,.117,-.233*
20,1,.2,.117,-.233,.167,-.208,0.0*
1,1,.2,.167,-.208*
20,1,.2,.167,-.208,.208,-.175,0.0*
1,1,.2,.208,-.175*
%
%ADD14MACRO14*%
%AMMACRO13*
1,1,.2,.5,.5*
20,1,.2,.5,.5,.5,-.5,0.0*
1,1,.2,.5,-.5*
20,1,.2,.5,-.5,-.5,-.5,0.0*
1,1,.2,-.5,-.5*
20,1,.2,-.5,-.5,-.5,.5,0.0*
1,1,.2,-.5,.5*
20,1,.2,-.5,.5,.5,.5,0.0*
1,1,.2,.5,.5*
1,1,.2,.183,.208*
20,1,.2,.183,.208,.133,.233,0.0*
1,1,.2,.133,.233*
20,1,.2,.133,.233,.075,.25,0.0*
1,1,.2,.075,.25*
20,1,.2,.075,.25,.008,.25,0.0*
1,1,.2,.008,.25*
20,1,.2,.008,.25,-.067,.225,0.0*
1,1,.2,-.067,.225*
20,1,.2,-.067,.225,-.125,.183,0.0*
1,1,.2,-.125,.183*
20,1,.2,-.125,.183,-.167,.133,0.0*
1,1,.2,-.167,.133*
20,1,.2,-.167,.133,-.2,.05,0.0*
1,1,.2,-.2,.05*
20,1,.2,-.2,.05,-.208,-.025,0.0*
1,1,.2,-.208,-.025*
20,1,.2,-.208,-.025,-.192,-.1,0.0*
1,1,.2,-.192,-.1*
20,1,.2,-.192,-.1,-.167,-.15,0.0*
1,1,.2,-.167,-.15*
20,1,.2,-.167,-.15,-.117,-.2,0.0*
1,1,.2,-.117,-.2*
20,1,.2,-.117,-.2,-.058,-.233,0.0*
1,1,.2,-.058,-.233*
20,1,.2,-.058,-.233,0.0,-.25,0.0*
1,1,.2,0.0,-.25*
20,1,.2,0.0,-.25,.058,-.25,0.0*
1,1,.2,.058,-.25*
20,1,.2,.058,-.25,.117,-.233,0.0*
1,1,.2,.117,-.233*
20,1,.2,.117,-.233,.167,-.208,0.0*
1,1,.2,.167,-.208*
20,1,.2,.167,-.208,.208,-.175,0.0*
1,1,.2,.208,-.175*
%
%ADD13MACRO13*%
%AMMACRO10*
1,1,.2,.25,0.0*
20,1,.2,.25,0.0,.246202,-.043412,0.0*
1,1,.2,.246202,-.043412*
20,1,.2,.246202,-.043412,.234923,-.085505,0.0*
1,1,.2,.234923,-.085505*
20,1,.2,.234923,-.085505,.216506,-.125,0.0*
1,1,.2,.216506,-.125*
20,1,.2,.216506,-.125,.191511,-.160697,0.0*
1,1,.2,.191511,-.160697*
20,1,.2,.191511,-.160697,.160697,-.191511,0.0*
1,1,.2,.160697,-.191511*
20,1,.2,.160697,-.191511,.125,-.216506,0.0*
1,1,.2,.125,-.216506*
20,1,.2,.125,-.216506,.085505,-.234923,0.0*
1,1,.2,.085505,-.234923*
20,1,.2,.085505,-.234923,.043412,-.246202,0.0*
1,1,.2,.043412,-.246202*
20,1,.2,.043412,-.246202,0.0,-.25,0.0*
1,1,.2,0.0,-.25*
20,1,.2,0.0,-.25,-.043412,-.246202,0.0*
1,1,.2,-.043412,-.246202*
20,1,.2,-.043412,-.246202,-.085505,-.234923,0.0*
1,1,.2,-.085505,-.234923*
20,1,.2,-.085505,-.234923,-.125,-.216506,0.0*
1,1,.2,-.125,-.216506*
20,1,.2,-.125,-.216506,-.160697,-.191511,0.0*
1,1,.2,-.160697,-.191511*
20,1,.2,-.160697,-.191511,-.191511,-.160697,0.0*
1,1,.2,-.191511,-.160697*
20,1,.2,-.191511,-.160697,-.216506,-.125,0.0*
1,1,.2,-.216506,-.125*
20,1,.2,-.216506,-.125,-.234923,-.085505,0.0*
1,1,.2,-.234923,-.085505*
20,1,.2,-.234923,-.085505,-.246202,-.043412,0.0*
1,1,.2,-.246202,-.043412*
20,1,.2,-.246202,-.043412,-.25,0.0,0.0*
1,1,.2,-.25,0.0*
20,1,.2,-.25,0.0,-.246202,.043412,0.0*
1,1,.2,-.246202,.043412*
20,1,.2,-.246202,.043412,-.234923,.085505,0.0*
1,1,.2,-.234923,.085505*
20,1,.2,-.234923,.085505,-.216506,.125,0.0*
1,1,.2,-.216506,.125*
20,1,.2,-.216506,.125,-.191511,.160697,0.0*
1,1,.2,-.191511,.160697*
20,1,.2,-.191511,.160697,-.160697,.191511,0.0*
1,1,.2,-.160697,.191511*
20,1,.2,-.160697,.191511,-.125,.216506,0.0*
1,1,.2,-.125,.216506*
20,1,.2,-.125,.216506,-.085505,.234923,0.0*
1,1,.2,-.085505,.234923*
20,1,.2,-.085505,.234923,-.043412,.246202,0.0*
1,1,.2,-.043412,.246202*
20,1,.2,-.043412,.246202,0.0,.25,0.0*
1,1,.2,0.0,.25*
20,1,.2,0.0,.25,.043412,.246202,0.0*
1,1,.2,.043412,.246202*
20,1,.2,.043412,.246202,.085505,.234923,0.0*
1,1,.2,.085505,.234923*
20,1,.2,.085505,.234923,.125,.216506,0.0*
1,1,.2,.125,.216506*
20,1,.2,.125,.216506,.160697,.191511,0.0*
1,1,.2,.160697,.191511*
20,1,.2,.160697,.191511,.191511,.160697,0.0*
1,1,.2,.191511,.160697*
20,1,.2,.191511,.160697,.216506,.125,0.0*
1,1,.2,.216506,.125*
20,1,.2,.216506,.125,.234923,.085505,0.0*
1,1,.2,.234923,.085505*
20,1,.2,.234923,.085505,.246202,.043412,0.0*
1,1,.2,.246202,.043412*
20,1,.2,.246202,.043412,.25,0.0,0.0*
1,1,.2,.25,0.0*
1,1,.2,-.088,-.125*
20,1,.2,-.088,-.125,-.088,.125,0.0*
1,1,.2,-.088,.125*
1,1,.2,.088,.125*
20,1,.2,.088,.125,.088,-.125,0.0*
1,1,.2,.088,-.125*
1,1,.2,.088,0.0*
20,1,.2,.088,0.0,-.088,0.0,0.0*
1,1,.2,-.088,0.0*
%
%ADD10MACRO10*%
%AMMACRO11*
1,1,.2,.5,0.0*
20,1,.2,.5,0.0,-.5,0.0,0.0*
1,1,.2,-.5,0.0*
1,1,.2,0.0,.5*
20,1,.2,0.0,.5,0.0,-.5,0.0*
1,1,.2,0.0,-.5*
1,1,.2,.042,.5*
20,1,.2,.042,.5,.25,0.0,0.0*
1,1,.2,.25,0.0*
20,1,.2,.25,0.0,.458,.5,0.0*
1,1,.2,.458,.5*
%
%ADD11MACRO11*%
%AMMACRO12*
1,1,.2,.5,0.0*
20,1,.2,.5,0.0,.25,.433013,0.0*
1,1,.2,.25,.433013*
20,1,.2,.25,.433013,-.25,.433013,0.0*
1,1,.2,-.25,.433013*
20,1,.2,-.25,.433013,-.5,0.0,0.0*
1,1,.2,-.5,0.0*
20,1,.2,-.5,0.0,-.25,-.433013,0.0*
1,1,.2,-.25,-.433013*
20,1,.2,-.25,-.433013,.25,-.433013,0.0*
1,1,.2,.25,-.433013*
20,1,.2,.25,-.433013,.5,0.0,0.0*
1,1,.2,.5,0.0*
1,1,.2,-.183,-.25*
20,1,.2,-.183,-.25,-.183,.25,0.0*
1,1,.2,-.183,.25*
20,1,.2,-.183,.25,-.017,.25,0.0*
1,1,.2,-.017,.25*
20,1,.2,-.017,.25,.05,.225,0.0*
1,1,.2,.05,.225*
20,1,.2,.05,.225,.1,.192,0.0*
1,1,.2,.1,.192*
20,1,.2,.1,.192,.142,.142,0.0*
1,1,.2,.142,.142*
20,1,.2,.142,.142,.175,.083,0.0*
1,1,.2,.175,.083*
20,1,.2,.175,.083,.183,0.0,0.0*
1,1,.2,.183,0.0*
20,1,.2,.183,0.0,.175,-.083,0.0*
1,1,.2,.175,-.083*
20,1,.2,.175,-.083,.142,-.142,0.0*
1,1,.2,.142,-.142*
20,1,.2,.142,-.142,.1,-.192,0.0*
1,1,.2,.1,-.192*
20,1,.2,.1,-.192,.05,-.225,0.0*
1,1,.2,.05,-.225*
20,1,.2,.05,-.225,-.017,-.25,0.0*
1,1,.2,-.017,-.25*
20,1,.2,-.017,-.25,-.183,-.25,0.0*
1,1,.2,-.183,-.25*
%
%ADD12MACRO12*%
%ADD15C,.2*%
G75*
%LPD*%
G75*
G54D10*
X500000Y500000D03*
X346000Y1422000D03*
Y2692000D03*
Y3522000D03*
Y4792000D03*
X500000Y6000000D03*
Y9500000D03*
X471500Y11072500D03*
Y11707500D03*
Y12342500D03*
X778000Y1262000D03*
Y2852000D03*
Y3362000D03*
Y4952000D03*
X9000000Y9500000D03*
X9500000Y500000D03*
X9600000Y1400000D03*
Y1800000D03*
G54D11*
X330000Y960000D03*
X180000Y1710000D03*
X260000Y2200000D03*
X370000Y3110000D03*
X270000Y4160000D03*
X350000Y5440000D03*
X590000Y5220000D03*
Y5030000D03*
X580000Y7070000D03*
X590000Y8690000D03*
X471500Y15517500D03*
Y16152500D03*
X1170000Y870000D03*
X1090000Y3100000D03*
X1100000Y5220000D03*
Y5030000D03*
X1450000Y6250000D03*
X1460000Y9480000D03*
X1580000Y380000D03*
X1670000Y3490000D03*
X1660000Y7280000D03*
X1710000Y8400000D03*
X2000000Y1430000D03*
X1790000Y2970000D03*
X2220000Y5570000D03*
X2470000Y2360000D03*
X2420000Y3190000D03*
X2470000Y4460000D03*
X2770000Y340000D03*
X2620000Y8990000D03*
X2830000Y1120000D03*
X3010000Y2890000D03*
X3120000Y4580000D03*
X3180000Y6390000D03*
X3340000Y7130000D03*
X3320000Y8050000D03*
X3620000Y1600000D03*
Y1850000D03*
Y2230000D03*
Y2490000D03*
X3590000Y2870000D03*
X3620000Y3700000D03*
Y3950000D03*
Y4330000D03*
Y4590000D03*
X3600000Y5560000D03*
X3570000Y7400000D03*
Y7700000D03*
X3450000Y9590000D03*
X3870000Y330000D03*
X3960000Y1130000D03*
X4160000Y2020000D03*
X4100000Y2830000D03*
X4050000Y3320000D03*
X4030000Y8320000D03*
X4340000Y6060000D03*
X4200000Y7260000D03*
X4180000Y7790000D03*
X4400000Y8520000D03*
Y8710000D03*
X4390000Y9420000D03*
X4560000Y1140000D03*
X4610000Y2290000D03*
X4680000Y2960000D03*
Y3480000D03*
X4690000Y4620000D03*
X4620000Y6140000D03*
X4470000Y6380000D03*
X4660000Y6910000D03*
X4550000Y7260000D03*
X4540000Y7660000D03*
Y8000000D03*
X4900000Y3225000D03*
X4710000Y5900000D03*
X4880000Y7030000D03*
X4870000Y8040000D03*
X4710000Y8540000D03*
X4850000Y9160000D03*
X5000000Y2660000D03*
X5210000Y3870000D03*
X5110000Y4600000D03*
X5000000Y5660000D03*
X5070000Y5860000D03*
X4990000Y8540000D03*
X5260000Y340000D03*
X5290000Y2120000D03*
Y5170000D03*
X5460000Y6090000D03*
X5400000Y6590000D03*
X5240000Y8590000D03*
X5230000Y9230000D03*
X5670000Y2900000D03*
X5590000Y3030000D03*
X5650000Y4480000D03*
X5640000Y7010000D03*
X5630000Y8040000D03*
X5660000Y8610000D03*
X5880000Y2990000D03*
X5850000Y3290000D03*
X5825000Y3495000D03*
X5960000Y3480000D03*
X5880000Y3940000D03*
X5910000Y4880000D03*
X5850000Y5900000D03*
X5980000Y8460000D03*
X5780000Y9060000D03*
X5930000Y9550000D03*
X6240000Y2080000D03*
X6090000Y2480000D03*
X6200000Y2540000D03*
X6190000Y3990000D03*
Y4570000D03*
X6140000Y5900000D03*
X6260000Y6390000D03*
X6200000Y7410000D03*
Y7830000D03*
X6220000Y8800000D03*
X6380000Y2930000D03*
X6520000Y3270000D03*
X6380000D03*
X6460000Y8260000D03*
X6490000Y9510000D03*
X6570000Y2600000D03*
X6750000Y2970000D03*
X6640000Y3190000D03*
X6570000Y3720000D03*
X6590000Y4220000D03*
X6780000Y5940000D03*
X6610000Y6580000D03*
X6670000Y6890000D03*
X6740000Y7150000D03*
X6680000Y7530000D03*
X6620000Y8600000D03*
X6590000Y9030000D03*
X7070000Y370000D03*
X7040000Y1890000D03*
X7290000Y2970000D03*
X7330000Y4160000D03*
X7170000Y5100000D03*
X7360000Y6510000D03*
X7330000Y6800000D03*
X7340000Y7100000D03*
X7260000Y8720000D03*
X7460000Y5990000D03*
X7500000Y7780000D03*
X7720000Y2160000D03*
X7760000Y3620000D03*
Y4760000D03*
Y6390000D03*
X8040000Y3960000D03*
Y4930000D03*
X8030000Y5970000D03*
X7970000Y6440000D03*
Y7400000D03*
X8000000Y9070000D03*
X8020000Y9570000D03*
X8330000Y1800000D03*
Y2380000D03*
X8640000Y410000D03*
X8690000Y3700000D03*
X8650000Y4460000D03*
X8690000Y5220000D03*
X8610000Y7990000D03*
Y8520000D03*
X8670000Y9160000D03*
X8760000Y980000D03*
X9120000Y1760000D03*
X9170000Y6380000D03*
X9090000Y6710000D03*
X9030000Y7120000D03*
X9000000Y7410000D03*
X9470000Y2360000D03*
X9290000Y2830000D03*
X9320000Y3160000D03*
Y3550000D03*
X9300000Y4210000D03*
X9310000Y4930000D03*
X9330000Y5640000D03*
X9280000Y5930000D03*
X9410000Y6990000D03*
X9420000Y7790000D03*
X9380000Y8560000D03*
X9750000Y870000D03*
X9670000Y6160000D03*
X9510000Y9510000D03*
G54D12*
X600000Y1700000D03*
Y1904000D03*
Y2312000D03*
Y2108000D03*
Y3800000D03*
Y4208000D03*
Y4004000D03*
Y4412000D03*
X471500Y14247500D03*
Y14882500D03*
X778000Y1802000D03*
Y2006000D03*
Y2210000D03*
Y2414000D03*
Y3902000D03*
Y4106000D03*
Y4310000D03*
Y4514000D03*
X1258000Y1371000D03*
Y1600000D03*
Y2514000D03*
Y2743000D03*
Y3471000D03*
Y3700000D03*
Y4614000D03*
Y4843000D03*
X4500000Y9750000D03*
X4754000D03*
X5008000D03*
X5262000D03*
X5516000D03*
X5770000D03*
X6830000Y9162000D03*
Y9416000D03*
Y9670000D03*
X7084000Y9162000D03*
Y9416000D03*
Y9670000D03*
X7746000Y200000D03*
X8000000D03*
X8182000Y2900000D03*
X8436000D03*
X8690000D03*
G54D13*
X471500Y12977500D03*
X9700000Y3000000D03*
Y6500000D03*
G54D14*
X471500Y13612500D03*
X9700000Y3381000D03*
Y3762000D03*
Y4143000D03*
Y4524000D03*
Y4905000D03*
Y5286000D03*
Y5667000D03*
Y6881000D03*
Y7262000D03*
Y7643000D03*
Y8024000D03*
Y8405000D03*
Y8786000D03*
Y9167000D03*
G54D15*
G01X-670000Y10755000D02*
Y18390000D01*
X27277200D01*
Y10755000D01*
X-670000D01*
G01Y11390000D02*
X27277200D01*
G01X-670000Y12025000D02*
X27277200D01*
G01X-670000Y12660000D02*
X27277200D01*
G01X-670000Y13295000D02*
X27277200D01*
G01X-670000Y13930000D02*
X27277200D01*
G01X-670000Y14565000D02*
X27277200D01*
G01X-670000Y15200000D02*
X27277200D01*
G01X-670000Y15835000D02*
X27277200D01*
G01X-670000Y16470000D02*
X27277200D01*
G01X-670000Y17105000D02*
X27277200D01*
G01X-670000Y17740000D02*
X27277200D01*
G01X-390600Y16628800D02*
Y16946300D01*
X-241000D01*
G01X-296100Y16792800D02*
X-390600D01*
G01X-48100Y16946300D02*
X46300D01*
G01X-900D02*
Y16628800D01*
G01X-48100D02*
X46300D01*
G01X337600Y16787500D02*
X416400D01*
Y16692300D01*
X392700Y16660500D01*
X365200Y16639400D01*
X325800Y16628800D01*
X286400Y16639400D01*
X258900Y16660500D01*
X235300Y16692300D01*
X219500Y16729300D01*
X211600Y16771700D01*
Y16808700D01*
X219500Y16840500D01*
X235300Y16877500D01*
X258900Y16909300D01*
X282500Y16930400D01*
X314000Y16946300D01*
X341600D01*
X373000Y16935700D01*
X396700Y16914500D01*
G01X542300Y16946300D02*
Y16718800D01*
X558000Y16671100D01*
X589500Y16639400D01*
X628900Y16628800D01*
X668300Y16639400D01*
X699800Y16671100D01*
X715500Y16718800D01*
Y16946300D01*
G01X865100Y16628800D02*
Y16946300D01*
X963500D01*
X995000Y16930400D01*
X1014700Y16909300D01*
X1022500Y16866900D01*
X1014700Y16824600D01*
X991000Y16798100D01*
X963500Y16782300D01*
X865100D01*
G01X963500D02*
X1022500Y16628800D01*
G01X1337400D02*
X1180000D01*
Y16946300D01*
X1337400D01*
G01X1274400Y16792800D02*
X1180000D01*
G01X80000Y0D02*
X9920000D01*
G03X10000000Y80000I0J80000D01*
G01Y9920000D01*
G03X9920000Y10000000I-80000J0D01*
G01X80000D01*
G03X0Y9920000I0J-80000D01*
G01Y80000D01*
G03X80000Y0I80000J0D01*
G01X1613000Y17105000D02*
Y10755000D01*
G01X2207400Y16628800D02*
Y16946300D01*
X2357000D01*
G01X2301900Y16792800D02*
X2207400D01*
G01X2549900Y16946300D02*
X2644300D01*
G01X2597100D02*
Y16628800D01*
G01X2549900D02*
X2644300D01*
G01X2821500D02*
Y16946300D01*
X3002500Y16628800D01*
Y16946300D01*
G01X3179700D02*
X3274100D01*
G01X3226900D02*
Y16628800D01*
G01X3179700D02*
X3274100D01*
G01X3459100Y16671100D02*
X3490600Y16644700D01*
X3526100Y16628800D01*
X3557500D01*
X3589000Y16644700D01*
X3612700Y16671100D01*
X3624500Y16708200D01*
X3616600Y16745200D01*
X3596900Y16777000D01*
X3561500Y16798100D01*
X3514200Y16808700D01*
X3486700Y16829900D01*
X3474900Y16866900D01*
X3482800Y16904000D01*
X3502400Y16930400D01*
X3530000Y16946300D01*
X3557500D01*
X3585100Y16935700D01*
X3608700Y16909300D01*
G01X3774000Y16628800D02*
Y16946300D01*
G01X3939400D02*
Y16628800D01*
G01Y16787500D02*
X3774000D01*
G01X4250300Y16628800D02*
X4092900D01*
Y16946300D01*
X4250300D01*
G01X4187300Y16792800D02*
X4092900D01*
G01X4399900Y16628800D02*
Y16946300D01*
X4478600D01*
X4510100Y16930400D01*
X4533700Y16909300D01*
X4553400Y16877500D01*
X4569200Y16840500D01*
X4573100Y16787500D01*
X4569200Y16734600D01*
X4553400Y16697600D01*
X4533700Y16665800D01*
X4510100Y16644700D01*
X4478600Y16628800D01*
X4399900D01*
G01X4683300Y16523000D02*
X4919500D01*
G01X5033600Y16671100D02*
X5065100Y16644700D01*
X5100600Y16628800D01*
X5132000D01*
X5163500Y16644700D01*
X5187200Y16671100D01*
X5199000Y16708200D01*
X5191100Y16745200D01*
X5171400Y16777000D01*
X5136000Y16798100D01*
X5088700Y16808700D01*
X5061200Y16829900D01*
X5049400Y16866900D01*
X5057300Y16904000D01*
X5076900Y16930400D01*
X5104500Y16946300D01*
X5132000D01*
X5159600Y16935700D01*
X5183200Y16909300D01*
G01X5384000Y16946300D02*
X5478400D01*
G01X5431200D02*
Y16628800D01*
G01X5384000D02*
X5478400D01*
G01X5671300Y16946300D02*
X5820900D01*
X5671300Y16628800D01*
X5820900D01*
G01X6139700D02*
X5982300D01*
Y16946300D01*
X6139700D01*
G01X6076700Y16792800D02*
X5982300D01*
G01X3770100Y10977300D02*
X3793700Y10940300D01*
X3825200Y10919100D01*
X3860600Y10913800D01*
X3892100Y10919100D01*
X3923600Y10945500D01*
X3943300Y10977300D01*
X3947200Y11009000D01*
X3939400Y11046100D01*
X3911800Y11072500D01*
X3884300Y11083100D01*
X3848800D01*
G01X3884300D02*
X3907900Y11099000D01*
X3927600Y11125500D01*
X3935400Y11157200D01*
X3927600Y11189000D01*
X3907900Y11215400D01*
X3872400Y11231300D01*
X3837000Y11226000D01*
X3801600Y11204800D01*
G01X4171600Y10903200D02*
X4163700Y10908500D01*
Y10919100D01*
X4171600Y10924400D01*
X4179500Y10919100D01*
Y10908500D01*
X4171600Y10903200D01*
G01X4411700Y11178400D02*
X4435300Y11210100D01*
X4462900Y11226000D01*
X4494400Y11231300D01*
X4533700Y11220700D01*
X4561300Y11194300D01*
X4569200Y11162500D01*
X4565200Y11130800D01*
X4549500Y11104300D01*
X4470800Y11051400D01*
X4435300Y11014300D01*
X4411700Y10961400D01*
X4403800Y10913800D01*
X4569200D01*
G01X3856700Y11548800D02*
Y11866300D01*
X3809500Y11802800D01*
G01Y11548800D02*
X3903900D01*
G01X4171600Y11538200D02*
X4163700Y11543500D01*
Y11554100D01*
X4171600Y11559400D01*
X4179500Y11554100D01*
Y11543500D01*
X4171600Y11538200D01*
G01X4399900Y11596400D02*
X4423500Y11570000D01*
X4451100Y11554100D01*
X4486500Y11548800D01*
X4521900Y11559400D01*
X4549500Y11580500D01*
X4569200Y11617600D01*
X4573100Y11659900D01*
X4565200Y11702300D01*
X4545500Y11728700D01*
X4518000Y11749900D01*
X4490400Y11755200D01*
X4462900Y11749900D01*
X4427500Y11728700D01*
X4439300Y11866300D01*
X4545500D01*
G01X3856700Y12501300D02*
X3825200Y12490700D01*
X3801600Y12464300D01*
X3785800Y12432500D01*
X3774000Y12390200D01*
X3770100Y12342500D01*
X3774000Y12294900D01*
X3785800Y12252600D01*
X3801600Y12220800D01*
X3825200Y12194400D01*
X3856700Y12183800D01*
X3888200Y12194400D01*
X3911800Y12220800D01*
X3927600Y12252600D01*
X3939400Y12294900D01*
X3943300Y12342500D01*
X3939400Y12390200D01*
X3927600Y12432500D01*
X3911800Y12464300D01*
X3888200Y12490700D01*
X3856700Y12501300D01*
G01X4171600Y12173200D02*
X4163700Y12178500D01*
Y12189100D01*
X4171600Y12194400D01*
X4179500Y12189100D01*
Y12178500D01*
X4171600Y12173200D01*
G01X4411700Y12316100D02*
X4439300Y12353100D01*
X4462900Y12374300D01*
X4494400Y12384900D01*
X4521900Y12374300D01*
X4541600Y12353100D01*
X4557400Y12321400D01*
X4561300Y12284300D01*
X4557400Y12252600D01*
X4541600Y12220800D01*
X4518000Y12194400D01*
X4490400Y12183800D01*
X4458900Y12194400D01*
X4431400Y12226100D01*
X4415600Y12273800D01*
X4411700Y12326700D01*
X4419600Y12395500D01*
X4431400Y12432500D01*
X4451100Y12469500D01*
X4478600Y12496000D01*
X4506200Y12501300D01*
X4533700Y12490700D01*
X4553400Y12464300D01*
G01X3856700Y12818800D02*
Y13136300D01*
X3809500Y13072800D01*
G01Y12818800D02*
X3903900D01*
G01X4171600Y12808200D02*
X4163700Y12813500D01*
Y12824100D01*
X4171600Y12829400D01*
X4179500Y12824100D01*
Y12813500D01*
X4171600Y12808200D01*
G01X4411700Y12951100D02*
X4439300Y12988100D01*
X4462900Y13009300D01*
X4494400Y13019900D01*
X4521900Y13009300D01*
X4541600Y12988100D01*
X4557400Y12956400D01*
X4561300Y12919300D01*
X4557400Y12887600D01*
X4541600Y12855800D01*
X4518000Y12829400D01*
X4490400Y12818800D01*
X4458900Y12829400D01*
X4431400Y12861100D01*
X4415600Y12908800D01*
X4411700Y12961700D01*
X4419600Y13030500D01*
X4431400Y13067500D01*
X4451100Y13104500D01*
X4478600Y13131000D01*
X4506200Y13136300D01*
X4533700Y13125700D01*
X4553400Y13099300D01*
G01X3856700Y13453800D02*
Y13771300D01*
X3809500Y13707800D01*
G01Y13453800D02*
X3903900D01*
G01X4171600Y13443200D02*
X4163700Y13448500D01*
Y13459100D01*
X4171600Y13464400D01*
X4179500Y13459100D01*
Y13448500D01*
X4171600Y13443200D01*
G01X4411700Y13586100D02*
X4439300Y13623100D01*
X4462900Y13644300D01*
X4494400Y13654900D01*
X4521900Y13644300D01*
X4541600Y13623100D01*
X4557400Y13591400D01*
X4561300Y13554300D01*
X4557400Y13522600D01*
X4541600Y13490800D01*
X4518000Y13464400D01*
X4490400Y13453800D01*
X4458900Y13464400D01*
X4431400Y13496100D01*
X4415600Y13543800D01*
X4411700Y13596700D01*
X4419600Y13665500D01*
X4431400Y13702500D01*
X4451100Y13739500D01*
X4478600Y13766000D01*
X4506200Y13771300D01*
X4533700Y13760700D01*
X4553400Y13734300D01*
G01X3856700Y14088800D02*
Y14406300D01*
X3809500Y14342800D01*
G01Y14088800D02*
X3903900D01*
G01X4171600Y14078200D02*
X4163700Y14083500D01*
Y14094100D01*
X4171600Y14099400D01*
X4179500Y14094100D01*
Y14083500D01*
X4171600Y14078200D01*
G01X4486500Y14406300D02*
X4455000Y14395700D01*
X4431400Y14369300D01*
X4415600Y14337500D01*
X4403800Y14295200D01*
X4399900Y14247500D01*
X4403800Y14199900D01*
X4415600Y14157600D01*
X4431400Y14125800D01*
X4455000Y14099400D01*
X4486500Y14088800D01*
X4518000Y14099400D01*
X4541600Y14125800D01*
X4557400Y14157600D01*
X4569200Y14199900D01*
X4573100Y14247500D01*
X4569200Y14295200D01*
X4557400Y14337500D01*
X4541600Y14369300D01*
X4518000Y14395700D01*
X4486500Y14406300D01*
G01X3856700Y15041300D02*
X3825200Y15030700D01*
X3801600Y15004300D01*
X3785800Y14972500D01*
X3774000Y14930200D01*
X3770100Y14882500D01*
X3774000Y14834900D01*
X3785800Y14792600D01*
X3801600Y14760800D01*
X3825200Y14734400D01*
X3856700Y14723800D01*
X3888200Y14734400D01*
X3911800Y14760800D01*
X3927600Y14792600D01*
X3939400Y14834900D01*
X3943300Y14882500D01*
X3939400Y14930200D01*
X3927600Y14972500D01*
X3911800Y15004300D01*
X3888200Y15030700D01*
X3856700Y15041300D01*
G01X4171600Y14713200D02*
X4163700Y14718500D01*
Y14729100D01*
X4171600Y14734400D01*
X4179500Y14729100D01*
Y14718500D01*
X4171600Y14713200D01*
G01X4486500Y14723800D02*
X4514100Y14729100D01*
X4545500Y14745000D01*
X4565200Y14771400D01*
X4573100Y14808500D01*
X4565200Y14845500D01*
X4541600Y14877300D01*
X4506200Y14893100D01*
X4466800D01*
X4443200Y14903700D01*
X4423500Y14930200D01*
X4415600Y14967200D01*
X4427500Y15004300D01*
X4455000Y15030700D01*
X4486500Y15041300D01*
X4518000Y15030700D01*
X4545500Y15004300D01*
X4557400Y14967200D01*
X4549500Y14930200D01*
X4529800Y14903700D01*
X4506200Y14893100D01*
X4466800D01*
X4431400Y14877300D01*
X4407800Y14845500D01*
X4399900Y14808500D01*
X4407800Y14771400D01*
X4427500Y14745000D01*
X4458900Y14729100D01*
X4486500Y14723800D01*
G01X3856700Y15676300D02*
X3825200Y15665700D01*
X3801600Y15639300D01*
X3785800Y15607500D01*
X3774000Y15565200D01*
X3770100Y15517500D01*
X3774000Y15469900D01*
X3785800Y15427600D01*
X3801600Y15395800D01*
X3825200Y15369400D01*
X3856700Y15358800D01*
X3888200Y15369400D01*
X3911800Y15395800D01*
X3927600Y15427600D01*
X3939400Y15469900D01*
X3943300Y15517500D01*
X3939400Y15565200D01*
X3927600Y15607500D01*
X3911800Y15639300D01*
X3888200Y15665700D01*
X3856700Y15676300D01*
G01X4171600Y15348200D02*
X4163700Y15353500D01*
Y15364100D01*
X4171600Y15369400D01*
X4179500Y15364100D01*
Y15353500D01*
X4171600Y15348200D01*
G01X4399900Y15406400D02*
X4423500Y15380000D01*
X4451100Y15364100D01*
X4486500Y15358800D01*
X4521900Y15369400D01*
X4549500Y15390500D01*
X4569200Y15427600D01*
X4573100Y15469900D01*
X4565200Y15512300D01*
X4545500Y15538700D01*
X4518000Y15559900D01*
X4490400Y15565200D01*
X4462900Y15559900D01*
X4427500Y15538700D01*
X4439300Y15676300D01*
X4545500D01*
G01X3856700Y16311300D02*
X3825200Y16300700D01*
X3801600Y16274300D01*
X3785800Y16242500D01*
X3774000Y16200200D01*
X3770100Y16152500D01*
X3774000Y16104900D01*
X3785800Y16062600D01*
X3801600Y16030800D01*
X3825200Y16004400D01*
X3856700Y15993800D01*
X3888200Y16004400D01*
X3911800Y16030800D01*
X3927600Y16062600D01*
X3939400Y16104900D01*
X3943300Y16152500D01*
X3939400Y16200200D01*
X3927600Y16242500D01*
X3911800Y16274300D01*
X3888200Y16300700D01*
X3856700Y16311300D01*
G01X4171600Y15983200D02*
X4163700Y15988500D01*
Y15999100D01*
X4171600Y16004400D01*
X4179500Y15999100D01*
Y15988500D01*
X4171600Y15983200D01*
G01X4399900Y16057300D02*
X4423500Y16020300D01*
X4455000Y15999100D01*
X4490400Y15993800D01*
X4521900Y15999100D01*
X4553400Y16025500D01*
X4573100Y16057300D01*
X4577000Y16089000D01*
X4569200Y16126100D01*
X4541600Y16152500D01*
X4514100Y16163100D01*
X4478600D01*
G01X4514100D02*
X4537700Y16179000D01*
X4557400Y16205500D01*
X4565200Y16237200D01*
X4557400Y16269000D01*
X4537700Y16295400D01*
X4502200Y16311300D01*
X4466800Y16306000D01*
X4431400Y16284800D01*
G01X6730100Y17105000D02*
Y10755000D01*
G01X8029000Y16946300D02*
Y16628800D01*
G01X7938500Y16946300D02*
X8119500D01*
G01X8343900Y16628800D02*
X8312400Y16634100D01*
X8284900Y16655300D01*
X8261200Y16687000D01*
X8245500Y16724000D01*
X8237600Y16766400D01*
Y16808700D01*
X8245500Y16851100D01*
X8261200Y16888100D01*
X8284900Y16919800D01*
X8312400Y16941000D01*
X8343900Y16946300D01*
X8375400Y16941000D01*
X8402900Y16919800D01*
X8426600Y16888100D01*
X8442300Y16851100D01*
X8450200Y16808700D01*
Y16766400D01*
X8442300Y16724000D01*
X8426600Y16687000D01*
X8402900Y16655300D01*
X8375400Y16634100D01*
X8343900Y16628800D01*
G01X8658800D02*
X8627300Y16634100D01*
X8599800Y16655300D01*
X8576100Y16687000D01*
X8560400Y16724000D01*
X8552500Y16766400D01*
Y16808700D01*
X8560400Y16851100D01*
X8576100Y16888100D01*
X8599800Y16919800D01*
X8627300Y16941000D01*
X8658800Y16946300D01*
X8690300Y16941000D01*
X8717800Y16919800D01*
X8741500Y16888100D01*
X8757200Y16851100D01*
X8765100Y16808700D01*
Y16766400D01*
X8757200Y16724000D01*
X8741500Y16687000D01*
X8717800Y16655300D01*
X8690300Y16634100D01*
X8658800Y16628800D01*
G01X8895000Y16946300D02*
Y16628800D01*
X9052400D01*
G01X9170500Y16523000D02*
X9406700D01*
G01X9520800Y16671100D02*
X9552300Y16644700D01*
X9587800Y16628800D01*
X9619200D01*
X9650700Y16644700D01*
X9674400Y16671100D01*
X9686200Y16708200D01*
X9678300Y16745200D01*
X9658600Y16777000D01*
X9623200Y16798100D01*
X9575900Y16808700D01*
X9548400Y16829900D01*
X9536600Y16866900D01*
X9544500Y16904000D01*
X9564100Y16930400D01*
X9591700Y16946300D01*
X9619200D01*
X9646800Y16935700D01*
X9670400Y16909300D01*
G01X9871200Y16946300D02*
X9965600D01*
G01X9918400D02*
Y16628800D01*
G01X9871200D02*
X9965600D01*
G01X10158500Y16946300D02*
X10308100D01*
X10158500Y16628800D01*
X10308100D01*
G01X10626900D02*
X10469500D01*
Y16946300D01*
X10626900D01*
G01X10563900Y16792800D02*
X10469500D01*
G01X9237400Y11019600D02*
X9339800D01*
G01X9237400Y11654600D02*
X9339800D01*
G01X9237400Y12289600D02*
X9339800D01*
G01X9237400Y12924600D02*
X9339800D01*
G01X9237400Y13559600D02*
X9339800D01*
G01X9237400Y14194600D02*
X9339800D01*
G01X9237400Y14829600D02*
X9339800D01*
G01X9237400Y15464600D02*
X9339800D01*
G01X9237400Y16099600D02*
X9339800D01*
G01X8954000Y17263800D02*
X9052400Y17581300D01*
X9150800Y17263800D01*
G01X9115400Y17374900D02*
X8989400D01*
G01X9288600Y17581300D02*
Y17263800D01*
X9446000D01*
G01X9603500Y17581300D02*
Y17263800D01*
X9760900D01*
G01X10225400Y17581300D02*
Y17353800D01*
X10241100Y17306100D01*
X10272600Y17274400D01*
X10312000Y17263800D01*
X10351400Y17274400D01*
X10382900Y17306100D01*
X10398600Y17353800D01*
Y17581300D01*
G01X10536400Y17263800D02*
Y17581300D01*
X10717400Y17263800D01*
Y17581300D01*
G01X10894600D02*
X10989000D01*
G01X10941800D02*
Y17263800D01*
G01X10894600D02*
X10989000D01*
G01X11256700Y17581300D02*
Y17263800D01*
G01X11166200Y17581300D02*
X11347200D01*
G01X11488900Y17306100D02*
X11520400Y17279700D01*
X11555900Y17263800D01*
X11587300D01*
X11618800Y17279700D01*
X11642500Y17306100D01*
X11654300Y17343200D01*
X11646400Y17380200D01*
X11626700Y17412000D01*
X11591300Y17433100D01*
X11544000Y17443700D01*
X11516500Y17464900D01*
X11504700Y17501900D01*
X11512600Y17539000D01*
X11532200Y17565400D01*
X11559800Y17581300D01*
X11587300D01*
X11614900Y17570700D01*
X11638500Y17544300D01*
G01X12103000Y17263800D02*
X12201400Y17581300D01*
X12299800Y17263800D01*
G01X12264400Y17374900D02*
X12138400D01*
G01X12437600Y17263800D02*
Y17581300D01*
X12536000D01*
X12567500Y17565400D01*
X12587200Y17544300D01*
X12595000Y17501900D01*
X12587200Y17459600D01*
X12563500Y17433100D01*
X12536000Y17417300D01*
X12437600D01*
G01X12536000D02*
X12595000Y17263800D01*
G01X12909900D02*
X12752500D01*
Y17581300D01*
X12909900D01*
G01X12846900Y17427800D02*
X12752500D01*
G01X13413800Y17581300D02*
X13508200D01*
G01X13461000D02*
Y17263800D01*
G01X13413800D02*
X13508200D01*
G01X13685400D02*
Y17581300D01*
X13866400Y17263800D01*
Y17581300D01*
G01X14303300Y17263800D02*
Y17581300D01*
X14405700Y17316700D01*
X14508100Y17581300D01*
Y17263800D01*
G01X14673400Y17581300D02*
X14767800D01*
G01X14720600D02*
Y17263800D01*
G01X14673400D02*
X14767800D01*
G01X14956800Y17581300D02*
Y17263800D01*
X15114200D01*
G01X15271700Y17581300D02*
Y17263800D01*
X15429100D01*
G01X15618100Y17581300D02*
X15712500D01*
G01X15665300D02*
Y17263800D01*
G01X15618100D02*
X15712500D01*
G01X15877800D02*
Y17581300D01*
X15980200Y17316700D01*
X16082600Y17581300D01*
Y17263800D01*
G01X16373800D02*
X16216400D01*
Y17581300D01*
X16373800D01*
G01X16310800Y17427800D02*
X16216400D01*
G01X16610000Y17581300D02*
Y17263800D01*
G01X16519500Y17581300D02*
X16700500D01*
G01X17003600Y17263800D02*
X16846200D01*
Y17581300D01*
X17003600D01*
G01X16940600Y17427800D02*
X16846200D01*
G01X17161100Y17263800D02*
Y17581300D01*
X17259500D01*
X17291000Y17565400D01*
X17310700Y17544300D01*
X17318500Y17501900D01*
X17310700Y17459600D01*
X17287000Y17433100D01*
X17259500Y17417300D01*
X17161100D01*
G01X17259500D02*
X17318500Y17263800D01*
G01X17472000Y17306100D02*
X17503500Y17279700D01*
X17539000Y17263800D01*
X17570400D01*
X17601900Y17279700D01*
X17625600Y17306100D01*
X17637400Y17343200D01*
X17629500Y17380200D01*
X17609800Y17412000D01*
X17574400Y17433100D01*
X17527100Y17443700D01*
X17499600Y17464900D01*
X17487800Y17501900D01*
X17495700Y17539000D01*
X17515300Y17565400D01*
X17542900Y17581300D01*
X17570400D01*
X17598000Y17570700D01*
X17621600Y17544300D01*
G01X9280700Y17913800D02*
Y18231300D01*
X9359400D01*
X9390900Y18215400D01*
X9414500Y18194300D01*
X9434200Y18162500D01*
X9450000Y18125500D01*
X9453900Y18072500D01*
X9450000Y18019600D01*
X9434200Y17982600D01*
X9414500Y17950800D01*
X9390900Y17929700D01*
X9359400Y17913800D01*
X9280700D01*
G01X9603500D02*
Y18231300D01*
X9701900D01*
X9733400Y18215400D01*
X9753100Y18194300D01*
X9760900Y18151900D01*
X9753100Y18109600D01*
X9729400Y18083100D01*
X9701900Y18067300D01*
X9603500D01*
G01X9701900D02*
X9760900Y17913800D01*
G01X9949900Y18231300D02*
X10044300D01*
G01X9997100D02*
Y17913800D01*
G01X9949900D02*
X10044300D01*
G01X10233300Y18231300D02*
Y17913800D01*
X10390700D01*
G01X10548200Y18231300D02*
Y17913800D01*
X10705600D01*
G01X11343300Y18204800D02*
X11319700Y18220700D01*
X11292100Y18231300D01*
X11260600D01*
X11225200Y18215400D01*
X11197700Y18189000D01*
X11178000Y18157200D01*
X11162200Y18104300D01*
X11158300Y18056700D01*
X11166200Y18009000D01*
X11178000Y17977300D01*
X11201600Y17945500D01*
X11229100Y17924400D01*
X11256700Y17913800D01*
X11284300D01*
X11311800Y17924400D01*
X11335400Y17940300D01*
X11355100Y17961400D01*
G01X11488900Y17913800D02*
Y18231300D01*
G01X11654300D02*
Y17913800D01*
G01Y18072500D02*
X11488900D01*
G01X11788100Y17913800D02*
X11886500Y18231300D01*
X11984900Y17913800D01*
G01X11949500Y18024900D02*
X11823500D01*
G01X12122700Y17913800D02*
Y18231300D01*
X12221100D01*
X12252600Y18215400D01*
X12272300Y18194300D01*
X12280100Y18151900D01*
X12272300Y18109600D01*
X12248600Y18083100D01*
X12221100Y18067300D01*
X12122700D01*
G01X12221100D02*
X12280100Y17913800D01*
G01X12516300Y18231300D02*
Y17913800D01*
G01X12425800Y18231300D02*
X12606800D01*
G01X12831200Y17903200D02*
X12823300Y17908500D01*
Y17919100D01*
X12831200Y17924400D01*
X12839100Y17919100D01*
Y17908500D01*
X12831200Y17903200D01*
G01Y18046100D02*
X12823300Y18051400D01*
Y18062000D01*
X12831200Y18067300D01*
X12839100Y18062000D01*
Y18051400D01*
X12831200Y18046100D01*
G01X13461000Y18231300D02*
Y17913800D01*
G01X13370500Y18231300D02*
X13551500D01*
G01X13775900Y17913800D02*
X13744400Y17919100D01*
X13716900Y17940300D01*
X13693200Y17972000D01*
X13677500Y18009000D01*
X13669600Y18051400D01*
Y18093700D01*
X13677500Y18136100D01*
X13693200Y18173100D01*
X13716900Y18204800D01*
X13744400Y18226000D01*
X13775900Y18231300D01*
X13807400Y18226000D01*
X13834900Y18204800D01*
X13858600Y18173100D01*
X13874300Y18136100D01*
X13882200Y18093700D01*
Y18051400D01*
X13874300Y18009000D01*
X13858600Y17972000D01*
X13834900Y17940300D01*
X13807400Y17919100D01*
X13775900Y17913800D01*
G01X14012100D02*
Y18231300D01*
X14106500D01*
X14138000Y18215400D01*
X14161700Y18178400D01*
X14169500Y18136100D01*
X14161700Y18093700D01*
X14142000Y18062000D01*
X14106500Y18046100D01*
X14012100D01*
G01X14720600Y18231300D02*
Y17913800D01*
G01X14665500Y18125500D02*
X14775700D01*
G01X15035500Y17913800D02*
X15011900Y17919100D01*
X14988300Y17940300D01*
X14972500Y17977300D01*
X14964600Y18019600D01*
X14972500Y18062000D01*
X14988300Y18099000D01*
X15011900Y18120200D01*
X15035500Y18125500D01*
X15059100Y18120200D01*
X15082700Y18099000D01*
X15098500Y18062000D01*
X15102400Y18019600D01*
X15098500Y17977300D01*
X15082700Y17940300D01*
X15059100Y17919100D01*
X15035500Y17913800D01*
G01X15696800Y18083100D02*
X15712500Y18099000D01*
X15724300Y18125500D01*
X15732200Y18162500D01*
X15724300Y18194300D01*
X15708600Y18215400D01*
X15681000Y18231300D01*
X15574800D01*
Y17913800D01*
X15704700D01*
X15732200Y17935000D01*
X15748000Y17966700D01*
X15755800Y18003800D01*
X15748000Y18040800D01*
X15724300Y18072500D01*
X15696800Y18083100D01*
X15574800D01*
G01X15980200Y17913800D02*
X15948700Y17919100D01*
X15921200Y17940300D01*
X15897500Y17972000D01*
X15881800Y18009000D01*
X15873900Y18051400D01*
Y18093700D01*
X15881800Y18136100D01*
X15897500Y18173100D01*
X15921200Y18204800D01*
X15948700Y18226000D01*
X15980200Y18231300D01*
X16011700Y18226000D01*
X16039200Y18204800D01*
X16062900Y18173100D01*
X16078600Y18136100D01*
X16086500Y18093700D01*
Y18051400D01*
X16078600Y18009000D01*
X16062900Y17972000D01*
X16039200Y17940300D01*
X16011700Y17919100D01*
X15980200Y17913800D01*
G01X16295100Y18231300D02*
Y17913800D01*
G01X16204600Y18231300D02*
X16385600D01*
G01X16610000D02*
Y17913800D01*
G01X16519500Y18231300D02*
X16700500D01*
G01X16924900Y17913800D02*
X16893400Y17919100D01*
X16865900Y17940300D01*
X16842200Y17972000D01*
X16826500Y18009000D01*
X16818600Y18051400D01*
Y18093700D01*
X16826500Y18136100D01*
X16842200Y18173100D01*
X16865900Y18204800D01*
X16893400Y18226000D01*
X16924900Y18231300D01*
X16956400Y18226000D01*
X16983900Y18204800D01*
X17007600Y18173100D01*
X17023300Y18136100D01*
X17031200Y18093700D01*
Y18051400D01*
X17023300Y18009000D01*
X17007600Y17972000D01*
X16983900Y17940300D01*
X16956400Y17919100D01*
X16924900Y17913800D01*
G01X17137400D02*
Y18231300D01*
X17239800Y17966700D01*
X17342200Y18231300D01*
Y17913800D01*
G01X11847200Y17105000D02*
Y10755000D01*
G01X12201500Y16946300D02*
Y16628800D01*
G01X12111000Y16946300D02*
X12292000D01*
G01X12516400Y16628800D02*
X12484900Y16634100D01*
X12457400Y16655300D01*
X12433700Y16687000D01*
X12418000Y16724000D01*
X12410100Y16766400D01*
Y16808700D01*
X12418000Y16851100D01*
X12433700Y16888100D01*
X12457400Y16919800D01*
X12484900Y16941000D01*
X12516400Y16946300D01*
X12547900Y16941000D01*
X12575400Y16919800D01*
X12599100Y16888100D01*
X12614800Y16851100D01*
X12622700Y16808700D01*
Y16766400D01*
X12614800Y16724000D01*
X12599100Y16687000D01*
X12575400Y16655300D01*
X12547900Y16634100D01*
X12516400Y16628800D01*
G01X12752600Y16946300D02*
Y16628800D01*
X12910000D01*
G01X13224900D02*
X13067500D01*
Y16946300D01*
X13224900D01*
G01X13161900Y16792800D02*
X13067500D01*
G01X13382400Y16628800D02*
Y16946300D01*
X13480800D01*
X13512300Y16930400D01*
X13532000Y16909300D01*
X13539800Y16866900D01*
X13532000Y16824600D01*
X13508300Y16798100D01*
X13480800Y16782300D01*
X13382400D01*
G01X13480800D02*
X13539800Y16628800D01*
G01X13677600D02*
X13776000Y16946300D01*
X13874400Y16628800D01*
G01X13839000Y16739900D02*
X13713000D01*
G01X14000400Y16628800D02*
Y16946300D01*
X14181400Y16628800D01*
Y16946300D01*
G01X14492400Y16919800D02*
X14468800Y16935700D01*
X14441200Y16946300D01*
X14409700D01*
X14374300Y16930400D01*
X14346800Y16904000D01*
X14327100Y16872200D01*
X14311300Y16819300D01*
X14307400Y16771700D01*
X14315300Y16724000D01*
X14327100Y16692300D01*
X14350700Y16660500D01*
X14378200Y16639400D01*
X14405800Y16628800D01*
X14433400D01*
X14460900Y16639400D01*
X14484500Y16655300D01*
X14504200Y16676400D01*
G01X14799400Y16628800D02*
X14642000D01*
Y16946300D01*
X14799400D01*
G01X14736400Y16792800D02*
X14642000D01*
G01X14917500Y16523000D02*
X15153700D01*
G01X15263900Y16628800D02*
Y16946300D01*
X15342600D01*
X15374100Y16930400D01*
X15397700Y16909300D01*
X15417400Y16877500D01*
X15433200Y16840500D01*
X15437100Y16787500D01*
X15433200Y16734600D01*
X15417400Y16697600D01*
X15397700Y16665800D01*
X15374100Y16644700D01*
X15342600Y16628800D01*
X15263900D01*
G01X15586700D02*
Y16946300D01*
X15685100D01*
X15716600Y16930400D01*
X15736300Y16909300D01*
X15744100Y16866900D01*
X15736300Y16824600D01*
X15712600Y16798100D01*
X15685100Y16782300D01*
X15586700D01*
G01X15685100D02*
X15744100Y16628800D01*
G01X15933100Y16946300D02*
X16027500D01*
G01X15980300D02*
Y16628800D01*
G01X15933100D02*
X16027500D01*
G01X16216500Y16946300D02*
Y16628800D01*
X16373900D01*
G01X16531400Y16946300D02*
Y16628800D01*
X16688800D01*
G01X13102900Y11019600D02*
X13197400D01*
G01X13146200Y11088400D02*
Y10950800D01*
G01X13461100Y11231300D02*
X13429600Y11220700D01*
X13406000Y11194300D01*
X13390200Y11162500D01*
X13378400Y11120200D01*
X13374500Y11072500D01*
X13378400Y11024900D01*
X13390200Y10982600D01*
X13406000Y10950800D01*
X13429600Y10924400D01*
X13461100Y10913800D01*
X13492600Y10924400D01*
X13516200Y10950800D01*
X13532000Y10982600D01*
X13543800Y11024900D01*
X13547700Y11072500D01*
X13543800Y11120200D01*
X13532000Y11162500D01*
X13516200Y11194300D01*
X13492600Y11220700D01*
X13461100Y11231300D01*
G01X13776000Y10903200D02*
X13768100Y10908500D01*
Y10919100D01*
X13776000Y10924400D01*
X13783900Y10919100D01*
Y10908500D01*
X13776000Y10903200D01*
G01X14090900Y11231300D02*
X14059400Y11220700D01*
X14035800Y11194300D01*
X14020000Y11162500D01*
X14008200Y11120200D01*
X14004300Y11072500D01*
X14008200Y11024900D01*
X14020000Y10982600D01*
X14035800Y10950800D01*
X14059400Y10924400D01*
X14090900Y10913800D01*
X14122400Y10924400D01*
X14146000Y10950800D01*
X14161800Y10982600D01*
X14173600Y11024900D01*
X14177500Y11072500D01*
X14173600Y11120200D01*
X14161800Y11162500D01*
X14146000Y11194300D01*
X14122400Y11220700D01*
X14090900Y11231300D01*
G01X14334900Y10903200D02*
X14476700Y11231300D01*
G01X14669500Y11019600D02*
X14771900D01*
G01X15035600Y11231300D02*
X15004100Y11220700D01*
X14980500Y11194300D01*
X14964700Y11162500D01*
X14952900Y11120200D01*
X14949000Y11072500D01*
X14952900Y11024900D01*
X14964700Y10982600D01*
X14980500Y10950800D01*
X15004100Y10924400D01*
X15035600Y10913800D01*
X15067100Y10924400D01*
X15090700Y10950800D01*
X15106500Y10982600D01*
X15118300Y11024900D01*
X15122200Y11072500D01*
X15118300Y11120200D01*
X15106500Y11162500D01*
X15090700Y11194300D01*
X15067100Y11220700D01*
X15035600Y11231300D01*
G01X15350500Y10903200D02*
X15342600Y10908500D01*
Y10919100D01*
X15350500Y10924400D01*
X15358400Y10919100D01*
Y10908500D01*
X15350500Y10903200D01*
G01X15665400Y11231300D02*
X15633900Y11220700D01*
X15610300Y11194300D01*
X15594500Y11162500D01*
X15582700Y11120200D01*
X15578800Y11072500D01*
X15582700Y11024900D01*
X15594500Y10982600D01*
X15610300Y10950800D01*
X15633900Y10924400D01*
X15665400Y10913800D01*
X15696900Y10924400D01*
X15720500Y10950800D01*
X15736300Y10982600D01*
X15748100Y11024900D01*
X15752000Y11072500D01*
X15748100Y11120200D01*
X15736300Y11162500D01*
X15720500Y11194300D01*
X15696900Y11220700D01*
X15665400Y11231300D01*
G01X13102900Y11654600D02*
X13197400D01*
G01X13146200Y11723400D02*
Y11585800D01*
G01X13461100Y11866300D02*
X13429600Y11855700D01*
X13406000Y11829300D01*
X13390200Y11797500D01*
X13378400Y11755200D01*
X13374500Y11707500D01*
X13378400Y11659900D01*
X13390200Y11617600D01*
X13406000Y11585800D01*
X13429600Y11559400D01*
X13461100Y11548800D01*
X13492600Y11559400D01*
X13516200Y11585800D01*
X13532000Y11617600D01*
X13543800Y11659900D01*
X13547700Y11707500D01*
X13543800Y11755200D01*
X13532000Y11797500D01*
X13516200Y11829300D01*
X13492600Y11855700D01*
X13461100Y11866300D01*
G01X13776000Y11538200D02*
X13768100Y11543500D01*
Y11554100D01*
X13776000Y11559400D01*
X13783900Y11554100D01*
Y11543500D01*
X13776000Y11538200D01*
G01X14090900Y11866300D02*
X14059400Y11855700D01*
X14035800Y11829300D01*
X14020000Y11797500D01*
X14008200Y11755200D01*
X14004300Y11707500D01*
X14008200Y11659900D01*
X14020000Y11617600D01*
X14035800Y11585800D01*
X14059400Y11559400D01*
X14090900Y11548800D01*
X14122400Y11559400D01*
X14146000Y11585800D01*
X14161800Y11617600D01*
X14173600Y11659900D01*
X14177500Y11707500D01*
X14173600Y11755200D01*
X14161800Y11797500D01*
X14146000Y11829300D01*
X14122400Y11855700D01*
X14090900Y11866300D01*
G01X14334900Y11538200D02*
X14476700Y11866300D01*
G01X14669500Y11654600D02*
X14771900D01*
G01X15035600Y11866300D02*
X15004100Y11855700D01*
X14980500Y11829300D01*
X14964700Y11797500D01*
X14952900Y11755200D01*
X14949000Y11707500D01*
X14952900Y11659900D01*
X14964700Y11617600D01*
X14980500Y11585800D01*
X15004100Y11559400D01*
X15035600Y11548800D01*
X15067100Y11559400D01*
X15090700Y11585800D01*
X15106500Y11617600D01*
X15118300Y11659900D01*
X15122200Y11707500D01*
X15118300Y11755200D01*
X15106500Y11797500D01*
X15090700Y11829300D01*
X15067100Y11855700D01*
X15035600Y11866300D01*
G01X15350500Y11538200D02*
X15342600Y11543500D01*
Y11554100D01*
X15350500Y11559400D01*
X15358400Y11554100D01*
Y11543500D01*
X15350500Y11538200D01*
G01X15665400Y11866300D02*
X15633900Y11855700D01*
X15610300Y11829300D01*
X15594500Y11797500D01*
X15582700Y11755200D01*
X15578800Y11707500D01*
X15582700Y11659900D01*
X15594500Y11617600D01*
X15610300Y11585800D01*
X15633900Y11559400D01*
X15665400Y11548800D01*
X15696900Y11559400D01*
X15720500Y11585800D01*
X15736300Y11617600D01*
X15748100Y11659900D01*
X15752000Y11707500D01*
X15748100Y11755200D01*
X15736300Y11797500D01*
X15720500Y11829300D01*
X15696900Y11855700D01*
X15665400Y11866300D01*
G01X13102900Y12289600D02*
X13197400D01*
G01X13146200Y12358400D02*
Y12220800D01*
G01X13461100Y12501300D02*
X13429600Y12490700D01*
X13406000Y12464300D01*
X13390200Y12432500D01*
X13378400Y12390200D01*
X13374500Y12342500D01*
X13378400Y12294900D01*
X13390200Y12252600D01*
X13406000Y12220800D01*
X13429600Y12194400D01*
X13461100Y12183800D01*
X13492600Y12194400D01*
X13516200Y12220800D01*
X13532000Y12252600D01*
X13543800Y12294900D01*
X13547700Y12342500D01*
X13543800Y12390200D01*
X13532000Y12432500D01*
X13516200Y12464300D01*
X13492600Y12490700D01*
X13461100Y12501300D01*
G01X13776000Y12173200D02*
X13768100Y12178500D01*
Y12189100D01*
X13776000Y12194400D01*
X13783900Y12189100D01*
Y12178500D01*
X13776000Y12173200D01*
G01X14090900Y12501300D02*
X14059400Y12490700D01*
X14035800Y12464300D01*
X14020000Y12432500D01*
X14008200Y12390200D01*
X14004300Y12342500D01*
X14008200Y12294900D01*
X14020000Y12252600D01*
X14035800Y12220800D01*
X14059400Y12194400D01*
X14090900Y12183800D01*
X14122400Y12194400D01*
X14146000Y12220800D01*
X14161800Y12252600D01*
X14173600Y12294900D01*
X14177500Y12342500D01*
X14173600Y12390200D01*
X14161800Y12432500D01*
X14146000Y12464300D01*
X14122400Y12490700D01*
X14090900Y12501300D01*
G01X14334900Y12173200D02*
X14476700Y12501300D01*
G01X14669500Y12289600D02*
X14771900D01*
G01X15035600Y12501300D02*
X15004100Y12490700D01*
X14980500Y12464300D01*
X14964700Y12432500D01*
X14952900Y12390200D01*
X14949000Y12342500D01*
X14952900Y12294900D01*
X14964700Y12252600D01*
X14980500Y12220800D01*
X15004100Y12194400D01*
X15035600Y12183800D01*
X15067100Y12194400D01*
X15090700Y12220800D01*
X15106500Y12252600D01*
X15118300Y12294900D01*
X15122200Y12342500D01*
X15118300Y12390200D01*
X15106500Y12432500D01*
X15090700Y12464300D01*
X15067100Y12490700D01*
X15035600Y12501300D01*
G01X15350500Y12173200D02*
X15342600Y12178500D01*
Y12189100D01*
X15350500Y12194400D01*
X15358400Y12189100D01*
Y12178500D01*
X15350500Y12173200D01*
G01X15665400Y12501300D02*
X15633900Y12490700D01*
X15610300Y12464300D01*
X15594500Y12432500D01*
X15582700Y12390200D01*
X15578800Y12342500D01*
X15582700Y12294900D01*
X15594500Y12252600D01*
X15610300Y12220800D01*
X15633900Y12194400D01*
X15665400Y12183800D01*
X15696900Y12194400D01*
X15720500Y12220800D01*
X15736300Y12252600D01*
X15748100Y12294900D01*
X15752000Y12342500D01*
X15748100Y12390200D01*
X15736300Y12432500D01*
X15720500Y12464300D01*
X15696900Y12490700D01*
X15665400Y12501300D01*
G01X13102900Y12924600D02*
X13197400D01*
G01X13146200Y12993400D02*
Y12855800D01*
G01X13461100Y13136300D02*
X13429600Y13125700D01*
X13406000Y13099300D01*
X13390200Y13067500D01*
X13378400Y13025200D01*
X13374500Y12977500D01*
X13378400Y12929900D01*
X13390200Y12887600D01*
X13406000Y12855800D01*
X13429600Y12829400D01*
X13461100Y12818800D01*
X13492600Y12829400D01*
X13516200Y12855800D01*
X13532000Y12887600D01*
X13543800Y12929900D01*
X13547700Y12977500D01*
X13543800Y13025200D01*
X13532000Y13067500D01*
X13516200Y13099300D01*
X13492600Y13125700D01*
X13461100Y13136300D01*
G01X13776000Y12808200D02*
X13768100Y12813500D01*
Y12824100D01*
X13776000Y12829400D01*
X13783900Y12824100D01*
Y12813500D01*
X13776000Y12808200D01*
G01X14090900Y13136300D02*
X14059400Y13125700D01*
X14035800Y13099300D01*
X14020000Y13067500D01*
X14008200Y13025200D01*
X14004300Y12977500D01*
X14008200Y12929900D01*
X14020000Y12887600D01*
X14035800Y12855800D01*
X14059400Y12829400D01*
X14090900Y12818800D01*
X14122400Y12829400D01*
X14146000Y12855800D01*
X14161800Y12887600D01*
X14173600Y12929900D01*
X14177500Y12977500D01*
X14173600Y13025200D01*
X14161800Y13067500D01*
X14146000Y13099300D01*
X14122400Y13125700D01*
X14090900Y13136300D01*
G01X14334900Y12808200D02*
X14476700Y13136300D01*
G01X14669500Y12924600D02*
X14771900D01*
G01X15035600Y13136300D02*
X15004100Y13125700D01*
X14980500Y13099300D01*
X14964700Y13067500D01*
X14952900Y13025200D01*
X14949000Y12977500D01*
X14952900Y12929900D01*
X14964700Y12887600D01*
X14980500Y12855800D01*
X15004100Y12829400D01*
X15035600Y12818800D01*
X15067100Y12829400D01*
X15090700Y12855800D01*
X15106500Y12887600D01*
X15118300Y12929900D01*
X15122200Y12977500D01*
X15118300Y13025200D01*
X15106500Y13067500D01*
X15090700Y13099300D01*
X15067100Y13125700D01*
X15035600Y13136300D01*
G01X15350500Y12808200D02*
X15342600Y12813500D01*
Y12824100D01*
X15350500Y12829400D01*
X15358400Y12824100D01*
Y12813500D01*
X15350500Y12808200D01*
G01X15665400Y13136300D02*
X15633900Y13125700D01*
X15610300Y13099300D01*
X15594500Y13067500D01*
X15582700Y13025200D01*
X15578800Y12977500D01*
X15582700Y12929900D01*
X15594500Y12887600D01*
X15610300Y12855800D01*
X15633900Y12829400D01*
X15665400Y12818800D01*
X15696900Y12829400D01*
X15720500Y12855800D01*
X15736300Y12887600D01*
X15748100Y12929900D01*
X15752000Y12977500D01*
X15748100Y13025200D01*
X15736300Y13067500D01*
X15720500Y13099300D01*
X15696900Y13125700D01*
X15665400Y13136300D01*
G01X13102900Y13559600D02*
X13197400D01*
G01X13146200Y13628400D02*
Y13490800D01*
G01X13461100Y13771300D02*
X13429600Y13760700D01*
X13406000Y13734300D01*
X13390200Y13702500D01*
X13378400Y13660200D01*
X13374500Y13612500D01*
X13378400Y13564900D01*
X13390200Y13522600D01*
X13406000Y13490800D01*
X13429600Y13464400D01*
X13461100Y13453800D01*
X13492600Y13464400D01*
X13516200Y13490800D01*
X13532000Y13522600D01*
X13543800Y13564900D01*
X13547700Y13612500D01*
X13543800Y13660200D01*
X13532000Y13702500D01*
X13516200Y13734300D01*
X13492600Y13760700D01*
X13461100Y13771300D01*
G01X13776000Y13443200D02*
X13768100Y13448500D01*
Y13459100D01*
X13776000Y13464400D01*
X13783900Y13459100D01*
Y13448500D01*
X13776000Y13443200D01*
G01X14090900Y13771300D02*
X14059400Y13760700D01*
X14035800Y13734300D01*
X14020000Y13702500D01*
X14008200Y13660200D01*
X14004300Y13612500D01*
X14008200Y13564900D01*
X14020000Y13522600D01*
X14035800Y13490800D01*
X14059400Y13464400D01*
X14090900Y13453800D01*
X14122400Y13464400D01*
X14146000Y13490800D01*
X14161800Y13522600D01*
X14173600Y13564900D01*
X14177500Y13612500D01*
X14173600Y13660200D01*
X14161800Y13702500D01*
X14146000Y13734300D01*
X14122400Y13760700D01*
X14090900Y13771300D01*
G01X14334900Y13443200D02*
X14476700Y13771300D01*
G01X14669500Y13559600D02*
X14771900D01*
G01X15035600Y13771300D02*
X15004100Y13760700D01*
X14980500Y13734300D01*
X14964700Y13702500D01*
X14952900Y13660200D01*
X14949000Y13612500D01*
X14952900Y13564900D01*
X14964700Y13522600D01*
X14980500Y13490800D01*
X15004100Y13464400D01*
X15035600Y13453800D01*
X15067100Y13464400D01*
X15090700Y13490800D01*
X15106500Y13522600D01*
X15118300Y13564900D01*
X15122200Y13612500D01*
X15118300Y13660200D01*
X15106500Y13702500D01*
X15090700Y13734300D01*
X15067100Y13760700D01*
X15035600Y13771300D01*
G01X15350500Y13443200D02*
X15342600Y13448500D01*
Y13459100D01*
X15350500Y13464400D01*
X15358400Y13459100D01*
Y13448500D01*
X15350500Y13443200D01*
G01X15665400Y13771300D02*
X15633900Y13760700D01*
X15610300Y13734300D01*
X15594500Y13702500D01*
X15582700Y13660200D01*
X15578800Y13612500D01*
X15582700Y13564900D01*
X15594500Y13522600D01*
X15610300Y13490800D01*
X15633900Y13464400D01*
X15665400Y13453800D01*
X15696900Y13464400D01*
X15720500Y13490800D01*
X15736300Y13522600D01*
X15748100Y13564900D01*
X15752000Y13612500D01*
X15748100Y13660200D01*
X15736300Y13702500D01*
X15720500Y13734300D01*
X15696900Y13760700D01*
X15665400Y13771300D01*
G01X13102900Y14194600D02*
X13197400D01*
G01X13146200Y14263400D02*
Y14125800D01*
G01X13461100Y14406300D02*
X13429600Y14395700D01*
X13406000Y14369300D01*
X13390200Y14337500D01*
X13378400Y14295200D01*
X13374500Y14247500D01*
X13378400Y14199900D01*
X13390200Y14157600D01*
X13406000Y14125800D01*
X13429600Y14099400D01*
X13461100Y14088800D01*
X13492600Y14099400D01*
X13516200Y14125800D01*
X13532000Y14157600D01*
X13543800Y14199900D01*
X13547700Y14247500D01*
X13543800Y14295200D01*
X13532000Y14337500D01*
X13516200Y14369300D01*
X13492600Y14395700D01*
X13461100Y14406300D01*
G01X13776000Y14078200D02*
X13768100Y14083500D01*
Y14094100D01*
X13776000Y14099400D01*
X13783900Y14094100D01*
Y14083500D01*
X13776000Y14078200D01*
G01X14090900Y14406300D02*
X14059400Y14395700D01*
X14035800Y14369300D01*
X14020000Y14337500D01*
X14008200Y14295200D01*
X14004300Y14247500D01*
X14008200Y14199900D01*
X14020000Y14157600D01*
X14035800Y14125800D01*
X14059400Y14099400D01*
X14090900Y14088800D01*
X14122400Y14099400D01*
X14146000Y14125800D01*
X14161800Y14157600D01*
X14173600Y14199900D01*
X14177500Y14247500D01*
X14173600Y14295200D01*
X14161800Y14337500D01*
X14146000Y14369300D01*
X14122400Y14395700D01*
X14090900Y14406300D01*
G01X14334900Y14078200D02*
X14476700Y14406300D01*
G01X14669500Y14194600D02*
X14771900D01*
G01X15035600Y14406300D02*
X15004100Y14395700D01*
X14980500Y14369300D01*
X14964700Y14337500D01*
X14952900Y14295200D01*
X14949000Y14247500D01*
X14952900Y14199900D01*
X14964700Y14157600D01*
X14980500Y14125800D01*
X15004100Y14099400D01*
X15035600Y14088800D01*
X15067100Y14099400D01*
X15090700Y14125800D01*
X15106500Y14157600D01*
X15118300Y14199900D01*
X15122200Y14247500D01*
X15118300Y14295200D01*
X15106500Y14337500D01*
X15090700Y14369300D01*
X15067100Y14395700D01*
X15035600Y14406300D01*
G01X15350500Y14078200D02*
X15342600Y14083500D01*
Y14094100D01*
X15350500Y14099400D01*
X15358400Y14094100D01*
Y14083500D01*
X15350500Y14078200D01*
G01X15665400Y14406300D02*
X15633900Y14395700D01*
X15610300Y14369300D01*
X15594500Y14337500D01*
X15582700Y14295200D01*
X15578800Y14247500D01*
X15582700Y14199900D01*
X15594500Y14157600D01*
X15610300Y14125800D01*
X15633900Y14099400D01*
X15665400Y14088800D01*
X15696900Y14099400D01*
X15720500Y14125800D01*
X15736300Y14157600D01*
X15748100Y14199900D01*
X15752000Y14247500D01*
X15748100Y14295200D01*
X15736300Y14337500D01*
X15720500Y14369300D01*
X15696900Y14395700D01*
X15665400Y14406300D01*
G01X13102900Y14829600D02*
X13197400D01*
G01X13146200Y14898400D02*
Y14760800D01*
G01X13461100Y15041300D02*
X13429600Y15030700D01*
X13406000Y15004300D01*
X13390200Y14972500D01*
X13378400Y14930200D01*
X13374500Y14882500D01*
X13378400Y14834900D01*
X13390200Y14792600D01*
X13406000Y14760800D01*
X13429600Y14734400D01*
X13461100Y14723800D01*
X13492600Y14734400D01*
X13516200Y14760800D01*
X13532000Y14792600D01*
X13543800Y14834900D01*
X13547700Y14882500D01*
X13543800Y14930200D01*
X13532000Y14972500D01*
X13516200Y15004300D01*
X13492600Y15030700D01*
X13461100Y15041300D01*
G01X13776000Y14713200D02*
X13768100Y14718500D01*
Y14729100D01*
X13776000Y14734400D01*
X13783900Y14729100D01*
Y14718500D01*
X13776000Y14713200D01*
G01X14090900Y15041300D02*
X14059400Y15030700D01*
X14035800Y15004300D01*
X14020000Y14972500D01*
X14008200Y14930200D01*
X14004300Y14882500D01*
X14008200Y14834900D01*
X14020000Y14792600D01*
X14035800Y14760800D01*
X14059400Y14734400D01*
X14090900Y14723800D01*
X14122400Y14734400D01*
X14146000Y14760800D01*
X14161800Y14792600D01*
X14173600Y14834900D01*
X14177500Y14882500D01*
X14173600Y14930200D01*
X14161800Y14972500D01*
X14146000Y15004300D01*
X14122400Y15030700D01*
X14090900Y15041300D01*
G01X14334900Y14713200D02*
X14476700Y15041300D01*
G01X14669500Y14829600D02*
X14771900D01*
G01X15035600Y15041300D02*
X15004100Y15030700D01*
X14980500Y15004300D01*
X14964700Y14972500D01*
X14952900Y14930200D01*
X14949000Y14882500D01*
X14952900Y14834900D01*
X14964700Y14792600D01*
X14980500Y14760800D01*
X15004100Y14734400D01*
X15035600Y14723800D01*
X15067100Y14734400D01*
X15090700Y14760800D01*
X15106500Y14792600D01*
X15118300Y14834900D01*
X15122200Y14882500D01*
X15118300Y14930200D01*
X15106500Y14972500D01*
X15090700Y15004300D01*
X15067100Y15030700D01*
X15035600Y15041300D01*
G01X15350500Y14713200D02*
X15342600Y14718500D01*
Y14729100D01*
X15350500Y14734400D01*
X15358400Y14729100D01*
Y14718500D01*
X15350500Y14713200D01*
G01X15665400Y15041300D02*
X15633900Y15030700D01*
X15610300Y15004300D01*
X15594500Y14972500D01*
X15582700Y14930200D01*
X15578800Y14882500D01*
X15582700Y14834900D01*
X15594500Y14792600D01*
X15610300Y14760800D01*
X15633900Y14734400D01*
X15665400Y14723800D01*
X15696900Y14734400D01*
X15720500Y14760800D01*
X15736300Y14792600D01*
X15748100Y14834900D01*
X15752000Y14882500D01*
X15748100Y14930200D01*
X15736300Y14972500D01*
X15720500Y15004300D01*
X15696900Y15030700D01*
X15665400Y15041300D01*
G01X13102900Y15464600D02*
X13197400D01*
G01X13146200Y15533400D02*
Y15395800D01*
G01X13461100Y15676300D02*
X13429600Y15665700D01*
X13406000Y15639300D01*
X13390200Y15607500D01*
X13378400Y15565200D01*
X13374500Y15517500D01*
X13378400Y15469900D01*
X13390200Y15427600D01*
X13406000Y15395800D01*
X13429600Y15369400D01*
X13461100Y15358800D01*
X13492600Y15369400D01*
X13516200Y15395800D01*
X13532000Y15427600D01*
X13543800Y15469900D01*
X13547700Y15517500D01*
X13543800Y15565200D01*
X13532000Y15607500D01*
X13516200Y15639300D01*
X13492600Y15665700D01*
X13461100Y15676300D01*
G01X13776000Y15348200D02*
X13768100Y15353500D01*
Y15364100D01*
X13776000Y15369400D01*
X13783900Y15364100D01*
Y15353500D01*
X13776000Y15348200D01*
G01X14090900Y15676300D02*
X14059400Y15665700D01*
X14035800Y15639300D01*
X14020000Y15607500D01*
X14008200Y15565200D01*
X14004300Y15517500D01*
X14008200Y15469900D01*
X14020000Y15427600D01*
X14035800Y15395800D01*
X14059400Y15369400D01*
X14090900Y15358800D01*
X14122400Y15369400D01*
X14146000Y15395800D01*
X14161800Y15427600D01*
X14173600Y15469900D01*
X14177500Y15517500D01*
X14173600Y15565200D01*
X14161800Y15607500D01*
X14146000Y15639300D01*
X14122400Y15665700D01*
X14090900Y15676300D01*
G01X14334900Y15348200D02*
X14476700Y15676300D01*
G01X14669500Y15464600D02*
X14771900D01*
G01X15035600Y15676300D02*
X15004100Y15665700D01*
X14980500Y15639300D01*
X14964700Y15607500D01*
X14952900Y15565200D01*
X14949000Y15517500D01*
X14952900Y15469900D01*
X14964700Y15427600D01*
X14980500Y15395800D01*
X15004100Y15369400D01*
X15035600Y15358800D01*
X15067100Y15369400D01*
X15090700Y15395800D01*
X15106500Y15427600D01*
X15118300Y15469900D01*
X15122200Y15517500D01*
X15118300Y15565200D01*
X15106500Y15607500D01*
X15090700Y15639300D01*
X15067100Y15665700D01*
X15035600Y15676300D01*
G01X15350500Y15348200D02*
X15342600Y15353500D01*
Y15364100D01*
X15350500Y15369400D01*
X15358400Y15364100D01*
Y15353500D01*
X15350500Y15348200D01*
G01X15665400Y15676300D02*
X15633900Y15665700D01*
X15610300Y15639300D01*
X15594500Y15607500D01*
X15582700Y15565200D01*
X15578800Y15517500D01*
X15582700Y15469900D01*
X15594500Y15427600D01*
X15610300Y15395800D01*
X15633900Y15369400D01*
X15665400Y15358800D01*
X15696900Y15369400D01*
X15720500Y15395800D01*
X15736300Y15427600D01*
X15748100Y15469900D01*
X15752000Y15517500D01*
X15748100Y15565200D01*
X15736300Y15607500D01*
X15720500Y15639300D01*
X15696900Y15665700D01*
X15665400Y15676300D01*
G01X13102900Y16099600D02*
X13197400D01*
G01X13146200Y16168400D02*
Y16030800D01*
G01X13461100Y16311300D02*
X13429600Y16300700D01*
X13406000Y16274300D01*
X13390200Y16242500D01*
X13378400Y16200200D01*
X13374500Y16152500D01*
X13378400Y16104900D01*
X13390200Y16062600D01*
X13406000Y16030800D01*
X13429600Y16004400D01*
X13461100Y15993800D01*
X13492600Y16004400D01*
X13516200Y16030800D01*
X13532000Y16062600D01*
X13543800Y16104900D01*
X13547700Y16152500D01*
X13543800Y16200200D01*
X13532000Y16242500D01*
X13516200Y16274300D01*
X13492600Y16300700D01*
X13461100Y16311300D01*
G01X13776000Y15983200D02*
X13768100Y15988500D01*
Y15999100D01*
X13776000Y16004400D01*
X13783900Y15999100D01*
Y15988500D01*
X13776000Y15983200D01*
G01X14090900Y16311300D02*
X14059400Y16300700D01*
X14035800Y16274300D01*
X14020000Y16242500D01*
X14008200Y16200200D01*
X14004300Y16152500D01*
X14008200Y16104900D01*
X14020000Y16062600D01*
X14035800Y16030800D01*
X14059400Y16004400D01*
X14090900Y15993800D01*
X14122400Y16004400D01*
X14146000Y16030800D01*
X14161800Y16062600D01*
X14173600Y16104900D01*
X14177500Y16152500D01*
X14173600Y16200200D01*
X14161800Y16242500D01*
X14146000Y16274300D01*
X14122400Y16300700D01*
X14090900Y16311300D01*
G01X14334900Y15983200D02*
X14476700Y16311300D01*
G01X14669500Y16099600D02*
X14771900D01*
G01X15035600Y16311300D02*
X15004100Y16300700D01*
X14980500Y16274300D01*
X14964700Y16242500D01*
X14952900Y16200200D01*
X14949000Y16152500D01*
X14952900Y16104900D01*
X14964700Y16062600D01*
X14980500Y16030800D01*
X15004100Y16004400D01*
X15035600Y15993800D01*
X15067100Y16004400D01*
X15090700Y16030800D01*
X15106500Y16062600D01*
X15118300Y16104900D01*
X15122200Y16152500D01*
X15118300Y16200200D01*
X15106500Y16242500D01*
X15090700Y16274300D01*
X15067100Y16300700D01*
X15035600Y16311300D01*
G01X15350500Y15983200D02*
X15342600Y15988500D01*
Y15999100D01*
X15350500Y16004400D01*
X15358400Y15999100D01*
Y15988500D01*
X15350500Y15983200D01*
G01X15665400Y16311300D02*
X15633900Y16300700D01*
X15610300Y16274300D01*
X15594500Y16242500D01*
X15582700Y16200200D01*
X15578800Y16152500D01*
X15582700Y16104900D01*
X15594500Y16062600D01*
X15610300Y16030800D01*
X15633900Y16004400D01*
X15665400Y15993800D01*
X15696900Y16004400D01*
X15720500Y16030800D01*
X15736300Y16062600D01*
X15748100Y16104900D01*
X15752000Y16152500D01*
X15748100Y16200200D01*
X15736300Y16242500D01*
X15720500Y16274300D01*
X15696900Y16300700D01*
X15665400Y16311300D01*
G01X16964300Y17105000D02*
Y10755000D01*
G01X17161000Y16946300D02*
Y16628800D01*
G01X17070500Y16946300D02*
X17251500D01*
G01X17475900Y16628800D02*
X17444400Y16634100D01*
X17416900Y16655300D01*
X17393200Y16687000D01*
X17377500Y16724000D01*
X17369600Y16766400D01*
Y16808700D01*
X17377500Y16851100D01*
X17393200Y16888100D01*
X17416900Y16919800D01*
X17444400Y16941000D01*
X17475900Y16946300D01*
X17507400Y16941000D01*
X17534900Y16919800D01*
X17558600Y16888100D01*
X17574300Y16851100D01*
X17582200Y16808700D01*
Y16766400D01*
X17574300Y16724000D01*
X17558600Y16687000D01*
X17534900Y16655300D01*
X17507400Y16634100D01*
X17475900Y16628800D01*
G01X17712100Y16946300D02*
Y16628800D01*
X17869500D01*
G01X18184400D02*
X18027000D01*
Y16946300D01*
X18184400D01*
G01X18121400Y16792800D02*
X18027000D01*
G01X18341900Y16628800D02*
Y16946300D01*
X18440300D01*
X18471800Y16930400D01*
X18491500Y16909300D01*
X18499300Y16866900D01*
X18491500Y16824600D01*
X18467800Y16798100D01*
X18440300Y16782300D01*
X18341900D01*
G01X18440300D02*
X18499300Y16628800D01*
G01X18637100D02*
X18735500Y16946300D01*
X18833900Y16628800D01*
G01X18798500Y16739900D02*
X18672500D01*
G01X18959900Y16628800D02*
Y16946300D01*
X19140900Y16628800D01*
Y16946300D01*
G01X19451900Y16919800D02*
X19428300Y16935700D01*
X19400700Y16946300D01*
X19369200D01*
X19333800Y16930400D01*
X19306300Y16904000D01*
X19286600Y16872200D01*
X19270800Y16819300D01*
X19266900Y16771700D01*
X19274800Y16724000D01*
X19286600Y16692300D01*
X19310200Y16660500D01*
X19337700Y16639400D01*
X19365300Y16628800D01*
X19392900D01*
X19420400Y16639400D01*
X19444000Y16655300D01*
X19463700Y16676400D01*
G01X19758900Y16628800D02*
X19601500D01*
Y16946300D01*
X19758900D01*
G01X19695900Y16792800D02*
X19601500D01*
G01X19877000Y16523000D02*
X20113200D01*
G01X20310000Y16946300D02*
Y16628800D01*
G01X20219500Y16946300D02*
X20400500D01*
G01X20546200Y16628800D02*
Y16946300D01*
X20644600D01*
X20676100Y16930400D01*
X20695800Y16909300D01*
X20703600Y16866900D01*
X20695800Y16824600D01*
X20672100Y16798100D01*
X20644600Y16782300D01*
X20546200D01*
G01X20644600D02*
X20703600Y16628800D01*
G01X20841400D02*
X20939800Y16946300D01*
X21038200Y16628800D01*
G01X21002800Y16739900D02*
X20876800D01*
G01X21156300Y16946300D02*
X21254700Y16628800D01*
X21353100Y16946300D01*
G01X21648300Y16628800D02*
X21490900D01*
Y16946300D01*
X21648300D01*
G01X21585300Y16792800D02*
X21490900D01*
G01X21805800Y16946300D02*
Y16628800D01*
X21963200D01*
G01X19471600Y11019600D02*
X19574000D01*
G01X19471600Y11654600D02*
X19574000D01*
G01X19471600Y12289600D02*
X19574000D01*
G01X19471600Y12924600D02*
X19574000D01*
G01X19471600Y13559600D02*
X19574000D01*
G01X19471600Y14194600D02*
X19574000D01*
G01X19471600Y14829600D02*
X19574000D01*
G01X19471600Y15464600D02*
X19574000D01*
G01X19471600Y16099600D02*
X19574000D01*
G01X22081400Y17105000D02*
Y10755000D01*
G01X22187600Y10913800D02*
Y11231300D01*
X22368600Y10913800D01*
Y11231300D01*
G01X22593000Y10913800D02*
X22561500Y10919100D01*
X22534000Y10940300D01*
X22510300Y10972000D01*
X22494600Y11009000D01*
X22486700Y11051400D01*
Y11093700D01*
X22494600Y11136100D01*
X22510300Y11173100D01*
X22534000Y11204800D01*
X22561500Y11226000D01*
X22593000Y11231300D01*
X22624500Y11226000D01*
X22652000Y11204800D01*
X22675700Y11173100D01*
X22691400Y11136100D01*
X22699300Y11093700D01*
Y11051400D01*
X22691400Y11009000D01*
X22675700Y10972000D01*
X22652000Y10940300D01*
X22624500Y10919100D01*
X22593000Y10913800D01*
G01X22817400D02*
Y11231300D01*
X22998400Y10913800D01*
Y11231300D01*
G01X23171600Y11019600D02*
X23274000D01*
G01X23459000Y10913800D02*
Y11231300D01*
X23553400D01*
X23584900Y11215400D01*
X23608600Y11178400D01*
X23616400Y11136100D01*
X23608600Y11093700D01*
X23588900Y11062000D01*
X23553400Y11046100D01*
X23459000D01*
G01X23773900Y11231300D02*
Y10913800D01*
X23931300D01*
G01X24069100D02*
X24167500Y11231300D01*
X24265900Y10913800D01*
G01X24230500Y11024900D02*
X24104500D01*
G01X24482400Y11231300D02*
Y10913800D01*
G01X24391900Y11231300D02*
X24572900D01*
G01X24876000Y10913800D02*
X24718600D01*
Y11231300D01*
X24876000D01*
G01X24813000Y11077800D02*
X24718600D01*
G01X25025600Y10913800D02*
Y11231300D01*
X25104300D01*
X25135800Y11215400D01*
X25159400Y11194300D01*
X25179100Y11162500D01*
X25194900Y11125500D01*
X25198800Y11072500D01*
X25194900Y11019600D01*
X25179100Y10982600D01*
X25159400Y10950800D01*
X25135800Y10929700D01*
X25104300Y10913800D01*
X25025600D01*
G01X22187600Y11548800D02*
Y11866300D01*
X22368600Y11548800D01*
Y11866300D01*
G01X22593000Y11548800D02*
X22561500Y11554100D01*
X22534000Y11575300D01*
X22510300Y11607000D01*
X22494600Y11644000D01*
X22486700Y11686400D01*
Y11728700D01*
X22494600Y11771100D01*
X22510300Y11808100D01*
X22534000Y11839800D01*
X22561500Y11861000D01*
X22593000Y11866300D01*
X22624500Y11861000D01*
X22652000Y11839800D01*
X22675700Y11808100D01*
X22691400Y11771100D01*
X22699300Y11728700D01*
Y11686400D01*
X22691400Y11644000D01*
X22675700Y11607000D01*
X22652000Y11575300D01*
X22624500Y11554100D01*
X22593000Y11548800D01*
G01X22817400D02*
Y11866300D01*
X22998400Y11548800D01*
Y11866300D01*
G01X23171600Y11654600D02*
X23274000D01*
G01X23459000Y11548800D02*
Y11866300D01*
X23553400D01*
X23584900Y11850400D01*
X23608600Y11813400D01*
X23616400Y11771100D01*
X23608600Y11728700D01*
X23588900Y11697000D01*
X23553400Y11681100D01*
X23459000D01*
G01X23773900Y11866300D02*
Y11548800D01*
X23931300D01*
G01X24069100D02*
X24167500Y11866300D01*
X24265900Y11548800D01*
G01X24230500Y11659900D02*
X24104500D01*
G01X24482400Y11866300D02*
Y11548800D01*
G01X24391900Y11866300D02*
X24572900D01*
G01X24876000Y11548800D02*
X24718600D01*
Y11866300D01*
X24876000D01*
G01X24813000Y11712800D02*
X24718600D01*
G01X25025600Y11548800D02*
Y11866300D01*
X25104300D01*
X25135800Y11850400D01*
X25159400Y11829300D01*
X25179100Y11797500D01*
X25194900Y11760500D01*
X25198800Y11707500D01*
X25194900Y11654600D01*
X25179100Y11617600D01*
X25159400Y11585800D01*
X25135800Y11564700D01*
X25104300Y11548800D01*
X25025600D01*
G01X22187600Y12183800D02*
Y12501300D01*
X22368600Y12183800D01*
Y12501300D01*
G01X22593000Y12183800D02*
X22561500Y12189100D01*
X22534000Y12210300D01*
X22510300Y12242000D01*
X22494600Y12279000D01*
X22486700Y12321400D01*
Y12363700D01*
X22494600Y12406100D01*
X22510300Y12443100D01*
X22534000Y12474800D01*
X22561500Y12496000D01*
X22593000Y12501300D01*
X22624500Y12496000D01*
X22652000Y12474800D01*
X22675700Y12443100D01*
X22691400Y12406100D01*
X22699300Y12363700D01*
Y12321400D01*
X22691400Y12279000D01*
X22675700Y12242000D01*
X22652000Y12210300D01*
X22624500Y12189100D01*
X22593000Y12183800D01*
G01X22817400D02*
Y12501300D01*
X22998400Y12183800D01*
Y12501300D01*
G01X23171600Y12289600D02*
X23274000D01*
G01X23459000Y12183800D02*
Y12501300D01*
X23553400D01*
X23584900Y12485400D01*
X23608600Y12448400D01*
X23616400Y12406100D01*
X23608600Y12363700D01*
X23588900Y12332000D01*
X23553400Y12316100D01*
X23459000D01*
G01X23773900Y12501300D02*
Y12183800D01*
X23931300D01*
G01X24069100D02*
X24167500Y12501300D01*
X24265900Y12183800D01*
G01X24230500Y12294900D02*
X24104500D01*
G01X24482400Y12501300D02*
Y12183800D01*
G01X24391900Y12501300D02*
X24572900D01*
G01X24876000Y12183800D02*
X24718600D01*
Y12501300D01*
X24876000D01*
G01X24813000Y12347800D02*
X24718600D01*
G01X25025600Y12183800D02*
Y12501300D01*
X25104300D01*
X25135800Y12485400D01*
X25159400Y12464300D01*
X25179100Y12432500D01*
X25194900Y12395500D01*
X25198800Y12342500D01*
X25194900Y12289600D01*
X25179100Y12252600D01*
X25159400Y12220800D01*
X25135800Y12199700D01*
X25104300Y12183800D01*
X25025600D01*
G01X22829200Y12818800D02*
Y13136300D01*
X22923600D01*
X22955100Y13120400D01*
X22978800Y13083400D01*
X22986600Y13041100D01*
X22978800Y12998700D01*
X22959100Y12967000D01*
X22923600Y12951100D01*
X22829200D01*
G01X23144100Y13136300D02*
Y12818800D01*
X23301500D01*
G01X23439300D02*
X23537700Y13136300D01*
X23636100Y12818800D01*
G01X23600700Y12929900D02*
X23474700D01*
G01X23852600Y13136300D02*
Y12818800D01*
G01X23762100Y13136300D02*
X23943100D01*
G01X24246200Y12818800D02*
X24088800D01*
Y13136300D01*
X24246200D01*
G01X24183200Y12982800D02*
X24088800D01*
G01X24395800Y12818800D02*
Y13136300D01*
X24474500D01*
X24506000Y13120400D01*
X24529600Y13099300D01*
X24549300Y13067500D01*
X24565100Y13030500D01*
X24569000Y12977500D01*
X24565100Y12924600D01*
X24549300Y12887600D01*
X24529600Y12855800D01*
X24506000Y12834700D01*
X24474500Y12818800D01*
X24395800D01*
G01X22829200Y13453800D02*
Y13771300D01*
X22923600D01*
X22955100Y13755400D01*
X22978800Y13718400D01*
X22986600Y13676100D01*
X22978800Y13633700D01*
X22959100Y13602000D01*
X22923600Y13586100D01*
X22829200D01*
G01X23144100Y13771300D02*
Y13453800D01*
X23301500D01*
G01X23439300D02*
X23537700Y13771300D01*
X23636100Y13453800D01*
G01X23600700Y13564900D02*
X23474700D01*
G01X23852600Y13771300D02*
Y13453800D01*
G01X23762100Y13771300D02*
X23943100D01*
G01X24246200Y13453800D02*
X24088800D01*
Y13771300D01*
X24246200D01*
G01X24183200Y13617800D02*
X24088800D01*
G01X24395800Y13453800D02*
Y13771300D01*
X24474500D01*
X24506000Y13755400D01*
X24529600Y13734300D01*
X24549300Y13702500D01*
X24565100Y13665500D01*
X24569000Y13612500D01*
X24565100Y13559600D01*
X24549300Y13522600D01*
X24529600Y13490800D01*
X24506000Y13469700D01*
X24474500Y13453800D01*
X24395800D01*
G01X22829200Y14088800D02*
Y14406300D01*
X22923600D01*
X22955100Y14390400D01*
X22978800Y14353400D01*
X22986600Y14311100D01*
X22978800Y14268700D01*
X22959100Y14237000D01*
X22923600Y14221100D01*
X22829200D01*
G01X23144100Y14406300D02*
Y14088800D01*
X23301500D01*
G01X23439300D02*
X23537700Y14406300D01*
X23636100Y14088800D01*
G01X23600700Y14199900D02*
X23474700D01*
G01X23852600Y14406300D02*
Y14088800D01*
G01X23762100Y14406300D02*
X23943100D01*
G01X24246200Y14088800D02*
X24088800D01*
Y14406300D01*
X24246200D01*
G01X24183200Y14252800D02*
X24088800D01*
G01X24395800Y14088800D02*
Y14406300D01*
X24474500D01*
X24506000Y14390400D01*
X24529600Y14369300D01*
X24549300Y14337500D01*
X24565100Y14300500D01*
X24569000Y14247500D01*
X24565100Y14194600D01*
X24549300Y14157600D01*
X24529600Y14125800D01*
X24506000Y14104700D01*
X24474500Y14088800D01*
X24395800D01*
G01X22829200Y14723800D02*
Y15041300D01*
X22923600D01*
X22955100Y15025400D01*
X22978800Y14988400D01*
X22986600Y14946100D01*
X22978800Y14903700D01*
X22959100Y14872000D01*
X22923600Y14856100D01*
X22829200D01*
G01X23144100Y15041300D02*
Y14723800D01*
X23301500D01*
G01X23439300D02*
X23537700Y15041300D01*
X23636100Y14723800D01*
G01X23600700Y14834900D02*
X23474700D01*
G01X23852600Y15041300D02*
Y14723800D01*
G01X23762100Y15041300D02*
X23943100D01*
G01X24246200Y14723800D02*
X24088800D01*
Y15041300D01*
X24246200D01*
G01X24183200Y14887800D02*
X24088800D01*
G01X24395800Y14723800D02*
Y15041300D01*
X24474500D01*
X24506000Y15025400D01*
X24529600Y15004300D01*
X24549300Y14972500D01*
X24565100Y14935500D01*
X24569000Y14882500D01*
X24565100Y14829600D01*
X24549300Y14792600D01*
X24529600Y14760800D01*
X24506000Y14739700D01*
X24474500Y14723800D01*
X24395800D01*
G01X22829200Y15358800D02*
Y15676300D01*
X22923600D01*
X22955100Y15660400D01*
X22978800Y15623400D01*
X22986600Y15581100D01*
X22978800Y15538700D01*
X22959100Y15507000D01*
X22923600Y15491100D01*
X22829200D01*
G01X23144100Y15676300D02*
Y15358800D01*
X23301500D01*
G01X23439300D02*
X23537700Y15676300D01*
X23636100Y15358800D01*
G01X23600700Y15469900D02*
X23474700D01*
G01X23852600Y15676300D02*
Y15358800D01*
G01X23762100Y15676300D02*
X23943100D01*
G01X24246200Y15358800D02*
X24088800D01*
Y15676300D01*
X24246200D01*
G01X24183200Y15522800D02*
X24088800D01*
G01X24395800Y15358800D02*
Y15676300D01*
X24474500D01*
X24506000Y15660400D01*
X24529600Y15639300D01*
X24549300Y15607500D01*
X24565100Y15570500D01*
X24569000Y15517500D01*
X24565100Y15464600D01*
X24549300Y15427600D01*
X24529600Y15395800D01*
X24506000Y15374700D01*
X24474500Y15358800D01*
X24395800D01*
G01X22829200Y15993800D02*
Y16311300D01*
X22923600D01*
X22955100Y16295400D01*
X22978800Y16258400D01*
X22986600Y16216100D01*
X22978800Y16173700D01*
X22959100Y16142000D01*
X22923600Y16126100D01*
X22829200D01*
G01X23144100Y16311300D02*
Y15993800D01*
X23301500D01*
G01X23439300D02*
X23537700Y16311300D01*
X23636100Y15993800D01*
G01X23600700Y16104900D02*
X23474700D01*
G01X23852600Y16311300D02*
Y15993800D01*
G01X23762100Y16311300D02*
X23943100D01*
G01X24246200Y15993800D02*
X24088800D01*
Y16311300D01*
X24246200D01*
G01X24183200Y16157800D02*
X24088800D01*
G01X24395800Y15993800D02*
Y16311300D01*
X24474500D01*
X24506000Y16295400D01*
X24529600Y16274300D01*
X24549300Y16242500D01*
X24565100Y16205500D01*
X24569000Y16152500D01*
X24565100Y16099600D01*
X24549300Y16062600D01*
X24529600Y16030800D01*
X24506000Y16009700D01*
X24474500Y15993800D01*
X24395800D01*
G01X22829200Y16628800D02*
Y16946300D01*
X22923600D01*
X22955100Y16930400D01*
X22978800Y16893400D01*
X22986600Y16851100D01*
X22978800Y16808700D01*
X22959100Y16777000D01*
X22923600Y16761100D01*
X22829200D01*
G01X23144100Y16946300D02*
Y16628800D01*
X23301500D01*
G01X23439300D02*
X23537700Y16946300D01*
X23636100Y16628800D01*
G01X23600700Y16739900D02*
X23474700D01*
G01X23852600Y16946300D02*
Y16628800D01*
G01X23762100Y16946300D02*
X23943100D01*
G01X24246200Y16628800D02*
X24088800D01*
Y16946300D01*
X24246200D01*
G01X24183200Y16792800D02*
X24088800D01*
G01X24395800Y16628800D02*
Y16946300D01*
X24474500D01*
X24506000Y16930400D01*
X24529600Y16909300D01*
X24549300Y16877500D01*
X24565100Y16840500D01*
X24569000Y16787500D01*
X24565100Y16734600D01*
X24549300Y16697600D01*
X24529600Y16665800D01*
X24506000Y16644700D01*
X24474500Y16628800D01*
X24395800D01*
G01X25309100Y17105000D02*
Y10755000D01*
G01X25978300Y15993800D02*
Y16311300D01*
X25931100Y16247800D01*
G01Y15993800D02*
X26025500D01*
G01X26285300D02*
X26293200Y16062600D01*
X26305000Y16120800D01*
X26320800Y16173700D01*
X26340400Y16231900D01*
X26371900Y16311300D01*
X26214500D01*
G01X26541200Y16030800D02*
X26568700Y16004400D01*
X26600200Y15993800D01*
X26631700Y16004400D01*
X26659300Y16036100D01*
X26679000Y16083800D01*
X26686800Y16131400D01*
Y16189600D01*
X26679000Y16237200D01*
X26659300Y16279500D01*
X26635700Y16300700D01*
X26608100Y16311300D01*
X26576600Y16300700D01*
X26553000Y16279500D01*
X26537200Y16247800D01*
X26529400Y16205500D01*
X26537200Y16168400D01*
X26556900Y16131400D01*
X26580500Y16110200D01*
X26608100Y16104900D01*
X26639600Y16115500D01*
X26663200Y16142000D01*
X26686800Y16189600D01*
G01X25978300Y16628800D02*
X25946800Y16634100D01*
X25919300Y16655300D01*
X25895600Y16687000D01*
X25879900Y16724000D01*
X25872000Y16766400D01*
Y16808700D01*
X25879900Y16851100D01*
X25895600Y16888100D01*
X25919300Y16919800D01*
X25946800Y16941000D01*
X25978300Y16946300D01*
X26009800Y16941000D01*
X26037300Y16919800D01*
X26061000Y16888100D01*
X26076700Y16851100D01*
X26084600Y16808700D01*
Y16766400D01*
X26076700Y16724000D01*
X26061000Y16687000D01*
X26037300Y16655300D01*
X26009800Y16634100D01*
X25978300Y16628800D01*
G01X26009800Y16713500D02*
X26057000Y16628800D01*
G01X26293200Y16946300D02*
Y16628800D01*
G01X26202700Y16946300D02*
X26383700D01*
G01X26608100Y16628800D02*
Y16771700D01*
X26529400Y16946300D01*
G01X26686800D02*
X26608100Y16771700D01*
G01X26226300Y10950800D02*
X26253800Y10924400D01*
X26285300Y10913800D01*
X26316800Y10924400D01*
X26344400Y10956100D01*
X26364100Y11003800D01*
X26371900Y11051400D01*
Y11109600D01*
X26364100Y11157200D01*
X26344400Y11199500D01*
X26320800Y11220700D01*
X26293200Y11231300D01*
X26261700Y11220700D01*
X26238100Y11199500D01*
X26222300Y11167800D01*
X26214500Y11125500D01*
X26222300Y11088400D01*
X26242000Y11051400D01*
X26265600Y11030200D01*
X26293200Y11024900D01*
X26324700Y11035500D01*
X26348300Y11062000D01*
X26371900Y11109600D01*
G01X26340400Y11548800D02*
Y11866300D01*
X26194800Y11638800D01*
X26391600D01*
G01X26218400Y12448400D02*
X26242000Y12480100D01*
X26269600Y12496000D01*
X26301100Y12501300D01*
X26340400Y12490700D01*
X26368000Y12464300D01*
X26375900Y12432500D01*
X26371900Y12400800D01*
X26356200Y12374300D01*
X26277500Y12321400D01*
X26242000Y12284300D01*
X26218400Y12231400D01*
X26210500Y12183800D01*
X26375900D01*
G01X26218400Y13083400D02*
X26242000Y13115100D01*
X26269600Y13131000D01*
X26301100Y13136300D01*
X26340400Y13125700D01*
X26368000Y13099300D01*
X26375900Y13067500D01*
X26371900Y13035800D01*
X26356200Y13009300D01*
X26277500Y12956400D01*
X26242000Y12919300D01*
X26218400Y12866400D01*
X26210500Y12818800D01*
X26375900D01*
G01X26135700Y13453800D02*
Y13771300D01*
X26088500Y13707800D01*
G01Y13453800D02*
X26182900D01*
G01X26497800D02*
Y13771300D01*
X26352200Y13543800D01*
X26549000D01*
G01X26135700Y14088800D02*
Y14406300D01*
X26088500Y14342800D01*
G01Y14088800D02*
X26182900D01*
G01X26442700D02*
X26450600Y14157600D01*
X26462400Y14215800D01*
X26478200Y14268700D01*
X26497800Y14326900D01*
X26529300Y14406300D01*
X26371900D01*
G01X26060900Y14988400D02*
X26084500Y15020100D01*
X26112100Y15036000D01*
X26143600Y15041300D01*
X26182900Y15030700D01*
X26210500Y15004300D01*
X26218400Y14972500D01*
X26214400Y14940800D01*
X26198700Y14914300D01*
X26120000Y14861400D01*
X26084500Y14824300D01*
X26060900Y14771400D01*
X26053000Y14723800D01*
X26218400D01*
G01X26497800D02*
Y15041300D01*
X26352200Y14813800D01*
X26549000D01*
G01X26340400Y15358800D02*
Y15676300D01*
X26194800Y15448800D01*
X26391600D01*
M02*
