G04 ================== begin FILE IDENTIFICATION RECORD ==================*
G04 Layout Name:  G:/Work/io/design/pcb/io_4di_4aic_dbdoctor.brd*
G04 Film Name:    SILKSCREEN_BOTTOM*
G04 File Format:  Gerber RS274X*
G04 File Origin:  Cadence Allegro 17.2-P019*
G04 Origin Date:  Sat May 19 21:23:20 2018*
G04 *
G04 Layer:  MANUFACTURING/AUTOSILK_BOTTOM*
G04 Layer:  BOARD GEOMETRY/SILKSCREEN_BOTTOM*
G04 Layer:  BOARD GEOMETRY/OUTLINE*
G04 *
G04 Offset:    (0.000 0.000)*
G04 Mirror:    No*
G04 Mode:      Positive*
G04 Rotation:  0*
G04 FullContactRelief:  No*
G04 UndefLineWidth:     0.200*
G04 ================== end FILE IDENTIFICATION RECORD ====================*
%FSLAX25Y25*MOMM*%
%IR0*IPPOS*OFA0.00000B0.00000*MIA0B0*SFA1.00000B1.00000*%
%ADD10C,.2*%
G75*
%LPD*%
G75*
G54D10*
G01X310000Y4340000D02*
Y4140000D01*
X640000D01*
Y4340000D01*
X310000D01*
G01X280000Y4320000D02*
Y4160000D01*
G01X920000Y4600000D02*
Y4420000D01*
X1220000D01*
Y4600000D01*
X920000D01*
G01X880000Y4590000D02*
Y4430000D01*
G01X920000Y4830000D02*
Y4650000D01*
X1220000D01*
Y4830000D01*
X920000D01*
G01X880000Y4820000D02*
Y4660000D01*
G01X1220000Y1070000D02*
X1020000D01*
Y740000D01*
X1220000D01*
Y1070000D01*
G01X1200000Y1100000D02*
X1040000D01*
G01X1220000Y3020000D02*
X1020000D01*
Y2690000D01*
X1220000D01*
Y3020000D01*
G01X1200000Y3050000D02*
X1040000D01*
G01X1690000Y270000D02*
X1860000D01*
G01X1750000Y4820000D02*
X1550000D01*
Y4490000D01*
X1750000D01*
Y4820000D01*
G01X1730000Y4850000D02*
X1570000D01*
G01Y5010000D02*
X1730000D01*
G01X1550000Y5040000D02*
X1750000D01*
Y5370000D01*
X1550000D01*
Y5040000D01*
G01X2140000Y750000D02*
Y950000D01*
X1810000D01*
Y750000D01*
X2140000D01*
G01Y980000D02*
Y1180000D01*
X1810000D01*
Y980000D01*
X2140000D01*
G01Y1440000D02*
Y1640000D01*
X1810000D01*
Y1440000D01*
X2140000D01*
G01Y1210000D02*
Y1410000D01*
X1810000D01*
Y1210000D01*
X2140000D01*
G01X2200000Y1700000D02*
Y1900000D01*
X1870000D01*
Y1700000D01*
X2200000D01*
G01X2180000Y2100000D02*
Y2300000D01*
X1850000D01*
Y2100000D01*
X2180000D01*
G01X1870000Y2520000D02*
Y2340000D01*
X2170000D01*
Y2520000D01*
X1870000D01*
G01X1830000Y2510000D02*
Y2350000D01*
G01X2140000Y2700000D02*
Y2900000D01*
X1810000D01*
Y2700000D01*
X2140000D01*
G01Y2930000D02*
Y3130000D01*
X1810000D01*
Y2930000D01*
X2140000D01*
G01Y3160000D02*
Y3360000D01*
X1810000D01*
Y3160000D01*
X2140000D01*
G01Y3390000D02*
Y3590000D01*
X1810000D01*
Y3390000D01*
X2140000D01*
G01X1820000Y4470000D02*
Y4310000D01*
G01X1850000Y4490000D02*
Y4290000D01*
X2180000D01*
Y4490000D01*
X1850000D01*
G01X2170000Y770000D02*
Y930000D01*
G01X2420000Y1110000D02*
X2220000D01*
Y780000D01*
X2420000D01*
Y1110000D01*
G01X2170000Y1000000D02*
Y1160000D01*
G01X2400000Y1140000D02*
X2240000D01*
G01X2170000Y1460000D02*
Y1620000D01*
G01Y1230000D02*
Y1390000D01*
G01X2240000Y1250000D02*
X2400000D01*
G01X2220000Y1280000D02*
X2420000D01*
Y1610000D01*
X2220000D01*
Y1280000D01*
G01X2230000Y1720000D02*
Y1880000D01*
G01X2210000Y2120000D02*
Y2280000D01*
G01X2170000Y2720000D02*
Y2880000D01*
G01Y2950000D02*
Y3110000D01*
G01X2420000Y3150000D02*
X2220000D01*
Y2820000D01*
X2420000D01*
Y3150000D01*
G01X2170000Y3180000D02*
Y3340000D01*
G01X2240000Y3200000D02*
X2400000D01*
G01X2220000Y3230000D02*
X2420000D01*
Y3560000D01*
X2220000D01*
Y3230000D01*
G01X2400000Y3180000D02*
X2240000D01*
G01X2170000Y3410000D02*
Y3570000D01*
G01X2270000Y4460000D02*
Y4300000D01*
G01X2610000Y2560000D02*
Y2760000D01*
X2280000D01*
Y2560000D01*
X2610000D01*
G01X2300000Y4480000D02*
Y4280000D01*
X2630000D01*
Y4480000D01*
X2300000D01*
G01X2800000Y340000D02*
Y100000D01*
G01X2670000Y220000D02*
X2930000D01*
G01X2640000Y2580000D02*
Y2740000D01*
G01X3320000Y1490000D02*
Y1690000D01*
X2990000D01*
Y1490000D01*
X3320000D01*
G01X3030000Y2940000D02*
X3190000D01*
G01X3010000Y2970000D02*
X3210000D01*
Y3300000D01*
X3010000D01*
Y2970000D01*
G01X3110000Y1400000D02*
Y1200000D01*
X3440000D01*
Y1400000D01*
X3110000D01*
G01X3080000Y1380000D02*
Y1220000D01*
G01X3350000Y1510000D02*
Y1670000D01*
G01X3420000Y2880000D02*
Y2720000D01*
G01X3450000Y2900000D02*
Y2700000D01*
X3780000D01*
Y2900000D01*
X3450000D01*
G01X3820000Y1020000D02*
X3620000D01*
Y690000D01*
X3820000D01*
Y1020000D01*
G01X3800000Y1050000D02*
X3640000D01*
G01X3660000Y2380000D02*
Y2220000D01*
G01X3690000Y2400000D02*
Y2200000D01*
X4020000D01*
Y2400000D01*
X3690000D01*
G01X3660000Y2650000D02*
Y2490000D01*
G01X3690000Y2670000D02*
Y2470000D01*
X4020000D01*
Y2670000D01*
X3690000D01*
G01X4040000Y4510000D02*
Y4710000D01*
X3710000D01*
Y4510000D01*
X4040000D01*
G01Y4730000D02*
Y4930000D01*
X3710000D01*
Y4730000D01*
X4040000D01*
G01Y5170000D02*
Y5370000D01*
X3710000D01*
Y5170000D01*
X4040000D01*
G01Y4950000D02*
Y5150000D01*
X3710000D01*
Y4950000D01*
X4040000D01*
G01X4090000Y1360000D02*
Y1200000D01*
G01X4120000Y1380000D02*
Y1180000D01*
X4450000D01*
Y1380000D01*
X4120000D01*
G01X4230000Y3540000D02*
Y3740000D01*
X3900000D01*
Y3540000D01*
X4230000D01*
G01Y3740000D02*
Y3940000D01*
X3900000D01*
Y3740000D01*
X4230000D01*
G01Y4140000D02*
Y4340000D01*
X3900000D01*
Y4140000D01*
X4230000D01*
G01Y3940000D02*
Y4140000D01*
X3900000D01*
Y3940000D01*
X4230000D01*
G01X4070000Y4530000D02*
Y4690000D01*
G01Y4750000D02*
Y4910000D01*
G01Y5190000D02*
Y5350000D01*
G01Y4970000D02*
Y5130000D01*
G01X4260000Y3560000D02*
Y3720000D01*
G01Y3760000D02*
Y3920000D01*
G01Y3960000D02*
Y4120000D01*
G01Y4160000D02*
Y4320000D01*
G01X4660000Y3750000D02*
X4820000D01*
G01X4640000Y3780000D02*
X4840000D01*
Y4110000D01*
X4640000D01*
Y3780000D01*
G01X4690000Y90000D02*
X4910000D01*
Y500000D01*
X4690000D01*
Y90000D01*
G01X4700000Y50000D02*
X4900000D01*
G01X5060000Y4100000D02*
X4880000D01*
Y3800000D01*
X5060000D01*
Y4100000D01*
G01X5050000Y4140000D02*
X4890000D01*
G01X5090000Y4580000D02*
Y4780000D01*
X4760000D01*
Y4580000D01*
X5090000D01*
G01Y4830000D02*
Y5030000D01*
X4760000D01*
Y4830000D01*
X5090000D01*
G01Y5090000D02*
Y5290000D01*
X4760000D01*
Y5090000D01*
X5090000D01*
G01Y5340000D02*
Y5540000D01*
X4760000D01*
Y5340000D01*
X5090000D01*
G01X5120000Y1360000D02*
X5280000D01*
G01X5100000Y1390000D02*
X5300000D01*
Y1720000D01*
X5100000D01*
Y1390000D01*
G01X5300000Y4110000D02*
X5160000D01*
Y4010000D01*
X5120000D01*
Y3730000D01*
X5160000D01*
Y3630000D01*
X5300000D01*
Y3730000D01*
X5340000D01*
Y4010000D01*
X5300000D01*
Y4110000D01*
G01X5150000Y3830000D02*
X5310000D01*
X5230000Y3910000D01*
X5150000Y3830000D01*
G01X5310000Y3920000D02*
X5150000D01*
G01X5120000Y4600000D02*
Y4760000D01*
G01Y4850000D02*
Y5010000D01*
G01Y5110000D02*
Y5270000D01*
G01Y5360000D02*
Y5520000D01*
G01X80000Y0D02*
X5740000D01*
G03X5820000Y80000I0J80000D01*
G01Y6870000D01*
G03X5740000Y6950000I-80000J0D01*
G01X80000D01*
G03X0Y6870000I0J-80000D01*
G01Y80000D01*
G03X80000Y0I80000J0D01*
G01X633900Y3960000D02*
Y4087000D01*
X593700D01*
X580800Y4080600D01*
X572800Y4072200D01*
X569600Y4055200D01*
X572800Y4038300D01*
X582400Y4027700D01*
X593700Y4021400D01*
X633900D01*
G01X593700D02*
X569600Y3960000D01*
G01X472300D02*
Y4087000D01*
X491600Y4061600D01*
G01Y3960000D02*
X453000D01*
G01X342800D02*
X331500Y3962100D01*
X318600Y3968500D01*
X310600Y3979000D01*
X307400Y3993900D01*
X310600Y4008700D01*
X320200Y4021400D01*
X334700Y4027700D01*
X350800D01*
X360400Y4032000D01*
X368500Y4042500D01*
X371700Y4057400D01*
X366900Y4072200D01*
X355600Y4082800D01*
X342800Y4087000D01*
X329900Y4082800D01*
X318600Y4072200D01*
X313800Y4057400D01*
X317000Y4042500D01*
X325100Y4032000D01*
X334700Y4027700D01*
X350800D01*
X365300Y4021400D01*
X374900Y4008700D01*
X378100Y3993900D01*
X374900Y3979000D01*
X366900Y3968500D01*
X354000Y3962100D01*
X342800Y3960000D01*
G01X1372300Y5575800D02*
X1362700Y5588500D01*
X1351400Y5594900D01*
X1338500Y5597000D01*
X1322400Y5592800D01*
X1311200Y5582200D01*
X1308000Y5569500D01*
X1309600Y5556800D01*
X1316000Y5546200D01*
X1348200Y5525000D01*
X1362700Y5510200D01*
X1372300Y5489000D01*
X1375500Y5470000D01*
X1308000D01*
G01X1212300Y5597000D02*
X1225100Y5592800D01*
X1234800Y5582200D01*
X1241200Y5569500D01*
X1246000Y5552500D01*
X1247600Y5533500D01*
X1246000Y5514400D01*
X1241200Y5497500D01*
X1234800Y5484800D01*
X1225100Y5474200D01*
X1212300Y5470000D01*
X1199400Y5474200D01*
X1189700Y5484800D01*
X1183300Y5497500D01*
X1178500Y5514400D01*
X1176900Y5533500D01*
X1178500Y5552500D01*
X1183300Y5569500D01*
X1189700Y5582200D01*
X1199400Y5592800D01*
X1212300Y5597000D01*
G01X1082800Y5470000D02*
Y5597000D01*
X1102100Y5571600D01*
G01Y5470000D02*
X1063500D01*
G01X953300D02*
X942000Y5472100D01*
X929100Y5478500D01*
X921100Y5489000D01*
X917900Y5503900D01*
X921100Y5518700D01*
X930700Y5531400D01*
X945200Y5537700D01*
X961300D01*
X970900Y5542000D01*
X979000Y5552500D01*
X982200Y5567400D01*
X977400Y5582200D01*
X966100Y5592800D01*
X953300Y5597000D01*
X940400Y5592800D01*
X929100Y5582200D01*
X924300Y5567400D01*
X927500Y5552500D01*
X935600Y5542000D01*
X945200Y5537700D01*
X961300D01*
X975800Y5531400D01*
X985400Y5518700D01*
X988600Y5503900D01*
X985400Y5489000D01*
X977400Y5478500D01*
X964500Y5472100D01*
X953300Y5470000D01*
G01X823800Y5597000D02*
X836600Y5592800D01*
X846300Y5582200D01*
X852700Y5569500D01*
X857500Y5552500D01*
X859100Y5533500D01*
X857500Y5514400D01*
X852700Y5497500D01*
X846300Y5484800D01*
X836600Y5474200D01*
X823800Y5470000D01*
X810900Y5474200D01*
X801200Y5484800D01*
X794800Y5497500D01*
X790000Y5514400D01*
X788400Y5533500D01*
X790000Y5552500D01*
X794800Y5569500D01*
X801200Y5582200D01*
X810900Y5592800D01*
X823800Y5597000D01*
G01X729600Y5489000D02*
X720000Y5478500D01*
X708700Y5472100D01*
X694300Y5470000D01*
X679800Y5474200D01*
X668500Y5482700D01*
X660500Y5497500D01*
X658900Y5514400D01*
X662100Y5531400D01*
X670100Y5542000D01*
X681400Y5550400D01*
X692600Y5552500D01*
X703900Y5550400D01*
X718400Y5542000D01*
X713600Y5597000D01*
X670100D01*
G01X564800Y5470000D02*
Y5597000D01*
X584100Y5571600D01*
G01Y5470000D02*
X545500D01*
G01X462600Y5484800D02*
X451300Y5474200D01*
X438500Y5470000D01*
X425600Y5474200D01*
X414300Y5486900D01*
X406300Y5506000D01*
X403100Y5525000D01*
Y5548300D01*
X406300Y5567400D01*
X414300Y5584300D01*
X424000Y5592800D01*
X435300Y5597000D01*
X448100Y5592800D01*
X457800Y5584300D01*
X464200Y5571600D01*
X467400Y5554700D01*
X464200Y5539900D01*
X456200Y5525000D01*
X446500Y5516600D01*
X435300Y5514400D01*
X422400Y5518700D01*
X412700Y5529300D01*
X403100Y5548300D01*
G01X862000Y5847000D02*
X821800Y5720000D01*
X781500Y5847000D01*
G01X692300Y5720000D02*
Y5847000D01*
X711600Y5821600D01*
G01Y5720000D02*
X673000D01*
G01X562800Y5715800D02*
X566000Y5717900D01*
Y5722100D01*
X562800Y5724200D01*
X559500Y5722100D01*
Y5717900D01*
X562800Y5715800D01*
G01X433300Y5720000D02*
Y5847000D01*
X452600Y5821600D01*
G01Y5720000D02*
X414000D01*
G01X1365500Y5976900D02*
X1352700Y5966300D01*
X1338200Y5960000D01*
X1325300D01*
X1312400Y5966300D01*
X1302800Y5976900D01*
X1298000Y5991800D01*
X1301200Y6006600D01*
X1309200Y6019300D01*
X1323700Y6027700D01*
X1343000Y6032000D01*
X1354300Y6040400D01*
X1359100Y6055200D01*
X1355900Y6070100D01*
X1347800Y6080600D01*
X1336600Y6087000D01*
X1325300D01*
X1314100Y6082800D01*
X1304400Y6072200D01*
G01X1236000Y5960000D02*
Y6087000D01*
G01X1168500D02*
Y5960000D01*
G01Y6023500D02*
X1236000D01*
G01X1093700Y6002300D02*
X1051800D01*
G01X973800Y6087000D02*
X912700D01*
X973800Y5960000D01*
X912700D01*
G01X834700Y6002300D02*
X792800D01*
G01X684300Y6087000D02*
X697100Y6082800D01*
X706800Y6072200D01*
X713200Y6059500D01*
X718000Y6042500D01*
X719600Y6023500D01*
X718000Y6004400D01*
X713200Y5987500D01*
X706800Y5974800D01*
X697100Y5964200D01*
X684300Y5960000D01*
X671400Y5964200D01*
X661700Y5974800D01*
X655300Y5987500D01*
X650500Y6004400D01*
X648900Y6023500D01*
X650500Y6042500D01*
X655300Y6059500D01*
X661700Y6072200D01*
X671400Y6082800D01*
X684300Y6087000D01*
G01X554800D02*
X567600Y6082800D01*
X577300Y6072200D01*
X583700Y6059500D01*
X588500Y6042500D01*
X590100Y6023500D01*
X588500Y6004400D01*
X583700Y5987500D01*
X577300Y5974800D01*
X567600Y5964200D01*
X554800Y5960000D01*
X541900Y5964200D01*
X532200Y5974800D01*
X525800Y5987500D01*
X521000Y6004400D01*
X519400Y6023500D01*
X521000Y6042500D01*
X525800Y6059500D01*
X532200Y6072200D01*
X541900Y6082800D01*
X554800Y6087000D01*
G01X455800Y6065800D02*
X446200Y6078500D01*
X434900Y6084900D01*
X422000Y6087000D01*
X405900Y6082800D01*
X394700Y6072200D01*
X391500Y6059500D01*
X393100Y6046800D01*
X399500Y6036200D01*
X431700Y6015000D01*
X446200Y6000200D01*
X455800Y5979000D01*
X459000Y5960000D01*
X391500D01*
G01X826400Y846400D02*
X836000Y852800D01*
X847300Y857000D01*
X860100D01*
X874600Y850600D01*
X885900Y840100D01*
X893900Y827400D01*
X900400Y806200D01*
X902000Y787100D01*
X898700Y768100D01*
X893900Y755400D01*
X884300Y742700D01*
X873000Y734200D01*
X861800Y730000D01*
X850500D01*
X839200Y734200D01*
X829600Y740600D01*
X821500Y749000D01*
G01X732300Y730000D02*
Y857000D01*
X751600Y831600D01*
G01Y730000D02*
X713000D01*
G01X606000D02*
X602800Y757500D01*
X597900Y780800D01*
X591500Y802000D01*
X583400Y825200D01*
X570600Y857000D01*
X634900D01*
G01X773900Y4577000D02*
Y4450000D01*
X709600D01*
G01X642800Y4502900D02*
X631600Y4517700D01*
X621900Y4526200D01*
X609000Y4530400D01*
X597800Y4526200D01*
X589700Y4517700D01*
X583300Y4505000D01*
X581700Y4490200D01*
X583300Y4477500D01*
X589700Y4464800D01*
X599400Y4454200D01*
X610600Y4450000D01*
X623500Y4454200D01*
X634800Y4466900D01*
X641200Y4486000D01*
X642800Y4507100D01*
X639600Y4534700D01*
X634800Y4549500D01*
X626700Y4564300D01*
X615500Y4574900D01*
X604200Y4577000D01*
X592900Y4572800D01*
X584900Y4562200D01*
G01X773900Y4817000D02*
Y4690000D01*
X709600D01*
G01X647600Y4709000D02*
X638000Y4698500D01*
X626700Y4692100D01*
X612300Y4690000D01*
X597800Y4694200D01*
X586500Y4702700D01*
X578500Y4717500D01*
X576900Y4734400D01*
X580100Y4751400D01*
X588100Y4762000D01*
X599400Y4770400D01*
X610600Y4772500D01*
X621900Y4770400D01*
X636400Y4762000D01*
X631600Y4817000D01*
X588100D01*
G01X1166400Y3226400D02*
X1176000Y3232800D01*
X1187300Y3237000D01*
X1200100D01*
X1214600Y3230600D01*
X1225900Y3220100D01*
X1233900Y3207400D01*
X1240400Y3186200D01*
X1242000Y3167100D01*
X1238700Y3148100D01*
X1233900Y3135400D01*
X1224300Y3122700D01*
X1213000Y3114200D01*
X1201800Y3110000D01*
X1190500D01*
X1179200Y3114200D01*
X1169600Y3120600D01*
X1161500Y3129000D01*
G01X1072300Y3110000D02*
Y3237000D01*
X1091600Y3211600D01*
G01Y3110000D02*
X1053000D01*
G01X923400D02*
Y3237000D01*
X983000Y3146000D01*
X902500D01*
G01X1773900Y1500000D02*
Y1627000D01*
X1733700D01*
X1720800Y1620600D01*
X1712800Y1612200D01*
X1709600Y1595200D01*
X1712800Y1578300D01*
X1722400Y1567700D01*
X1733700Y1561400D01*
X1773900D01*
G01X1733700D02*
X1709600Y1500000D01*
G01X1612300D02*
Y1627000D01*
X1631600Y1601600D01*
G01Y1500000D02*
X1593000D01*
G01X1513300Y1605800D02*
X1503700Y1618500D01*
X1492400Y1624900D01*
X1479500Y1627000D01*
X1463400Y1622800D01*
X1452200Y1612200D01*
X1449000Y1599500D01*
X1450600Y1586800D01*
X1457000Y1576200D01*
X1489200Y1555000D01*
X1503700Y1540200D01*
X1513300Y1519000D01*
X1516500Y1500000D01*
X1449000D01*
G01X1526500Y6522100D02*
Y6489900D01*
X1564600D01*
X1577300Y6499600D01*
X1585800Y6510800D01*
X1590000Y6526900D01*
X1585800Y6543000D01*
X1577300Y6554300D01*
X1564600Y6563900D01*
X1549800Y6570400D01*
X1532900Y6573600D01*
X1518000D01*
X1505300Y6570400D01*
X1490500Y6563900D01*
X1477800Y6554300D01*
X1469400Y6544600D01*
X1463000Y6531800D01*
Y6520500D01*
X1467200Y6507600D01*
X1475700Y6498000D01*
G01X1590000Y6439200D02*
X1463000D01*
X1590000Y6365300D01*
X1463000D01*
G01X1590000Y6308100D02*
X1463000D01*
Y6276000D01*
X1469400Y6263100D01*
X1477800Y6253400D01*
X1490500Y6245400D01*
X1505300Y6239000D01*
X1526500Y6237400D01*
X1547700Y6239000D01*
X1562500Y6245400D01*
X1575200Y6253400D01*
X1583700Y6263100D01*
X1590000Y6276000D01*
Y6308100D01*
G01X1311000Y6577100D02*
X1321500Y6567500D01*
X1327900Y6556200D01*
X1330000Y6541800D01*
X1325800Y6527300D01*
X1317300Y6516000D01*
X1302500Y6508000D01*
X1285600Y6506400D01*
X1268600Y6509600D01*
X1258000Y6517600D01*
X1249600Y6528900D01*
X1247500Y6540100D01*
X1249600Y6551400D01*
X1258000Y6565900D01*
X1203000Y6561100D01*
Y6517600D01*
G01Y6452500D02*
X1330000Y6412300D01*
X1203000Y6372000D01*
G01X1740300Y950000D02*
Y1028700D01*
X1715900D01*
X1708100Y1024800D01*
X1703300Y1019500D01*
X1701300Y1009000D01*
X1703300Y998500D01*
X1709100Y992000D01*
X1715900Y988000D01*
X1740300D01*
G01X1715900D02*
X1701300Y950000D01*
G01X1642100D02*
Y1028700D01*
X1653800Y1013000D01*
G01Y950000D02*
X1630400D01*
G01X1551700D02*
Y1028700D01*
X1587700Y972300D01*
X1539100D01*
G01X1730300Y1210000D02*
Y1288700D01*
X1705900D01*
X1698100Y1284800D01*
X1693300Y1279500D01*
X1691300Y1269000D01*
X1693300Y1258500D01*
X1699100Y1252000D01*
X1705900Y1248000D01*
X1730300D01*
G01X1705900D02*
X1691300Y1210000D01*
G01X1632100D02*
Y1288700D01*
X1643800Y1273000D01*
G01Y1210000D02*
X1620400D01*
G01X1553400Y1288700D02*
X1561200Y1286100D01*
X1567000Y1279500D01*
X1570900Y1271600D01*
X1573800Y1261200D01*
X1574800Y1249300D01*
X1573800Y1237500D01*
X1570900Y1227100D01*
X1567000Y1219200D01*
X1561200Y1212600D01*
X1553400Y1210000D01*
X1545600Y1212600D01*
X1539800Y1219200D01*
X1535900Y1227100D01*
X1533000Y1237500D01*
X1532000Y1249300D01*
X1533000Y1261200D01*
X1535900Y1271600D01*
X1539800Y1279500D01*
X1545600Y1286100D01*
X1553400Y1288700D01*
G01X1686400Y1866400D02*
X1696000Y1872800D01*
X1707300Y1877000D01*
X1720100D01*
X1734600Y1870600D01*
X1745900Y1860100D01*
X1753900Y1847400D01*
X1760400Y1826200D01*
X1762000Y1807100D01*
X1758700Y1788100D01*
X1753900Y1775400D01*
X1744300Y1762700D01*
X1733000Y1754200D01*
X1721800Y1750000D01*
X1710500D01*
X1699200Y1754200D01*
X1689600Y1760600D01*
X1681500Y1769000D01*
G01X1627600Y1775400D02*
X1618000Y1760600D01*
X1605100Y1752100D01*
X1590600Y1750000D01*
X1577800Y1752100D01*
X1564900Y1762700D01*
X1556900Y1775400D01*
X1555300Y1788100D01*
X1558500Y1802900D01*
X1569700Y1813500D01*
X1581000Y1817700D01*
X1595500D01*
G01X1581000D02*
X1571300Y1824100D01*
X1563300Y1834700D01*
X1560100Y1847400D01*
X1563300Y1860100D01*
X1571300Y1870600D01*
X1585800Y1877000D01*
X1600300Y1874900D01*
X1614800Y1866400D01*
G01X1676400Y2246400D02*
X1686000Y2252800D01*
X1697300Y2257000D01*
X1710100D01*
X1724600Y2250600D01*
X1735900Y2240100D01*
X1743900Y2227400D01*
X1750400Y2206200D01*
X1752000Y2187100D01*
X1748700Y2168100D01*
X1743900Y2155400D01*
X1734300Y2142700D01*
X1723000Y2134200D01*
X1711800Y2130000D01*
X1700500D01*
X1689200Y2134200D01*
X1679600Y2140600D01*
X1671500Y2149000D01*
G01X1617600D02*
X1608000Y2138500D01*
X1596700Y2132100D01*
X1582300Y2130000D01*
X1567800Y2134200D01*
X1556500Y2142700D01*
X1548500Y2157500D01*
X1546900Y2174400D01*
X1550100Y2191400D01*
X1558100Y2202000D01*
X1569400Y2210400D01*
X1580600Y2212500D01*
X1591900Y2210400D01*
X1606400Y2202000D01*
X1601600Y2257000D01*
X1558100D01*
G01X1743900Y2447000D02*
Y2320000D01*
X1679600D01*
G01X1612800Y2425800D02*
X1603200Y2438500D01*
X1591900Y2444900D01*
X1579000Y2447000D01*
X1562900Y2442800D01*
X1551700Y2432200D01*
X1548500Y2419500D01*
X1550100Y2406800D01*
X1556500Y2396200D01*
X1588700Y2375000D01*
X1603200Y2360200D01*
X1612800Y2339000D01*
X1616000Y2320000D01*
X1548500D01*
G01X1730300Y2650000D02*
Y2728700D01*
X1705900D01*
X1698100Y2724800D01*
X1693300Y2719500D01*
X1691300Y2709000D01*
X1693300Y2698500D01*
X1699100Y2692000D01*
X1705900Y2688000D01*
X1730300D01*
G01X1705900D02*
X1691300Y2650000D01*
G01X1650600Y2682800D02*
X1643800Y2692000D01*
X1637900Y2697200D01*
X1630200Y2699800D01*
X1623300Y2697200D01*
X1618500Y2692000D01*
X1614600Y2684100D01*
X1613600Y2674900D01*
X1614600Y2667100D01*
X1618500Y2659200D01*
X1624300Y2652600D01*
X1631100Y2650000D01*
X1638900Y2652600D01*
X1645700Y2660500D01*
X1649600Y2672300D01*
X1650600Y2685400D01*
X1648600Y2702500D01*
X1645700Y2711600D01*
X1640900Y2720800D01*
X1634000Y2727400D01*
X1627200Y2728700D01*
X1620400Y2726100D01*
X1615600Y2719500D01*
G01X1720300Y2900000D02*
Y2978700D01*
X1695900D01*
X1688100Y2974800D01*
X1683300Y2969500D01*
X1681300Y2959000D01*
X1683300Y2948500D01*
X1689100Y2942000D01*
X1695900Y2938000D01*
X1720300D01*
G01X1695900D02*
X1681300Y2900000D01*
G01X1624000D02*
X1622100Y2917100D01*
X1619200Y2931500D01*
X1615300Y2944600D01*
X1610400Y2959000D01*
X1602600Y2978700D01*
X1641600D01*
G01X1720300Y3170000D02*
Y3248700D01*
X1695900D01*
X1688100Y3244800D01*
X1683300Y3239500D01*
X1681300Y3229000D01*
X1683300Y3218500D01*
X1689100Y3212000D01*
X1695900Y3208000D01*
X1720300D01*
G01X1695900D02*
X1681300Y3170000D01*
G01X1643500Y3185700D02*
X1637700Y3176600D01*
X1629900Y3171300D01*
X1621100Y3170000D01*
X1613300Y3171300D01*
X1605600Y3177900D01*
X1600700Y3185700D01*
X1599700Y3193600D01*
X1601700Y3202800D01*
X1608500Y3209300D01*
X1615300Y3212000D01*
X1624000D01*
G01X1615300D02*
X1609400Y3215900D01*
X1604600Y3222500D01*
X1602600Y3230300D01*
X1604600Y3238200D01*
X1609400Y3244800D01*
X1618200Y3248700D01*
X1627000Y3247400D01*
X1635700Y3242100D01*
G01X1703900Y3460000D02*
Y3587000D01*
X1663700D01*
X1650800Y3580600D01*
X1642800Y3572200D01*
X1639600Y3555200D01*
X1642800Y3538300D01*
X1652400Y3527700D01*
X1663700Y3521400D01*
X1703900D01*
G01X1663700D02*
X1639600Y3460000D01*
G01X1577600Y3479000D02*
X1568000Y3468500D01*
X1556700Y3462100D01*
X1542300Y3460000D01*
X1527800Y3464200D01*
X1516500Y3472700D01*
X1508500Y3487500D01*
X1506900Y3504400D01*
X1510100Y3521400D01*
X1518100Y3532000D01*
X1529400Y3540400D01*
X1540600Y3542500D01*
X1551900Y3540400D01*
X1566400Y3532000D01*
X1561600Y3587000D01*
X1518100D01*
G01X1976400Y4176400D02*
X1986000Y4182800D01*
X1997300Y4187000D01*
X2010100D01*
X2024600Y4180600D01*
X2035900Y4170100D01*
X2043900Y4157400D01*
X2050400Y4136200D01*
X2052000Y4117100D01*
X2048700Y4098100D01*
X2043900Y4085400D01*
X2034300Y4072700D01*
X2023000Y4064200D01*
X2011800Y4060000D01*
X2000500D01*
X1989200Y4064200D01*
X1979600Y4070600D01*
X1971500Y4079000D01*
G01X1912800Y4165800D02*
X1903200Y4178500D01*
X1891900Y4184900D01*
X1879000Y4187000D01*
X1862900Y4182800D01*
X1851700Y4172200D01*
X1848500Y4159500D01*
X1850100Y4146800D01*
X1856500Y4136200D01*
X1888700Y4115000D01*
X1903200Y4100200D01*
X1912800Y4079000D01*
X1916000Y4060000D01*
X1848500D01*
G01X1788100Y4085400D02*
X1778500Y4070600D01*
X1765600Y4062100D01*
X1751100Y4060000D01*
X1738300Y4062100D01*
X1725400Y4072700D01*
X1717400Y4085400D01*
X1715800Y4098100D01*
X1719000Y4112900D01*
X1730200Y4123500D01*
X1741500Y4127700D01*
X1756000D01*
G01X1741500D02*
X1731800Y4134100D01*
X1723800Y4144700D01*
X1720600Y4157400D01*
X1723800Y4170100D01*
X1731800Y4180600D01*
X1746300Y4187000D01*
X1760800Y4184900D01*
X1775300Y4176400D01*
G01X1850000Y6563900D02*
X1723000D01*
Y6523700D01*
X1729400Y6510800D01*
X1737800Y6502800D01*
X1754800Y6499600D01*
X1771700Y6502800D01*
X1782300Y6512400D01*
X1788600Y6523700D01*
Y6563900D01*
G01Y6523700D02*
X1850000Y6499600D01*
G01X1824600Y6437600D02*
X1839400Y6428000D01*
X1847900Y6415100D01*
X1850000Y6400600D01*
X1847900Y6387800D01*
X1837300Y6374900D01*
X1824600Y6366900D01*
X1811900Y6365300D01*
X1797100Y6368500D01*
X1786500Y6379700D01*
X1782300Y6391000D01*
Y6405500D01*
G01Y6391000D02*
X1775900Y6381300D01*
X1765300Y6373300D01*
X1752600Y6370100D01*
X1739900Y6373300D01*
X1729400Y6381300D01*
X1723000Y6395800D01*
X1725100Y6410300D01*
X1733600Y6424800D01*
G01X2173900Y530000D02*
Y657000D01*
X2133700D01*
X2120800Y650600D01*
X2112800Y642200D01*
X2109600Y625200D01*
X2112800Y608300D01*
X2122400Y597700D01*
X2133700Y591400D01*
X2173900D01*
G01X2133700D02*
X2109600Y530000D01*
G01X2012300D02*
Y657000D01*
X2031600Y631600D01*
G01Y530000D02*
X1993000D01*
G01X1918100Y555400D02*
X1908500Y540600D01*
X1895600Y532100D01*
X1881100Y530000D01*
X1868300Y532100D01*
X1855400Y542700D01*
X1847400Y555400D01*
X1845800Y568100D01*
X1849000Y582900D01*
X1860200Y593500D01*
X1871500Y597700D01*
X1886000D01*
G01X1871500D02*
X1861800Y604100D01*
X1853800Y614700D01*
X1850600Y627400D01*
X1853800Y640100D01*
X1861800Y650600D01*
X1876300Y657000D01*
X1890800Y654900D01*
X1905300Y646400D01*
G01X2143900Y4720000D02*
Y4847000D01*
X2103700D01*
X2090800Y4840600D01*
X2082800Y4832200D01*
X2079600Y4815200D01*
X2082800Y4798300D01*
X2092400Y4787700D01*
X2103700Y4781400D01*
X2143900D01*
G01X2103700D02*
X2079600Y4720000D01*
G01X1962900D02*
Y4847000D01*
X2022500Y4756000D01*
X1942000D01*
G01X1856000Y4720000D02*
X1852800Y4747500D01*
X1847900Y4770800D01*
X1841500Y4792000D01*
X1833400Y4815200D01*
X1820600Y4847000D01*
X1884900D01*
G01X2096400Y5336400D02*
X2106000Y5342800D01*
X2117300Y5347000D01*
X2130100D01*
X2144600Y5340600D01*
X2155900Y5330100D01*
X2163900Y5317400D01*
X2170400Y5296200D01*
X2172000Y5277100D01*
X2168700Y5258100D01*
X2163900Y5245400D01*
X2154300Y5232700D01*
X2143000Y5224200D01*
X2131800Y5220000D01*
X2120500D01*
X2109200Y5224200D01*
X2099600Y5230600D01*
X2091500Y5239000D01*
G01X2037600Y5245400D02*
X2028000Y5230600D01*
X2015100Y5222100D01*
X2000600Y5220000D01*
X1987800Y5222100D01*
X1974900Y5232700D01*
X1966900Y5245400D01*
X1965300Y5258100D01*
X1968500Y5272900D01*
X1979700Y5283500D01*
X1991000Y5287700D01*
X2005500D01*
G01X1991000D02*
X1981300Y5294100D01*
X1973300Y5304700D01*
X1970100Y5317400D01*
X1973300Y5330100D01*
X1981300Y5340600D01*
X1995800Y5347000D01*
X2010300Y5344900D01*
X2024800Y5336400D01*
G01X1903300Y5325800D02*
X1893700Y5338500D01*
X1882400Y5344900D01*
X1869500Y5347000D01*
X1853400Y5342800D01*
X1842200Y5332200D01*
X1839000Y5319500D01*
X1840600Y5306800D01*
X1847000Y5296200D01*
X1879200Y5275000D01*
X1893700Y5260200D01*
X1903300Y5239000D01*
X1906500Y5220000D01*
X1839000D01*
G01X2100000Y6563900D02*
X1973000D01*
Y6523700D01*
X1979400Y6510800D01*
X1987800Y6502800D01*
X2004800Y6499600D01*
X2021700Y6502800D01*
X2032300Y6512400D01*
X2038600Y6523700D01*
Y6563900D01*
G01Y6523700D02*
X2100000Y6499600D01*
G01X1994200Y6432800D02*
X1981500Y6423200D01*
X1975100Y6411900D01*
X1973000Y6399000D01*
X1977200Y6382900D01*
X1987800Y6371700D01*
X2000500Y6368500D01*
X2013200Y6370100D01*
X2023800Y6376500D01*
X2045000Y6408700D01*
X2059800Y6423200D01*
X2081000Y6432800D01*
X2100000Y6436000D01*
Y6368500D01*
G01X2350000Y6563900D02*
X2223000D01*
Y6523700D01*
X2229400Y6510800D01*
X2237800Y6502800D01*
X2254800Y6499600D01*
X2271700Y6502800D01*
X2282300Y6512400D01*
X2288600Y6523700D01*
Y6563900D01*
G01Y6523700D02*
X2350000Y6499600D01*
G01Y6402300D02*
X2223000D01*
X2248400Y6421600D01*
G01X2350000D02*
Y6383000D01*
G01X2746400Y1016400D02*
X2756000Y1022800D01*
X2767300Y1027000D01*
X2780100D01*
X2794600Y1020600D01*
X2805900Y1010100D01*
X2813900Y997400D01*
X2820400Y976200D01*
X2822000Y957100D01*
X2818700Y938100D01*
X2813900Y925400D01*
X2804300Y912700D01*
X2793000Y904200D01*
X2781800Y900000D01*
X2770500D01*
X2759200Y904200D01*
X2749600Y910600D01*
X2741500Y919000D01*
G01X2652300Y900000D02*
Y1027000D01*
X2671600Y1001600D01*
G01Y900000D02*
X2633000D01*
G01X2558100Y925400D02*
X2548500Y910600D01*
X2535600Y902100D01*
X2521100Y900000D01*
X2508300Y902100D01*
X2495400Y912700D01*
X2487400Y925400D01*
X2485800Y938100D01*
X2489000Y952900D01*
X2500200Y963500D01*
X2511500Y967700D01*
X2526000D01*
G01X2511500D02*
X2501800Y974100D01*
X2493800Y984700D01*
X2490600Y997400D01*
X2493800Y1010100D01*
X2501800Y1020600D01*
X2516300Y1027000D01*
X2530800Y1024900D01*
X2545300Y1016400D01*
G01X2563600Y1403600D02*
X2554000Y1397200D01*
X2542700Y1393000D01*
X2529900D01*
X2515400Y1399400D01*
X2504100Y1409900D01*
X2496100Y1422600D01*
X2489600Y1443800D01*
X2488000Y1462900D01*
X2491300Y1481900D01*
X2496100Y1494600D01*
X2505700Y1507300D01*
X2517000Y1515800D01*
X2528200Y1520000D01*
X2539500D01*
X2550800Y1515800D01*
X2560400Y1509400D01*
X2568500Y1501000D01*
G01X2657700Y1520000D02*
Y1393000D01*
X2638400Y1418400D01*
G01Y1520000D02*
X2677000D01*
G01X2756700Y1414200D02*
X2766300Y1401500D01*
X2777600Y1395100D01*
X2790500Y1393000D01*
X2806600Y1397200D01*
X2817800Y1407800D01*
X2821000Y1420500D01*
X2819400Y1433200D01*
X2813000Y1443800D01*
X2780800Y1465000D01*
X2766300Y1479800D01*
X2756700Y1501000D01*
X2753500Y1520000D01*
X2821000D01*
G01X2736400Y3096400D02*
X2746000Y3102800D01*
X2757300Y3107000D01*
X2770100D01*
X2784600Y3100600D01*
X2795900Y3090100D01*
X2803900Y3077400D01*
X2810400Y3056200D01*
X2812000Y3037100D01*
X2808700Y3018100D01*
X2803900Y3005400D01*
X2794300Y2992700D01*
X2783000Y2984200D01*
X2771800Y2980000D01*
X2760500D01*
X2749200Y2984200D01*
X2739600Y2990600D01*
X2731500Y2999000D01*
G01X2642300Y2980000D02*
Y3107000D01*
X2661600Y3081600D01*
G01Y2980000D02*
X2623000D01*
G01X2512800D02*
Y3107000D01*
X2532100Y3081600D01*
G01Y2980000D02*
X2493500D01*
G01X2756400Y3426400D02*
X2766000Y3432800D01*
X2777300Y3437000D01*
X2790100D01*
X2804600Y3430600D01*
X2815900Y3420100D01*
X2823900Y3407400D01*
X2830400Y3386200D01*
X2832000Y3367100D01*
X2828700Y3348100D01*
X2823900Y3335400D01*
X2814300Y3322700D01*
X2803000Y3314200D01*
X2791800Y3310000D01*
X2780500D01*
X2769200Y3314200D01*
X2759600Y3320600D01*
X2751500Y3329000D01*
G01X2662300Y3310000D02*
Y3437000D01*
X2681600Y3411600D01*
G01Y3310000D02*
X2643000D01*
G01X2532800Y3437000D02*
X2545600Y3432800D01*
X2555300Y3422200D01*
X2561700Y3409500D01*
X2566500Y3392500D01*
X2568100Y3373500D01*
X2566500Y3354400D01*
X2561700Y3337500D01*
X2555300Y3324800D01*
X2545600Y3314200D01*
X2532800Y3310000D01*
X2519900Y3314200D01*
X2510200Y3324800D01*
X2503800Y3337500D01*
X2499000Y3354400D01*
X2497400Y3373500D01*
X2499000Y3392500D01*
X2503800Y3409500D01*
X2510200Y3422200D01*
X2519900Y3432800D01*
X2532800Y3437000D01*
G01X2643900Y4550000D02*
Y4677000D01*
X2603700D01*
X2590800Y4670600D01*
X2582800Y4662200D01*
X2579600Y4645200D01*
X2582800Y4628300D01*
X2592400Y4617700D01*
X2603700Y4611400D01*
X2643900D01*
G01X2603700D02*
X2579600Y4550000D01*
G01X2462900D02*
Y4677000D01*
X2522500Y4586000D01*
X2442000D01*
G01X2352800Y4550000D02*
X2341500Y4552100D01*
X2328600Y4558500D01*
X2320600Y4569000D01*
X2317400Y4583900D01*
X2320600Y4598700D01*
X2330200Y4611400D01*
X2344700Y4617700D01*
X2360800D01*
X2370400Y4622000D01*
X2378500Y4632500D01*
X2381700Y4647400D01*
X2376900Y4662200D01*
X2365600Y4672800D01*
X2352800Y4677000D01*
X2339900Y4672800D01*
X2328600Y4662200D01*
X2323800Y4647400D01*
X2327000Y4632500D01*
X2335100Y4622000D01*
X2344700Y4617700D01*
X2360800D01*
X2375300Y4611400D01*
X2384900Y4598700D01*
X2388100Y4583900D01*
X2384900Y4569000D01*
X2376900Y4558500D01*
X2364000Y4552100D01*
X2352800Y4550000D01*
G01X2610000Y6563900D02*
X2483000D01*
Y6523700D01*
X2489400Y6510800D01*
X2497800Y6502800D01*
X2514800Y6499600D01*
X2531700Y6502800D01*
X2542300Y6512400D01*
X2548600Y6523700D01*
Y6563900D01*
G01Y6523700D02*
X2610000Y6499600D01*
G01X2483000Y6402300D02*
X2487200Y6415100D01*
X2497800Y6424800D01*
X2510500Y6431200D01*
X2527500Y6436000D01*
X2546500Y6437600D01*
X2565600Y6436000D01*
X2582500Y6431200D01*
X2595200Y6424800D01*
X2605800Y6415100D01*
X2610000Y6402300D01*
X2605800Y6389400D01*
X2595200Y6379700D01*
X2582500Y6373300D01*
X2565600Y6368500D01*
X2546500Y6366900D01*
X2527500Y6368500D01*
X2510500Y6373300D01*
X2497800Y6379700D01*
X2487200Y6389400D01*
X2483000Y6402300D01*
G01X2893900Y2600000D02*
Y2727000D01*
X2853700D01*
X2840800Y2720600D01*
X2832800Y2712200D01*
X2829600Y2695200D01*
X2832800Y2678300D01*
X2842400Y2667700D01*
X2853700Y2661400D01*
X2893900D01*
G01X2853700D02*
X2829600Y2600000D01*
G01X2732300D02*
Y2727000D01*
X2751600Y2701600D01*
G01Y2600000D02*
X2713000D01*
G01X3156400Y3476400D02*
X3166000Y3482800D01*
X3177300Y3487000D01*
X3190100D01*
X3204600Y3480600D01*
X3215900Y3470100D01*
X3223900Y3457400D01*
X3230400Y3436200D01*
X3232000Y3417100D01*
X3228700Y3398100D01*
X3223900Y3385400D01*
X3214300Y3372700D01*
X3203000Y3364200D01*
X3191800Y3360000D01*
X3180500D01*
X3169200Y3364200D01*
X3159600Y3370600D01*
X3151500Y3379000D01*
G01X3065500Y3360000D02*
X3062300Y3387500D01*
X3057400Y3410800D01*
X3051000Y3432000D01*
X3042900Y3455200D01*
X3030100Y3487000D01*
X3094400D01*
G01X3456400Y966400D02*
X3466000Y972800D01*
X3477300Y977000D01*
X3490100D01*
X3504600Y970600D01*
X3515900Y960100D01*
X3523900Y947400D01*
X3530400Y926200D01*
X3532000Y907100D01*
X3528700Y888100D01*
X3523900Y875400D01*
X3514300Y862700D01*
X3503000Y854200D01*
X3491800Y850000D01*
X3480500D01*
X3469200Y854200D01*
X3459600Y860600D01*
X3451500Y869000D01*
G01X3342900Y850000D02*
Y977000D01*
X3402500Y886000D01*
X3322000D01*
G01X3268100Y875400D02*
X3258500Y860600D01*
X3245600Y852100D01*
X3231100Y850000D01*
X3218300Y852100D01*
X3205400Y862700D01*
X3197400Y875400D01*
X3195800Y888100D01*
X3199000Y902900D01*
X3210200Y913500D01*
X3221500Y917700D01*
X3236000D01*
G01X3221500D02*
X3211800Y924100D01*
X3203800Y934700D01*
X3200600Y947400D01*
X3203800Y960100D01*
X3211800Y970600D01*
X3226300Y977000D01*
X3240800Y974900D01*
X3255300Y966400D01*
G01X3643900Y4550000D02*
Y4677000D01*
X3603700D01*
X3590800Y4670600D01*
X3582800Y4662200D01*
X3579600Y4645200D01*
X3582800Y4628300D01*
X3592400Y4617700D01*
X3603700Y4611400D01*
X3643900D01*
G01X3603700D02*
X3579600Y4550000D01*
G01X3512800Y4655800D02*
X3503200Y4668500D01*
X3491900Y4674900D01*
X3479000Y4677000D01*
X3462900Y4672800D01*
X3451700Y4662200D01*
X3448500Y4649500D01*
X3450100Y4636800D01*
X3456500Y4626200D01*
X3488700Y4605000D01*
X3503200Y4590200D01*
X3512800Y4569000D01*
X3516000Y4550000D01*
X3448500D01*
G01X3383300Y4655800D02*
X3373700Y4668500D01*
X3362400Y4674900D01*
X3349500Y4677000D01*
X3333400Y4672800D01*
X3322200Y4662200D01*
X3319000Y4649500D01*
X3320600Y4636800D01*
X3327000Y4626200D01*
X3359200Y4605000D01*
X3373700Y4590200D01*
X3383300Y4569000D01*
X3386500Y4550000D01*
X3319000D01*
G01X3643900Y4780000D02*
Y4907000D01*
X3603700D01*
X3590800Y4900600D01*
X3582800Y4892200D01*
X3579600Y4875200D01*
X3582800Y4858300D01*
X3592400Y4847700D01*
X3603700Y4841400D01*
X3643900D01*
G01X3603700D02*
X3579600Y4780000D01*
G01X3517600Y4805400D02*
X3508000Y4790600D01*
X3495100Y4782100D01*
X3480600Y4780000D01*
X3467800Y4782100D01*
X3454900Y4792700D01*
X3446900Y4805400D01*
X3445300Y4818100D01*
X3448500Y4832900D01*
X3459700Y4843500D01*
X3471000Y4847700D01*
X3485500D01*
G01X3471000D02*
X3461300Y4854100D01*
X3453300Y4864700D01*
X3450100Y4877400D01*
X3453300Y4890100D01*
X3461300Y4900600D01*
X3475800Y4907000D01*
X3490300Y4904900D01*
X3504800Y4896400D01*
G01X3352800Y4907000D02*
X3365600Y4902800D01*
X3375300Y4892200D01*
X3381700Y4879500D01*
X3386500Y4862500D01*
X3388100Y4843500D01*
X3386500Y4824400D01*
X3381700Y4807500D01*
X3375300Y4794800D01*
X3365600Y4784200D01*
X3352800Y4780000D01*
X3339900Y4784200D01*
X3330200Y4794800D01*
X3323800Y4807500D01*
X3319000Y4824400D01*
X3317400Y4843500D01*
X3319000Y4862500D01*
X3323800Y4879500D01*
X3330200Y4892200D01*
X3339900Y4902800D01*
X3352800Y4907000D01*
G01X3643900Y5000000D02*
Y5127000D01*
X3603700D01*
X3590800Y5120600D01*
X3582800Y5112200D01*
X3579600Y5095200D01*
X3582800Y5078300D01*
X3592400Y5067700D01*
X3603700Y5061400D01*
X3643900D01*
G01X3603700D02*
X3579600Y5000000D01*
G01X3517600Y5025400D02*
X3508000Y5010600D01*
X3495100Y5002100D01*
X3480600Y5000000D01*
X3467800Y5002100D01*
X3454900Y5012700D01*
X3446900Y5025400D01*
X3445300Y5038100D01*
X3448500Y5052900D01*
X3459700Y5063500D01*
X3471000Y5067700D01*
X3485500D01*
G01X3471000D02*
X3461300Y5074100D01*
X3453300Y5084700D01*
X3450100Y5097400D01*
X3453300Y5110100D01*
X3461300Y5120600D01*
X3475800Y5127000D01*
X3490300Y5124900D01*
X3504800Y5116400D01*
G01X3352800Y5000000D02*
X3341500Y5002100D01*
X3328600Y5008500D01*
X3320600Y5019000D01*
X3317400Y5033900D01*
X3320600Y5048700D01*
X3330200Y5061400D01*
X3344700Y5067700D01*
X3360800D01*
X3370400Y5072000D01*
X3378500Y5082500D01*
X3381700Y5097400D01*
X3376900Y5112200D01*
X3365600Y5122800D01*
X3352800Y5127000D01*
X3339900Y5122800D01*
X3328600Y5112200D01*
X3323800Y5097400D01*
X3327000Y5082500D01*
X3335100Y5072000D01*
X3344700Y5067700D01*
X3360800D01*
X3375300Y5061400D01*
X3384900Y5048700D01*
X3388100Y5033900D01*
X3384900Y5019000D01*
X3376900Y5008500D01*
X3364000Y5002100D01*
X3352800Y5000000D01*
G01X3823900Y1260000D02*
Y1387000D01*
X3783700D01*
X3770800Y1380600D01*
X3762800Y1372200D01*
X3759600Y1355200D01*
X3762800Y1338300D01*
X3772400Y1327700D01*
X3783700Y1321400D01*
X3823900D01*
G01X3783700D02*
X3759600Y1260000D01*
G01X3662300D02*
Y1387000D01*
X3681600Y1361600D01*
G01Y1260000D02*
X3643000D01*
G01X3560100Y1274800D02*
X3548800Y1264200D01*
X3536000Y1260000D01*
X3523100Y1264200D01*
X3511800Y1276900D01*
X3503800Y1296000D01*
X3500600Y1315000D01*
Y1338300D01*
X3503800Y1357400D01*
X3511800Y1374300D01*
X3521500Y1382800D01*
X3532800Y1387000D01*
X3545600Y1382800D01*
X3555300Y1374300D01*
X3561700Y1361600D01*
X3564900Y1344700D01*
X3561700Y1329900D01*
X3553700Y1315000D01*
X3544000Y1306600D01*
X3532800Y1304400D01*
X3519900Y1308700D01*
X3510200Y1319300D01*
X3500600Y1338300D01*
G01X3656400Y1676400D02*
X3666000Y1682800D01*
X3677300Y1687000D01*
X3690100D01*
X3704600Y1680600D01*
X3715900Y1670100D01*
X3723900Y1657400D01*
X3730400Y1636200D01*
X3732000Y1617100D01*
X3728700Y1598100D01*
X3723900Y1585400D01*
X3714300Y1572700D01*
X3703000Y1564200D01*
X3691800Y1560000D01*
X3680500D01*
X3669200Y1564200D01*
X3659600Y1570600D01*
X3651500Y1579000D01*
G01X3542900Y1560000D02*
Y1687000D01*
X3602500Y1596000D01*
X3522000D01*
G01X3432800Y1560000D02*
X3421500Y1562100D01*
X3408600Y1568500D01*
X3400600Y1579000D01*
X3397400Y1593900D01*
X3400600Y1608700D01*
X3410200Y1621400D01*
X3424700Y1627700D01*
X3440800D01*
X3450400Y1632000D01*
X3458500Y1642500D01*
X3461700Y1657400D01*
X3456900Y1672200D01*
X3445600Y1682800D01*
X3432800Y1687000D01*
X3419900Y1682800D01*
X3408600Y1672200D01*
X3403800Y1657400D01*
X3407000Y1642500D01*
X3415100Y1632000D01*
X3424700Y1627700D01*
X3440800D01*
X3455300Y1621400D01*
X3464900Y1608700D01*
X3468100Y1593900D01*
X3464900Y1579000D01*
X3456900Y1568500D01*
X3444000Y1562100D01*
X3432800Y1560000D01*
G01X3763900Y2950000D02*
Y3077000D01*
X3723700D01*
X3710800Y3070600D01*
X3702800Y3062200D01*
X3699600Y3045200D01*
X3702800Y3028300D01*
X3712400Y3017700D01*
X3723700Y3011400D01*
X3763900D01*
G01X3723700D02*
X3699600Y2950000D01*
G01X3632800Y3055800D02*
X3623200Y3068500D01*
X3611900Y3074900D01*
X3599000Y3077000D01*
X3582900Y3072800D01*
X3571700Y3062200D01*
X3568500Y3049500D01*
X3570100Y3036800D01*
X3576500Y3026200D01*
X3608700Y3005000D01*
X3623200Y2990200D01*
X3632800Y2969000D01*
X3636000Y2950000D01*
X3568500D01*
G01X3716400Y3686400D02*
X3726000Y3692800D01*
X3737300Y3697000D01*
X3750100D01*
X3764600Y3690600D01*
X3775900Y3680100D01*
X3783900Y3667400D01*
X3790400Y3646200D01*
X3792000Y3627100D01*
X3788700Y3608100D01*
X3783900Y3595400D01*
X3774300Y3582700D01*
X3763000Y3574200D01*
X3751800Y3570000D01*
X3740500D01*
X3729200Y3574200D01*
X3719600Y3580600D01*
X3711500Y3589000D01*
G01X3602900Y3570000D02*
Y3697000D01*
X3662500Y3606000D01*
X3582000D01*
G01X3473400Y3570000D02*
Y3697000D01*
X3533000Y3606000D01*
X3452500D01*
G01X3656400Y3896400D02*
X3666000Y3902800D01*
X3677300Y3907000D01*
X3690100D01*
X3704600Y3900600D01*
X3715900Y3890100D01*
X3723900Y3877400D01*
X3730400Y3856200D01*
X3732000Y3837100D01*
X3728700Y3818100D01*
X3723900Y3805400D01*
X3714300Y3792700D01*
X3703000Y3784200D01*
X3691800Y3780000D01*
X3680500D01*
X3669200Y3784200D01*
X3659600Y3790600D01*
X3651500Y3799000D01*
G01X3542900Y3780000D02*
Y3907000D01*
X3602500Y3816000D01*
X3522000D01*
G01X3468100Y3799000D02*
X3458500Y3788500D01*
X3447200Y3782100D01*
X3432800Y3780000D01*
X3418300Y3784200D01*
X3407000Y3792700D01*
X3399000Y3807500D01*
X3397400Y3824400D01*
X3400600Y3841400D01*
X3408600Y3852000D01*
X3419900Y3860400D01*
X3431100Y3862500D01*
X3442400Y3860400D01*
X3456900Y3852000D01*
X3452100Y3907000D01*
X3408600D01*
G01X3656400Y4096400D02*
X3666000Y4102800D01*
X3677300Y4107000D01*
X3690100D01*
X3704600Y4100600D01*
X3715900Y4090100D01*
X3723900Y4077400D01*
X3730400Y4056200D01*
X3732000Y4037100D01*
X3728700Y4018100D01*
X3723900Y4005400D01*
X3714300Y3992700D01*
X3703000Y3984200D01*
X3691800Y3980000D01*
X3680500D01*
X3669200Y3984200D01*
X3659600Y3990600D01*
X3651500Y3999000D01*
G01X3542900Y3980000D02*
Y4107000D01*
X3602500Y4016000D01*
X3522000D01*
G01X3463300Y4032900D02*
X3452100Y4047700D01*
X3442400Y4056200D01*
X3429500Y4060400D01*
X3418300Y4056200D01*
X3410200Y4047700D01*
X3403800Y4035000D01*
X3402200Y4020200D01*
X3403800Y4007500D01*
X3410200Y3994800D01*
X3419900Y3984200D01*
X3431100Y3980000D01*
X3444000Y3984200D01*
X3455300Y3996900D01*
X3461700Y4016000D01*
X3463300Y4037100D01*
X3460100Y4064700D01*
X3455300Y4079500D01*
X3447200Y4094300D01*
X3436000Y4104900D01*
X3424700Y4107000D01*
X3413400Y4102800D01*
X3405400Y4092200D01*
G01X3696400Y4316400D02*
X3706000Y4322800D01*
X3717300Y4327000D01*
X3730100D01*
X3744600Y4320600D01*
X3755900Y4310100D01*
X3763900Y4297400D01*
X3770400Y4276200D01*
X3772000Y4257100D01*
X3768700Y4238100D01*
X3763900Y4225400D01*
X3754300Y4212700D01*
X3743000Y4204200D01*
X3731800Y4200000D01*
X3720500D01*
X3709200Y4204200D01*
X3699600Y4210600D01*
X3691500Y4219000D01*
G01X3582900Y4200000D02*
Y4327000D01*
X3642500Y4236000D01*
X3562000D01*
G01X3476000Y4200000D02*
X3472800Y4227500D01*
X3467900Y4250800D01*
X3461500Y4272000D01*
X3453400Y4295200D01*
X3440600Y4327000D01*
X3504900D01*
G01X4195500Y6036900D02*
X4182700Y6026300D01*
X4168200Y6020000D01*
X4155300D01*
X4142400Y6026300D01*
X4132800Y6036900D01*
X4128000Y6051800D01*
X4131200Y6066600D01*
X4139200Y6079300D01*
X4153700Y6087700D01*
X4173000Y6092000D01*
X4184300Y6100400D01*
X4189100Y6115200D01*
X4185900Y6130100D01*
X4177800Y6140600D01*
X4166600Y6147000D01*
X4155300D01*
X4144100Y6142800D01*
X4134400Y6132200D01*
G01X4080500Y6147000D02*
X4058000Y6020000D01*
X4032300Y6147000D01*
X4006500Y6020000D01*
X3984000Y6147000D01*
G01X3938100Y6020000D02*
Y6147000D01*
X3906000D01*
X3893100Y6140600D01*
X3883400Y6132200D01*
X3875400Y6119500D01*
X3869000Y6104700D01*
X3867400Y6083500D01*
X3869000Y6062300D01*
X3875400Y6047500D01*
X3883400Y6034800D01*
X3893100Y6026300D01*
X3906000Y6020000D01*
X3938100D01*
G01X3792600Y6147000D02*
X3754000D01*
G01X3773300D02*
Y6020000D01*
G01X3792600D02*
X3754000D01*
G01X3643800D02*
X3656600Y6022100D01*
X3667900Y6030600D01*
X3677500Y6043300D01*
X3684000Y6058100D01*
X3687200Y6075000D01*
Y6092000D01*
X3684000Y6108900D01*
X3677500Y6123700D01*
X3667900Y6136400D01*
X3656600Y6144900D01*
X3643800Y6147000D01*
X3630900Y6144900D01*
X3619600Y6136400D01*
X3610000Y6123700D01*
X3603500Y6108900D01*
X3600300Y6092000D01*
Y6075000D01*
X3603500Y6058100D01*
X3610000Y6043300D01*
X3619600Y6030600D01*
X3630900Y6022100D01*
X3643800Y6020000D01*
G01X4075500Y6256900D02*
X4062700Y6246300D01*
X4048200Y6240000D01*
X4035300D01*
X4022400Y6246300D01*
X4012800Y6256900D01*
X4008000Y6271800D01*
X4011200Y6286600D01*
X4019200Y6299300D01*
X4033700Y6307700D01*
X4053000Y6312000D01*
X4064300Y6320400D01*
X4069100Y6335200D01*
X4065900Y6350100D01*
X4057800Y6360600D01*
X4046600Y6367000D01*
X4035300D01*
X4024100Y6362800D01*
X4014400Y6352200D01*
G01X3960500Y6367000D02*
X3938000Y6240000D01*
X3912300Y6367000D01*
X3886500Y6240000D01*
X3864000Y6367000D01*
G01X3747400Y6356400D02*
X3757000Y6362800D01*
X3768300Y6367000D01*
X3781100D01*
X3795600Y6360600D01*
X3806900Y6350100D01*
X3814900Y6337400D01*
X3821400Y6316200D01*
X3823000Y6297100D01*
X3819700Y6278100D01*
X3814900Y6265400D01*
X3805300Y6252700D01*
X3794000Y6244200D01*
X3782800Y6240000D01*
X3771500D01*
X3760200Y6244200D01*
X3750600Y6250600D01*
X3742500Y6259000D01*
G01X3685400Y6367000D02*
Y6240000D01*
X3621100D01*
G01X3559100D02*
Y6367000D01*
G01X3498000D02*
X3559100Y6288700D01*
G01X3488400Y6240000D02*
X3531800Y6324700D01*
G01X4023900Y5430000D02*
Y5557000D01*
X3983700D01*
X3970800Y5550600D01*
X3962800Y5542200D01*
X3959600Y5525200D01*
X3962800Y5508300D01*
X3972400Y5497700D01*
X3983700Y5491400D01*
X4023900D01*
G01X3983700D02*
X3959600Y5430000D01*
G01X3842900D02*
Y5557000D01*
X3902500Y5466000D01*
X3822000D01*
G01X3732800Y5557000D02*
X3745600Y5552800D01*
X3755300Y5542200D01*
X3761700Y5529500D01*
X3766500Y5512500D01*
X3768100Y5493500D01*
X3766500Y5474400D01*
X3761700Y5457500D01*
X3755300Y5444800D01*
X3745600Y5434200D01*
X3732800Y5430000D01*
X3719900Y5434200D01*
X3710200Y5444800D01*
X3703800Y5457500D01*
X3699000Y5474400D01*
X3697400Y5493500D01*
X3699000Y5512500D01*
X3703800Y5529500D01*
X3710200Y5542200D01*
X3719900Y5552800D01*
X3732800Y5557000D01*
G01X4205500Y6506900D02*
X4192700Y6496300D01*
X4178200Y6490000D01*
X4165300D01*
X4152400Y6496300D01*
X4142800Y6506900D01*
X4138000Y6521800D01*
X4141200Y6536600D01*
X4149200Y6549300D01*
X4163700Y6557700D01*
X4183000Y6562000D01*
X4194300Y6570400D01*
X4199100Y6585200D01*
X4195900Y6600100D01*
X4187800Y6610600D01*
X4176600Y6617000D01*
X4165300D01*
X4154100Y6612800D01*
X4144400Y6602200D01*
G01X4090500Y6617000D02*
X4068000Y6490000D01*
X4042300Y6617000D01*
X4016500Y6490000D01*
X3994000Y6617000D01*
G01X3912800Y6490000D02*
X3925600Y6492100D01*
X3936900Y6500600D01*
X3946500Y6513300D01*
X3953000Y6528100D01*
X3956200Y6545000D01*
Y6562000D01*
X3953000Y6578900D01*
X3946500Y6593700D01*
X3936900Y6606400D01*
X3925600Y6614900D01*
X3912800Y6617000D01*
X3899900Y6614900D01*
X3888600Y6606400D01*
X3879000Y6593700D01*
X3872500Y6578900D01*
X3869300Y6562000D01*
Y6545000D01*
X3872500Y6528100D01*
X3879000Y6513300D01*
X3888600Y6500600D01*
X3899900Y6492100D01*
X3912800Y6490000D01*
G01X4356400Y1556400D02*
X4366000Y1562800D01*
X4377300Y1567000D01*
X4390100D01*
X4404600Y1560600D01*
X4415900Y1550100D01*
X4423900Y1537400D01*
X4430400Y1516200D01*
X4432000Y1497100D01*
X4428700Y1478100D01*
X4423900Y1465400D01*
X4414300Y1452700D01*
X4403000Y1444200D01*
X4391800Y1440000D01*
X4380500D01*
X4369200Y1444200D01*
X4359600Y1450600D01*
X4351500Y1459000D01*
G01X4242900Y1440000D02*
Y1567000D01*
X4302500Y1476000D01*
X4222000D01*
G01X4163300Y1545800D02*
X4153700Y1558500D01*
X4142400Y1564900D01*
X4129500Y1567000D01*
X4113400Y1562800D01*
X4102200Y1552200D01*
X4099000Y1539500D01*
X4100600Y1526800D01*
X4107000Y1516200D01*
X4139200Y1495000D01*
X4153700Y1480200D01*
X4163300Y1459000D01*
X4166500Y1440000D01*
X4099000D01*
G01X4206400Y2356400D02*
X4216000Y2362800D01*
X4227300Y2367000D01*
X4240100D01*
X4254600Y2360600D01*
X4265900Y2350100D01*
X4273900Y2337400D01*
X4280400Y2316200D01*
X4282000Y2297100D01*
X4278700Y2278100D01*
X4273900Y2265400D01*
X4264300Y2252700D01*
X4253000Y2244200D01*
X4241800Y2240000D01*
X4230500D01*
X4219200Y2244200D01*
X4209600Y2250600D01*
X4201500Y2259000D01*
G01X4112300Y2240000D02*
Y2367000D01*
X4131600Y2341600D01*
G01Y2240000D02*
X4093000D01*
G01X4273900Y2500000D02*
Y2627000D01*
X4233700D01*
X4220800Y2620600D01*
X4212800Y2612200D01*
X4209600Y2595200D01*
X4212800Y2578300D01*
X4222400Y2567700D01*
X4233700Y2561400D01*
X4273900D01*
G01X4233700D02*
X4209600Y2500000D01*
G01X4092900D02*
Y2627000D01*
X4152500Y2536000D01*
X4072000D01*
G01X4693900Y4620000D02*
Y4747000D01*
X4653700D01*
X4640800Y4740600D01*
X4632800Y4732200D01*
X4629600Y4715200D01*
X4632800Y4698300D01*
X4642400Y4687700D01*
X4653700Y4681400D01*
X4693900D01*
G01X4653700D02*
X4629600Y4620000D01*
G01X4562800Y4725800D02*
X4553200Y4738500D01*
X4541900Y4744900D01*
X4529000Y4747000D01*
X4512900Y4742800D01*
X4501700Y4732200D01*
X4498500Y4719500D01*
X4500100Y4706800D01*
X4506500Y4696200D01*
X4538700Y4675000D01*
X4553200Y4660200D01*
X4562800Y4639000D01*
X4566000Y4620000D01*
X4498500D01*
G01X4438100Y4645400D02*
X4428500Y4630600D01*
X4415600Y4622100D01*
X4401100Y4620000D01*
X4388300Y4622100D01*
X4375400Y4632700D01*
X4367400Y4645400D01*
X4365800Y4658100D01*
X4369000Y4672900D01*
X4380200Y4683500D01*
X4391500Y4687700D01*
X4406000D01*
G01X4391500D02*
X4381800Y4694100D01*
X4373800Y4704700D01*
X4370600Y4717400D01*
X4373800Y4730100D01*
X4381800Y4740600D01*
X4396300Y4747000D01*
X4410800Y4744900D01*
X4425300Y4736400D01*
G01X4693900Y4870000D02*
Y4997000D01*
X4653700D01*
X4640800Y4990600D01*
X4632800Y4982200D01*
X4629600Y4965200D01*
X4632800Y4948300D01*
X4642400Y4937700D01*
X4653700Y4931400D01*
X4693900D01*
G01X4653700D02*
X4629600Y4870000D01*
G01X4567600Y4895400D02*
X4558000Y4880600D01*
X4545100Y4872100D01*
X4530600Y4870000D01*
X4517800Y4872100D01*
X4504900Y4882700D01*
X4496900Y4895400D01*
X4495300Y4908100D01*
X4498500Y4922900D01*
X4509700Y4933500D01*
X4521000Y4937700D01*
X4535500D01*
G01X4521000D02*
X4511300Y4944100D01*
X4503300Y4954700D01*
X4500100Y4967400D01*
X4503300Y4980100D01*
X4511300Y4990600D01*
X4525800Y4997000D01*
X4540300Y4994900D01*
X4554800Y4986400D01*
G01X4402800Y4870000D02*
Y4997000D01*
X4422100Y4971600D01*
G01Y4870000D02*
X4383500D01*
G01X4693900Y5140000D02*
Y5267000D01*
X4653700D01*
X4640800Y5260600D01*
X4632800Y5252200D01*
X4629600Y5235200D01*
X4632800Y5218300D01*
X4642400Y5207700D01*
X4653700Y5201400D01*
X4693900D01*
G01X4653700D02*
X4629600Y5140000D01*
G01X4567600Y5165400D02*
X4558000Y5150600D01*
X4545100Y5142100D01*
X4530600Y5140000D01*
X4517800Y5142100D01*
X4504900Y5152700D01*
X4496900Y5165400D01*
X4495300Y5178100D01*
X4498500Y5192900D01*
X4509700Y5203500D01*
X4521000Y5207700D01*
X4535500D01*
G01X4521000D02*
X4511300Y5214100D01*
X4503300Y5224700D01*
X4500100Y5237400D01*
X4503300Y5250100D01*
X4511300Y5260600D01*
X4525800Y5267000D01*
X4540300Y5264900D01*
X4554800Y5256400D01*
G01X4430100Y5154800D02*
X4418800Y5144200D01*
X4406000Y5140000D01*
X4393100Y5144200D01*
X4381800Y5156900D01*
X4373800Y5176000D01*
X4370600Y5195000D01*
Y5218300D01*
X4373800Y5237400D01*
X4381800Y5254300D01*
X4391500Y5262800D01*
X4402800Y5267000D01*
X4415600Y5262800D01*
X4425300Y5254300D01*
X4431700Y5241600D01*
X4434900Y5224700D01*
X4431700Y5209900D01*
X4423700Y5195000D01*
X4414000Y5186600D01*
X4402800Y5184400D01*
X4389900Y5188700D01*
X4380200Y5199300D01*
X4370600Y5218300D01*
G01X4693900Y5380000D02*
Y5507000D01*
X4653700D01*
X4640800Y5500600D01*
X4632800Y5492200D01*
X4629600Y5475200D01*
X4632800Y5458300D01*
X4642400Y5447700D01*
X4653700Y5441400D01*
X4693900D01*
G01X4653700D02*
X4629600Y5380000D01*
G01X4512900D02*
Y5507000D01*
X4572500Y5416000D01*
X4492000D01*
G01X4402800Y5380000D02*
Y5507000D01*
X4422100Y5481600D01*
G01Y5380000D02*
X4383500D01*
G01X4787100Y859000D02*
X4777500Y848500D01*
X4766200Y842100D01*
X4751800Y840000D01*
X4737300Y844200D01*
X4726000Y852700D01*
X4718000Y867500D01*
X4716400Y884400D01*
X4719600Y901400D01*
X4727600Y912000D01*
X4738900Y920400D01*
X4750100Y922500D01*
X4761400Y920400D01*
X4775900Y912000D01*
X4771100Y967000D01*
X4727600D01*
G01X4662500D02*
X4622300Y840000D01*
X4582000Y967000D01*
G01X4773900Y4297000D02*
Y4170000D01*
X4709600D01*
G01X4647600Y4195400D02*
X4638000Y4180600D01*
X4625100Y4172100D01*
X4610600Y4170000D01*
X4597800Y4172100D01*
X4584900Y4182700D01*
X4576900Y4195400D01*
X4575300Y4208100D01*
X4578500Y4222900D01*
X4589700Y4233500D01*
X4601000Y4237700D01*
X4615500D01*
G01X4601000D02*
X4591300Y4244100D01*
X4583300Y4254700D01*
X4580100Y4267400D01*
X4583300Y4280100D01*
X4591300Y4290600D01*
X4605800Y4297000D01*
X4620300Y4294900D01*
X4634800Y4286400D01*
G01X4956400Y1586400D02*
X4966000Y1592800D01*
X4977300Y1597000D01*
X4990100D01*
X5004600Y1590600D01*
X5015900Y1580100D01*
X5023900Y1567400D01*
X5030400Y1546200D01*
X5032000Y1527100D01*
X5028700Y1508100D01*
X5023900Y1495400D01*
X5014300Y1482700D01*
X5003000Y1474200D01*
X4991800Y1470000D01*
X4980500D01*
X4969200Y1474200D01*
X4959600Y1480600D01*
X4951500Y1489000D01*
G01X4862300Y1470000D02*
Y1597000D01*
X4881600Y1571600D01*
G01Y1470000D02*
X4843000D01*
G01X4760100Y1484800D02*
X4748800Y1474200D01*
X4736000Y1470000D01*
X4723100Y1474200D01*
X4711800Y1486900D01*
X4703800Y1506000D01*
X4700600Y1525000D01*
Y1548300D01*
X4703800Y1567400D01*
X4711800Y1584300D01*
X4721500Y1592800D01*
X4732800Y1597000D01*
X4745600Y1592800D01*
X4755300Y1584300D01*
X4761700Y1571600D01*
X4764900Y1554700D01*
X4761700Y1539900D01*
X4753700Y1525000D01*
X4744000Y1516600D01*
X4732800Y1514400D01*
X4719900Y1518700D01*
X4710200Y1529300D01*
X4700600Y1548300D01*
G01X5392000Y2360000D02*
X5351800Y2487000D01*
X5311500Y2360000D01*
G01X5326000Y2404400D02*
X5377500D01*
G01X5241600Y2487000D02*
X5203000D01*
G01X5222300D02*
Y2360000D01*
G01X5241600D02*
X5203000D01*
G01X5141000Y2317700D02*
X5044500D01*
G01X4993800Y2465800D02*
X4984200Y2478500D01*
X4972900Y2484900D01*
X4960000Y2487000D01*
X4943900Y2482800D01*
X4932700Y2472200D01*
X4929500Y2459500D01*
X4931100Y2446800D01*
X4937500Y2436200D01*
X4969700Y2415000D01*
X4984200Y2400200D01*
X4993800Y2379000D01*
X4997000Y2360000D01*
X4929500D01*
G01X5362000Y3130000D02*
X5321800Y3257000D01*
X5281500Y3130000D01*
G01X5296000Y3174400D02*
X5347500D01*
G01X5211600Y3257000D02*
X5173000D01*
G01X5192300D02*
Y3130000D01*
G01X5211600D02*
X5173000D01*
G01X5111000Y3087700D02*
X5014500D01*
G01X4968600Y3155400D02*
X4959000Y3140600D01*
X4946100Y3132100D01*
X4931600Y3130000D01*
X4918800Y3132100D01*
X4905900Y3142700D01*
X4897900Y3155400D01*
X4896300Y3168100D01*
X4899500Y3182900D01*
X4910700Y3193500D01*
X4922000Y3197700D01*
X4936500D01*
G01X4922000D02*
X4912300Y3204100D01*
X4904300Y3214700D01*
X4901100Y3227400D01*
X4904300Y3240100D01*
X4912300Y3250600D01*
X4926800Y3257000D01*
X4941300Y3254900D01*
X4955800Y3246400D01*
G01X5026400Y3473600D02*
X5032800Y3464000D01*
X5037000Y3452700D01*
Y3439900D01*
X5030600Y3425400D01*
X5020100Y3414100D01*
X5007400Y3406100D01*
X4986200Y3399600D01*
X4967100Y3398000D01*
X4948100Y3401300D01*
X4935400Y3406100D01*
X4922700Y3415700D01*
X4914200Y3427000D01*
X4910000Y3438200D01*
Y3449500D01*
X4914200Y3460800D01*
X4920600Y3470400D01*
X4929000Y3478500D01*
G01X4910000Y3567700D02*
X5037000D01*
X5011600Y3548400D01*
G01X4910000D02*
Y3587000D01*
G01Y3697200D02*
X4912100Y3708500D01*
X4918500Y3721400D01*
X4929000Y3729400D01*
X4943900Y3732600D01*
X4958700Y3729400D01*
X4971400Y3719800D01*
X4977700Y3705300D01*
Y3689200D01*
X4982000Y3679600D01*
X4992500Y3671500D01*
X5007400Y3668300D01*
X5022200Y3673100D01*
X5032800Y3684400D01*
X5037000Y3697200D01*
X5032800Y3710100D01*
X5022200Y3721400D01*
X5007400Y3726200D01*
X4992500Y3723000D01*
X4982000Y3714900D01*
X4977700Y3705300D01*
Y3689200D01*
X4971400Y3674700D01*
X4958700Y3665100D01*
X4943900Y3661900D01*
X4929000Y3665100D01*
X4918500Y3673100D01*
X4912100Y3686000D01*
X4910000Y3697200D01*
G01X5367100Y4350000D02*
Y4477000D01*
X5335000D01*
X5322100Y4470600D01*
X5312400Y4462200D01*
X5304400Y4449500D01*
X5298000Y4434700D01*
X5296400Y4413500D01*
X5298000Y4392300D01*
X5304400Y4377500D01*
X5312400Y4364800D01*
X5322100Y4356300D01*
X5335000Y4350000D01*
X5367100D01*
G01X5221600Y4477000D02*
X5183000D01*
G01X5202300D02*
Y4350000D01*
G01X5221600D02*
X5183000D01*
G01X5121000Y4307700D02*
X5024500D01*
G01X4943300Y4477000D02*
X4956100Y4472800D01*
X4965800Y4462200D01*
X4972200Y4449500D01*
X4977000Y4432500D01*
X4978600Y4413500D01*
X4977000Y4394400D01*
X4972200Y4377500D01*
X4965800Y4364800D01*
X4956100Y4354200D01*
X4943300Y4350000D01*
X4930400Y4354200D01*
X4920700Y4364800D01*
X4914300Y4377500D01*
X4909500Y4394400D01*
X4907900Y4413500D01*
X4909500Y4432500D01*
X4914300Y4449500D01*
X4920700Y4462200D01*
X4930400Y4472800D01*
X4943300Y4477000D01*
G01X4995000Y6049300D02*
X4975500D01*
Y6025700D01*
X4981300Y6017900D01*
X4988100Y6012600D01*
X4997900Y6010000D01*
X5007600Y6012600D01*
X5014400Y6017900D01*
X5020300Y6025700D01*
X5024200Y6034900D01*
X5026100Y6045400D01*
Y6054600D01*
X5024200Y6062500D01*
X5020300Y6071600D01*
X5014400Y6079500D01*
X5008600Y6084800D01*
X5000800Y6088700D01*
X4994000D01*
X4986200Y6086100D01*
X4980400Y6080800D01*
G01X4944500Y6010000D02*
Y6088700D01*
X4899700Y6010000D01*
Y6088700D01*
G01X4864800Y6010000D02*
Y6088700D01*
X4845300D01*
X4837600Y6084800D01*
X4831700Y6079500D01*
X4826900Y6071600D01*
X4823000Y6062500D01*
X4822000Y6049300D01*
X4823000Y6036200D01*
X4826900Y6027100D01*
X4831700Y6019200D01*
X4837600Y6013900D01*
X4845300Y6010000D01*
X4864800D01*
G01X5112200Y6275700D02*
X5106400Y6266600D01*
X5098600Y6261300D01*
X5089800Y6260000D01*
X5082000Y6261300D01*
X5074300Y6267900D01*
X5069400Y6275700D01*
X5068400Y6283600D01*
X5070400Y6292800D01*
X5077200Y6299300D01*
X5084000Y6302000D01*
X5092700D01*
G01X5084000D02*
X5078100Y6305900D01*
X5073300Y6312500D01*
X5071300Y6320300D01*
X5073300Y6328200D01*
X5078100Y6334800D01*
X5086900Y6338700D01*
X5095700Y6337400D01*
X5104400Y6332100D01*
G01X5012100Y6257400D02*
X5014000Y6258700D01*
Y6261300D01*
X5012100Y6262600D01*
X5010200Y6261300D01*
Y6258700D01*
X5012100Y6257400D01*
G01X4954800Y6275700D02*
X4949000Y6266600D01*
X4941200Y6261300D01*
X4932400Y6260000D01*
X4924600Y6261300D01*
X4916900Y6267900D01*
X4912000Y6275700D01*
X4911000Y6283600D01*
X4913000Y6292800D01*
X4919800Y6299300D01*
X4926600Y6302000D01*
X4935300D01*
G01X4926600D02*
X4920700Y6305900D01*
X4915900Y6312500D01*
X4913900Y6320300D01*
X4915900Y6328200D01*
X4920700Y6334800D01*
X4929500Y6338700D01*
X4938300Y6337400D01*
X4947000Y6332100D01*
G01X4879000Y6338700D02*
X4854700Y6260000D01*
X4830400Y6338700D01*
G01X5040300Y6500000D02*
Y6578700D01*
X5015900D01*
X5008100Y6574800D01*
X5003300Y6569500D01*
X5001300Y6559000D01*
X5003300Y6548500D01*
X5009100Y6542000D01*
X5015900Y6538000D01*
X5040300D01*
G01X5015900D02*
X5001300Y6500000D01*
G01X4962500Y6510500D02*
X4954800Y6503900D01*
X4946000Y6500000D01*
X4938200D01*
X4930400Y6503900D01*
X4924600Y6510500D01*
X4921700Y6519700D01*
X4923600Y6528900D01*
X4928500Y6536700D01*
X4937200Y6542000D01*
X4948900Y6544600D01*
X4955700Y6549800D01*
X4958600Y6559000D01*
X4956700Y6568200D01*
X4951800Y6574800D01*
X4945000Y6578700D01*
X4938200D01*
X4931400Y6576100D01*
X4925600Y6569500D01*
G01X4863400Y6578700D02*
Y6500000D01*
G01X4885800Y6578700D02*
X4841000D01*
G01X5266400Y326400D02*
X5276000Y332800D01*
X5287300Y337000D01*
X5300100D01*
X5314600Y330600D01*
X5325900Y320100D01*
X5333900Y307400D01*
X5340400Y286200D01*
X5342000Y267100D01*
X5338700Y248100D01*
X5333900Y235400D01*
X5324300Y222700D01*
X5313000Y214200D01*
X5301800Y210000D01*
X5290500D01*
X5279200Y214200D01*
X5269600Y220600D01*
X5261500Y229000D01*
G01X5207600Y235400D02*
X5198000Y220600D01*
X5185100Y212100D01*
X5170600Y210000D01*
X5157800Y212100D01*
X5144900Y222700D01*
X5136900Y235400D01*
X5135300Y248100D01*
X5138500Y262900D01*
X5149700Y273500D01*
X5161000Y277700D01*
X5175500D01*
G01X5161000D02*
X5151300Y284100D01*
X5143300Y294700D01*
X5140100Y307400D01*
X5143300Y320100D01*
X5151300Y330600D01*
X5165800Y337000D01*
X5180300Y334900D01*
X5194800Y326400D01*
G01X5042800Y337000D02*
X5055600Y332800D01*
X5065300Y322200D01*
X5071700Y309500D01*
X5076500Y292500D01*
X5078100Y273500D01*
X5076500Y254400D01*
X5071700Y237500D01*
X5065300Y224800D01*
X5055600Y214200D01*
X5042800Y210000D01*
X5029900Y214200D01*
X5020200Y224800D01*
X5013800Y237500D01*
X5009000Y254400D01*
X5007400Y273500D01*
X5009000Y292500D01*
X5013800Y309500D01*
X5020200Y322200D01*
X5029900Y332800D01*
X5042800Y337000D01*
G01X5312100Y753500D02*
X5279900D01*
Y715400D01*
X5289600Y702700D01*
X5300800Y694200D01*
X5316900Y690000D01*
X5333000Y694200D01*
X5344300Y702700D01*
X5353900Y715400D01*
X5360400Y730200D01*
X5363600Y747100D01*
Y762000D01*
X5360400Y774700D01*
X5353900Y789500D01*
X5344300Y802200D01*
X5334600Y810600D01*
X5321800Y817000D01*
X5310500D01*
X5297600Y812800D01*
X5288000Y804300D01*
G01X5229200Y690000D02*
Y817000D01*
X5155300Y690000D01*
Y817000D01*
G01X5098100Y690000D02*
Y817000D01*
X5066000D01*
X5053100Y810600D01*
X5043400Y802200D01*
X5035400Y789500D01*
X5029000Y774700D01*
X5027400Y753500D01*
X5029000Y732300D01*
X5035400Y717500D01*
X5043400Y704800D01*
X5053100Y696300D01*
X5066000Y690000D01*
X5098100D01*
G01X5383900Y1210000D02*
Y1337000D01*
X5345300D01*
X5332400Y1330600D01*
X5322800Y1315800D01*
X5319600Y1298900D01*
X5322800Y1282000D01*
X5330800Y1269300D01*
X5345300Y1262900D01*
X5383900D01*
G01X5270500Y1337000D02*
X5248000Y1210000D01*
X5222300Y1337000D01*
X5196500Y1210000D01*
X5174000Y1337000D01*
G01X5124900Y1210000D02*
Y1337000D01*
X5084700D01*
X5071800Y1330600D01*
X5063800Y1322200D01*
X5060600Y1305200D01*
X5063800Y1288300D01*
X5073400Y1277700D01*
X5084700Y1271400D01*
X5124900D01*
G01X5084700D02*
X5060600Y1210000D01*
G01X5412000Y1790000D02*
X5371800Y1917000D01*
X5331500Y1790000D01*
G01X5346000Y1834400D02*
X5397500D01*
G01X5261600Y1917000D02*
X5223000D01*
G01X5242300D02*
Y1790000D01*
G01X5261600D02*
X5223000D01*
G01X5161000Y1747700D02*
X5064500D01*
G01X4983300Y1790000D02*
Y1917000D01*
X5002600Y1891600D01*
G01Y1790000D02*
X4964000D01*
G01X5363900Y1970000D02*
Y2097000D01*
X5325300D01*
X5312400Y2090600D01*
X5302800Y2075800D01*
X5299600Y2058900D01*
X5302800Y2042000D01*
X5310800Y2029300D01*
X5325300Y2022900D01*
X5363900D01*
G01X5250500Y2097000D02*
X5228000Y1970000D01*
X5202300Y2097000D01*
X5176500Y1970000D01*
X5154000Y2097000D01*
G01X5104900Y1970000D02*
Y2097000D01*
X5064700D01*
X5051800Y2090600D01*
X5043800Y2082200D01*
X5040600Y2065200D01*
X5043800Y2048300D01*
X5053400Y2037700D01*
X5064700Y2031400D01*
X5104900D01*
G01X5064700D02*
X5040600Y1970000D01*
G01X5373900Y2730000D02*
Y2857000D01*
X5335300D01*
X5322400Y2850600D01*
X5312800Y2835800D01*
X5309600Y2818900D01*
X5312800Y2802000D01*
X5320800Y2789300D01*
X5335300Y2782900D01*
X5373900D01*
G01X5260500Y2857000D02*
X5238000Y2730000D01*
X5212300Y2857000D01*
X5186500Y2730000D01*
X5164000Y2857000D01*
G01X5114900Y2730000D02*
Y2857000D01*
X5074700D01*
X5061800Y2850600D01*
X5053800Y2842200D01*
X5050600Y2825200D01*
X5053800Y2808300D01*
X5063400Y2797700D01*
X5074700Y2791400D01*
X5114900D01*
G01X5074700D02*
X5050600Y2730000D01*
G01X5130000Y3392900D02*
X5257000D01*
Y3425000D01*
X5250600Y3437900D01*
X5242200Y3447600D01*
X5229500Y3455600D01*
X5214700Y3462000D01*
X5193500Y3463600D01*
X5172300Y3462000D01*
X5157500Y3455600D01*
X5144800Y3447600D01*
X5136300Y3437900D01*
X5130000Y3425000D01*
Y3392900D01*
G01Y3557700D02*
X5257000D01*
X5231600Y3538400D01*
G01X5130000D02*
Y3577000D01*
G01X5400300Y4760000D02*
Y4838700D01*
X5376900D01*
X5369100Y4834800D01*
X5363300Y4825600D01*
X5361300Y4815100D01*
X5363300Y4804600D01*
X5368100Y4796700D01*
X5376900Y4792800D01*
X5400300D01*
G01X5331300Y4838700D02*
X5317700Y4760000D01*
X5302100Y4838700D01*
X5286500Y4760000D01*
X5272900Y4838700D01*
G01X5242900Y4760000D02*
Y4838700D01*
X5218500D01*
X5210700Y4834800D01*
X5205900Y4829500D01*
X5203900Y4819000D01*
X5205900Y4808500D01*
X5211700Y4802000D01*
X5218500Y4798000D01*
X5242900D01*
G01X5218500D02*
X5203900Y4760000D01*
G01X5432200Y5250000D02*
Y5328700D01*
X5412700D01*
X5405000Y5324800D01*
X5399100Y5319500D01*
X5394300Y5311600D01*
X5390400Y5302500D01*
X5389400Y5289300D01*
X5390400Y5276200D01*
X5394300Y5267100D01*
X5399100Y5259200D01*
X5405000Y5253900D01*
X5412700Y5250000D01*
X5432200D01*
G01X5343800Y5328700D02*
X5320400D01*
G01X5332100D02*
Y5250000D01*
G01X5343800D02*
X5320400D01*
G01X5282600Y5223800D02*
X5224200D01*
G01X5174700Y5250000D02*
Y5328700D01*
X5186400Y5313000D01*
G01Y5250000D02*
X5163000D01*
G01X5390300Y5510000D02*
Y5588700D01*
X5366900D01*
X5359100Y5584800D01*
X5353300Y5575600D01*
X5351300Y5565100D01*
X5353300Y5554600D01*
X5358100Y5546700D01*
X5366900Y5542800D01*
X5390300D01*
G01X5321300Y5588700D02*
X5307700Y5510000D01*
X5292100Y5588700D01*
X5276500Y5510000D01*
X5262900Y5588700D01*
G01X5232900Y5510000D02*
Y5588700D01*
X5208500D01*
X5200700Y5584800D01*
X5195900Y5579500D01*
X5193900Y5569000D01*
X5195900Y5558500D01*
X5201700Y5552000D01*
X5208500Y5548000D01*
X5232900D01*
G01X5208500D02*
X5193900Y5510000D01*
G01X5392200Y5880000D02*
Y5958700D01*
X5372700D01*
X5365000Y5954800D01*
X5359100Y5949500D01*
X5354300Y5941600D01*
X5350400Y5932500D01*
X5349400Y5919300D01*
X5350400Y5906200D01*
X5354300Y5897100D01*
X5359100Y5889200D01*
X5365000Y5883900D01*
X5372700Y5880000D01*
X5392200D01*
G01X5303800Y5958700D02*
X5280400D01*
G01X5292100D02*
Y5880000D01*
G01X5303800D02*
X5280400D01*
G01X5242600Y5853800D02*
X5184200D01*
G01X5153200Y5945600D02*
X5147400Y5953500D01*
X5140500Y5957400D01*
X5132800Y5958700D01*
X5123000Y5956100D01*
X5116200Y5949500D01*
X5114300Y5941600D01*
X5115200Y5933800D01*
X5119100Y5927200D01*
X5138600Y5914100D01*
X5147400Y5904900D01*
X5153200Y5891800D01*
X5155100Y5880000D01*
X5114300D01*
G01X5380300Y6290000D02*
Y6368700D01*
X5356900D01*
X5349100Y6364800D01*
X5343300Y6355600D01*
X5341300Y6345100D01*
X5343300Y6334600D01*
X5348100Y6326700D01*
X5356900Y6322800D01*
X5380300D01*
G01X5311300Y6368700D02*
X5297700Y6290000D01*
X5282100Y6368700D01*
X5266500Y6290000D01*
X5252900Y6368700D01*
G01X5222900Y6290000D02*
Y6368700D01*
X5198500D01*
X5190700Y6364800D01*
X5185900Y6359500D01*
X5183900Y6349000D01*
X5185900Y6338500D01*
X5191700Y6332000D01*
X5198500Y6328000D01*
X5222900D01*
G01X5198500D02*
X5183900Y6290000D01*
G01X5402200Y6760000D02*
Y6838700D01*
X5382700D01*
X5375000Y6834800D01*
X5369100Y6829500D01*
X5364300Y6821600D01*
X5360400Y6812500D01*
X5359400Y6799300D01*
X5360400Y6786200D01*
X5364300Y6777100D01*
X5369100Y6769200D01*
X5375000Y6763900D01*
X5382700Y6760000D01*
X5402200D01*
G01X5313800Y6838700D02*
X5290400D01*
G01X5302100D02*
Y6760000D01*
G01X5313800D02*
X5290400D01*
G01X5252600Y6733800D02*
X5194200D01*
G01X5166100Y6775700D02*
X5160300Y6766600D01*
X5152500Y6761300D01*
X5143700Y6760000D01*
X5135900Y6761300D01*
X5128200Y6767900D01*
X5123300Y6775700D01*
X5122300Y6783600D01*
X5124300Y6792800D01*
X5131100Y6799300D01*
X5137900Y6802000D01*
X5146600D01*
G01X5137900D02*
X5132000Y6805900D01*
X5127200Y6812500D01*
X5125200Y6820300D01*
X5127200Y6828200D01*
X5132000Y6834800D01*
X5140800Y6838700D01*
X5149600Y6837400D01*
X5158300Y6832100D01*
G01X5692000Y530000D02*
X5651800Y657000D01*
X5611500Y530000D01*
G01X5626000Y574400D02*
X5677500D01*
G01X5541600Y657000D02*
X5503000D01*
G01X5522300D02*
Y530000D01*
G01X5541600D02*
X5503000D01*
G01X5441000Y487700D02*
X5344500D01*
G01X5263300Y657000D02*
X5276100Y652800D01*
X5285800Y642200D01*
X5292200Y629500D01*
X5297000Y612500D01*
X5298600Y593500D01*
X5297000Y574400D01*
X5292200Y557500D01*
X5285800Y544800D01*
X5276100Y534200D01*
X5263300Y530000D01*
X5250400Y534200D01*
X5240700Y544800D01*
X5234300Y557500D01*
X5229500Y574400D01*
X5227900Y593500D01*
X5229500Y612500D01*
X5234300Y629500D01*
X5240700Y642200D01*
X5250400Y652800D01*
X5263300Y657000D01*
G01X5743900Y3750000D02*
Y3877000D01*
X5705300D01*
X5692400Y3870600D01*
X5682800Y3855800D01*
X5679600Y3838900D01*
X5682800Y3822000D01*
X5690800Y3809300D01*
X5705300Y3802900D01*
X5743900D01*
G01X5630500Y3877000D02*
X5608000Y3750000D01*
X5582300Y3877000D01*
X5556500Y3750000D01*
X5534000Y3877000D01*
G01X5484900Y3750000D02*
Y3877000D01*
X5444700D01*
X5431800Y3870600D01*
X5423800Y3862200D01*
X5420600Y3845200D01*
X5423800Y3828300D01*
X5433400Y3817700D01*
X5444700Y3811400D01*
X5484900D01*
G01X5444700D02*
X5420600Y3750000D01*
M02*
