G04 ================== begin FILE IDENTIFICATION RECORD ==================*
G04 Layout Name:  G:/Work/io/design/pcb/io_4di_4aic_dbdoctor_2.brd*
G04 Film Name:    SILKSCREEN_BOTTOM*
G04 File Format:  Gerber RS274X*
G04 File Origin:  Cadence Allegro 17.2-S007*
G04 Origin Date:  Tue Sep 11 21:02:19 2018*
G04 *
G04 Layer:  MANUFACTURING/AUTOSILK_BOTTOM*
G04 Layer:  BOARD GEOMETRY/SILKSCREEN_BOTTOM*
G04 Layer:  BOARD GEOMETRY/OUTLINE*
G04 *
G04 Offset:    (0.000 0.000)*
G04 Mirror:    No*
G04 Mode:      Positive*
G04 Rotation:  0*
G04 FullContactRelief:  No*
G04 UndefLineWidth:     0.200*
G04 ================== end FILE IDENTIFICATION RECORD ====================*
%FSLAX25Y25*MOMM*%
%IR0*IPPOS*OFA0.00000B0.00000*MIA0B0*SFA1.00000B1.00000*%
%ADD10C,.2*%
G75*
%LPD*%
G75*
G54D10*
G01X280000Y5620000D02*
Y5460000D01*
G01X310000Y5640000D02*
Y5440000D01*
X640000D01*
Y5640000D01*
X310000D01*
G01X820000Y7030000D02*
Y6780000D01*
G01X710000Y7300000D02*
X960000D01*
G01X830000Y7430000D02*
Y7180000D01*
G01X1220000Y2370000D02*
X1020000D01*
Y2040000D01*
X1220000D01*
Y2370000D01*
G01X1200000Y2400000D02*
X1040000D01*
G01X1220000Y4320000D02*
X1020000D01*
Y3990000D01*
X1220000D01*
Y4320000D01*
G01X1200000Y4350000D02*
X1040000D01*
G01X1190000Y8490000D02*
Y8290000D01*
G01X1220000Y8540000D02*
Y8240000D01*
X1700000D01*
Y8540000D01*
X1220000D01*
G01X2240000Y2070000D02*
Y2270000D01*
X1910000D01*
Y2070000D01*
X2240000D01*
G01Y2530000D02*
Y2730000D01*
X1910000D01*
Y2530000D01*
X2240000D01*
G01Y2300000D02*
Y2500000D01*
X1910000D01*
Y2300000D01*
X2240000D01*
G01Y2760000D02*
Y2960000D01*
X1910000D01*
Y2760000D01*
X2240000D01*
G01Y3960000D02*
Y4160000D01*
X1910000D01*
Y3960000D01*
X2240000D01*
G01Y4190000D02*
Y4390000D01*
X1910000D01*
Y4190000D01*
X2240000D01*
G01Y4650000D02*
Y4850000D01*
X1910000D01*
Y4650000D01*
X2240000D01*
G01Y4420000D02*
Y4620000D01*
X1910000D01*
Y4420000D01*
X2240000D01*
G01X2130000Y8290000D02*
Y8490000D01*
X1800000D01*
Y8290000D01*
X2130000D01*
G01X2270000Y2090000D02*
Y2250000D01*
G01Y2320000D02*
Y2480000D01*
G01Y2550000D02*
Y2710000D01*
G01Y2780000D02*
Y2940000D01*
G01Y3980000D02*
Y4140000D01*
G01Y4210000D02*
Y4370000D01*
G01Y4670000D02*
Y4830000D01*
G01Y4440000D02*
Y4600000D01*
G01X2160000Y8310000D02*
Y8470000D01*
G01X2520000Y2430000D02*
X2320000D01*
Y2100000D01*
X2520000D01*
Y2430000D01*
G01X2500000Y2460000D02*
X2340000D01*
G01Y2570000D02*
X2500000D01*
G01X2320000Y2600000D02*
X2520000D01*
Y2930000D01*
X2320000D01*
Y2600000D01*
G01X2520000Y4410000D02*
X2320000D01*
Y4080000D01*
X2520000D01*
Y4410000D01*
G01X2500000Y4440000D02*
X2340000D01*
G01Y4460000D02*
X2500000D01*
G01X2320000Y4490000D02*
X2520000D01*
Y4820000D01*
X2320000D01*
Y4490000D01*
G01X2420000Y5900000D02*
Y5720000D01*
X2720000D01*
Y5900000D01*
X2420000D01*
G01X2380000Y5890000D02*
Y5730000D01*
G01X2420000Y6130000D02*
Y5950000D01*
X2720000D01*
Y6130000D01*
X2420000D01*
G01X2380000Y6120000D02*
Y5960000D01*
G01X2730000Y8340000D02*
Y8140000D01*
G01X2640000Y8230000D02*
X2820000D01*
G01X3250000Y6120000D02*
X3050000D01*
Y5790000D01*
X3250000D01*
Y6120000D01*
G01X3230000Y6150000D02*
X3070000D01*
G01Y6310000D02*
X3230000D01*
G01X3050000Y6340000D02*
X3250000D01*
Y6670000D01*
X3050000D01*
Y6340000D01*
G01X2950000Y8230000D02*
X3110000D01*
G01X3470000Y2960000D02*
Y3160000D01*
X3140000D01*
Y2960000D01*
X3470000D01*
G01Y3460000D02*
Y3660000D01*
X3140000D01*
Y3460000D01*
X3470000D01*
G01X3320000Y5770000D02*
Y5610000D01*
G01X3500000Y2980000D02*
Y3140000D01*
G01Y3480000D02*
Y3640000D01*
G01X3350000Y5790000D02*
Y5590000D01*
X3680000D01*
Y5790000D01*
X3350000D01*
G01X4110000Y3860000D02*
Y4060000D01*
X3780000D01*
Y3860000D01*
X4110000D01*
G01X3910000Y3640000D02*
Y3820000D01*
X3610000D01*
Y3640000D01*
X3910000D01*
G01X3770000Y5760000D02*
Y5600000D01*
G01X3800000Y5780000D02*
Y5580000D01*
X4130000D01*
Y5780000D01*
X3800000D01*
G01X3950000Y3650000D02*
Y3810000D01*
G01X4140000Y3880000D02*
Y4040000D01*
G01X4580000Y2680000D02*
Y2520000D01*
G01X4610000Y2700000D02*
Y2500000D01*
X4940000D01*
Y2700000D01*
X4610000D01*
G01X4820000Y2790000D02*
Y2990000D01*
X4490000D01*
Y2790000D01*
X4820000D01*
G01X4530000Y4240000D02*
X4690000D01*
G01X4510000Y4270000D02*
X4710000D01*
Y4600000D01*
X4510000D01*
Y4270000D01*
G01X4850000Y2810000D02*
Y2970000D01*
G01X4920000Y4180000D02*
Y4020000D01*
G01X5160000Y3680000D02*
Y3520000D01*
G01X5190000Y3700000D02*
Y3500000D01*
X5520000D01*
Y3700000D01*
X5190000D01*
G01X5160000Y3950000D02*
Y3790000D01*
G01X5190000Y3970000D02*
Y3770000D01*
X5520000D01*
Y3970000D01*
X5190000D01*
G01X4950000Y4200000D02*
Y4000000D01*
X5280000D01*
Y4200000D01*
X4950000D01*
G01X5730000Y4840000D02*
Y5040000D01*
X5400000D01*
Y4840000D01*
X5730000D01*
G01Y5040000D02*
Y5240000D01*
X5400000D01*
Y5040000D01*
X5730000D01*
G01Y5240000D02*
Y5440000D01*
X5400000D01*
Y5240000D01*
X5730000D01*
G01Y5440000D02*
Y5640000D01*
X5400000D01*
Y5440000D01*
X5730000D01*
G01X5540000Y5810000D02*
Y6010000D01*
X5210000D01*
Y5810000D01*
X5540000D01*
G01Y6030000D02*
Y6230000D01*
X5210000D01*
Y6030000D01*
X5540000D01*
G01Y6250000D02*
Y6450000D01*
X5210000D01*
Y6250000D01*
X5540000D01*
G01Y6470000D02*
Y6670000D01*
X5210000D01*
Y6470000D01*
X5540000D01*
G01X5570000Y5830000D02*
Y5990000D01*
G01Y6050000D02*
Y6210000D01*
G01Y6270000D02*
Y6430000D01*
G01Y6490000D02*
Y6650000D01*
G01X5760000Y4860000D02*
Y5020000D01*
G01Y5060000D02*
Y5220000D01*
G01Y5260000D02*
Y5420000D01*
G01Y5460000D02*
Y5620000D01*
G01X6140000Y2330000D02*
Y2110000D01*
X6550000D01*
Y2330000D01*
X6140000D01*
G01X6100000Y2320000D02*
Y2120000D01*
G01X6590000Y5880000D02*
Y6080000D01*
X6260000D01*
Y5880000D01*
X6590000D01*
G01Y6130000D02*
Y6330000D01*
X6260000D01*
Y6130000D01*
X6590000D01*
G01Y6390000D02*
Y6590000D01*
X6260000D01*
Y6390000D01*
X6590000D01*
G01Y6640000D02*
Y6840000D01*
X6260000D01*
Y6640000D01*
X6590000D01*
G01X6620000Y5900000D02*
Y6060000D01*
G01Y6150000D02*
Y6310000D01*
G01Y6410000D02*
Y6570000D01*
G01Y6660000D02*
Y6820000D01*
G01X7290000Y1880000D02*
X7380000D01*
Y2000000D01*
X7590000D01*
Y1970000D01*
X7670000D01*
Y1680000D01*
X7590000D01*
Y1650000D01*
X7380000D01*
Y1770000D01*
X7290000D01*
Y1880000D01*
G01Y2630000D02*
X7380000D01*
Y2750000D01*
X7590000D01*
Y2720000D01*
X7670000D01*
Y2430000D01*
X7590000D01*
Y2400000D01*
X7380000D01*
Y2520000D01*
X7290000D01*
Y2630000D01*
G01Y3390000D02*
X7380000D01*
Y3510000D01*
X7590000D01*
Y3480000D01*
X7670000D01*
Y3190000D01*
X7590000D01*
Y3160000D01*
X7380000D01*
Y3280000D01*
X7290000D01*
Y3390000D01*
G01Y4160000D02*
X7380000D01*
Y4280000D01*
X7590000D01*
Y4250000D01*
X7670000D01*
Y3960000D01*
X7590000D01*
Y3930000D01*
X7380000D01*
Y4050000D01*
X7290000D01*
Y4160000D01*
G01Y5720000D02*
X7380000D01*
Y5840000D01*
X7590000D01*
Y5810000D01*
X7670000D01*
Y5520000D01*
X7590000D01*
Y5490000D01*
X7380000D01*
Y5610000D01*
X7290000D01*
Y5720000D01*
G01Y7240000D02*
X7380000D01*
Y7360000D01*
X7590000D01*
Y7330000D01*
X7670000D01*
Y7040000D01*
X7590000D01*
Y7010000D01*
X7380000D01*
Y7130000D01*
X7290000D01*
Y7240000D01*
G01X80000Y0D02*
X8620000D01*
G03X8700000Y80000I0J80000D01*
G01Y9120000D01*
G03X8620000Y9200000I-80000J0D01*
G01X80000D01*
G03X0Y9120000I0J-80000D01*
G01Y80000D01*
G03X80000Y0I80000J0D01*
G01X876400Y2216400D02*
X886000Y2222800D01*
X897300Y2227000D01*
X910100D01*
X924600Y2220600D01*
X935900Y2210100D01*
X943900Y2197400D01*
X950400Y2176200D01*
X952000Y2157100D01*
X948700Y2138100D01*
X943900Y2125400D01*
X934300Y2112700D01*
X923000Y2104200D01*
X911800Y2100000D01*
X900500D01*
X889200Y2104200D01*
X879600Y2110600D01*
X871500Y2119000D01*
G01X782300Y2100000D02*
Y2227000D01*
X801600Y2201600D01*
G01Y2100000D02*
X763000D01*
G01X656000D02*
X652800Y2127500D01*
X647900Y2150800D01*
X641500Y2172000D01*
X633400Y2195200D01*
X620600Y2227000D01*
X684900D01*
G01X806400Y4276400D02*
X816000Y4282800D01*
X827300Y4287000D01*
X840100D01*
X854600Y4280600D01*
X865900Y4270100D01*
X873900Y4257400D01*
X880400Y4236200D01*
X882000Y4217100D01*
X878700Y4198100D01*
X873900Y4185400D01*
X864300Y4172700D01*
X853000Y4164200D01*
X841800Y4160000D01*
X830500D01*
X819200Y4164200D01*
X809600Y4170600D01*
X801500Y4179000D01*
G01X712300Y4160000D02*
Y4287000D01*
X731600Y4261600D01*
G01Y4160000D02*
X693000D01*
G01X563400D02*
Y4287000D01*
X623000Y4196000D01*
X542500D01*
G01X1053900Y5500000D02*
Y5627000D01*
X1013700D01*
X1000800Y5620600D01*
X992800Y5612200D01*
X989600Y5595200D01*
X992800Y5578300D01*
X1002400Y5567700D01*
X1013700Y5561400D01*
X1053900D01*
G01X1013700D02*
X989600Y5500000D01*
G01X892300D02*
Y5627000D01*
X911600Y5601600D01*
G01Y5500000D02*
X873000D01*
G01X762800D02*
X751500Y5502100D01*
X738600Y5508500D01*
X730600Y5519000D01*
X727400Y5533900D01*
X730600Y5548700D01*
X740200Y5561400D01*
X754700Y5567700D01*
X770800D01*
X780400Y5572000D01*
X788500Y5582500D01*
X791700Y5597400D01*
X786900Y5612200D01*
X775600Y5622800D01*
X762800Y5627000D01*
X749900Y5622800D01*
X738600Y5612200D01*
X733800Y5597400D01*
X737000Y5582500D01*
X745100Y5572000D01*
X754700Y5567700D01*
X770800D01*
X785300Y5561400D01*
X794900Y5548700D01*
X798100Y5533900D01*
X794900Y5519000D01*
X786900Y5508500D01*
X774000Y5502100D01*
X762800Y5500000D01*
G01X1033900Y8447000D02*
Y8320000D01*
X969600D01*
G01X852900D02*
Y8447000D01*
X912500Y8356000D01*
X832000D01*
G01X1850000Y4643900D02*
X1723000D01*
Y4603700D01*
X1729400Y4590800D01*
X1737800Y4582800D01*
X1754800Y4579600D01*
X1771700Y4582800D01*
X1782300Y4592400D01*
X1788600Y4603700D01*
Y4643900D01*
G01Y4603700D02*
X1850000Y4579600D01*
G01X1824600Y4517600D02*
X1839400Y4508000D01*
X1847900Y4495100D01*
X1850000Y4480600D01*
X1847900Y4467800D01*
X1837300Y4454900D01*
X1824600Y4446900D01*
X1811900Y4445300D01*
X1797100Y4448500D01*
X1786500Y4459700D01*
X1782300Y4471000D01*
Y4485500D01*
G01Y4471000D02*
X1775900Y4461300D01*
X1765300Y4453300D01*
X1752600Y4450100D01*
X1739900Y4453300D01*
X1729400Y4461300D01*
X1723000Y4475800D01*
X1725100Y4490300D01*
X1733600Y4504800D01*
G01X2233900Y1090000D02*
Y1217000D01*
X2193700D01*
X2180800Y1210600D01*
X2172800Y1202200D01*
X2169600Y1185200D01*
X2172800Y1168300D01*
X2182400Y1157700D01*
X2193700Y1151400D01*
X2233900D01*
G01X2193700D02*
X2169600Y1090000D01*
G01X2072300D02*
Y1217000D01*
X2091600Y1191600D01*
G01Y1090000D02*
X2053000D01*
G01X1978100Y1115400D02*
X1968500Y1100600D01*
X1955600Y1092100D01*
X1941100Y1090000D01*
X1928300Y1092100D01*
X1915400Y1102700D01*
X1907400Y1115400D01*
X1905800Y1128100D01*
X1909000Y1142900D01*
X1920200Y1153500D01*
X1931500Y1157700D01*
X1946000D01*
G01X1931500D02*
X1921800Y1164100D01*
X1913800Y1174700D01*
X1910600Y1187400D01*
X1913800Y1200100D01*
X1921800Y1210600D01*
X1936300Y1217000D01*
X1950800Y1214900D01*
X1965300Y1206400D01*
G01X2233900Y1450000D02*
Y1577000D01*
X2193700D01*
X2180800Y1570600D01*
X2172800Y1562200D01*
X2169600Y1545200D01*
X2172800Y1528300D01*
X2182400Y1517700D01*
X2193700Y1511400D01*
X2233900D01*
G01X2193700D02*
X2169600Y1450000D01*
G01X2072300D02*
Y1577000D01*
X2091600Y1551600D01*
G01Y1450000D02*
X2053000D01*
G01X1942800Y1577000D02*
X1955600Y1572800D01*
X1965300Y1562200D01*
X1971700Y1549500D01*
X1976500Y1532500D01*
X1978100Y1513500D01*
X1976500Y1494400D01*
X1971700Y1477500D01*
X1965300Y1464800D01*
X1955600Y1454200D01*
X1942800Y1450000D01*
X1929900Y1454200D01*
X1920200Y1464800D01*
X1913800Y1477500D01*
X1909000Y1494400D01*
X1907400Y1513500D01*
X1909000Y1532500D01*
X1913800Y1549500D01*
X1920200Y1562200D01*
X1929900Y1572800D01*
X1942800Y1577000D01*
G01X2233900Y1270000D02*
Y1397000D01*
X2193700D01*
X2180800Y1390600D01*
X2172800Y1382200D01*
X2169600Y1365200D01*
X2172800Y1348300D01*
X2182400Y1337700D01*
X2193700Y1331400D01*
X2233900D01*
G01X2193700D02*
X2169600Y1270000D01*
G01X2072300D02*
Y1397000D01*
X2091600Y1371600D01*
G01Y1270000D02*
X2053000D01*
G01X1923400D02*
Y1397000D01*
X1983000Y1306000D01*
X1902500D01*
G01X2243900Y1640000D02*
Y1767000D01*
X2203700D01*
X2190800Y1760600D01*
X2182800Y1752200D01*
X2179600Y1735200D01*
X2182800Y1718300D01*
X2192400Y1707700D01*
X2203700Y1701400D01*
X2243900D01*
G01X2203700D02*
X2179600Y1640000D01*
G01X2082300D02*
Y1767000D01*
X2101600Y1741600D01*
G01Y1640000D02*
X2063000D01*
G01X1983300Y1745800D02*
X1973700Y1758500D01*
X1962400Y1764900D01*
X1949500Y1767000D01*
X1933400Y1762800D01*
X1922200Y1752200D01*
X1919000Y1739500D01*
X1920600Y1726800D01*
X1927000Y1716200D01*
X1959200Y1695000D01*
X1973700Y1680200D01*
X1983300Y1659000D01*
X1986500Y1640000D01*
X1919000D01*
G01X2183900Y3760000D02*
Y3887000D01*
X2143700D01*
X2130800Y3880600D01*
X2122800Y3872200D01*
X2119600Y3855200D01*
X2122800Y3838300D01*
X2132400Y3827700D01*
X2143700Y3821400D01*
X2183900D01*
G01X2143700D02*
X2119600Y3760000D01*
G01X2052800Y3812900D02*
X2041600Y3827700D01*
X2031900Y3836200D01*
X2019000Y3840400D01*
X2007800Y3836200D01*
X1999700Y3827700D01*
X1993300Y3815000D01*
X1991700Y3800200D01*
X1993300Y3787500D01*
X1999700Y3774800D01*
X2009400Y3764200D01*
X2020600Y3760000D01*
X2033500Y3764200D01*
X2044800Y3776900D01*
X2051200Y3796000D01*
X2052800Y3817100D01*
X2049600Y3844700D01*
X2044800Y3859500D01*
X2036700Y3874300D01*
X2025500Y3884900D01*
X2014200Y3887000D01*
X2002900Y3882800D01*
X1994900Y3872200D01*
G01X1860000Y4343900D02*
X1733000D01*
Y4303700D01*
X1739400Y4290800D01*
X1747800Y4282800D01*
X1764800Y4279600D01*
X1781700Y4282800D01*
X1792300Y4292400D01*
X1798600Y4303700D01*
Y4343900D01*
G01Y4303700D02*
X1860000Y4279600D01*
G01Y4185500D02*
X1832500Y4182300D01*
X1809200Y4177400D01*
X1788000Y4171000D01*
X1764800Y4162900D01*
X1733000Y4150100D01*
Y4214400D01*
G01X2153900Y4930000D02*
Y5057000D01*
X2113700D01*
X2100800Y5050600D01*
X2092800Y5042200D01*
X2089600Y5025200D01*
X2092800Y5008300D01*
X2102400Y4997700D01*
X2113700Y4991400D01*
X2153900D01*
G01X2113700D02*
X2089600Y4930000D01*
G01X2027600Y4949000D02*
X2018000Y4938500D01*
X2006700Y4932100D01*
X1992300Y4930000D01*
X1977800Y4934200D01*
X1966500Y4942700D01*
X1958500Y4957500D01*
X1956900Y4974400D01*
X1960100Y4991400D01*
X1968100Y5002000D01*
X1979400Y5010400D01*
X1990600Y5012500D01*
X2001900Y5010400D01*
X2016400Y5002000D01*
X2011600Y5057000D01*
X1968100D01*
G01X2226400Y8696400D02*
X2236000Y8702800D01*
X2247300Y8707000D01*
X2260100D01*
X2274600Y8700600D01*
X2285900Y8690100D01*
X2293900Y8677400D01*
X2300400Y8656200D01*
X2302000Y8637100D01*
X2298700Y8618100D01*
X2293900Y8605400D01*
X2284300Y8592700D01*
X2273000Y8584200D01*
X2261800Y8580000D01*
X2250500D01*
X2239200Y8584200D01*
X2229600Y8590600D01*
X2221500Y8599000D01*
G01X2112900Y8580000D02*
Y8707000D01*
X2172500Y8616000D01*
X2092000D01*
G01X2033300Y8685800D02*
X2023700Y8698500D01*
X2012400Y8704900D01*
X1999500Y8707000D01*
X1983400Y8702800D01*
X1972200Y8692200D01*
X1969000Y8679500D01*
X1970600Y8666800D01*
X1977000Y8656200D01*
X2009200Y8635000D01*
X2023700Y8620200D01*
X2033300Y8599000D01*
X2036500Y8580000D01*
X1969000D01*
G01X2303900Y5797000D02*
Y5670000D01*
X2239600D01*
G01X2172800Y5722900D02*
X2161600Y5737700D01*
X2151900Y5746200D01*
X2139000Y5750400D01*
X2127800Y5746200D01*
X2119700Y5737700D01*
X2113300Y5725000D01*
X2111700Y5710200D01*
X2113300Y5697500D01*
X2119700Y5684800D01*
X2129400Y5674200D01*
X2140600Y5670000D01*
X2153500Y5674200D01*
X2164800Y5686900D01*
X2171200Y5706000D01*
X2172800Y5727100D01*
X2169600Y5754700D01*
X2164800Y5769500D01*
X2156700Y5784300D01*
X2145500Y5794900D01*
X2134200Y5797000D01*
X2122900Y5792800D01*
X2114900Y5782200D01*
G01X2516400Y1103600D02*
X2522800Y1094000D01*
X2527000Y1082700D01*
Y1069900D01*
X2520600Y1055400D01*
X2510100Y1044100D01*
X2497400Y1036100D01*
X2476200Y1029600D01*
X2457100Y1028000D01*
X2438100Y1031300D01*
X2425400Y1036100D01*
X2412700Y1045700D01*
X2404200Y1057000D01*
X2400000Y1068200D01*
Y1079500D01*
X2404200Y1090800D01*
X2410600Y1100400D01*
X2419000Y1108500D01*
G01X2400000Y1197700D02*
X2527000D01*
X2501600Y1178400D01*
G01X2400000D02*
Y1217000D01*
G01X2425400Y1291900D02*
X2410600Y1301500D01*
X2402100Y1314400D01*
X2400000Y1328900D01*
X2402100Y1341700D01*
X2412700Y1354600D01*
X2425400Y1362600D01*
X2438100Y1364200D01*
X2452900Y1361000D01*
X2463500Y1349800D01*
X2467700Y1338500D01*
Y1324000D01*
G01Y1338500D02*
X2474100Y1348200D01*
X2484700Y1356200D01*
X2497400Y1359400D01*
X2510100Y1356200D01*
X2520600Y1348200D01*
X2527000Y1333700D01*
X2524900Y1319200D01*
X2516400Y1304700D01*
G01Y1573600D02*
X2522800Y1564000D01*
X2527000Y1552700D01*
Y1539900D01*
X2520600Y1525400D01*
X2510100Y1514100D01*
X2497400Y1506100D01*
X2476200Y1499600D01*
X2457100Y1498000D01*
X2438100Y1501300D01*
X2425400Y1506100D01*
X2412700Y1515700D01*
X2404200Y1527000D01*
X2400000Y1538200D01*
Y1549500D01*
X2404200Y1560800D01*
X2410600Y1570400D01*
X2419000Y1578500D01*
G01X2400000Y1667700D02*
X2527000D01*
X2501600Y1648400D01*
G01X2400000D02*
Y1687000D01*
G01X2505800Y1766700D02*
X2518500Y1776300D01*
X2524900Y1787600D01*
X2527000Y1800500D01*
X2522800Y1816600D01*
X2512200Y1827800D01*
X2499500Y1831000D01*
X2486800Y1829400D01*
X2476200Y1823000D01*
X2455000Y1790800D01*
X2440200Y1776300D01*
X2419000Y1766700D01*
X2400000Y1763500D01*
Y1831000D01*
G01X2523900Y6337000D02*
Y6210000D01*
X2459600D01*
G01X2397600Y6229000D02*
X2388000Y6218500D01*
X2376700Y6212100D01*
X2362300Y6210000D01*
X2347800Y6214200D01*
X2336500Y6222700D01*
X2328500Y6237500D01*
X2326900Y6254400D01*
X2330100Y6271400D01*
X2338100Y6282000D01*
X2349400Y6290400D01*
X2360600Y6292500D01*
X2371900Y6290400D01*
X2386400Y6282000D01*
X2381600Y6337000D01*
X2338100D01*
G01X2726400Y4113600D02*
X2732800Y4104000D01*
X2737000Y4092700D01*
Y4079900D01*
X2730600Y4065400D01*
X2720100Y4054100D01*
X2707400Y4046100D01*
X2686200Y4039600D01*
X2667100Y4038000D01*
X2648100Y4041300D01*
X2635400Y4046100D01*
X2622700Y4055700D01*
X2614200Y4067000D01*
X2610000Y4078200D01*
Y4089500D01*
X2614200Y4100800D01*
X2620600Y4110400D01*
X2629000Y4118500D01*
G01X2610000Y4207700D02*
X2737000D01*
X2711600Y4188400D01*
G01X2610000D02*
Y4227000D01*
G01X2737000Y4337200D02*
X2732800Y4324400D01*
X2722200Y4314700D01*
X2709500Y4308300D01*
X2692500Y4303500D01*
X2673500Y4301900D01*
X2654400Y4303500D01*
X2637500Y4308300D01*
X2624800Y4314700D01*
X2614200Y4324400D01*
X2610000Y4337200D01*
X2614200Y4350100D01*
X2624800Y4359800D01*
X2637500Y4366200D01*
X2654400Y4371000D01*
X2673500Y4372600D01*
X2692500Y4371000D01*
X2709500Y4366200D01*
X2722200Y4359800D01*
X2732800Y4350100D01*
X2737000Y4337200D01*
G01X2726400Y4593600D02*
X2732800Y4584000D01*
X2737000Y4572700D01*
Y4559900D01*
X2730600Y4545400D01*
X2720100Y4534100D01*
X2707400Y4526100D01*
X2686200Y4519600D01*
X2667100Y4518000D01*
X2648100Y4521300D01*
X2635400Y4526100D01*
X2622700Y4535700D01*
X2614200Y4547000D01*
X2610000Y4558200D01*
Y4569500D01*
X2614200Y4580800D01*
X2620600Y4590400D01*
X2629000Y4598500D01*
G01X2610000Y4687700D02*
X2737000D01*
X2711600Y4668400D01*
G01X2610000D02*
Y4707000D01*
G01Y4817200D02*
X2737000D01*
X2711600Y4797900D01*
G01X2610000D02*
Y4836500D01*
G01X2996400Y3116400D02*
X3006000Y3122800D01*
X3017300Y3127000D01*
X3030100D01*
X3044600Y3120600D01*
X3055900Y3110100D01*
X3063900Y3097400D01*
X3070400Y3076200D01*
X3072000Y3057100D01*
X3068700Y3038100D01*
X3063900Y3025400D01*
X3054300Y3012700D01*
X3043000Y3004200D01*
X3031800Y3000000D01*
X3020500D01*
X3009200Y3004200D01*
X2999600Y3010600D01*
X2991500Y3019000D01*
G01X2937600Y3025400D02*
X2928000Y3010600D01*
X2915100Y3002100D01*
X2900600Y3000000D01*
X2887800Y3002100D01*
X2874900Y3012700D01*
X2866900Y3025400D01*
X2865300Y3038100D01*
X2868500Y3052900D01*
X2879700Y3063500D01*
X2891000Y3067700D01*
X2905500D01*
G01X2891000D02*
X2881300Y3074100D01*
X2873300Y3084700D01*
X2870100Y3097400D01*
X2873300Y3110100D01*
X2881300Y3120600D01*
X2895800Y3127000D01*
X2910300Y3124900D01*
X2924800Y3116400D01*
G01X2976400Y3616400D02*
X2986000Y3622800D01*
X2997300Y3627000D01*
X3010100D01*
X3024600Y3620600D01*
X3035900Y3610100D01*
X3043900Y3597400D01*
X3050400Y3576200D01*
X3052000Y3557100D01*
X3048700Y3538100D01*
X3043900Y3525400D01*
X3034300Y3512700D01*
X3023000Y3504200D01*
X3011800Y3500000D01*
X3000500D01*
X2989200Y3504200D01*
X2979600Y3510600D01*
X2971500Y3519000D01*
G01X2917600D02*
X2908000Y3508500D01*
X2896700Y3502100D01*
X2882300Y3500000D01*
X2867800Y3504200D01*
X2856500Y3512700D01*
X2848500Y3527500D01*
X2846900Y3544400D01*
X2850100Y3561400D01*
X2858100Y3572000D01*
X2869400Y3580400D01*
X2880600Y3582500D01*
X2891900Y3580400D01*
X2906400Y3572000D01*
X2901600Y3627000D01*
X2858100D01*
G01X3426400Y5436400D02*
X3436000Y5442800D01*
X3447300Y5447000D01*
X3460100D01*
X3474600Y5440600D01*
X3485900Y5430100D01*
X3493900Y5417400D01*
X3500400Y5396200D01*
X3502000Y5377100D01*
X3498700Y5358100D01*
X3493900Y5345400D01*
X3484300Y5332700D01*
X3473000Y5324200D01*
X3461800Y5320000D01*
X3450500D01*
X3439200Y5324200D01*
X3429600Y5330600D01*
X3421500Y5339000D01*
G01X3362800Y5425800D02*
X3353200Y5438500D01*
X3341900Y5444900D01*
X3329000Y5447000D01*
X3312900Y5442800D01*
X3301700Y5432200D01*
X3298500Y5419500D01*
X3300100Y5406800D01*
X3306500Y5396200D01*
X3338700Y5375000D01*
X3353200Y5360200D01*
X3362800Y5339000D01*
X3366000Y5320000D01*
X3298500D01*
G01X3238100Y5345400D02*
X3228500Y5330600D01*
X3215600Y5322100D01*
X3201100Y5320000D01*
X3188300Y5322100D01*
X3175400Y5332700D01*
X3167400Y5345400D01*
X3165800Y5358100D01*
X3169000Y5372900D01*
X3180200Y5383500D01*
X3191500Y5387700D01*
X3206000D01*
G01X3191500D02*
X3181800Y5394100D01*
X3173800Y5404700D01*
X3170600Y5417400D01*
X3173800Y5430100D01*
X3181800Y5440600D01*
X3196300Y5447000D01*
X3210800Y5444900D01*
X3225300Y5436400D01*
G01X3653900Y6020000D02*
Y6147000D01*
X3613700D01*
X3600800Y6140600D01*
X3592800Y6132200D01*
X3589600Y6115200D01*
X3592800Y6098300D01*
X3602400Y6087700D01*
X3613700Y6081400D01*
X3653900D01*
G01X3613700D02*
X3589600Y6020000D01*
G01X3472900D02*
Y6147000D01*
X3532500Y6056000D01*
X3452000D01*
G01X3366000Y6020000D02*
X3362800Y6047500D01*
X3357900Y6070800D01*
X3351500Y6092000D01*
X3343400Y6115200D01*
X3330600Y6147000D01*
X3394900D01*
G01X3586400Y6686400D02*
X3596000Y6692800D01*
X3607300Y6697000D01*
X3620100D01*
X3634600Y6690600D01*
X3645900Y6680100D01*
X3653900Y6667400D01*
X3660400Y6646200D01*
X3662000Y6627100D01*
X3658700Y6608100D01*
X3653900Y6595400D01*
X3644300Y6582700D01*
X3633000Y6574200D01*
X3621800Y6570000D01*
X3610500D01*
X3599200Y6574200D01*
X3589600Y6580600D01*
X3581500Y6589000D01*
G01X3527600Y6595400D02*
X3518000Y6580600D01*
X3505100Y6572100D01*
X3490600Y6570000D01*
X3477800Y6572100D01*
X3464900Y6582700D01*
X3456900Y6595400D01*
X3455300Y6608100D01*
X3458500Y6622900D01*
X3469700Y6633500D01*
X3481000Y6637700D01*
X3495500D01*
G01X3481000D02*
X3471300Y6644100D01*
X3463300Y6654700D01*
X3460100Y6667400D01*
X3463300Y6680100D01*
X3471300Y6690600D01*
X3485800Y6697000D01*
X3500300Y6694900D01*
X3514800Y6686400D01*
G01X3393300Y6675800D02*
X3383700Y6688500D01*
X3372400Y6694900D01*
X3359500Y6697000D01*
X3343400Y6692800D01*
X3332200Y6682200D01*
X3329000Y6669500D01*
X3330600Y6656800D01*
X3337000Y6646200D01*
X3369200Y6625000D01*
X3383700Y6610200D01*
X3393300Y6589000D01*
X3396500Y6570000D01*
X3329000D01*
G01X3220000Y8232900D02*
X3347000D01*
Y8265000D01*
X3340600Y8277900D01*
X3332200Y8287600D01*
X3319500Y8295600D01*
X3304700Y8302000D01*
X3283500Y8303600D01*
X3262300Y8302000D01*
X3247500Y8295600D01*
X3234800Y8287600D01*
X3226300Y8277900D01*
X3220000Y8265000D01*
Y8232900D01*
G01Y8397700D02*
X3222100Y8384900D01*
X3230600Y8373600D01*
X3243300Y8364000D01*
X3258100Y8357500D01*
X3275000Y8354300D01*
X3292000D01*
X3308900Y8357500D01*
X3323700Y8364000D01*
X3336400Y8373600D01*
X3344900Y8384900D01*
X3347000Y8397700D01*
X3344900Y8410600D01*
X3336400Y8421900D01*
X3323700Y8431500D01*
X3308900Y8438000D01*
X3292000Y8441200D01*
X3275000D01*
X3258100Y8438000D01*
X3243300Y8431500D01*
X3230600Y8421900D01*
X3222100Y8410600D01*
X3220000Y8397700D01*
G01Y8546600D02*
X3347000D01*
X3256000Y8487000D01*
Y8567500D01*
G01X3800700Y1374700D02*
X3771800Y1290000D01*
X3742800Y1374700D01*
G01X3642300Y1290000D02*
Y1417000D01*
X3661600Y1391600D01*
G01Y1290000D02*
X3623000D01*
G01X3512800Y1285800D02*
X3516000Y1287900D01*
Y1292100D01*
X3512800Y1294200D01*
X3509500Y1292100D01*
Y1287900D01*
X3512800Y1285800D01*
G01X3413800Y1395800D02*
X3404200Y1408500D01*
X3392900Y1414900D01*
X3380000Y1417000D01*
X3363900Y1412800D01*
X3352700Y1402200D01*
X3349500Y1389500D01*
X3351100Y1376800D01*
X3357500Y1366200D01*
X3389700Y1345000D01*
X3404200Y1330200D01*
X3413800Y1309000D01*
X3417000Y1290000D01*
X3349500D01*
G01X3470000Y8232900D02*
X3597000D01*
Y8265000D01*
X3590600Y8277900D01*
X3582200Y8287600D01*
X3569500Y8295600D01*
X3554700Y8302000D01*
X3533500Y8303600D01*
X3512300Y8302000D01*
X3497500Y8295600D01*
X3484800Y8287600D01*
X3476300Y8277900D01*
X3470000Y8265000D01*
Y8232900D01*
G01Y8397700D02*
X3472100Y8384900D01*
X3480600Y8373600D01*
X3493300Y8364000D01*
X3508100Y8357500D01*
X3525000Y8354300D01*
X3542000D01*
X3558900Y8357500D01*
X3573700Y8364000D01*
X3586400Y8373600D01*
X3594900Y8384900D01*
X3597000Y8397700D01*
X3594900Y8410600D01*
X3586400Y8421900D01*
X3573700Y8431500D01*
X3558900Y8438000D01*
X3542000Y8441200D01*
X3525000D01*
X3508100Y8438000D01*
X3493300Y8431500D01*
X3480600Y8421900D01*
X3472100Y8410600D01*
X3470000Y8397700D01*
G01X3495400Y8491900D02*
X3480600Y8501500D01*
X3472100Y8514400D01*
X3470000Y8528900D01*
X3472100Y8541700D01*
X3482700Y8554600D01*
X3495400Y8562600D01*
X3508100Y8564200D01*
X3522900Y8561000D01*
X3533500Y8549800D01*
X3537700Y8538500D01*
Y8524000D01*
G01Y8538500D02*
X3544100Y8548200D01*
X3554700Y8556200D01*
X3567400Y8559400D01*
X3580100Y8556200D01*
X3590600Y8548200D01*
X3597000Y8533700D01*
X3594900Y8519200D01*
X3586400Y8504700D01*
G01X3720000Y8232900D02*
X3847000D01*
Y8265000D01*
X3840600Y8277900D01*
X3832200Y8287600D01*
X3819500Y8295600D01*
X3804700Y8302000D01*
X3783500Y8303600D01*
X3762300Y8302000D01*
X3747500Y8295600D01*
X3734800Y8287600D01*
X3726300Y8277900D01*
X3720000Y8265000D01*
Y8232900D01*
G01Y8397700D02*
X3722100Y8384900D01*
X3730600Y8373600D01*
X3743300Y8364000D01*
X3758100Y8357500D01*
X3775000Y8354300D01*
X3792000D01*
X3808900Y8357500D01*
X3823700Y8364000D01*
X3836400Y8373600D01*
X3844900Y8384900D01*
X3847000Y8397700D01*
X3844900Y8410600D01*
X3836400Y8421900D01*
X3823700Y8431500D01*
X3808900Y8438000D01*
X3792000Y8441200D01*
X3775000D01*
X3758100Y8438000D01*
X3743300Y8431500D01*
X3730600Y8421900D01*
X3722100Y8410600D01*
X3720000Y8397700D01*
G01X3825800Y8496700D02*
X3838500Y8506300D01*
X3844900Y8517600D01*
X3847000Y8530500D01*
X3842800Y8546600D01*
X3832200Y8557800D01*
X3819500Y8561000D01*
X3806800Y8559400D01*
X3796200Y8553000D01*
X3775000Y8520800D01*
X3760200Y8506300D01*
X3739000Y8496700D01*
X3720000Y8493500D01*
Y8561000D01*
G01X4932300Y1135800D02*
X4922700Y1148500D01*
X4911400Y1154900D01*
X4898500Y1157000D01*
X4882400Y1152800D01*
X4871200Y1142200D01*
X4868000Y1129500D01*
X4869600Y1116800D01*
X4876000Y1106200D01*
X4908200Y1085000D01*
X4922700Y1070200D01*
X4932300Y1049000D01*
X4935500Y1030000D01*
X4868000D01*
G01X4772300Y1157000D02*
X4785100Y1152800D01*
X4794800Y1142200D01*
X4801200Y1129500D01*
X4806000Y1112500D01*
X4807600Y1093500D01*
X4806000Y1074400D01*
X4801200Y1057500D01*
X4794800Y1044800D01*
X4785100Y1034200D01*
X4772300Y1030000D01*
X4759400Y1034200D01*
X4749700Y1044800D01*
X4743300Y1057500D01*
X4738500Y1074400D01*
X4736900Y1093500D01*
X4738500Y1112500D01*
X4743300Y1129500D01*
X4749700Y1142200D01*
X4759400Y1152800D01*
X4772300Y1157000D01*
G01X4642800Y1030000D02*
Y1157000D01*
X4662100Y1131600D01*
G01Y1030000D02*
X4623500D01*
G01X4513300D02*
X4502000Y1032100D01*
X4489100Y1038500D01*
X4481100Y1049000D01*
X4477900Y1063900D01*
X4481100Y1078700D01*
X4490700Y1091400D01*
X4505200Y1097700D01*
X4521300D01*
X4530900Y1102000D01*
X4539000Y1112500D01*
X4542200Y1127400D01*
X4537400Y1142200D01*
X4526100Y1152800D01*
X4513300Y1157000D01*
X4500400Y1152800D01*
X4489100Y1142200D01*
X4484300Y1127400D01*
X4487500Y1112500D01*
X4495600Y1102000D01*
X4505200Y1097700D01*
X4521300D01*
X4535800Y1091400D01*
X4545400Y1078700D01*
X4548600Y1063900D01*
X4545400Y1049000D01*
X4537400Y1038500D01*
X4524500Y1032100D01*
X4513300Y1030000D01*
G01X4383800Y1157000D02*
X4396600Y1152800D01*
X4406300Y1142200D01*
X4412700Y1129500D01*
X4417500Y1112500D01*
X4419100Y1093500D01*
X4417500Y1074400D01*
X4412700Y1057500D01*
X4406300Y1044800D01*
X4396600Y1034200D01*
X4383800Y1030000D01*
X4370900Y1034200D01*
X4361200Y1044800D01*
X4354800Y1057500D01*
X4350000Y1074400D01*
X4348400Y1093500D01*
X4350000Y1112500D01*
X4354800Y1129500D01*
X4361200Y1142200D01*
X4370900Y1152800D01*
X4383800Y1157000D01*
G01X4281600Y1044800D02*
X4270300Y1034200D01*
X4257500Y1030000D01*
X4244600Y1034200D01*
X4233300Y1046900D01*
X4225300Y1066000D01*
X4222100Y1085000D01*
Y1108300D01*
X4225300Y1127400D01*
X4233300Y1144300D01*
X4243000Y1152800D01*
X4254300Y1157000D01*
X4267100Y1152800D01*
X4276800Y1144300D01*
X4283200Y1131600D01*
X4286400Y1114700D01*
X4283200Y1099900D01*
X4275200Y1085000D01*
X4265500Y1076600D01*
X4254300Y1074400D01*
X4241400Y1078700D01*
X4231700Y1089300D01*
X4222100Y1108300D01*
G01X4124800Y1157000D02*
X4137600Y1152800D01*
X4147300Y1142200D01*
X4153700Y1129500D01*
X4158500Y1112500D01*
X4160100Y1093500D01*
X4158500Y1074400D01*
X4153700Y1057500D01*
X4147300Y1044800D01*
X4137600Y1034200D01*
X4124800Y1030000D01*
X4111900Y1034200D01*
X4102200Y1044800D01*
X4095800Y1057500D01*
X4091000Y1074400D01*
X4089400Y1093500D01*
X4091000Y1112500D01*
X4095800Y1129500D01*
X4102200Y1142200D01*
X4111900Y1152800D01*
X4124800Y1157000D01*
G01X4030600Y1049000D02*
X4021000Y1038500D01*
X4009700Y1032100D01*
X3995300Y1030000D01*
X3980800Y1034200D01*
X3969500Y1042700D01*
X3961500Y1057500D01*
X3959900Y1074400D01*
X3963100Y1091400D01*
X3971100Y1102000D01*
X3982400Y1110400D01*
X3993600Y1112500D01*
X4004900Y1110400D01*
X4019400Y1102000D01*
X4014600Y1157000D01*
X3971100D01*
G01X4935500Y1306900D02*
X4922700Y1296300D01*
X4908200Y1290000D01*
X4895300D01*
X4882400Y1296300D01*
X4872800Y1306900D01*
X4868000Y1321800D01*
X4871200Y1336600D01*
X4879200Y1349300D01*
X4893700Y1357700D01*
X4913000Y1362000D01*
X4924300Y1370400D01*
X4929100Y1385200D01*
X4925900Y1400100D01*
X4917800Y1410600D01*
X4906600Y1417000D01*
X4895300D01*
X4884100Y1412800D01*
X4874400Y1402200D01*
G01X4806000Y1290000D02*
Y1417000D01*
G01X4738500D02*
Y1290000D01*
G01Y1353500D02*
X4806000D01*
G01X4663700Y1332300D02*
X4621800D01*
G01X4543800Y1417000D02*
X4482700D01*
X4543800Y1290000D01*
X4482700D01*
G01X4404700Y1332300D02*
X4362800D01*
G01X4254300Y1417000D02*
X4267100Y1412800D01*
X4276800Y1402200D01*
X4283200Y1389500D01*
X4288000Y1372500D01*
X4289600Y1353500D01*
X4288000Y1334400D01*
X4283200Y1317500D01*
X4276800Y1304800D01*
X4267100Y1294200D01*
X4254300Y1290000D01*
X4241400Y1294200D01*
X4231700Y1304800D01*
X4225300Y1317500D01*
X4220500Y1334400D01*
X4218900Y1353500D01*
X4220500Y1372500D01*
X4225300Y1389500D01*
X4231700Y1402200D01*
X4241400Y1412800D01*
X4254300Y1417000D01*
G01X4124800D02*
X4137600Y1412800D01*
X4147300Y1402200D01*
X4153700Y1389500D01*
X4158500Y1372500D01*
X4160100Y1353500D01*
X4158500Y1334400D01*
X4153700Y1317500D01*
X4147300Y1304800D01*
X4137600Y1294200D01*
X4124800Y1290000D01*
X4111900Y1294200D01*
X4102200Y1304800D01*
X4095800Y1317500D01*
X4091000Y1334400D01*
X4089400Y1353500D01*
X4091000Y1372500D01*
X4095800Y1389500D01*
X4102200Y1402200D01*
X4111900Y1412800D01*
X4124800Y1417000D01*
G01X4025800Y1395800D02*
X4016200Y1408500D01*
X4004900Y1414900D01*
X3992000Y1417000D01*
X3975900Y1412800D01*
X3964700Y1402200D01*
X3961500Y1389500D01*
X3963100Y1376800D01*
X3969500Y1366200D01*
X4001700Y1345000D01*
X4016200Y1330200D01*
X4025800Y1309000D01*
X4029000Y1290000D01*
X3961500D01*
G01X4263900Y3787000D02*
Y3660000D01*
X4199600D01*
G01X4132800Y3765800D02*
X4123200Y3778500D01*
X4111900Y3784900D01*
X4099000Y3787000D01*
X4082900Y3782800D01*
X4071700Y3772200D01*
X4068500Y3759500D01*
X4070100Y3746800D01*
X4076500Y3736200D01*
X4108700Y3715000D01*
X4123200Y3700200D01*
X4132800Y3679000D01*
X4136000Y3660000D01*
X4068500D01*
G01X3990000Y8232900D02*
X4117000D01*
Y8265000D01*
X4110600Y8277900D01*
X4102200Y8287600D01*
X4089500Y8295600D01*
X4074700Y8302000D01*
X4053500Y8303600D01*
X4032300Y8302000D01*
X4017500Y8295600D01*
X4004800Y8287600D01*
X3996300Y8277900D01*
X3990000Y8265000D01*
Y8232900D01*
G01Y8397700D02*
X3992100Y8384900D01*
X4000600Y8373600D01*
X4013300Y8364000D01*
X4028100Y8357500D01*
X4045000Y8354300D01*
X4062000D01*
X4078900Y8357500D01*
X4093700Y8364000D01*
X4106400Y8373600D01*
X4114900Y8384900D01*
X4117000Y8397700D01*
X4114900Y8410600D01*
X4106400Y8421900D01*
X4093700Y8431500D01*
X4078900Y8438000D01*
X4062000Y8441200D01*
X4045000D01*
X4028100Y8438000D01*
X4013300Y8431500D01*
X4000600Y8421900D01*
X3992100Y8410600D01*
X3990000Y8397700D01*
G01Y8527200D02*
X4117000D01*
X4091600Y8507900D01*
G01X3990000D02*
Y8546500D01*
G01X4433900Y3920000D02*
Y4047000D01*
X4393700D01*
X4380800Y4040600D01*
X4372800Y4032200D01*
X4369600Y4015200D01*
X4372800Y3998300D01*
X4382400Y3987700D01*
X4393700Y3981400D01*
X4433900D01*
G01X4393700D02*
X4369600Y3920000D01*
G01X4272300D02*
Y4047000D01*
X4291600Y4021600D01*
G01Y3920000D02*
X4253000D01*
G01X4533900Y5620000D02*
Y5747000D01*
X4493700D01*
X4480800Y5740600D01*
X4472800Y5732200D01*
X4469600Y5715200D01*
X4472800Y5698300D01*
X4482400Y5687700D01*
X4493700Y5681400D01*
X4533900D01*
G01X4493700D02*
X4469600Y5620000D01*
G01X4352900D02*
Y5747000D01*
X4412500Y5656000D01*
X4332000D01*
G01X4242800Y5620000D02*
X4231500Y5622100D01*
X4218600Y5628500D01*
X4210600Y5639000D01*
X4207400Y5653900D01*
X4210600Y5668700D01*
X4220200Y5681400D01*
X4234700Y5687700D01*
X4250800D01*
X4260400Y5692000D01*
X4268500Y5702500D01*
X4271700Y5717400D01*
X4266900Y5732200D01*
X4255600Y5742800D01*
X4242800Y5747000D01*
X4229900Y5742800D01*
X4218600Y5732200D01*
X4213800Y5717400D01*
X4217000Y5702500D01*
X4225100Y5692000D01*
X4234700Y5687700D01*
X4250800D01*
X4265300Y5681400D01*
X4274900Y5668700D01*
X4278100Y5653900D01*
X4274900Y5639000D01*
X4266900Y5628500D01*
X4254000Y5622100D01*
X4242800Y5620000D01*
G01X4596400Y4786400D02*
X4606000Y4792800D01*
X4617300Y4797000D01*
X4630100D01*
X4644600Y4790600D01*
X4655900Y4780100D01*
X4663900Y4767400D01*
X4670400Y4746200D01*
X4672000Y4727100D01*
X4668700Y4708100D01*
X4663900Y4695400D01*
X4654300Y4682700D01*
X4643000Y4674200D01*
X4631800Y4670000D01*
X4620500D01*
X4609200Y4674200D01*
X4599600Y4680600D01*
X4591500Y4689000D01*
G01X4505500Y4670000D02*
X4502300Y4697500D01*
X4497400Y4720800D01*
X4491000Y4742000D01*
X4482900Y4765200D01*
X4470100Y4797000D01*
X4534400D01*
G01X5126400Y5386400D02*
X5136000Y5392800D01*
X5147300Y5397000D01*
X5160100D01*
X5174600Y5390600D01*
X5185900Y5380100D01*
X5193900Y5367400D01*
X5200400Y5346200D01*
X5202000Y5327100D01*
X5198700Y5308100D01*
X5193900Y5295400D01*
X5184300Y5282700D01*
X5173000Y5274200D01*
X5161800Y5270000D01*
X5150500D01*
X5139200Y5274200D01*
X5129600Y5280600D01*
X5121500Y5289000D01*
G01X5012900Y5270000D02*
Y5397000D01*
X5072500Y5306000D01*
X4992000D01*
G01X4933300Y5322900D02*
X4922100Y5337700D01*
X4912400Y5346200D01*
X4899500Y5350400D01*
X4888300Y5346200D01*
X4880200Y5337700D01*
X4873800Y5325000D01*
X4872200Y5310200D01*
X4873800Y5297500D01*
X4880200Y5284800D01*
X4889900Y5274200D01*
X4901100Y5270000D01*
X4914000Y5274200D01*
X4925300Y5286900D01*
X4931700Y5306000D01*
X4933300Y5327100D01*
X4930100Y5354700D01*
X4925300Y5369500D01*
X4917200Y5384300D01*
X4906000Y5394900D01*
X4894700Y5397000D01*
X4883400Y5392800D01*
X4875400Y5382200D01*
G01X5166400Y5626400D02*
X5176000Y5632800D01*
X5187300Y5637000D01*
X5200100D01*
X5214600Y5630600D01*
X5225900Y5620100D01*
X5233900Y5607400D01*
X5240400Y5586200D01*
X5242000Y5567100D01*
X5238700Y5548100D01*
X5233900Y5535400D01*
X5224300Y5522700D01*
X5213000Y5514200D01*
X5201800Y5510000D01*
X5190500D01*
X5179200Y5514200D01*
X5169600Y5520600D01*
X5161500Y5529000D01*
G01X5052900Y5510000D02*
Y5637000D01*
X5112500Y5546000D01*
X5032000D01*
G01X4946000Y5510000D02*
X4942800Y5537500D01*
X4937900Y5560800D01*
X4931500Y5582000D01*
X4923400Y5605200D01*
X4910600Y5637000D01*
X4974900D01*
G01X5113900Y5840000D02*
Y5967000D01*
X5073700D01*
X5060800Y5960600D01*
X5052800Y5952200D01*
X5049600Y5935200D01*
X5052800Y5918300D01*
X5062400Y5907700D01*
X5073700Y5901400D01*
X5113900D01*
G01X5073700D02*
X5049600Y5840000D01*
G01X4982800Y5945800D02*
X4973200Y5958500D01*
X4961900Y5964900D01*
X4949000Y5967000D01*
X4932900Y5962800D01*
X4921700Y5952200D01*
X4918500Y5939500D01*
X4920100Y5926800D01*
X4926500Y5916200D01*
X4958700Y5895000D01*
X4973200Y5880200D01*
X4982800Y5859000D01*
X4986000Y5840000D01*
X4918500D01*
G01X4853300Y5945800D02*
X4843700Y5958500D01*
X4832400Y5964900D01*
X4819500Y5967000D01*
X4803400Y5962800D01*
X4792200Y5952200D01*
X4789000Y5939500D01*
X4790600Y5926800D01*
X4797000Y5916200D01*
X4829200Y5895000D01*
X4843700Y5880200D01*
X4853300Y5859000D01*
X4856500Y5840000D01*
X4789000D01*
G01X5113900Y6070000D02*
Y6197000D01*
X5073700D01*
X5060800Y6190600D01*
X5052800Y6182200D01*
X5049600Y6165200D01*
X5052800Y6148300D01*
X5062400Y6137700D01*
X5073700Y6131400D01*
X5113900D01*
G01X5073700D02*
X5049600Y6070000D01*
G01X4987600Y6095400D02*
X4978000Y6080600D01*
X4965100Y6072100D01*
X4950600Y6070000D01*
X4937800Y6072100D01*
X4924900Y6082700D01*
X4916900Y6095400D01*
X4915300Y6108100D01*
X4918500Y6122900D01*
X4929700Y6133500D01*
X4941000Y6137700D01*
X4955500D01*
G01X4941000D02*
X4931300Y6144100D01*
X4923300Y6154700D01*
X4920100Y6167400D01*
X4923300Y6180100D01*
X4931300Y6190600D01*
X4945800Y6197000D01*
X4960300Y6194900D01*
X4974800Y6186400D01*
G01X4822800Y6197000D02*
X4835600Y6192800D01*
X4845300Y6182200D01*
X4851700Y6169500D01*
X4856500Y6152500D01*
X4858100Y6133500D01*
X4856500Y6114400D01*
X4851700Y6097500D01*
X4845300Y6084800D01*
X4835600Y6074200D01*
X4822800Y6070000D01*
X4809900Y6074200D01*
X4800200Y6084800D01*
X4793800Y6097500D01*
X4789000Y6114400D01*
X4787400Y6133500D01*
X4789000Y6152500D01*
X4793800Y6169500D01*
X4800200Y6182200D01*
X4809900Y6192800D01*
X4822800Y6197000D01*
G01X5113900Y6300000D02*
Y6427000D01*
X5073700D01*
X5060800Y6420600D01*
X5052800Y6412200D01*
X5049600Y6395200D01*
X5052800Y6378300D01*
X5062400Y6367700D01*
X5073700Y6361400D01*
X5113900D01*
G01X5073700D02*
X5049600Y6300000D01*
G01X4987600Y6325400D02*
X4978000Y6310600D01*
X4965100Y6302100D01*
X4950600Y6300000D01*
X4937800Y6302100D01*
X4924900Y6312700D01*
X4916900Y6325400D01*
X4915300Y6338100D01*
X4918500Y6352900D01*
X4929700Y6363500D01*
X4941000Y6367700D01*
X4955500D01*
G01X4941000D02*
X4931300Y6374100D01*
X4923300Y6384700D01*
X4920100Y6397400D01*
X4923300Y6410100D01*
X4931300Y6420600D01*
X4945800Y6427000D01*
X4960300Y6424900D01*
X4974800Y6416400D01*
G01X4822800Y6300000D02*
X4811500Y6302100D01*
X4798600Y6308500D01*
X4790600Y6319000D01*
X4787400Y6333900D01*
X4790600Y6348700D01*
X4800200Y6361400D01*
X4814700Y6367700D01*
X4830800D01*
X4840400Y6372000D01*
X4848500Y6382500D01*
X4851700Y6397400D01*
X4846900Y6412200D01*
X4835600Y6422800D01*
X4822800Y6427000D01*
X4809900Y6422800D01*
X4798600Y6412200D01*
X4793800Y6397400D01*
X4797000Y6382500D01*
X4805100Y6372000D01*
X4814700Y6367700D01*
X4830800D01*
X4845300Y6361400D01*
X4854900Y6348700D01*
X4858100Y6333900D01*
X4854900Y6319000D01*
X4846900Y6308500D01*
X4834000Y6302100D01*
X4822800Y6300000D01*
G01X5373900Y2550000D02*
Y2677000D01*
X5333700D01*
X5320800Y2670600D01*
X5312800Y2662200D01*
X5309600Y2645200D01*
X5312800Y2628300D01*
X5322400Y2617700D01*
X5333700Y2611400D01*
X5373900D01*
G01X5333700D02*
X5309600Y2550000D01*
G01X5212300D02*
Y2677000D01*
X5231600Y2651600D01*
G01Y2550000D02*
X5193000D01*
G01X5110100Y2564800D02*
X5098800Y2554200D01*
X5086000Y2550000D01*
X5073100Y2554200D01*
X5061800Y2566900D01*
X5053800Y2586000D01*
X5050600Y2605000D01*
Y2628300D01*
X5053800Y2647400D01*
X5061800Y2664300D01*
X5071500Y2672800D01*
X5082800Y2677000D01*
X5095600Y2672800D01*
X5105300Y2664300D01*
X5111700Y2651600D01*
X5114900Y2634700D01*
X5111700Y2619900D01*
X5103700Y2605000D01*
X5094000Y2596600D01*
X5082800Y2594400D01*
X5069900Y2598700D01*
X5060200Y2609300D01*
X5050600Y2628300D01*
G01X5216400Y2966400D02*
X5226000Y2972800D01*
X5237300Y2977000D01*
X5250100D01*
X5264600Y2970600D01*
X5275900Y2960100D01*
X5283900Y2947400D01*
X5290400Y2926200D01*
X5292000Y2907100D01*
X5288700Y2888100D01*
X5283900Y2875400D01*
X5274300Y2862700D01*
X5263000Y2854200D01*
X5251800Y2850000D01*
X5240500D01*
X5229200Y2854200D01*
X5219600Y2860600D01*
X5211500Y2869000D01*
G01X5102900Y2850000D02*
Y2977000D01*
X5162500Y2886000D01*
X5082000D01*
G01X4992800Y2850000D02*
X4981500Y2852100D01*
X4968600Y2858500D01*
X4960600Y2869000D01*
X4957400Y2883900D01*
X4960600Y2898700D01*
X4970200Y2911400D01*
X4984700Y2917700D01*
X5000800D01*
X5010400Y2922000D01*
X5018500Y2932500D01*
X5021700Y2947400D01*
X5016900Y2962200D01*
X5005600Y2972800D01*
X4992800Y2977000D01*
X4979900Y2972800D01*
X4968600Y2962200D01*
X4963800Y2947400D01*
X4967000Y2932500D01*
X4975100Y2922000D01*
X4984700Y2917700D01*
X5000800D01*
X5015300Y2911400D01*
X5024900Y2898700D01*
X5028100Y2883900D01*
X5024900Y2869000D01*
X5016900Y2858500D01*
X5004000Y2852100D01*
X4992800Y2850000D01*
G01X5203900Y4300000D02*
Y4427000D01*
X5163700D01*
X5150800Y4420600D01*
X5142800Y4412200D01*
X5139600Y4395200D01*
X5142800Y4378300D01*
X5152400Y4367700D01*
X5163700Y4361400D01*
X5203900D01*
G01X5163700D02*
X5139600Y4300000D01*
G01X5072800Y4405800D02*
X5063200Y4418500D01*
X5051900Y4424900D01*
X5039000Y4427000D01*
X5022900Y4422800D01*
X5011700Y4412200D01*
X5008500Y4399500D01*
X5010100Y4386800D01*
X5016500Y4376200D01*
X5048700Y4355000D01*
X5063200Y4340200D01*
X5072800Y4319000D01*
X5076000Y4300000D01*
X5008500D01*
G01X5256400Y4966400D02*
X5266000Y4972800D01*
X5277300Y4977000D01*
X5290100D01*
X5304600Y4970600D01*
X5315900Y4960100D01*
X5323900Y4947400D01*
X5330400Y4926200D01*
X5332000Y4907100D01*
X5328700Y4888100D01*
X5323900Y4875400D01*
X5314300Y4862700D01*
X5303000Y4854200D01*
X5291800Y4850000D01*
X5280500D01*
X5269200Y4854200D01*
X5259600Y4860600D01*
X5251500Y4869000D01*
G01X5142900Y4850000D02*
Y4977000D01*
X5202500Y4886000D01*
X5122000D01*
G01X5013400Y4850000D02*
Y4977000D01*
X5073000Y4886000D01*
X4992500D01*
G01X5523900Y6740000D02*
Y6867000D01*
X5483700D01*
X5470800Y6860600D01*
X5462800Y6852200D01*
X5459600Y6835200D01*
X5462800Y6818300D01*
X5472400Y6807700D01*
X5483700Y6801400D01*
X5523900D01*
G01X5483700D02*
X5459600Y6740000D01*
G01X5342900D02*
Y6867000D01*
X5402500Y6776000D01*
X5322000D01*
G01X5232800Y6867000D02*
X5245600Y6862800D01*
X5255300Y6852200D01*
X5261700Y6839500D01*
X5266500Y6822500D01*
X5268100Y6803500D01*
X5266500Y6784400D01*
X5261700Y6767500D01*
X5255300Y6754800D01*
X5245600Y6744200D01*
X5232800Y6740000D01*
X5219900Y6744200D01*
X5210200Y6754800D01*
X5203800Y6767500D01*
X5199000Y6784400D01*
X5197400Y6803500D01*
X5199000Y6822500D01*
X5203800Y6839500D01*
X5210200Y6852200D01*
X5219900Y6862800D01*
X5232800Y6867000D01*
G01X5755500Y7286900D02*
X5742700Y7276300D01*
X5728200Y7270000D01*
X5715300D01*
X5702400Y7276300D01*
X5692800Y7286900D01*
X5688000Y7301800D01*
X5691200Y7316600D01*
X5699200Y7329300D01*
X5713700Y7337700D01*
X5733000Y7342000D01*
X5744300Y7350400D01*
X5749100Y7365200D01*
X5745900Y7380100D01*
X5737800Y7390600D01*
X5726600Y7397000D01*
X5715300D01*
X5704100Y7392800D01*
X5694400Y7382200D01*
G01X5640500Y7397000D02*
X5618000Y7270000D01*
X5592300Y7397000D01*
X5566500Y7270000D01*
X5544000Y7397000D01*
G01X5498100Y7270000D02*
Y7397000D01*
X5466000D01*
X5453100Y7390600D01*
X5443400Y7382200D01*
X5435400Y7369500D01*
X5429000Y7354700D01*
X5427400Y7333500D01*
X5429000Y7312300D01*
X5435400Y7297500D01*
X5443400Y7284800D01*
X5453100Y7276300D01*
X5466000Y7270000D01*
X5498100D01*
G01X5352600Y7397000D02*
X5314000D01*
G01X5333300D02*
Y7270000D01*
G01X5352600D02*
X5314000D01*
G01X5203800D02*
X5216600Y7272100D01*
X5227900Y7280600D01*
X5237500Y7293300D01*
X5244000Y7308100D01*
X5247200Y7325000D01*
Y7342000D01*
X5244000Y7358900D01*
X5237500Y7373700D01*
X5227900Y7386400D01*
X5216600Y7394900D01*
X5203800Y7397000D01*
X5190900Y7394900D01*
X5179600Y7386400D01*
X5170000Y7373700D01*
X5163500Y7358900D01*
X5160300Y7342000D01*
Y7325000D01*
X5163500Y7308100D01*
X5170000Y7293300D01*
X5179600Y7280600D01*
X5190900Y7272100D01*
X5203800Y7270000D01*
G01X5755500Y7536900D02*
X5742700Y7526300D01*
X5728200Y7520000D01*
X5715300D01*
X5702400Y7526300D01*
X5692800Y7536900D01*
X5688000Y7551800D01*
X5691200Y7566600D01*
X5699200Y7579300D01*
X5713700Y7587700D01*
X5733000Y7592000D01*
X5744300Y7600400D01*
X5749100Y7615200D01*
X5745900Y7630100D01*
X5737800Y7640600D01*
X5726600Y7647000D01*
X5715300D01*
X5704100Y7642800D01*
X5694400Y7632200D01*
G01X5640500Y7647000D02*
X5618000Y7520000D01*
X5592300Y7647000D01*
X5566500Y7520000D01*
X5544000Y7647000D01*
G01X5427400Y7636400D02*
X5437000Y7642800D01*
X5448300Y7647000D01*
X5461100D01*
X5475600Y7640600D01*
X5486900Y7630100D01*
X5494900Y7617400D01*
X5501400Y7596200D01*
X5503000Y7577100D01*
X5499700Y7558100D01*
X5494900Y7545400D01*
X5485300Y7532700D01*
X5474000Y7524200D01*
X5462800Y7520000D01*
X5451500D01*
X5440200Y7524200D01*
X5430600Y7530600D01*
X5422500Y7539000D01*
G01X5365400Y7647000D02*
Y7520000D01*
X5301100D01*
G01X5239100D02*
Y7647000D01*
G01X5178000D02*
X5239100Y7568700D01*
G01X5168400Y7520000D02*
X5211800Y7604700D01*
G01X5777100Y1125400D02*
X5767500Y1110600D01*
X5754600Y1102100D01*
X5740100Y1100000D01*
X5727300Y1102100D01*
X5714400Y1112700D01*
X5706400Y1125400D01*
X5704800Y1138100D01*
X5708000Y1152900D01*
X5719200Y1163500D01*
X5730500Y1167700D01*
X5745000D01*
G01X5730500D02*
X5720800Y1174100D01*
X5712800Y1184700D01*
X5709600Y1197400D01*
X5712800Y1210100D01*
X5720800Y1220600D01*
X5735300Y1227000D01*
X5749800Y1224900D01*
X5764300Y1216400D01*
G01X5612300Y1095800D02*
X5615500Y1097900D01*
Y1102100D01*
X5612300Y1104200D01*
X5609000Y1102100D01*
Y1097900D01*
X5612300Y1095800D01*
G01X5518100Y1125400D02*
X5508500Y1110600D01*
X5495600Y1102100D01*
X5481100Y1100000D01*
X5468300Y1102100D01*
X5455400Y1112700D01*
X5447400Y1125400D01*
X5445800Y1138100D01*
X5449000Y1152900D01*
X5460200Y1163500D01*
X5471500Y1167700D01*
X5486000D01*
G01X5471500D02*
X5461800Y1174100D01*
X5453800Y1184700D01*
X5450600Y1197400D01*
X5453800Y1210100D01*
X5461800Y1220600D01*
X5476300Y1227000D01*
X5490800Y1224900D01*
X5505300Y1216400D01*
G01X5705500Y7806900D02*
X5692700Y7796300D01*
X5678200Y7790000D01*
X5665300D01*
X5652400Y7796300D01*
X5642800Y7806900D01*
X5638000Y7821800D01*
X5641200Y7836600D01*
X5649200Y7849300D01*
X5663700Y7857700D01*
X5683000Y7862000D01*
X5694300Y7870400D01*
X5699100Y7885200D01*
X5695900Y7900100D01*
X5687800Y7910600D01*
X5676600Y7917000D01*
X5665300D01*
X5654100Y7912800D01*
X5644400Y7902200D01*
G01X5590500Y7917000D02*
X5568000Y7790000D01*
X5542300Y7917000D01*
X5516500Y7790000D01*
X5494000Y7917000D01*
G01X5412800Y7790000D02*
X5425600Y7792100D01*
X5436900Y7800600D01*
X5446500Y7813300D01*
X5453000Y7828100D01*
X5456200Y7845000D01*
Y7862000D01*
X5453000Y7878900D01*
X5446500Y7893700D01*
X5436900Y7906400D01*
X5425600Y7914900D01*
X5412800Y7917000D01*
X5399900Y7914900D01*
X5388600Y7906400D01*
X5379000Y7893700D01*
X5372500Y7878900D01*
X5369300Y7862000D01*
Y7845000D01*
X5372500Y7828100D01*
X5379000Y7813300D01*
X5388600Y7800600D01*
X5399900Y7792100D01*
X5412800Y7790000D01*
G01X5766400Y3656400D02*
X5776000Y3662800D01*
X5787300Y3667000D01*
X5800100D01*
X5814600Y3660600D01*
X5825900Y3650100D01*
X5833900Y3637400D01*
X5840400Y3616200D01*
X5842000Y3597100D01*
X5838700Y3578100D01*
X5833900Y3565400D01*
X5824300Y3552700D01*
X5813000Y3544200D01*
X5801800Y3540000D01*
X5790500D01*
X5779200Y3544200D01*
X5769600Y3550600D01*
X5761500Y3559000D01*
G01X5672300Y3540000D02*
Y3667000D01*
X5691600Y3641600D01*
G01Y3540000D02*
X5653000D01*
G01X5833900Y3820000D02*
Y3947000D01*
X5793700D01*
X5780800Y3940600D01*
X5772800Y3932200D01*
X5769600Y3915200D01*
X5772800Y3898300D01*
X5782400Y3887700D01*
X5793700Y3881400D01*
X5833900D01*
G01X5793700D02*
X5769600Y3820000D01*
G01X5652900D02*
Y3947000D01*
X5712500Y3856000D01*
X5632000D01*
G01X6096400Y5186400D02*
X6106000Y5192800D01*
X6117300Y5197000D01*
X6130100D01*
X6144600Y5190600D01*
X6155900Y5180100D01*
X6163900Y5167400D01*
X6170400Y5146200D01*
X6172000Y5127100D01*
X6168700Y5108100D01*
X6163900Y5095400D01*
X6154300Y5082700D01*
X6143000Y5074200D01*
X6131800Y5070000D01*
X6120500D01*
X6109200Y5074200D01*
X6099600Y5080600D01*
X6091500Y5089000D01*
G01X5982900Y5070000D02*
Y5197000D01*
X6042500Y5106000D01*
X5962000D01*
G01X5908100Y5089000D02*
X5898500Y5078500D01*
X5887200Y5072100D01*
X5872800Y5070000D01*
X5858300Y5074200D01*
X5847000Y5082700D01*
X5839000Y5097500D01*
X5837400Y5114400D01*
X5840600Y5131400D01*
X5848600Y5142000D01*
X5859900Y5150400D01*
X5871100Y5152500D01*
X5882400Y5150400D01*
X5896900Y5142000D01*
X5892100Y5197000D01*
X5848600D01*
G01X6362300Y1205800D02*
X6352700Y1218500D01*
X6341400Y1224900D01*
X6328500Y1227000D01*
X6312400Y1222800D01*
X6301200Y1212200D01*
X6298000Y1199500D01*
X6299600Y1186800D01*
X6306000Y1176200D01*
X6338200Y1155000D01*
X6352700Y1140200D01*
X6362300Y1119000D01*
X6365500Y1100000D01*
X6298000D01*
G01X6182900D02*
Y1227000D01*
X6242500Y1136000D01*
X6162000D01*
G01X6436400Y2536400D02*
X6446000Y2542800D01*
X6457300Y2547000D01*
X6470100D01*
X6484600Y2540600D01*
X6495900Y2530100D01*
X6503900Y2517400D01*
X6510400Y2496200D01*
X6512000Y2477100D01*
X6508700Y2458100D01*
X6503900Y2445400D01*
X6494300Y2432700D01*
X6483000Y2424200D01*
X6471800Y2420000D01*
X6460500D01*
X6449200Y2424200D01*
X6439600Y2430600D01*
X6431500Y2439000D01*
G01X6342300Y2420000D02*
Y2547000D01*
X6361600Y2521600D01*
G01Y2420000D02*
X6323000D01*
G01X6240100Y2434800D02*
X6228800Y2424200D01*
X6216000Y2420000D01*
X6203100Y2424200D01*
X6191800Y2436900D01*
X6183800Y2456000D01*
X6180600Y2475000D01*
Y2498300D01*
X6183800Y2517400D01*
X6191800Y2534300D01*
X6201500Y2542800D01*
X6212800Y2547000D01*
X6225600Y2542800D01*
X6235300Y2534300D01*
X6241700Y2521600D01*
X6244900Y2504700D01*
X6241700Y2489900D01*
X6233700Y2475000D01*
X6224000Y2466600D01*
X6212800Y2464400D01*
X6199900Y2468700D01*
X6190200Y2479300D01*
X6180600Y2498300D01*
G01X6583900Y6920000D02*
Y7047000D01*
X6543700D01*
X6530800Y7040600D01*
X6522800Y7032200D01*
X6519600Y7015200D01*
X6522800Y6998300D01*
X6532400Y6987700D01*
X6543700Y6981400D01*
X6583900D01*
G01X6543700D02*
X6519600Y6920000D01*
G01X6402900D02*
Y7047000D01*
X6462500Y6956000D01*
X6382000D01*
G01X6292800Y6920000D02*
Y7047000D01*
X6312100Y7021600D01*
G01Y6920000D02*
X6273500D01*
G01X6662100Y7343500D02*
X6629900D01*
Y7305400D01*
X6639600Y7292700D01*
X6650800Y7284200D01*
X6666900Y7280000D01*
X6683000Y7284200D01*
X6694300Y7292700D01*
X6703900Y7305400D01*
X6710400Y7320200D01*
X6713600Y7337100D01*
Y7352000D01*
X6710400Y7364700D01*
X6703900Y7379500D01*
X6694300Y7392200D01*
X6684600Y7400600D01*
X6671800Y7407000D01*
X6660500D01*
X6647600Y7402800D01*
X6638000Y7394300D01*
G01X6579200Y7280000D02*
Y7407000D01*
X6505300Y7280000D01*
Y7407000D01*
G01X6448100Y7280000D02*
Y7407000D01*
X6416000D01*
X6403100Y7400600D01*
X6393400Y7392200D01*
X6385400Y7379500D01*
X6379000Y7364700D01*
X6377400Y7343500D01*
X6379000Y7322300D01*
X6385400Y7307500D01*
X6393400Y7294800D01*
X6403100Y7286300D01*
X6416000Y7280000D01*
X6448100D01*
G01X6722000Y7657000D02*
X6681800Y7530000D01*
X6641500Y7657000D01*
G01X6516900Y7646400D02*
X6526500Y7652800D01*
X6537800Y7657000D01*
X6550600D01*
X6565100Y7650600D01*
X6576400Y7640100D01*
X6584400Y7627400D01*
X6590900Y7606200D01*
X6592500Y7587100D01*
X6589200Y7568100D01*
X6584400Y7555400D01*
X6574800Y7542700D01*
X6563500Y7534200D01*
X6552300Y7530000D01*
X6541000D01*
X6529700Y7534200D01*
X6520100Y7540600D01*
X6512000Y7549000D01*
G01X6387400Y7646400D02*
X6397000Y7652800D01*
X6408300Y7657000D01*
X6421100D01*
X6435600Y7650600D01*
X6446900Y7640100D01*
X6454900Y7627400D01*
X6461400Y7606200D01*
X6463000Y7587100D01*
X6459700Y7568100D01*
X6454900Y7555400D01*
X6445300Y7542700D01*
X6434000Y7534200D01*
X6422800Y7530000D01*
X6411500D01*
X6400200Y7534200D01*
X6390600Y7540600D01*
X6382500Y7549000D01*
G01X6703900Y7770000D02*
Y7897000D01*
X6663700D01*
X6650800Y7890600D01*
X6642800Y7882200D01*
X6639600Y7865200D01*
X6642800Y7848300D01*
X6652400Y7837700D01*
X6663700Y7831400D01*
X6703900D01*
G01X6663700D02*
X6639600Y7770000D01*
G01X6576000Y7786900D02*
X6563200Y7776300D01*
X6548700Y7770000D01*
X6535800D01*
X6522900Y7776300D01*
X6513300Y7786900D01*
X6508500Y7801800D01*
X6511700Y7816600D01*
X6519700Y7829300D01*
X6534200Y7837700D01*
X6553500Y7842000D01*
X6564800Y7850400D01*
X6569600Y7865200D01*
X6566400Y7880100D01*
X6558300Y7890600D01*
X6547100Y7897000D01*
X6535800D01*
X6524600Y7892800D01*
X6514900Y7882200D01*
G01X6412800Y7897000D02*
Y7770000D01*
G01X6449700Y7897000D02*
X6375800D01*
G01X6952100Y1823500D02*
X6919900D01*
Y1785400D01*
X6929600Y1772700D01*
X6940800Y1764200D01*
X6956900Y1760000D01*
X6973000Y1764200D01*
X6984300Y1772700D01*
X6993900Y1785400D01*
X7000400Y1800200D01*
X7003600Y1817100D01*
Y1832000D01*
X7000400Y1844700D01*
X6993900Y1859500D01*
X6984300Y1872200D01*
X6974600Y1880600D01*
X6961800Y1887000D01*
X6950500D01*
X6937600Y1882800D01*
X6928000Y1874300D01*
G01X6869200Y1760000D02*
Y1887000D01*
X6795300Y1760000D01*
Y1887000D01*
G01X6738100Y1760000D02*
Y1887000D01*
X6706000D01*
X6693100Y1880600D01*
X6683400Y1872200D01*
X6675400Y1859500D01*
X6669000Y1844700D01*
X6667400Y1823500D01*
X6669000Y1802300D01*
X6675400Y1787500D01*
X6683400Y1774800D01*
X6693100Y1766300D01*
X6706000Y1760000D01*
X6738100D01*
G01X7053900Y5930000D02*
Y6057000D01*
X7013700D01*
X7000800Y6050600D01*
X6992800Y6042200D01*
X6989600Y6025200D01*
X6992800Y6008300D01*
X7002400Y5997700D01*
X7013700Y5991400D01*
X7053900D01*
G01X7013700D02*
X6989600Y5930000D01*
G01X6922800Y6035800D02*
X6913200Y6048500D01*
X6901900Y6054900D01*
X6889000Y6057000D01*
X6872900Y6052800D01*
X6861700Y6042200D01*
X6858500Y6029500D01*
X6860100Y6016800D01*
X6866500Y6006200D01*
X6898700Y5985000D01*
X6913200Y5970200D01*
X6922800Y5949000D01*
X6926000Y5930000D01*
X6858500D01*
G01X6798100Y5955400D02*
X6788500Y5940600D01*
X6775600Y5932100D01*
X6761100Y5930000D01*
X6748300Y5932100D01*
X6735400Y5942700D01*
X6727400Y5955400D01*
X6725800Y5968100D01*
X6729000Y5982900D01*
X6740200Y5993500D01*
X6751500Y5997700D01*
X6766000D01*
G01X6751500D02*
X6741800Y6004100D01*
X6733800Y6014700D01*
X6730600Y6027400D01*
X6733800Y6040100D01*
X6741800Y6050600D01*
X6756300Y6057000D01*
X6770800Y6054900D01*
X6785300Y6046400D01*
G01X7043900Y6180000D02*
Y6307000D01*
X7003700D01*
X6990800Y6300600D01*
X6982800Y6292200D01*
X6979600Y6275200D01*
X6982800Y6258300D01*
X6992400Y6247700D01*
X7003700Y6241400D01*
X7043900D01*
G01X7003700D02*
X6979600Y6180000D01*
G01X6917600Y6205400D02*
X6908000Y6190600D01*
X6895100Y6182100D01*
X6880600Y6180000D01*
X6867800Y6182100D01*
X6854900Y6192700D01*
X6846900Y6205400D01*
X6845300Y6218100D01*
X6848500Y6232900D01*
X6859700Y6243500D01*
X6871000Y6247700D01*
X6885500D01*
G01X6871000D02*
X6861300Y6254100D01*
X6853300Y6264700D01*
X6850100Y6277400D01*
X6853300Y6290100D01*
X6861300Y6300600D01*
X6875800Y6307000D01*
X6890300Y6304900D01*
X6904800Y6296400D01*
G01X6752800Y6180000D02*
Y6307000D01*
X6772100Y6281600D01*
G01Y6180000D02*
X6733500D01*
G01X7043900Y6420000D02*
Y6547000D01*
X7003700D01*
X6990800Y6540600D01*
X6982800Y6532200D01*
X6979600Y6515200D01*
X6982800Y6498300D01*
X6992400Y6487700D01*
X7003700Y6481400D01*
X7043900D01*
G01X7003700D02*
X6979600Y6420000D01*
G01X6917600Y6445400D02*
X6908000Y6430600D01*
X6895100Y6422100D01*
X6880600Y6420000D01*
X6867800Y6422100D01*
X6854900Y6432700D01*
X6846900Y6445400D01*
X6845300Y6458100D01*
X6848500Y6472900D01*
X6859700Y6483500D01*
X6871000Y6487700D01*
X6885500D01*
G01X6871000D02*
X6861300Y6494100D01*
X6853300Y6504700D01*
X6850100Y6517400D01*
X6853300Y6530100D01*
X6861300Y6540600D01*
X6875800Y6547000D01*
X6890300Y6544900D01*
X6904800Y6536400D01*
G01X6780100Y6434800D02*
X6768800Y6424200D01*
X6756000Y6420000D01*
X6743100Y6424200D01*
X6731800Y6436900D01*
X6723800Y6456000D01*
X6720600Y6475000D01*
Y6498300D01*
X6723800Y6517400D01*
X6731800Y6534300D01*
X6741500Y6542800D01*
X6752800Y6547000D01*
X6765600Y6542800D01*
X6775300Y6534300D01*
X6781700Y6521600D01*
X6784900Y6504700D01*
X6781700Y6489900D01*
X6773700Y6475000D01*
X6764000Y6466600D01*
X6752800Y6464400D01*
X6739900Y6468700D01*
X6730200Y6479300D01*
X6720600Y6498300D01*
G01X7257100Y1520000D02*
Y1647000D01*
X7225000D01*
X7212100Y1640600D01*
X7202400Y1632200D01*
X7194400Y1619500D01*
X7188000Y1604700D01*
X7186400Y1583500D01*
X7188000Y1562300D01*
X7194400Y1547500D01*
X7202400Y1534800D01*
X7212100Y1526300D01*
X7225000Y1520000D01*
X7257100D01*
G01X7092300D02*
Y1647000D01*
X7111600Y1621600D01*
G01Y1520000D02*
X7073000D01*
G01X7247100Y2300000D02*
Y2427000D01*
X7215000D01*
X7202100Y2420600D01*
X7192400Y2412200D01*
X7184400Y2399500D01*
X7178000Y2384700D01*
X7176400Y2363500D01*
X7178000Y2342300D01*
X7184400Y2327500D01*
X7192400Y2314800D01*
X7202100Y2306300D01*
X7215000Y2300000D01*
X7247100D01*
G01X7112800Y2405800D02*
X7103200Y2418500D01*
X7091900Y2424900D01*
X7079000Y2427000D01*
X7062900Y2422800D01*
X7051700Y2412200D01*
X7048500Y2399500D01*
X7050100Y2386800D01*
X7056500Y2376200D01*
X7088700Y2355000D01*
X7103200Y2340200D01*
X7112800Y2319000D01*
X7116000Y2300000D01*
X7048500D01*
G01X7217100Y3090000D02*
Y3217000D01*
X7185000D01*
X7172100Y3210600D01*
X7162400Y3202200D01*
X7154400Y3189500D01*
X7148000Y3174700D01*
X7146400Y3153500D01*
X7148000Y3132300D01*
X7154400Y3117500D01*
X7162400Y3104800D01*
X7172100Y3096300D01*
X7185000Y3090000D01*
X7217100D01*
G01X7087600Y3115400D02*
X7078000Y3100600D01*
X7065100Y3092100D01*
X7050600Y3090000D01*
X7037800Y3092100D01*
X7024900Y3102700D01*
X7016900Y3115400D01*
X7015300Y3128100D01*
X7018500Y3142900D01*
X7029700Y3153500D01*
X7041000Y3157700D01*
X7055500D01*
G01X7041000D02*
X7031300Y3164100D01*
X7023300Y3174700D01*
X7020100Y3187400D01*
X7023300Y3200100D01*
X7031300Y3210600D01*
X7045800Y3217000D01*
X7060300Y3214900D01*
X7074800Y3206400D01*
G01X7177100Y3890000D02*
Y4017000D01*
X7145000D01*
X7132100Y4010600D01*
X7122400Y4002200D01*
X7114400Y3989500D01*
X7108000Y3974700D01*
X7106400Y3953500D01*
X7108000Y3932300D01*
X7114400Y3917500D01*
X7122400Y3904800D01*
X7132100Y3896300D01*
X7145000Y3890000D01*
X7177100D01*
G01X6992900D02*
Y4017000D01*
X7052500Y3926000D01*
X6972000D01*
G01X7427100Y5210000D02*
Y5337000D01*
X7395000D01*
X7382100Y5330600D01*
X7372400Y5322200D01*
X7364400Y5309500D01*
X7358000Y5294700D01*
X7356400Y5273500D01*
X7358000Y5252300D01*
X7364400Y5237500D01*
X7372400Y5224800D01*
X7382100Y5216300D01*
X7395000Y5210000D01*
X7427100D01*
G01X7297600Y5229000D02*
X7288000Y5218500D01*
X7276700Y5212100D01*
X7262300Y5210000D01*
X7247800Y5214200D01*
X7236500Y5222700D01*
X7228500Y5237500D01*
X7226900Y5254400D01*
X7230100Y5271400D01*
X7238100Y5282000D01*
X7249400Y5290400D01*
X7260600Y5292500D01*
X7271900Y5290400D01*
X7286400Y5282000D01*
X7281600Y5337000D01*
X7238100D01*
G01X7527100Y6760000D02*
Y6887000D01*
X7495000D01*
X7482100Y6880600D01*
X7472400Y6872200D01*
X7464400Y6859500D01*
X7458000Y6844700D01*
X7456400Y6823500D01*
X7458000Y6802300D01*
X7464400Y6787500D01*
X7472400Y6774800D01*
X7482100Y6766300D01*
X7495000Y6760000D01*
X7527100D01*
G01X7392800Y6812900D02*
X7381600Y6827700D01*
X7371900Y6836200D01*
X7359000Y6840400D01*
X7347800Y6836200D01*
X7339700Y6827700D01*
X7333300Y6815000D01*
X7331700Y6800200D01*
X7333300Y6787500D01*
X7339700Y6774800D01*
X7349400Y6764200D01*
X7360600Y6760000D01*
X7373500Y6764200D01*
X7384800Y6776900D01*
X7391200Y6796000D01*
X7392800Y6817100D01*
X7389600Y6844700D01*
X7384800Y6859500D01*
X7376700Y6874300D01*
X7365500Y6884900D01*
X7354200Y6887000D01*
X7342900Y6882800D01*
X7334900Y6872200D01*
G01X8532000Y1570000D02*
X8491800Y1697000D01*
X8451500Y1570000D01*
G01X8466000Y1614400D02*
X8517500D01*
G01X8381600Y1697000D02*
X8343000D01*
G01X8362300D02*
Y1570000D01*
G01X8381600D02*
X8343000D01*
G01X8232800D02*
Y1697000D01*
X8252100Y1671600D01*
G01Y1570000D02*
X8213500D01*
G01X8542000Y1950000D02*
X8501800Y2077000D01*
X8461500Y1950000D01*
G01X8476000Y1994400D02*
X8527500D01*
G01X8391600Y2077000D02*
X8353000D01*
G01X8372300D02*
Y1950000D01*
G01X8391600D02*
X8353000D01*
G01X8274900D02*
Y2077000D01*
X8236300D01*
X8223400Y2070600D01*
X8213800Y2055800D01*
X8210600Y2038900D01*
X8213800Y2022000D01*
X8221800Y2009300D01*
X8236300Y2002900D01*
X8274900D01*
G01X8552000Y2340000D02*
X8511800Y2467000D01*
X8471500Y2340000D01*
G01X8486000Y2384400D02*
X8537500D01*
G01X8401600Y2467000D02*
X8363000D01*
G01X8382300D02*
Y2340000D01*
G01X8401600D02*
X8363000D01*
G01X8283300Y2445800D02*
X8273700Y2458500D01*
X8262400Y2464900D01*
X8249500Y2467000D01*
X8233400Y2462800D01*
X8222200Y2452200D01*
X8219000Y2439500D01*
X8220600Y2426800D01*
X8227000Y2416200D01*
X8259200Y2395000D01*
X8273700Y2380200D01*
X8283300Y2359000D01*
X8286500Y2340000D01*
X8219000D01*
G01X8542000Y2700000D02*
X8501800Y2827000D01*
X8461500Y2700000D01*
G01X8476000Y2744400D02*
X8527500D01*
G01X8391600Y2827000D02*
X8353000D01*
G01X8372300D02*
Y2700000D01*
G01X8391600D02*
X8353000D01*
G01X8274900D02*
Y2827000D01*
X8236300D01*
X8223400Y2820600D01*
X8213800Y2805800D01*
X8210600Y2788900D01*
X8213800Y2772000D01*
X8221800Y2759300D01*
X8236300Y2752900D01*
X8274900D01*
G01X8542000Y3080000D02*
X8501800Y3207000D01*
X8461500Y3080000D01*
G01X8476000Y3124400D02*
X8527500D01*
G01X8391600Y3207000D02*
X8353000D01*
G01X8372300D02*
Y3080000D01*
G01X8391600D02*
X8353000D01*
G01X8278100Y3105400D02*
X8268500Y3090600D01*
X8255600Y3082100D01*
X8241100Y3080000D01*
X8228300Y3082100D01*
X8215400Y3092700D01*
X8207400Y3105400D01*
X8205800Y3118100D01*
X8209000Y3132900D01*
X8220200Y3143500D01*
X8231500Y3147700D01*
X8246000D01*
G01X8231500D02*
X8221800Y3154100D01*
X8213800Y3164700D01*
X8210600Y3177400D01*
X8213800Y3190100D01*
X8221800Y3200600D01*
X8236300Y3207000D01*
X8250800Y3204900D01*
X8265300Y3196400D01*
G01X8522000Y3470000D02*
X8481800Y3597000D01*
X8441500Y3470000D01*
G01X8456000Y3514400D02*
X8507500D01*
G01X8371600Y3597000D02*
X8333000D01*
G01X8352300D02*
Y3470000D01*
G01X8371600D02*
X8333000D01*
G01X8254900D02*
Y3597000D01*
X8216300D01*
X8203400Y3590600D01*
X8193800Y3575800D01*
X8190600Y3558900D01*
X8193800Y3542000D01*
X8201800Y3529300D01*
X8216300Y3522900D01*
X8254900D01*
G01X8532000Y3860000D02*
X8491800Y3987000D01*
X8451500Y3860000D01*
G01X8466000Y3904400D02*
X8517500D01*
G01X8381600Y3987000D02*
X8343000D01*
G01X8362300D02*
Y3860000D01*
G01X8381600D02*
X8343000D01*
G01X8213400D02*
Y3987000D01*
X8273000Y3896000D01*
X8192500D01*
G01X8522000Y4210000D02*
X8481800Y4337000D01*
X8441500Y4210000D01*
G01X8456000Y4254400D02*
X8507500D01*
G01X8371600Y4337000D02*
X8333000D01*
G01X8352300D02*
Y4210000D01*
G01X8371600D02*
X8333000D01*
G01X8254900D02*
Y4337000D01*
X8216300D01*
X8203400Y4330600D01*
X8193800Y4315800D01*
X8190600Y4298900D01*
X8193800Y4282000D01*
X8201800Y4269300D01*
X8216300Y4262900D01*
X8254900D01*
G01X8502100Y4923500D02*
X8469900D01*
Y4885400D01*
X8479600Y4872700D01*
X8490800Y4864200D01*
X8506900Y4860000D01*
X8523000Y4864200D01*
X8534300Y4872700D01*
X8543900Y4885400D01*
X8550400Y4900200D01*
X8553600Y4917100D01*
Y4932000D01*
X8550400Y4944700D01*
X8543900Y4959500D01*
X8534300Y4972200D01*
X8524600Y4980600D01*
X8511800Y4987000D01*
X8500500D01*
X8487600Y4982800D01*
X8478000Y4974300D01*
G01X8419200Y4860000D02*
Y4987000D01*
X8345300Y4860000D01*
Y4987000D01*
G01X8288100Y4860000D02*
Y4987000D01*
X8256000D01*
X8243100Y4980600D01*
X8233400Y4972200D01*
X8225400Y4959500D01*
X8219000Y4944700D01*
X8217400Y4923500D01*
X8219000Y4902300D01*
X8225400Y4887500D01*
X8233400Y4874800D01*
X8243100Y4866300D01*
X8256000Y4860000D01*
X8288100D01*
G01X8527100Y5220000D02*
Y5347000D01*
X8495000D01*
X8482100Y5340600D01*
X8472400Y5332200D01*
X8464400Y5319500D01*
X8458000Y5304700D01*
X8456400Y5283500D01*
X8458000Y5262300D01*
X8464400Y5247500D01*
X8472400Y5234800D01*
X8482100Y5226300D01*
X8495000Y5220000D01*
X8527100D01*
G01X8381600Y5347000D02*
X8343000D01*
G01X8362300D02*
Y5220000D01*
G01X8381600D02*
X8343000D01*
G01X8232800D02*
Y5347000D01*
X8252100Y5321600D01*
G01Y5220000D02*
X8213500D01*
G01X8502100Y5643500D02*
X8469900D01*
Y5605400D01*
X8479600Y5592700D01*
X8490800Y5584200D01*
X8506900Y5580000D01*
X8523000Y5584200D01*
X8534300Y5592700D01*
X8543900Y5605400D01*
X8550400Y5620200D01*
X8553600Y5637100D01*
Y5652000D01*
X8550400Y5664700D01*
X8543900Y5679500D01*
X8534300Y5692200D01*
X8524600Y5700600D01*
X8511800Y5707000D01*
X8500500D01*
X8487600Y5702800D01*
X8478000Y5694300D01*
G01X8419200Y5580000D02*
Y5707000D01*
X8345300Y5580000D01*
Y5707000D01*
G01X8288100Y5580000D02*
Y5707000D01*
X8256000D01*
X8243100Y5700600D01*
X8233400Y5692200D01*
X8225400Y5679500D01*
X8219000Y5664700D01*
X8217400Y5643500D01*
X8219000Y5622300D01*
X8225400Y5607500D01*
X8233400Y5594800D01*
X8243100Y5586300D01*
X8256000Y5580000D01*
X8288100D01*
G01X8537100Y5980000D02*
Y6107000D01*
X8505000D01*
X8492100Y6100600D01*
X8482400Y6092200D01*
X8474400Y6079500D01*
X8468000Y6064700D01*
X8466400Y6043500D01*
X8468000Y6022300D01*
X8474400Y6007500D01*
X8482400Y5994800D01*
X8492100Y5986300D01*
X8505000Y5980000D01*
X8537100D01*
G01X8391600Y6107000D02*
X8353000D01*
G01X8372300D02*
Y5980000D01*
G01X8391600D02*
X8353000D01*
G01X8273300Y6085800D02*
X8263700Y6098500D01*
X8252400Y6104900D01*
X8239500Y6107000D01*
X8223400Y6102800D01*
X8212200Y6092200D01*
X8209000Y6079500D01*
X8210600Y6066800D01*
X8217000Y6056200D01*
X8249200Y6035000D01*
X8263700Y6020200D01*
X8273300Y5999000D01*
X8276500Y5980000D01*
X8209000D01*
G01X8492100Y6413500D02*
X8459900D01*
Y6375400D01*
X8469600Y6362700D01*
X8480800Y6354200D01*
X8496900Y6350000D01*
X8513000Y6354200D01*
X8524300Y6362700D01*
X8533900Y6375400D01*
X8540400Y6390200D01*
X8543600Y6407100D01*
Y6422000D01*
X8540400Y6434700D01*
X8533900Y6449500D01*
X8524300Y6462200D01*
X8514600Y6470600D01*
X8501800Y6477000D01*
X8490500D01*
X8477600Y6472800D01*
X8468000Y6464300D01*
G01X8409200Y6350000D02*
Y6477000D01*
X8335300Y6350000D01*
Y6477000D01*
G01X8278100Y6350000D02*
Y6477000D01*
X8246000D01*
X8233100Y6470600D01*
X8223400Y6462200D01*
X8215400Y6449500D01*
X8209000Y6434700D01*
X8207400Y6413500D01*
X8209000Y6392300D01*
X8215400Y6377500D01*
X8223400Y6364800D01*
X8233100Y6356300D01*
X8246000Y6350000D01*
X8278100D01*
G01X8527100Y6730000D02*
Y6857000D01*
X8495000D01*
X8482100Y6850600D01*
X8472400Y6842200D01*
X8464400Y6829500D01*
X8458000Y6814700D01*
X8456400Y6793500D01*
X8458000Y6772300D01*
X8464400Y6757500D01*
X8472400Y6744800D01*
X8482100Y6736300D01*
X8495000Y6730000D01*
X8527100D01*
G01X8381600Y6857000D02*
X8343000D01*
G01X8362300D02*
Y6730000D01*
G01X8381600D02*
X8343000D01*
G01X8268100Y6755400D02*
X8258500Y6740600D01*
X8245600Y6732100D01*
X8231100Y6730000D01*
X8218300Y6732100D01*
X8205400Y6742700D01*
X8197400Y6755400D01*
X8195800Y6768100D01*
X8199000Y6782900D01*
X8210200Y6793500D01*
X8221500Y6797700D01*
X8236000D01*
G01X8221500D02*
X8211800Y6804100D01*
X8203800Y6814700D01*
X8200600Y6827400D01*
X8203800Y6840100D01*
X8211800Y6850600D01*
X8226300Y6857000D01*
X8240800Y6854900D01*
X8255300Y6846400D01*
G01X8482100Y7173500D02*
X8449900D01*
Y7135400D01*
X8459600Y7122700D01*
X8470800Y7114200D01*
X8486900Y7110000D01*
X8503000Y7114200D01*
X8514300Y7122700D01*
X8523900Y7135400D01*
X8530400Y7150200D01*
X8533600Y7167100D01*
Y7182000D01*
X8530400Y7194700D01*
X8523900Y7209500D01*
X8514300Y7222200D01*
X8504600Y7230600D01*
X8491800Y7237000D01*
X8480500D01*
X8467600Y7232800D01*
X8458000Y7224300D01*
G01X8399200Y7110000D02*
Y7237000D01*
X8325300Y7110000D01*
Y7237000D01*
G01X8268100Y7110000D02*
Y7237000D01*
X8236000D01*
X8223100Y7230600D01*
X8213400Y7222200D01*
X8205400Y7209500D01*
X8199000Y7194700D01*
X8197400Y7173500D01*
X8199000Y7152300D01*
X8205400Y7137500D01*
X8213400Y7124800D01*
X8223100Y7116300D01*
X8236000Y7110000D01*
X8268100D01*
G01X8517100Y7490000D02*
Y7617000D01*
X8485000D01*
X8472100Y7610600D01*
X8462400Y7602200D01*
X8454400Y7589500D01*
X8448000Y7574700D01*
X8446400Y7553500D01*
X8448000Y7532300D01*
X8454400Y7517500D01*
X8462400Y7504800D01*
X8472100Y7496300D01*
X8485000Y7490000D01*
X8517100D01*
G01X8371600Y7617000D02*
X8333000D01*
G01X8352300D02*
Y7490000D01*
G01X8371600D02*
X8333000D01*
G01X8203400D02*
Y7617000D01*
X8263000Y7526000D01*
X8182500D01*
M02*
