G04 ================== begin FILE IDENTIFICATION RECORD ==================*
G04 Layout Name:  G:/Work/io/design/pcb/io_4di_4aic_dbdoctor.brd*
G04 Film Name:    SILKSCREEN_TOP*
G04 File Format:  Gerber RS274X*
G04 File Origin:  Cadence Allegro 17.2-P019*
G04 Origin Date:  Sat May 19 21:23:20 2018*
G04 *
G04 Layer:  MANUFACTURING/AUTOSILK_TOP*
G04 Layer:  BOARD GEOMETRY/SILKSCREEN_TOP*
G04 Layer:  BOARD GEOMETRY/OUTLINE*
G04 *
G04 Offset:    (0.000 0.000)*
G04 Mirror:    No*
G04 Mode:      Positive*
G04 Rotation:  0*
G04 FullContactRelief:  No*
G04 UndefLineWidth:     0.200*
G04 ================== end FILE IDENTIFICATION RECORD ====================*
%FSLAX25Y25*MOMM*%
%IR0*IPPOS*OFA0.00000B0.00000*MIA0B0*SFA1.00000B1.00000*%
%ADD10C,.2*%
%ADD11C,.3*%
G75*
%LPD*%
G75*
G36*
G01X1730600Y5930000D02*
G03I-80600J0D01*
G37*
G54D10*
G01X300000Y5030000D02*
X140000D01*
G01X320000Y5060000D02*
X120000D01*
Y5390000D01*
X320000D01*
Y5060000D01*
G01X230000Y170000D02*
X1670000D01*
X1720000Y220000D01*
Y1890000D01*
X1670000Y1940000D01*
X230000D01*
G01X220000Y2120000D02*
X1660000D01*
X1710000Y2170000D01*
Y3840000D01*
X1660000Y3890000D01*
X220000D01*
G01X310000Y4140000D02*
Y4340000D01*
X640000D01*
Y4140000D01*
X310000D01*
G01X280000Y4160000D02*
Y4320000D01*
G01X780000Y4900000D02*
Y4700000D01*
X450000D01*
Y4900000D01*
X780000D01*
G01Y4980000D02*
X820000Y5020000D01*
Y5440000D01*
X430000D01*
Y4980000D01*
X780000D01*
G01X440000Y5540000D02*
Y5700000D01*
G01X470000Y5520000D02*
Y5720000D01*
X800000D01*
Y5520000D01*
X470000D01*
G01X880000Y4050000D02*
X720000D01*
G01X900000Y4080000D02*
X700000D01*
Y4410000D01*
X900000D01*
Y4080000D01*
G01X870000Y4660000D02*
Y4820000D01*
G01X900000Y4640000D02*
Y4840000D01*
X1230000D01*
Y4640000D01*
X900000D01*
G01X870000Y4430000D02*
Y4590000D01*
G01X900000Y4410000D02*
Y4610000D01*
X1230000D01*
Y4410000D01*
X900000D01*
G01X810000Y4880000D02*
Y4720000D01*
G01X1230000Y5070000D02*
Y4870000D01*
X900000D01*
Y5070000D01*
X1230000D01*
G01X790000Y4930000D02*
X860000Y5000000D01*
G01X1220000Y5640000D02*
Y5440000D01*
X890000D01*
Y5640000D01*
X1220000D01*
G01Y5440000D02*
Y5240000D01*
X890000D01*
Y5440000D01*
X1220000D01*
G01X1150000Y6570000D02*
X2680000D01*
Y6830000D01*
X1140000D01*
Y6570000D01*
X1150000D01*
G01X1260000Y5050000D02*
Y4890000D01*
G01X1250000Y5620000D02*
Y5460000D01*
G01Y5420000D02*
Y5260000D01*
G01X1845000Y5840000D02*
X1745000Y5740000D01*
Y4480000D01*
X3105000D01*
Y5840000D01*
X1845000D01*
G01X1710000Y6110000D02*
X1550000D01*
G01X1730000Y6140000D02*
X1530000D01*
Y6470000D01*
X1730000D01*
Y6140000D01*
G01X2560000Y340000D02*
Y60000D01*
X1900000D01*
Y340000D01*
X2560000D01*
G01X1910000Y420000D02*
X2090000D01*
G01X2200000Y1900000D02*
Y1700000D01*
X1870000D01*
Y1900000D01*
X2200000D01*
G01X1810000Y1920000D02*
Y2080000D01*
G01X1840000Y1900000D02*
Y2100000D01*
X2170000D01*
Y1900000D01*
X1840000D01*
G01X2180000Y2300000D02*
Y2100000D01*
X1850000D01*
Y2300000D01*
X2180000D01*
G01X1780000Y3140000D02*
Y3300000D01*
G01X1810000Y3120000D02*
Y3320000D01*
X2140000D01*
Y3120000D01*
X1810000D01*
G01X1780000Y3340000D02*
Y3500000D01*
G01X1810000Y3320000D02*
Y3520000D01*
X2140000D01*
Y3320000D01*
X1810000D01*
G01X1830000Y6190000D02*
Y6350000D01*
G01X1860000Y6170000D02*
Y6370000D01*
X2190000D01*
Y6170000D01*
X1860000D01*
G01X2230000Y1880000D02*
Y1720000D01*
G01X2210000Y2280000D02*
Y2120000D01*
G01X2250000Y2580000D02*
Y2740000D01*
G01X2430000Y580000D02*
Y390000D01*
G01X2320000Y480000D02*
X2530000D01*
G01X2510000Y850000D02*
X2350000D01*
G01X2530000Y880000D02*
X2330000D01*
Y1210000D01*
X2530000D01*
Y880000D01*
G01X2515000Y2050000D02*
X2435000D01*
G01X2280000Y2560000D02*
Y2760000D01*
X2610000D01*
Y2560000D01*
X2280000D01*
G01X3590000Y610000D02*
Y190000D01*
X2730000D01*
Y610000D01*
X3590000D01*
G01X3055000Y1190000D02*
X3015000Y1230000D01*
X2595000D01*
Y840000D01*
X3055000D01*
Y1190000D01*
G01X2830000Y2305000D02*
X2780000Y2255000D01*
Y1795000D01*
X2830000Y1745000D01*
X3270000D01*
X3320000Y1795000D01*
Y2245000D01*
X3260000Y2305000D01*
X2830000D01*
G01X2950000Y2990000D02*
X2770000D01*
Y3290000D01*
X2950000D01*
Y2990000D01*
G01X2940000Y2950000D02*
X2780000D01*
G01X2800000Y4100000D02*
X3000000D01*
Y3770000D01*
X2800000D01*
Y4100000D01*
G01X3060000Y580000D02*
Y220000D01*
X3240000Y400000D01*
X3060000Y580000D01*
G01X3025000Y1485000D02*
Y1390000D01*
G01X3105000Y1200000D02*
X3035000Y1270000D01*
G01X3075000Y2570000D02*
Y2650000D01*
G01X3190000Y2940000D02*
X3030000D01*
G01X3210000Y2970000D02*
X3010000D01*
Y3300000D01*
X3210000D01*
Y2970000D01*
G01X3180000Y3740000D02*
X3020000D01*
G01X3200000Y3770000D02*
X3000000D01*
Y4100000D01*
X3200000D01*
Y3770000D01*
G01X2820000Y4130000D02*
X2980000D01*
G01X3060000Y6180000D02*
X2900000D01*
G01X3080000Y6210000D02*
X2880000D01*
Y6540000D01*
X3080000D01*
Y6210000D01*
G01X3240000Y580000D02*
Y220000D01*
G01X3130000Y1190000D02*
X3330000D01*
Y860000D01*
X3130000D01*
Y1190000D01*
G01X3150000Y1220000D02*
X3310000D01*
G01X3220000Y4080000D02*
Y4240000D01*
G01X3250000Y4060000D02*
Y4260000D01*
X3580000D01*
Y4060000D01*
X3250000D01*
G01X3320000Y4310000D02*
Y4470000D01*
G01Y4530000D02*
Y4690000D01*
G01X3585000Y2000000D02*
X3700000D01*
G01X3350000Y4290000D02*
Y4490000D01*
X3680000D01*
Y4290000D01*
X3350000D01*
G01Y4510000D02*
Y4710000D01*
X3680000D01*
Y4510000D01*
X3350000D01*
G01X3760000Y5760000D02*
Y5560000D01*
X3430000D01*
Y5760000D01*
X3760000D01*
G01X3400000Y5790000D02*
Y5950000D01*
G01X3430000Y5770000D02*
Y5970000D01*
X3760000D01*
Y5770000D01*
X3430000D01*
G01X3810000Y6270000D02*
X3740000Y6200000D01*
X3350000D01*
Y6780000D01*
X3810000D01*
Y6270000D01*
G01X3630000Y610000D02*
Y190000D01*
G01X4401000Y60000D02*
Y300000D01*
X4541000D01*
Y690000D01*
X4511000D01*
Y910000D01*
X3871000D01*
Y690000D01*
X3841000D01*
Y300000D01*
X3981000D01*
Y60000D01*
X4401000D01*
G01X3620000Y1300000D02*
X3820000D01*
Y970000D01*
X3620000D01*
Y1300000D01*
G01X3860000D02*
X4060000D01*
Y970000D01*
X3860000D01*
Y1300000D01*
G01X3640000Y1330000D02*
X3800000D01*
G01X4020000Y1780000D02*
Y1580000D01*
X3690000D01*
Y1780000D01*
X4020000D01*
G01X3660000Y1820000D02*
Y1980000D01*
G01X3690000Y1800000D02*
Y2000000D01*
X4020000D01*
Y1800000D01*
X3690000D01*
G01Y2000000D02*
Y2200000D01*
X4020000D01*
Y2000000D01*
X3690000D01*
G01X3660000Y2020000D02*
Y2180000D01*
G01Y2220000D02*
Y2380000D01*
G01X3690000Y2200000D02*
Y2400000D01*
X4020000D01*
Y2200000D01*
X3690000D01*
G01X4040000Y4710000D02*
Y4510000D01*
X3710000D01*
Y4710000D01*
X4040000D01*
G01Y4930000D02*
Y4730000D01*
X3710000D01*
Y4930000D01*
X4040000D01*
G01Y5150000D02*
Y4950000D01*
X3710000D01*
Y5150000D01*
X4040000D01*
G01Y5370000D02*
Y5170000D01*
X3710000D01*
Y5370000D01*
X4040000D01*
G01X3790000Y5740000D02*
Y5580000D01*
G01X3880000Y1330000D02*
X4040000D01*
G01X4010000Y1600000D02*
Y1760000D01*
G01X4040000Y1580000D02*
Y1780000D01*
X4370000D01*
Y1580000D01*
X4040000D01*
G01X4050000Y1760000D02*
Y1600000D01*
G01X4070000Y4690000D02*
Y4530000D01*
G01Y4910000D02*
Y4750000D01*
G01Y5130000D02*
Y4970000D01*
G01Y5350000D02*
Y5190000D01*
G01X4350000Y6670000D02*
X4300000Y6620000D01*
Y5930000D01*
X4790000D01*
Y6670000D01*
X4350000D01*
G01X4600000Y730000D02*
Y890000D01*
G01X4630000Y710000D02*
Y910000D01*
X4960000D01*
Y710000D01*
X4630000D01*
G01X5310000Y1180000D02*
X5280000Y1210000D01*
X4580000D01*
Y990000D01*
X5310000D01*
Y1180000D01*
G01X4600000Y1810000D02*
X4440000D01*
G01X4620000Y1840000D02*
X4420000D01*
Y2170000D01*
X4620000D01*
Y1840000D01*
G01Y2170000D02*
X4820000D01*
Y1840000D01*
X4620000D01*
Y2170000D01*
G01X4430000Y2260000D02*
Y2420000D01*
G01X4460000Y2240000D02*
Y2440000D01*
X4790000D01*
Y2240000D01*
X4460000D01*
G01X4640000Y2200000D02*
X4800000D01*
G01X4910000Y4540000D02*
X4830000Y4460000D01*
X4480000D01*
Y5540000D01*
X4910000D01*
Y4540000D01*
G01X4680000Y135000D02*
Y515000D01*
X5020000D01*
Y585000D01*
X5380000D01*
Y515000D01*
X5720000D01*
Y135000D01*
G01X4850000Y1710000D02*
X5030000D01*
Y1410000D01*
X4850000D01*
Y1710000D01*
G01X4890000Y1850000D02*
X4830000Y1790000D01*
G01X4860000Y1750000D02*
X5020000D01*
G01X5070000Y1810000D02*
X4910000D01*
G01X5090000Y1840000D02*
X4890000D01*
Y2170000D01*
X5090000D01*
Y1840000D01*
G01X4900000Y2260000D02*
Y2420000D01*
G01X4930000Y2240000D02*
Y2440000D01*
X5260000D01*
Y2240000D01*
X4930000D01*
G01X5020000Y2510000D02*
X4860000D01*
G01X5040000Y2540000D02*
X4840000D01*
Y2870000D01*
X5040000D01*
Y2540000D01*
G01X4850000Y2960000D02*
Y3120000D01*
G01X4880000Y2940000D02*
Y3140000D01*
X5210000D01*
Y2940000D01*
X4880000D01*
G01X5020000Y3190000D02*
X4860000D01*
G01X5040000Y3220000D02*
X4840000D01*
Y3550000D01*
X5040000D01*
Y3220000D01*
G01X4850000Y3640000D02*
Y3800000D01*
G01X4880000Y3620000D02*
Y3820000D01*
X5210000D01*
Y3620000D01*
X4880000D01*
G01X5100000Y6230000D02*
X4940000D01*
G01X5120000Y6260000D02*
X4920000D01*
Y6590000D01*
X5120000D01*
Y6260000D01*
G01X5130000Y1720000D02*
X5270000D01*
Y1620000D01*
X5310000D01*
Y1340000D01*
X5270000D01*
Y1240000D01*
X5130000D01*
Y1340000D01*
X5090000D01*
Y1620000D01*
X5130000D01*
Y1720000D01*
G01X5280000Y1440000D02*
X5120000D01*
X5200000Y1520000D01*
X5280000Y1440000D01*
G01X5120000Y1530000D02*
X5280000D01*
G01X5090000Y2170000D02*
X5290000D01*
Y1840000D01*
X5090000D01*
Y2170000D01*
G01X5110000Y2200000D02*
X5270000D01*
G01X5040000Y2870000D02*
X5240000D01*
Y2540000D01*
X5040000D01*
Y2870000D01*
G01X5060000Y2900000D02*
X5220000D01*
G01X5040000Y3550000D02*
X5240000D01*
Y3220000D01*
X5040000D01*
Y3550000D01*
G01X5060000Y3580000D02*
X5220000D01*
G01X5710000Y760000D02*
Y3710000D01*
X5430000D01*
Y760000D01*
X5710000D01*
G01Y3900000D02*
Y6850000D01*
X5430000D01*
Y3900000D01*
X5710000D01*
G01X80000Y0D02*
X5740000D01*
G03X5820000Y80000I0J80000D01*
G01Y6870000D01*
G03X5740000Y6950000I-80000J0D01*
G01X80000D01*
G03X0Y6870000I0J-80000D01*
G01Y80000D01*
G03X80000Y0I80000J0D01*
G01X126100Y4380000D02*
Y4507000D01*
X166300D01*
X179200Y4500600D01*
X187200Y4492200D01*
X190400Y4475200D01*
X187200Y4458300D01*
X177600Y4447700D01*
X166300Y4441400D01*
X126100D01*
G01X166300D02*
X190400Y4380000D01*
G01X287700D02*
Y4507000D01*
X268400Y4481600D01*
G01Y4380000D02*
X307000D01*
G01X414000D02*
X417200Y4407500D01*
X422100Y4430800D01*
X428500Y4452000D01*
X436600Y4475200D01*
X449400Y4507000D01*
X385100D01*
G01X153600Y4706400D02*
X144000Y4712800D01*
X132700Y4717000D01*
X119900D01*
X105400Y4710600D01*
X94100Y4700100D01*
X86100Y4687400D01*
X79600Y4666200D01*
X78000Y4647100D01*
X81300Y4628100D01*
X86100Y4615400D01*
X95700Y4602700D01*
X107000Y4594200D01*
X118200Y4590000D01*
X129500D01*
X140800Y4594200D01*
X150400Y4600600D01*
X158500Y4609000D01*
G01X212400Y4615400D02*
X222000Y4600600D01*
X234900Y4592100D01*
X249400Y4590000D01*
X262200Y4592100D01*
X275100Y4602700D01*
X283100Y4615400D01*
X284700Y4628100D01*
X281500Y4642900D01*
X270300Y4653500D01*
X259000Y4657700D01*
X244500D01*
G01X259000D02*
X268700Y4664100D01*
X276700Y4674700D01*
X279900Y4687400D01*
X276700Y4700100D01*
X268700Y4710600D01*
X254200Y4717000D01*
X239700Y4714900D01*
X225200Y4706400D01*
G01X377200Y4590000D02*
Y4717000D01*
X357900Y4691600D01*
G01Y4590000D02*
X396500D01*
G01X46100Y4860000D02*
Y4987000D01*
X86300D01*
X99200Y4980600D01*
X107200Y4972200D01*
X110400Y4955200D01*
X107200Y4938300D01*
X97600Y4927700D01*
X86300Y4921400D01*
X46100D01*
G01X86300D02*
X110400Y4860000D01*
G01X227100D02*
Y4987000D01*
X167500Y4896000D01*
X248000D01*
G01X301900Y4885400D02*
X311500Y4870600D01*
X324400Y4862100D01*
X338900Y4860000D01*
X351700Y4862100D01*
X364600Y4872700D01*
X372600Y4885400D01*
X374200Y4898100D01*
X371000Y4912900D01*
X359800Y4923500D01*
X348500Y4927700D01*
X334000D01*
G01X348500D02*
X358200Y4934100D01*
X366200Y4944700D01*
X369400Y4957400D01*
X366200Y4970100D01*
X358200Y4980600D01*
X343700Y4987000D01*
X329200Y4984900D01*
X314700Y4976400D01*
G01X198200Y5430000D02*
Y5487100D01*
X166100Y5557000D01*
G01X230400D02*
X198200Y5487100D01*
G01X297200Y5535800D02*
X306800Y5548500D01*
X318100Y5554900D01*
X331000Y5557000D01*
X347100Y5552800D01*
X358300Y5542200D01*
X361500Y5529500D01*
X359900Y5516800D01*
X353500Y5506200D01*
X321300Y5485000D01*
X306800Y5470200D01*
X297200Y5449000D01*
X294000Y5430000D01*
X361500D01*
G01X543600Y5916400D02*
X534000Y5922800D01*
X522700Y5927000D01*
X509900D01*
X495400Y5920600D01*
X484100Y5910100D01*
X476100Y5897400D01*
X469600Y5876200D01*
X468000Y5857100D01*
X471300Y5838100D01*
X476100Y5825400D01*
X485700Y5812700D01*
X497000Y5804200D01*
X508200Y5800000D01*
X519500D01*
X530800Y5804200D01*
X540400Y5810600D01*
X548500Y5819000D01*
G01X607200Y5905800D02*
X616800Y5918500D01*
X628100Y5924900D01*
X641000Y5927000D01*
X657100Y5922800D01*
X668300Y5912200D01*
X671500Y5899500D01*
X669900Y5886800D01*
X663500Y5876200D01*
X631300Y5855000D01*
X616800Y5840200D01*
X607200Y5819000D01*
X604000Y5800000D01*
X671500D01*
G01X767200D02*
X778500Y5802100D01*
X791400Y5808500D01*
X799400Y5819000D01*
X802600Y5833900D01*
X799400Y5848700D01*
X789800Y5861400D01*
X775300Y5867700D01*
X759200D01*
X749600Y5872000D01*
X741500Y5882500D01*
X738300Y5897400D01*
X743100Y5912200D01*
X754400Y5922800D01*
X767200Y5927000D01*
X780100Y5922800D01*
X791400Y5912200D01*
X796200Y5897400D01*
X793000Y5882500D01*
X784900Y5872000D01*
X775300Y5867700D01*
X759200D01*
X744700Y5861400D01*
X735100Y5848700D01*
X731900Y5833900D01*
X735100Y5819000D01*
X743100Y5808500D01*
X756000Y5802100D01*
X767200Y5800000D01*
G01X1003600Y5816400D02*
X994000Y5822800D01*
X982700Y5827000D01*
X969900D01*
X955400Y5820600D01*
X944100Y5810100D01*
X936100Y5797400D01*
X929600Y5776200D01*
X928000Y5757100D01*
X931300Y5738100D01*
X936100Y5725400D01*
X945700Y5712700D01*
X957000Y5704200D01*
X968200Y5700000D01*
X979500D01*
X990800Y5704200D01*
X1000400Y5710600D01*
X1008500Y5719000D01*
G01X1067200Y5805800D02*
X1076800Y5818500D01*
X1088100Y5824900D01*
X1101000Y5827000D01*
X1117100Y5822800D01*
X1128300Y5812200D01*
X1131500Y5799500D01*
X1129900Y5786800D01*
X1123500Y5776200D01*
X1091300Y5755000D01*
X1076800Y5740200D01*
X1067200Y5719000D01*
X1064000Y5700000D01*
X1131500D01*
G01X1191900Y5719000D02*
X1201500Y5708500D01*
X1212800Y5702100D01*
X1227200Y5700000D01*
X1241700Y5704200D01*
X1253000Y5712700D01*
X1261000Y5727500D01*
X1262600Y5744400D01*
X1259400Y5761400D01*
X1251400Y5772000D01*
X1240100Y5780400D01*
X1228900Y5782500D01*
X1217600Y5780400D01*
X1203100Y5772000D01*
X1207900Y5827000D01*
X1251400D01*
G01X896100Y6635400D02*
X904100Y6622700D01*
X913800Y6614200D01*
X925000Y6610000D01*
X937900Y6614200D01*
X947600Y6622700D01*
X957200Y6635400D01*
X960400Y6652300D01*
Y6737000D01*
G01X1054500Y6610000D02*
X1057700Y6637500D01*
X1062600Y6660800D01*
X1069000Y6682000D01*
X1077100Y6705200D01*
X1089900Y6737000D01*
X1025600D01*
G01X976100Y4040000D02*
Y4167000D01*
X1016300D01*
X1029200Y4160600D01*
X1037200Y4152200D01*
X1040400Y4135200D01*
X1037200Y4118300D01*
X1027600Y4107700D01*
X1016300Y4101400D01*
X976100D01*
G01X1016300D02*
X1040400Y4040000D01*
G01X1137700D02*
Y4167000D01*
X1118400Y4141600D01*
G01Y4040000D02*
X1157000D01*
G01X1236700Y4092900D02*
X1247900Y4107700D01*
X1257600Y4116200D01*
X1270500Y4120400D01*
X1281700Y4116200D01*
X1289800Y4107700D01*
X1296200Y4095000D01*
X1297800Y4080200D01*
X1296200Y4067500D01*
X1289800Y4054800D01*
X1280100Y4044200D01*
X1268900Y4040000D01*
X1256000Y4044200D01*
X1244700Y4056900D01*
X1238300Y4076000D01*
X1236700Y4097100D01*
X1239900Y4124700D01*
X1244700Y4139500D01*
X1252800Y4154300D01*
X1264000Y4164900D01*
X1275300Y4167000D01*
X1286600Y4162800D01*
X1294600Y4152200D01*
G01X1103600Y4356400D02*
X1094000Y4362800D01*
X1082700Y4367000D01*
X1069900D01*
X1055400Y4360600D01*
X1044100Y4350100D01*
X1036100Y4337400D01*
X1029600Y4316200D01*
X1028000Y4297100D01*
X1031300Y4278100D01*
X1036100Y4265400D01*
X1045700Y4252700D01*
X1057000Y4244200D01*
X1068200Y4240000D01*
X1079500D01*
X1090800Y4244200D01*
X1100400Y4250600D01*
X1108500Y4259000D01*
G01X1162400Y4265400D02*
X1172000Y4250600D01*
X1184900Y4242100D01*
X1199400Y4240000D01*
X1212200Y4242100D01*
X1225100Y4252700D01*
X1233100Y4265400D01*
X1234700Y4278100D01*
X1231500Y4292900D01*
X1220300Y4303500D01*
X1209000Y4307700D01*
X1194500D01*
G01X1209000D02*
X1218700Y4314100D01*
X1226700Y4324700D01*
X1229900Y4337400D01*
X1226700Y4350100D01*
X1218700Y4360600D01*
X1204200Y4367000D01*
X1189700Y4364900D01*
X1175200Y4356400D01*
G01X1346600Y4240000D02*
Y4367000D01*
X1287000Y4276000D01*
X1367500D01*
G01X1020600Y5182100D02*
X1014800Y5186100D01*
X1008000Y5188700D01*
X1000200D01*
X991400Y5184800D01*
X984600Y5178200D01*
X979700Y5170300D01*
X975800Y5157200D01*
X974900Y5145400D01*
X976800Y5133600D01*
X979700Y5125700D01*
X985600Y5117900D01*
X992400Y5112600D01*
X999200Y5110000D01*
X1006000D01*
X1012800Y5112600D01*
X1018700Y5116600D01*
X1023500Y5121800D01*
G01X1059400Y5175600D02*
X1065200Y5183500D01*
X1072100Y5187400D01*
X1079800Y5188700D01*
X1089600Y5186100D01*
X1096400Y5179500D01*
X1098300Y5171600D01*
X1097400Y5163800D01*
X1093500Y5157200D01*
X1074000Y5144100D01*
X1065200Y5134900D01*
X1059400Y5121800D01*
X1057500Y5110000D01*
X1098300D01*
G01X1138100Y5142800D02*
X1144900Y5152000D01*
X1150800Y5157200D01*
X1158500Y5159800D01*
X1165400Y5157200D01*
X1170200Y5152000D01*
X1174100Y5144100D01*
X1175100Y5134900D01*
X1174100Y5127100D01*
X1170200Y5119200D01*
X1164400Y5112600D01*
X1157600Y5110000D01*
X1149800Y5112600D01*
X1143000Y5120500D01*
X1139100Y5132300D01*
X1138100Y5145400D01*
X1140100Y5162500D01*
X1143000Y5171600D01*
X1147800Y5180800D01*
X1154700Y5187400D01*
X1161500Y5188700D01*
X1168300Y5186100D01*
X1173100Y5179500D01*
G01X956400Y5950000D02*
Y6077000D01*
X998200Y5971200D01*
X1040100Y6077000D01*
Y5950000D01*
G01X1163100Y6066400D02*
X1153500Y6072800D01*
X1142200Y6077000D01*
X1129400D01*
X1114900Y6070600D01*
X1103600Y6060100D01*
X1095600Y6047400D01*
X1089100Y6026200D01*
X1087500Y6007100D01*
X1090800Y5988100D01*
X1095600Y5975400D01*
X1105200Y5962700D01*
X1116500Y5954200D01*
X1127700Y5950000D01*
X1139000D01*
X1150300Y5954200D01*
X1159900Y5960600D01*
X1168000Y5969000D01*
G01X1221900Y6077000D02*
Y5986000D01*
X1228300Y5966900D01*
X1241200Y5954200D01*
X1257200Y5950000D01*
X1273300Y5954200D01*
X1286200Y5966900D01*
X1292600Y5986000D01*
Y6077000D01*
G01X1386700Y5950000D02*
Y6077000D01*
X1367400Y6051600D01*
G01Y5950000D02*
X1406000D01*
G01X1153600Y6266400D02*
X1144000Y6272800D01*
X1132700Y6277000D01*
X1119900D01*
X1105400Y6270600D01*
X1094100Y6260100D01*
X1086100Y6247400D01*
X1079600Y6226200D01*
X1078000Y6207100D01*
X1081300Y6188100D01*
X1086100Y6175400D01*
X1095700Y6162700D01*
X1107000Y6154200D01*
X1118200Y6150000D01*
X1129500D01*
X1140800Y6154200D01*
X1150400Y6160600D01*
X1158500Y6169000D01*
G01X1217200Y6255800D02*
X1226800Y6268500D01*
X1238100Y6274900D01*
X1251000Y6277000D01*
X1267100Y6272800D01*
X1278300Y6262200D01*
X1281500Y6249500D01*
X1279900Y6236800D01*
X1273500Y6226200D01*
X1241300Y6205000D01*
X1226800Y6190200D01*
X1217200Y6169000D01*
X1214000Y6150000D01*
X1281500D01*
G01X1377200D02*
Y6277000D01*
X1357900Y6251600D01*
G01Y6150000D02*
X1396500D01*
G01X1072900Y6429000D02*
X1082500Y6418500D01*
X1093800Y6412100D01*
X1108200Y6410000D01*
X1122700Y6414200D01*
X1134000Y6422700D01*
X1142000Y6437500D01*
X1143600Y6454400D01*
X1140400Y6471400D01*
X1132400Y6482000D01*
X1121100Y6490400D01*
X1109900Y6492500D01*
X1098600Y6490400D01*
X1084100Y6482000D01*
X1088900Y6537000D01*
X1132400D01*
G01X1197500D02*
X1237700Y6410000D01*
X1278000Y6537000D01*
G01X1422100Y4789400D02*
X1426100Y4795200D01*
X1428700Y4802000D01*
Y4809800D01*
X1424800Y4818600D01*
X1418200Y4825400D01*
X1410300Y4830300D01*
X1397200Y4834200D01*
X1385400Y4835100D01*
X1373600Y4833200D01*
X1365700Y4830300D01*
X1357900Y4824400D01*
X1352600Y4817600D01*
X1350000Y4810800D01*
Y4804000D01*
X1352600Y4797200D01*
X1356600Y4791300D01*
X1361800Y4786500D01*
G01X1365700Y4753500D02*
X1356600Y4747700D01*
X1351300Y4739900D01*
X1350000Y4731100D01*
X1351300Y4723300D01*
X1357900Y4715600D01*
X1365700Y4710700D01*
X1373600Y4709700D01*
X1382800Y4711700D01*
X1389300Y4718500D01*
X1392000Y4725300D01*
Y4734000D01*
G01Y4725300D02*
X1395900Y4719400D01*
X1402500Y4714600D01*
X1410300Y4712600D01*
X1418200Y4714600D01*
X1424800Y4719400D01*
X1428700Y4728200D01*
X1427400Y4737000D01*
X1422100Y4745700D01*
G01X1365700Y4674800D02*
X1356600Y4669000D01*
X1351300Y4661200D01*
X1350000Y4652400D01*
X1351300Y4644600D01*
X1357900Y4636900D01*
X1365700Y4632000D01*
X1373600Y4631000D01*
X1382800Y4633000D01*
X1389300Y4639800D01*
X1392000Y4646600D01*
Y4655300D01*
G01Y4646600D02*
X1395900Y4640700D01*
X1402500Y4635900D01*
X1410300Y4633900D01*
X1418200Y4635900D01*
X1424800Y4640700D01*
X1428700Y4649500D01*
X1427400Y4658300D01*
X1422100Y4667000D01*
G01X1446400Y5416400D02*
X1452800Y5426000D01*
X1457000Y5437300D01*
Y5450100D01*
X1450600Y5464600D01*
X1440100Y5475900D01*
X1427400Y5483900D01*
X1406200Y5490400D01*
X1387100Y5492000D01*
X1368100Y5488700D01*
X1355400Y5483900D01*
X1342700Y5474300D01*
X1334200Y5463000D01*
X1330000Y5451800D01*
Y5440500D01*
X1334200Y5429200D01*
X1340600Y5419600D01*
X1349000Y5411500D01*
G01X1435800Y5352800D02*
X1448500Y5343200D01*
X1454900Y5331900D01*
X1457000Y5319000D01*
X1452800Y5302900D01*
X1442200Y5291700D01*
X1429500Y5288500D01*
X1416800Y5290100D01*
X1406200Y5296500D01*
X1385000Y5328700D01*
X1370200Y5343200D01*
X1349000Y5352800D01*
X1330000Y5356000D01*
Y5288500D01*
G01X1435800Y5223300D02*
X1448500Y5213700D01*
X1454900Y5202400D01*
X1457000Y5189500D01*
X1452800Y5173400D01*
X1442200Y5162200D01*
X1429500Y5159000D01*
X1416800Y5160600D01*
X1406200Y5167000D01*
X1385000Y5199200D01*
X1370200Y5213700D01*
X1349000Y5223300D01*
X1330000Y5226500D01*
Y5159000D01*
G01X1355000Y6499300D02*
X1374500D01*
Y6475700D01*
X1368700Y6467900D01*
X1361900Y6462600D01*
X1352100Y6460000D01*
X1342400Y6462600D01*
X1335600Y6467900D01*
X1329700Y6475700D01*
X1325800Y6484900D01*
X1323900Y6495400D01*
Y6504600D01*
X1325800Y6512500D01*
X1329700Y6521600D01*
X1335600Y6529500D01*
X1341400Y6534800D01*
X1349200Y6538700D01*
X1356000D01*
X1363800Y6536100D01*
X1369600Y6530800D01*
G01X1405500Y6460000D02*
Y6538700D01*
X1450300Y6460000D01*
Y6538700D01*
G01X1485200Y6460000D02*
Y6538700D01*
X1504700D01*
X1512400Y6534800D01*
X1518300Y6529500D01*
X1523100Y6521600D01*
X1527000Y6512500D01*
X1528000Y6499300D01*
X1527000Y6486200D01*
X1523100Y6477100D01*
X1518300Y6469200D01*
X1512400Y6463900D01*
X1504700Y6460000D01*
X1485200D01*
G01X1576100Y4025400D02*
X1584100Y4012700D01*
X1593800Y4004200D01*
X1605000Y4000000D01*
X1617900Y4004200D01*
X1627600Y4012700D01*
X1637200Y4025400D01*
X1640400Y4042300D01*
Y4127000D01*
G01X1737700Y4000000D02*
Y4127000D01*
X1718400Y4101600D01*
G01Y4000000D02*
X1757000D01*
G01X1926100Y525400D02*
X1934100Y512700D01*
X1943800Y504200D01*
X1955000Y500000D01*
X1967900Y504200D01*
X1977600Y512700D01*
X1987200Y525400D01*
X1990400Y542300D01*
Y627000D01*
G01X2060400Y514800D02*
X2071700Y504200D01*
X2084500Y500000D01*
X2097400Y504200D01*
X2108700Y516900D01*
X2116700Y536000D01*
X2119900Y555000D01*
Y578300D01*
X2116700Y597400D01*
X2108700Y614300D01*
X2099000Y622800D01*
X2087700Y627000D01*
X2074900Y622800D01*
X2065200Y614300D01*
X2058800Y601600D01*
X2055600Y584700D01*
X2058800Y569900D01*
X2066800Y555000D01*
X2076500Y546600D01*
X2087700Y544400D01*
X2100600Y548700D01*
X2110300Y559300D01*
X2119900Y578300D01*
G01X1856100Y975400D02*
X1864100Y962700D01*
X1873800Y954200D01*
X1885000Y950000D01*
X1897900Y954200D01*
X1907600Y962700D01*
X1917200Y975400D01*
X1920400Y992300D01*
Y1077000D01*
G01X1987200Y1055800D02*
X1996800Y1068500D01*
X2008100Y1074900D01*
X2021000Y1077000D01*
X2037100Y1072800D01*
X2048300Y1062200D01*
X2051500Y1049500D01*
X2049900Y1036800D01*
X2043500Y1026200D01*
X2011300Y1005000D01*
X1996800Y990200D01*
X1987200Y969000D01*
X1984000Y950000D01*
X2051500D01*
G01X2043600Y2716400D02*
X2034000Y2722800D01*
X2022700Y2727000D01*
X2009900D01*
X1995400Y2720600D01*
X1984100Y2710100D01*
X1976100Y2697400D01*
X1969600Y2676200D01*
X1968000Y2657100D01*
X1971300Y2638100D01*
X1976100Y2625400D01*
X1985700Y2612700D01*
X1997000Y2604200D01*
X2008200Y2600000D01*
X2019500D01*
X2030800Y2604200D01*
X2040400Y2610600D01*
X2048500Y2619000D01*
G01X2110400Y2614800D02*
X2121700Y2604200D01*
X2134500Y2600000D01*
X2147400Y2604200D01*
X2158700Y2616900D01*
X2166700Y2636000D01*
X2169900Y2655000D01*
Y2678300D01*
X2166700Y2697400D01*
X2158700Y2714300D01*
X2149000Y2722800D01*
X2137700Y2727000D01*
X2124900Y2722800D01*
X2115200Y2714300D01*
X2108800Y2701600D01*
X2105600Y2684700D01*
X2108800Y2669900D01*
X2116800Y2655000D01*
X2126500Y2646600D01*
X2137700Y2644400D01*
X2150600Y2648700D01*
X2160300Y2659300D01*
X2169900Y2678300D01*
G01X1749700Y6460000D02*
Y6538700D01*
X1774100D01*
X1781900Y6534800D01*
X1786700Y6529500D01*
X1788700Y6519000D01*
X1786700Y6508500D01*
X1780900Y6502000D01*
X1774100Y6498000D01*
X1749700D01*
G01X1774100D02*
X1788700Y6460000D01*
G01X1826500Y6475700D02*
X1832300Y6466600D01*
X1840100Y6461300D01*
X1848900Y6460000D01*
X1856700Y6461300D01*
X1864400Y6467900D01*
X1869300Y6475700D01*
X1870300Y6483600D01*
X1868300Y6492800D01*
X1861500Y6499300D01*
X1854700Y6502000D01*
X1846000D01*
G01X1854700D02*
X1860600Y6505900D01*
X1865400Y6512500D01*
X1867400Y6520300D01*
X1865400Y6528200D01*
X1860600Y6534800D01*
X1851800Y6538700D01*
X1843000Y6537400D01*
X1834300Y6532100D01*
G01X1956100Y6400000D02*
Y6527000D01*
X1996300D01*
X2009200Y6520600D01*
X2017200Y6512200D01*
X2020400Y6495200D01*
X2017200Y6478300D01*
X2007600Y6467700D01*
X1996300Y6461400D01*
X1956100D01*
G01X1996300D02*
X2020400Y6400000D01*
G01X2087200Y6505800D02*
X2096800Y6518500D01*
X2108100Y6524900D01*
X2121000Y6527000D01*
X2137100Y6522800D01*
X2148300Y6512200D01*
X2151500Y6499500D01*
X2149900Y6486800D01*
X2143500Y6476200D01*
X2111300Y6455000D01*
X2096800Y6440200D01*
X2087200Y6419000D01*
X2084000Y6400000D01*
X2151500D01*
G01X2193600Y1386400D02*
X2184000Y1392800D01*
X2172700Y1397000D01*
X2159900D01*
X2145400Y1390600D01*
X2134100Y1380100D01*
X2126100Y1367400D01*
X2119600Y1346200D01*
X2118000Y1327100D01*
X2121300Y1308100D01*
X2126100Y1295400D01*
X2135700Y1282700D01*
X2147000Y1274200D01*
X2158200Y1270000D01*
X2169500D01*
X2180800Y1274200D01*
X2190400Y1280600D01*
X2198500Y1289000D01*
G01X2287700Y1270000D02*
Y1397000D01*
X2268400Y1371600D01*
G01Y1270000D02*
X2307000D01*
G01X2381900Y1289000D02*
X2391500Y1278500D01*
X2402800Y1272100D01*
X2417200Y1270000D01*
X2431700Y1274200D01*
X2443000Y1282700D01*
X2451000Y1297500D01*
X2452600Y1314400D01*
X2449400Y1331400D01*
X2441400Y1342000D01*
X2430100Y1350400D01*
X2418900Y1352500D01*
X2407600Y1350400D01*
X2393100Y1342000D01*
X2397900Y1397000D01*
X2441400D01*
G01X2343600Y1866400D02*
X2334000Y1872800D01*
X2322700Y1877000D01*
X2309900D01*
X2295400Y1870600D01*
X2284100Y1860100D01*
X2276100Y1847400D01*
X2269600Y1826200D01*
X2268000Y1807100D01*
X2271300Y1788100D01*
X2276100Y1775400D01*
X2285700Y1762700D01*
X2297000Y1754200D01*
X2308200Y1750000D01*
X2319500D01*
X2330800Y1754200D01*
X2340400Y1760600D01*
X2348500Y1769000D01*
G01X2457100Y1750000D02*
Y1877000D01*
X2397500Y1786000D01*
X2478000D01*
G01X2229700Y1960000D02*
Y2038700D01*
X2254100D01*
X2261900Y2034800D01*
X2266700Y2029500D01*
X2268700Y2019000D01*
X2266700Y2008500D01*
X2260900Y2002000D01*
X2254100Y1998000D01*
X2229700D01*
G01X2254100D02*
X2268700Y1960000D01*
G01X2327900D02*
X2334700Y1961300D01*
X2342500Y1965200D01*
X2347400Y1971800D01*
X2349300Y1981000D01*
X2347400Y1990200D01*
X2341500Y1998000D01*
X2332800Y2002000D01*
X2323000D01*
X2317200Y2004600D01*
X2312300Y2011200D01*
X2310400Y2020300D01*
X2313300Y2029500D01*
X2320100Y2036100D01*
X2327900Y2038700D01*
X2335700Y2036100D01*
X2342500Y2029500D01*
X2345400Y2020300D01*
X2343500Y2011200D01*
X2338600Y2004600D01*
X2332800Y2002000D01*
X2323000D01*
X2314300Y1998000D01*
X2308400Y1990200D01*
X2306500Y1981000D01*
X2308400Y1971800D01*
X2313300Y1965200D01*
X2321100Y1961300D01*
X2327900Y1960000D01*
G01X2333600Y2266400D02*
X2324000Y2272800D01*
X2312700Y2277000D01*
X2299900D01*
X2285400Y2270600D01*
X2274100Y2260100D01*
X2266100Y2247400D01*
X2259600Y2226200D01*
X2258000Y2207100D01*
X2261300Y2188100D01*
X2266100Y2175400D01*
X2275700Y2162700D01*
X2287000Y2154200D01*
X2298200Y2150000D01*
X2309500D01*
X2320800Y2154200D01*
X2330400Y2160600D01*
X2338500Y2169000D01*
G01X2397200Y2202900D02*
X2408400Y2217700D01*
X2418100Y2226200D01*
X2431000Y2230400D01*
X2442200Y2226200D01*
X2450300Y2217700D01*
X2456700Y2205000D01*
X2458300Y2190200D01*
X2456700Y2177500D01*
X2450300Y2164800D01*
X2440600Y2154200D01*
X2429400Y2150000D01*
X2416500Y2154200D01*
X2405200Y2166900D01*
X2398800Y2186000D01*
X2397200Y2207100D01*
X2400400Y2234700D01*
X2405200Y2249500D01*
X2413300Y2264300D01*
X2424500Y2274900D01*
X2435800Y2277000D01*
X2447100Y2272800D01*
X2455100Y2262200D01*
G01X2216100Y3150000D02*
Y3277000D01*
X2256300D01*
X2269200Y3270600D01*
X2277200Y3262200D01*
X2280400Y3245200D01*
X2277200Y3228300D01*
X2267600Y3217700D01*
X2256300Y3211400D01*
X2216100D01*
G01X2256300D02*
X2280400Y3150000D01*
G01X2347200Y3255800D02*
X2356800Y3268500D01*
X2368100Y3274900D01*
X2381000Y3277000D01*
X2397100Y3272800D01*
X2408300Y3262200D01*
X2411500Y3249500D01*
X2409900Y3236800D01*
X2403500Y3226200D01*
X2371300Y3205000D01*
X2356800Y3190200D01*
X2347200Y3169000D01*
X2344000Y3150000D01*
X2411500D01*
G01X2507200D02*
Y3277000D01*
X2487900Y3251600D01*
G01Y3150000D02*
X2526500D01*
G01X2216100Y3370000D02*
Y3497000D01*
X2256300D01*
X2269200Y3490600D01*
X2277200Y3482200D01*
X2280400Y3465200D01*
X2277200Y3448300D01*
X2267600Y3437700D01*
X2256300Y3431400D01*
X2216100D01*
G01X2256300D02*
X2280400Y3370000D01*
G01X2347200Y3475800D02*
X2356800Y3488500D01*
X2368100Y3494900D01*
X2381000Y3497000D01*
X2397100Y3492800D01*
X2408300Y3482200D01*
X2411500Y3469500D01*
X2409900Y3456800D01*
X2403500Y3446200D01*
X2371300Y3425000D01*
X2356800Y3410200D01*
X2347200Y3389000D01*
X2344000Y3370000D01*
X2411500D01*
G01X2507200Y3497000D02*
X2494400Y3492800D01*
X2484700Y3482200D01*
X2478300Y3469500D01*
X2473500Y3452500D01*
X2471900Y3433500D01*
X2473500Y3414400D01*
X2478300Y3397500D01*
X2484700Y3384800D01*
X2494400Y3374200D01*
X2507200Y3370000D01*
X2520100Y3374200D01*
X2529800Y3384800D01*
X2536200Y3397500D01*
X2541000Y3414400D01*
X2542600Y3433500D01*
X2541000Y3452500D01*
X2536200Y3469500D01*
X2529800Y3482200D01*
X2520100Y3492800D01*
X2507200Y3497000D01*
G01X2246100Y6230000D02*
Y6357000D01*
X2286300D01*
X2299200Y6350600D01*
X2307200Y6342200D01*
X2310400Y6325200D01*
X2307200Y6308300D01*
X2297600Y6297700D01*
X2286300Y6291400D01*
X2246100D01*
G01X2286300D02*
X2310400Y6230000D01*
G01X2427100D02*
Y6357000D01*
X2367500Y6266000D01*
X2448000D01*
G01X2506700Y6335800D02*
X2516300Y6348500D01*
X2527600Y6354900D01*
X2540500Y6357000D01*
X2556600Y6352800D01*
X2567800Y6342200D01*
X2571000Y6329500D01*
X2569400Y6316800D01*
X2563000Y6306200D01*
X2530800Y6285000D01*
X2516300Y6270200D01*
X2506700Y6249000D01*
X2503500Y6230000D01*
X2571000D01*
G01X2216100Y6400000D02*
Y6527000D01*
X2256300D01*
X2269200Y6520600D01*
X2277200Y6512200D01*
X2280400Y6495200D01*
X2277200Y6478300D01*
X2267600Y6467700D01*
X2256300Y6461400D01*
X2216100D01*
G01X2256300D02*
X2280400Y6400000D01*
G01X2377700D02*
Y6527000D01*
X2358400Y6501600D01*
G01Y6400000D02*
X2397000D01*
G01X2450700Y1962800D02*
X2457500Y1972000D01*
X2463400Y1977200D01*
X2471100Y1979800D01*
X2478000Y1977200D01*
X2482800Y1972000D01*
X2486700Y1964100D01*
X2487700Y1954900D01*
X2486700Y1947100D01*
X2482800Y1939200D01*
X2477000Y1932600D01*
X2470200Y1930000D01*
X2462400Y1932600D01*
X2455600Y1940500D01*
X2451700Y1952300D01*
X2450700Y1965400D01*
X2452700Y1982500D01*
X2455600Y1991600D01*
X2460400Y2000800D01*
X2467300Y2007400D01*
X2474100Y2008700D01*
X2480900Y2006100D01*
X2485700Y1999500D01*
G01X2386100Y3890000D02*
Y4017000D01*
X2426300D01*
X2439200Y4010600D01*
X2447200Y4002200D01*
X2450400Y3985200D01*
X2447200Y3968300D01*
X2437600Y3957700D01*
X2426300Y3951400D01*
X2386100D01*
G01X2426300D02*
X2450400Y3890000D01*
G01X2567100D02*
Y4017000D01*
X2507500Y3926000D01*
X2588000D01*
G01X2649900Y3904800D02*
X2661200Y3894200D01*
X2674000Y3890000D01*
X2686900Y3894200D01*
X2698200Y3906900D01*
X2706200Y3926000D01*
X2709400Y3945000D01*
Y3968300D01*
X2706200Y3987400D01*
X2698200Y4004300D01*
X2688500Y4012800D01*
X2677200Y4017000D01*
X2664400Y4012800D01*
X2654700Y4004300D01*
X2648300Y3991600D01*
X2645100Y3974700D01*
X2648300Y3959900D01*
X2656300Y3945000D01*
X2666000Y3936600D01*
X2677200Y3934400D01*
X2690100Y3938700D01*
X2699800Y3949300D01*
X2709400Y3968300D01*
G01X2583600Y6196400D02*
X2574000Y6202800D01*
X2562700Y6207000D01*
X2549900D01*
X2535400Y6200600D01*
X2524100Y6190100D01*
X2516100Y6177400D01*
X2509600Y6156200D01*
X2508000Y6137100D01*
X2511300Y6118100D01*
X2516100Y6105400D01*
X2525700Y6092700D01*
X2537000Y6084200D01*
X2548200Y6080000D01*
X2559500D01*
X2570800Y6084200D01*
X2580400Y6090600D01*
X2588500Y6099000D01*
G01X2647200Y6185800D02*
X2656800Y6198500D01*
X2668100Y6204900D01*
X2681000Y6207000D01*
X2697100Y6202800D01*
X2708300Y6192200D01*
X2711500Y6179500D01*
X2709900Y6166800D01*
X2703500Y6156200D01*
X2671300Y6135000D01*
X2656800Y6120200D01*
X2647200Y6099000D01*
X2644000Y6080000D01*
X2711500D01*
G01X2807200Y6207000D02*
X2794400Y6202800D01*
X2784700Y6192200D01*
X2778300Y6179500D01*
X2773500Y6162500D01*
X2771900Y6143500D01*
X2773500Y6124400D01*
X2778300Y6107500D01*
X2784700Y6094800D01*
X2794400Y6084200D01*
X2807200Y6080000D01*
X2820100Y6084200D01*
X2829800Y6094800D01*
X2836200Y6107500D01*
X2841000Y6124400D01*
X2842600Y6143500D01*
X2841000Y6162500D01*
X2836200Y6179500D01*
X2829800Y6192200D01*
X2820100Y6202800D01*
X2807200Y6207000D01*
G01X2446100Y6400000D02*
Y6527000D01*
X2486300D01*
X2499200Y6520600D01*
X2507200Y6512200D01*
X2510400Y6495200D01*
X2507200Y6478300D01*
X2497600Y6467700D01*
X2486300Y6461400D01*
X2446100D01*
G01X2486300D02*
X2510400Y6400000D01*
G01X2607700Y6527000D02*
X2594900Y6522800D01*
X2585200Y6512200D01*
X2578800Y6499500D01*
X2574000Y6482500D01*
X2572400Y6463500D01*
X2574000Y6444400D01*
X2578800Y6427500D01*
X2585200Y6414800D01*
X2594900Y6404200D01*
X2607700Y6400000D01*
X2620600Y6404200D01*
X2630300Y6414800D01*
X2636700Y6427500D01*
X2641500Y6444400D01*
X2643100Y6463500D01*
X2641500Y6482500D01*
X2636700Y6499500D01*
X2630300Y6512200D01*
X2620600Y6522800D01*
X2607700Y6527000D01*
G01X2688200Y1260000D02*
Y1317100D01*
X2656100Y1387000D01*
G01X2720400D02*
X2688200Y1317100D01*
G01X2817700Y1260000D02*
Y1387000D01*
X2798400Y1361600D01*
G01Y1260000D02*
X2837000D01*
G01X2746100Y3477000D02*
Y3350000D01*
X2810400D01*
G01X2907700D02*
Y3477000D01*
X2888400Y3451600D01*
G01Y3350000D02*
X2927000D01*
G01X2859200Y1400000D02*
Y1478700D01*
X2847500Y1463000D01*
G01Y1400000D02*
X2870900D01*
G01X2937900D02*
X2944700Y1401300D01*
X2952500Y1405200D01*
X2957400Y1411800D01*
X2959300Y1421000D01*
X2957400Y1430200D01*
X2951500Y1438000D01*
X2942800Y1442000D01*
X2933000D01*
X2927200Y1444600D01*
X2922300Y1451200D01*
X2920400Y1460300D01*
X2923300Y1469500D01*
X2930100Y1476100D01*
X2937900Y1478700D01*
X2945700Y1476100D01*
X2952500Y1469500D01*
X2955400Y1460300D01*
X2953500Y1451200D01*
X2948600Y1444600D01*
X2942800Y1442000D01*
X2933000D01*
X2924300Y1438000D01*
X2918400Y1430200D01*
X2916500Y1421000D01*
X2918400Y1411800D01*
X2923300Y1405200D01*
X2931100Y1401300D01*
X2937900Y1400000D01*
G01X2920900Y2580000D02*
Y2658700D01*
X2884900Y2602300D01*
X2933500D01*
G01X2969400Y2645600D02*
X2975200Y2653500D01*
X2982100Y2657400D01*
X2989800Y2658700D01*
X2999600Y2656100D01*
X3006400Y2649500D01*
X3008300Y2641600D01*
X3007400Y2633800D01*
X3003500Y2627200D01*
X2984000Y2614100D01*
X2975200Y2604900D01*
X2969400Y2591800D01*
X2967500Y2580000D01*
X3008300D01*
G01X3053600Y3656400D02*
X3044000Y3662800D01*
X3032700Y3667000D01*
X3019900D01*
X3005400Y3660600D01*
X2994100Y3650100D01*
X2986100Y3637400D01*
X2979600Y3616200D01*
X2978000Y3597100D01*
X2981300Y3578100D01*
X2986100Y3565400D01*
X2995700Y3552700D01*
X3007000Y3544200D01*
X3018200Y3540000D01*
X3029500D01*
X3040800Y3544200D01*
X3050400Y3550600D01*
X3058500Y3559000D01*
G01X3112400Y3565400D02*
X3122000Y3550600D01*
X3134900Y3542100D01*
X3149400Y3540000D01*
X3162200Y3542100D01*
X3175100Y3552700D01*
X3183100Y3565400D01*
X3184700Y3578100D01*
X3181500Y3592900D01*
X3170300Y3603500D01*
X3159000Y3607700D01*
X3144500D01*
G01X3159000D02*
X3168700Y3614100D01*
X3176700Y3624700D01*
X3179900Y3637400D01*
X3176700Y3650100D01*
X3168700Y3660600D01*
X3154200Y3667000D01*
X3139700Y3664900D01*
X3125200Y3656400D01*
G01X3241900Y3559000D02*
X3251500Y3548500D01*
X3262800Y3542100D01*
X3277200Y3540000D01*
X3291700Y3544200D01*
X3303000Y3552700D01*
X3311000Y3567500D01*
X3312600Y3584400D01*
X3309400Y3601400D01*
X3301400Y3612000D01*
X3290100Y3620400D01*
X3278900Y3622500D01*
X3267600Y3620400D01*
X3253100Y3612000D01*
X3257900Y3667000D01*
X3301400D01*
G01X3203600Y1396400D02*
X3194000Y1402800D01*
X3182700Y1407000D01*
X3169900D01*
X3155400Y1400600D01*
X3144100Y1390100D01*
X3136100Y1377400D01*
X3129600Y1356200D01*
X3128000Y1337100D01*
X3131300Y1318100D01*
X3136100Y1305400D01*
X3145700Y1292700D01*
X3157000Y1284200D01*
X3168200Y1280000D01*
X3179500D01*
X3190800Y1284200D01*
X3200400Y1290600D01*
X3208500Y1299000D01*
G01X3297700Y1280000D02*
Y1407000D01*
X3278400Y1381600D01*
G01Y1280000D02*
X3317000D01*
G01X3396700Y1332900D02*
X3407900Y1347700D01*
X3417600Y1356200D01*
X3430500Y1360400D01*
X3441700Y1356200D01*
X3449800Y1347700D01*
X3456200Y1335000D01*
X3457800Y1320200D01*
X3456200Y1307500D01*
X3449800Y1294800D01*
X3440100Y1284200D01*
X3428900Y1280000D01*
X3416000Y1284200D01*
X3404700Y1296900D01*
X3398300Y1316000D01*
X3396700Y1337100D01*
X3399900Y1364700D01*
X3404700Y1379500D01*
X3412800Y1394300D01*
X3424000Y1404900D01*
X3435300Y1407000D01*
X3446600Y1402800D01*
X3454600Y1392200D01*
G01X3363600Y3236400D02*
X3354000Y3242800D01*
X3342700Y3247000D01*
X3329900D01*
X3315400Y3240600D01*
X3304100Y3230100D01*
X3296100Y3217400D01*
X3289600Y3196200D01*
X3288000Y3177100D01*
X3291300Y3158100D01*
X3296100Y3145400D01*
X3305700Y3132700D01*
X3317000Y3124200D01*
X3328200Y3120000D01*
X3339500D01*
X3350800Y3124200D01*
X3360400Y3130600D01*
X3368500Y3139000D01*
G01X3457700Y3120000D02*
X3469000Y3122100D01*
X3481900Y3128500D01*
X3489900Y3139000D01*
X3493100Y3153900D01*
X3489900Y3168700D01*
X3480300Y3181400D01*
X3465800Y3187700D01*
X3449700D01*
X3440100Y3192000D01*
X3432000Y3202500D01*
X3428800Y3217400D01*
X3433600Y3232200D01*
X3444900Y3242800D01*
X3457700Y3247000D01*
X3470600Y3242800D01*
X3481900Y3232200D01*
X3486700Y3217400D01*
X3483500Y3202500D01*
X3475400Y3192000D01*
X3465800Y3187700D01*
X3449700D01*
X3435200Y3181400D01*
X3425600Y3168700D01*
X3422400Y3153900D01*
X3425600Y3139000D01*
X3433600Y3128500D01*
X3446500Y3122100D01*
X3457700Y3120000D01*
G01X3336100Y4760000D02*
Y4887000D01*
X3376300D01*
X3389200Y4880600D01*
X3397200Y4872200D01*
X3400400Y4855200D01*
X3397200Y4838300D01*
X3387600Y4827700D01*
X3376300Y4821400D01*
X3336100D01*
G01X3376300D02*
X3400400Y4760000D01*
G01X3517100D02*
Y4887000D01*
X3457500Y4796000D01*
X3538000D01*
G01X3591900Y4779000D02*
X3601500Y4768500D01*
X3612800Y4762100D01*
X3627200Y4760000D01*
X3641700Y4764200D01*
X3653000Y4772700D01*
X3661000Y4787500D01*
X3662600Y4804400D01*
X3659400Y4821400D01*
X3651400Y4832000D01*
X3640100Y4840400D01*
X3628900Y4842500D01*
X3617600Y4840400D01*
X3603100Y4832000D01*
X3607900Y4887000D01*
X3651400D01*
G01X3403600Y5106400D02*
X3394000Y5112800D01*
X3382700Y5117000D01*
X3369900D01*
X3355400Y5110600D01*
X3344100Y5100100D01*
X3336100Y5087400D01*
X3329600Y5066200D01*
X3328000Y5047100D01*
X3331300Y5028100D01*
X3336100Y5015400D01*
X3345700Y5002700D01*
X3357000Y4994200D01*
X3368200Y4990000D01*
X3379500D01*
X3390800Y4994200D01*
X3400400Y5000600D01*
X3408500Y5009000D01*
G01X3462400Y5015400D02*
X3472000Y5000600D01*
X3484900Y4992100D01*
X3499400Y4990000D01*
X3512200Y4992100D01*
X3525100Y5002700D01*
X3533100Y5015400D01*
X3534700Y5028100D01*
X3531500Y5042900D01*
X3520300Y5053500D01*
X3509000Y5057700D01*
X3494500D01*
G01X3509000D02*
X3518700Y5064100D01*
X3526700Y5074700D01*
X3529900Y5087400D01*
X3526700Y5100100D01*
X3518700Y5110600D01*
X3504200Y5117000D01*
X3489700Y5114900D01*
X3475200Y5106400D01*
G01X3624000Y4990000D02*
X3627200Y5017500D01*
X3632100Y5040800D01*
X3638500Y5062000D01*
X3646600Y5085200D01*
X3659400Y5117000D01*
X3595100D01*
G01X3393600Y5426400D02*
X3384000Y5432800D01*
X3372700Y5437000D01*
X3359900D01*
X3345400Y5430600D01*
X3334100Y5420100D01*
X3326100Y5407400D01*
X3319600Y5386200D01*
X3318000Y5367100D01*
X3321300Y5348100D01*
X3326100Y5335400D01*
X3335700Y5322700D01*
X3347000Y5314200D01*
X3358200Y5310000D01*
X3369500D01*
X3380800Y5314200D01*
X3390400Y5320600D01*
X3398500Y5329000D01*
G01X3452400Y5335400D02*
X3462000Y5320600D01*
X3474900Y5312100D01*
X3489400Y5310000D01*
X3502200Y5312100D01*
X3515100Y5322700D01*
X3523100Y5335400D01*
X3524700Y5348100D01*
X3521500Y5362900D01*
X3510300Y5373500D01*
X3499000Y5377700D01*
X3484500D01*
G01X3499000D02*
X3508700Y5384100D01*
X3516700Y5394700D01*
X3519900Y5407400D01*
X3516700Y5420100D01*
X3508700Y5430600D01*
X3494200Y5437000D01*
X3479700Y5434900D01*
X3465200Y5426400D01*
G01X3586700Y5362900D02*
X3597900Y5377700D01*
X3607600Y5386200D01*
X3620500Y5390400D01*
X3631700Y5386200D01*
X3639800Y5377700D01*
X3646200Y5365000D01*
X3647800Y5350200D01*
X3646200Y5337500D01*
X3639800Y5324800D01*
X3630100Y5314200D01*
X3618900Y5310000D01*
X3606000Y5314200D01*
X3594700Y5326900D01*
X3588300Y5346000D01*
X3586700Y5367100D01*
X3589900Y5394700D01*
X3594700Y5409500D01*
X3602800Y5424300D01*
X3614000Y5434900D01*
X3625300Y5437000D01*
X3636600Y5432800D01*
X3644600Y5422200D01*
G01X3467800Y690000D02*
Y768700D01*
X3487300D01*
X3495000Y764800D01*
X3500900Y759500D01*
X3505700Y751600D01*
X3509600Y742500D01*
X3510600Y729300D01*
X3509600Y716200D01*
X3505700Y707100D01*
X3500900Y699200D01*
X3495000Y693900D01*
X3487300Y690000D01*
X3467800D01*
G01X3546500Y705700D02*
X3552300Y696600D01*
X3560100Y691300D01*
X3568900Y690000D01*
X3576700Y691300D01*
X3584400Y697900D01*
X3589300Y705700D01*
X3590300Y713600D01*
X3588300Y722800D01*
X3581500Y729300D01*
X3574700Y732000D01*
X3566000D01*
G01X3574700D02*
X3580600Y735900D01*
X3585400Y742500D01*
X3587400Y750300D01*
X3585400Y758200D01*
X3580600Y764800D01*
X3571800Y768700D01*
X3563000Y767400D01*
X3554300Y762100D01*
G01X3439700Y1550000D02*
Y1628700D01*
X3464100D01*
X3471900Y1624800D01*
X3476700Y1619500D01*
X3478700Y1609000D01*
X3476700Y1598500D01*
X3470900Y1592000D01*
X3464100Y1588000D01*
X3439700D01*
G01X3464100D02*
X3478700Y1550000D01*
G01X3537900D02*
Y1628700D01*
X3526200Y1613000D01*
G01Y1550000D02*
X3549600D01*
G01X3595200Y1561800D02*
X3601000Y1555200D01*
X3607800Y1551300D01*
X3616600Y1550000D01*
X3625400Y1552600D01*
X3632200Y1557900D01*
X3637000Y1567100D01*
X3638000Y1577500D01*
X3636100Y1588000D01*
X3631200Y1594600D01*
X3624400Y1599800D01*
X3617600Y1601200D01*
X3610800Y1599800D01*
X3602000Y1594600D01*
X3604900Y1628700D01*
X3631200D01*
G01X3575700Y1952200D02*
X3566600Y1946400D01*
X3561300Y1938600D01*
X3560000Y1929800D01*
X3561300Y1922000D01*
X3567900Y1914300D01*
X3575700Y1909400D01*
X3583600Y1908400D01*
X3592800Y1910400D01*
X3599300Y1917200D01*
X3602000Y1924000D01*
Y1932700D01*
G01Y1924000D02*
X3605900Y1918100D01*
X3612500Y1913300D01*
X3620300Y1911300D01*
X3628200Y1913300D01*
X3634800Y1918100D01*
X3638700Y1926900D01*
X3637400Y1935700D01*
X3632100Y1944400D01*
G01X3638700Y1852100D02*
X3636100Y1859900D01*
X3629500Y1865700D01*
X3621600Y1869600D01*
X3611200Y1872500D01*
X3599300Y1873500D01*
X3587500Y1872500D01*
X3577100Y1869600D01*
X3569200Y1865700D01*
X3562600Y1859900D01*
X3560000Y1852100D01*
X3562600Y1844300D01*
X3569200Y1838500D01*
X3577100Y1834600D01*
X3587500Y1831700D01*
X3599300Y1830700D01*
X3611200Y1831700D01*
X3621600Y1834600D01*
X3629500Y1838500D01*
X3636100Y1844300D01*
X3638700Y1852100D01*
G01X3392900Y2767000D02*
Y2676000D01*
X3399300Y2656900D01*
X3412200Y2644200D01*
X3428200Y2640000D01*
X3444300Y2644200D01*
X3457200Y2656900D01*
X3463600Y2676000D01*
Y2767000D01*
G01X3557700Y2640000D02*
Y2767000D01*
X3538400Y2741600D01*
G01Y2640000D02*
X3577000D01*
G01X3433600Y3996400D02*
X3424000Y4002800D01*
X3412700Y4007000D01*
X3399900D01*
X3385400Y4000600D01*
X3374100Y3990100D01*
X3366100Y3977400D01*
X3359600Y3956200D01*
X3358000Y3937100D01*
X3361300Y3918100D01*
X3366100Y3905400D01*
X3375700Y3892700D01*
X3387000Y3884200D01*
X3398200Y3880000D01*
X3409500D01*
X3420800Y3884200D01*
X3430400Y3890600D01*
X3438500Y3899000D01*
G01X3497200Y3985800D02*
X3506800Y3998500D01*
X3518100Y4004900D01*
X3531000Y4007000D01*
X3547100Y4002800D01*
X3558300Y3992200D01*
X3561500Y3979500D01*
X3559900Y3966800D01*
X3553500Y3956200D01*
X3521300Y3935000D01*
X3506800Y3920200D01*
X3497200Y3899000D01*
X3494000Y3880000D01*
X3561500D01*
G01X3654000D02*
X3657200Y3907500D01*
X3662100Y3930800D01*
X3668500Y3952000D01*
X3676600Y3975200D01*
X3689400Y4007000D01*
X3625100D01*
G01X3650600Y1452100D02*
X3644800Y1456100D01*
X3638000Y1458700D01*
X3630200D01*
X3621400Y1454800D01*
X3614600Y1448200D01*
X3609700Y1440300D01*
X3605800Y1427200D01*
X3604900Y1415400D01*
X3606800Y1403600D01*
X3609700Y1395700D01*
X3615600Y1387900D01*
X3622400Y1382600D01*
X3629200Y1380000D01*
X3636000D01*
X3642800Y1382600D01*
X3648700Y1386600D01*
X3653500Y1391800D01*
G01X3719600Y1380000D02*
Y1458700D01*
X3683600Y1402300D01*
X3732200D01*
G01X3786600Y1380000D02*
Y1458700D01*
X3774900Y1443000D01*
G01Y1380000D02*
X3798300D01*
G01X3716100Y4210000D02*
Y4337000D01*
X3756300D01*
X3769200Y4330600D01*
X3777200Y4322200D01*
X3780400Y4305200D01*
X3777200Y4288300D01*
X3767600Y4277700D01*
X3756300Y4271400D01*
X3716100D01*
G01X3756300D02*
X3780400Y4210000D01*
G01X3897100D02*
Y4337000D01*
X3837500Y4246000D01*
X3918000D01*
G01X3976700Y4262900D02*
X3987900Y4277700D01*
X3997600Y4286200D01*
X4010500Y4290400D01*
X4021700Y4286200D01*
X4029800Y4277700D01*
X4036200Y4265000D01*
X4037800Y4250200D01*
X4036200Y4237500D01*
X4029800Y4224800D01*
X4020100Y4214200D01*
X4008900Y4210000D01*
X3996000Y4214200D01*
X3984700Y4226900D01*
X3978300Y4246000D01*
X3976700Y4267100D01*
X3979900Y4294700D01*
X3984700Y4309500D01*
X3992800Y4324300D01*
X4004000Y4334900D01*
X4015300Y4337000D01*
X4026600Y4332800D01*
X4034600Y4322200D01*
G01X3913600Y5696400D02*
X3904000Y5702800D01*
X3892700Y5707000D01*
X3879900D01*
X3865400Y5700600D01*
X3854100Y5690100D01*
X3846100Y5677400D01*
X3839600Y5656200D01*
X3838000Y5637100D01*
X3841300Y5618100D01*
X3846100Y5605400D01*
X3855700Y5592700D01*
X3867000Y5584200D01*
X3878200Y5580000D01*
X3889500D01*
X3900800Y5584200D01*
X3910400Y5590600D01*
X3918500Y5599000D01*
G01X3977200Y5685800D02*
X3986800Y5698500D01*
X3998100Y5704900D01*
X4011000Y5707000D01*
X4027100Y5702800D01*
X4038300Y5692200D01*
X4041500Y5679500D01*
X4039900Y5666800D01*
X4033500Y5656200D01*
X4001300Y5635000D01*
X3986800Y5620200D01*
X3977200Y5599000D01*
X3974000Y5580000D01*
X4041500D01*
G01X4109900Y5594800D02*
X4121200Y5584200D01*
X4134000Y5580000D01*
X4146900Y5584200D01*
X4158200Y5596900D01*
X4166200Y5616000D01*
X4169400Y5635000D01*
Y5658300D01*
X4166200Y5677400D01*
X4158200Y5694300D01*
X4148500Y5702800D01*
X4137200Y5707000D01*
X4124400Y5702800D01*
X4114700Y5694300D01*
X4108300Y5681600D01*
X4105100Y5664700D01*
X4108300Y5649900D01*
X4116300Y5635000D01*
X4126000Y5626600D01*
X4137200Y5624400D01*
X4150100Y5628700D01*
X4159800Y5639300D01*
X4169400Y5658300D01*
G01X3903600Y5916400D02*
X3894000Y5922800D01*
X3882700Y5927000D01*
X3869900D01*
X3855400Y5920600D01*
X3844100Y5910100D01*
X3836100Y5897400D01*
X3829600Y5876200D01*
X3828000Y5857100D01*
X3831300Y5838100D01*
X3836100Y5825400D01*
X3845700Y5812700D01*
X3857000Y5804200D01*
X3868200Y5800000D01*
X3879500D01*
X3890800Y5804200D01*
X3900400Y5810600D01*
X3908500Y5819000D01*
G01X3967200Y5905800D02*
X3976800Y5918500D01*
X3988100Y5924900D01*
X4001000Y5927000D01*
X4017100Y5922800D01*
X4028300Y5912200D01*
X4031500Y5899500D01*
X4029900Y5886800D01*
X4023500Y5876200D01*
X3991300Y5855000D01*
X3976800Y5840200D01*
X3967200Y5819000D01*
X3964000Y5800000D01*
X4031500D01*
G01X4146600D02*
Y5927000D01*
X4087000Y5836000D01*
X4167500D01*
G01X3782900Y6197000D02*
Y6106000D01*
X3789300Y6086900D01*
X3802200Y6074200D01*
X3818200Y6070000D01*
X3834300Y6074200D01*
X3847200Y6086900D01*
X3853600Y6106000D01*
Y6197000D01*
G01X3912400Y6095400D02*
X3922000Y6080600D01*
X3934900Y6072100D01*
X3949400Y6070000D01*
X3962200Y6072100D01*
X3975100Y6082700D01*
X3983100Y6095400D01*
X3984700Y6108100D01*
X3981500Y6122900D01*
X3970300Y6133500D01*
X3959000Y6137700D01*
X3944500D01*
G01X3959000D02*
X3968700Y6144100D01*
X3976700Y6154700D01*
X3979900Y6167400D01*
X3976700Y6180100D01*
X3968700Y6190600D01*
X3954200Y6197000D01*
X3939700Y6194900D01*
X3925200Y6186400D01*
G01X3940600Y1452100D02*
X3934800Y1456100D01*
X3928000Y1458700D01*
X3920200D01*
X3911400Y1454800D01*
X3904600Y1448200D01*
X3899700Y1440300D01*
X3895800Y1427200D01*
X3894900Y1415400D01*
X3896800Y1403600D01*
X3899700Y1395700D01*
X3905600Y1387900D01*
X3912400Y1382600D01*
X3919200Y1380000D01*
X3926000D01*
X3932800Y1382600D01*
X3938700Y1386600D01*
X3943500Y1391800D01*
G01X4009600Y1380000D02*
Y1458700D01*
X3973600Y1402300D01*
X4022200D01*
G01X4076600Y1458700D02*
X4068800Y1456100D01*
X4063000Y1449500D01*
X4059100Y1441600D01*
X4056200Y1431200D01*
X4055200Y1419300D01*
X4056200Y1407500D01*
X4059100Y1397100D01*
X4063000Y1389200D01*
X4068800Y1382600D01*
X4076600Y1380000D01*
X4084400Y1382600D01*
X4090200Y1389200D01*
X4094100Y1397100D01*
X4097000Y1407500D01*
X4098000Y1419300D01*
X4097000Y1431200D01*
X4094100Y1441600D01*
X4090200Y1449500D01*
X4084400Y1456100D01*
X4076600Y1458700D01*
G01X4089700Y1890000D02*
Y1968700D01*
X4114100D01*
X4121900Y1964800D01*
X4126700Y1959500D01*
X4128700Y1949000D01*
X4126700Y1938500D01*
X4120900Y1932000D01*
X4114100Y1928000D01*
X4089700D01*
G01X4114100D02*
X4128700Y1890000D01*
G01X4187900D02*
Y1968700D01*
X4176200Y1953000D01*
G01Y1890000D02*
X4199600D01*
G01X4266600D02*
Y1968700D01*
X4254900Y1953000D01*
G01Y1890000D02*
X4278300D01*
G01X4089700Y2070000D02*
Y2148700D01*
X4114100D01*
X4121900Y2144800D01*
X4126700Y2139500D01*
X4128700Y2129000D01*
X4126700Y2118500D01*
X4120900Y2112000D01*
X4114100Y2108000D01*
X4089700D01*
G01X4114100D02*
X4128700Y2070000D01*
G01X4171400Y2079200D02*
X4178200Y2072600D01*
X4186000Y2070000D01*
X4193700Y2072600D01*
X4200600Y2080500D01*
X4205400Y2092300D01*
X4207400Y2104100D01*
Y2118500D01*
X4205400Y2130300D01*
X4200600Y2140800D01*
X4194700Y2146100D01*
X4187900Y2148700D01*
X4180100Y2146100D01*
X4174300Y2140800D01*
X4170400Y2133000D01*
X4168400Y2122500D01*
X4170400Y2113300D01*
X4175200Y2104100D01*
X4181100Y2098900D01*
X4187900Y2097500D01*
X4195700Y2100200D01*
X4201500Y2106700D01*
X4207400Y2118500D01*
G01X4130600Y2332100D02*
X4124800Y2336100D01*
X4118000Y2338700D01*
X4110200D01*
X4101400Y2334800D01*
X4094600Y2328200D01*
X4089700Y2320300D01*
X4085800Y2307200D01*
X4084900Y2295400D01*
X4086800Y2283600D01*
X4089700Y2275700D01*
X4095600Y2267900D01*
X4102400Y2262600D01*
X4109200Y2260000D01*
X4116000D01*
X4122800Y2262600D01*
X4128700Y2266600D01*
X4133500Y2271800D01*
G01X4169400Y2325600D02*
X4175200Y2333500D01*
X4182100Y2337400D01*
X4189800Y2338700D01*
X4199600Y2336100D01*
X4206400Y2329500D01*
X4208300Y2321600D01*
X4207400Y2313800D01*
X4203500Y2307200D01*
X4184000Y2294100D01*
X4175200Y2284900D01*
X4169400Y2271800D01*
X4167500Y2260000D01*
X4208300D01*
G01X3993600Y4466400D02*
X3984000Y4472800D01*
X3972700Y4477000D01*
X3959900D01*
X3945400Y4470600D01*
X3934100Y4460100D01*
X3926100Y4447400D01*
X3919600Y4426200D01*
X3918000Y4407100D01*
X3921300Y4388100D01*
X3926100Y4375400D01*
X3935700Y4362700D01*
X3947000Y4354200D01*
X3958200Y4350000D01*
X3969500D01*
X3980800Y4354200D01*
X3990400Y4360600D01*
X3998500Y4369000D01*
G01X4052400Y4375400D02*
X4062000Y4360600D01*
X4074900Y4352100D01*
X4089400Y4350000D01*
X4102200Y4352100D01*
X4115100Y4362700D01*
X4123100Y4375400D01*
X4124700Y4388100D01*
X4121500Y4402900D01*
X4110300Y4413500D01*
X4099000Y4417700D01*
X4084500D01*
G01X4099000D02*
X4108700Y4424100D01*
X4116700Y4434700D01*
X4119900Y4447400D01*
X4116700Y4460100D01*
X4108700Y4470600D01*
X4094200Y4477000D01*
X4079700Y4474900D01*
X4065200Y4466400D01*
G01X4189900Y4364800D02*
X4201200Y4354200D01*
X4214000Y4350000D01*
X4226900Y4354200D01*
X4238200Y4366900D01*
X4246200Y4386000D01*
X4249400Y4405000D01*
Y4428300D01*
X4246200Y4447400D01*
X4238200Y4464300D01*
X4228500Y4472800D01*
X4217200Y4477000D01*
X4204400Y4472800D01*
X4194700Y4464300D01*
X4188300Y4451600D01*
X4185100Y4434700D01*
X4188300Y4419900D01*
X4196300Y4405000D01*
X4206000Y4396600D01*
X4217200Y4394400D01*
X4230100Y4398700D01*
X4239800Y4409300D01*
X4249400Y4428300D01*
G01X4216400Y4856400D02*
X4222800Y4866000D01*
X4227000Y4877300D01*
Y4890100D01*
X4220600Y4904600D01*
X4210100Y4915900D01*
X4197400Y4923900D01*
X4176200Y4930400D01*
X4157100Y4932000D01*
X4138100Y4928700D01*
X4125400Y4923900D01*
X4112700Y4914300D01*
X4104200Y4903000D01*
X4100000Y4891800D01*
Y4880500D01*
X4104200Y4869200D01*
X4110600Y4859600D01*
X4119000Y4851500D01*
G01X4125400Y4797600D02*
X4110600Y4788000D01*
X4102100Y4775100D01*
X4100000Y4760600D01*
X4102100Y4747800D01*
X4112700Y4734900D01*
X4125400Y4726900D01*
X4138100Y4725300D01*
X4152900Y4728500D01*
X4163500Y4739700D01*
X4167700Y4751000D01*
Y4765500D01*
G01Y4751000D02*
X4174100Y4741300D01*
X4184700Y4733300D01*
X4197400Y4730100D01*
X4210100Y4733300D01*
X4220600Y4741300D01*
X4227000Y4755800D01*
X4224900Y4770300D01*
X4216400Y4784800D01*
G01X4100000Y4632800D02*
X4102100Y4621500D01*
X4108500Y4608600D01*
X4119000Y4600600D01*
X4133900Y4597400D01*
X4148700Y4600600D01*
X4161400Y4610200D01*
X4167700Y4624700D01*
Y4640800D01*
X4172000Y4650400D01*
X4182500Y4658500D01*
X4197400Y4661700D01*
X4212200Y4656900D01*
X4222800Y4645600D01*
X4227000Y4632800D01*
X4222800Y4619900D01*
X4212200Y4608600D01*
X4197400Y4603800D01*
X4182500Y4607000D01*
X4172000Y4615100D01*
X4167700Y4624700D01*
Y4640800D01*
X4161400Y4655300D01*
X4148700Y4664900D01*
X4133900Y4668100D01*
X4119000Y4664900D01*
X4108500Y4656900D01*
X4102100Y4644000D01*
X4100000Y4632800D01*
G01X4057800Y6000000D02*
Y6078700D01*
X4077300D01*
X4085000Y6074800D01*
X4090900Y6069500D01*
X4095700Y6061600D01*
X4099600Y6052500D01*
X4100600Y6039300D01*
X4099600Y6026200D01*
X4095700Y6017100D01*
X4090900Y6009200D01*
X4085000Y6003900D01*
X4077300Y6000000D01*
X4057800D01*
G01X4146200Y6078700D02*
X4169600D01*
G01X4157900D02*
Y6000000D01*
G01X4146200D02*
X4169600D01*
G01X4236600D02*
X4228800Y6001300D01*
X4222000Y6006600D01*
X4216200Y6014400D01*
X4212300Y6023600D01*
X4210300Y6034100D01*
Y6044600D01*
X4212300Y6055100D01*
X4216200Y6064300D01*
X4222000Y6072100D01*
X4228800Y6077400D01*
X4236600Y6078700D01*
X4244400Y6077400D01*
X4251200Y6072100D01*
X4257000Y6064300D01*
X4260900Y6055100D01*
X4262900Y6044600D01*
Y6034100D01*
X4260900Y6023600D01*
X4257000Y6014400D01*
X4251200Y6006600D01*
X4244400Y6001300D01*
X4236600Y6000000D01*
G01X4100600Y6292100D02*
X4094800Y6296100D01*
X4088000Y6298700D01*
X4080200D01*
X4071400Y6294800D01*
X4064600Y6288200D01*
X4059700Y6280300D01*
X4055800Y6267200D01*
X4054900Y6255400D01*
X4056800Y6243600D01*
X4059700Y6235700D01*
X4065600Y6227900D01*
X4072400Y6222600D01*
X4079200Y6220000D01*
X4086000D01*
X4092800Y6222600D01*
X4098700Y6226600D01*
X4103500Y6231800D01*
G01X4138400Y6298700D02*
Y6220000D01*
X4177400D01*
G01X4215200D02*
Y6298700D01*
G01X4252200D02*
X4215200Y6250200D01*
G01X4258000Y6220000D02*
X4231700Y6272500D01*
G01X4048800Y6520500D02*
X4056500Y6513900D01*
X4065300Y6510000D01*
X4073100D01*
X4080900Y6513900D01*
X4086700Y6520500D01*
X4089600Y6529700D01*
X4087700Y6538900D01*
X4082800Y6546700D01*
X4074100Y6552000D01*
X4062400Y6554600D01*
X4055600Y6559800D01*
X4052700Y6569000D01*
X4054600Y6578200D01*
X4059500Y6584800D01*
X4066300Y6588700D01*
X4073100D01*
X4079900Y6586100D01*
X4085700Y6579500D01*
G01X4118700Y6588700D02*
X4132300Y6510000D01*
X4147900Y6588700D01*
X4163500Y6510000D01*
X4177100Y6588700D01*
G01X4226600Y6510000D02*
X4218800Y6511300D01*
X4212000Y6516600D01*
X4206200Y6524400D01*
X4202300Y6533600D01*
X4200300Y6544100D01*
Y6554600D01*
X4202300Y6565100D01*
X4206200Y6574300D01*
X4212000Y6582100D01*
X4218800Y6587400D01*
X4226600Y6588700D01*
X4234400Y6587400D01*
X4241200Y6582100D01*
X4247000Y6574300D01*
X4250900Y6565100D01*
X4252900Y6554600D01*
Y6544100D01*
X4250900Y6533600D01*
X4247000Y6524400D01*
X4241200Y6516600D01*
X4234400Y6511300D01*
X4226600Y6510000D01*
G01X4389700Y1115700D02*
X4394600Y1107900D01*
X4400400Y1102600D01*
X4407300Y1100000D01*
X4415000Y1102600D01*
X4420900Y1107900D01*
X4426700Y1115700D01*
X4428700Y1126200D01*
Y1178700D01*
G01X4466500Y1115700D02*
X4472300Y1106600D01*
X4480100Y1101300D01*
X4488900Y1100000D01*
X4496700Y1101300D01*
X4504400Y1107900D01*
X4509300Y1115700D01*
X4510300Y1123600D01*
X4508300Y1132800D01*
X4501500Y1139300D01*
X4494700Y1142000D01*
X4486000D01*
G01X4494700D02*
X4500600Y1145900D01*
X4505400Y1152500D01*
X4507400Y1160300D01*
X4505400Y1168200D01*
X4500600Y1174800D01*
X4491800Y1178700D01*
X4483000Y1177400D01*
X4474300Y1172100D01*
G01X4189700Y1440000D02*
Y1518700D01*
X4214100D01*
X4221900Y1514800D01*
X4226700Y1509500D01*
X4228700Y1499000D01*
X4226700Y1488500D01*
X4220900Y1482000D01*
X4214100Y1478000D01*
X4189700D01*
G01X4214100D02*
X4228700Y1440000D01*
G01X4266500Y1451800D02*
X4272300Y1445200D01*
X4279100Y1441300D01*
X4287900Y1440000D01*
X4296700Y1442600D01*
X4303500Y1447900D01*
X4308300Y1457100D01*
X4309300Y1467500D01*
X4307400Y1478000D01*
X4302500Y1484600D01*
X4295700Y1489800D01*
X4288900Y1491200D01*
X4282100Y1489800D01*
X4273300Y1484600D01*
X4276200Y1518700D01*
X4302500D01*
G01X4366600D02*
X4358800Y1516100D01*
X4353000Y1509500D01*
X4349100Y1501600D01*
X4346200Y1491200D01*
X4345200Y1479300D01*
X4346200Y1467500D01*
X4349100Y1457100D01*
X4353000Y1449200D01*
X4358800Y1442600D01*
X4366600Y1440000D01*
X4374400Y1442600D01*
X4380200Y1449200D01*
X4384100Y1457100D01*
X4387000Y1467500D01*
X4388000Y1479300D01*
X4387000Y1491200D01*
X4384100Y1501600D01*
X4380200Y1509500D01*
X4374400Y1516100D01*
X4366600Y1518700D01*
G01X4360000Y2029700D02*
X4281300D01*
Y2054100D01*
X4285200Y2061900D01*
X4290500Y2066700D01*
X4301000Y2068700D01*
X4311500Y2066700D01*
X4318000Y2060900D01*
X4322000Y2054100D01*
Y2029700D01*
G01Y2054100D02*
X4360000Y2068700D01*
G01X4294400Y2109400D02*
X4286500Y2115200D01*
X4282600Y2122100D01*
X4281300Y2129800D01*
X4283900Y2139600D01*
X4290500Y2146400D01*
X4298400Y2148300D01*
X4306200Y2147400D01*
X4312800Y2143500D01*
X4325900Y2124000D01*
X4335100Y2115200D01*
X4348200Y2109400D01*
X4360000Y2107500D01*
Y2148300D01*
G01X4327200Y2188100D02*
X4318000Y2194900D01*
X4312800Y2200800D01*
X4310200Y2208500D01*
X4312800Y2215400D01*
X4318000Y2220200D01*
X4325900Y2224100D01*
X4335100Y2225100D01*
X4342900Y2224100D01*
X4350800Y2220200D01*
X4357400Y2214400D01*
X4360000Y2207600D01*
X4357400Y2199800D01*
X4349500Y2193000D01*
X4337700Y2189100D01*
X4324600Y2188100D01*
X4307500Y2190100D01*
X4298400Y2193000D01*
X4289200Y2197800D01*
X4282600Y2204700D01*
X4281300Y2211500D01*
X4283900Y2218300D01*
X4290500Y2223100D01*
G01X4199700Y2430000D02*
Y2508700D01*
X4224100D01*
X4231900Y2504800D01*
X4236700Y2499500D01*
X4238700Y2489000D01*
X4236700Y2478500D01*
X4230900Y2472000D01*
X4224100Y2468000D01*
X4199700D01*
G01X4224100D02*
X4238700Y2430000D01*
G01X4279400Y2495600D02*
X4285200Y2503500D01*
X4292100Y2507400D01*
X4299800Y2508700D01*
X4309600Y2506100D01*
X4316400Y2499500D01*
X4318300Y2491600D01*
X4317400Y2483800D01*
X4313500Y2477200D01*
X4294000Y2464100D01*
X4285200Y2454900D01*
X4279400Y2441800D01*
X4277500Y2430000D01*
X4318300D01*
G01X4355200Y2441800D02*
X4361000Y2435200D01*
X4367800Y2431300D01*
X4376600Y2430000D01*
X4385400Y2432600D01*
X4392200Y2437900D01*
X4397000Y2447100D01*
X4398000Y2457500D01*
X4396100Y2468000D01*
X4391200Y2474600D01*
X4384400Y2479800D01*
X4377600Y2481200D01*
X4370800Y2479800D01*
X4362000Y2474600D01*
X4364900Y2508700D01*
X4391200D01*
G01X4467800Y138700D02*
Y82300D01*
X4471700Y70500D01*
X4479500Y62600D01*
X4489200Y60000D01*
X4498900Y62600D01*
X4506700Y70500D01*
X4510600Y82300D01*
Y138700D01*
G01X4579600Y60000D02*
Y138700D01*
X4543600Y82300D01*
X4592200D01*
G01X4557800Y1271800D02*
X4563600Y1265200D01*
X4570400Y1261300D01*
X4579200Y1260000D01*
X4588000Y1262600D01*
X4594800Y1267900D01*
X4599600Y1277100D01*
X4600600Y1287500D01*
X4598700Y1298000D01*
X4593800Y1304600D01*
X4587000Y1309800D01*
X4580200Y1311200D01*
X4573400Y1309800D01*
X4564600Y1304600D01*
X4567500Y1338700D01*
X4593800D01*
G01X4633600D02*
X4657900Y1260000D01*
X4682200Y1338700D01*
G01X4700000Y1579700D02*
X4621300D01*
Y1604100D01*
X4625200Y1611900D01*
X4630500Y1616700D01*
X4641000Y1618700D01*
X4651500Y1616700D01*
X4658000Y1610900D01*
X4662000Y1604100D01*
Y1579700D01*
G01Y1604100D02*
X4700000Y1618700D01*
G01X4634400Y1659400D02*
X4626500Y1665200D01*
X4622600Y1672100D01*
X4621300Y1679800D01*
X4623900Y1689600D01*
X4630500Y1696400D01*
X4638400Y1698300D01*
X4646200Y1697400D01*
X4652800Y1693500D01*
X4665900Y1674000D01*
X4675100Y1665200D01*
X4688200Y1659400D01*
X4700000Y1657500D01*
Y1698300D01*
G01Y1768300D02*
X4621300D01*
X4677700Y1732300D01*
Y1780900D01*
G01X4620000Y2576100D02*
X4493000D01*
Y2616300D01*
X4499400Y2629200D01*
X4507800Y2637200D01*
X4524800Y2640400D01*
X4541700Y2637200D01*
X4552300Y2627600D01*
X4558600Y2616300D01*
Y2576100D01*
G01Y2616300D02*
X4620000Y2640400D01*
G01X4594600Y2702400D02*
X4609400Y2712000D01*
X4617900Y2724900D01*
X4620000Y2739400D01*
X4617900Y2752200D01*
X4607300Y2765100D01*
X4594600Y2773100D01*
X4581900Y2774700D01*
X4567100Y2771500D01*
X4556500Y2760300D01*
X4552300Y2749000D01*
Y2734500D01*
G01Y2749000D02*
X4545900Y2758700D01*
X4535300Y2766700D01*
X4522600Y2769900D01*
X4509900Y2766700D01*
X4499400Y2758700D01*
X4493000Y2744200D01*
X4495100Y2729700D01*
X4503600Y2715200D01*
G01X4620000Y2886600D02*
X4493000D01*
X4584000Y2827000D01*
Y2907500D01*
G01X4790000Y2576100D02*
X4663000D01*
Y2616300D01*
X4669400Y2629200D01*
X4677800Y2637200D01*
X4694800Y2640400D01*
X4711700Y2637200D01*
X4722300Y2627600D01*
X4728600Y2616300D01*
Y2576100D01*
G01Y2616300D02*
X4790000Y2640400D01*
G01X4764600Y2702400D02*
X4779400Y2712000D01*
X4787900Y2724900D01*
X4790000Y2739400D01*
X4787900Y2752200D01*
X4777300Y2765100D01*
X4764600Y2773100D01*
X4751900Y2774700D01*
X4737100Y2771500D01*
X4726500Y2760300D01*
X4722300Y2749000D01*
Y2734500D01*
G01Y2749000D02*
X4715900Y2758700D01*
X4705300Y2766700D01*
X4692600Y2769900D01*
X4679900Y2766700D01*
X4669400Y2758700D01*
X4663000Y2744200D01*
X4665100Y2729700D01*
X4673600Y2715200D01*
G01X4684200Y2836700D02*
X4671500Y2846300D01*
X4665100Y2857600D01*
X4663000Y2870500D01*
X4667200Y2886600D01*
X4677800Y2897800D01*
X4690500Y2901000D01*
X4703200Y2899400D01*
X4713800Y2893000D01*
X4735000Y2860800D01*
X4749800Y2846300D01*
X4771000Y2836700D01*
X4790000Y2833500D01*
Y2901000D01*
G01X4456100Y3080000D02*
Y3207000D01*
X4496300D01*
X4509200Y3200600D01*
X4517200Y3192200D01*
X4520400Y3175200D01*
X4517200Y3158300D01*
X4507600Y3147700D01*
X4496300Y3141400D01*
X4456100D01*
G01X4496300D02*
X4520400Y3080000D01*
G01X4582400Y3105400D02*
X4592000Y3090600D01*
X4604900Y3082100D01*
X4619400Y3080000D01*
X4632200Y3082100D01*
X4645100Y3092700D01*
X4653100Y3105400D01*
X4654700Y3118100D01*
X4651500Y3132900D01*
X4640300Y3143500D01*
X4629000Y3147700D01*
X4614500D01*
G01X4629000D02*
X4638700Y3154100D01*
X4646700Y3164700D01*
X4649900Y3177400D01*
X4646700Y3190100D01*
X4638700Y3200600D01*
X4624200Y3207000D01*
X4609700Y3204900D01*
X4595200Y3196400D01*
G01X4711900Y3105400D02*
X4721500Y3090600D01*
X4734400Y3082100D01*
X4748900Y3080000D01*
X4761700Y3082100D01*
X4774600Y3092700D01*
X4782600Y3105400D01*
X4784200Y3118100D01*
X4781000Y3132900D01*
X4769800Y3143500D01*
X4758500Y3147700D01*
X4744000D01*
G01X4758500D02*
X4768200Y3154100D01*
X4776200Y3164700D01*
X4779400Y3177400D01*
X4776200Y3190100D01*
X4768200Y3200600D01*
X4753700Y3207000D01*
X4739200Y3204900D01*
X4724700Y3196400D01*
G01X4600000Y3286100D02*
X4473000D01*
Y3326300D01*
X4479400Y3339200D01*
X4487800Y3347200D01*
X4504800Y3350400D01*
X4521700Y3347200D01*
X4532300Y3337600D01*
X4538600Y3326300D01*
Y3286100D01*
G01Y3326300D02*
X4600000Y3350400D01*
G01X4574600Y3412400D02*
X4589400Y3422000D01*
X4597900Y3434900D01*
X4600000Y3449400D01*
X4597900Y3462200D01*
X4587300Y3475100D01*
X4574600Y3483100D01*
X4561900Y3484700D01*
X4547100Y3481500D01*
X4536500Y3470300D01*
X4532300Y3459000D01*
Y3444500D01*
G01Y3459000D02*
X4525900Y3468700D01*
X4515300Y3476700D01*
X4502600Y3479900D01*
X4489900Y3476700D01*
X4479400Y3468700D01*
X4473000Y3454200D01*
X4475100Y3439700D01*
X4483600Y3425200D01*
G01X4600000Y3574000D02*
X4572500Y3577200D01*
X4549200Y3582100D01*
X4528000Y3588500D01*
X4504800Y3596600D01*
X4473000Y3609400D01*
Y3545100D01*
G01X4615000Y5849300D02*
X4634500D01*
Y5825700D01*
X4628700Y5817900D01*
X4621900Y5812600D01*
X4612100Y5810000D01*
X4602400Y5812600D01*
X4595600Y5817900D01*
X4589700Y5825700D01*
X4585800Y5834900D01*
X4583900Y5845400D01*
Y5854600D01*
X4585800Y5862500D01*
X4589700Y5871600D01*
X4595600Y5879500D01*
X4601400Y5884800D01*
X4609200Y5888700D01*
X4616000D01*
X4623800Y5886100D01*
X4629600Y5880800D01*
G01X4665500Y5810000D02*
Y5888700D01*
X4710300Y5810000D01*
Y5888700D01*
G01X4745200Y5810000D02*
Y5888700D01*
X4764700D01*
X4772400Y5884800D01*
X4778300Y5879500D01*
X4783100Y5871600D01*
X4787000Y5862500D01*
X4788000Y5849300D01*
X4787000Y5836200D01*
X4783100Y5827100D01*
X4778300Y5819200D01*
X4772400Y5813900D01*
X4764700Y5810000D01*
X4745200D01*
G01X4416100Y6745400D02*
X4424100Y6732700D01*
X4433800Y6724200D01*
X4445000Y6720000D01*
X4457900Y6724200D01*
X4467600Y6732700D01*
X4477200Y6745400D01*
X4480400Y6762300D01*
Y6847000D01*
G01X4577700Y6720000D02*
X4589000Y6722100D01*
X4601900Y6728500D01*
X4609900Y6739000D01*
X4613100Y6753900D01*
X4609900Y6768700D01*
X4600300Y6781400D01*
X4585800Y6787700D01*
X4569700D01*
X4560100Y6792000D01*
X4552000Y6802500D01*
X4548800Y6817400D01*
X4553600Y6832200D01*
X4564900Y6842800D01*
X4577700Y6847000D01*
X4590600Y6842800D01*
X4601900Y6832200D01*
X4606700Y6817400D01*
X4603500Y6802500D01*
X4595400Y6792000D01*
X4585800Y6787700D01*
X4569700D01*
X4555200Y6781400D01*
X4545600Y6768700D01*
X4542400Y6753900D01*
X4545600Y6739000D01*
X4553600Y6728500D01*
X4566500Y6722100D01*
X4577700Y6720000D01*
G01X4689700Y1498700D02*
Y1420000D01*
X4728700D01*
G01X4799600D02*
Y1498700D01*
X4763600Y1442300D01*
X4812200D01*
G01X4810000Y1579700D02*
X4731300D01*
Y1604100D01*
X4735200Y1611900D01*
X4740500Y1616700D01*
X4751000Y1618700D01*
X4761500Y1616700D01*
X4768000Y1610900D01*
X4772000Y1604100D01*
Y1579700D01*
G01Y1604100D02*
X4810000Y1618700D01*
G01X4744400Y1659400D02*
X4736500Y1665200D01*
X4732600Y1672100D01*
X4731300Y1679800D01*
X4733900Y1689600D01*
X4740500Y1696400D01*
X4748400Y1698300D01*
X4756200Y1697400D01*
X4762800Y1693500D01*
X4775900Y1674000D01*
X4785100Y1665200D01*
X4798200Y1659400D01*
X4810000Y1657500D01*
Y1698300D01*
G01X4800800Y1740100D02*
X4807400Y1746900D01*
X4810000Y1754700D01*
X4807400Y1762400D01*
X4799500Y1769300D01*
X4787700Y1774100D01*
X4775900Y1776100D01*
X4761500D01*
X4749700Y1774100D01*
X4739200Y1769300D01*
X4733900Y1763400D01*
X4731300Y1756600D01*
X4733900Y1748800D01*
X4739200Y1743000D01*
X4747000Y1739100D01*
X4757500Y1737100D01*
X4766700Y1739100D01*
X4775900Y1743900D01*
X4781100Y1749800D01*
X4782500Y1756600D01*
X4779800Y1764400D01*
X4773300Y1770200D01*
X4761500Y1776100D01*
G01X4800000Y3286100D02*
X4673000D01*
Y3326300D01*
X4679400Y3339200D01*
X4687800Y3347200D01*
X4704800Y3350400D01*
X4721700Y3347200D01*
X4732300Y3337600D01*
X4738600Y3326300D01*
Y3286100D01*
G01Y3326300D02*
X4800000Y3350400D01*
G01X4774600Y3412400D02*
X4789400Y3422000D01*
X4797900Y3434900D01*
X4800000Y3449400D01*
X4797900Y3462200D01*
X4787300Y3475100D01*
X4774600Y3483100D01*
X4761900Y3484700D01*
X4747100Y3481500D01*
X4736500Y3470300D01*
X4732300Y3459000D01*
Y3444500D01*
G01Y3459000D02*
X4725900Y3468700D01*
X4715300Y3476700D01*
X4702600Y3479900D01*
X4689900Y3476700D01*
X4679400Y3468700D01*
X4673000Y3454200D01*
X4675100Y3439700D01*
X4683600Y3425200D01*
G01X4781000Y3541900D02*
X4791500Y3551500D01*
X4797900Y3562800D01*
X4800000Y3577200D01*
X4795800Y3591700D01*
X4787300Y3603000D01*
X4772500Y3611000D01*
X4755600Y3612600D01*
X4738600Y3609400D01*
X4728000Y3601400D01*
X4719600Y3590100D01*
X4717500Y3578900D01*
X4719600Y3567600D01*
X4728000Y3553100D01*
X4673000Y3557900D01*
Y3601400D01*
G01X4796100Y3870000D02*
Y3997000D01*
X4836300D01*
X4849200Y3990600D01*
X4857200Y3982200D01*
X4860400Y3965200D01*
X4857200Y3948300D01*
X4847600Y3937700D01*
X4836300Y3931400D01*
X4796100D01*
G01X4836300D02*
X4860400Y3870000D01*
G01X4922400Y3895400D02*
X4932000Y3880600D01*
X4944900Y3872100D01*
X4959400Y3870000D01*
X4972200Y3872100D01*
X4985100Y3882700D01*
X4993100Y3895400D01*
X4994700Y3908100D01*
X4991500Y3922900D01*
X4980300Y3933500D01*
X4969000Y3937700D01*
X4954500D01*
G01X4969000D02*
X4978700Y3944100D01*
X4986700Y3954700D01*
X4989900Y3967400D01*
X4986700Y3980100D01*
X4978700Y3990600D01*
X4964200Y3997000D01*
X4949700Y3994900D01*
X4935200Y3986400D01*
G01X5056700Y3922900D02*
X5067900Y3937700D01*
X5077600Y3946200D01*
X5090500Y3950400D01*
X5101700Y3946200D01*
X5109800Y3937700D01*
X5116200Y3925000D01*
X5117800Y3910200D01*
X5116200Y3897500D01*
X5109800Y3884800D01*
X5100100Y3874200D01*
X5088900Y3870000D01*
X5076000Y3874200D01*
X5064700Y3886900D01*
X5058300Y3906000D01*
X5056700Y3927100D01*
X5059900Y3954700D01*
X5064700Y3969500D01*
X5072800Y3984300D01*
X5084000Y3994900D01*
X5095300Y3997000D01*
X5106600Y3992800D01*
X5114600Y3982200D01*
G01X4812900Y4377000D02*
Y4286000D01*
X4819300Y4266900D01*
X4832200Y4254200D01*
X4848200Y4250000D01*
X4864300Y4254200D01*
X4877200Y4266900D01*
X4883600Y4286000D01*
Y4377000D01*
G01X4947200Y4355800D02*
X4956800Y4368500D01*
X4968100Y4374900D01*
X4981000Y4377000D01*
X4997100Y4372800D01*
X5008300Y4362200D01*
X5011500Y4349500D01*
X5009900Y4336800D01*
X5003500Y4326200D01*
X4971300Y4305000D01*
X4956800Y4290200D01*
X4947200Y4269000D01*
X4944000Y4250000D01*
X5011500D01*
G01X5030000Y5856100D02*
X4903000D01*
Y5896300D01*
X4909400Y5909200D01*
X4917800Y5917200D01*
X4934800Y5920400D01*
X4951700Y5917200D01*
X4962300Y5907600D01*
X4968600Y5896300D01*
Y5856100D01*
G01Y5896300D02*
X5030000Y5920400D01*
G01Y6037100D02*
X4903000D01*
X4994000Y5977500D01*
Y6058000D01*
G01X5030000Y6166600D02*
X4903000D01*
X4994000Y6107000D01*
Y6187500D01*
G01X4884300Y6197800D02*
X4893400Y6203600D01*
X4898700Y6211400D01*
X4900000Y6220200D01*
X4898700Y6228000D01*
X4892100Y6235700D01*
X4884300Y6240600D01*
X4876400Y6241600D01*
X4867200Y6239600D01*
X4860700Y6232800D01*
X4858000Y6226000D01*
Y6217300D01*
G01Y6226000D02*
X4854100Y6231900D01*
X4847500Y6236700D01*
X4839700Y6238700D01*
X4831800Y6236700D01*
X4825200Y6231900D01*
X4821300Y6223100D01*
X4822600Y6214300D01*
X4827900Y6205600D01*
G01X4821300Y6273600D02*
X4900000Y6297900D01*
X4821300Y6322200D01*
G01X4884300Y6355200D02*
X4893400Y6361000D01*
X4898700Y6368800D01*
X4900000Y6377600D01*
X4898700Y6385400D01*
X4892100Y6393100D01*
X4884300Y6398000D01*
X4876400Y6399000D01*
X4867200Y6397000D01*
X4860700Y6390200D01*
X4858000Y6383400D01*
Y6374700D01*
G01Y6383400D02*
X4854100Y6389300D01*
X4847500Y6394100D01*
X4839700Y6396100D01*
X4831800Y6394100D01*
X4825200Y6389300D01*
X4821300Y6380500D01*
X4822600Y6371700D01*
X4827900Y6363000D01*
G01X4900000Y6479700D02*
X4821300D01*
Y6504100D01*
X4825200Y6511900D01*
X4830500Y6516700D01*
X4841000Y6518700D01*
X4851500Y6516700D01*
X4858000Y6510900D01*
X4862000Y6504100D01*
Y6479700D01*
G01Y6504100D02*
X4900000Y6518700D01*
G01X4889500Y6557500D02*
X4896100Y6565200D01*
X4900000Y6574000D01*
Y6581800D01*
X4896100Y6589600D01*
X4889500Y6595400D01*
X4880300Y6598300D01*
X4871100Y6596400D01*
X4863300Y6591500D01*
X4858000Y6582800D01*
X4855400Y6571100D01*
X4850200Y6564300D01*
X4841000Y6561400D01*
X4831800Y6563300D01*
X4825200Y6568200D01*
X4821300Y6575000D01*
Y6581800D01*
X4823900Y6588600D01*
X4830500Y6594400D01*
G01X4821300Y6656600D02*
X4900000D01*
G01X4821300Y6634200D02*
Y6679000D01*
G01X5030700Y680000D02*
Y758700D01*
X5067700D01*
G01X5054100Y720700D02*
X5030700D01*
G01X5127900Y680000D02*
Y758700D01*
X5116200Y743000D01*
G01Y680000D02*
X5139600D01*
G01X5135000Y929300D02*
X5154500D01*
Y905700D01*
X5148700Y897900D01*
X5141900Y892600D01*
X5132100Y890000D01*
X5122400Y892600D01*
X5115600Y897900D01*
X5109700Y905700D01*
X5105800Y914900D01*
X5103900Y925400D01*
Y934600D01*
X5105800Y942500D01*
X5109700Y951600D01*
X5115600Y959500D01*
X5121400Y964800D01*
X5129200Y968700D01*
X5136000D01*
X5143800Y966100D01*
X5149600Y960800D01*
G01X5185500Y890000D02*
Y968700D01*
X5230300Y890000D01*
Y968700D01*
G01X5265200Y890000D02*
Y968700D01*
X5284700D01*
X5292400Y964800D01*
X5298300Y959500D01*
X5303100Y951600D01*
X5307000Y942500D01*
X5308000Y929300D01*
X5307000Y916200D01*
X5303100Y907100D01*
X5298300Y899200D01*
X5292400Y893900D01*
X5284700Y890000D01*
X5265200D01*
G01X4947800Y1250000D02*
Y1328700D01*
X4967300D01*
X4975000Y1324800D01*
X4980900Y1319500D01*
X4985700Y1311600D01*
X4989600Y1302500D01*
X4990600Y1289300D01*
X4989600Y1276200D01*
X4985700Y1267100D01*
X4980900Y1259200D01*
X4975000Y1253900D01*
X4967300Y1250000D01*
X4947800D01*
G01X5029400Y1315600D02*
X5035200Y1323500D01*
X5042100Y1327400D01*
X5049800Y1328700D01*
X5059600Y1326100D01*
X5066400Y1319500D01*
X5068300Y1311600D01*
X5067400Y1303800D01*
X5063500Y1297200D01*
X5044000Y1284100D01*
X5035200Y1274900D01*
X5029400Y1261800D01*
X5027500Y1250000D01*
X5068300D01*
G01X5454900Y630000D02*
X5479200Y708700D01*
X5503500Y630000D01*
G01X5494800Y657500D02*
X5463600D01*
G01X5546200Y708700D02*
X5569600D01*
G01X5557900D02*
Y630000D01*
G01X5546200D02*
X5569600D01*
G01X5607400Y603800D02*
X5665800D01*
G01X5715300Y708700D02*
X5707500Y706100D01*
X5701700Y699500D01*
X5697800Y691600D01*
X5694900Y681200D01*
X5693900Y669300D01*
X5694900Y657500D01*
X5697800Y647100D01*
X5701700Y639200D01*
X5707500Y632600D01*
X5715300Y630000D01*
X5723100Y632600D01*
X5728900Y639200D01*
X5732800Y647100D01*
X5735700Y657500D01*
X5736700Y669300D01*
X5735700Y681200D01*
X5732800Y691600D01*
X5728900Y699500D01*
X5723100Y706100D01*
X5715300Y708700D01*
G01X5209700Y655700D02*
X5214600Y647900D01*
X5220400Y642600D01*
X5227300Y640000D01*
X5235000Y642600D01*
X5240900Y647900D01*
X5246700Y655700D01*
X5248700Y666200D01*
Y718700D01*
G01X5289400Y672800D02*
X5296200Y682000D01*
X5302100Y687200D01*
X5309800Y689800D01*
X5316700Y687200D01*
X5321500Y682000D01*
X5325400Y674100D01*
X5326400Y664900D01*
X5325400Y657100D01*
X5321500Y649200D01*
X5315700Y642600D01*
X5308900Y640000D01*
X5301100Y642600D01*
X5294300Y650500D01*
X5290400Y662300D01*
X5289400Y675400D01*
X5291400Y692500D01*
X5294300Y701600D01*
X5299100Y710800D01*
X5306000Y717400D01*
X5312800Y718700D01*
X5319600Y716100D01*
X5324400Y709500D01*
G01X5249700Y795700D02*
X5254600Y787900D01*
X5260400Y782600D01*
X5267300Y780000D01*
X5275000Y782600D01*
X5280900Y787900D01*
X5286700Y795700D01*
X5288700Y806200D01*
Y858700D01*
G01X5359600Y780000D02*
Y858700D01*
X5323600Y802300D01*
X5372200D01*
G01X5410000Y1189700D02*
X5331300D01*
Y1213100D01*
X5335200Y1220900D01*
X5344400Y1226700D01*
X5354900Y1228700D01*
X5365400Y1226700D01*
X5373300Y1221900D01*
X5377200Y1213100D01*
Y1189700D01*
G01X5331300Y1258700D02*
X5410000Y1272300D01*
X5331300Y1287900D01*
X5410000Y1303500D01*
X5331300Y1317100D01*
G01X5410000Y1347100D02*
X5331300D01*
Y1371500D01*
X5335200Y1379300D01*
X5340500Y1384100D01*
X5351000Y1386100D01*
X5361500Y1384100D01*
X5368000Y1378300D01*
X5372000Y1371500D01*
Y1347100D01*
G01Y1371500D02*
X5410000Y1386100D01*
G01X5400000Y1524900D02*
X5321300Y1549200D01*
X5400000Y1573500D01*
G01X5372500Y1564800D02*
Y1533600D01*
G01X5321300Y1616200D02*
Y1639600D01*
G01Y1627900D02*
X5400000D01*
G01Y1616200D02*
Y1639600D01*
G01X5426200Y1677400D02*
Y1735800D01*
G01X5400000Y1785300D02*
X5321300D01*
X5337000Y1773600D01*
G01X5400000D02*
Y1797000D01*
G01Y1909700D02*
X5321300D01*
Y1934100D01*
X5325200Y1941900D01*
X5330500Y1946700D01*
X5341000Y1948700D01*
X5351500Y1946700D01*
X5358000Y1940900D01*
X5362000Y1934100D01*
Y1909700D01*
G01Y1934100D02*
X5400000Y1948700D01*
G01X5334400Y1989400D02*
X5326500Y1995200D01*
X5322600Y2002100D01*
X5321300Y2009800D01*
X5323900Y2019600D01*
X5330500Y2026400D01*
X5338400Y2028300D01*
X5346200Y2027400D01*
X5352800Y2023500D01*
X5365900Y2004000D01*
X5375100Y1995200D01*
X5388200Y1989400D01*
X5400000Y1987500D01*
Y2028300D01*
G01Y2084700D02*
X5382900Y2086600D01*
X5368500Y2089500D01*
X5355400Y2093400D01*
X5341000Y2098300D01*
X5321300Y2106100D01*
Y2067100D01*
G01X5380000Y2534900D02*
X5301300Y2559200D01*
X5380000Y2583500D01*
G01X5352500Y2574800D02*
Y2543600D01*
G01X5301300Y2626200D02*
Y2649600D01*
G01Y2637900D02*
X5380000D01*
G01Y2626200D02*
Y2649600D01*
G01X5314400Y2698100D02*
X5306500Y2703900D01*
X5302600Y2710800D01*
X5301300Y2718500D01*
X5303900Y2728300D01*
X5310500Y2735100D01*
X5318400Y2737000D01*
X5326200Y2736100D01*
X5332800Y2732200D01*
X5345900Y2712700D01*
X5355100Y2703900D01*
X5368200Y2698100D01*
X5380000Y2696200D01*
Y2737000D01*
G01X5390000Y2279700D02*
X5311300D01*
Y2304100D01*
X5315200Y2311900D01*
X5320500Y2316700D01*
X5331000Y2318700D01*
X5341500Y2316700D01*
X5348000Y2310900D01*
X5352000Y2304100D01*
Y2279700D01*
G01Y2304100D02*
X5390000Y2318700D01*
G01X5324400Y2359400D02*
X5316500Y2365200D01*
X5312600Y2372100D01*
X5311300Y2379800D01*
X5313900Y2389600D01*
X5320500Y2396400D01*
X5328400Y2398300D01*
X5336200Y2397400D01*
X5342800Y2393500D01*
X5355900Y2374000D01*
X5365100Y2365200D01*
X5378200Y2359400D01*
X5390000Y2357500D01*
Y2398300D01*
G01Y2456600D02*
X5388700Y2463400D01*
X5384800Y2471200D01*
X5378200Y2476100D01*
X5369000Y2478000D01*
X5359800Y2476100D01*
X5352000Y2470200D01*
X5348000Y2461500D01*
Y2451700D01*
X5345400Y2445900D01*
X5338800Y2441000D01*
X5329700Y2439100D01*
X5320500Y2442000D01*
X5313900Y2448800D01*
X5311300Y2456600D01*
X5313900Y2464400D01*
X5320500Y2471200D01*
X5329700Y2474100D01*
X5338800Y2472200D01*
X5345400Y2467300D01*
X5348000Y2461500D01*
Y2451700D01*
X5352000Y2443000D01*
X5359800Y2437100D01*
X5369000Y2435200D01*
X5378200Y2437100D01*
X5384800Y2442000D01*
X5388700Y2449800D01*
X5390000Y2456600D01*
G01X5380000Y2829700D02*
X5301300D01*
Y2853100D01*
X5305200Y2860900D01*
X5314400Y2866700D01*
X5324900Y2868700D01*
X5335400Y2866700D01*
X5343300Y2861900D01*
X5347200Y2853100D01*
Y2829700D01*
G01X5301300Y2898700D02*
X5380000Y2912300D01*
X5301300Y2927900D01*
X5380000Y2943500D01*
X5301300Y2957100D01*
G01X5380000Y2987100D02*
X5301300D01*
Y3011500D01*
X5305200Y3019300D01*
X5310500Y3024100D01*
X5321000Y3026100D01*
X5331500Y3024100D01*
X5338000Y3018300D01*
X5342000Y3011500D01*
Y2987100D01*
G01Y3011500D02*
X5380000Y3026100D01*
G01X5370000Y3084900D02*
X5291300Y3109200D01*
X5370000Y3133500D01*
G01X5342500Y3124800D02*
Y3093600D01*
G01X5291300Y3176200D02*
Y3199600D01*
G01Y3187900D02*
X5370000D01*
G01Y3176200D02*
Y3199600D01*
G01X5396200Y3237400D02*
Y3295800D01*
G01X5354300Y3323900D02*
X5363400Y3329700D01*
X5368700Y3337500D01*
X5370000Y3346300D01*
X5368700Y3354100D01*
X5362100Y3361800D01*
X5354300Y3366700D01*
X5346400Y3367700D01*
X5337200Y3365700D01*
X5330700Y3358900D01*
X5328000Y3352100D01*
Y3343400D01*
G01Y3352100D02*
X5324100Y3358000D01*
X5317500Y3362800D01*
X5309700Y3364800D01*
X5301800Y3362800D01*
X5295200Y3358000D01*
X5291300Y3349200D01*
X5292600Y3340400D01*
X5297900Y3331700D01*
G01X5370000Y3519700D02*
X5291300D01*
Y3543100D01*
X5295200Y3550900D01*
X5304400Y3556700D01*
X5314900Y3558700D01*
X5325400Y3556700D01*
X5333300Y3551900D01*
X5337200Y3543100D01*
Y3519700D01*
G01X5291300Y3588700D02*
X5370000Y3602300D01*
X5291300Y3617900D01*
X5370000Y3633500D01*
X5291300Y3647100D01*
G01X5370000Y3677100D02*
X5291300D01*
Y3701500D01*
X5295200Y3709300D01*
X5300500Y3714100D01*
X5311000Y3716100D01*
X5321500Y3714100D01*
X5328000Y3708300D01*
X5332000Y3701500D01*
Y3677100D01*
G01Y3701500D02*
X5370000Y3716100D01*
G01X5350000Y3959700D02*
X5271300D01*
Y3983100D01*
X5275200Y3990900D01*
X5284400Y3996700D01*
X5294900Y3998700D01*
X5305400Y3996700D01*
X5313300Y3991900D01*
X5317200Y3983100D01*
Y3959700D01*
G01X5271300Y4028700D02*
X5350000Y4042300D01*
X5271300Y4057900D01*
X5350000Y4073500D01*
X5271300Y4087100D01*
G01X5350000Y4117100D02*
X5271300D01*
Y4141500D01*
X5275200Y4149300D01*
X5280500Y4154100D01*
X5291000Y4156100D01*
X5301500Y4154100D01*
X5308000Y4148300D01*
X5312000Y4141500D01*
Y4117100D01*
G01Y4141500D02*
X5350000Y4156100D01*
G01X5340000Y4347800D02*
X5261300D01*
Y4367300D01*
X5265200Y4375000D01*
X5270500Y4380900D01*
X5278400Y4385700D01*
X5287500Y4389600D01*
X5300700Y4390600D01*
X5313800Y4389600D01*
X5322900Y4385700D01*
X5330800Y4380900D01*
X5336100Y4375000D01*
X5340000Y4367300D01*
Y4347800D01*
G01X5261300Y4436200D02*
Y4459600D01*
G01Y4447900D02*
X5340000D01*
G01Y4436200D02*
Y4459600D01*
G01X5261300Y4526600D02*
X5263900Y4518800D01*
X5270500Y4513000D01*
X5278400Y4509100D01*
X5288800Y4506200D01*
X5300700Y4505200D01*
X5312500Y4506200D01*
X5322900Y4509100D01*
X5330800Y4513000D01*
X5337400Y4518800D01*
X5340000Y4526600D01*
X5337400Y4534400D01*
X5330800Y4540200D01*
X5322900Y4544100D01*
X5312500Y4547000D01*
X5300700Y4548000D01*
X5288800Y4547000D01*
X5278400Y4544100D01*
X5270500Y4540200D01*
X5263900Y4534400D01*
X5261300Y4526600D01*
G01X5350000Y4719700D02*
X5271300D01*
Y4743100D01*
X5275200Y4750900D01*
X5284400Y4756700D01*
X5294900Y4758700D01*
X5305400Y4756700D01*
X5313300Y4751900D01*
X5317200Y4743100D01*
Y4719700D01*
G01X5271300Y4788700D02*
X5350000Y4802300D01*
X5271300Y4817900D01*
X5350000Y4833500D01*
X5271300Y4847100D01*
G01X5350000Y4877100D02*
X5271300D01*
Y4901500D01*
X5275200Y4909300D01*
X5280500Y4914100D01*
X5291000Y4916100D01*
X5301500Y4914100D01*
X5308000Y4908300D01*
X5312000Y4901500D01*
Y4877100D01*
G01Y4901500D02*
X5350000Y4916100D01*
G01Y5107800D02*
X5271300D01*
Y5127300D01*
X5275200Y5135000D01*
X5280500Y5140900D01*
X5288400Y5145700D01*
X5297500Y5149600D01*
X5310700Y5150600D01*
X5323800Y5149600D01*
X5332900Y5145700D01*
X5340800Y5140900D01*
X5346100Y5135000D01*
X5350000Y5127300D01*
Y5107800D01*
G01X5271300Y5196200D02*
Y5219600D01*
G01Y5207900D02*
X5350000D01*
G01Y5196200D02*
Y5219600D01*
G01Y5286600D02*
X5271300D01*
X5287000Y5274900D01*
G01X5350000D02*
Y5298300D01*
G01Y5479700D02*
X5271300D01*
Y5503100D01*
X5275200Y5510900D01*
X5284400Y5516700D01*
X5294900Y5518700D01*
X5305400Y5516700D01*
X5313300Y5511900D01*
X5317200Y5503100D01*
Y5479700D01*
G01X5271300Y5548700D02*
X5350000Y5562300D01*
X5271300Y5577900D01*
X5350000Y5593500D01*
X5271300Y5607100D01*
G01X5350000Y5637100D02*
X5271300D01*
Y5661500D01*
X5275200Y5669300D01*
X5280500Y5674100D01*
X5291000Y5676100D01*
X5301500Y5674100D01*
X5308000Y5668300D01*
X5312000Y5661500D01*
Y5637100D01*
G01Y5661500D02*
X5350000Y5676100D01*
G01X5340000Y5847800D02*
X5261300D01*
Y5867300D01*
X5265200Y5875000D01*
X5270500Y5880900D01*
X5278400Y5885700D01*
X5287500Y5889600D01*
X5300700Y5890600D01*
X5313800Y5889600D01*
X5322900Y5885700D01*
X5330800Y5880900D01*
X5336100Y5875000D01*
X5340000Y5867300D01*
Y5847800D01*
G01X5261300Y5936200D02*
Y5959600D01*
G01Y5947900D02*
X5340000D01*
G01Y5936200D02*
Y5959600D01*
G01X5274400Y6008100D02*
X5266500Y6013900D01*
X5262600Y6020800D01*
X5261300Y6028500D01*
X5263900Y6038300D01*
X5270500Y6045100D01*
X5278400Y6047000D01*
X5286200Y6046100D01*
X5292800Y6042200D01*
X5305900Y6022700D01*
X5315100Y6013900D01*
X5328200Y6008100D01*
X5340000Y6006200D01*
Y6047000D01*
G01Y6249700D02*
X5261300D01*
Y6273100D01*
X5265200Y6280900D01*
X5274400Y6286700D01*
X5284900Y6288700D01*
X5295400Y6286700D01*
X5303300Y6281900D01*
X5307200Y6273100D01*
Y6249700D01*
G01X5261300Y6318700D02*
X5340000Y6332300D01*
X5261300Y6347900D01*
X5340000Y6363500D01*
X5261300Y6377100D01*
G01X5340000Y6407100D02*
X5261300D01*
Y6431500D01*
X5265200Y6439300D01*
X5270500Y6444100D01*
X5281000Y6446100D01*
X5291500Y6444100D01*
X5298000Y6438300D01*
X5302000Y6431500D01*
Y6407100D01*
G01Y6431500D02*
X5340000Y6446100D01*
G01X5370000Y6607800D02*
X5291300D01*
Y6627300D01*
X5295200Y6635000D01*
X5300500Y6640900D01*
X5308400Y6645700D01*
X5317500Y6649600D01*
X5330700Y6650600D01*
X5343800Y6649600D01*
X5352900Y6645700D01*
X5360800Y6640900D01*
X5366100Y6635000D01*
X5370000Y6627300D01*
Y6607800D01*
G01X5291300Y6696200D02*
Y6719600D01*
G01Y6707900D02*
X5370000D01*
G01Y6696200D02*
Y6719600D01*
G01X5354300Y6765200D02*
X5363400Y6771000D01*
X5368700Y6778800D01*
X5370000Y6787600D01*
X5368700Y6795400D01*
X5362100Y6803100D01*
X5354300Y6808000D01*
X5346400Y6809000D01*
X5337200Y6807000D01*
X5330700Y6800200D01*
X5328000Y6793400D01*
Y6784700D01*
G01Y6793400D02*
X5324100Y6799300D01*
X5317500Y6804100D01*
X5309700Y6806100D01*
X5301800Y6804100D01*
X5295200Y6799300D01*
X5291300Y6790500D01*
X5292600Y6781700D01*
X5297900Y6773000D01*
G01X5489700Y3805700D02*
X5494600Y3797900D01*
X5500400Y3792600D01*
X5507300Y3790000D01*
X5515000Y3792600D01*
X5520900Y3797900D01*
X5526700Y3805700D01*
X5528700Y3816200D01*
Y3868700D01*
G01X5566500Y3801800D02*
X5572300Y3795200D01*
X5579100Y3791300D01*
X5587900Y3790000D01*
X5596700Y3792600D01*
X5603500Y3797900D01*
X5608300Y3807100D01*
X5609300Y3817500D01*
X5607400Y3828000D01*
X5602500Y3834600D01*
X5595700Y3839800D01*
X5588900Y3841200D01*
X5582100Y3839800D01*
X5573300Y3834600D01*
X5576200Y3868700D01*
X5602500D01*
G54D11*
G01X2676000Y2460000D02*
G03X2615000Y2521000I-61000J0D01*
G01D02*
G03X2554000Y2460000I0J-61000D01*
G01D02*
G03X2615000Y2399000I61000J0D01*
G01D02*
G03X2676000Y2460000I0J61000D01*
M02*
