G04 ================== begin FILE IDENTIFICATION RECORD ==================*
G04 Layout Name:  G:/Work/io/design/pcb/io_4di_4aic_dbdoctor.brd*
G04 Film Name:    SILKSCREEN_BOTTOM*
G04 File Format:  Gerber RS274X*
G04 File Origin:  Cadence Allegro 17.2-P019*
G04 Origin Date:  Sat May 05 11:38:41 2018*
G04 *
G04 Layer:  MANUFACTURING/AUTOSILK_BOTTOM*
G04 Layer:  BOARD GEOMETRY/SILKSCREEN_BOTTOM*
G04 Layer:  BOARD GEOMETRY/OUTLINE*
G04 *
G04 Offset:    (0.000 0.000)*
G04 Mirror:    No*
G04 Mode:      Positive*
G04 Rotation:  0*
G04 FullContactRelief:  No*
G04 UndefLineWidth:     0.200*
G04 ================== end FILE IDENTIFICATION RECORD ====================*
%FSLAX25Y25*MOMM*%
%IR0*IPPOS*OFA0.00000B0.00000*MIA0B0*SFA1.00000B1.00000*%
%ADD10C,.2*%
G75*
%LPD*%
G75*
G54D10*
G01X1730000Y1680000D02*
Y1880000D01*
X1400000D01*
Y1680000D01*
X1730000D01*
G01Y1890000D02*
Y2090000D01*
X1400000D01*
Y1890000D01*
X1730000D01*
G01Y2100000D02*
Y2300000D01*
X1400000D01*
Y2100000D01*
X1730000D01*
G01Y2310000D02*
Y2510000D01*
X1400000D01*
Y2310000D01*
X1730000D01*
G01Y3780000D02*
Y3980000D01*
X1400000D01*
Y3780000D01*
X1730000D01*
G01Y3990000D02*
Y4190000D01*
X1400000D01*
Y3990000D01*
X1730000D01*
G01Y4200000D02*
Y4400000D01*
X1400000D01*
Y4200000D01*
X1730000D01*
G01Y4410000D02*
Y4610000D01*
X1400000D01*
Y4410000D01*
X1730000D01*
G01X2000000Y2040000D02*
X1800000D01*
Y1710000D01*
X2000000D01*
Y2040000D01*
G01X1760000Y1700000D02*
Y1860000D01*
G01Y1910000D02*
Y2070000D01*
G01X2000000Y2460000D02*
X1800000D01*
Y2130000D01*
X2000000D01*
Y2460000D01*
G01X1760000Y2120000D02*
Y2280000D01*
G01X1980000Y2070000D02*
X1820000D01*
G01X1760000Y2330000D02*
Y2490000D01*
G01X1980000D02*
X1820000D01*
G01X2000000Y4140000D02*
X1800000D01*
Y3810000D01*
X2000000D01*
Y4140000D01*
G01X1760000Y3800000D02*
Y3960000D01*
G01Y4010000D02*
Y4170000D01*
G01X2000000Y4560000D02*
X1800000D01*
Y4230000D01*
X2000000D01*
Y4560000D01*
G01X1760000Y4220000D02*
Y4380000D01*
G01X1980000Y4170000D02*
X1820000D01*
G01X1760000Y4430000D02*
Y4590000D01*
G01X1980000D02*
X1820000D01*
G01X2070000Y1940000D02*
Y1720000D01*
X2480000D01*
Y1940000D01*
X2070000D01*
G01X2030000Y1930000D02*
Y1730000D01*
G01X2070000Y2210000D02*
Y1990000D01*
X2480000D01*
Y2210000D01*
X2070000D01*
G01X2030000Y2200000D02*
Y2000000D01*
G01X2400000Y2260000D02*
Y2460000D01*
X2070000D01*
Y2260000D01*
X2400000D01*
G01X2070000Y4030000D02*
Y3810000D01*
X2480000D01*
Y4030000D01*
X2070000D01*
G01X2030000Y4020000D02*
Y3820000D01*
G01X2070000Y4300000D02*
Y4080000D01*
X2480000D01*
Y4300000D01*
X2070000D01*
G01X2030000Y4290000D02*
Y4090000D01*
G01X2400000Y4360000D02*
Y4560000D01*
X2070000D01*
Y4360000D01*
X2400000D01*
G01X2430000Y2280000D02*
Y2440000D01*
G01Y4380000D02*
Y4540000D01*
G01X4020000Y1500000D02*
Y1700000D01*
X3690000D01*
Y1500000D01*
X4020000D01*
G01Y1750000D02*
Y1950000D01*
X3690000D01*
Y1750000D01*
X4020000D01*
G01Y2130000D02*
Y2330000D01*
X3690000D01*
Y2130000D01*
X4020000D01*
G01Y2390000D02*
Y2590000D01*
X3690000D01*
Y2390000D01*
X4020000D01*
G01Y3600000D02*
Y3800000D01*
X3690000D01*
Y3600000D01*
X4020000D01*
G01Y3850000D02*
Y4050000D01*
X3690000D01*
Y3850000D01*
X4020000D01*
G01Y4230000D02*
Y4430000D01*
X3690000D01*
Y4230000D01*
X4020000D01*
G01Y4490000D02*
Y4690000D01*
X3690000D01*
Y4490000D01*
X4020000D01*
G01X4050000Y1520000D02*
Y1680000D01*
G01X4340000Y1860000D02*
X4140000D01*
Y1530000D01*
X4340000D01*
Y1860000D01*
G01X4050000Y1770000D02*
Y1930000D01*
G01Y2150000D02*
Y2310000D01*
G01X4340000Y2490000D02*
X4140000D01*
Y2160000D01*
X4340000D01*
Y2490000D01*
G01X4050000Y2410000D02*
Y2570000D01*
G01Y3620000D02*
Y3780000D01*
G01Y3870000D02*
Y4030000D01*
G01X4340000Y3960000D02*
X4140000D01*
Y3630000D01*
X4340000D01*
Y3960000D01*
G01X4050000Y4250000D02*
Y4410000D01*
G01X4330000Y4590000D02*
X4130000D01*
Y4260000D01*
X4330000D01*
Y4590000D01*
G01X4050000Y4510000D02*
Y4670000D01*
G01X4320000Y1890000D02*
X4160000D01*
G01X4320000Y2520000D02*
X4160000D01*
G01X4570000Y2940000D02*
X4370000D01*
Y2610000D01*
X4570000D01*
Y2940000D01*
G01X4550000Y2970000D02*
X4390000D01*
G01X4320000Y3990000D02*
X4160000D01*
G01X4310000Y4620000D02*
X4150000D01*
G01X4480000Y7310000D02*
X4280000D01*
Y6980000D01*
X4480000D01*
Y7310000D01*
G01X4460000Y7340000D02*
X4300000D01*
G01X4590000Y2630000D02*
X4770000D01*
Y2930000D01*
X4590000D01*
Y2630000D01*
G01X4600000Y2590000D02*
X4760000D01*
G01X4510000Y3300000D02*
Y3140000D01*
G01X4540000Y3320000D02*
Y3120000D01*
X4870000D01*
Y3320000D01*
X4540000D01*
G01X4600000Y3520000D02*
X4760000D01*
G01X4580000Y3550000D02*
X4780000D01*
Y3880000D01*
X4580000D01*
Y3550000D01*
G01X4560000Y6840000D02*
Y6680000D01*
G01X4590000Y6860000D02*
Y6660000D01*
X4920000D01*
Y6860000D01*
X4590000D01*
G01X4980000Y3860000D02*
X4800000D01*
Y3560000D01*
X4980000D01*
Y3860000D01*
G01X4970000Y3900000D02*
X4810000D01*
G01X5730000Y3710000D02*
Y3550000D01*
G01X5750000Y4840000D02*
X5550000D01*
Y4510000D01*
X5750000D01*
Y4840000D01*
G01X5730000Y4870000D02*
X5570000D01*
G01X5760000Y3730000D02*
Y3530000D01*
X6090000D01*
Y3730000D01*
X5760000D01*
G01X6460000Y2610000D02*
X6260000D01*
Y2280000D01*
X6460000D01*
Y2610000D01*
G01X6150000Y3170000D02*
X6310000D01*
G01X6130000Y3200000D02*
X6330000D01*
Y3530000D01*
X6130000D01*
Y3200000D01*
G01X6440000Y2640000D02*
X6280000D01*
G01X6670000Y3690000D02*
X6470000D01*
Y3360000D01*
X6670000D01*
Y3690000D01*
G01X6650000Y3720000D02*
X6490000D01*
G01X8600000Y3450000D02*
X8400000D01*
Y3120000D01*
X8600000D01*
Y3450000D01*
G01Y4210000D02*
X8400000D01*
Y3880000D01*
X8600000D01*
Y4210000D01*
G01Y4970000D02*
X8400000D01*
Y4640000D01*
X8600000D01*
Y4970000D01*
G01Y5730000D02*
X8400000D01*
Y5400000D01*
X8600000D01*
Y5730000D01*
G01X8840000Y3450000D02*
X8640000D01*
Y3120000D01*
X8840000D01*
Y3450000D01*
G01X8820000Y3480000D02*
X8660000D01*
G01X8580000D02*
X8420000D01*
G01X8840000Y4210000D02*
X8640000D01*
Y3880000D01*
X8840000D01*
Y4210000D01*
G01X8820000Y4240000D02*
X8660000D01*
G01X8580000D02*
X8420000D01*
G01X8840000Y4970000D02*
X8640000D01*
Y4640000D01*
X8840000D01*
Y4970000D01*
G01X8820000Y5000000D02*
X8660000D01*
G01X8580000D02*
X8420000D01*
G01X8840000Y5730000D02*
X8640000D01*
Y5400000D01*
X8840000D01*
Y5730000D01*
G01X8820000Y5760000D02*
X8660000D01*
G01X8580000D02*
X8420000D01*
G01X9080000Y3260000D02*
X8880000D01*
Y2930000D01*
X9080000D01*
Y3260000D01*
G01X9060000Y3290000D02*
X8900000D01*
G01X9080000Y4020000D02*
X8880000D01*
Y3690000D01*
X9080000D01*
Y4020000D01*
G01X9060000Y4050000D02*
X8900000D01*
G01X9080000Y4780000D02*
X8880000D01*
Y4450000D01*
X9080000D01*
Y4780000D01*
G01X9060000Y4810000D02*
X8900000D01*
G01X9080000Y5540000D02*
X8880000D01*
Y5210000D01*
X9080000D01*
Y5540000D01*
G01X9060000Y5570000D02*
X8900000D01*
G01X80000Y0D02*
X9920000D01*
G03X10000000Y80000I0J80000D01*
G01Y9920000D01*
G03X9920000Y10000000I-80000J0D01*
G01X80000D01*
G03X0Y9920000I0J-80000D01*
G01Y80000D01*
G03X80000Y0I80000J0D01*
G01X1323900Y1720000D02*
Y1847000D01*
X1283700D01*
X1270800Y1840600D01*
X1262800Y1832200D01*
X1259600Y1815200D01*
X1262800Y1798300D01*
X1272400Y1787700D01*
X1283700Y1781400D01*
X1323900D01*
G01X1283700D02*
X1259600Y1720000D01*
G01X1192800Y1825800D02*
X1183200Y1838500D01*
X1171900Y1844900D01*
X1159000Y1847000D01*
X1142900Y1842800D01*
X1131700Y1832200D01*
X1128500Y1819500D01*
X1130100Y1806800D01*
X1136500Y1796200D01*
X1168700Y1775000D01*
X1183200Y1760200D01*
X1192800Y1739000D01*
X1196000Y1720000D01*
X1128500D01*
G01X1068100Y1739000D02*
X1058500Y1728500D01*
X1047200Y1722100D01*
X1032800Y1720000D01*
X1018300Y1724200D01*
X1007000Y1732700D01*
X999000Y1747500D01*
X997400Y1764400D01*
X1000600Y1781400D01*
X1008600Y1792000D01*
X1019900Y1800400D01*
X1031100Y1802500D01*
X1042400Y1800400D01*
X1056900Y1792000D01*
X1052100Y1847000D01*
X1008600D01*
G01X1323900Y1930000D02*
Y2057000D01*
X1283700D01*
X1270800Y2050600D01*
X1262800Y2042200D01*
X1259600Y2025200D01*
X1262800Y2008300D01*
X1272400Y1997700D01*
X1283700Y1991400D01*
X1323900D01*
G01X1283700D02*
X1259600Y1930000D01*
G01X1192800Y2035800D02*
X1183200Y2048500D01*
X1171900Y2054900D01*
X1159000Y2057000D01*
X1142900Y2052800D01*
X1131700Y2042200D01*
X1128500Y2029500D01*
X1130100Y2016800D01*
X1136500Y2006200D01*
X1168700Y1985000D01*
X1183200Y1970200D01*
X1192800Y1949000D01*
X1196000Y1930000D01*
X1128500D01*
G01X1060100Y1944800D02*
X1048800Y1934200D01*
X1036000Y1930000D01*
X1023100Y1934200D01*
X1011800Y1946900D01*
X1003800Y1966000D01*
X1000600Y1985000D01*
Y2008300D01*
X1003800Y2027400D01*
X1011800Y2044300D01*
X1021500Y2052800D01*
X1032800Y2057000D01*
X1045600Y2052800D01*
X1055300Y2044300D01*
X1061700Y2031600D01*
X1064900Y2014700D01*
X1061700Y1999900D01*
X1053700Y1985000D01*
X1044000Y1976600D01*
X1032800Y1974400D01*
X1019900Y1978700D01*
X1010200Y1989300D01*
X1000600Y2008300D01*
G01X1323900Y2140000D02*
Y2267000D01*
X1283700D01*
X1270800Y2260600D01*
X1262800Y2252200D01*
X1259600Y2235200D01*
X1262800Y2218300D01*
X1272400Y2207700D01*
X1283700Y2201400D01*
X1323900D01*
G01X1283700D02*
X1259600Y2140000D01*
G01X1197600Y2165400D02*
X1188000Y2150600D01*
X1175100Y2142100D01*
X1160600Y2140000D01*
X1147800Y2142100D01*
X1134900Y2152700D01*
X1126900Y2165400D01*
X1125300Y2178100D01*
X1128500Y2192900D01*
X1139700Y2203500D01*
X1151000Y2207700D01*
X1165500D01*
G01X1151000D02*
X1141300Y2214100D01*
X1133300Y2224700D01*
X1130100Y2237400D01*
X1133300Y2250100D01*
X1141300Y2260600D01*
X1155800Y2267000D01*
X1170300Y2264900D01*
X1184800Y2256400D01*
G01X1032800Y2140000D02*
Y2267000D01*
X1052100Y2241600D01*
G01Y2140000D02*
X1013500D01*
G01X1333900Y2330000D02*
Y2457000D01*
X1293700D01*
X1280800Y2450600D01*
X1272800Y2442200D01*
X1269600Y2425200D01*
X1272800Y2408300D01*
X1282400Y2397700D01*
X1293700Y2391400D01*
X1333900D01*
G01X1293700D02*
X1269600Y2330000D01*
G01X1207600Y2355400D02*
X1198000Y2340600D01*
X1185100Y2332100D01*
X1170600Y2330000D01*
X1157800Y2332100D01*
X1144900Y2342700D01*
X1136900Y2355400D01*
X1135300Y2368100D01*
X1138500Y2382900D01*
X1149700Y2393500D01*
X1161000Y2397700D01*
X1175500D01*
G01X1161000D02*
X1151300Y2404100D01*
X1143300Y2414700D01*
X1140100Y2427400D01*
X1143300Y2440100D01*
X1151300Y2450600D01*
X1165800Y2457000D01*
X1180300Y2454900D01*
X1194800Y2446400D01*
G01X1078100Y2355400D02*
X1068500Y2340600D01*
X1055600Y2332100D01*
X1041100Y2330000D01*
X1028300Y2332100D01*
X1015400Y2342700D01*
X1007400Y2355400D01*
X1005800Y2368100D01*
X1009000Y2382900D01*
X1020200Y2393500D01*
X1031500Y2397700D01*
X1046000D01*
G01X1031500D02*
X1021800Y2404100D01*
X1013800Y2414700D01*
X1010600Y2427400D01*
X1013800Y2440100D01*
X1021800Y2450600D01*
X1036300Y2457000D01*
X1050800Y2454900D01*
X1065300Y2446400D01*
G01X1323900Y3820000D02*
Y3947000D01*
X1283700D01*
X1270800Y3940600D01*
X1262800Y3932200D01*
X1259600Y3915200D01*
X1262800Y3898300D01*
X1272400Y3887700D01*
X1283700Y3881400D01*
X1323900D01*
G01X1283700D02*
X1259600Y3820000D01*
G01X1162300D02*
Y3947000D01*
X1181600Y3921600D01*
G01Y3820000D02*
X1143000D01*
G01X1063300Y3872900D02*
X1052100Y3887700D01*
X1042400Y3896200D01*
X1029500Y3900400D01*
X1018300Y3896200D01*
X1010200Y3887700D01*
X1003800Y3875000D01*
X1002200Y3860200D01*
X1003800Y3847500D01*
X1010200Y3834800D01*
X1019900Y3824200D01*
X1031100Y3820000D01*
X1044000Y3824200D01*
X1055300Y3836900D01*
X1061700Y3856000D01*
X1063300Y3877100D01*
X1060100Y3904700D01*
X1055300Y3919500D01*
X1047200Y3934300D01*
X1036000Y3944900D01*
X1024700Y3947000D01*
X1013400Y3942800D01*
X1005400Y3932200D01*
G01X1323900Y4020000D02*
Y4147000D01*
X1283700D01*
X1270800Y4140600D01*
X1262800Y4132200D01*
X1259600Y4115200D01*
X1262800Y4098300D01*
X1272400Y4087700D01*
X1283700Y4081400D01*
X1323900D01*
G01X1283700D02*
X1259600Y4020000D01*
G01X1192800Y4125800D02*
X1183200Y4138500D01*
X1171900Y4144900D01*
X1159000Y4147000D01*
X1142900Y4142800D01*
X1131700Y4132200D01*
X1128500Y4119500D01*
X1130100Y4106800D01*
X1136500Y4096200D01*
X1168700Y4075000D01*
X1183200Y4060200D01*
X1192800Y4039000D01*
X1196000Y4020000D01*
X1128500D01*
G01X1032800Y4147000D02*
X1045600Y4142800D01*
X1055300Y4132200D01*
X1061700Y4119500D01*
X1066500Y4102500D01*
X1068100Y4083500D01*
X1066500Y4064400D01*
X1061700Y4047500D01*
X1055300Y4034800D01*
X1045600Y4024200D01*
X1032800Y4020000D01*
X1019900Y4024200D01*
X1010200Y4034800D01*
X1003800Y4047500D01*
X999000Y4064400D01*
X997400Y4083500D01*
X999000Y4102500D01*
X1003800Y4119500D01*
X1010200Y4132200D01*
X1019900Y4142800D01*
X1032800Y4147000D01*
G01X1323900Y4240000D02*
Y4367000D01*
X1283700D01*
X1270800Y4360600D01*
X1262800Y4352200D01*
X1259600Y4335200D01*
X1262800Y4318300D01*
X1272400Y4307700D01*
X1283700Y4301400D01*
X1323900D01*
G01X1283700D02*
X1259600Y4240000D01*
G01X1192800Y4345800D02*
X1183200Y4358500D01*
X1171900Y4364900D01*
X1159000Y4367000D01*
X1142900Y4362800D01*
X1131700Y4352200D01*
X1128500Y4339500D01*
X1130100Y4326800D01*
X1136500Y4316200D01*
X1168700Y4295000D01*
X1183200Y4280200D01*
X1192800Y4259000D01*
X1196000Y4240000D01*
X1128500D01*
G01X1063300Y4345800D02*
X1053700Y4358500D01*
X1042400Y4364900D01*
X1029500Y4367000D01*
X1013400Y4362800D01*
X1002200Y4352200D01*
X999000Y4339500D01*
X1000600Y4326800D01*
X1007000Y4316200D01*
X1039200Y4295000D01*
X1053700Y4280200D01*
X1063300Y4259000D01*
X1066500Y4240000D01*
X999000D01*
G01X1160000Y8432400D02*
X1033000D01*
X1124000Y8492000D01*
Y8411500D01*
G01X1160000Y8357600D02*
X1033000D01*
Y8325500D01*
X1039400Y8312600D01*
X1047800Y8302900D01*
X1060500Y8294900D01*
X1075300Y8288500D01*
X1096500Y8286900D01*
X1117700Y8288500D01*
X1132500Y8294900D01*
X1145200Y8302900D01*
X1153700Y8312600D01*
X1160000Y8325500D01*
Y8357600D01*
G01X1033000Y8212100D02*
Y8173500D01*
G01Y8192800D02*
X1160000D01*
G01Y8212100D02*
Y8173500D01*
G01X1202300Y7885500D02*
X1075300Y7965900D01*
X1054200D01*
X1033000Y7949800D01*
Y7933800D01*
X1054200Y7917700D01*
X1075300D01*
X1096500Y7933800D01*
X1117700Y7965900D01*
X1138800Y7982000D01*
X1181200D01*
X1202300Y7965900D01*
Y7917700D01*
X1160000Y7885500D01*
G01Y7655400D02*
X1033000D01*
X1124000Y7715000D01*
Y7634500D01*
G01X1160000Y7585500D02*
X1033000Y7545300D01*
X1160000Y7505000D01*
G01X1115600Y7519500D02*
Y7571000D01*
G01X1043600Y7380400D02*
X1037200Y7390000D01*
X1033000Y7401300D01*
Y7414100D01*
X1039400Y7428600D01*
X1049900Y7439900D01*
X1062600Y7447900D01*
X1083800Y7454400D01*
X1102900Y7456000D01*
X1121900Y7452700D01*
X1134600Y7447900D01*
X1147300Y7438300D01*
X1155800Y7427000D01*
X1160000Y7415800D01*
Y7404500D01*
X1155800Y7393200D01*
X1149400Y7383600D01*
X1141000Y7375500D01*
G01X1033000Y7305600D02*
Y7267000D01*
G01Y7286300D02*
X1160000D01*
G01Y7305600D02*
Y7267000D01*
G01X1663900Y4680000D02*
Y4807000D01*
X1623700D01*
X1610800Y4800600D01*
X1602800Y4792200D01*
X1599600Y4775200D01*
X1602800Y4758300D01*
X1612400Y4747700D01*
X1623700Y4741400D01*
X1663900D01*
G01X1623700D02*
X1599600Y4680000D01*
G01X1532800Y4785800D02*
X1523200Y4798500D01*
X1511900Y4804900D01*
X1499000Y4807000D01*
X1482900Y4802800D01*
X1471700Y4792200D01*
X1468500Y4779500D01*
X1470100Y4766800D01*
X1476500Y4756200D01*
X1508700Y4735000D01*
X1523200Y4720200D01*
X1532800Y4699000D01*
X1536000Y4680000D01*
X1468500D01*
G01X1353400D02*
Y4807000D01*
X1413000Y4716000D01*
X1332500D01*
G01X1840000Y1316100D02*
X1967000D01*
Y1356300D01*
X1960600Y1369200D01*
X1952200Y1377200D01*
X1935200Y1380400D01*
X1918300Y1377200D01*
X1907700Y1367600D01*
X1901400Y1356300D01*
Y1316100D01*
G01Y1356300D02*
X1840000Y1380400D01*
G01X1945800Y1447200D02*
X1958500Y1456800D01*
X1964900Y1468100D01*
X1967000Y1481000D01*
X1962800Y1497100D01*
X1952200Y1508300D01*
X1939500Y1511500D01*
X1926800Y1509900D01*
X1916200Y1503500D01*
X1895000Y1471300D01*
X1880200Y1456800D01*
X1859000Y1447200D01*
X1840000Y1444000D01*
Y1511500D01*
G01Y1607200D02*
X1842100Y1618500D01*
X1848500Y1631400D01*
X1859000Y1639400D01*
X1873900Y1642600D01*
X1888700Y1639400D01*
X1901400Y1629800D01*
X1907700Y1615300D01*
Y1599200D01*
X1912000Y1589600D01*
X1922500Y1581500D01*
X1937400Y1578300D01*
X1952200Y1583100D01*
X1962800Y1594400D01*
X1967000Y1607200D01*
X1962800Y1620100D01*
X1952200Y1631400D01*
X1937400Y1636200D01*
X1922500Y1633000D01*
X1912000Y1624900D01*
X1907700Y1615300D01*
Y1599200D01*
X1901400Y1584700D01*
X1888700Y1575100D01*
X1873900Y1571900D01*
X1859000Y1575100D01*
X1848500Y1583100D01*
X1842100Y1596000D01*
X1840000Y1607200D01*
G01Y2556100D02*
X1967000D01*
Y2596300D01*
X1960600Y2609200D01*
X1952200Y2617200D01*
X1935200Y2620400D01*
X1918300Y2617200D01*
X1907700Y2607600D01*
X1901400Y2596300D01*
Y2556100D01*
G01Y2596300D02*
X1840000Y2620400D01*
G01X1865400Y2682400D02*
X1850600Y2692000D01*
X1842100Y2704900D01*
X1840000Y2719400D01*
X1842100Y2732200D01*
X1852700Y2745100D01*
X1865400Y2753100D01*
X1878100Y2754700D01*
X1892900Y2751500D01*
X1903500Y2740300D01*
X1907700Y2729000D01*
Y2714500D01*
G01Y2729000D02*
X1914100Y2738700D01*
X1924700Y2746700D01*
X1937400Y2749900D01*
X1950100Y2746700D01*
X1960600Y2738700D01*
X1967000Y2724200D01*
X1964900Y2709700D01*
X1956400Y2695200D01*
G01X1945800Y2816700D02*
X1958500Y2826300D01*
X1964900Y2837600D01*
X1967000Y2850500D01*
X1962800Y2866600D01*
X1952200Y2877800D01*
X1939500Y2881000D01*
X1926800Y2879400D01*
X1916200Y2873000D01*
X1895000Y2840800D01*
X1880200Y2826300D01*
X1859000Y2816700D01*
X1840000Y2813500D01*
Y2881000D01*
G01Y3436100D02*
X1967000D01*
Y3476300D01*
X1960600Y3489200D01*
X1952200Y3497200D01*
X1935200Y3500400D01*
X1918300Y3497200D01*
X1907700Y3487600D01*
X1901400Y3476300D01*
Y3436100D01*
G01Y3476300D02*
X1840000Y3500400D01*
G01Y3597700D02*
X1967000D01*
X1941600Y3578400D01*
G01X1840000D02*
Y3617000D01*
G01X1854800Y3699900D02*
X1844200Y3711200D01*
X1840000Y3724000D01*
X1844200Y3736900D01*
X1856900Y3748200D01*
X1876000Y3756200D01*
X1895000Y3759400D01*
X1918300D01*
X1937400Y3756200D01*
X1954300Y3748200D01*
X1962800Y3738500D01*
X1967000Y3727200D01*
X1962800Y3714400D01*
X1954300Y3704700D01*
X1941600Y3698300D01*
X1924700Y3695100D01*
X1909900Y3698300D01*
X1895000Y3706300D01*
X1886600Y3716000D01*
X1884400Y3727200D01*
X1888700Y3740100D01*
X1899300Y3749800D01*
X1918300Y3759400D01*
G01X1840000Y4666100D02*
X1967000D01*
Y4706300D01*
X1960600Y4719200D01*
X1952200Y4727200D01*
X1935200Y4730400D01*
X1918300Y4727200D01*
X1907700Y4717600D01*
X1901400Y4706300D01*
Y4666100D01*
G01Y4706300D02*
X1840000Y4730400D01*
G01X1945800Y4797200D02*
X1958500Y4806800D01*
X1964900Y4818100D01*
X1967000Y4831000D01*
X1962800Y4847100D01*
X1952200Y4858300D01*
X1939500Y4861500D01*
X1926800Y4859900D01*
X1916200Y4853500D01*
X1895000Y4821300D01*
X1880200Y4806800D01*
X1859000Y4797200D01*
X1840000Y4794000D01*
Y4861500D01*
G01X1865400Y4921900D02*
X1850600Y4931500D01*
X1842100Y4944400D01*
X1840000Y4958900D01*
X1842100Y4971700D01*
X1852700Y4984600D01*
X1865400Y4992600D01*
X1878100Y4994200D01*
X1892900Y4991000D01*
X1903500Y4979800D01*
X1907700Y4968500D01*
Y4954000D01*
G01Y4968500D02*
X1914100Y4978200D01*
X1924700Y4986200D01*
X1937400Y4989400D01*
X1950100Y4986200D01*
X1960600Y4978200D01*
X1967000Y4963700D01*
X1964900Y4949200D01*
X1956400Y4934700D01*
G01X2413900Y2520000D02*
Y2647000D01*
X2373700D01*
X2360800Y2640600D01*
X2352800Y2632200D01*
X2349600Y2615200D01*
X2352800Y2598300D01*
X2362400Y2587700D01*
X2373700Y2581400D01*
X2413900D01*
G01X2373700D02*
X2349600Y2520000D01*
G01X2282800Y2625800D02*
X2273200Y2638500D01*
X2261900Y2644900D01*
X2249000Y2647000D01*
X2232900Y2642800D01*
X2221700Y2632200D01*
X2218500Y2619500D01*
X2220100Y2606800D01*
X2226500Y2596200D01*
X2258700Y2575000D01*
X2273200Y2560200D01*
X2282800Y2539000D01*
X2286000Y2520000D01*
X2218500D01*
G01X2126000D02*
X2122800Y2547500D01*
X2117900Y2570800D01*
X2111500Y2592000D01*
X2103400Y2615200D01*
X2090600Y2647000D01*
X2154900D01*
G01X2503900Y4630000D02*
Y4757000D01*
X2463700D01*
X2450800Y4750600D01*
X2442800Y4742200D01*
X2439600Y4725200D01*
X2442800Y4708300D01*
X2452400Y4697700D01*
X2463700Y4691400D01*
X2503900D01*
G01X2463700D02*
X2439600Y4630000D01*
G01X2342300D02*
Y4757000D01*
X2361600Y4731600D01*
G01Y4630000D02*
X2323000D01*
G01X2212800D02*
X2201500Y4632100D01*
X2188600Y4638500D01*
X2180600Y4649000D01*
X2177400Y4663900D01*
X2180600Y4678700D01*
X2190200Y4691400D01*
X2204700Y4697700D01*
X2220800D01*
X2230400Y4702000D01*
X2238500Y4712500D01*
X2241700Y4727400D01*
X2236900Y4742200D01*
X2225600Y4752800D01*
X2212800Y4757000D01*
X2199900Y4752800D01*
X2188600Y4742200D01*
X2183800Y4727400D01*
X2187000Y4712500D01*
X2195100Y4702000D01*
X2204700Y4697700D01*
X2220800D01*
X2235300Y4691400D01*
X2244900Y4678700D01*
X2248100Y4663900D01*
X2244900Y4649000D01*
X2236900Y4638500D01*
X2224000Y4632100D01*
X2212800Y4630000D01*
G01X2766400Y1866400D02*
X2776000Y1872800D01*
X2787300Y1877000D01*
X2800100D01*
X2814600Y1870600D01*
X2825900Y1860100D01*
X2833900Y1847400D01*
X2840400Y1826200D01*
X2842000Y1807100D01*
X2838700Y1788100D01*
X2833900Y1775400D01*
X2824300Y1762700D01*
X2813000Y1754200D01*
X2801800Y1750000D01*
X2790500D01*
X2779200Y1754200D01*
X2769600Y1760600D01*
X2761500Y1769000D01*
G01X2702800Y1855800D02*
X2693200Y1868500D01*
X2681900Y1874900D01*
X2669000Y1877000D01*
X2652900Y1872800D01*
X2641700Y1862200D01*
X2638500Y1849500D01*
X2640100Y1836800D01*
X2646500Y1826200D01*
X2678700Y1805000D01*
X2693200Y1790200D01*
X2702800Y1769000D01*
X2706000Y1750000D01*
X2638500D01*
G01X2542800D02*
Y1877000D01*
X2562100Y1851600D01*
G01Y1750000D02*
X2523500D01*
G01X2776400Y2156400D02*
X2786000Y2162800D01*
X2797300Y2167000D01*
X2810100D01*
X2824600Y2160600D01*
X2835900Y2150100D01*
X2843900Y2137400D01*
X2850400Y2116200D01*
X2852000Y2097100D01*
X2848700Y2078100D01*
X2843900Y2065400D01*
X2834300Y2052700D01*
X2823000Y2044200D01*
X2811800Y2040000D01*
X2800500D01*
X2789200Y2044200D01*
X2779600Y2050600D01*
X2771500Y2059000D01*
G01X2712800Y2145800D02*
X2703200Y2158500D01*
X2691900Y2164900D01*
X2679000Y2167000D01*
X2662900Y2162800D01*
X2651700Y2152200D01*
X2648500Y2139500D01*
X2650100Y2126800D01*
X2656500Y2116200D01*
X2688700Y2095000D01*
X2703200Y2080200D01*
X2712800Y2059000D01*
X2716000Y2040000D01*
X2648500D01*
G01X2583300Y2145800D02*
X2573700Y2158500D01*
X2562400Y2164900D01*
X2549500Y2167000D01*
X2533400Y2162800D01*
X2522200Y2152200D01*
X2519000Y2139500D01*
X2520600Y2126800D01*
X2527000Y2116200D01*
X2559200Y2095000D01*
X2573700Y2080200D01*
X2583300Y2059000D01*
X2586500Y2040000D01*
X2519000D01*
G01X2796400Y3976400D02*
X2806000Y3982800D01*
X2817300Y3987000D01*
X2830100D01*
X2844600Y3980600D01*
X2855900Y3970100D01*
X2863900Y3957400D01*
X2870400Y3936200D01*
X2872000Y3917100D01*
X2868700Y3898100D01*
X2863900Y3885400D01*
X2854300Y3872700D01*
X2843000Y3864200D01*
X2831800Y3860000D01*
X2820500D01*
X2809200Y3864200D01*
X2799600Y3870600D01*
X2791500Y3879000D01*
G01X2702300Y3860000D02*
Y3987000D01*
X2721600Y3961600D01*
G01Y3860000D02*
X2683000D01*
G01X2576000D02*
X2572800Y3887500D01*
X2567900Y3910800D01*
X2561500Y3932000D01*
X2553400Y3955200D01*
X2540600Y3987000D01*
X2604900D01*
G01X2796400Y4236400D02*
X2806000Y4242800D01*
X2817300Y4247000D01*
X2830100D01*
X2844600Y4240600D01*
X2855900Y4230100D01*
X2863900Y4217400D01*
X2870400Y4196200D01*
X2872000Y4177100D01*
X2868700Y4158100D01*
X2863900Y4145400D01*
X2854300Y4132700D01*
X2843000Y4124200D01*
X2831800Y4120000D01*
X2820500D01*
X2809200Y4124200D01*
X2799600Y4130600D01*
X2791500Y4139000D01*
G01X2732800Y4225800D02*
X2723200Y4238500D01*
X2711900Y4244900D01*
X2699000Y4247000D01*
X2682900Y4242800D01*
X2671700Y4232200D01*
X2668500Y4219500D01*
X2670100Y4206800D01*
X2676500Y4196200D01*
X2708700Y4175000D01*
X2723200Y4160200D01*
X2732800Y4139000D01*
X2736000Y4120000D01*
X2668500D01*
G01X2572800Y4247000D02*
X2585600Y4242800D01*
X2595300Y4232200D01*
X2601700Y4219500D01*
X2606500Y4202500D01*
X2608100Y4183500D01*
X2606500Y4164400D01*
X2601700Y4147500D01*
X2595300Y4134800D01*
X2585600Y4124200D01*
X2572800Y4120000D01*
X2559900Y4124200D01*
X2550200Y4134800D01*
X2543800Y4147500D01*
X2539000Y4164400D01*
X2537400Y4183500D01*
X2539000Y4202500D01*
X2543800Y4219500D01*
X2550200Y4232200D01*
X2559900Y4242800D01*
X2572800Y4247000D01*
G01X3533900Y1800000D02*
Y1927000D01*
X3493700D01*
X3480800Y1920600D01*
X3472800Y1912200D01*
X3469600Y1895200D01*
X3472800Y1878300D01*
X3482400Y1867700D01*
X3493700Y1861400D01*
X3533900D01*
G01X3493700D02*
X3469600Y1800000D01*
G01X3372300D02*
Y1927000D01*
X3391600Y1901600D01*
G01Y1800000D02*
X3353000D01*
G01X3273300Y1905800D02*
X3263700Y1918500D01*
X3252400Y1924900D01*
X3239500Y1927000D01*
X3223400Y1922800D01*
X3212200Y1912200D01*
X3209000Y1899500D01*
X3210600Y1886800D01*
X3217000Y1876200D01*
X3249200Y1855000D01*
X3263700Y1840200D01*
X3273300Y1819000D01*
X3276500Y1800000D01*
X3209000D01*
G01X3533900Y2180000D02*
Y2307000D01*
X3493700D01*
X3480800Y2300600D01*
X3472800Y2292200D01*
X3469600Y2275200D01*
X3472800Y2258300D01*
X3482400Y2247700D01*
X3493700Y2241400D01*
X3533900D01*
G01X3493700D02*
X3469600Y2180000D01*
G01X3372300D02*
Y2307000D01*
X3391600Y2281600D01*
G01Y2180000D02*
X3353000D01*
G01X3242800D02*
Y2307000D01*
X3262100Y2281600D01*
G01Y2180000D02*
X3223500D01*
G01X3543900Y2440000D02*
Y2567000D01*
X3503700D01*
X3490800Y2560600D01*
X3482800Y2552200D01*
X3479600Y2535200D01*
X3482800Y2518300D01*
X3492400Y2507700D01*
X3503700Y2501400D01*
X3543900D01*
G01X3503700D02*
X3479600Y2440000D01*
G01X3382300D02*
Y2567000D01*
X3401600Y2541600D01*
G01Y2440000D02*
X3363000D01*
G01X3252800Y2567000D02*
X3265600Y2562800D01*
X3275300Y2552200D01*
X3281700Y2539500D01*
X3286500Y2522500D01*
X3288100Y2503500D01*
X3286500Y2484400D01*
X3281700Y2467500D01*
X3275300Y2454800D01*
X3265600Y2444200D01*
X3252800Y2440000D01*
X3239900Y2444200D01*
X3230200Y2454800D01*
X3223800Y2467500D01*
X3219000Y2484400D01*
X3217400Y2503500D01*
X3219000Y2522500D01*
X3223800Y2539500D01*
X3230200Y2552200D01*
X3239900Y2562800D01*
X3252800Y2567000D01*
G01X3553900Y3640000D02*
Y3767000D01*
X3513700D01*
X3500800Y3760600D01*
X3492800Y3752200D01*
X3489600Y3735200D01*
X3492800Y3718300D01*
X3502400Y3707700D01*
X3513700Y3701400D01*
X3553900D01*
G01X3513700D02*
X3489600Y3640000D01*
G01X3392300D02*
X3381000Y3642100D01*
X3368100Y3648500D01*
X3360100Y3659000D01*
X3356900Y3673900D01*
X3360100Y3688700D01*
X3369700Y3701400D01*
X3384200Y3707700D01*
X3400300D01*
X3409900Y3712000D01*
X3418000Y3722500D01*
X3421200Y3737400D01*
X3416400Y3752200D01*
X3405100Y3762800D01*
X3392300Y3767000D01*
X3379400Y3762800D01*
X3368100Y3752200D01*
X3363300Y3737400D01*
X3366500Y3722500D01*
X3374600Y3712000D01*
X3384200Y3707700D01*
X3400300D01*
X3414800Y3701400D01*
X3424400Y3688700D01*
X3427600Y3673900D01*
X3424400Y3659000D01*
X3416400Y3648500D01*
X3403500Y3642100D01*
X3392300Y3640000D01*
G01X3553900Y3900000D02*
Y4027000D01*
X3513700D01*
X3500800Y4020600D01*
X3492800Y4012200D01*
X3489600Y3995200D01*
X3492800Y3978300D01*
X3502400Y3967700D01*
X3513700Y3961400D01*
X3553900D01*
G01X3513700D02*
X3489600Y3900000D01*
G01X3395500D02*
X3392300Y3927500D01*
X3387400Y3950800D01*
X3381000Y3972000D01*
X3372900Y3995200D01*
X3360100Y4027000D01*
X3424400D01*
G01X3553900Y4250000D02*
Y4377000D01*
X3513700D01*
X3500800Y4370600D01*
X3492800Y4362200D01*
X3489600Y4345200D01*
X3492800Y4328300D01*
X3502400Y4317700D01*
X3513700Y4311400D01*
X3553900D01*
G01X3513700D02*
X3489600Y4250000D01*
G01X3422800Y4302900D02*
X3411600Y4317700D01*
X3401900Y4326200D01*
X3389000Y4330400D01*
X3377800Y4326200D01*
X3369700Y4317700D01*
X3363300Y4305000D01*
X3361700Y4290200D01*
X3363300Y4277500D01*
X3369700Y4264800D01*
X3379400Y4254200D01*
X3390600Y4250000D01*
X3403500Y4254200D01*
X3414800Y4266900D01*
X3421200Y4286000D01*
X3422800Y4307100D01*
X3419600Y4334700D01*
X3414800Y4349500D01*
X3406700Y4364300D01*
X3395500Y4374900D01*
X3384200Y4377000D01*
X3372900Y4372800D01*
X3364900Y4362200D01*
G01X3563900Y4530000D02*
Y4657000D01*
X3523700D01*
X3510800Y4650600D01*
X3502800Y4642200D01*
X3499600Y4625200D01*
X3502800Y4608300D01*
X3512400Y4597700D01*
X3523700Y4591400D01*
X3563900D01*
G01X3523700D02*
X3499600Y4530000D01*
G01X3382900D02*
Y4657000D01*
X3442500Y4566000D01*
X3362000D01*
G01X3983900Y1290000D02*
Y1417000D01*
X3943700D01*
X3930800Y1410600D01*
X3922800Y1402200D01*
X3919600Y1385200D01*
X3922800Y1368300D01*
X3932400Y1357700D01*
X3943700Y1351400D01*
X3983900D01*
G01X3943700D02*
X3919600Y1290000D01*
G01X3822300D02*
Y1417000D01*
X3841600Y1391600D01*
G01Y1290000D02*
X3803000D01*
G01X3728100Y1315400D02*
X3718500Y1300600D01*
X3705600Y1292100D01*
X3691100Y1290000D01*
X3678300Y1292100D01*
X3665400Y1302700D01*
X3657400Y1315400D01*
X3655800Y1328100D01*
X3659000Y1342900D01*
X3670200Y1353500D01*
X3681500Y1357700D01*
X3696000D01*
G01X3681500D02*
X3671800Y1364100D01*
X3663800Y1374700D01*
X3660600Y1387400D01*
X3663800Y1400100D01*
X3671800Y1410600D01*
X3686300Y1417000D01*
X3700800Y1414900D01*
X3715300Y1406400D01*
G01X4236400Y3056400D02*
X4246000Y3062800D01*
X4257300Y3067000D01*
X4270100D01*
X4284600Y3060600D01*
X4295900Y3050100D01*
X4303900Y3037400D01*
X4310400Y3016200D01*
X4312000Y2997100D01*
X4308700Y2978100D01*
X4303900Y2965400D01*
X4294300Y2952700D01*
X4283000Y2944200D01*
X4271800Y2940000D01*
X4260500D01*
X4249200Y2944200D01*
X4239600Y2950600D01*
X4231500Y2959000D01*
G01X4122900Y2940000D02*
Y3067000D01*
X4182500Y2976000D01*
X4102000D01*
G01X4366400Y4166400D02*
X4376000Y4172800D01*
X4387300Y4177000D01*
X4400100D01*
X4414600Y4170600D01*
X4425900Y4160100D01*
X4433900Y4147400D01*
X4440400Y4126200D01*
X4442000Y4107100D01*
X4438700Y4088100D01*
X4433900Y4075400D01*
X4424300Y4062700D01*
X4413000Y4054200D01*
X4401800Y4050000D01*
X4390500D01*
X4379200Y4054200D01*
X4369600Y4060600D01*
X4361500Y4069000D01*
G01X4272300Y4050000D02*
Y4177000D01*
X4291600Y4151600D01*
G01Y4050000D02*
X4253000D01*
G01X4178100Y4075400D02*
X4168500Y4060600D01*
X4155600Y4052100D01*
X4141100Y4050000D01*
X4128300Y4052100D01*
X4115400Y4062700D01*
X4107400Y4075400D01*
X4105800Y4088100D01*
X4109000Y4102900D01*
X4120200Y4113500D01*
X4131500Y4117700D01*
X4146000D01*
G01X4131500D02*
X4121800Y4124100D01*
X4113800Y4134700D01*
X4110600Y4147400D01*
X4113800Y4160100D01*
X4121800Y4170600D01*
X4136300Y4177000D01*
X4150800Y4174900D01*
X4165300Y4166400D01*
G01X4386400Y4796400D02*
X4396000Y4802800D01*
X4407300Y4807000D01*
X4420100D01*
X4434600Y4800600D01*
X4445900Y4790100D01*
X4453900Y4777400D01*
X4460400Y4756200D01*
X4462000Y4737100D01*
X4458700Y4718100D01*
X4453900Y4705400D01*
X4444300Y4692700D01*
X4433000Y4684200D01*
X4421800Y4680000D01*
X4410500D01*
X4399200Y4684200D01*
X4389600Y4690600D01*
X4381500Y4699000D01*
G01X4292300Y4680000D02*
Y4807000D01*
X4311600Y4781600D01*
G01Y4680000D02*
X4273000D01*
G01X4193300Y4785800D02*
X4183700Y4798500D01*
X4172400Y4804900D01*
X4159500Y4807000D01*
X4143400Y4802800D01*
X4132200Y4792200D01*
X4129000Y4779500D01*
X4130600Y4766800D01*
X4137000Y4756200D01*
X4169200Y4735000D01*
X4183700Y4720200D01*
X4193300Y4699000D01*
X4196500Y4680000D01*
X4129000D01*
G01X4396400Y7546400D02*
X4406000Y7552800D01*
X4417300Y7557000D01*
X4430100D01*
X4444600Y7550600D01*
X4455900Y7540100D01*
X4463900Y7527400D01*
X4470400Y7506200D01*
X4472000Y7487100D01*
X4468700Y7468100D01*
X4463900Y7455400D01*
X4454300Y7442700D01*
X4443000Y7434200D01*
X4431800Y7430000D01*
X4420500D01*
X4409200Y7434200D01*
X4399600Y7440600D01*
X4391500Y7449000D01*
G01X4337600Y7455400D02*
X4328000Y7440600D01*
X4315100Y7432100D01*
X4300600Y7430000D01*
X4287800Y7432100D01*
X4274900Y7442700D01*
X4266900Y7455400D01*
X4265300Y7468100D01*
X4268500Y7482900D01*
X4279700Y7493500D01*
X4291000Y7497700D01*
X4305500D01*
G01X4291000D02*
X4281300Y7504100D01*
X4273300Y7514700D01*
X4270100Y7527400D01*
X4273300Y7540100D01*
X4281300Y7550600D01*
X4295800Y7557000D01*
X4310300Y7554900D01*
X4324800Y7546400D01*
G01X4172800Y7430000D02*
Y7557000D01*
X4192100Y7531600D01*
G01Y7430000D02*
X4153500D01*
G01X4526400Y1613600D02*
X4532800Y1604000D01*
X4537000Y1592700D01*
Y1579900D01*
X4530600Y1565400D01*
X4520100Y1554100D01*
X4507400Y1546100D01*
X4486200Y1539600D01*
X4467100Y1538000D01*
X4448100Y1541300D01*
X4435400Y1546100D01*
X4422700Y1555700D01*
X4414200Y1567000D01*
X4410000Y1578200D01*
Y1589500D01*
X4414200Y1600800D01*
X4420600Y1610400D01*
X4429000Y1618500D01*
G01X4410000Y1707700D02*
X4537000D01*
X4511600Y1688400D01*
G01X4410000D02*
Y1727000D01*
G01X4429000Y1801900D02*
X4418500Y1811500D01*
X4412100Y1822800D01*
X4410000Y1837200D01*
X4414200Y1851700D01*
X4422700Y1863000D01*
X4437500Y1871000D01*
X4454400Y1872600D01*
X4471400Y1869400D01*
X4482000Y1861400D01*
X4490400Y1850100D01*
X4492500Y1838900D01*
X4490400Y1827600D01*
X4482000Y1813100D01*
X4537000Y1817900D01*
Y1861400D01*
G01X4526400Y2243600D02*
X4532800Y2234000D01*
X4537000Y2222700D01*
Y2209900D01*
X4530600Y2195400D01*
X4520100Y2184100D01*
X4507400Y2176100D01*
X4486200Y2169600D01*
X4467100Y2168000D01*
X4448100Y2171300D01*
X4435400Y2176100D01*
X4422700Y2185700D01*
X4414200Y2197000D01*
X4410000Y2208200D01*
Y2219500D01*
X4414200Y2230800D01*
X4420600Y2240400D01*
X4429000Y2248500D01*
G01X4410000Y2337700D02*
X4537000D01*
X4511600Y2318400D01*
G01X4410000D02*
Y2357000D01*
G01Y2486600D02*
X4537000D01*
X4446000Y2427000D01*
Y2507500D01*
G01X4443900Y3160000D02*
Y3287000D01*
X4403700D01*
X4390800Y3280600D01*
X4382800Y3272200D01*
X4379600Y3255200D01*
X4382800Y3238300D01*
X4392400Y3227700D01*
X4403700Y3221400D01*
X4443900D01*
G01X4403700D02*
X4379600Y3160000D01*
G01X4309600Y3174800D02*
X4298300Y3164200D01*
X4285500Y3160000D01*
X4272600Y3164200D01*
X4261300Y3176900D01*
X4253300Y3196000D01*
X4250100Y3215000D01*
Y3238300D01*
X4253300Y3257400D01*
X4261300Y3274300D01*
X4271000Y3282800D01*
X4282300Y3287000D01*
X4295100Y3282800D01*
X4304800Y3274300D01*
X4311200Y3261600D01*
X4314400Y3244700D01*
X4311200Y3229900D01*
X4303200Y3215000D01*
X4293500Y3206600D01*
X4282300Y3204400D01*
X4269400Y3208700D01*
X4259700Y3219300D01*
X4250100Y3238300D01*
G01X4459000Y9412900D02*
X4448500Y9422500D01*
X4442100Y9433800D01*
X4440000Y9448200D01*
X4444200Y9462700D01*
X4452700Y9474000D01*
X4467500Y9482000D01*
X4484400Y9483600D01*
X4501400Y9480400D01*
X4512000Y9472400D01*
X4520400Y9461100D01*
X4522500Y9449900D01*
X4520400Y9438600D01*
X4512000Y9424100D01*
X4567000Y9428900D01*
Y9472400D01*
G01Y9537500D02*
X4440000Y9577700D01*
X4567000Y9618000D01*
G01X4636400Y4066400D02*
X4646000Y4072800D01*
X4657300Y4077000D01*
X4670100D01*
X4684600Y4070600D01*
X4695900Y4060100D01*
X4703900Y4047400D01*
X4710400Y4026200D01*
X4712000Y4007100D01*
X4708700Y3988100D01*
X4703900Y3975400D01*
X4694300Y3962700D01*
X4683000Y3954200D01*
X4671800Y3950000D01*
X4660500D01*
X4649200Y3954200D01*
X4639600Y3960600D01*
X4631500Y3969000D01*
G01X4545500Y3950000D02*
X4542300Y3977500D01*
X4537400Y4000800D01*
X4531000Y4022000D01*
X4522900Y4045200D01*
X4510100Y4077000D01*
X4574400D01*
G01X4846400Y6576400D02*
X4856000Y6582800D01*
X4867300Y6587000D01*
X4880100D01*
X4894600Y6580600D01*
X4905900Y6570100D01*
X4913900Y6557400D01*
X4920400Y6536200D01*
X4922000Y6517100D01*
X4918700Y6498100D01*
X4913900Y6485400D01*
X4904300Y6472700D01*
X4893000Y6464200D01*
X4881800Y6460000D01*
X4870500D01*
X4859200Y6464200D01*
X4849600Y6470600D01*
X4841500Y6479000D01*
G01X4782800Y6565800D02*
X4773200Y6578500D01*
X4761900Y6584900D01*
X4749000Y6587000D01*
X4732900Y6582800D01*
X4721700Y6572200D01*
X4718500Y6559500D01*
X4720100Y6546800D01*
X4726500Y6536200D01*
X4758700Y6515000D01*
X4773200Y6500200D01*
X4782800Y6479000D01*
X4786000Y6460000D01*
X4718500D01*
G01X4626000D02*
X4622800Y6487500D01*
X4617900Y6510800D01*
X4611500Y6532000D01*
X4603400Y6555200D01*
X4590600Y6587000D01*
X4654900D01*
G01X4753500Y9337900D02*
Y9370100D01*
X4715400D01*
X4702700Y9360400D01*
X4694200Y9349200D01*
X4690000Y9333100D01*
X4694200Y9317000D01*
X4702700Y9305700D01*
X4715400Y9296100D01*
X4730200Y9289600D01*
X4747100Y9286400D01*
X4762000D01*
X4774700Y9289600D01*
X4789500Y9296100D01*
X4802200Y9305700D01*
X4810600Y9315400D01*
X4817000Y9328200D01*
Y9339500D01*
X4812800Y9352400D01*
X4804300Y9362000D01*
G01X4690000Y9420800D02*
X4817000D01*
X4690000Y9494700D01*
X4817000D01*
G01X4690000Y9551900D02*
X4817000D01*
Y9584000D01*
X4810600Y9596900D01*
X4802200Y9606600D01*
X4789500Y9614600D01*
X4774700Y9621000D01*
X4753500Y9622600D01*
X4732300Y9621000D01*
X4717500Y9614600D01*
X4704800Y9606600D01*
X4696300Y9596900D01*
X4690000Y9584000D01*
Y9551900D01*
G01X5013900Y2927000D02*
Y2800000D01*
X4949600D01*
G01X4852300D02*
Y2927000D01*
X4871600Y2901600D01*
G01Y2800000D02*
X4833000D01*
G01X5023900Y4087000D02*
Y3960000D01*
X4959600D01*
G01X4892800Y4065800D02*
X4883200Y4078500D01*
X4871900Y4084900D01*
X4859000Y4087000D01*
X4842900Y4082800D01*
X4831700Y4072200D01*
X4828500Y4059500D01*
X4830100Y4046800D01*
X4836500Y4036200D01*
X4868700Y4015000D01*
X4883200Y4000200D01*
X4892800Y3979000D01*
X4896000Y3960000D01*
X4828500D01*
G01X4940000Y9406100D02*
X5067000D01*
Y9446300D01*
X5060600Y9459200D01*
X5052200Y9467200D01*
X5035200Y9470400D01*
X5018300Y9467200D01*
X5007700Y9457600D01*
X5001400Y9446300D01*
Y9406100D01*
G01Y9446300D02*
X4940000Y9470400D01*
G01X4965400Y9532400D02*
X4950600Y9542000D01*
X4942100Y9554900D01*
X4940000Y9569400D01*
X4942100Y9582200D01*
X4952700Y9595100D01*
X4965400Y9603100D01*
X4978100Y9604700D01*
X4992900Y9601500D01*
X5003500Y9590300D01*
X5007700Y9579000D01*
Y9564500D01*
G01Y9579000D02*
X5014100Y9588700D01*
X5024700Y9596700D01*
X5037400Y9599900D01*
X5050100Y9596700D01*
X5060600Y9588700D01*
X5067000Y9574200D01*
X5064900Y9559700D01*
X5056400Y9545200D01*
G01X5200000Y9406100D02*
X5327000D01*
Y9446300D01*
X5320600Y9459200D01*
X5312200Y9467200D01*
X5295200Y9470400D01*
X5278300Y9467200D01*
X5267700Y9457600D01*
X5261400Y9446300D01*
Y9406100D01*
G01Y9446300D02*
X5200000Y9470400D01*
G01X5305800Y9537200D02*
X5318500Y9546800D01*
X5324900Y9558100D01*
X5327000Y9571000D01*
X5322800Y9587100D01*
X5312200Y9598300D01*
X5299500Y9601500D01*
X5286800Y9599900D01*
X5276200Y9593500D01*
X5255000Y9561300D01*
X5240200Y9546800D01*
X5219000Y9537200D01*
X5200000Y9534000D01*
Y9601500D01*
G01X5546400Y3686400D02*
X5556000Y3692800D01*
X5567300Y3697000D01*
X5580100D01*
X5594600Y3690600D01*
X5605900Y3680100D01*
X5613900Y3667400D01*
X5620400Y3646200D01*
X5622000Y3627100D01*
X5618700Y3608100D01*
X5613900Y3595400D01*
X5604300Y3582700D01*
X5593000Y3574200D01*
X5581800Y3570000D01*
X5570500D01*
X5559200Y3574200D01*
X5549600Y3580600D01*
X5541500Y3589000D01*
G01X5452300Y3570000D02*
Y3697000D01*
X5471600Y3671600D01*
G01Y3570000D02*
X5433000D01*
G01X5783900Y4930000D02*
Y5057000D01*
X5743700D01*
X5730800Y5050600D01*
X5722800Y5042200D01*
X5719600Y5025200D01*
X5722800Y5008300D01*
X5732400Y4997700D01*
X5743700Y4991400D01*
X5783900D01*
G01X5743700D02*
X5719600Y4930000D01*
G01X5652800Y4982900D02*
X5641600Y4997700D01*
X5631900Y5006200D01*
X5619000Y5010400D01*
X5607800Y5006200D01*
X5599700Y4997700D01*
X5593300Y4985000D01*
X5591700Y4970200D01*
X5593300Y4957500D01*
X5599700Y4944800D01*
X5609400Y4934200D01*
X5620600Y4930000D01*
X5633500Y4934200D01*
X5644800Y4946900D01*
X5651200Y4966000D01*
X5652800Y4987100D01*
X5649600Y5014700D01*
X5644800Y5029500D01*
X5636700Y5044300D01*
X5625500Y5054900D01*
X5614200Y5057000D01*
X5602900Y5052800D01*
X5594900Y5042200D01*
G01X5528100Y4949000D02*
X5518500Y4938500D01*
X5507200Y4932100D01*
X5492800Y4930000D01*
X5478300Y4934200D01*
X5467000Y4942700D01*
X5459000Y4957500D01*
X5457400Y4974400D01*
X5460600Y4991400D01*
X5468600Y5002000D01*
X5479900Y5010400D01*
X5491100Y5012500D01*
X5502400Y5010400D01*
X5516900Y5002000D01*
X5512100Y5057000D01*
X5468600D01*
G01X5460000Y9406100D02*
X5587000D01*
Y9446300D01*
X5580600Y9459200D01*
X5572200Y9467200D01*
X5555200Y9470400D01*
X5538300Y9467200D01*
X5527700Y9457600D01*
X5521400Y9446300D01*
Y9406100D01*
G01Y9446300D02*
X5460000Y9470400D01*
G01Y9567700D02*
X5587000D01*
X5561600Y9548400D01*
G01X5460000D02*
Y9587000D01*
G01X5710000Y9406100D02*
X5837000D01*
Y9446300D01*
X5830600Y9459200D01*
X5822200Y9467200D01*
X5805200Y9470400D01*
X5788300Y9467200D01*
X5777700Y9457600D01*
X5771400Y9446300D01*
Y9406100D01*
G01Y9446300D02*
X5710000Y9470400D01*
G01X5837000Y9567700D02*
X5832800Y9554900D01*
X5822200Y9545200D01*
X5809500Y9538800D01*
X5792500Y9534000D01*
X5773500Y9532400D01*
X5754400Y9534000D01*
X5737500Y9538800D01*
X5724800Y9545200D01*
X5714200Y9554900D01*
X5710000Y9567700D01*
X5714200Y9580600D01*
X5724800Y9590300D01*
X5737500Y9596700D01*
X5754400Y9601500D01*
X5773500Y9603100D01*
X5792500Y9601500D01*
X5809500Y9596700D01*
X5822200Y9590300D01*
X5832800Y9580600D01*
X5837000Y9567700D01*
G01X6446400Y2816400D02*
X6456000Y2822800D01*
X6467300Y2827000D01*
X6480100D01*
X6494600Y2820600D01*
X6505900Y2810100D01*
X6513900Y2797400D01*
X6520400Y2776200D01*
X6522000Y2757100D01*
X6518700Y2738100D01*
X6513900Y2725400D01*
X6504300Y2712700D01*
X6493000Y2704200D01*
X6481800Y2700000D01*
X6470500D01*
X6459200Y2704200D01*
X6449600Y2710600D01*
X6441500Y2719000D01*
G01X6387600D02*
X6378000Y2708500D01*
X6366700Y2702100D01*
X6352300Y2700000D01*
X6337800Y2704200D01*
X6326500Y2712700D01*
X6318500Y2727500D01*
X6316900Y2744400D01*
X6320100Y2761400D01*
X6328100Y2772000D01*
X6339400Y2780400D01*
X6350600Y2782500D01*
X6361900Y2780400D01*
X6376400Y2772000D01*
X6371600Y2827000D01*
X6328100D01*
G01X6258100Y2725400D02*
X6248500Y2710600D01*
X6235600Y2702100D01*
X6221100Y2700000D01*
X6208300Y2702100D01*
X6195400Y2712700D01*
X6187400Y2725400D01*
X6185800Y2738100D01*
X6189000Y2752900D01*
X6200200Y2763500D01*
X6211500Y2767700D01*
X6226000D01*
G01X6211500D02*
X6201800Y2774100D01*
X6193800Y2784700D01*
X6190600Y2797400D01*
X6193800Y2810100D01*
X6201800Y2820600D01*
X6216300Y2827000D01*
X6230800Y2824900D01*
X6245300Y2816400D01*
G01X6186400Y3086400D02*
X6196000Y3092800D01*
X6207300Y3097000D01*
X6220100D01*
X6234600Y3090600D01*
X6245900Y3080100D01*
X6253900Y3067400D01*
X6260400Y3046200D01*
X6262000Y3027100D01*
X6258700Y3008100D01*
X6253900Y2995400D01*
X6244300Y2982700D01*
X6233000Y2974200D01*
X6221800Y2970000D01*
X6210500D01*
X6199200Y2974200D01*
X6189600Y2980600D01*
X6181500Y2989000D01*
G01X6127600Y2995400D02*
X6118000Y2980600D01*
X6105100Y2972100D01*
X6090600Y2970000D01*
X6077800Y2972100D01*
X6064900Y2982700D01*
X6056900Y2995400D01*
X6055300Y3008100D01*
X6058500Y3022900D01*
X6069700Y3033500D01*
X6081000Y3037700D01*
X6095500D01*
G01X6081000D02*
X6071300Y3044100D01*
X6063300Y3054700D01*
X6060100Y3067400D01*
X6063300Y3080100D01*
X6071300Y3090600D01*
X6085800Y3097000D01*
X6100300Y3094900D01*
X6114800Y3086400D01*
G01X6655500Y9116900D02*
X6642700Y9106300D01*
X6628200Y9100000D01*
X6615300D01*
X6602400Y9106300D01*
X6592800Y9116900D01*
X6588000Y9131800D01*
X6591200Y9146600D01*
X6599200Y9159300D01*
X6613700Y9167700D01*
X6633000Y9172000D01*
X6644300Y9180400D01*
X6649100Y9195200D01*
X6645900Y9210100D01*
X6637800Y9220600D01*
X6626600Y9227000D01*
X6615300D01*
X6604100Y9222800D01*
X6594400Y9212200D01*
G01X6540500Y9227000D02*
X6518000Y9100000D01*
X6492300Y9227000D01*
X6466500Y9100000D01*
X6444000Y9227000D01*
G01X6398100Y9100000D02*
Y9227000D01*
X6366000D01*
X6353100Y9220600D01*
X6343400Y9212200D01*
X6335400Y9199500D01*
X6329000Y9184700D01*
X6327400Y9163500D01*
X6329000Y9142300D01*
X6335400Y9127500D01*
X6343400Y9114800D01*
X6353100Y9106300D01*
X6366000Y9100000D01*
X6398100D01*
G01X6252600Y9227000D02*
X6214000D01*
G01X6233300D02*
Y9100000D01*
G01X6252600D02*
X6214000D01*
G01X6103800D02*
X6116600Y9102100D01*
X6127900Y9110600D01*
X6137500Y9123300D01*
X6144000Y9138100D01*
X6147200Y9155000D01*
Y9172000D01*
X6144000Y9188900D01*
X6137500Y9203700D01*
X6127900Y9216400D01*
X6116600Y9224900D01*
X6103800Y9227000D01*
X6090900Y9224900D01*
X6079600Y9216400D01*
X6070000Y9203700D01*
X6063500Y9188900D01*
X6060300Y9172000D01*
Y9155000D01*
X6063500Y9138100D01*
X6070000Y9123300D01*
X6079600Y9110600D01*
X6090900Y9102100D01*
X6103800Y9100000D01*
G01X6655500Y9346900D02*
X6642700Y9336300D01*
X6628200Y9330000D01*
X6615300D01*
X6602400Y9336300D01*
X6592800Y9346900D01*
X6588000Y9361800D01*
X6591200Y9376600D01*
X6599200Y9389300D01*
X6613700Y9397700D01*
X6633000Y9402000D01*
X6644300Y9410400D01*
X6649100Y9425200D01*
X6645900Y9440100D01*
X6637800Y9450600D01*
X6626600Y9457000D01*
X6615300D01*
X6604100Y9452800D01*
X6594400Y9442200D01*
G01X6540500Y9457000D02*
X6518000Y9330000D01*
X6492300Y9457000D01*
X6466500Y9330000D01*
X6444000Y9457000D01*
G01X6327400Y9446400D02*
X6337000Y9452800D01*
X6348300Y9457000D01*
X6361100D01*
X6375600Y9450600D01*
X6386900Y9440100D01*
X6394900Y9427400D01*
X6401400Y9406200D01*
X6403000Y9387100D01*
X6399700Y9368100D01*
X6394900Y9355400D01*
X6385300Y9342700D01*
X6374000Y9334200D01*
X6362800Y9330000D01*
X6351500D01*
X6340200Y9334200D01*
X6330600Y9340600D01*
X6322500Y9349000D01*
G01X6265400Y9457000D02*
Y9330000D01*
X6201100D01*
G01X6139100D02*
Y9457000D01*
G01X6078000D02*
X6139100Y9378700D01*
G01X6068400Y9330000D02*
X6111800Y9414700D01*
G01X6666400Y3916400D02*
X6676000Y3922800D01*
X6687300Y3927000D01*
X6700100D01*
X6714600Y3920600D01*
X6725900Y3910100D01*
X6733900Y3897400D01*
X6740400Y3876200D01*
X6742000Y3857100D01*
X6738700Y3838100D01*
X6733900Y3825400D01*
X6724300Y3812700D01*
X6713000Y3804200D01*
X6701800Y3800000D01*
X6690500D01*
X6679200Y3804200D01*
X6669600Y3810600D01*
X6661500Y3819000D01*
G01X6607600D02*
X6598000Y3808500D01*
X6586700Y3802100D01*
X6572300Y3800000D01*
X6557800Y3804200D01*
X6546500Y3812700D01*
X6538500Y3827500D01*
X6536900Y3844400D01*
X6540100Y3861400D01*
X6548100Y3872000D01*
X6559400Y3880400D01*
X6570600Y3882500D01*
X6581900Y3880400D01*
X6596400Y3872000D01*
X6591600Y3927000D01*
X6548100D01*
G01X6473300Y3905800D02*
X6463700Y3918500D01*
X6452400Y3924900D01*
X6439500Y3927000D01*
X6423400Y3922800D01*
X6412200Y3912200D01*
X6409000Y3899500D01*
X6410600Y3886800D01*
X6417000Y3876200D01*
X6449200Y3855000D01*
X6463700Y3840200D01*
X6473300Y3819000D01*
X6476500Y3800000D01*
X6409000D01*
G01X6655500Y9646900D02*
X6642700Y9636300D01*
X6628200Y9630000D01*
X6615300D01*
X6602400Y9636300D01*
X6592800Y9646900D01*
X6588000Y9661800D01*
X6591200Y9676600D01*
X6599200Y9689300D01*
X6613700Y9697700D01*
X6633000Y9702000D01*
X6644300Y9710400D01*
X6649100Y9725200D01*
X6645900Y9740100D01*
X6637800Y9750600D01*
X6626600Y9757000D01*
X6615300D01*
X6604100Y9752800D01*
X6594400Y9742200D01*
G01X6540500Y9757000D02*
X6518000Y9630000D01*
X6492300Y9757000D01*
X6466500Y9630000D01*
X6444000Y9757000D01*
G01X6362800Y9630000D02*
X6375600Y9632100D01*
X6386900Y9640600D01*
X6396500Y9653300D01*
X6403000Y9668100D01*
X6406200Y9685000D01*
Y9702000D01*
X6403000Y9718900D01*
X6396500Y9733700D01*
X6386900Y9746400D01*
X6375600Y9754900D01*
X6362800Y9757000D01*
X6349900Y9754900D01*
X6338600Y9746400D01*
X6329000Y9733700D01*
X6322500Y9718900D01*
X6319300Y9702000D01*
Y9685000D01*
X6322500Y9668100D01*
X6329000Y9653300D01*
X6338600Y9640600D01*
X6349900Y9632100D01*
X6362800Y9630000D01*
G01X7532100Y9173500D02*
X7499900D01*
Y9135400D01*
X7509600Y9122700D01*
X7520800Y9114200D01*
X7536900Y9110000D01*
X7553000Y9114200D01*
X7564300Y9122700D01*
X7573900Y9135400D01*
X7580400Y9150200D01*
X7583600Y9167100D01*
Y9182000D01*
X7580400Y9194700D01*
X7573900Y9209500D01*
X7564300Y9222200D01*
X7554600Y9230600D01*
X7541800Y9237000D01*
X7530500D01*
X7517600Y9232800D01*
X7508000Y9224300D01*
G01X7449200Y9110000D02*
Y9237000D01*
X7375300Y9110000D01*
Y9237000D01*
G01X7318100Y9110000D02*
Y9237000D01*
X7286000D01*
X7273100Y9230600D01*
X7263400Y9222200D01*
X7255400Y9209500D01*
X7249000Y9194700D01*
X7247400Y9173500D01*
X7249000Y9152300D01*
X7255400Y9137500D01*
X7263400Y9124800D01*
X7273100Y9116300D01*
X7286000Y9110000D01*
X7318100D01*
G01X7582000Y9487000D02*
X7541800Y9360000D01*
X7501500Y9487000D01*
G01X7376900Y9476400D02*
X7386500Y9482800D01*
X7397800Y9487000D01*
X7410600D01*
X7425100Y9480600D01*
X7436400Y9470100D01*
X7444400Y9457400D01*
X7450900Y9436200D01*
X7452500Y9417100D01*
X7449200Y9398100D01*
X7444400Y9385400D01*
X7434800Y9372700D01*
X7423500Y9364200D01*
X7412300Y9360000D01*
X7401000D01*
X7389700Y9364200D01*
X7380100Y9370600D01*
X7372000Y9379000D01*
G01X7247400Y9476400D02*
X7257000Y9482800D01*
X7268300Y9487000D01*
X7281100D01*
X7295600Y9480600D01*
X7306900Y9470100D01*
X7314900Y9457400D01*
X7321400Y9436200D01*
X7323000Y9417100D01*
X7319700Y9398100D01*
X7314900Y9385400D01*
X7305300Y9372700D01*
X7294000Y9364200D01*
X7282800Y9360000D01*
X7271500D01*
X7260200Y9364200D01*
X7250600Y9370600D01*
X7242500Y9379000D01*
G01X7573900Y9600000D02*
Y9727000D01*
X7533700D01*
X7520800Y9720600D01*
X7512800Y9712200D01*
X7509600Y9695200D01*
X7512800Y9678300D01*
X7522400Y9667700D01*
X7533700Y9661400D01*
X7573900D01*
G01X7533700D02*
X7509600Y9600000D01*
G01X7446000Y9616900D02*
X7433200Y9606300D01*
X7418700Y9600000D01*
X7405800D01*
X7392900Y9606300D01*
X7383300Y9616900D01*
X7378500Y9631800D01*
X7381700Y9646600D01*
X7389700Y9659300D01*
X7404200Y9667700D01*
X7423500Y9672000D01*
X7434800Y9680400D01*
X7439600Y9695200D01*
X7436400Y9710100D01*
X7428300Y9720600D01*
X7417100Y9727000D01*
X7405800D01*
X7394600Y9722800D01*
X7384900Y9712200D01*
G01X7282800Y9727000D02*
Y9600000D01*
G01X7319700Y9727000D02*
X7245800D01*
G01X7752100Y393500D02*
X7719900D01*
Y355400D01*
X7729600Y342700D01*
X7740800Y334200D01*
X7756900Y330000D01*
X7773000Y334200D01*
X7784300Y342700D01*
X7793900Y355400D01*
X7800400Y370200D01*
X7803600Y387100D01*
Y402000D01*
X7800400Y414700D01*
X7793900Y429500D01*
X7784300Y442200D01*
X7774600Y450600D01*
X7761800Y457000D01*
X7750500D01*
X7737600Y452800D01*
X7728000Y444300D01*
G01X7669200Y330000D02*
Y457000D01*
X7595300Y330000D01*
Y457000D01*
G01X7538100Y330000D02*
Y457000D01*
X7506000D01*
X7493100Y450600D01*
X7483400Y442200D01*
X7475400Y429500D01*
X7469000Y414700D01*
X7467400Y393500D01*
X7469000Y372300D01*
X7475400Y357500D01*
X7483400Y344800D01*
X7493100Y336300D01*
X7506000Y330000D01*
X7538100D01*
G01X8177100Y359000D02*
X8167500Y348500D01*
X8156200Y342100D01*
X8141800Y340000D01*
X8127300Y344200D01*
X8116000Y352700D01*
X8108000Y367500D01*
X8106400Y384400D01*
X8109600Y401400D01*
X8117600Y412000D01*
X8128900Y420400D01*
X8140100Y422500D01*
X8151400Y420400D01*
X8165900Y412000D01*
X8161100Y467000D01*
X8117600D01*
G01X8052500D02*
X8012300Y340000D01*
X7972000Y467000D01*
G01X8483900Y3520000D02*
Y3647000D01*
X8443700D01*
X8430800Y3640600D01*
X8422800Y3632200D01*
X8419600Y3615200D01*
X8422800Y3598300D01*
X8432400Y3587700D01*
X8443700Y3581400D01*
X8483900D01*
G01X8443700D02*
X8419600Y3520000D01*
G01X8357600Y3545400D02*
X8348000Y3530600D01*
X8335100Y3522100D01*
X8320600Y3520000D01*
X8307800Y3522100D01*
X8294900Y3532700D01*
X8286900Y3545400D01*
X8285300Y3558100D01*
X8288500Y3572900D01*
X8299700Y3583500D01*
X8311000Y3587700D01*
X8325500D01*
G01X8311000D02*
X8301300Y3594100D01*
X8293300Y3604700D01*
X8290100Y3617400D01*
X8293300Y3630100D01*
X8301300Y3640600D01*
X8315800Y3647000D01*
X8330300Y3644900D01*
X8344800Y3636400D01*
G01X8196000Y3520000D02*
X8192800Y3547500D01*
X8187900Y3570800D01*
X8181500Y3592000D01*
X8173400Y3615200D01*
X8160600Y3647000D01*
X8224900D01*
G01X8483900Y4290000D02*
Y4417000D01*
X8443700D01*
X8430800Y4410600D01*
X8422800Y4402200D01*
X8419600Y4385200D01*
X8422800Y4368300D01*
X8432400Y4357700D01*
X8443700Y4351400D01*
X8483900D01*
G01X8443700D02*
X8419600Y4290000D01*
G01X8302900D02*
Y4417000D01*
X8362500Y4326000D01*
X8282000D01*
G01X8192800Y4417000D02*
X8205600Y4412800D01*
X8215300Y4402200D01*
X8221700Y4389500D01*
X8226500Y4372500D01*
X8228100Y4353500D01*
X8226500Y4334400D01*
X8221700Y4317500D01*
X8215300Y4304800D01*
X8205600Y4294200D01*
X8192800Y4290000D01*
X8179900Y4294200D01*
X8170200Y4304800D01*
X8163800Y4317500D01*
X8159000Y4334400D01*
X8157400Y4353500D01*
X8159000Y4372500D01*
X8163800Y4389500D01*
X8170200Y4402200D01*
X8179900Y4412800D01*
X8192800Y4417000D01*
G01X8483900Y5050000D02*
Y5177000D01*
X8443700D01*
X8430800Y5170600D01*
X8422800Y5162200D01*
X8419600Y5145200D01*
X8422800Y5128300D01*
X8432400Y5117700D01*
X8443700Y5111400D01*
X8483900D01*
G01X8443700D02*
X8419600Y5050000D01*
G01X8302900D02*
Y5177000D01*
X8362500Y5086000D01*
X8282000D01*
G01X8228100Y5069000D02*
X8218500Y5058500D01*
X8207200Y5052100D01*
X8192800Y5050000D01*
X8178300Y5054200D01*
X8167000Y5062700D01*
X8159000Y5077500D01*
X8157400Y5094400D01*
X8160600Y5111400D01*
X8168600Y5122000D01*
X8179900Y5130400D01*
X8191100Y5132500D01*
X8202400Y5130400D01*
X8216900Y5122000D01*
X8212100Y5177000D01*
X8168600D01*
G01X8430000Y5836100D02*
X8557000D01*
Y5876300D01*
X8550600Y5889200D01*
X8542200Y5897200D01*
X8525200Y5900400D01*
X8508300Y5897200D01*
X8497700Y5887600D01*
X8491400Y5876300D01*
Y5836100D01*
G01Y5876300D02*
X8430000Y5900400D01*
G01Y6017100D02*
X8557000D01*
X8466000Y5957500D01*
Y6038000D01*
G01X8430000Y6127200D02*
X8432100Y6138500D01*
X8438500Y6151400D01*
X8449000Y6159400D01*
X8463900Y6162600D01*
X8478700Y6159400D01*
X8491400Y6149800D01*
X8497700Y6135300D01*
Y6119200D01*
X8502000Y6109600D01*
X8512500Y6101500D01*
X8527400Y6098300D01*
X8542200Y6103100D01*
X8552800Y6114400D01*
X8557000Y6127200D01*
X8552800Y6140100D01*
X8542200Y6151400D01*
X8527400Y6156200D01*
X8512500Y6153000D01*
X8502000Y6144900D01*
X8497700Y6135300D01*
Y6119200D01*
X8491400Y6104700D01*
X8478700Y6095100D01*
X8463900Y6091900D01*
X8449000Y6095100D01*
X8438500Y6103100D01*
X8432100Y6116000D01*
X8430000Y6127200D01*
G01X8913900Y3520000D02*
Y3647000D01*
X8873700D01*
X8860800Y3640600D01*
X8852800Y3632200D01*
X8849600Y3615200D01*
X8852800Y3598300D01*
X8862400Y3587700D01*
X8873700Y3581400D01*
X8913900D01*
G01X8873700D02*
X8849600Y3520000D01*
G01X8787600Y3545400D02*
X8778000Y3530600D01*
X8765100Y3522100D01*
X8750600Y3520000D01*
X8737800Y3522100D01*
X8724900Y3532700D01*
X8716900Y3545400D01*
X8715300Y3558100D01*
X8718500Y3572900D01*
X8729700Y3583500D01*
X8741000Y3587700D01*
X8755500D01*
G01X8741000D02*
X8731300Y3594100D01*
X8723300Y3604700D01*
X8720100Y3617400D01*
X8723300Y3630100D01*
X8731300Y3640600D01*
X8745800Y3647000D01*
X8760300Y3644900D01*
X8774800Y3636400D01*
G01X8622800Y3520000D02*
X8611500Y3522100D01*
X8598600Y3528500D01*
X8590600Y3539000D01*
X8587400Y3553900D01*
X8590600Y3568700D01*
X8600200Y3581400D01*
X8614700Y3587700D01*
X8630800D01*
X8640400Y3592000D01*
X8648500Y3602500D01*
X8651700Y3617400D01*
X8646900Y3632200D01*
X8635600Y3642800D01*
X8622800Y3647000D01*
X8609900Y3642800D01*
X8598600Y3632200D01*
X8593800Y3617400D01*
X8597000Y3602500D01*
X8605100Y3592000D01*
X8614700Y3587700D01*
X8630800D01*
X8645300Y3581400D01*
X8654900Y3568700D01*
X8658100Y3553900D01*
X8654900Y3539000D01*
X8646900Y3528500D01*
X8634000Y3522100D01*
X8622800Y3520000D01*
G01X8923900Y4290000D02*
Y4417000D01*
X8883700D01*
X8870800Y4410600D01*
X8862800Y4402200D01*
X8859600Y4385200D01*
X8862800Y4368300D01*
X8872400Y4357700D01*
X8883700Y4351400D01*
X8923900D01*
G01X8883700D02*
X8859600Y4290000D01*
G01X8742900D02*
Y4417000D01*
X8802500Y4326000D01*
X8722000D01*
G01X8632800Y4290000D02*
Y4417000D01*
X8652100Y4391600D01*
G01Y4290000D02*
X8613500D01*
G01X8913900Y5050000D02*
Y5177000D01*
X8873700D01*
X8860800Y5170600D01*
X8852800Y5162200D01*
X8849600Y5145200D01*
X8852800Y5128300D01*
X8862400Y5117700D01*
X8873700Y5111400D01*
X8913900D01*
G01X8873700D02*
X8849600Y5050000D01*
G01X8732900D02*
Y5177000D01*
X8792500Y5086000D01*
X8712000D01*
G01X8653300Y5102900D02*
X8642100Y5117700D01*
X8632400Y5126200D01*
X8619500Y5130400D01*
X8608300Y5126200D01*
X8600200Y5117700D01*
X8593800Y5105000D01*
X8592200Y5090200D01*
X8593800Y5077500D01*
X8600200Y5064800D01*
X8609900Y5054200D01*
X8621100Y5050000D01*
X8634000Y5054200D01*
X8645300Y5066900D01*
X8651700Y5086000D01*
X8653300Y5107100D01*
X8650100Y5134700D01*
X8645300Y5149500D01*
X8637200Y5164300D01*
X8626000Y5174900D01*
X8614700Y5177000D01*
X8603400Y5172800D01*
X8595400Y5162200D01*
G01X8670000Y5836100D02*
X8797000D01*
Y5876300D01*
X8790600Y5889200D01*
X8782200Y5897200D01*
X8765200Y5900400D01*
X8748300Y5897200D01*
X8737700Y5887600D01*
X8731400Y5876300D01*
Y5836100D01*
G01Y5876300D02*
X8670000Y5900400D01*
G01Y6017100D02*
X8797000D01*
X8706000Y5957500D01*
Y6038000D01*
G01X8684800Y6099900D02*
X8674200Y6111200D01*
X8670000Y6124000D01*
X8674200Y6136900D01*
X8686900Y6148200D01*
X8706000Y6156200D01*
X8725000Y6159400D01*
X8748300D01*
X8767400Y6156200D01*
X8784300Y6148200D01*
X8792800Y6138500D01*
X8797000Y6127200D01*
X8792800Y6114400D01*
X8784300Y6104700D01*
X8771600Y6098300D01*
X8754700Y6095100D01*
X8739900Y6098300D01*
X8725000Y6106300D01*
X8716600Y6116000D01*
X8714400Y6127200D01*
X8718700Y6140100D01*
X8729300Y6149800D01*
X8748300Y6159400D01*
G01X9243900Y3350000D02*
Y3477000D01*
X9203700D01*
X9190800Y3470600D01*
X9182800Y3462200D01*
X9179600Y3445200D01*
X9182800Y3428300D01*
X9192400Y3417700D01*
X9203700Y3411400D01*
X9243900D01*
G01X9203700D02*
X9179600Y3350000D01*
G01X9117600Y3375400D02*
X9108000Y3360600D01*
X9095100Y3352100D01*
X9080600Y3350000D01*
X9067800Y3352100D01*
X9054900Y3362700D01*
X9046900Y3375400D01*
X9045300Y3388100D01*
X9048500Y3402900D01*
X9059700Y3413500D01*
X9071000Y3417700D01*
X9085500D01*
G01X9071000D02*
X9061300Y3424100D01*
X9053300Y3434700D01*
X9050100Y3447400D01*
X9053300Y3460100D01*
X9061300Y3470600D01*
X9075800Y3477000D01*
X9090300Y3474900D01*
X9104800Y3466400D01*
G01X8983300Y3402900D02*
X8972100Y3417700D01*
X8962400Y3426200D01*
X8949500Y3430400D01*
X8938300Y3426200D01*
X8930200Y3417700D01*
X8923800Y3405000D01*
X8922200Y3390200D01*
X8923800Y3377500D01*
X8930200Y3364800D01*
X8939900Y3354200D01*
X8951100Y3350000D01*
X8964000Y3354200D01*
X8975300Y3366900D01*
X8981700Y3386000D01*
X8983300Y3407100D01*
X8980100Y3434700D01*
X8975300Y3449500D01*
X8967200Y3464300D01*
X8956000Y3474900D01*
X8944700Y3477000D01*
X8933400Y3472800D01*
X8925400Y3462200D01*
G01X9233900Y4120000D02*
Y4247000D01*
X9193700D01*
X9180800Y4240600D01*
X9172800Y4232200D01*
X9169600Y4215200D01*
X9172800Y4198300D01*
X9182400Y4187700D01*
X9193700Y4181400D01*
X9233900D01*
G01X9193700D02*
X9169600Y4120000D01*
G01X9107600Y4145400D02*
X9098000Y4130600D01*
X9085100Y4122100D01*
X9070600Y4120000D01*
X9057800Y4122100D01*
X9044900Y4132700D01*
X9036900Y4145400D01*
X9035300Y4158100D01*
X9038500Y4172900D01*
X9049700Y4183500D01*
X9061000Y4187700D01*
X9075500D01*
G01X9061000D02*
X9051300Y4194100D01*
X9043300Y4204700D01*
X9040100Y4217400D01*
X9043300Y4230100D01*
X9051300Y4240600D01*
X9065800Y4247000D01*
X9080300Y4244900D01*
X9094800Y4236400D01*
G01X8970100Y4134800D02*
X8958800Y4124200D01*
X8946000Y4120000D01*
X8933100Y4124200D01*
X8921800Y4136900D01*
X8913800Y4156000D01*
X8910600Y4175000D01*
Y4198300D01*
X8913800Y4217400D01*
X8921800Y4234300D01*
X8931500Y4242800D01*
X8942800Y4247000D01*
X8955600Y4242800D01*
X8965300Y4234300D01*
X8971700Y4221600D01*
X8974900Y4204700D01*
X8971700Y4189900D01*
X8963700Y4175000D01*
X8954000Y4166600D01*
X8942800Y4164400D01*
X8929900Y4168700D01*
X8920200Y4179300D01*
X8910600Y4198300D01*
G01X9233900Y4870000D02*
Y4997000D01*
X9193700D01*
X9180800Y4990600D01*
X9172800Y4982200D01*
X9169600Y4965200D01*
X9172800Y4948300D01*
X9182400Y4937700D01*
X9193700Y4931400D01*
X9233900D01*
G01X9193700D02*
X9169600Y4870000D01*
G01X9052900D02*
Y4997000D01*
X9112500Y4906000D01*
X9032000D01*
G01X8923400Y4870000D02*
Y4997000D01*
X8983000Y4906000D01*
X8902500D01*
G01X8950000Y5656100D02*
X9077000D01*
Y5696300D01*
X9070600Y5709200D01*
X9062200Y5717200D01*
X9045200Y5720400D01*
X9028300Y5717200D01*
X9017700Y5707600D01*
X9011400Y5696300D01*
Y5656100D01*
G01Y5696300D02*
X8950000Y5720400D01*
G01Y5837100D02*
X9077000D01*
X8986000Y5777500D01*
Y5858000D01*
G01X8950000Y5944000D02*
X8977500Y5947200D01*
X9000800Y5952100D01*
X9022000Y5958500D01*
X9045200Y5966600D01*
X9077000Y5979400D01*
Y5915100D01*
G01X9582000Y3840000D02*
X9541800Y3967000D01*
X9501500Y3840000D01*
G01X9516000Y3884400D02*
X9567500D01*
G01X9431600Y3967000D02*
X9393000D01*
G01X9412300D02*
Y3840000D01*
G01X9431600D02*
X9393000D01*
G01X9331000Y3797700D02*
X9234500D01*
G01X9153300Y3840000D02*
Y3967000D01*
X9172600Y3941600D01*
G01Y3840000D02*
X9134000D01*
G01X9572000Y4570000D02*
X9531800Y4697000D01*
X9491500Y4570000D01*
G01X9506000Y4614400D02*
X9557500D01*
G01X9421600Y4697000D02*
X9383000D01*
G01X9402300D02*
Y4570000D01*
G01X9421600D02*
X9383000D01*
G01X9321000Y4527700D02*
X9224500D01*
G01X9173800Y4675800D02*
X9164200Y4688500D01*
X9152900Y4694900D01*
X9140000Y4697000D01*
X9123900Y4692800D01*
X9112700Y4682200D01*
X9109500Y4669500D01*
X9111100Y4656800D01*
X9117500Y4646200D01*
X9149700Y4625000D01*
X9164200Y4610200D01*
X9173800Y4589000D01*
X9177000Y4570000D01*
X9109500D01*
G01X9582000Y5350000D02*
X9541800Y5477000D01*
X9501500Y5350000D01*
G01X9516000Y5394400D02*
X9567500D01*
G01X9431600Y5477000D02*
X9393000D01*
G01X9412300D02*
Y5350000D01*
G01X9431600D02*
X9393000D01*
G01X9331000Y5307700D02*
X9234500D01*
G01X9188600Y5375400D02*
X9179000Y5360600D01*
X9166100Y5352100D01*
X9151600Y5350000D01*
X9138800Y5352100D01*
X9125900Y5362700D01*
X9117900Y5375400D01*
X9116300Y5388100D01*
X9119500Y5402900D01*
X9130700Y5413500D01*
X9142000Y5417700D01*
X9156500D01*
G01X9142000D02*
X9132300Y5424100D01*
X9124300Y5434700D01*
X9121100Y5447400D01*
X9124300Y5460100D01*
X9132300Y5470600D01*
X9146800Y5477000D01*
X9161300Y5474900D01*
X9175800Y5466400D01*
G01X9483900Y6450000D02*
Y6577000D01*
X9445300D01*
X9432400Y6570600D01*
X9422800Y6555800D01*
X9419600Y6538900D01*
X9422800Y6522000D01*
X9430800Y6509300D01*
X9445300Y6502900D01*
X9483900D01*
G01X9370500Y6577000D02*
X9348000Y6450000D01*
X9322300Y6577000D01*
X9296500Y6450000D01*
X9274000Y6577000D01*
G01X9224900Y6450000D02*
Y6577000D01*
X9184700D01*
X9171800Y6570600D01*
X9163800Y6562200D01*
X9160600Y6545200D01*
X9163800Y6528300D01*
X9173400Y6517700D01*
X9184700Y6511400D01*
X9224900D01*
G01X9184700D02*
X9160600Y6450000D01*
G01X9477100Y6800000D02*
Y6927000D01*
X9445000D01*
X9432100Y6920600D01*
X9422400Y6912200D01*
X9414400Y6899500D01*
X9408000Y6884700D01*
X9406400Y6863500D01*
X9408000Y6842300D01*
X9414400Y6827500D01*
X9422400Y6814800D01*
X9432100Y6806300D01*
X9445000Y6800000D01*
X9477100D01*
G01X9331600Y6927000D02*
X9293000D01*
G01X9312300D02*
Y6800000D01*
G01X9331600D02*
X9293000D01*
G01X9231000Y6757700D02*
X9134500D01*
G01X9053300Y6927000D02*
X9066100Y6922800D01*
X9075800Y6912200D01*
X9082200Y6899500D01*
X9087000Y6882500D01*
X9088600Y6863500D01*
X9087000Y6844400D01*
X9082200Y6827500D01*
X9075800Y6814800D01*
X9066100Y6804200D01*
X9053300Y6800000D01*
X9040400Y6804200D01*
X9030700Y6814800D01*
X9024300Y6827500D01*
X9019500Y6844400D01*
X9017900Y6863500D01*
X9019500Y6882500D01*
X9024300Y6899500D01*
X9030700Y6912200D01*
X9040400Y6922800D01*
X9053300Y6927000D01*
G01X9483900Y7200000D02*
Y7327000D01*
X9445300D01*
X9432400Y7320600D01*
X9422800Y7305800D01*
X9419600Y7288900D01*
X9422800Y7272000D01*
X9430800Y7259300D01*
X9445300Y7252900D01*
X9483900D01*
G01X9370500Y7327000D02*
X9348000Y7200000D01*
X9322300Y7327000D01*
X9296500Y7200000D01*
X9274000Y7327000D01*
G01X9224900Y7200000D02*
Y7327000D01*
X9184700D01*
X9171800Y7320600D01*
X9163800Y7312200D01*
X9160600Y7295200D01*
X9163800Y7278300D01*
X9173400Y7267700D01*
X9184700Y7261400D01*
X9224900D01*
G01X9184700D02*
X9160600Y7200000D01*
G01X9477100Y7570000D02*
Y7697000D01*
X9445000D01*
X9432100Y7690600D01*
X9422400Y7682200D01*
X9414400Y7669500D01*
X9408000Y7654700D01*
X9406400Y7633500D01*
X9408000Y7612300D01*
X9414400Y7597500D01*
X9422400Y7584800D01*
X9432100Y7576300D01*
X9445000Y7570000D01*
X9477100D01*
G01X9331600Y7697000D02*
X9293000D01*
G01X9312300D02*
Y7570000D01*
G01X9331600D02*
X9293000D01*
G01X9231000Y7527700D02*
X9134500D01*
G01X9053300Y7570000D02*
Y7697000D01*
X9072600Y7671600D01*
G01Y7570000D02*
X9034000D01*
G01X9483900Y7960000D02*
Y8087000D01*
X9445300D01*
X9432400Y8080600D01*
X9422800Y8065800D01*
X9419600Y8048900D01*
X9422800Y8032000D01*
X9430800Y8019300D01*
X9445300Y8012900D01*
X9483900D01*
G01X9370500Y8087000D02*
X9348000Y7960000D01*
X9322300Y8087000D01*
X9296500Y7960000D01*
X9274000Y8087000D01*
G01X9224900Y7960000D02*
Y8087000D01*
X9184700D01*
X9171800Y8080600D01*
X9163800Y8072200D01*
X9160600Y8055200D01*
X9163800Y8038300D01*
X9173400Y8027700D01*
X9184700Y8021400D01*
X9224900D01*
G01X9184700D02*
X9160600Y7960000D01*
G01X9477100Y8340000D02*
Y8467000D01*
X9445000D01*
X9432100Y8460600D01*
X9422400Y8452200D01*
X9414400Y8439500D01*
X9408000Y8424700D01*
X9406400Y8403500D01*
X9408000Y8382300D01*
X9414400Y8367500D01*
X9422400Y8354800D01*
X9432100Y8346300D01*
X9445000Y8340000D01*
X9477100D01*
G01X9331600Y8467000D02*
X9293000D01*
G01X9312300D02*
Y8340000D01*
G01X9331600D02*
X9293000D01*
G01X9231000Y8297700D02*
X9134500D01*
G01X9083800Y8445800D02*
X9074200Y8458500D01*
X9062900Y8464900D01*
X9050000Y8467000D01*
X9033900Y8462800D01*
X9022700Y8452200D01*
X9019500Y8439500D01*
X9021100Y8426800D01*
X9027500Y8416200D01*
X9059700Y8395000D01*
X9074200Y8380200D01*
X9083800Y8359000D01*
X9087000Y8340000D01*
X9019500D01*
G01X9473900Y8710000D02*
Y8837000D01*
X9435300D01*
X9422400Y8830600D01*
X9412800Y8815800D01*
X9409600Y8798900D01*
X9412800Y8782000D01*
X9420800Y8769300D01*
X9435300Y8762900D01*
X9473900D01*
G01X9360500Y8837000D02*
X9338000Y8710000D01*
X9312300Y8837000D01*
X9286500Y8710000D01*
X9264000Y8837000D01*
G01X9214900Y8710000D02*
Y8837000D01*
X9174700D01*
X9161800Y8830600D01*
X9153800Y8822200D01*
X9150600Y8805200D01*
X9153800Y8788300D01*
X9163400Y8777700D01*
X9174700Y8771400D01*
X9214900D01*
G01X9174700D02*
X9150600Y8710000D01*
G01X9467100Y9110000D02*
Y9237000D01*
X9435000D01*
X9422100Y9230600D01*
X9412400Y9222200D01*
X9404400Y9209500D01*
X9398000Y9194700D01*
X9396400Y9173500D01*
X9398000Y9152300D01*
X9404400Y9137500D01*
X9412400Y9124800D01*
X9422100Y9116300D01*
X9435000Y9110000D01*
X9467100D01*
G01X9321600Y9237000D02*
X9283000D01*
G01X9302300D02*
Y9110000D01*
G01X9321600D02*
X9283000D01*
G01X9221000Y9067700D02*
X9124500D01*
G01X9078600Y9135400D02*
X9069000Y9120600D01*
X9056100Y9112100D01*
X9041600Y9110000D01*
X9028800Y9112100D01*
X9015900Y9122700D01*
X9007900Y9135400D01*
X9006300Y9148100D01*
X9009500Y9162900D01*
X9020700Y9173500D01*
X9032000Y9177700D01*
X9046500D01*
G01X9032000D02*
X9022300Y9184100D01*
X9014300Y9194700D01*
X9011100Y9207400D01*
X9014300Y9220100D01*
X9022300Y9230600D01*
X9036800Y9237000D01*
X9051300Y9234900D01*
X9065800Y9226400D01*
G01X9912000Y2690000D02*
X9871800Y2817000D01*
X9831500Y2690000D01*
G01X9846000Y2734400D02*
X9897500D01*
G01X9761600Y2817000D02*
X9723000D01*
G01X9742300D02*
Y2690000D01*
G01X9761600D02*
X9723000D01*
G01X9661000Y2647700D02*
X9564500D01*
G01X9483300Y2817000D02*
X9496100Y2812800D01*
X9505800Y2802200D01*
X9512200Y2789500D01*
X9517000Y2772500D01*
X9518600Y2753500D01*
X9517000Y2734400D01*
X9512200Y2717500D01*
X9505800Y2704800D01*
X9496100Y2694200D01*
X9483300Y2690000D01*
X9470400Y2694200D01*
X9460700Y2704800D01*
X9454300Y2717500D01*
X9449500Y2734400D01*
X9447900Y2753500D01*
X9449500Y2772500D01*
X9454300Y2789500D01*
X9460700Y2802200D01*
X9470400Y2812800D01*
X9483300Y2817000D01*
G01X9550000Y3543900D02*
X9423000D01*
Y3505300D01*
X9429400Y3492400D01*
X9444200Y3482800D01*
X9461100Y3479600D01*
X9478000Y3482800D01*
X9490700Y3490800D01*
X9497100Y3505300D01*
Y3543900D01*
G01X9423000Y3430500D02*
X9550000Y3408000D01*
X9423000Y3382300D01*
X9550000Y3356500D01*
X9423000Y3334000D01*
G01X9550000Y3284900D02*
X9423000D01*
Y3244700D01*
X9429400Y3231800D01*
X9437800Y3223800D01*
X9454800Y3220600D01*
X9471700Y3223800D01*
X9482300Y3233400D01*
X9488600Y3244700D01*
Y3284900D01*
G01Y3244700D02*
X9550000Y3220600D01*
G01Y4363900D02*
X9423000D01*
Y4325300D01*
X9429400Y4312400D01*
X9444200Y4302800D01*
X9461100Y4299600D01*
X9478000Y4302800D01*
X9490700Y4310800D01*
X9497100Y4325300D01*
Y4363900D01*
G01X9423000Y4250500D02*
X9550000Y4228000D01*
X9423000Y4202300D01*
X9550000Y4176500D01*
X9423000Y4154000D01*
G01X9550000Y4104900D02*
X9423000D01*
Y4064700D01*
X9429400Y4051800D01*
X9437800Y4043800D01*
X9454800Y4040600D01*
X9471700Y4043800D01*
X9482300Y4053400D01*
X9488600Y4064700D01*
Y4104900D01*
G01Y4064700D02*
X9550000Y4040600D01*
G01X9540000Y5143900D02*
X9413000D01*
Y5105300D01*
X9419400Y5092400D01*
X9434200Y5082800D01*
X9451100Y5079600D01*
X9468000Y5082800D01*
X9480700Y5090800D01*
X9487100Y5105300D01*
Y5143900D01*
G01X9413000Y5030500D02*
X9540000Y5008000D01*
X9413000Y4982300D01*
X9540000Y4956500D01*
X9413000Y4934000D01*
G01X9540000Y4884900D02*
X9413000D01*
Y4844700D01*
X9419400Y4831800D01*
X9427800Y4823800D01*
X9444800Y4820600D01*
X9461700Y4823800D01*
X9472300Y4833400D01*
X9478600Y4844700D01*
Y4884900D01*
G01Y4844700D02*
X9540000Y4820600D01*
G01X9833900Y5840000D02*
Y5967000D01*
X9795300D01*
X9782400Y5960600D01*
X9772800Y5945800D01*
X9769600Y5928900D01*
X9772800Y5912000D01*
X9780800Y5899300D01*
X9795300Y5892900D01*
X9833900D01*
G01X9720500Y5967000D02*
X9698000Y5840000D01*
X9672300Y5967000D01*
X9646500Y5840000D01*
X9624000Y5967000D01*
G01X9574900Y5840000D02*
Y5967000D01*
X9534700D01*
X9521800Y5960600D01*
X9513800Y5952200D01*
X9510600Y5935200D01*
X9513800Y5918300D01*
X9523400Y5907700D01*
X9534700Y5901400D01*
X9574900D01*
G01X9534700D02*
X9510600Y5840000D01*
M02*
