G04 ================== begin FILE IDENTIFICATION RECORD ==================*
G04 Layout Name:  G:/Work/io/design/pcb/io_4di_4aic_dbdoctor_2.brd*
G04 Film Name:    SILKSCREEN_TOP*
G04 File Format:  Gerber RS274X*
G04 File Origin:  Cadence Allegro 17.2-S007*
G04 Origin Date:  Tue Sep 11 21:02:19 2018*
G04 *
G04 Layer:  MANUFACTURING/AUTOSILK_TOP*
G04 Layer:  BOARD GEOMETRY/SILKSCREEN_TOP*
G04 Layer:  BOARD GEOMETRY/OUTLINE*
G04 *
G04 Offset:    (0.000 0.000)*
G04 Mirror:    No*
G04 Mode:      Positive*
G04 Rotation:  0*
G04 FullContactRelief:  No*
G04 UndefLineWidth:     0.200*
G04 ================== end FILE IDENTIFICATION RECORD ====================*
%FSLAX25Y25*MOMM*%
%IR0*IPPOS*OFA0.00000B0.00000*MIA0B0*SFA1.00000B1.00000*%
%ADD10C,.2*%
%ADD11C,.3*%
G75*
%LPD*%
G75*
G36*
G01X3230600Y7230000D02*
G03I-80600J0D01*
G37*
G54D10*
G01X230000Y1470000D02*
X1670000D01*
X1720000Y1520000D01*
Y3190000D01*
X1670000Y3240000D01*
X230000D01*
G01X220000Y3420000D02*
X1660000D01*
X1710000Y3470000D01*
Y5140000D01*
X1660000Y5190000D01*
X220000D01*
G01X280000Y5460000D02*
Y5620000D01*
G01X310000Y5440000D02*
Y5640000D01*
X640000D01*
Y5440000D01*
X310000D01*
G01X260000Y7440000D02*
X540000D01*
Y6780000D01*
X260000D01*
Y7440000D01*
G01X490000Y6050000D02*
Y6320000D01*
X570000D01*
Y6380000D01*
X1040000D01*
Y6320000D01*
X1120000D01*
Y6040000D01*
X1040000D01*
Y5980000D01*
X570000D01*
Y6040000D01*
X500000D01*
X490000Y6050000D01*
G01X450000Y6060000D02*
Y6300000D01*
G01X640000Y7030000D02*
Y6800000D01*
G01X520000Y7540000D02*
X750000D01*
G01X630000Y7670000D02*
Y7410000D01*
G01X880000Y5350000D02*
X720000D01*
G01X900000Y5380000D02*
X700000D01*
Y5710000D01*
X900000D01*
Y5380000D01*
G01X850000Y6270000D02*
Y6090000D01*
X760000Y6180000D01*
X850000Y6270000D01*
G01X750000Y6090000D02*
Y6270000D01*
G01X1110000Y6760000D02*
X870000D01*
G01X1120000Y6800000D02*
X850000D01*
Y6880000D01*
X790000D01*
Y7350000D01*
X850000D01*
Y7430000D01*
X1130000D01*
Y7350000D01*
X1190000D01*
Y6880000D01*
X1130000D01*
Y6810000D01*
X1120000Y6800000D01*
G01X1080000Y7060000D02*
X900000D01*
G01Y7160000D02*
X1080000D01*
X990000Y7070000D01*
X900000Y7160000D01*
G01X1100000Y7850000D02*
X2250000D01*
Y8550000D01*
X1100000D01*
Y7850000D01*
G01X1440000Y6520000D02*
X1660000D01*
Y6110000D01*
X1440000D01*
Y6520000D01*
G01X1650000Y6690000D02*
X1450000D01*
G01X1700000Y6720000D02*
X1400000D01*
Y7200000D01*
X1700000D01*
Y6720000D01*
G01X1450000Y6560000D02*
X1650000D01*
G01X1620000Y7630000D02*
Y7430000D01*
X1290000D01*
Y7630000D01*
X1620000D01*
G01X1650000Y7610000D02*
Y7450000D01*
G01X1850000Y6520000D02*
X2070000D01*
Y6110000D01*
X1850000D01*
Y6520000D01*
G01X1860000Y6560000D02*
X2060000D01*
G01X2130000Y7630000D02*
Y7430000D01*
X1800000D01*
Y7630000D01*
X2130000D01*
G01X2160000Y7610000D02*
Y7450000D01*
G01X2370000Y5730000D02*
Y5890000D01*
G01X2400000Y5710000D02*
Y5910000D01*
X2730000D01*
Y5710000D01*
X2400000D01*
G01X2370000Y5960000D02*
Y6120000D01*
G01X2400000Y5940000D02*
Y6140000D01*
X2730000D01*
Y5940000D01*
X2400000D01*
G01X2730000Y6370000D02*
Y6170000D01*
X2400000D01*
Y6370000D01*
X2730000D01*
G01X2720000Y6740000D02*
Y6540000D01*
X2390000D01*
Y6740000D01*
X2720000D01*
G01Y6940000D02*
Y6740000D01*
X2390000D01*
Y6940000D01*
X2720000D01*
G01X2760000Y6350000D02*
Y6190000D01*
G01X2750000Y6720000D02*
Y6560000D01*
G01Y6920000D02*
Y6760000D01*
G01X2650000Y7870000D02*
X4180000D01*
Y8130000D01*
X2640000D01*
Y7870000D01*
X2650000D01*
G01X3210000Y7410000D02*
X3050000D01*
G01X3230000Y7440000D02*
X3030000D01*
Y7770000D01*
X3230000D01*
Y7440000D01*
G01X3470000Y3160000D02*
Y2960000D01*
X3140000D01*
Y3160000D01*
X3470000D01*
G01X3110000Y3230000D02*
Y3390000D01*
G01X3140000Y3210000D02*
Y3410000D01*
X3470000D01*
Y3210000D01*
X3140000D01*
G01X3470000Y3660000D02*
Y3460000D01*
X3140000D01*
Y3660000D01*
X3470000D01*
G01X3280000Y4640000D02*
Y4800000D01*
G01X3310000Y4620000D02*
Y4820000D01*
X3640000D01*
Y4620000D01*
X3310000D01*
G01X3280000Y4440000D02*
Y4600000D01*
G01X3310000Y4420000D02*
Y4620000D01*
X3640000D01*
Y4420000D01*
X3310000D01*
G01X3345000Y7140000D02*
X3245000Y7040000D01*
Y5780000D01*
X4605000D01*
Y7140000D01*
X3345000D01*
G01X3330000Y7490000D02*
Y7650000D01*
G01X3500000Y3140000D02*
Y2980000D01*
G01Y3640000D02*
Y3480000D01*
G01X3360000Y7470000D02*
Y7670000D01*
X3690000D01*
Y7470000D01*
X3360000D01*
G01X4010000Y2150000D02*
X3850000D01*
G01X4030000Y2180000D02*
X3830000D01*
Y2510000D01*
X4030000D01*
Y2180000D01*
G01X3780000Y3860000D02*
Y4060000D01*
X4110000D01*
Y3860000D01*
X3780000D01*
G01X3750000Y3880000D02*
Y4040000D01*
G01X4555000Y2490000D02*
X4515000Y2530000D01*
X4095000D01*
Y2140000D01*
X4555000D01*
Y2490000D01*
G01X4015000Y3350000D02*
X3935000D01*
G01X4330000Y3605000D02*
X4280000Y3555000D01*
Y3095000D01*
X4330000Y3045000D01*
X4770000D01*
X4820000Y3095000D01*
Y3545000D01*
X4760000Y3605000D01*
X4330000D01*
G01X4450000Y4290000D02*
X4270000D01*
Y4590000D01*
X4450000D01*
Y4290000D01*
G01X4440000Y4250000D02*
X4280000D01*
G01X4300000Y5400000D02*
X4500000D01*
Y5070000D01*
X4300000D01*
Y5400000D01*
G01X4320000Y5430000D02*
X4480000D01*
G01X4560000Y7480000D02*
X4400000D01*
G01X4580000Y7510000D02*
X4380000D01*
Y7840000D01*
X4580000D01*
Y7510000D01*
G01X4630000Y2490000D02*
X4830000D01*
Y2160000D01*
X4630000D01*
Y2490000D01*
G01X4605000Y2500000D02*
X4535000Y2570000D01*
G01X4650000Y2520000D02*
X4810000D01*
G01X4525000Y2785000D02*
Y2690000D01*
G01X4575000Y3870000D02*
Y3950000D01*
G01X4690000Y4240000D02*
X4530000D01*
G01X4710000Y4270000D02*
X4510000D01*
Y4600000D01*
X4710000D01*
Y4270000D01*
G01X4680000Y5040000D02*
X4520000D01*
G01X4700000Y5070000D02*
X4500000D01*
Y5400000D01*
X4700000D01*
Y5070000D01*
G01X4720000Y5380000D02*
Y5540000D01*
G01X4750000Y5360000D02*
Y5560000D01*
X5080000D01*
Y5360000D01*
X4750000D01*
G01X4820000Y5610000D02*
Y5770000D01*
G01X4850000Y5590000D02*
Y5790000D01*
X5180000D01*
Y5590000D01*
X4850000D01*
G01X4820000Y5830000D02*
Y5990000D01*
G01X4850000Y5810000D02*
Y6010000D01*
X5180000D01*
Y5810000D01*
X4850000D01*
G01X4930000Y7070000D02*
Y7270000D01*
X5260000D01*
Y7070000D01*
X4930000D01*
G01X5260000Y7060000D02*
Y6860000D01*
X4930000D01*
Y7060000D01*
X5260000D01*
G01X4900000Y7090000D02*
Y7250000D01*
G01X5310000Y7570000D02*
X5240000Y7500000D01*
X4850000D01*
Y8080000D01*
X5310000D01*
Y7570000D01*
G01X5520000Y3080000D02*
Y2880000D01*
X5190000D01*
Y3080000D01*
X5520000D01*
G01X5085000Y3300000D02*
X5200000D01*
G01X5160000Y3320000D02*
Y3480000D01*
G01X5190000Y3300000D02*
Y3500000D01*
X5520000D01*
Y3300000D01*
X5190000D01*
G01X5160000Y3120000D02*
Y3280000D01*
G01X5190000Y3100000D02*
Y3300000D01*
X5520000D01*
Y3100000D01*
X5190000D01*
G01X5160000Y3520000D02*
Y3680000D01*
G01X5190000Y3500000D02*
Y3700000D01*
X5520000D01*
Y3500000D01*
X5190000D01*
G01Y5060000D02*
Y4610000D01*
X5200000Y4600000D01*
X5650000D01*
X5680000Y4630000D01*
Y4750000D01*
X5700000Y4770000D01*
X6020000D01*
X6060000Y4810000D01*
Y5520000D01*
X6010000Y5570000D01*
X5650000D01*
X5590000Y5510000D01*
Y5130000D01*
X5520000Y5060000D01*
X5190000D01*
G01X5180000Y5590000D02*
X5510000D01*
X5590000Y5510000D01*
G01X5540000Y6010000D02*
Y5810000D01*
X5210000D01*
Y6010000D01*
X5540000D01*
G01Y6230000D02*
Y6030000D01*
X5210000D01*
Y6230000D01*
X5540000D01*
G01Y6450000D02*
Y6250000D01*
X5210000D01*
Y6450000D01*
X5540000D01*
G01Y6670000D02*
Y6470000D01*
X5210000D01*
Y6670000D01*
X5540000D01*
G01X5290000Y7040000D02*
Y6880000D01*
G01X5600000Y1320000D02*
X5630000Y1290000D01*
X6330000D01*
Y1510000D01*
X5600000D01*
Y1320000D01*
G01X5550000Y3060000D02*
Y2900000D01*
G01X5510000D02*
Y3060000D01*
G01X5540000Y2880000D02*
Y3080000D01*
X5870000D01*
Y2880000D01*
X5540000D01*
G01X5570000Y5990000D02*
Y5830000D01*
G01Y6210000D02*
Y6050000D01*
G01Y6430000D02*
Y6270000D01*
G01Y6650000D02*
Y6490000D01*
G01X6580000Y1900000D02*
X6550000Y1930000D01*
X5850000D01*
Y1710000D01*
X6580000D01*
Y1900000D01*
G01X6100000Y3110000D02*
X5940000D01*
G01X6120000Y3140000D02*
X5920000D01*
Y3470000D01*
X6120000D01*
Y3140000D01*
G01X5930000Y3560000D02*
Y3720000D01*
G01X5960000Y3540000D02*
Y3740000D01*
X6290000D01*
Y3540000D01*
X5960000D01*
G01X6410000Y5840000D02*
X6330000Y5760000D01*
X5980000D01*
Y6840000D01*
X6410000D01*
Y5840000D01*
G01X5850000Y7970000D02*
X5800000Y7920000D01*
Y7230000D01*
X6290000D01*
Y7970000D01*
X5850000D01*
G01X6120000Y3470000D02*
X6320000D01*
Y3140000D01*
X6120000D01*
Y3470000D01*
G01X6140000Y3500000D02*
X6300000D01*
G01X6570000Y3110000D02*
X6410000D01*
G01X6590000Y3140000D02*
X6390000D01*
Y3470000D01*
X6590000D01*
Y3140000D01*
G01X6400000Y3560000D02*
Y3720000D01*
G01X6430000Y3540000D02*
Y3740000D01*
X6760000D01*
Y3540000D01*
X6430000D01*
G01X6540000Y4170000D02*
X6740000D01*
Y3840000D01*
X6540000D01*
Y4170000D01*
G01X6520000Y3810000D02*
X6360000D01*
G01X6540000Y3840000D02*
X6340000D01*
Y4170000D01*
X6540000D01*
Y3840000D01*
G01X6350000Y4260000D02*
Y4420000D01*
G01X6380000Y4240000D02*
Y4440000D01*
X6710000D01*
Y4240000D01*
X6380000D01*
G01X6540000Y4850000D02*
X6740000D01*
Y4520000D01*
X6540000D01*
Y4850000D01*
G01X6520000Y4490000D02*
X6360000D01*
G01X6540000Y4520000D02*
X6340000D01*
Y4850000D01*
X6540000D01*
Y4520000D01*
G01X6350000Y4940000D02*
Y5100000D01*
G01X6380000Y4920000D02*
Y5120000D01*
X6710000D01*
Y4920000D01*
X6380000D01*
G01X6600000Y7530000D02*
X6440000D01*
G01X6620000Y7560000D02*
X6420000D01*
Y7890000D01*
X6620000D01*
Y7560000D01*
G01X6590000Y3470000D02*
X6790000D01*
Y3140000D01*
X6590000D01*
Y3470000D01*
G01X6610000Y3500000D02*
X6770000D01*
G01X6560000Y4200000D02*
X6720000D01*
G01X6560000Y4880000D02*
X6720000D01*
G01X6930000Y8520000D02*
X7150000D01*
Y8110000D01*
X6930000D01*
Y8520000D01*
G01X6940000Y8560000D02*
X7140000D01*
G01X8140000Y1490000D02*
Y4440000D01*
X7860000D01*
Y1490000D01*
X8140000D01*
G01Y4760000D02*
Y7710000D01*
X7860000D01*
Y4760000D01*
X8140000D01*
G01X80000Y0D02*
X8620000D01*
G03X8700000Y80000I0J80000D01*
G01Y9120000D01*
G03X8620000Y9200000I-80000J0D01*
G01X80000D01*
G03X0Y9120000I0J-80000D01*
G01Y80000D01*
G03X80000Y0I80000J0D01*
G01X196100Y5710000D02*
Y5837000D01*
X236300D01*
X249200Y5830600D01*
X257200Y5822200D01*
X260400Y5805200D01*
X257200Y5788300D01*
X247600Y5777700D01*
X236300Y5771400D01*
X196100D01*
G01X236300D02*
X260400Y5710000D01*
G01X357700D02*
Y5837000D01*
X338400Y5811600D01*
G01Y5710000D02*
X377000D01*
G01X484000D02*
X487200Y5737500D01*
X492100Y5760800D01*
X498500Y5782000D01*
X506600Y5805200D01*
X519400Y5837000D01*
X455100D01*
G01X302900Y6380000D02*
Y6507000D01*
X335000D01*
X347900Y6500600D01*
X357600Y6492200D01*
X365600Y6479500D01*
X372000Y6464700D01*
X373600Y6443500D01*
X372000Y6422300D01*
X365600Y6407500D01*
X357600Y6394800D01*
X347900Y6386300D01*
X335000Y6380000D01*
X302900D01*
G01X467700D02*
X479000Y6382100D01*
X491900Y6388500D01*
X499900Y6399000D01*
X503100Y6413900D01*
X499900Y6428700D01*
X490300Y6441400D01*
X475800Y6447700D01*
X459700D01*
X450100Y6452000D01*
X442000Y6462500D01*
X438800Y6477400D01*
X443600Y6492200D01*
X454900Y6502800D01*
X467700Y6507000D01*
X480600Y6502800D01*
X491900Y6492200D01*
X496700Y6477400D01*
X493500Y6462500D01*
X485400Y6452000D01*
X475800Y6447700D01*
X459700D01*
X445200Y6441400D01*
X435600Y6428700D01*
X432400Y6413900D01*
X435600Y6399000D01*
X443600Y6388500D01*
X456500Y6382100D01*
X467700Y6380000D01*
G01X286100Y7615400D02*
X294100Y7602700D01*
X303800Y7594200D01*
X315000Y7590000D01*
X327900Y7594200D01*
X337600Y7602700D01*
X347200Y7615400D01*
X350400Y7632300D01*
Y7717000D01*
G01X420400Y7604800D02*
X431700Y7594200D01*
X444500Y7590000D01*
X457400Y7594200D01*
X468700Y7606900D01*
X476700Y7626000D01*
X479900Y7645000D01*
Y7668300D01*
X476700Y7687400D01*
X468700Y7704300D01*
X459000Y7712800D01*
X447700Y7717000D01*
X434900Y7712800D01*
X425200Y7704300D01*
X418800Y7691600D01*
X415600Y7674700D01*
X418800Y7659900D01*
X426800Y7645000D01*
X436500Y7636600D01*
X447700Y7634400D01*
X460600Y7638700D01*
X470300Y7649300D01*
X479900Y7668300D01*
G01X912900Y7520000D02*
Y7647000D01*
X945000D01*
X957900Y7640600D01*
X967600Y7632200D01*
X975600Y7619500D01*
X982000Y7604700D01*
X983600Y7583500D01*
X982000Y7562300D01*
X975600Y7547500D01*
X967600Y7534800D01*
X957900Y7526300D01*
X945000Y7520000D01*
X912900D01*
G01X1074500D02*
X1077700Y7547500D01*
X1082600Y7570800D01*
X1089000Y7592000D01*
X1097100Y7615200D01*
X1109900Y7647000D01*
X1045600D01*
G01X712900Y8377000D02*
Y8286000D01*
X719300Y8266900D01*
X732200Y8254200D01*
X748200Y8250000D01*
X764300Y8254200D01*
X777200Y8266900D01*
X783600Y8286000D01*
Y8377000D01*
G01X897100Y8250000D02*
Y8377000D01*
X837500Y8286000D01*
X918000D01*
G01X976100Y5470000D02*
Y5597000D01*
X1016300D01*
X1029200Y5590600D01*
X1037200Y5582200D01*
X1040400Y5565200D01*
X1037200Y5548300D01*
X1027600Y5537700D01*
X1016300Y5531400D01*
X976100D01*
G01X1016300D02*
X1040400Y5470000D01*
G01X1137700D02*
Y5597000D01*
X1118400Y5571600D01*
G01Y5470000D02*
X1157000D01*
G01X1236700Y5522900D02*
X1247900Y5537700D01*
X1257600Y5546200D01*
X1270500Y5550400D01*
X1281700Y5546200D01*
X1289800Y5537700D01*
X1296200Y5525000D01*
X1297800Y5510200D01*
X1296200Y5497500D01*
X1289800Y5484800D01*
X1280100Y5474200D01*
X1268900Y5470000D01*
X1256000Y5474200D01*
X1244700Y5486900D01*
X1238300Y5506000D01*
X1236700Y5527100D01*
X1239900Y5554700D01*
X1244700Y5569500D01*
X1252800Y5584300D01*
X1264000Y5594900D01*
X1275300Y5597000D01*
X1286600Y5592800D01*
X1294600Y5582200D01*
G01X1417700Y5870000D02*
Y5997000D01*
X1478800D01*
G01X1456300Y5935600D02*
X1417700D01*
G01X1547200Y5975800D02*
X1556800Y5988500D01*
X1568100Y5994900D01*
X1581000Y5997000D01*
X1597100Y5992800D01*
X1608300Y5982200D01*
X1611500Y5969500D01*
X1609900Y5956800D01*
X1603500Y5946200D01*
X1571300Y5925000D01*
X1556800Y5910200D01*
X1547200Y5889000D01*
X1544000Y5870000D01*
X1611500D01*
G01X1453600Y7366400D02*
X1444000Y7372800D01*
X1432700Y7377000D01*
X1419900D01*
X1405400Y7370600D01*
X1394100Y7360100D01*
X1386100Y7347400D01*
X1379600Y7326200D01*
X1378000Y7307100D01*
X1381300Y7288100D01*
X1386100Y7275400D01*
X1395700Y7262700D01*
X1407000Y7254200D01*
X1418200Y7250000D01*
X1429500D01*
X1440800Y7254200D01*
X1450400Y7260600D01*
X1458500Y7269000D01*
G01X1567100Y7250000D02*
Y7377000D01*
X1507500Y7286000D01*
X1588000D01*
G01X1677200Y7377000D02*
X1664400Y7372800D01*
X1654700Y7362200D01*
X1648300Y7349500D01*
X1643500Y7332500D01*
X1641900Y7313500D01*
X1643500Y7294400D01*
X1648300Y7277500D01*
X1654700Y7264800D01*
X1664400Y7254200D01*
X1677200Y7250000D01*
X1690100Y7254200D01*
X1699800Y7264800D01*
X1706200Y7277500D01*
X1711000Y7294400D01*
X1712600Y7313500D01*
X1711000Y7332500D01*
X1706200Y7349500D01*
X1699800Y7362200D01*
X1690100Y7372800D01*
X1677200Y7377000D01*
G01X1956100Y2095400D02*
X1964100Y2082700D01*
X1973800Y2074200D01*
X1985000Y2070000D01*
X1997900Y2074200D01*
X2007600Y2082700D01*
X2017200Y2095400D01*
X2020400Y2112300D01*
Y2197000D01*
G01X2087200Y2175800D02*
X2096800Y2188500D01*
X2108100Y2194900D01*
X2121000Y2197000D01*
X2137100Y2192800D01*
X2148300Y2182200D01*
X2151500Y2169500D01*
X2149900Y2156800D01*
X2143500Y2146200D01*
X2111300Y2125000D01*
X2096800Y2110200D01*
X2087200Y2089000D01*
X2084000Y2070000D01*
X2151500D01*
G01X1956100Y4225400D02*
X1964100Y4212700D01*
X1973800Y4204200D01*
X1985000Y4200000D01*
X1997900Y4204200D01*
X2007600Y4212700D01*
X2017200Y4225400D01*
X2020400Y4242300D01*
Y4327000D01*
G01X2117700Y4200000D02*
Y4327000D01*
X2098400Y4301600D01*
G01Y4200000D02*
X2137000D01*
G01X1833600Y6016400D02*
X1824000Y6022800D01*
X1812700Y6027000D01*
X1799900D01*
X1785400Y6020600D01*
X1774100Y6010100D01*
X1766100Y5997400D01*
X1759600Y5976200D01*
X1758000Y5957100D01*
X1761300Y5938100D01*
X1766100Y5925400D01*
X1775700Y5912700D01*
X1787000Y5904200D01*
X1798200Y5900000D01*
X1809500D01*
X1820800Y5904200D01*
X1830400Y5910600D01*
X1838500Y5919000D01*
G01X1947100Y5900000D02*
Y6027000D01*
X1887500Y5936000D01*
X1968000D01*
G01X2057200Y5900000D02*
Y6027000D01*
X2037900Y6001600D01*
G01Y5900000D02*
X2076500D01*
G01X1806100Y7107000D02*
Y6980000D01*
X1870400D01*
G01X1932400Y7005400D02*
X1942000Y6990600D01*
X1954900Y6982100D01*
X1969400Y6980000D01*
X1982200Y6982100D01*
X1995100Y6992700D01*
X2003100Y7005400D01*
X2004700Y7018100D01*
X2001500Y7032900D01*
X1990300Y7043500D01*
X1979000Y7047700D01*
X1964500D01*
G01X1979000D02*
X1988700Y7054100D01*
X1996700Y7064700D01*
X1999900Y7077400D01*
X1996700Y7090100D01*
X1988700Y7100600D01*
X1974200Y7107000D01*
X1959700Y7104900D01*
X1945200Y7096400D01*
G01X1943600Y7356400D02*
X1934000Y7362800D01*
X1922700Y7367000D01*
X1909900D01*
X1895400Y7360600D01*
X1884100Y7350100D01*
X1876100Y7337400D01*
X1869600Y7316200D01*
X1868000Y7297100D01*
X1871300Y7278100D01*
X1876100Y7265400D01*
X1885700Y7252700D01*
X1897000Y7244200D01*
X1908200Y7240000D01*
X1919500D01*
X1930800Y7244200D01*
X1940400Y7250600D01*
X1948500Y7259000D01*
G01X2057100Y7240000D02*
Y7367000D01*
X1997500Y7276000D01*
X2078000D01*
G01X2131900Y7265400D02*
X2141500Y7250600D01*
X2154400Y7242100D01*
X2168900Y7240000D01*
X2181700Y7242100D01*
X2194600Y7252700D01*
X2202600Y7265400D01*
X2204200Y7278100D01*
X2201000Y7292900D01*
X2189800Y7303500D01*
X2178500Y7307700D01*
X2164000D01*
G01X2178500D02*
X2188200Y7314100D01*
X2196200Y7324700D01*
X2199400Y7337400D01*
X2196200Y7350100D01*
X2188200Y7360600D01*
X2173700Y7367000D01*
X2159200Y7364900D01*
X2144700Y7356400D01*
G01X2173600Y5943600D02*
X2167200Y5934000D01*
X2163000Y5922700D01*
Y5909900D01*
X2169400Y5895400D01*
X2179900Y5884100D01*
X2192600Y5876100D01*
X2213800Y5869600D01*
X2232900Y5868000D01*
X2251900Y5871300D01*
X2264600Y5876100D01*
X2277300Y5885700D01*
X2285800Y5897000D01*
X2290000Y5908200D01*
Y5919500D01*
X2285800Y5930800D01*
X2279400Y5940400D01*
X2271000Y5948500D01*
G01X2264600Y6002400D02*
X2279400Y6012000D01*
X2287900Y6024900D01*
X2290000Y6039400D01*
X2287900Y6052200D01*
X2277300Y6065100D01*
X2264600Y6073100D01*
X2251900Y6074700D01*
X2237100Y6071500D01*
X2226500Y6060300D01*
X2222300Y6049000D01*
Y6034500D01*
G01Y6049000D02*
X2215900Y6058700D01*
X2205300Y6066700D01*
X2192600Y6069900D01*
X2179900Y6066700D01*
X2169400Y6058700D01*
X2163000Y6044200D01*
X2165100Y6029700D01*
X2173600Y6015200D01*
G01X2264600Y6131900D02*
X2279400Y6141500D01*
X2287900Y6154400D01*
X2290000Y6168900D01*
X2287900Y6181700D01*
X2277300Y6194600D01*
X2264600Y6202600D01*
X2251900Y6204200D01*
X2237100Y6201000D01*
X2226500Y6189800D01*
X2222300Y6178500D01*
Y6164000D01*
G01Y6178500D02*
X2215900Y6188200D01*
X2205300Y6196200D01*
X2192600Y6199400D01*
X2179900Y6196200D01*
X2169400Y6188200D01*
X2163000Y6173700D01*
X2165100Y6159200D01*
X2173600Y6144700D01*
G01Y6553600D02*
X2167200Y6544000D01*
X2163000Y6532700D01*
Y6519900D01*
X2169400Y6505400D01*
X2179900Y6494100D01*
X2192600Y6486100D01*
X2213800Y6479600D01*
X2232900Y6478000D01*
X2251900Y6481300D01*
X2264600Y6486100D01*
X2277300Y6495700D01*
X2285800Y6507000D01*
X2290000Y6518200D01*
Y6529500D01*
X2285800Y6540800D01*
X2279400Y6550400D01*
X2271000Y6558500D01*
G01X2184200Y6617200D02*
X2171500Y6626800D01*
X2165100Y6638100D01*
X2163000Y6651000D01*
X2167200Y6667100D01*
X2177800Y6678300D01*
X2190500Y6681500D01*
X2203200Y6679900D01*
X2213800Y6673500D01*
X2235000Y6641300D01*
X2249800Y6626800D01*
X2271000Y6617200D01*
X2290000Y6614000D01*
Y6681500D01*
G01X2184200Y6746700D02*
X2171500Y6756300D01*
X2165100Y6767600D01*
X2163000Y6780500D01*
X2167200Y6796600D01*
X2177800Y6807800D01*
X2190500Y6811000D01*
X2203200Y6809400D01*
X2213800Y6803000D01*
X2235000Y6770800D01*
X2249800Y6756300D01*
X2271000Y6746700D01*
X2290000Y6743500D01*
Y6811000D01*
G01X2473600Y5606400D02*
X2464000Y5612800D01*
X2452700Y5617000D01*
X2439900D01*
X2425400Y5610600D01*
X2414100Y5600100D01*
X2406100Y5587400D01*
X2399600Y5566200D01*
X2398000Y5547100D01*
X2401300Y5528100D01*
X2406100Y5515400D01*
X2415700Y5502700D01*
X2427000Y5494200D01*
X2438200Y5490000D01*
X2449500D01*
X2460800Y5494200D01*
X2470400Y5500600D01*
X2478500Y5509000D01*
G01X2532400Y5515400D02*
X2542000Y5500600D01*
X2554900Y5492100D01*
X2569400Y5490000D01*
X2582200Y5492100D01*
X2595100Y5502700D01*
X2603100Y5515400D01*
X2604700Y5528100D01*
X2601500Y5542900D01*
X2590300Y5553500D01*
X2579000Y5557700D01*
X2564500D01*
G01X2579000D02*
X2588700Y5564100D01*
X2596700Y5574700D01*
X2599900Y5587400D01*
X2596700Y5600100D01*
X2588700Y5610600D01*
X2574200Y5617000D01*
X2559700Y5614900D01*
X2545200Y5606400D01*
G01X2716600Y5490000D02*
Y5617000D01*
X2657000Y5526000D01*
X2737500D01*
G01X2443600Y7136400D02*
X2434000Y7142800D01*
X2422700Y7147000D01*
X2409900D01*
X2395400Y7140600D01*
X2384100Y7130100D01*
X2376100Y7117400D01*
X2369600Y7096200D01*
X2368000Y7077100D01*
X2371300Y7058100D01*
X2376100Y7045400D01*
X2385700Y7032700D01*
X2397000Y7024200D01*
X2408200Y7020000D01*
X2419500D01*
X2430800Y7024200D01*
X2440400Y7030600D01*
X2448500Y7039000D01*
G01X2507200Y7125800D02*
X2516800Y7138500D01*
X2528100Y7144900D01*
X2541000Y7147000D01*
X2557100Y7142800D01*
X2568300Y7132200D01*
X2571500Y7119500D01*
X2569900Y7106800D01*
X2563500Y7096200D01*
X2531300Y7075000D01*
X2516800Y7060200D01*
X2507200Y7039000D01*
X2504000Y7020000D01*
X2571500D01*
G01X2631900Y7039000D02*
X2641500Y7028500D01*
X2652800Y7022100D01*
X2667200Y7020000D01*
X2681700Y7024200D01*
X2693000Y7032700D01*
X2701000Y7047500D01*
X2702600Y7064400D01*
X2699400Y7081400D01*
X2691400Y7092000D01*
X2680100Y7100400D01*
X2668900Y7102500D01*
X2657600Y7100400D01*
X2643100Y7092000D01*
X2647900Y7147000D01*
X2691400D01*
G01X2496400Y7270000D02*
Y7397000D01*
X2538200Y7291200D01*
X2580100Y7397000D01*
Y7270000D01*
G01X2703100Y7386400D02*
X2693500Y7392800D01*
X2682200Y7397000D01*
X2669400D01*
X2654900Y7390600D01*
X2643600Y7380100D01*
X2635600Y7367400D01*
X2629100Y7346200D01*
X2627500Y7327100D01*
X2630800Y7308100D01*
X2635600Y7295400D01*
X2645200Y7282700D01*
X2656500Y7274200D01*
X2667700Y7270000D01*
X2679000D01*
X2690300Y7274200D01*
X2699900Y7280600D01*
X2708000Y7289000D01*
G01X2761900Y7397000D02*
Y7306000D01*
X2768300Y7286900D01*
X2781200Y7274200D01*
X2797200Y7270000D01*
X2813300Y7274200D01*
X2826200Y7286900D01*
X2832600Y7306000D01*
Y7397000D01*
G01X2926700Y7270000D02*
Y7397000D01*
X2907400Y7371600D01*
G01Y7270000D02*
X2946000D01*
G01X2366100Y8065400D02*
X2374100Y8052700D01*
X2383800Y8044200D01*
X2395000Y8040000D01*
X2407900Y8044200D01*
X2417600Y8052700D01*
X2427200Y8065400D01*
X2430400Y8082300D01*
Y8167000D01*
G01X2524500Y8040000D02*
X2527700Y8067500D01*
X2532600Y8090800D01*
X2539000Y8112000D01*
X2547100Y8135200D01*
X2559900Y8167000D01*
X2495600D01*
G01X2946400Y6386400D02*
X2952800Y6396000D01*
X2957000Y6407300D01*
Y6420100D01*
X2950600Y6434600D01*
X2940100Y6445900D01*
X2927400Y6453900D01*
X2906200Y6460400D01*
X2887100Y6462000D01*
X2868100Y6458700D01*
X2855400Y6453900D01*
X2842700Y6444300D01*
X2834200Y6433000D01*
X2830000Y6421800D01*
Y6410500D01*
X2834200Y6399200D01*
X2840600Y6389600D01*
X2849000Y6381500D01*
G01X2935800Y6322800D02*
X2948500Y6313200D01*
X2954900Y6301900D01*
X2957000Y6289000D01*
X2952800Y6272900D01*
X2942200Y6261700D01*
X2929500Y6258500D01*
X2916800Y6260100D01*
X2906200Y6266500D01*
X2885000Y6298700D01*
X2870200Y6313200D01*
X2849000Y6322800D01*
X2830000Y6326000D01*
Y6258500D01*
G01X2882900Y6193300D02*
X2897700Y6182100D01*
X2906200Y6172400D01*
X2910400Y6159500D01*
X2906200Y6148300D01*
X2897700Y6140200D01*
X2885000Y6133800D01*
X2870200Y6132200D01*
X2857500Y6133800D01*
X2844800Y6140200D01*
X2834200Y6149900D01*
X2830000Y6161100D01*
X2834200Y6174000D01*
X2846900Y6185300D01*
X2866000Y6191700D01*
X2887100Y6193300D01*
X2914700Y6190100D01*
X2929500Y6185300D01*
X2944300Y6177200D01*
X2954900Y6166000D01*
X2957000Y6154700D01*
X2952800Y6143400D01*
X2942200Y6135400D01*
G01X2663600Y7646400D02*
X2654000Y7652800D01*
X2642700Y7657000D01*
X2629900D01*
X2615400Y7650600D01*
X2604100Y7640100D01*
X2596100Y7627400D01*
X2589600Y7606200D01*
X2588000Y7587100D01*
X2591300Y7568100D01*
X2596100Y7555400D01*
X2605700Y7542700D01*
X2617000Y7534200D01*
X2628200Y7530000D01*
X2639500D01*
X2650800Y7534200D01*
X2660400Y7540600D01*
X2668500Y7549000D01*
G01X2727200Y7635800D02*
X2736800Y7648500D01*
X2748100Y7654900D01*
X2761000Y7657000D01*
X2777100Y7652800D01*
X2788300Y7642200D01*
X2791500Y7629500D01*
X2789900Y7616800D01*
X2783500Y7606200D01*
X2751300Y7585000D01*
X2736800Y7570200D01*
X2727200Y7549000D01*
X2724000Y7530000D01*
X2791500D01*
G01X2887200D02*
Y7657000D01*
X2867900Y7631600D01*
G01Y7530000D02*
X2906500D01*
G01X2724200Y8217700D02*
X2711500Y8227300D01*
X2705100Y8238600D01*
X2703000Y8251500D01*
X2707200Y8267600D01*
X2717800Y8278800D01*
X2730500Y8282000D01*
X2743200Y8280400D01*
X2753800Y8274000D01*
X2775000Y8241800D01*
X2789800Y8227300D01*
X2811000Y8217700D01*
X2830000Y8214500D01*
Y8282000D01*
G01Y8397100D02*
X2703000D01*
X2794000Y8337500D01*
Y8418000D01*
G01X2703000Y8467000D02*
X2830000Y8507200D01*
X2703000Y8547500D01*
G01X2893600Y3106400D02*
X2884000Y3112800D01*
X2872700Y3117000D01*
X2859900D01*
X2845400Y3110600D01*
X2834100Y3100100D01*
X2826100Y3087400D01*
X2819600Y3066200D01*
X2818000Y3047100D01*
X2821300Y3028100D01*
X2826100Y3015400D01*
X2835700Y3002700D01*
X2847000Y2994200D01*
X2858200Y2990000D01*
X2869500D01*
X2880800Y2994200D01*
X2890400Y3000600D01*
X2898500Y3009000D01*
G01X3007100Y2990000D02*
Y3117000D01*
X2947500Y3026000D01*
X3028000D01*
G01X2826100Y3250000D02*
Y3377000D01*
X2866300D01*
X2879200Y3370600D01*
X2887200Y3362200D01*
X2890400Y3345200D01*
X2887200Y3328300D01*
X2877600Y3317700D01*
X2866300Y3311400D01*
X2826100D01*
G01X2866300D02*
X2890400Y3250000D01*
G01X2987700D02*
X2999000Y3252100D01*
X3011900Y3258500D01*
X3019900Y3269000D01*
X3023100Y3283900D01*
X3019900Y3298700D01*
X3010300Y3311400D01*
X2995800Y3317700D01*
X2979700D01*
X2970100Y3322000D01*
X2962000Y3332500D01*
X2958800Y3347400D01*
X2963600Y3362200D01*
X2974900Y3372800D01*
X2987700Y3377000D01*
X3000600Y3372800D01*
X3011900Y3362200D01*
X3016700Y3347400D01*
X3013500Y3332500D01*
X3005400Y3322000D01*
X2995800Y3317700D01*
X2979700D01*
X2965200Y3311400D01*
X2955600Y3298700D01*
X2952400Y3283900D01*
X2955600Y3269000D01*
X2963600Y3258500D01*
X2976500Y3252100D01*
X2987700Y3250000D01*
G01X2893600Y3616400D02*
X2884000Y3622800D01*
X2872700Y3627000D01*
X2859900D01*
X2845400Y3620600D01*
X2834100Y3610100D01*
X2826100Y3597400D01*
X2819600Y3576200D01*
X2818000Y3557100D01*
X2821300Y3538100D01*
X2826100Y3525400D01*
X2835700Y3512700D01*
X2847000Y3504200D01*
X2858200Y3500000D01*
X2869500D01*
X2880800Y3504200D01*
X2890400Y3510600D01*
X2898500Y3519000D01*
G01X2957200Y3552900D02*
X2968400Y3567700D01*
X2978100Y3576200D01*
X2991000Y3580400D01*
X3002200Y3576200D01*
X3010300Y3567700D01*
X3016700Y3555000D01*
X3018300Y3540200D01*
X3016700Y3527500D01*
X3010300Y3514800D01*
X3000600Y3504200D01*
X2989400Y3500000D01*
X2976500Y3504200D01*
X2965200Y3516900D01*
X2958800Y3536000D01*
X2957200Y3557100D01*
X2960400Y3584700D01*
X2965200Y3599500D01*
X2973300Y3614300D01*
X2984500Y3624900D01*
X2995800Y3627000D01*
X3007100Y3622800D01*
X3015100Y3612200D01*
G01X2896100Y4440000D02*
Y4567000D01*
X2936300D01*
X2949200Y4560600D01*
X2957200Y4552200D01*
X2960400Y4535200D01*
X2957200Y4518300D01*
X2947600Y4507700D01*
X2936300Y4501400D01*
X2896100D01*
G01X2936300D02*
X2960400Y4440000D01*
G01X3027200Y4545800D02*
X3036800Y4558500D01*
X3048100Y4564900D01*
X3061000Y4567000D01*
X3077100Y4562800D01*
X3088300Y4552200D01*
X3091500Y4539500D01*
X3089900Y4526800D01*
X3083500Y4516200D01*
X3051300Y4495000D01*
X3036800Y4480200D01*
X3027200Y4459000D01*
X3024000Y4440000D01*
X3091500D01*
G01X3187200D02*
Y4567000D01*
X3167900Y4541600D01*
G01Y4440000D02*
X3206500D01*
G01X3016500Y8267900D02*
Y8300100D01*
X3054600D01*
X3067300Y8290400D01*
X3075800Y8279200D01*
X3080000Y8263100D01*
X3075800Y8247000D01*
X3067300Y8235700D01*
X3054600Y8226100D01*
X3039800Y8219600D01*
X3022900Y8216400D01*
X3008000D01*
X2995300Y8219600D01*
X2980500Y8226100D01*
X2967800Y8235700D01*
X2959400Y8245400D01*
X2953000Y8258200D01*
Y8269500D01*
X2957200Y8282400D01*
X2965700Y8292000D01*
G01X3080000Y8350800D02*
X2953000D01*
X3080000Y8424700D01*
X2953000D01*
G01X3080000Y8481900D02*
X2953000D01*
Y8514000D01*
X2959400Y8526900D01*
X2967800Y8536600D01*
X2980500Y8544600D01*
X2995300Y8551000D01*
X3016500Y8552600D01*
X3037700Y8551000D01*
X3052500Y8544600D01*
X3065200Y8536600D01*
X3073700Y8526900D01*
X3080000Y8514000D01*
Y8481900D01*
G01X3236100Y4910000D02*
Y5037000D01*
X3276300D01*
X3289200Y5030600D01*
X3297200Y5022200D01*
X3300400Y5005200D01*
X3297200Y4988300D01*
X3287600Y4977700D01*
X3276300Y4971400D01*
X3236100D01*
G01X3276300D02*
X3300400Y4910000D01*
G01X3367200Y5015800D02*
X3376800Y5028500D01*
X3388100Y5034900D01*
X3401000Y5037000D01*
X3417100Y5032800D01*
X3428300Y5022200D01*
X3431500Y5009500D01*
X3429900Y4996800D01*
X3423500Y4986200D01*
X3391300Y4965000D01*
X3376800Y4950200D01*
X3367200Y4929000D01*
X3364000Y4910000D01*
X3431500D01*
G01X3527200Y5037000D02*
X3514400Y5032800D01*
X3504700Y5022200D01*
X3498300Y5009500D01*
X3493500Y4992500D01*
X3491900Y4973500D01*
X3493500Y4954400D01*
X3498300Y4937500D01*
X3504700Y4924800D01*
X3514400Y4914200D01*
X3527200Y4910000D01*
X3540100Y4914200D01*
X3549800Y4924800D01*
X3556200Y4937500D01*
X3561000Y4954400D01*
X3562600Y4973500D01*
X3561000Y4992500D01*
X3556200Y5009500D01*
X3549800Y5022200D01*
X3540100Y5032800D01*
X3527200Y5037000D01*
G01X3340000Y8222900D02*
X3213000D01*
Y8255000D01*
X3219400Y8267900D01*
X3227800Y8277600D01*
X3240500Y8285600D01*
X3255300Y8292000D01*
X3276500Y8293600D01*
X3297700Y8292000D01*
X3312500Y8285600D01*
X3325200Y8277600D01*
X3333700Y8267900D01*
X3340000Y8255000D01*
Y8222900D01*
G01Y8387700D02*
X3337900Y8374900D01*
X3329400Y8363600D01*
X3316700Y8354000D01*
X3301900Y8347500D01*
X3285000Y8344300D01*
X3268000D01*
X3251100Y8347500D01*
X3236300Y8354000D01*
X3223600Y8363600D01*
X3215100Y8374900D01*
X3213000Y8387700D01*
X3215100Y8400600D01*
X3223600Y8411900D01*
X3236300Y8421500D01*
X3251100Y8428000D01*
X3268000Y8431200D01*
X3285000D01*
X3301900Y8428000D01*
X3316700Y8421500D01*
X3329400Y8411900D01*
X3337900Y8400600D01*
X3340000Y8387700D01*
G01Y8517200D02*
X3213000D01*
X3238400Y8497900D01*
G01X3340000D02*
Y8536500D01*
G01X3443600Y2396400D02*
X3434000Y2402800D01*
X3422700Y2407000D01*
X3409900D01*
X3395400Y2400600D01*
X3384100Y2390100D01*
X3376100Y2377400D01*
X3369600Y2356200D01*
X3368000Y2337100D01*
X3371300Y2318100D01*
X3376100Y2305400D01*
X3385700Y2292700D01*
X3397000Y2284200D01*
X3408200Y2280000D01*
X3419500D01*
X3430800Y2284200D01*
X3440400Y2290600D01*
X3448500Y2299000D01*
G01X3537700Y2280000D02*
Y2407000D01*
X3518400Y2381600D01*
G01Y2280000D02*
X3557000D01*
G01X3631900Y2299000D02*
X3641500Y2288500D01*
X3652800Y2282100D01*
X3667200Y2280000D01*
X3681700Y2284200D01*
X3693000Y2292700D01*
X3701000Y2307500D01*
X3702600Y2324400D01*
X3699400Y2341400D01*
X3691400Y2352000D01*
X3680100Y2360400D01*
X3668900Y2362500D01*
X3657600Y2360400D01*
X3643100Y2352000D01*
X3647900Y2407000D01*
X3691400D01*
G01X3543600Y4026400D02*
X3534000Y4032800D01*
X3522700Y4037000D01*
X3509900D01*
X3495400Y4030600D01*
X3484100Y4020100D01*
X3476100Y4007400D01*
X3469600Y3986200D01*
X3468000Y3967100D01*
X3471300Y3948100D01*
X3476100Y3935400D01*
X3485700Y3922700D01*
X3497000Y3914200D01*
X3508200Y3910000D01*
X3519500D01*
X3530800Y3914200D01*
X3540400Y3920600D01*
X3548500Y3929000D01*
G01X3610400Y3924800D02*
X3621700Y3914200D01*
X3634500Y3910000D01*
X3647400Y3914200D01*
X3658700Y3926900D01*
X3666700Y3946000D01*
X3669900Y3965000D01*
Y3988300D01*
X3666700Y4007400D01*
X3658700Y4024300D01*
X3649000Y4032800D01*
X3637700Y4037000D01*
X3624900Y4032800D01*
X3615200Y4024300D01*
X3608800Y4011600D01*
X3605600Y3994700D01*
X3608800Y3979900D01*
X3616800Y3965000D01*
X3626500Y3956600D01*
X3637700Y3954400D01*
X3650600Y3958700D01*
X3660300Y3969300D01*
X3669900Y3988300D01*
G01X3590000Y8222900D02*
X3463000D01*
Y8255000D01*
X3469400Y8267900D01*
X3477800Y8277600D01*
X3490500Y8285600D01*
X3505300Y8292000D01*
X3526500Y8293600D01*
X3547700Y8292000D01*
X3562500Y8285600D01*
X3575200Y8277600D01*
X3583700Y8267900D01*
X3590000Y8255000D01*
Y8222900D01*
G01Y8387700D02*
X3587900Y8374900D01*
X3579400Y8363600D01*
X3566700Y8354000D01*
X3551900Y8347500D01*
X3535000Y8344300D01*
X3518000D01*
X3501100Y8347500D01*
X3486300Y8354000D01*
X3473600Y8363600D01*
X3465100Y8374900D01*
X3463000Y8387700D01*
X3465100Y8400600D01*
X3473600Y8411900D01*
X3486300Y8421500D01*
X3501100Y8428000D01*
X3518000Y8431200D01*
X3535000D01*
X3551900Y8428000D01*
X3566700Y8421500D01*
X3579400Y8411900D01*
X3587900Y8400600D01*
X3590000Y8387700D01*
G01X3484200Y8486700D02*
X3471500Y8496300D01*
X3465100Y8507600D01*
X3463000Y8520500D01*
X3467200Y8536600D01*
X3477800Y8547800D01*
X3490500Y8551000D01*
X3503200Y8549400D01*
X3513800Y8543000D01*
X3535000Y8510800D01*
X3549800Y8496300D01*
X3571000Y8486700D01*
X3590000Y8483500D01*
Y8551000D01*
G01X3817700Y3312900D02*
X3828900Y3327700D01*
X3838600Y3336200D01*
X3851500Y3340400D01*
X3862700Y3336200D01*
X3870800Y3327700D01*
X3877200Y3315000D01*
X3878800Y3300200D01*
X3877200Y3287500D01*
X3870800Y3274800D01*
X3861100Y3264200D01*
X3849900Y3260000D01*
X3837000Y3264200D01*
X3825700Y3276900D01*
X3819300Y3296000D01*
X3817700Y3317100D01*
X3820900Y3344700D01*
X3825700Y3359500D01*
X3833800Y3374300D01*
X3845000Y3384900D01*
X3856300Y3387000D01*
X3867600Y3382800D01*
X3875600Y3372200D01*
G01X3702900Y3717000D02*
Y3626000D01*
X3709300Y3606900D01*
X3722200Y3594200D01*
X3738200Y3590000D01*
X3754300Y3594200D01*
X3767200Y3606900D01*
X3773600Y3626000D01*
Y3717000D01*
G01X3867700Y3590000D02*
Y3717000D01*
X3848400Y3691600D01*
G01Y3590000D02*
X3887000D01*
G01X3786100Y7570000D02*
Y7697000D01*
X3826300D01*
X3839200Y7690600D01*
X3847200Y7682200D01*
X3850400Y7665200D01*
X3847200Y7648300D01*
X3837600Y7637700D01*
X3826300Y7631400D01*
X3786100D01*
G01X3826300D02*
X3850400Y7570000D01*
G01X3967100D02*
Y7697000D01*
X3907500Y7606000D01*
X3988000D01*
G01X4046700Y7675800D02*
X4056300Y7688500D01*
X4067600Y7694900D01*
X4080500Y7697000D01*
X4096600Y7692800D01*
X4107800Y7682200D01*
X4111000Y7669500D01*
X4109400Y7656800D01*
X4103000Y7646200D01*
X4070800Y7625000D01*
X4056300Y7610200D01*
X4046700Y7589000D01*
X4043500Y7570000D01*
X4111000D01*
G01X3850000Y8222900D02*
X3723000D01*
Y8255000D01*
X3729400Y8267900D01*
X3737800Y8277600D01*
X3750500Y8285600D01*
X3765300Y8292000D01*
X3786500Y8293600D01*
X3807700Y8292000D01*
X3822500Y8285600D01*
X3835200Y8277600D01*
X3843700Y8267900D01*
X3850000Y8255000D01*
Y8222900D01*
G01Y8387700D02*
X3847900Y8374900D01*
X3839400Y8363600D01*
X3826700Y8354000D01*
X3811900Y8347500D01*
X3795000Y8344300D01*
X3778000D01*
X3761100Y8347500D01*
X3746300Y8354000D01*
X3733600Y8363600D01*
X3725100Y8374900D01*
X3723000Y8387700D01*
X3725100Y8400600D01*
X3733600Y8411900D01*
X3746300Y8421500D01*
X3761100Y8428000D01*
X3778000Y8431200D01*
X3795000D01*
X3811900Y8428000D01*
X3826700Y8421500D01*
X3839400Y8411900D01*
X3847900Y8400600D01*
X3850000Y8387700D01*
G01X3824600Y8481900D02*
X3839400Y8491500D01*
X3847900Y8504400D01*
X3850000Y8518900D01*
X3847900Y8531700D01*
X3837300Y8544600D01*
X3824600Y8552600D01*
X3811900Y8554200D01*
X3797100Y8551000D01*
X3786500Y8539800D01*
X3782300Y8528500D01*
Y8514000D01*
G01Y8528500D02*
X3775900Y8538200D01*
X3765300Y8546200D01*
X3752600Y8549400D01*
X3739900Y8546200D01*
X3729400Y8538200D01*
X3723000Y8523700D01*
X3725100Y8509200D01*
X3733600Y8494700D01*
G01X4016100Y4477000D02*
Y4350000D01*
X4080400D01*
G01X4177700D02*
Y4477000D01*
X4158400Y4451600D01*
G01Y4350000D02*
X4197000D01*
G01X4126100Y4830000D02*
Y4957000D01*
X4166300D01*
X4179200Y4950600D01*
X4187200Y4942200D01*
X4190400Y4925200D01*
X4187200Y4908300D01*
X4177600Y4897700D01*
X4166300Y4891400D01*
X4126100D01*
G01X4166300D02*
X4190400Y4830000D01*
G01X4307100D02*
Y4957000D01*
X4247500Y4866000D01*
X4328000D01*
G01X4389900Y4844800D02*
X4401200Y4834200D01*
X4414000Y4830000D01*
X4426900Y4834200D01*
X4438200Y4846900D01*
X4446200Y4866000D01*
X4449400Y4885000D01*
Y4908300D01*
X4446200Y4927400D01*
X4438200Y4944300D01*
X4428500Y4952800D01*
X4417200Y4957000D01*
X4404400Y4952800D01*
X4394700Y4944300D01*
X4388300Y4931600D01*
X4385100Y4914700D01*
X4388300Y4899900D01*
X4396300Y4885000D01*
X4406000Y4876600D01*
X4417200Y4874400D01*
X4430100Y4878700D01*
X4439800Y4889300D01*
X4449400Y4908300D01*
G01X4100000Y8222900D02*
X3973000D01*
Y8255000D01*
X3979400Y8267900D01*
X3987800Y8277600D01*
X4000500Y8285600D01*
X4015300Y8292000D01*
X4036500Y8293600D01*
X4057700Y8292000D01*
X4072500Y8285600D01*
X4085200Y8277600D01*
X4093700Y8267900D01*
X4100000Y8255000D01*
Y8222900D01*
G01Y8387700D02*
X4097900Y8374900D01*
X4089400Y8363600D01*
X4076700Y8354000D01*
X4061900Y8347500D01*
X4045000Y8344300D01*
X4028000D01*
X4011100Y8347500D01*
X3996300Y8354000D01*
X3983600Y8363600D01*
X3975100Y8374900D01*
X3973000Y8387700D01*
X3975100Y8400600D01*
X3983600Y8411900D01*
X3996300Y8421500D01*
X4011100Y8428000D01*
X4028000Y8431200D01*
X4045000D01*
X4061900Y8428000D01*
X4076700Y8421500D01*
X4089400Y8411900D01*
X4097900Y8400600D01*
X4100000Y8387700D01*
G01Y8536600D02*
X3973000D01*
X4064000Y8477000D01*
Y8557500D01*
G01X4288200Y1920000D02*
Y1977100D01*
X4256100Y2047000D01*
G01X4320400D02*
X4288200Y1977100D01*
G01X4417700Y1920000D02*
Y2047000D01*
X4398400Y2021600D01*
G01Y1920000D02*
X4437000D01*
G01X4268200Y2630000D02*
Y2757000D01*
X4248900Y2731600D01*
G01Y2630000D02*
X4287500D01*
G01X4397700D02*
X4409000Y2632100D01*
X4421900Y2638500D01*
X4429900Y2649000D01*
X4433100Y2663900D01*
X4429900Y2678700D01*
X4420300Y2691400D01*
X4405800Y2697700D01*
X4389700D01*
X4380100Y2702000D01*
X4372000Y2712500D01*
X4368800Y2727400D01*
X4373600Y2742200D01*
X4384900Y2752800D01*
X4397700Y2757000D01*
X4410600Y2752800D01*
X4421900Y2742200D01*
X4426700Y2727400D01*
X4423500Y2712500D01*
X4415400Y2702000D01*
X4405800Y2697700D01*
X4389700D01*
X4375200Y2691400D01*
X4365600Y2678700D01*
X4362400Y2663900D01*
X4365600Y2649000D01*
X4373600Y2638500D01*
X4386500Y2632100D01*
X4397700Y2630000D01*
G01X4393600Y8033600D02*
X4387200Y8024000D01*
X4383000Y8012700D01*
Y7999900D01*
X4389400Y7985400D01*
X4399900Y7974100D01*
X4412600Y7966100D01*
X4433800Y7959600D01*
X4452900Y7958000D01*
X4471900Y7961300D01*
X4484600Y7966100D01*
X4497300Y7975700D01*
X4505800Y7987000D01*
X4510000Y7998200D01*
Y8009500D01*
X4505800Y8020800D01*
X4499400Y8030400D01*
X4491000Y8038500D01*
G01X4404200Y8097200D02*
X4391500Y8106800D01*
X4385100Y8118100D01*
X4383000Y8131000D01*
X4387200Y8147100D01*
X4397800Y8158300D01*
X4410500Y8161500D01*
X4423200Y8159900D01*
X4433800Y8153500D01*
X4455000Y8121300D01*
X4469800Y8106800D01*
X4491000Y8097200D01*
X4510000Y8094000D01*
Y8161500D01*
G01X4383000Y8257200D02*
X4387200Y8244400D01*
X4397800Y8234700D01*
X4410500Y8228300D01*
X4427500Y8223500D01*
X4446500Y8221900D01*
X4465600Y8223500D01*
X4482500Y8228300D01*
X4495200Y8234700D01*
X4505800Y8244400D01*
X4510000Y8257200D01*
X4505800Y8270100D01*
X4495200Y8279800D01*
X4482500Y8286200D01*
X4465600Y8291000D01*
X4446500Y8292600D01*
X4427500Y8291000D01*
X4410500Y8286200D01*
X4397800Y8279800D01*
X4387200Y8270100D01*
X4383000Y8257200D01*
G01X4527600Y3990000D02*
Y4117000D01*
X4468000Y4026000D01*
X4548500D01*
G01X4607200Y4095800D02*
X4616800Y4108500D01*
X4628100Y4114900D01*
X4641000Y4117000D01*
X4657100Y4112800D01*
X4668300Y4102200D01*
X4671500Y4089500D01*
X4669900Y4076800D01*
X4663500Y4066200D01*
X4631300Y4045000D01*
X4616800Y4030200D01*
X4607200Y4009000D01*
X4604000Y3990000D01*
X4671500D01*
G01X4633600Y4946400D02*
X4624000Y4952800D01*
X4612700Y4957000D01*
X4599900D01*
X4585400Y4950600D01*
X4574100Y4940100D01*
X4566100Y4927400D01*
X4559600Y4906200D01*
X4558000Y4887100D01*
X4561300Y4868100D01*
X4566100Y4855400D01*
X4575700Y4842700D01*
X4587000Y4834200D01*
X4598200Y4830000D01*
X4609500D01*
X4620800Y4834200D01*
X4630400Y4840600D01*
X4638500Y4849000D01*
G01X4692400Y4855400D02*
X4702000Y4840600D01*
X4714900Y4832100D01*
X4729400Y4830000D01*
X4742200Y4832100D01*
X4755100Y4842700D01*
X4763100Y4855400D01*
X4764700Y4868100D01*
X4761500Y4882900D01*
X4750300Y4893500D01*
X4739000Y4897700D01*
X4724500D01*
G01X4739000D02*
X4748700Y4904100D01*
X4756700Y4914700D01*
X4759900Y4927400D01*
X4756700Y4940100D01*
X4748700Y4950600D01*
X4734200Y4957000D01*
X4719700Y4954900D01*
X4705200Y4946400D01*
G01X4821900Y4849000D02*
X4831500Y4838500D01*
X4842800Y4832100D01*
X4857200Y4830000D01*
X4871700Y4834200D01*
X4883000Y4842700D01*
X4891000Y4857500D01*
X4892600Y4874400D01*
X4889400Y4891400D01*
X4881400Y4902000D01*
X4870100Y4910400D01*
X4858900Y4912500D01*
X4847600Y4910400D01*
X4833100Y4902000D01*
X4837900Y4957000D01*
X4881400D01*
G01X5003600Y2406400D02*
X4994000Y2412800D01*
X4982700Y2417000D01*
X4969900D01*
X4955400Y2410600D01*
X4944100Y2400100D01*
X4936100Y2387400D01*
X4929600Y2366200D01*
X4928000Y2347100D01*
X4931300Y2328100D01*
X4936100Y2315400D01*
X4945700Y2302700D01*
X4957000Y2294200D01*
X4968200Y2290000D01*
X4979500D01*
X4990800Y2294200D01*
X5000400Y2300600D01*
X5008500Y2309000D01*
G01X5097700Y2290000D02*
Y2417000D01*
X5078400Y2391600D01*
G01Y2290000D02*
X5117000D01*
G01X5196700Y2342900D02*
X5207900Y2357700D01*
X5217600Y2366200D01*
X5230500Y2370400D01*
X5241700Y2366200D01*
X5249800Y2357700D01*
X5256200Y2345000D01*
X5257800Y2330200D01*
X5256200Y2317500D01*
X5249800Y2304800D01*
X5240100Y2294200D01*
X5228900Y2290000D01*
X5216000Y2294200D01*
X5204700Y2306900D01*
X5198300Y2326000D01*
X5196700Y2347100D01*
X5199900Y2374700D01*
X5204700Y2389500D01*
X5212800Y2404300D01*
X5224000Y2414900D01*
X5235300Y2417000D01*
X5246600Y2412800D01*
X5254600Y2402200D01*
G01X4853600Y4576400D02*
X4844000Y4582800D01*
X4832700Y4587000D01*
X4819900D01*
X4805400Y4580600D01*
X4794100Y4570100D01*
X4786100Y4557400D01*
X4779600Y4536200D01*
X4778000Y4517100D01*
X4781300Y4498100D01*
X4786100Y4485400D01*
X4795700Y4472700D01*
X4807000Y4464200D01*
X4818200Y4460000D01*
X4829500D01*
X4840800Y4464200D01*
X4850400Y4470600D01*
X4858500Y4479000D01*
G01X4947700Y4460000D02*
X4959000Y4462100D01*
X4971900Y4468500D01*
X4979900Y4479000D01*
X4983100Y4493900D01*
X4979900Y4508700D01*
X4970300Y4521400D01*
X4955800Y4527700D01*
X4939700D01*
X4930100Y4532000D01*
X4922000Y4542500D01*
X4918800Y4557400D01*
X4923600Y4572200D01*
X4934900Y4582800D01*
X4947700Y4587000D01*
X4960600Y4582800D01*
X4971900Y4572200D01*
X4976700Y4557400D01*
X4973500Y4542500D01*
X4965400Y4532000D01*
X4955800Y4527700D01*
X4939700D01*
X4925200Y4521400D01*
X4915600Y4508700D01*
X4912400Y4493900D01*
X4915600Y4479000D01*
X4923600Y4468500D01*
X4936500Y4462100D01*
X4947700Y4460000D01*
G01X4963600Y5286400D02*
X4954000Y5292800D01*
X4942700Y5297000D01*
X4929900D01*
X4915400Y5290600D01*
X4904100Y5280100D01*
X4896100Y5267400D01*
X4889600Y5246200D01*
X4888000Y5227100D01*
X4891300Y5208100D01*
X4896100Y5195400D01*
X4905700Y5182700D01*
X4917000Y5174200D01*
X4928200Y5170000D01*
X4939500D01*
X4950800Y5174200D01*
X4960400Y5180600D01*
X4968500Y5189000D01*
G01X5027200Y5275800D02*
X5036800Y5288500D01*
X5048100Y5294900D01*
X5061000Y5297000D01*
X5077100Y5292800D01*
X5088300Y5282200D01*
X5091500Y5269500D01*
X5089900Y5256800D01*
X5083500Y5246200D01*
X5051300Y5225000D01*
X5036800Y5210200D01*
X5027200Y5189000D01*
X5024000Y5170000D01*
X5091500D01*
G01X5184000D02*
X5187200Y5197500D01*
X5192100Y5220800D01*
X5198500Y5242000D01*
X5206600Y5265200D01*
X5219400Y5297000D01*
X5155100D01*
G01X5146100Y2690000D02*
Y2817000D01*
X5186300D01*
X5199200Y2810600D01*
X5207200Y2802200D01*
X5210400Y2785200D01*
X5207200Y2768300D01*
X5197600Y2757700D01*
X5186300Y2751400D01*
X5146100D01*
G01X5186300D02*
X5210400Y2690000D01*
G01X5307700D02*
Y2817000D01*
X5288400Y2791600D01*
G01Y2690000D02*
X5327000D01*
G01X5401900Y2709000D02*
X5411500Y2698500D01*
X5422800Y2692100D01*
X5437200Y2690000D01*
X5451700Y2694200D01*
X5463000Y2702700D01*
X5471000Y2717500D01*
X5472600Y2734400D01*
X5469400Y2751400D01*
X5461400Y2762000D01*
X5450100Y2770400D01*
X5438900Y2772500D01*
X5427600Y2770400D01*
X5413100Y2762000D01*
X5417900Y2817000D01*
X5461400D01*
G01X4982900Y8327000D02*
Y8236000D01*
X4989300Y8216900D01*
X5002200Y8204200D01*
X5018200Y8200000D01*
X5034300Y8204200D01*
X5047200Y8216900D01*
X5053600Y8236000D01*
Y8327000D01*
G01X5112400Y8225400D02*
X5122000Y8210600D01*
X5134900Y8202100D01*
X5149400Y8200000D01*
X5162200Y8202100D01*
X5175100Y8212700D01*
X5183100Y8225400D01*
X5184700Y8238100D01*
X5181500Y8252900D01*
X5170300Y8263500D01*
X5159000Y8267700D01*
X5144500D01*
G01X5159000D02*
X5168700Y8274100D01*
X5176700Y8284700D01*
X5179900Y8297400D01*
X5176700Y8310100D01*
X5168700Y8320600D01*
X5154200Y8327000D01*
X5139700Y8324900D01*
X5125200Y8316400D01*
G01X5412900Y1075400D02*
X5422500Y1060600D01*
X5435400Y1052100D01*
X5449900Y1050000D01*
X5462700Y1052100D01*
X5475600Y1062700D01*
X5483600Y1075400D01*
X5485200Y1088100D01*
X5482000Y1102900D01*
X5470800Y1113500D01*
X5459500Y1117700D01*
X5445000D01*
G01X5459500D02*
X5469200Y1124100D01*
X5477200Y1134700D01*
X5480400Y1147400D01*
X5477200Y1160100D01*
X5469200Y1170600D01*
X5454700Y1177000D01*
X5440200Y1174900D01*
X5425700Y1166400D01*
G01X5577700Y1045800D02*
X5574500Y1047900D01*
Y1052100D01*
X5577700Y1054200D01*
X5581000Y1052100D01*
Y1047900D01*
X5577700Y1045800D01*
G01X5671900Y1075400D02*
X5681500Y1060600D01*
X5694400Y1052100D01*
X5708900Y1050000D01*
X5721700Y1052100D01*
X5734600Y1062700D01*
X5742600Y1075400D01*
X5744200Y1088100D01*
X5741000Y1102900D01*
X5729800Y1113500D01*
X5718500Y1117700D01*
X5704000D01*
G01X5718500D02*
X5728200Y1124100D01*
X5736200Y1134700D01*
X5739400Y1147400D01*
X5736200Y1160100D01*
X5728200Y1170600D01*
X5713700Y1177000D01*
X5699200Y1174900D01*
X5684700Y1166400D01*
G01X5796500Y1177000D02*
X5836700Y1050000D01*
X5877000Y1177000D01*
G01X5413600Y3876400D02*
X5404000Y3882800D01*
X5392700Y3887000D01*
X5379900D01*
X5365400Y3880600D01*
X5354100Y3870100D01*
X5346100Y3857400D01*
X5339600Y3836200D01*
X5338000Y3817100D01*
X5341300Y3798100D01*
X5346100Y3785400D01*
X5355700Y3772700D01*
X5367000Y3764200D01*
X5378200Y3760000D01*
X5389500D01*
X5400800Y3764200D01*
X5410400Y3770600D01*
X5418500Y3779000D01*
G01X5477200Y3865800D02*
X5486800Y3878500D01*
X5498100Y3884900D01*
X5511000Y3887000D01*
X5527100Y3882800D01*
X5538300Y3872200D01*
X5541500Y3859500D01*
X5539900Y3846800D01*
X5533500Y3836200D01*
X5501300Y3815000D01*
X5486800Y3800200D01*
X5477200Y3779000D01*
X5474000Y3760000D01*
X5541500D01*
G01X5256100Y4690000D02*
Y4817000D01*
X5296300D01*
X5309200Y4810600D01*
X5317200Y4802200D01*
X5320400Y4785200D01*
X5317200Y4768300D01*
X5307600Y4757700D01*
X5296300Y4751400D01*
X5256100D01*
G01X5296300D02*
X5320400Y4690000D01*
G01X5437100D02*
Y4817000D01*
X5377500Y4726000D01*
X5458000D01*
G01X5516700Y4742900D02*
X5527900Y4757700D01*
X5537600Y4766200D01*
X5550500Y4770400D01*
X5561700Y4766200D01*
X5569800Y4757700D01*
X5576200Y4745000D01*
X5577800Y4730200D01*
X5576200Y4717500D01*
X5569800Y4704800D01*
X5560100Y4694200D01*
X5548900Y4690000D01*
X5536000Y4694200D01*
X5524700Y4706900D01*
X5518300Y4726000D01*
X5516700Y4747100D01*
X5519900Y4774700D01*
X5524700Y4789500D01*
X5532800Y4804300D01*
X5544000Y4814900D01*
X5555300Y4817000D01*
X5566600Y4812800D01*
X5574600Y4802200D01*
G01X5256100Y4850000D02*
Y4977000D01*
X5296300D01*
X5309200Y4970600D01*
X5317200Y4962200D01*
X5320400Y4945200D01*
X5317200Y4928300D01*
X5307600Y4917700D01*
X5296300Y4911400D01*
X5256100D01*
G01X5296300D02*
X5320400Y4850000D01*
G01X5437100D02*
Y4977000D01*
X5377500Y4886000D01*
X5458000D01*
G01X5511900Y4869000D02*
X5521500Y4858500D01*
X5532800Y4852100D01*
X5547200Y4850000D01*
X5561700Y4854200D01*
X5573000Y4862700D01*
X5581000Y4877500D01*
X5582600Y4894400D01*
X5579400Y4911400D01*
X5571400Y4922000D01*
X5560100Y4930400D01*
X5548900Y4932500D01*
X5537600Y4930400D01*
X5523100Y4922000D01*
X5527900Y4977000D01*
X5571400D01*
G01X5433600Y7016400D02*
X5424000Y7022800D01*
X5412700Y7027000D01*
X5399900D01*
X5385400Y7020600D01*
X5374100Y7010100D01*
X5366100Y6997400D01*
X5359600Y6976200D01*
X5358000Y6957100D01*
X5361300Y6938100D01*
X5366100Y6925400D01*
X5375700Y6912700D01*
X5387000Y6904200D01*
X5398200Y6900000D01*
X5409500D01*
X5420800Y6904200D01*
X5430400Y6910600D01*
X5438500Y6919000D01*
G01X5497200Y7005800D02*
X5506800Y7018500D01*
X5518100Y7024900D01*
X5531000Y7027000D01*
X5547100Y7022800D01*
X5558300Y7012200D01*
X5561500Y6999500D01*
X5559900Y6986800D01*
X5553500Y6976200D01*
X5521300Y6955000D01*
X5506800Y6940200D01*
X5497200Y6919000D01*
X5494000Y6900000D01*
X5561500D01*
G01X5629900Y6914800D02*
X5641200Y6904200D01*
X5654000Y6900000D01*
X5666900Y6904200D01*
X5678200Y6916900D01*
X5686200Y6936000D01*
X5689400Y6955000D01*
Y6978300D01*
X5686200Y6997400D01*
X5678200Y7014300D01*
X5668500Y7022800D01*
X5657200Y7027000D01*
X5644400Y7022800D01*
X5634700Y7014300D01*
X5628300Y7001600D01*
X5625100Y6984700D01*
X5628300Y6969900D01*
X5636300Y6955000D01*
X5646000Y6946600D01*
X5657200Y6944400D01*
X5670100Y6948700D01*
X5679800Y6959300D01*
X5689400Y6978300D01*
G01X5443600Y7236400D02*
X5434000Y7242800D01*
X5422700Y7247000D01*
X5409900D01*
X5395400Y7240600D01*
X5384100Y7230100D01*
X5376100Y7217400D01*
X5369600Y7196200D01*
X5368000Y7177100D01*
X5371300Y7158100D01*
X5376100Y7145400D01*
X5385700Y7132700D01*
X5397000Y7124200D01*
X5408200Y7120000D01*
X5419500D01*
X5430800Y7124200D01*
X5440400Y7130600D01*
X5448500Y7139000D01*
G01X5507200Y7225800D02*
X5516800Y7238500D01*
X5528100Y7244900D01*
X5541000Y7247000D01*
X5557100Y7242800D01*
X5568300Y7232200D01*
X5571500Y7219500D01*
X5569900Y7206800D01*
X5563500Y7196200D01*
X5531300Y7175000D01*
X5516800Y7160200D01*
X5507200Y7139000D01*
X5504000Y7120000D01*
X5571500D01*
G01X5686600D02*
Y7247000D01*
X5627000Y7156000D01*
X5707500D01*
G01X5454500Y8416900D02*
X5467300Y8406300D01*
X5481800Y8400000D01*
X5494700D01*
X5507600Y8406300D01*
X5517200Y8416900D01*
X5522000Y8431800D01*
X5518800Y8446600D01*
X5510800Y8459300D01*
X5496300Y8467700D01*
X5477000Y8472000D01*
X5465700Y8480400D01*
X5460900Y8495200D01*
X5464100Y8510100D01*
X5472200Y8520600D01*
X5483400Y8527000D01*
X5494700D01*
X5505900Y8522800D01*
X5515600Y8512200D01*
G01X5569500Y8527000D02*
X5592000Y8400000D01*
X5617700Y8527000D01*
X5643500Y8400000D01*
X5666000Y8527000D01*
G01X5782600Y8516400D02*
X5773000Y8522800D01*
X5761700Y8527000D01*
X5748900D01*
X5734400Y8520600D01*
X5723100Y8510100D01*
X5715100Y8497400D01*
X5708600Y8476200D01*
X5707000Y8457100D01*
X5710300Y8438100D01*
X5715100Y8425400D01*
X5724700Y8412700D01*
X5736000Y8404200D01*
X5747200Y8400000D01*
X5758500D01*
X5769800Y8404200D01*
X5779400Y8410600D01*
X5787500Y8419000D01*
G01X5844600Y8527000D02*
Y8400000D01*
X5908900D01*
G01X5970900D02*
Y8527000D01*
G01X6032000D02*
X5970900Y8448700D01*
G01X6041600Y8400000D02*
X5998200Y8484700D01*
G01X5454500Y8196900D02*
X5467300Y8186300D01*
X5481800Y8180000D01*
X5494700D01*
X5507600Y8186300D01*
X5517200Y8196900D01*
X5522000Y8211800D01*
X5518800Y8226600D01*
X5510800Y8239300D01*
X5496300Y8247700D01*
X5477000Y8252000D01*
X5465700Y8260400D01*
X5460900Y8275200D01*
X5464100Y8290100D01*
X5472200Y8300600D01*
X5483400Y8307000D01*
X5494700D01*
X5505900Y8302800D01*
X5515600Y8292200D01*
G01X5569500Y8307000D02*
X5592000Y8180000D01*
X5617700Y8307000D01*
X5643500Y8180000D01*
X5666000Y8307000D01*
G01X5711900Y8180000D02*
Y8307000D01*
X5744000D01*
X5756900Y8300600D01*
X5766600Y8292200D01*
X5774600Y8279500D01*
X5781000Y8264700D01*
X5782600Y8243500D01*
X5781000Y8222300D01*
X5774600Y8207500D01*
X5766600Y8194800D01*
X5756900Y8186300D01*
X5744000Y8180000D01*
X5711900D01*
G01X5857400Y8307000D02*
X5896000D01*
G01X5876700D02*
Y8180000D01*
G01X5857400D02*
X5896000D01*
G01X6006200D02*
X5993400Y8182100D01*
X5982100Y8190600D01*
X5972500Y8203300D01*
X5966000Y8218100D01*
X5962800Y8235000D01*
Y8252000D01*
X5966000Y8268900D01*
X5972500Y8283700D01*
X5982100Y8296400D01*
X5993400Y8304900D01*
X6006200Y8307000D01*
X6019100Y8304900D01*
X6030400Y8296400D01*
X6040000Y8283700D01*
X6046500Y8268900D01*
X6049700Y8252000D01*
Y8235000D01*
X6046500Y8218100D01*
X6040000Y8203300D01*
X6030400Y8190600D01*
X6019100Y8182100D01*
X6006200Y8180000D01*
G01X5576100Y2690000D02*
Y2817000D01*
X5616300D01*
X5629200Y2810600D01*
X5637200Y2802200D01*
X5640400Y2785200D01*
X5637200Y2768300D01*
X5627600Y2757700D01*
X5616300Y2751400D01*
X5576100D01*
G01X5616300D02*
X5640400Y2690000D01*
G01X5702400Y2709000D02*
X5712000Y2698500D01*
X5723300Y2692100D01*
X5737700Y2690000D01*
X5752200Y2694200D01*
X5763500Y2702700D01*
X5771500Y2717500D01*
X5773100Y2734400D01*
X5769900Y2751400D01*
X5761900Y2762000D01*
X5750600Y2770400D01*
X5739400Y2772500D01*
X5728100Y2770400D01*
X5713600Y2762000D01*
X5718400Y2817000D01*
X5761900D01*
G01X5867200D02*
X5854400Y2812800D01*
X5844700Y2802200D01*
X5838300Y2789500D01*
X5833500Y2772500D01*
X5831900Y2753500D01*
X5833500Y2734400D01*
X5838300Y2717500D01*
X5844700Y2704800D01*
X5854400Y2694200D01*
X5867200Y2690000D01*
X5880100Y2694200D01*
X5889800Y2704800D01*
X5896200Y2717500D01*
X5901000Y2734400D01*
X5902600Y2753500D01*
X5901000Y2772500D01*
X5896200Y2789500D01*
X5889800Y2802200D01*
X5880100Y2812800D01*
X5867200Y2817000D01*
G01X5586100Y3340000D02*
Y3467000D01*
X5626300D01*
X5639200Y3460600D01*
X5647200Y3452200D01*
X5650400Y3435200D01*
X5647200Y3418300D01*
X5637600Y3407700D01*
X5626300Y3401400D01*
X5586100D01*
G01X5626300D02*
X5650400Y3340000D01*
G01X5720400Y3354800D02*
X5731700Y3344200D01*
X5744500Y3340000D01*
X5757400Y3344200D01*
X5768700Y3356900D01*
X5776700Y3376000D01*
X5779900Y3395000D01*
Y3418300D01*
X5776700Y3437400D01*
X5768700Y3454300D01*
X5759000Y3462800D01*
X5747700Y3467000D01*
X5734900Y3462800D01*
X5725200Y3454300D01*
X5718800Y3441600D01*
X5715600Y3424700D01*
X5718800Y3409900D01*
X5726800Y3395000D01*
X5736500Y3386600D01*
X5747700Y3384400D01*
X5760600Y3388700D01*
X5770300Y3399300D01*
X5779900Y3418300D01*
G01X5566100Y3130000D02*
Y3257000D01*
X5606300D01*
X5619200Y3250600D01*
X5627200Y3242200D01*
X5630400Y3225200D01*
X5627200Y3208300D01*
X5617600Y3197700D01*
X5606300Y3191400D01*
X5566100D01*
G01X5606300D02*
X5630400Y3130000D01*
G01X5727700D02*
Y3257000D01*
X5708400Y3231600D01*
G01Y3130000D02*
X5747000D01*
G01X5857200D02*
Y3257000D01*
X5837900Y3231600D01*
G01Y3130000D02*
X5876500D01*
G01X5743600Y4966400D02*
X5734000Y4972800D01*
X5722700Y4977000D01*
X5709900D01*
X5695400Y4970600D01*
X5684100Y4960100D01*
X5676100Y4947400D01*
X5669600Y4926200D01*
X5668000Y4907100D01*
X5671300Y4888100D01*
X5676100Y4875400D01*
X5685700Y4862700D01*
X5697000Y4854200D01*
X5708200Y4850000D01*
X5719500D01*
X5730800Y4854200D01*
X5740400Y4860600D01*
X5748500Y4869000D01*
G01X5802400Y4875400D02*
X5812000Y4860600D01*
X5824900Y4852100D01*
X5839400Y4850000D01*
X5852200Y4852100D01*
X5865100Y4862700D01*
X5873100Y4875400D01*
X5874700Y4888100D01*
X5871500Y4902900D01*
X5860300Y4913500D01*
X5849000Y4917700D01*
X5834500D01*
G01X5849000D02*
X5858700Y4924100D01*
X5866700Y4934700D01*
X5869900Y4947400D01*
X5866700Y4960100D01*
X5858700Y4970600D01*
X5844200Y4977000D01*
X5829700Y4974900D01*
X5815200Y4966400D01*
G01X5939900Y4864800D02*
X5951200Y4854200D01*
X5964000Y4850000D01*
X5976900Y4854200D01*
X5988200Y4866900D01*
X5996200Y4886000D01*
X5999400Y4905000D01*
Y4928300D01*
X5996200Y4947400D01*
X5988200Y4964300D01*
X5978500Y4972800D01*
X5967200Y4977000D01*
X5954400Y4972800D01*
X5944700Y4964300D01*
X5938300Y4951600D01*
X5935100Y4934700D01*
X5938300Y4919900D01*
X5946300Y4905000D01*
X5956000Y4896600D01*
X5967200Y4894400D01*
X5980100Y4898700D01*
X5989800Y4909300D01*
X5999400Y4928300D01*
G01X5743600Y5146400D02*
X5734000Y5152800D01*
X5722700Y5157000D01*
X5709900D01*
X5695400Y5150600D01*
X5684100Y5140100D01*
X5676100Y5127400D01*
X5669600Y5106200D01*
X5668000Y5087100D01*
X5671300Y5068100D01*
X5676100Y5055400D01*
X5685700Y5042700D01*
X5697000Y5034200D01*
X5708200Y5030000D01*
X5719500D01*
X5730800Y5034200D01*
X5740400Y5040600D01*
X5748500Y5049000D01*
G01X5802400Y5055400D02*
X5812000Y5040600D01*
X5824900Y5032100D01*
X5839400Y5030000D01*
X5852200Y5032100D01*
X5865100Y5042700D01*
X5873100Y5055400D01*
X5874700Y5068100D01*
X5871500Y5082900D01*
X5860300Y5093500D01*
X5849000Y5097700D01*
X5834500D01*
G01X5849000D02*
X5858700Y5104100D01*
X5866700Y5114700D01*
X5869900Y5127400D01*
X5866700Y5140100D01*
X5858700Y5150600D01*
X5844200Y5157000D01*
X5829700Y5154900D01*
X5815200Y5146400D01*
G01X5967200Y5030000D02*
X5978500Y5032100D01*
X5991400Y5038500D01*
X5999400Y5049000D01*
X6002600Y5063900D01*
X5999400Y5078700D01*
X5989800Y5091400D01*
X5975300Y5097700D01*
X5959200D01*
X5949600Y5102000D01*
X5941500Y5112500D01*
X5938300Y5127400D01*
X5943100Y5142200D01*
X5954400Y5152800D01*
X5967200Y5157000D01*
X5980100Y5152800D01*
X5991400Y5142200D01*
X5996200Y5127400D01*
X5993000Y5112500D01*
X5984900Y5102000D01*
X5975300Y5097700D01*
X5959200D01*
X5944700Y5091400D01*
X5935100Y5078700D01*
X5931900Y5063900D01*
X5935100Y5049000D01*
X5943100Y5038500D01*
X5956000Y5032100D01*
X5967200Y5030000D01*
G01X5743600Y5316400D02*
X5734000Y5322800D01*
X5722700Y5327000D01*
X5709900D01*
X5695400Y5320600D01*
X5684100Y5310100D01*
X5676100Y5297400D01*
X5669600Y5276200D01*
X5668000Y5257100D01*
X5671300Y5238100D01*
X5676100Y5225400D01*
X5685700Y5212700D01*
X5697000Y5204200D01*
X5708200Y5200000D01*
X5719500D01*
X5730800Y5204200D01*
X5740400Y5210600D01*
X5748500Y5219000D01*
G01X5802400Y5225400D02*
X5812000Y5210600D01*
X5824900Y5202100D01*
X5839400Y5200000D01*
X5852200Y5202100D01*
X5865100Y5212700D01*
X5873100Y5225400D01*
X5874700Y5238100D01*
X5871500Y5252900D01*
X5860300Y5263500D01*
X5849000Y5267700D01*
X5834500D01*
G01X5849000D02*
X5858700Y5274100D01*
X5866700Y5284700D01*
X5869900Y5297400D01*
X5866700Y5310100D01*
X5858700Y5320600D01*
X5844200Y5327000D01*
X5829700Y5324900D01*
X5815200Y5316400D01*
G01X5964000Y5200000D02*
X5967200Y5227500D01*
X5972100Y5250800D01*
X5978500Y5272000D01*
X5986600Y5295200D01*
X5999400Y5327000D01*
X5935100D01*
G01X5743600Y5486400D02*
X5734000Y5492800D01*
X5722700Y5497000D01*
X5709900D01*
X5695400Y5490600D01*
X5684100Y5480100D01*
X5676100Y5467400D01*
X5669600Y5446200D01*
X5668000Y5427100D01*
X5671300Y5408100D01*
X5676100Y5395400D01*
X5685700Y5382700D01*
X5697000Y5374200D01*
X5708200Y5370000D01*
X5719500D01*
X5730800Y5374200D01*
X5740400Y5380600D01*
X5748500Y5389000D01*
G01X5802400Y5395400D02*
X5812000Y5380600D01*
X5824900Y5372100D01*
X5839400Y5370000D01*
X5852200Y5372100D01*
X5865100Y5382700D01*
X5873100Y5395400D01*
X5874700Y5408100D01*
X5871500Y5422900D01*
X5860300Y5433500D01*
X5849000Y5437700D01*
X5834500D01*
G01X5849000D02*
X5858700Y5444100D01*
X5866700Y5454700D01*
X5869900Y5467400D01*
X5866700Y5480100D01*
X5858700Y5490600D01*
X5844200Y5497000D01*
X5829700Y5494900D01*
X5815200Y5486400D01*
G01X5936700Y5422900D02*
X5947900Y5437700D01*
X5957600Y5446200D01*
X5970500Y5450400D01*
X5981700Y5446200D01*
X5989800Y5437700D01*
X5996200Y5425000D01*
X5997800Y5410200D01*
X5996200Y5397500D01*
X5989800Y5384800D01*
X5980100Y5374200D01*
X5968900Y5370000D01*
X5956000Y5374200D01*
X5944700Y5386900D01*
X5938300Y5406000D01*
X5936700Y5427100D01*
X5939900Y5454700D01*
X5944700Y5469500D01*
X5952800Y5484300D01*
X5964000Y5494900D01*
X5975300Y5497000D01*
X5986600Y5492800D01*
X5994600Y5482200D01*
G01X5704500Y8626900D02*
X5717300Y8616300D01*
X5731800Y8610000D01*
X5744700D01*
X5757600Y8616300D01*
X5767200Y8626900D01*
X5772000Y8641800D01*
X5768800Y8656600D01*
X5760800Y8669300D01*
X5746300Y8677700D01*
X5727000Y8682000D01*
X5715700Y8690400D01*
X5710900Y8705200D01*
X5714100Y8720100D01*
X5722200Y8730600D01*
X5733400Y8737000D01*
X5744700D01*
X5755900Y8732800D01*
X5765600Y8722200D01*
G01X5819500Y8737000D02*
X5842000Y8610000D01*
X5867700Y8737000D01*
X5893500Y8610000D01*
X5916000Y8737000D01*
G01X5997200Y8610000D02*
X5984400Y8612100D01*
X5973100Y8620600D01*
X5963500Y8633300D01*
X5957000Y8648100D01*
X5953800Y8665000D01*
Y8682000D01*
X5957000Y8698900D01*
X5963500Y8713700D01*
X5973100Y8726400D01*
X5984400Y8734900D01*
X5997200Y8737000D01*
X6010100Y8734900D01*
X6021400Y8726400D01*
X6031000Y8713700D01*
X6037500Y8698900D01*
X6040700Y8682000D01*
Y8665000D01*
X6037500Y8648100D01*
X6031000Y8633300D01*
X6021400Y8620600D01*
X6010100Y8612100D01*
X5997200Y8610000D01*
G01X5860000Y3566100D02*
X5733000D01*
Y3606300D01*
X5739400Y3619200D01*
X5747800Y3627200D01*
X5764800Y3630400D01*
X5781700Y3627200D01*
X5792300Y3617600D01*
X5798600Y3606300D01*
Y3566100D01*
G01Y3606300D02*
X5860000Y3630400D01*
G01X5754200Y3697200D02*
X5741500Y3706800D01*
X5735100Y3718100D01*
X5733000Y3731000D01*
X5737200Y3747100D01*
X5747800Y3758300D01*
X5760500Y3761500D01*
X5773200Y3759900D01*
X5783800Y3753500D01*
X5805000Y3721300D01*
X5819800Y3706800D01*
X5841000Y3697200D01*
X5860000Y3694000D01*
Y3761500D01*
G01X5841000Y3821900D02*
X5851500Y3831500D01*
X5857900Y3842800D01*
X5860000Y3857200D01*
X5855800Y3871700D01*
X5847300Y3883000D01*
X5832500Y3891000D01*
X5815600Y3892600D01*
X5798600Y3889400D01*
X5788000Y3881400D01*
X5779600Y3870100D01*
X5777500Y3858900D01*
X5779600Y3847600D01*
X5788000Y3833100D01*
X5733000Y3837900D01*
Y3881400D01*
G01X6147700Y1145800D02*
X6157300Y1158500D01*
X6168600Y1164900D01*
X6181500Y1167000D01*
X6197600Y1162800D01*
X6208800Y1152200D01*
X6212000Y1139500D01*
X6210400Y1126800D01*
X6204000Y1116200D01*
X6171800Y1095000D01*
X6157300Y1080200D01*
X6147700Y1059000D01*
X6144500Y1040000D01*
X6212000D01*
G01X6327100D02*
Y1167000D01*
X6267500Y1076000D01*
X6348000D01*
G01X6397000Y1167000D02*
X6437200Y1040000D01*
X6477500Y1167000D01*
G01X6086100Y2085400D02*
X6094100Y2072700D01*
X6103800Y2064200D01*
X6115000Y2060000D01*
X6127900Y2064200D01*
X6137600Y2072700D01*
X6147200Y2085400D01*
X6150400Y2102300D01*
Y2187000D01*
G01X6212400Y2085400D02*
X6222000Y2070600D01*
X6234900Y2062100D01*
X6249400Y2060000D01*
X6262200Y2062100D01*
X6275100Y2072700D01*
X6283100Y2085400D01*
X6284700Y2098100D01*
X6281500Y2112900D01*
X6270300Y2123500D01*
X6259000Y2127700D01*
X6244500D01*
G01X6259000D02*
X6268700Y2134100D01*
X6276700Y2144700D01*
X6279900Y2157400D01*
X6276700Y2170100D01*
X6268700Y2180600D01*
X6254200Y2187000D01*
X6239700Y2184900D01*
X6225200Y2176400D01*
G01X6320000Y2726100D02*
X6193000D01*
Y2766300D01*
X6199400Y2779200D01*
X6207800Y2787200D01*
X6224800Y2790400D01*
X6241700Y2787200D01*
X6252300Y2777600D01*
X6258600Y2766300D01*
Y2726100D01*
G01Y2766300D02*
X6320000Y2790400D01*
G01X6214200Y2857200D02*
X6201500Y2866800D01*
X6195100Y2878100D01*
X6193000Y2891000D01*
X6197200Y2907100D01*
X6207800Y2918300D01*
X6220500Y2921500D01*
X6233200Y2919900D01*
X6243800Y2913500D01*
X6265000Y2881300D01*
X6279800Y2866800D01*
X6301000Y2857200D01*
X6320000Y2854000D01*
Y2921500D01*
G01Y3036600D02*
X6193000D01*
X6284000Y2977000D01*
Y3057500D01*
G01X6130000Y2726100D02*
X6003000D01*
Y2766300D01*
X6009400Y2779200D01*
X6017800Y2787200D01*
X6034800Y2790400D01*
X6051700Y2787200D01*
X6062300Y2777600D01*
X6068600Y2766300D01*
Y2726100D01*
G01Y2766300D02*
X6130000Y2790400D01*
G01X6024200Y2857200D02*
X6011500Y2866800D01*
X6005100Y2878100D01*
X6003000Y2891000D01*
X6007200Y2907100D01*
X6017800Y2918300D01*
X6030500Y2921500D01*
X6043200Y2919900D01*
X6053800Y2913500D01*
X6075000Y2881300D01*
X6089800Y2866800D01*
X6111000Y2857200D01*
X6130000Y2854000D01*
Y2921500D01*
G01X6077100Y2986700D02*
X6062300Y2997900D01*
X6053800Y3007600D01*
X6049600Y3020500D01*
X6053800Y3031700D01*
X6062300Y3039800D01*
X6075000Y3046200D01*
X6089800Y3047800D01*
X6102500Y3046200D01*
X6115200Y3039800D01*
X6125800Y3030100D01*
X6130000Y3018900D01*
X6125800Y3006000D01*
X6113100Y2994700D01*
X6094000Y2988300D01*
X6072900Y2986700D01*
X6045300Y2989900D01*
X6030500Y2994700D01*
X6015700Y3002800D01*
X6005100Y3014000D01*
X6003000Y3025300D01*
X6007200Y3036600D01*
X6017800Y3044600D01*
G01X6270000Y3866100D02*
X6143000D01*
Y3906300D01*
X6149400Y3919200D01*
X6157800Y3927200D01*
X6174800Y3930400D01*
X6191700Y3927200D01*
X6202300Y3917600D01*
X6208600Y3906300D01*
Y3866100D01*
G01Y3906300D02*
X6270000Y3930400D01*
G01X6244600Y3992400D02*
X6259400Y4002000D01*
X6267900Y4014900D01*
X6270000Y4029400D01*
X6267900Y4042200D01*
X6257300Y4055100D01*
X6244600Y4063100D01*
X6231900Y4064700D01*
X6217100Y4061500D01*
X6206500Y4050300D01*
X6202300Y4039000D01*
Y4024500D01*
G01Y4039000D02*
X6195900Y4048700D01*
X6185300Y4056700D01*
X6172600Y4059900D01*
X6159900Y4056700D01*
X6149400Y4048700D01*
X6143000Y4034200D01*
X6145100Y4019700D01*
X6153600Y4005200D01*
G01X6270000Y4176600D02*
X6143000D01*
X6234000Y4117000D01*
Y4197500D01*
G01X6250000Y4566100D02*
X6123000D01*
Y4606300D01*
X6129400Y4619200D01*
X6137800Y4627200D01*
X6154800Y4630400D01*
X6171700Y4627200D01*
X6182300Y4617600D01*
X6188600Y4606300D01*
Y4566100D01*
G01Y4606300D02*
X6250000Y4630400D01*
G01X6224600Y4692400D02*
X6239400Y4702000D01*
X6247900Y4714900D01*
X6250000Y4729400D01*
X6247900Y4742200D01*
X6237300Y4755100D01*
X6224600Y4763100D01*
X6211900Y4764700D01*
X6197100Y4761500D01*
X6186500Y4750300D01*
X6182300Y4739000D01*
Y4724500D01*
G01Y4739000D02*
X6175900Y4748700D01*
X6165300Y4756700D01*
X6152600Y4759900D01*
X6139900Y4756700D01*
X6129400Y4748700D01*
X6123000Y4734200D01*
X6125100Y4719700D01*
X6133600Y4705200D01*
G01X6250000Y4854000D02*
X6222500Y4857200D01*
X6199200Y4862100D01*
X6178000Y4868500D01*
X6154800Y4876600D01*
X6123000Y4889400D01*
Y4825100D01*
G01X6162900Y5677000D02*
Y5586000D01*
X6169300Y5566900D01*
X6182200Y5554200D01*
X6198200Y5550000D01*
X6214300Y5554200D01*
X6227200Y5566900D01*
X6233600Y5586000D01*
Y5677000D01*
G01X6297200Y5655800D02*
X6306800Y5668500D01*
X6318100Y5674900D01*
X6331000Y5677000D01*
X6347100Y5672800D01*
X6358300Y5662200D01*
X6361500Y5649500D01*
X6359900Y5636800D01*
X6353500Y5626200D01*
X6321300Y5605000D01*
X6306800Y5590200D01*
X6297200Y5569000D01*
X6294000Y5550000D01*
X6361500D01*
G01X6258000Y8547000D02*
X6298200Y8420000D01*
X6338500Y8547000D01*
G01X6463100Y8536400D02*
X6453500Y8542800D01*
X6442200Y8547000D01*
X6429400D01*
X6414900Y8540600D01*
X6403600Y8530100D01*
X6395600Y8517400D01*
X6389100Y8496200D01*
X6387500Y8477100D01*
X6390800Y8458100D01*
X6395600Y8445400D01*
X6405200Y8432700D01*
X6416500Y8424200D01*
X6427700Y8420000D01*
X6439000D01*
X6450300Y8424200D01*
X6459900Y8430600D01*
X6468000Y8439000D01*
G01X6592600Y8536400D02*
X6583000Y8542800D01*
X6571700Y8547000D01*
X6558900D01*
X6544400Y8540600D01*
X6533100Y8530100D01*
X6525100Y8517400D01*
X6518600Y8496200D01*
X6517000Y8477100D01*
X6520300Y8458100D01*
X6525100Y8445400D01*
X6534700Y8432700D01*
X6546000Y8424200D01*
X6557200Y8420000D01*
X6568500D01*
X6579800Y8424200D01*
X6589400Y8430600D01*
X6597500Y8439000D01*
G01X6307900Y8253500D02*
X6340100D01*
Y8215400D01*
X6330400Y8202700D01*
X6319200Y8194200D01*
X6303100Y8190000D01*
X6287000Y8194200D01*
X6275700Y8202700D01*
X6266100Y8215400D01*
X6259600Y8230200D01*
X6256400Y8247100D01*
Y8262000D01*
X6259600Y8274700D01*
X6266100Y8289500D01*
X6275700Y8302200D01*
X6285400Y8310600D01*
X6298200Y8317000D01*
X6309500D01*
X6322400Y8312800D01*
X6332000Y8304300D01*
G01X6390800Y8190000D02*
Y8317000D01*
X6464700Y8190000D01*
Y8317000D01*
G01X6521900Y8190000D02*
Y8317000D01*
X6554000D01*
X6566900Y8310600D01*
X6576600Y8302200D01*
X6584600Y8289500D01*
X6591000Y8274700D01*
X6592600Y8253500D01*
X6591000Y8232300D01*
X6584600Y8217500D01*
X6576600Y8204800D01*
X6566900Y8196300D01*
X6554000Y8190000D01*
X6521900D01*
G01X6256100Y8620000D02*
Y8747000D01*
X6296300D01*
X6309200Y8740600D01*
X6317200Y8732200D01*
X6320400Y8715200D01*
X6317200Y8698300D01*
X6307600Y8687700D01*
X6296300Y8681400D01*
X6256100D01*
G01X6296300D02*
X6320400Y8620000D01*
G01X6384000Y8636900D02*
X6396800Y8626300D01*
X6411300Y8620000D01*
X6424200D01*
X6437100Y8626300D01*
X6446700Y8636900D01*
X6451500Y8651800D01*
X6448300Y8666600D01*
X6440300Y8679300D01*
X6425800Y8687700D01*
X6406500Y8692000D01*
X6395200Y8700400D01*
X6390400Y8715200D01*
X6393600Y8730100D01*
X6401700Y8740600D01*
X6412900Y8747000D01*
X6424200D01*
X6435400Y8742800D01*
X6445100Y8732200D01*
G01X6547200Y8747000D02*
Y8620000D01*
G01X6510300Y8747000D02*
X6584200D01*
G01X6466100Y1365400D02*
X6474100Y1352700D01*
X6483800Y1344200D01*
X6495000Y1340000D01*
X6507900Y1344200D01*
X6517600Y1352700D01*
X6527200Y1365400D01*
X6530400Y1382300D01*
Y1467000D01*
G01X6627700Y1340000D02*
Y1467000D01*
X6608400Y1441600D01*
G01Y1340000D02*
X6647000D01*
G01X6757200Y1467000D02*
X6744400Y1462800D01*
X6734700Y1452200D01*
X6728300Y1439500D01*
X6723500Y1422500D01*
X6721900Y1403500D01*
X6723500Y1384400D01*
X6728300Y1367500D01*
X6734700Y1354800D01*
X6744400Y1344200D01*
X6757200Y1340000D01*
X6770100Y1344200D01*
X6779800Y1354800D01*
X6786200Y1367500D01*
X6791000Y1384400D01*
X6792600Y1403500D01*
X6791000Y1422500D01*
X6786200Y1439500D01*
X6779800Y1452200D01*
X6770100Y1462800D01*
X6757200Y1467000D01*
G01X6550000Y2736100D02*
X6423000D01*
Y2776300D01*
X6429400Y2789200D01*
X6437800Y2797200D01*
X6454800Y2800400D01*
X6471700Y2797200D01*
X6482300Y2787600D01*
X6488600Y2776300D01*
Y2736100D01*
G01Y2776300D02*
X6550000Y2800400D01*
G01X6444200Y2867200D02*
X6431500Y2876800D01*
X6425100Y2888100D01*
X6423000Y2901000D01*
X6427200Y2917100D01*
X6437800Y2928300D01*
X6450500Y2931500D01*
X6463200Y2929900D01*
X6473800Y2923500D01*
X6495000Y2891300D01*
X6509800Y2876800D01*
X6531000Y2867200D01*
X6550000Y2864000D01*
Y2931500D01*
G01X6535200Y2999900D02*
X6545800Y3011200D01*
X6550000Y3024000D01*
X6545800Y3036900D01*
X6533100Y3048200D01*
X6514000Y3056200D01*
X6495000Y3059400D01*
X6471700D01*
X6452600Y3056200D01*
X6435700Y3048200D01*
X6427200Y3038500D01*
X6423000Y3027200D01*
X6427200Y3014400D01*
X6435700Y3004700D01*
X6448400Y2998300D01*
X6465300Y2995100D01*
X6480100Y2998300D01*
X6495000Y3006300D01*
X6503400Y3016000D01*
X6505600Y3027200D01*
X6501300Y3040100D01*
X6490700Y3049800D01*
X6471700Y3059400D01*
G01X6396100Y5190000D02*
Y5317000D01*
X6436300D01*
X6449200Y5310600D01*
X6457200Y5302200D01*
X6460400Y5285200D01*
X6457200Y5268300D01*
X6447600Y5257700D01*
X6436300Y5251400D01*
X6396100D01*
G01X6436300D02*
X6460400Y5190000D01*
G01X6522400Y5215400D02*
X6532000Y5200600D01*
X6544900Y5192100D01*
X6559400Y5190000D01*
X6572200Y5192100D01*
X6585100Y5202700D01*
X6593100Y5215400D01*
X6594700Y5228100D01*
X6591500Y5242900D01*
X6580300Y5253500D01*
X6569000Y5257700D01*
X6554500D01*
G01X6569000D02*
X6578700Y5264100D01*
X6586700Y5274700D01*
X6589900Y5287400D01*
X6586700Y5300100D01*
X6578700Y5310600D01*
X6564200Y5317000D01*
X6549700Y5314900D01*
X6535200Y5306400D01*
G01X6656700Y5242900D02*
X6667900Y5257700D01*
X6677600Y5266200D01*
X6690500Y5270400D01*
X6701700Y5266200D01*
X6709800Y5257700D01*
X6716200Y5245000D01*
X6717800Y5230200D01*
X6716200Y5217500D01*
X6709800Y5204800D01*
X6700100Y5194200D01*
X6688900Y5190000D01*
X6676000Y5194200D01*
X6664700Y5206900D01*
X6658300Y5226000D01*
X6656700Y5247100D01*
X6659900Y5274700D01*
X6664700Y5289500D01*
X6672800Y5304300D01*
X6684000Y5314900D01*
X6695300Y5317000D01*
X6706600Y5312800D01*
X6714600Y5302200D01*
G01X6356100Y7175400D02*
X6364100Y7162700D01*
X6373800Y7154200D01*
X6385000Y7150000D01*
X6397900Y7154200D01*
X6407600Y7162700D01*
X6417200Y7175400D01*
X6420400Y7192300D01*
Y7277000D01*
G01X6517700Y7150000D02*
X6529000Y7152100D01*
X6541900Y7158500D01*
X6549900Y7169000D01*
X6553100Y7183900D01*
X6549900Y7198700D01*
X6540300Y7211400D01*
X6525800Y7217700D01*
X6509700D01*
X6500100Y7222000D01*
X6492000Y7232500D01*
X6488800Y7247400D01*
X6493600Y7262200D01*
X6504900Y7272800D01*
X6517700Y7277000D01*
X6530600Y7272800D01*
X6541900Y7262200D01*
X6546700Y7247400D01*
X6543500Y7232500D01*
X6535400Y7222000D01*
X6525800Y7217700D01*
X6509700D01*
X6495200Y7211400D01*
X6485600Y7198700D01*
X6482400Y7183900D01*
X6485600Y7169000D01*
X6493600Y7158500D01*
X6506500Y7152100D01*
X6517700Y7150000D01*
G01X6727900Y1813500D02*
X6760100D01*
Y1775400D01*
X6750400Y1762700D01*
X6739200Y1754200D01*
X6723100Y1750000D01*
X6707000Y1754200D01*
X6695700Y1762700D01*
X6686100Y1775400D01*
X6679600Y1790200D01*
X6676400Y1807100D01*
Y1822000D01*
X6679600Y1834700D01*
X6686100Y1849500D01*
X6695700Y1862200D01*
X6705400Y1870600D01*
X6718200Y1877000D01*
X6729500D01*
X6742400Y1872800D01*
X6752000Y1864300D01*
G01X6810800Y1750000D02*
Y1877000D01*
X6884700Y1750000D01*
Y1877000D01*
G01X6941900Y1750000D02*
Y1877000D01*
X6974000D01*
X6986900Y1870600D01*
X6996600Y1862200D01*
X7004600Y1849500D01*
X7011000Y1834700D01*
X7012600Y1813500D01*
X7011000Y1792300D01*
X7004600Y1777500D01*
X6996600Y1764800D01*
X6986900Y1756300D01*
X6974000Y1750000D01*
X6941900D01*
G01X6820000Y4143900D02*
X6947000D01*
Y4103700D01*
X6940600Y4090800D01*
X6932200Y4082800D01*
X6915200Y4079600D01*
X6898300Y4082800D01*
X6887700Y4092400D01*
X6881400Y4103700D01*
Y4143900D01*
G01Y4103700D02*
X6820000Y4079600D01*
G01X6845400Y4017600D02*
X6830600Y4008000D01*
X6822100Y3995100D01*
X6820000Y3980600D01*
X6822100Y3967800D01*
X6832700Y3954900D01*
X6845400Y3946900D01*
X6858100Y3945300D01*
X6872900Y3948500D01*
X6883500Y3959700D01*
X6887700Y3971000D01*
Y3985500D01*
G01Y3971000D02*
X6894100Y3961300D01*
X6904700Y3953300D01*
X6917400Y3950100D01*
X6930100Y3953300D01*
X6940600Y3961300D01*
X6947000Y3975800D01*
X6944900Y3990300D01*
X6936400Y4004800D01*
G01X6925800Y3883300D02*
X6938500Y3873700D01*
X6944900Y3862400D01*
X6947000Y3849500D01*
X6942800Y3833400D01*
X6932200Y3822200D01*
X6919500Y3819000D01*
X6906800Y3820600D01*
X6896200Y3827000D01*
X6875000Y3859200D01*
X6860200Y3873700D01*
X6839000Y3883300D01*
X6820000Y3886500D01*
Y3819000D01*
G01X6786100Y4290000D02*
Y4417000D01*
X6826300D01*
X6839200Y4410600D01*
X6847200Y4402200D01*
X6850400Y4385200D01*
X6847200Y4368300D01*
X6837600Y4357700D01*
X6826300Y4351400D01*
X6786100D01*
G01X6826300D02*
X6850400Y4290000D01*
G01X6912400Y4315400D02*
X6922000Y4300600D01*
X6934900Y4292100D01*
X6949400Y4290000D01*
X6962200Y4292100D01*
X6975100Y4302700D01*
X6983100Y4315400D01*
X6984700Y4328100D01*
X6981500Y4342900D01*
X6970300Y4353500D01*
X6959000Y4357700D01*
X6944500D01*
G01X6959000D02*
X6968700Y4364100D01*
X6976700Y4374700D01*
X6979900Y4387400D01*
X6976700Y4400100D01*
X6968700Y4410600D01*
X6954200Y4417000D01*
X6939700Y4414900D01*
X6925200Y4406400D01*
G01X7041900Y4315400D02*
X7051500Y4300600D01*
X7064400Y4292100D01*
X7078900Y4290000D01*
X7091700Y4292100D01*
X7104600Y4302700D01*
X7112600Y4315400D01*
X7114200Y4328100D01*
X7111000Y4342900D01*
X7099800Y4353500D01*
X7088500Y4357700D01*
X7074000D01*
G01X7088500D02*
X7098200Y4364100D01*
X7106200Y4374700D01*
X7109400Y4387400D01*
X7106200Y4400100D01*
X7098200Y4410600D01*
X7083700Y4417000D01*
X7069200Y4414900D01*
X7054700Y4406400D01*
G01X6810000Y4833900D02*
X6937000D01*
Y4793700D01*
X6930600Y4780800D01*
X6922200Y4772800D01*
X6905200Y4769600D01*
X6888300Y4772800D01*
X6877700Y4782400D01*
X6871400Y4793700D01*
Y4833900D01*
G01Y4793700D02*
X6810000Y4769600D01*
G01X6835400Y4707600D02*
X6820600Y4698000D01*
X6812100Y4685100D01*
X6810000Y4670600D01*
X6812100Y4657800D01*
X6822700Y4644900D01*
X6835400Y4636900D01*
X6848100Y4635300D01*
X6862900Y4638500D01*
X6873500Y4649700D01*
X6877700Y4661000D01*
Y4675500D01*
G01Y4661000D02*
X6884100Y4651300D01*
X6894700Y4643300D01*
X6907400Y4640100D01*
X6920100Y4643300D01*
X6930600Y4651300D01*
X6937000Y4665800D01*
X6934900Y4680300D01*
X6926400Y4694800D01*
G01X6829000Y4578100D02*
X6818500Y4568500D01*
X6812100Y4557200D01*
X6810000Y4542800D01*
X6814200Y4528300D01*
X6822700Y4517000D01*
X6837500Y4509000D01*
X6854400Y4507400D01*
X6871400Y4510600D01*
X6882000Y4518600D01*
X6890400Y4529900D01*
X6892500Y4541100D01*
X6890400Y4552400D01*
X6882000Y4566900D01*
X6937000Y4562100D01*
Y4518600D01*
G01X6736100Y7690000D02*
Y7817000D01*
X6776300D01*
X6789200Y7810600D01*
X6797200Y7802200D01*
X6800400Y7785200D01*
X6797200Y7768300D01*
X6787600Y7757700D01*
X6776300Y7751400D01*
X6736100D01*
G01X6776300D02*
X6800400Y7690000D01*
G01X6917100D02*
Y7817000D01*
X6857500Y7726000D01*
X6938000D01*
G01X7046600Y7690000D02*
Y7817000D01*
X6987000Y7726000D01*
X7067500D01*
G01X6876100Y3230000D02*
Y3357000D01*
X6916300D01*
X6929200Y3350600D01*
X6937200Y3342200D01*
X6940400Y3325200D01*
X6937200Y3308300D01*
X6927600Y3297700D01*
X6916300Y3291400D01*
X6876100D01*
G01X6916300D02*
X6940400Y3230000D01*
G01X7007200Y3335800D02*
X7016800Y3348500D01*
X7028100Y3354900D01*
X7041000Y3357000D01*
X7057100Y3352800D01*
X7068300Y3342200D01*
X7071500Y3329500D01*
X7069900Y3316800D01*
X7063500Y3306200D01*
X7031300Y3285000D01*
X7016800Y3270200D01*
X7007200Y3249000D01*
X7004000Y3230000D01*
X7071500D01*
G01X7164000D02*
X7167200Y3257500D01*
X7172100Y3280800D01*
X7178500Y3302000D01*
X7186600Y3325200D01*
X7199400Y3357000D01*
X7135100D01*
G01X6856100Y3590000D02*
Y3717000D01*
X6896300D01*
X6909200Y3710600D01*
X6917200Y3702200D01*
X6920400Y3685200D01*
X6917200Y3668300D01*
X6907600Y3657700D01*
X6896300Y3651400D01*
X6856100D01*
G01X6896300D02*
X6920400Y3590000D01*
G01X6987200Y3695800D02*
X6996800Y3708500D01*
X7008100Y3714900D01*
X7021000Y3717000D01*
X7037100Y3712800D01*
X7048300Y3702200D01*
X7051500Y3689500D01*
X7049900Y3676800D01*
X7043500Y3666200D01*
X7011300Y3645000D01*
X6996800Y3630200D01*
X6987200Y3609000D01*
X6984000Y3590000D01*
X7051500D01*
G01X7147200D02*
X7158500Y3592100D01*
X7171400Y3598500D01*
X7179400Y3609000D01*
X7182600Y3623900D01*
X7179400Y3638700D01*
X7169800Y3651400D01*
X7155300Y3657700D01*
X7139200D01*
X7129600Y3662000D01*
X7121500Y3672500D01*
X7118300Y3687400D01*
X7123100Y3702200D01*
X7134400Y3712800D01*
X7147200Y3717000D01*
X7160100Y3712800D01*
X7171400Y3702200D01*
X7176200Y3687400D01*
X7173000Y3672500D01*
X7164900Y3662000D01*
X7155300Y3657700D01*
X7139200D01*
X7124700Y3651400D01*
X7115100Y3638700D01*
X7111900Y3623900D01*
X7115100Y3609000D01*
X7123100Y3598500D01*
X7136000Y3592100D01*
X7147200Y3590000D01*
G01X7333600Y8386400D02*
X7324000Y8392800D01*
X7312700Y8397000D01*
X7299900D01*
X7285400Y8390600D01*
X7274100Y8380100D01*
X7266100Y8367400D01*
X7259600Y8346200D01*
X7258000Y8327100D01*
X7261300Y8308100D01*
X7266100Y8295400D01*
X7275700Y8282700D01*
X7287000Y8274200D01*
X7298200Y8270000D01*
X7309500D01*
X7320800Y8274200D01*
X7330400Y8280600D01*
X7338500Y8289000D01*
G01X7427700Y8270000D02*
Y8397000D01*
X7408400Y8371600D01*
G01Y8270000D02*
X7447000D01*
G01X7557200D02*
X7568500Y8272100D01*
X7581400Y8278500D01*
X7589400Y8289000D01*
X7592600Y8303900D01*
X7589400Y8318700D01*
X7579800Y8331400D01*
X7565300Y8337700D01*
X7549200D01*
X7539600Y8342000D01*
X7531500Y8352500D01*
X7528300Y8367400D01*
X7533100Y8382200D01*
X7544400Y8392800D01*
X7557200Y8397000D01*
X7570100Y8392800D01*
X7581400Y8382200D01*
X7586200Y8367400D01*
X7583000Y8352500D01*
X7574900Y8342000D01*
X7565300Y8337700D01*
X7549200D01*
X7534700Y8331400D01*
X7525100Y8318700D01*
X7521900Y8303900D01*
X7525100Y8289000D01*
X7533100Y8278500D01*
X7546000Y8272100D01*
X7557200Y8270000D01*
G01X7478000Y1570000D02*
X7518200Y1697000D01*
X7558500Y1570000D01*
G01X7544000Y1614400D02*
X7492500D01*
G01X7628400Y1697000D02*
X7667000D01*
G01X7647700D02*
Y1570000D01*
G01X7628400D02*
X7667000D01*
G01X7777200D02*
Y1697000D01*
X7757900Y1671600D01*
G01Y1570000D02*
X7796500D01*
G01X7458000Y1950000D02*
X7498200Y2077000D01*
X7538500Y1950000D01*
G01X7524000Y1994400D02*
X7472500D01*
G01X7608400Y2077000D02*
X7647000D01*
G01X7627700D02*
Y1950000D01*
G01X7608400D02*
X7647000D01*
G01X7725100D02*
Y2077000D01*
X7763700D01*
X7776600Y2070600D01*
X7786200Y2055800D01*
X7789400Y2038900D01*
X7786200Y2022000D01*
X7778200Y2009300D01*
X7763700Y2002900D01*
X7725100D01*
G01X7448000Y2330000D02*
X7488200Y2457000D01*
X7528500Y2330000D01*
G01X7514000Y2374400D02*
X7462500D01*
G01X7598400Y2457000D02*
X7637000D01*
G01X7617700D02*
Y2330000D01*
G01X7598400D02*
X7637000D01*
G01X7716700Y2435800D02*
X7726300Y2448500D01*
X7737600Y2454900D01*
X7750500Y2457000D01*
X7766600Y2452800D01*
X7777800Y2442200D01*
X7781000Y2429500D01*
X7779400Y2416800D01*
X7773000Y2406200D01*
X7740800Y2385000D01*
X7726300Y2370200D01*
X7716700Y2349000D01*
X7713500Y2330000D01*
X7781000D01*
G01X7448000Y2690000D02*
X7488200Y2817000D01*
X7528500Y2690000D01*
G01X7514000Y2734400D02*
X7462500D01*
G01X7598400Y2817000D02*
X7637000D01*
G01X7617700D02*
Y2690000D01*
G01X7598400D02*
X7637000D01*
G01X7715100D02*
Y2817000D01*
X7753700D01*
X7766600Y2810600D01*
X7776200Y2795800D01*
X7779400Y2778900D01*
X7776200Y2762000D01*
X7768200Y2749300D01*
X7753700Y2742900D01*
X7715100D01*
G01X7448000Y3080000D02*
X7488200Y3207000D01*
X7528500Y3080000D01*
G01X7514000Y3124400D02*
X7462500D01*
G01X7598400Y3207000D02*
X7637000D01*
G01X7617700D02*
Y3080000D01*
G01X7598400D02*
X7637000D01*
G01X7711900Y3105400D02*
X7721500Y3090600D01*
X7734400Y3082100D01*
X7748900Y3080000D01*
X7761700Y3082100D01*
X7774600Y3092700D01*
X7782600Y3105400D01*
X7784200Y3118100D01*
X7781000Y3132900D01*
X7769800Y3143500D01*
X7758500Y3147700D01*
X7744000D01*
G01X7758500D02*
X7768200Y3154100D01*
X7776200Y3164700D01*
X7779400Y3177400D01*
X7776200Y3190100D01*
X7768200Y3200600D01*
X7753700Y3207000D01*
X7739200Y3204900D01*
X7724700Y3196400D01*
G01X7458000Y3470000D02*
X7498200Y3597000D01*
X7538500Y3470000D01*
G01X7524000Y3514400D02*
X7472500D01*
G01X7608400Y3597000D02*
X7647000D01*
G01X7627700D02*
Y3470000D01*
G01X7608400D02*
X7647000D01*
G01X7725100D02*
Y3597000D01*
X7763700D01*
X7776600Y3590600D01*
X7786200Y3575800D01*
X7789400Y3558900D01*
X7786200Y3542000D01*
X7778200Y3529300D01*
X7763700Y3522900D01*
X7725100D01*
G01X7448000Y3870000D02*
X7488200Y3997000D01*
X7528500Y3870000D01*
G01X7514000Y3914400D02*
X7462500D01*
G01X7598400Y3997000D02*
X7637000D01*
G01X7617700D02*
Y3870000D01*
G01X7598400D02*
X7637000D01*
G01X7766600D02*
Y3997000D01*
X7707000Y3906000D01*
X7787500D01*
G01X7448000Y4230000D02*
X7488200Y4357000D01*
X7528500Y4230000D01*
G01X7514000Y4274400D02*
X7462500D01*
G01X7598400Y4357000D02*
X7637000D01*
G01X7617700D02*
Y4230000D01*
G01X7598400D02*
X7637000D01*
G01X7715100D02*
Y4357000D01*
X7753700D01*
X7766600Y4350600D01*
X7776200Y4335800D01*
X7779400Y4318900D01*
X7776200Y4302000D01*
X7768200Y4289300D01*
X7753700Y4282900D01*
X7715100D01*
G01X7507900Y4893500D02*
X7540100D01*
Y4855400D01*
X7530400Y4842700D01*
X7519200Y4834200D01*
X7503100Y4830000D01*
X7487000Y4834200D01*
X7475700Y4842700D01*
X7466100Y4855400D01*
X7459600Y4870200D01*
X7456400Y4887100D01*
Y4902000D01*
X7459600Y4914700D01*
X7466100Y4929500D01*
X7475700Y4942200D01*
X7485400Y4950600D01*
X7498200Y4957000D01*
X7509500D01*
X7522400Y4952800D01*
X7532000Y4944300D01*
G01X7590800Y4830000D02*
Y4957000D01*
X7664700Y4830000D01*
Y4957000D01*
G01X7721900Y4830000D02*
Y4957000D01*
X7754000D01*
X7766900Y4950600D01*
X7776600Y4942200D01*
X7784600Y4929500D01*
X7791000Y4914700D01*
X7792600Y4893500D01*
X7791000Y4872300D01*
X7784600Y4857500D01*
X7776600Y4844800D01*
X7766900Y4836300D01*
X7754000Y4830000D01*
X7721900D01*
G01X7487900Y5653500D02*
X7520100D01*
Y5615400D01*
X7510400Y5602700D01*
X7499200Y5594200D01*
X7483100Y5590000D01*
X7467000Y5594200D01*
X7455700Y5602700D01*
X7446100Y5615400D01*
X7439600Y5630200D01*
X7436400Y5647100D01*
Y5662000D01*
X7439600Y5674700D01*
X7446100Y5689500D01*
X7455700Y5702200D01*
X7465400Y5710600D01*
X7478200Y5717000D01*
X7489500D01*
X7502400Y5712800D01*
X7512000Y5704300D01*
G01X7570800Y5590000D02*
Y5717000D01*
X7644700Y5590000D01*
Y5717000D01*
G01X7701900Y5590000D02*
Y5717000D01*
X7734000D01*
X7746900Y5710600D01*
X7756600Y5702200D01*
X7764600Y5689500D01*
X7771000Y5674700D01*
X7772600Y5653500D01*
X7771000Y5632300D01*
X7764600Y5617500D01*
X7756600Y5604800D01*
X7746900Y5596300D01*
X7734000Y5590000D01*
X7701900D01*
G01X7507900Y6413500D02*
X7540100D01*
Y6375400D01*
X7530400Y6362700D01*
X7519200Y6354200D01*
X7503100Y6350000D01*
X7487000Y6354200D01*
X7475700Y6362700D01*
X7466100Y6375400D01*
X7459600Y6390200D01*
X7456400Y6407100D01*
Y6422000D01*
X7459600Y6434700D01*
X7466100Y6449500D01*
X7475700Y6462200D01*
X7485400Y6470600D01*
X7498200Y6477000D01*
X7509500D01*
X7522400Y6472800D01*
X7532000Y6464300D01*
G01X7590800Y6350000D02*
Y6477000D01*
X7664700Y6350000D01*
Y6477000D01*
G01X7721900Y6350000D02*
Y6477000D01*
X7754000D01*
X7766900Y6470600D01*
X7776600Y6462200D01*
X7784600Y6449500D01*
X7791000Y6434700D01*
X7792600Y6413500D01*
X7791000Y6392300D01*
X7784600Y6377500D01*
X7776600Y6364800D01*
X7766900Y6356300D01*
X7754000Y6350000D01*
X7721900D01*
G01X7487900Y7173500D02*
X7520100D01*
Y7135400D01*
X7510400Y7122700D01*
X7499200Y7114200D01*
X7483100Y7110000D01*
X7467000Y7114200D01*
X7455700Y7122700D01*
X7446100Y7135400D01*
X7439600Y7150200D01*
X7436400Y7167100D01*
Y7182000D01*
X7439600Y7194700D01*
X7446100Y7209500D01*
X7455700Y7222200D01*
X7465400Y7230600D01*
X7478200Y7237000D01*
X7489500D01*
X7502400Y7232800D01*
X7512000Y7224300D01*
G01X7570800Y7110000D02*
Y7237000D01*
X7644700Y7110000D01*
Y7237000D01*
G01X7701900Y7110000D02*
Y7237000D01*
X7734000D01*
X7746900Y7230600D01*
X7756600Y7222200D01*
X7764600Y7209500D01*
X7771000Y7194700D01*
X7772600Y7173500D01*
X7771000Y7152300D01*
X7764600Y7137500D01*
X7756600Y7124800D01*
X7746900Y7116300D01*
X7734000Y7110000D01*
X7701900D01*
G01X7876100Y1275400D02*
X7884100Y1262700D01*
X7893800Y1254200D01*
X7905000Y1250000D01*
X7917900Y1254200D01*
X7927600Y1262700D01*
X7937200Y1275400D01*
X7940400Y1292300D01*
Y1377000D01*
G01X8057100Y1250000D02*
Y1377000D01*
X7997500Y1286000D01*
X8078000D01*
G01X7810000Y5142900D02*
X7683000D01*
Y5175000D01*
X7689400Y5187900D01*
X7697800Y5197600D01*
X7710500Y5205600D01*
X7725300Y5212000D01*
X7746500Y5213600D01*
X7767700Y5212000D01*
X7782500Y5205600D01*
X7795200Y5197600D01*
X7803700Y5187900D01*
X7810000Y5175000D01*
Y5142900D01*
G01X7683000Y5288400D02*
Y5327000D01*
G01Y5307700D02*
X7810000D01*
G01Y5288400D02*
Y5327000D01*
G01Y5437200D02*
X7683000D01*
X7708400Y5417900D01*
G01X7810000D02*
Y5456500D01*
G01X7760000Y5902900D02*
X7633000D01*
Y5935000D01*
X7639400Y5947900D01*
X7647800Y5957600D01*
X7660500Y5965600D01*
X7675300Y5972000D01*
X7696500Y5973600D01*
X7717700Y5972000D01*
X7732500Y5965600D01*
X7745200Y5957600D01*
X7753700Y5947900D01*
X7760000Y5935000D01*
Y5902900D01*
G01X7633000Y6048400D02*
Y6087000D01*
G01Y6067700D02*
X7760000D01*
G01Y6048400D02*
Y6087000D01*
G01X7654200Y6166700D02*
X7641500Y6176300D01*
X7635100Y6187600D01*
X7633000Y6200500D01*
X7637200Y6216600D01*
X7647800Y6227800D01*
X7660500Y6231000D01*
X7673200Y6229400D01*
X7683800Y6223000D01*
X7705000Y6190800D01*
X7719800Y6176300D01*
X7741000Y6166700D01*
X7760000Y6163500D01*
Y6231000D01*
G01X7780000Y6672900D02*
X7653000D01*
Y6705000D01*
X7659400Y6717900D01*
X7667800Y6727600D01*
X7680500Y6735600D01*
X7695300Y6742000D01*
X7716500Y6743600D01*
X7737700Y6742000D01*
X7752500Y6735600D01*
X7765200Y6727600D01*
X7773700Y6717900D01*
X7780000Y6705000D01*
Y6672900D01*
G01X7653000Y6818400D02*
Y6857000D01*
G01Y6837700D02*
X7780000D01*
G01Y6818400D02*
Y6857000D01*
G01X7754600Y6931900D02*
X7769400Y6941500D01*
X7777900Y6954400D01*
X7780000Y6968900D01*
X7777900Y6981700D01*
X7767300Y6994600D01*
X7754600Y7002600D01*
X7741900Y7004200D01*
X7727100Y7001000D01*
X7716500Y6989800D01*
X7712300Y6978500D01*
Y6964000D01*
G01Y6978500D02*
X7705900Y6988200D01*
X7695300Y6996200D01*
X7682600Y6999400D01*
X7669900Y6996200D01*
X7659400Y6988200D01*
X7653000Y6973700D01*
X7655100Y6959200D01*
X7663600Y6944700D01*
G01X7740000Y7392900D02*
X7613000D01*
Y7425000D01*
X7619400Y7437900D01*
X7627800Y7447600D01*
X7640500Y7455600D01*
X7655300Y7462000D01*
X7676500Y7463600D01*
X7697700Y7462000D01*
X7712500Y7455600D01*
X7725200Y7447600D01*
X7733700Y7437900D01*
X7740000Y7425000D01*
Y7392900D01*
G01X7613000Y7538400D02*
Y7577000D01*
G01Y7557700D02*
X7740000D01*
G01Y7538400D02*
Y7577000D01*
G01Y7706600D02*
X7613000D01*
X7704000Y7647000D01*
Y7727500D01*
G01X7936100Y7825400D02*
X7944100Y7812700D01*
X7953800Y7804200D01*
X7965000Y7800000D01*
X7977900Y7804200D01*
X7987600Y7812700D01*
X7997200Y7825400D01*
X8000400Y7842300D01*
Y7927000D01*
G01X8062400Y7819000D02*
X8072000Y7808500D01*
X8083300Y7802100D01*
X8097700Y7800000D01*
X8112200Y7804200D01*
X8123500Y7812700D01*
X8131500Y7827500D01*
X8133100Y7844400D01*
X8129900Y7861400D01*
X8121900Y7872000D01*
X8110600Y7880400D01*
X8099400Y7882500D01*
X8088100Y7880400D01*
X8073600Y7872000D01*
X8078400Y7927000D01*
X8121900D01*
G54D11*
G01X4176000Y3760000D02*
G03X4115000Y3821000I-61000J0D01*
G01D02*
G03X4054000Y3760000I0J-61000D01*
G01D02*
G03X4115000Y3699000I61000J0D01*
G01D02*
G03X4176000Y3760000I0J61000D01*
M02*
