G04 ================== begin FILE IDENTIFICATION RECORD ==================*
G04 Layout Name:  G:/Work/io/design/pcb/io_4di_4aic_dbdoctor.brd*
G04 Film Name:    SILKSCREEN_TOP*
G04 File Format:  Gerber RS274X*
G04 File Origin:  Cadence Allegro 17.2-P019*
G04 Origin Date:  Sat May 05 11:38:41 2018*
G04 *
G04 Layer:  MANUFACTURING/AUTOSILK_TOP*
G04 Layer:  BOARD GEOMETRY/SILKSCREEN_TOP*
G04 Layer:  BOARD GEOMETRY/OUTLINE*
G04 *
G04 Offset:    (0.000 0.000)*
G04 Mirror:    No*
G04 Mode:      Positive*
G04 Rotation:  0*
G04 FullContactRelief:  No*
G04 UndefLineWidth:     0.200*
G04 ================== end FILE IDENTIFICATION RECORD ====================*
%FSLAX25Y25*MOMM*%
%IR0*IPPOS*OFA0.00000B0.00000*MIA0B0*SFA1.00000B1.00000*%
%ADD10C,.2*%
%ADD11C,.3*%
G75*
%LPD*%
G75*
G54D10*
G01X140000Y2960000D02*
X1270000D01*
X1370000Y2860000D01*
Y1260000D01*
X1260000Y1150000D01*
X140000D01*
G01Y5060000D02*
X1270000D01*
X1370000Y4960000D01*
Y3360000D01*
X1260000Y3250000D01*
X140000D01*
G01X2480000Y7020000D02*
X2320000D01*
G01X2500000Y7050000D02*
X2300000D01*
Y7380000D01*
X2500000D01*
Y7050000D01*
G01X2300000Y8090000D02*
X2500000D01*
Y7760000D01*
X2300000D01*
Y8090000D01*
G01X2320000Y8120000D02*
X2480000D01*
G01X2620100Y7028800D02*
G03X2776600Y6874100I156500J1810D01*
G01X2780000D01*
Y6770000D01*
X3020000D01*
Y6881500D01*
X3019500D01*
G01X2776600Y8262200D02*
G03X2625600Y8111200I0J-151000D01*
G01X2620100D01*
Y7028800D01*
G01X3171700Y8111300D02*
G03X3020700Y8260500I-151000J-1811D01*
G01X3020000D01*
Y8360000D01*
X2776600D01*
Y8262200D01*
G01X3260000Y1590000D02*
X3180000Y1510000D01*
X2830000D01*
Y2590000D01*
X3260000D01*
Y1590000D01*
G01Y3690000D02*
X3180000Y3610000D01*
X2830000D01*
Y4690000D01*
X3260000D01*
Y3690000D01*
G01X3019500Y6881500D02*
G03X3166800Y7030600I0J147311D01*
G01X3171700D01*
Y8111300D01*
G01X3160000Y1070000D02*
Y1230000D01*
G01X3190000Y1050000D02*
Y1250000D01*
X3520000D01*
Y1050000D01*
X3190000D01*
G01X3160000Y3130000D02*
Y3290000D01*
G01X3190000Y3110000D02*
Y3310000D01*
X3520000D01*
Y3110000D01*
X3190000D01*
G01X3430000Y7370000D02*
X3270000D01*
G01X3450000Y7400000D02*
X3250000D01*
Y7730000D01*
X3450000D01*
Y7400000D01*
G01X3510000Y6920000D02*
Y7100000D01*
X3810000D01*
Y6920000D01*
X3510000D01*
G01X3470000Y6930000D02*
Y7090000D01*
G01X3670000Y7460000D02*
X3850000D01*
Y7160000D01*
X3670000D01*
Y7460000D01*
G01X3680000Y7500000D02*
X3840000D01*
G01Y7600000D02*
X3680000D01*
G01X3860000Y7630000D02*
X3660000D01*
Y7960000D01*
X3860000D01*
Y7630000D01*
G01X4170000Y6000000D02*
X4010000D01*
G01X4190000Y6030000D02*
X3990000D01*
Y6360000D01*
X4190000D01*
Y6030000D01*
G01X4070000Y6720000D02*
X3910000D01*
G01X4090000Y6750000D02*
X3890000D01*
Y7080000D01*
X4090000D01*
Y6750000D01*
G01X3890000Y7480000D02*
X4090000D01*
Y7150000D01*
X3890000D01*
Y7480000D01*
G01X3910000Y7510000D02*
X4070000D01*
G01X4090000Y7790000D02*
X3930000D01*
G01X4110000Y7820000D02*
X3910000D01*
Y8150000D01*
X4110000D01*
Y7820000D01*
G01X4260000Y8910000D02*
Y8710000D01*
X3930000D01*
Y8910000D01*
X4260000D01*
G01X4270000Y6300000D02*
Y6460000D01*
G01X4300000Y6280000D02*
Y6480000D01*
X4630000D01*
Y6280000D01*
X4300000D01*
G01X4290000Y8890000D02*
Y8730000D01*
G01X4380000Y9620000D02*
X5910000D01*
Y9880000D01*
X4370000D01*
Y9620000D01*
X4380000D01*
G01X4750000Y3210000D02*
Y3010000D01*
X4420000D01*
Y3210000D01*
X4750000D01*
G01Y3430000D02*
Y3230000D01*
X4420000D01*
Y3430000D01*
X4750000D01*
G01X4600000Y5580000D02*
Y5740000D01*
G01X4630000Y5560000D02*
Y5760000D01*
X4960000D01*
Y5560000D01*
X4630000D01*
G01X4510000Y5820000D02*
Y5980000D01*
G01X4540000Y5800000D02*
Y6000000D01*
X4870000D01*
Y5800000D01*
X4540000D01*
G01X4420000Y6060000D02*
Y6220000D01*
G01X4450000Y6040000D02*
Y6240000D01*
X4780000D01*
Y6040000D01*
X4450000D01*
G01X4580000Y8220000D02*
X4480000Y8120000D01*
Y6860000D01*
X5840000D01*
Y8220000D01*
X4580000D01*
G01X4640000Y8610000D02*
X4480000D01*
G01X4660000Y8640000D02*
X4460000D01*
Y8970000D01*
X4660000D01*
Y8640000D01*
G01X4907800Y1476600D02*
G03X5058800Y1325600I151000J0D01*
G01Y1320100D01*
X6141200D01*
G01X5058700Y1871700D02*
G03X4909500Y1720700I1811J-151000D01*
G01Y1720000D01*
X4810000D01*
Y1476600D01*
X4907800D01*
G01X4780000Y3190000D02*
Y3030000D01*
G01Y3410000D02*
Y3250000D01*
G01X4940000Y4440000D02*
X5140000D01*
Y4110000D01*
X4940000D01*
Y4440000D01*
G01X4760000Y8970000D02*
X4960000D01*
Y8640000D01*
X4760000D01*
Y8970000D01*
G01X4780000Y9000000D02*
X4940000D01*
G01X5050000Y1020000D02*
Y1180000D01*
G01X5080000Y1000000D02*
Y1200000D01*
X5410000D01*
Y1000000D01*
X5080000D01*
G01X6288500Y1719500D02*
G03X6139400Y1866800I-147311J0D01*
G01Y1871700D01*
X5058700D01*
G01X5265000Y3225000D02*
X5185000D01*
G01X5340000Y4080000D02*
X5180000D01*
G01X5360000Y4110000D02*
X5160000D01*
Y4440000D01*
X5360000D01*
Y4110000D01*
G01X4960000Y4470000D02*
X5120000D01*
G01X5010000Y6270000D02*
Y6430000D01*
G01X5040000Y6250000D02*
Y6450000D01*
X5370000D01*
Y6250000D01*
X5040000D01*
G01X5420000Y4440000D02*
X5620000D01*
Y4110000D01*
X5420000D01*
Y4440000D01*
G01X5290000Y4840000D02*
X5490000D01*
Y4510000D01*
X5290000D01*
Y4840000D01*
G01X5440000Y4470000D02*
X5600000D01*
G01X5310000Y4870000D02*
X5470000D01*
G01X5830000Y2080000D02*
X5670000D01*
G01X5850000Y2110000D02*
X5650000D01*
Y2440000D01*
X5850000D01*
Y2110000D01*
G01X5580000Y3480000D02*
X5530000Y3430000D01*
Y2970000D01*
X5580000Y2920000D01*
X6020000D01*
X6070000Y2970000D01*
Y3420000D01*
X6010000Y3480000D01*
X5580000D01*
G01X5680000Y4440000D02*
X5880000D01*
Y4110000D01*
X5680000D01*
Y4440000D01*
G01X5550000Y4840000D02*
X5750000D01*
Y4510000D01*
X5550000D01*
Y4840000D01*
G01X5700000Y4470000D02*
X5860000D01*
G01X5570000Y4870000D02*
X5730000D01*
G01X5560000Y6460000D02*
X5760000D01*
Y6130000D01*
X5560000D01*
Y6460000D01*
G01X5580000Y6490000D02*
X5740000D01*
G01X6130000Y1200000D02*
Y1000000D01*
X5800000D01*
Y1200000D01*
X6130000D01*
G01X5775000Y2660000D02*
Y2565000D01*
G01X5825000Y3745000D02*
Y3825000D01*
G01X6120000Y4080000D02*
X5960000D01*
G01X6140000Y4110000D02*
X5940000D01*
Y4440000D01*
X6140000D01*
Y4110000D01*
G01X5990000Y4480000D02*
X5830000D01*
G01X6010000Y4510000D02*
X5810000D01*
Y4840000D01*
X6010000D01*
Y4510000D01*
G01X5960000Y6100000D02*
X5800000D01*
G01X5980000Y6130000D02*
X5780000D01*
Y6460000D01*
X5980000D01*
Y6130000D01*
G01X6130000Y790000D02*
X6330000D01*
Y460000D01*
X6130000D01*
Y790000D01*
G01X6150000Y820000D02*
X6310000D01*
G01X6160000Y1180000D02*
Y1020000D01*
G01X6141200Y1320100D02*
G03X6295900Y1476600I-1810J156500D01*
G01Y1480000D01*
X6400000D01*
Y1720000D01*
X6288500D01*
Y1719500D01*
G01X6020000Y6460000D02*
X6220000D01*
Y6130000D01*
X6020000D01*
Y6460000D01*
G01X6050000Y6520000D02*
Y6680000D01*
G01X6080000Y6500000D02*
Y6700000D01*
X6410000D01*
Y6500000D01*
X6080000D01*
G01X6040000Y6490000D02*
X6200000D01*
G01X6140000Y7060000D02*
X6340000D01*
Y6730000D01*
X6140000D01*
Y7060000D01*
G01X6160000Y7090000D02*
X6320000D01*
G01X6160000Y8330000D02*
X6360000D01*
Y8000000D01*
X6160000D01*
Y8330000D01*
G01X6180000Y8360000D02*
X6340000D01*
G01X6120000Y8390000D02*
Y8550000D01*
G01X6150000Y8370000D02*
Y8570000D01*
X6480000D01*
Y8370000D01*
X6150000D01*
G01X6420000Y790000D02*
X6620000D01*
Y460000D01*
X6420000D01*
Y790000D01*
G01X6440000Y820000D02*
X6600000D01*
G01X6790000Y2870000D02*
Y2670000D01*
X6460000D01*
Y2870000D01*
X6790000D01*
G01X6650000Y3330000D02*
X6490000D01*
G01X6335000Y3175000D02*
X6450000D01*
G01X6670000Y3360000D02*
X6470000D01*
Y3690000D01*
X6670000D01*
Y3360000D01*
G01X7310000Y600000D02*
Y840000D01*
X7450000D01*
Y1230000D01*
X7420000D01*
Y1450000D01*
X6780000D01*
Y1230000D01*
X6750000D01*
Y840000D01*
X6890000D01*
Y600000D01*
X7310000D01*
G01X6760000Y9790000D02*
X6710000Y9740000D01*
Y9050000D01*
X7200000D01*
Y9790000D01*
X6760000D01*
G01X6820000Y2850000D02*
Y2690000D01*
G01X7260000Y6260000D02*
X7060000D01*
Y6590000D01*
X7260000D01*
Y6260000D01*
G01X7010000Y6230000D02*
X6850000D01*
G01X7030000Y6260000D02*
X6830000D01*
Y6590000D01*
X7030000D01*
Y6260000D01*
G01X7260000Y6650000D02*
X7060000D01*
Y6980000D01*
X7260000D01*
Y6650000D01*
G01X7010000Y6620000D02*
X6850000D01*
G01X7030000Y6650000D02*
X6830000D01*
Y6980000D01*
X7030000D01*
Y6650000D01*
G01X7260000Y7040000D02*
X7060000D01*
Y7370000D01*
X7260000D01*
Y7040000D01*
G01X7010000Y7010000D02*
X6850000D01*
G01X7030000Y7040000D02*
X6830000D01*
Y7370000D01*
X7030000D01*
Y7040000D01*
G01X7060000Y7750000D02*
X7260000D01*
Y7420000D01*
X7060000D01*
Y7750000D01*
G01X6830000D02*
X7030000D01*
Y7420000D01*
X6830000D01*
Y7750000D01*
G01X6850000Y7780000D02*
X7010000D01*
G01X7240000Y6230000D02*
X7080000D01*
G01X7240000Y6620000D02*
X7080000D01*
G01X7240000Y7010000D02*
X7080000D01*
G01Y7780000D02*
X7240000D01*
G01X7160000Y8510000D02*
Y7980000D01*
X7340000D01*
Y7910000D01*
X8060000D01*
Y7980000D01*
X8240000D01*
Y8510000D01*
X8060000D01*
Y8590000D01*
X7340000D01*
Y8510000D01*
X7160000D01*
G01X7490000Y9380000D02*
X7330000D01*
G01X7510000Y9410000D02*
X7310000D01*
Y9740000D01*
X7510000D01*
Y9410000D01*
G01X8150000Y280000D02*
X8100000Y330000D01*
X7600000D01*
Y70000D01*
X8150000D01*
Y280000D01*
G01X7400000Y1890000D02*
X7600000D01*
Y1560000D01*
X7400000D01*
Y1890000D01*
G01X7420000Y1920000D02*
X7580000D01*
G01X7790000Y1420000D02*
X8210000D01*
Y560000D01*
X7790000D01*
Y1420000D01*
G01X7820000Y890000D02*
X8180000D01*
X8000000Y1070000D01*
X7820000Y890000D01*
G01Y1070000D02*
X8180000D01*
G01X7790000Y1460000D02*
X8210000D01*
G01X7650000Y1890000D02*
X7850000D01*
Y1560000D01*
X7650000D01*
Y1890000D01*
G01X7670000Y1920000D02*
X7830000D01*
G01X8090000Y6590000D02*
X8010000Y6510000D01*
X7660000D01*
Y7590000D01*
X8090000D01*
Y6590000D01*
G01X8800000Y2980000D02*
X8770000Y3010000D01*
X8070000D01*
Y2790000D01*
X8800000D01*
Y2980000D01*
G01X8200000Y330000D02*
Y70000D01*
G01X8340000Y3440000D02*
X8520000D01*
Y3140000D01*
X8340000D01*
Y3440000D01*
G01X8350000Y3480000D02*
X8510000D01*
G01X8310000Y5850000D02*
Y6010000D01*
G01X8340000Y5830000D02*
Y6030000D01*
X8670000D01*
Y5830000D01*
X8340000D01*
G01X8670000Y6280000D02*
Y6140000D01*
X8570000D01*
Y6100000D01*
X8290000D01*
Y6140000D01*
X8190000D01*
Y6280000D01*
X8290000D01*
Y6320000D01*
X8570000D01*
Y6280000D01*
X8670000D01*
G01X8390000Y6130000D02*
Y6290000D01*
X8470000Y6210000D01*
X8390000Y6130000D01*
G01X8580000Y1390000D02*
Y1550000D01*
G01X8610000Y1370000D02*
Y1570000D01*
X8940000D01*
Y1370000D01*
X8610000D01*
G01X8730000Y3090000D02*
X8570000D01*
G01X8750000Y3120000D02*
X8550000D01*
Y3450000D01*
X8750000D01*
Y3120000D01*
G01X8480000Y6290000D02*
Y6130000D01*
G01X8450000Y6600000D02*
Y6760000D01*
G01X8480000Y6580000D02*
Y6780000D01*
X8810000D01*
Y6580000D01*
X8480000D01*
G01X8450000Y6900000D02*
Y7060000D01*
G01X8480000Y6880000D02*
Y7080000D01*
X8810000D01*
Y6880000D01*
X8480000D01*
G01X8450000Y7200000D02*
Y7360000D01*
G01X8480000Y7180000D02*
Y7380000D01*
X8810000D01*
Y7180000D01*
X8480000D01*
G01X8450000Y7500000D02*
Y7660000D01*
G01X8480000Y7480000D02*
Y7680000D01*
X8810000D01*
Y7480000D01*
X8480000D01*
G01X8840000Y3450000D02*
X8980000D01*
Y3350000D01*
X9020000D01*
Y3070000D01*
X8980000D01*
Y2970000D01*
X8840000D01*
Y3070000D01*
X8800000D01*
Y3350000D01*
X8840000D01*
Y3450000D01*
G01X8990000Y3170000D02*
X8830000D01*
X8910000Y3250000D01*
X8990000Y3170000D01*
G01X8830000Y3260000D02*
X8990000D01*
G01X8840000Y5840000D02*
Y6020000D01*
X9140000D01*
Y5840000D01*
X8840000D01*
G01X8800000Y5850000D02*
Y6010000D01*
G01X9090000Y1270000D02*
X9310000D01*
Y860000D01*
X9090000D01*
Y1270000D01*
G01X9100000Y1310000D02*
X9300000D01*
G01X9890000Y1080000D02*
X9510000D01*
Y1420000D01*
X9440000D01*
Y1780000D01*
X9510000D01*
Y2120000D01*
X9890000D01*
G01X9840000Y2860000D02*
Y5810000D01*
X9560000D01*
Y2860000D01*
X9840000D01*
G01Y6360000D02*
Y9310000D01*
X9560000D01*
Y6360000D01*
X9840000D01*
G01X80000Y0D02*
X9920000D01*
G03X10000000Y80000I0J80000D01*
G01Y9920000D01*
G03X9920000Y10000000I-80000J0D01*
G01X80000D01*
G03X0Y9920000I0J-80000D01*
G01Y80000D01*
G03X80000Y0I80000J0D01*
G01X573100Y7344500D02*
X583700Y7357300D01*
X590000Y7371800D01*
Y7384700D01*
X583700Y7397600D01*
X573100Y7407200D01*
X558200Y7412000D01*
X543400Y7408800D01*
X530700Y7400800D01*
X522300Y7386300D01*
X518000Y7367000D01*
X509600Y7355700D01*
X494800Y7350900D01*
X479900Y7354100D01*
X469400Y7362200D01*
X463000Y7373400D01*
Y7384700D01*
X467200Y7395900D01*
X477800Y7405600D01*
G01X590000Y7474000D02*
X463000D01*
G01Y7541500D02*
X590000D01*
G01X526500D02*
Y7474000D01*
G01X547700Y7616300D02*
Y7658200D01*
G01X463000Y7736200D02*
Y7797300D01*
X590000Y7736200D01*
Y7797300D01*
G01X547700Y7875300D02*
Y7917200D01*
G01X463000Y8025700D02*
X467200Y8012900D01*
X477800Y8003200D01*
X490500Y7996800D01*
X507500Y7992000D01*
X526500Y7990400D01*
X545600Y7992000D01*
X562500Y7996800D01*
X575200Y8003200D01*
X585800Y8012900D01*
X590000Y8025700D01*
X585800Y8038600D01*
X575200Y8048300D01*
X562500Y8054700D01*
X545600Y8059500D01*
X526500Y8061100D01*
X507500Y8059500D01*
X490500Y8054700D01*
X477800Y8048300D01*
X467200Y8038600D01*
X463000Y8025700D01*
G01Y8155200D02*
X467200Y8142400D01*
X477800Y8132700D01*
X490500Y8126300D01*
X507500Y8121500D01*
X526500Y8119900D01*
X545600Y8121500D01*
X562500Y8126300D01*
X575200Y8132700D01*
X585800Y8142400D01*
X590000Y8155200D01*
X585800Y8168100D01*
X575200Y8177800D01*
X562500Y8184200D01*
X545600Y8189000D01*
X526500Y8190600D01*
X507500Y8189000D01*
X490500Y8184200D01*
X477800Y8177800D01*
X467200Y8168100D01*
X463000Y8155200D01*
G01X484200Y8254200D02*
X471500Y8263800D01*
X465100Y8275100D01*
X463000Y8288000D01*
X467200Y8304100D01*
X477800Y8315300D01*
X490500Y8318500D01*
X503200Y8316900D01*
X513800Y8310500D01*
X535000Y8278300D01*
X549800Y8263800D01*
X571000Y8254200D01*
X590000Y8251000D01*
Y8318500D01*
G01X724200Y7357700D02*
X711500Y7367300D01*
X705100Y7378600D01*
X703000Y7391500D01*
X707200Y7407600D01*
X717800Y7418800D01*
X730500Y7422000D01*
X743200Y7420400D01*
X753800Y7414000D01*
X775000Y7381800D01*
X789800Y7367300D01*
X811000Y7357700D01*
X830000Y7354500D01*
Y7422000D01*
G01X703000Y7517700D02*
X707200Y7504900D01*
X717800Y7495200D01*
X730500Y7488800D01*
X747500Y7484000D01*
X766500Y7482400D01*
X785600Y7484000D01*
X802500Y7488800D01*
X815200Y7495200D01*
X825800Y7504900D01*
X830000Y7517700D01*
X825800Y7530600D01*
X815200Y7540300D01*
X802500Y7546700D01*
X785600Y7551500D01*
X766500Y7553100D01*
X747500Y7551500D01*
X730500Y7546700D01*
X717800Y7540300D01*
X707200Y7530600D01*
X703000Y7517700D01*
G01X830000Y7647200D02*
X703000D01*
X728400Y7627900D01*
G01X830000D02*
Y7666500D01*
G01Y7776700D02*
X827900Y7788000D01*
X821500Y7800900D01*
X811000Y7808900D01*
X796100Y7812100D01*
X781300Y7808900D01*
X768600Y7799300D01*
X762300Y7784800D01*
Y7768700D01*
X758000Y7759100D01*
X747500Y7751000D01*
X732600Y7747800D01*
X717800Y7752600D01*
X707200Y7763900D01*
X703000Y7776700D01*
X707200Y7789600D01*
X717800Y7800900D01*
X732600Y7805700D01*
X747500Y7802500D01*
X758000Y7794400D01*
X762300Y7784800D01*
Y7768700D01*
X768600Y7754200D01*
X781300Y7744600D01*
X796100Y7741400D01*
X811000Y7744600D01*
X821500Y7752600D01*
X827900Y7765500D01*
X830000Y7776700D01*
G01X703000Y7906200D02*
X707200Y7893400D01*
X717800Y7883700D01*
X730500Y7877300D01*
X747500Y7872500D01*
X766500Y7870900D01*
X785600Y7872500D01*
X802500Y7877300D01*
X815200Y7883700D01*
X825800Y7893400D01*
X830000Y7906200D01*
X825800Y7919100D01*
X815200Y7928800D01*
X802500Y7935200D01*
X785600Y7940000D01*
X766500Y7941600D01*
X747500Y7940000D01*
X730500Y7935200D01*
X717800Y7928800D01*
X707200Y7919100D01*
X703000Y7906200D01*
G01X811000Y8000400D02*
X821500Y8010000D01*
X827900Y8021300D01*
X830000Y8035700D01*
X825800Y8050200D01*
X817300Y8061500D01*
X802500Y8069500D01*
X785600Y8071100D01*
X768600Y8067900D01*
X758000Y8059900D01*
X749600Y8048600D01*
X747500Y8037400D01*
X749600Y8026100D01*
X758000Y8011600D01*
X703000Y8016400D01*
Y8059900D01*
G01Y8165200D02*
X707200Y8152400D01*
X717800Y8142700D01*
X730500Y8136300D01*
X747500Y8131500D01*
X766500Y8129900D01*
X785600Y8131500D01*
X802500Y8136300D01*
X815200Y8142700D01*
X825800Y8152400D01*
X830000Y8165200D01*
X825800Y8178100D01*
X815200Y8187800D01*
X802500Y8194200D01*
X785600Y8199000D01*
X766500Y8200600D01*
X747500Y8199000D01*
X730500Y8194200D01*
X717800Y8187800D01*
X707200Y8178100D01*
X703000Y8165200D01*
G01X811000Y8259400D02*
X821500Y8269000D01*
X827900Y8280300D01*
X830000Y8294700D01*
X825800Y8309200D01*
X817300Y8320500D01*
X802500Y8328500D01*
X785600Y8330100D01*
X768600Y8326900D01*
X758000Y8318900D01*
X749600Y8307600D01*
X747500Y8296400D01*
X749600Y8285100D01*
X758000Y8270600D01*
X703000Y8275400D01*
Y8318900D01*
G01X965300Y7359300D02*
X1050000Y7388200D01*
X965300Y7417200D01*
G01X1050000Y7647200D02*
X923000D01*
X948400Y7627900D01*
G01X1050000D02*
Y7666500D01*
G01X1054200Y7776700D02*
X1052100Y7773500D01*
X1047900D01*
X1045800Y7776700D01*
X1047900Y7780000D01*
X1052100D01*
X1054200Y7776700D01*
G01X923000Y7906200D02*
X927200Y7893400D01*
X937800Y7883700D01*
X950500Y7877300D01*
X967500Y7872500D01*
X986500Y7870900D01*
X1005600Y7872500D01*
X1022500Y7877300D01*
X1035200Y7883700D01*
X1045800Y7893400D01*
X1050000Y7906200D01*
X1045800Y7919100D01*
X1035200Y7928800D01*
X1022500Y7935200D01*
X1005600Y7940000D01*
X986500Y7941600D01*
X967500Y7940000D01*
X950500Y7935200D01*
X937800Y7928800D01*
X927200Y7919100D01*
X923000Y7906200D01*
G01X1466100Y985400D02*
X1474100Y972700D01*
X1483800Y964200D01*
X1495000Y960000D01*
X1507900Y964200D01*
X1517600Y972700D01*
X1527200Y985400D01*
X1530400Y1002300D01*
Y1087000D01*
G01X1597200Y1065800D02*
X1606800Y1078500D01*
X1618100Y1084900D01*
X1631000Y1087000D01*
X1647100Y1082800D01*
X1658300Y1072200D01*
X1661500Y1059500D01*
X1659900Y1046800D01*
X1653500Y1036200D01*
X1621300Y1015000D01*
X1606800Y1000200D01*
X1597200Y979000D01*
X1594000Y960000D01*
X1661500D01*
G01X1376100Y5355400D02*
X1384100Y5342700D01*
X1393800Y5334200D01*
X1405000Y5330000D01*
X1417900Y5334200D01*
X1427600Y5342700D01*
X1437200Y5355400D01*
X1440400Y5372300D01*
Y5457000D01*
G01X1537700Y5330000D02*
Y5457000D01*
X1518400Y5431600D01*
G01Y5330000D02*
X1557000D01*
G01X1933600Y7256400D02*
X1924000Y7262800D01*
X1912700Y7267000D01*
X1899900D01*
X1885400Y7260600D01*
X1874100Y7250100D01*
X1866100Y7237400D01*
X1859600Y7216200D01*
X1858000Y7197100D01*
X1861300Y7178100D01*
X1866100Y7165400D01*
X1875700Y7152700D01*
X1887000Y7144200D01*
X1898200Y7140000D01*
X1909500D01*
X1920800Y7144200D01*
X1930400Y7150600D01*
X1938500Y7159000D01*
G01X1992400Y7165400D02*
X2002000Y7150600D01*
X2014900Y7142100D01*
X2029400Y7140000D01*
X2042200Y7142100D01*
X2055100Y7152700D01*
X2063100Y7165400D01*
X2064700Y7178100D01*
X2061500Y7192900D01*
X2050300Y7203500D01*
X2039000Y7207700D01*
X2024500D01*
G01X2039000D02*
X2048700Y7214100D01*
X2056700Y7224700D01*
X2059900Y7237400D01*
X2056700Y7250100D01*
X2048700Y7260600D01*
X2034200Y7267000D01*
X2019700Y7264900D01*
X2005200Y7256400D01*
G01X2121900Y7159000D02*
X2131500Y7148500D01*
X2142800Y7142100D01*
X2157200Y7140000D01*
X2171700Y7144200D01*
X2183000Y7152700D01*
X2191000Y7167500D01*
X2192600Y7184400D01*
X2189400Y7201400D01*
X2181400Y7212000D01*
X2170100Y7220400D01*
X2158900Y7222500D01*
X2147600Y7220400D01*
X2133100Y7212000D01*
X2137900Y7267000D01*
X2181400D01*
G01X1903600Y7986400D02*
X1894000Y7992800D01*
X1882700Y7997000D01*
X1869900D01*
X1855400Y7990600D01*
X1844100Y7980100D01*
X1836100Y7967400D01*
X1829600Y7946200D01*
X1828000Y7927100D01*
X1831300Y7908100D01*
X1836100Y7895400D01*
X1845700Y7882700D01*
X1857000Y7874200D01*
X1868200Y7870000D01*
X1879500D01*
X1890800Y7874200D01*
X1900400Y7880600D01*
X1908500Y7889000D01*
G01X1962400Y7895400D02*
X1972000Y7880600D01*
X1984900Y7872100D01*
X1999400Y7870000D01*
X2012200Y7872100D01*
X2025100Y7882700D01*
X2033100Y7895400D01*
X2034700Y7908100D01*
X2031500Y7922900D01*
X2020300Y7933500D01*
X2009000Y7937700D01*
X1994500D01*
G01X2009000D02*
X2018700Y7944100D01*
X2026700Y7954700D01*
X2029900Y7967400D01*
X2026700Y7980100D01*
X2018700Y7990600D01*
X2004200Y7997000D01*
X1989700Y7994900D01*
X1975200Y7986400D01*
G01X2091900Y7895400D02*
X2101500Y7880600D01*
X2114400Y7872100D01*
X2128900Y7870000D01*
X2141700Y7872100D01*
X2154600Y7882700D01*
X2162600Y7895400D01*
X2164200Y7908100D01*
X2161000Y7922900D01*
X2149800Y7933500D01*
X2138500Y7937700D01*
X2124000D01*
G01X2138500D02*
X2148200Y7944100D01*
X2156200Y7954700D01*
X2159400Y7967400D01*
X2156200Y7980100D01*
X2148200Y7990600D01*
X2133700Y7997000D01*
X2119200Y7994900D01*
X2104700Y7986400D01*
G01X2662900Y2797000D02*
Y2706000D01*
X2669300Y2686900D01*
X2682200Y2674200D01*
X2698200Y2670000D01*
X2714300Y2674200D01*
X2727200Y2686900D01*
X2733600Y2706000D01*
Y2797000D01*
G01X2792400Y2695400D02*
X2802000Y2680600D01*
X2814900Y2672100D01*
X2829400Y2670000D01*
X2842200Y2672100D01*
X2855100Y2682700D01*
X2863100Y2695400D01*
X2864700Y2708100D01*
X2861500Y2722900D01*
X2850300Y2733500D01*
X2839000Y2737700D01*
X2824500D01*
G01X2839000D02*
X2848700Y2744100D01*
X2856700Y2754700D01*
X2859900Y2767400D01*
X2856700Y2780100D01*
X2848700Y2790600D01*
X2834200Y2797000D01*
X2819700Y2794900D01*
X2805200Y2786400D01*
G01X2828200Y8460000D02*
Y8517100D01*
X2796100Y8587000D01*
G01X2860400D02*
X2828200Y8517100D01*
G01X2927200Y8565800D02*
X2936800Y8578500D01*
X2948100Y8584900D01*
X2961000Y8587000D01*
X2977100Y8582800D01*
X2988300Y8572200D01*
X2991500Y8559500D01*
X2989900Y8546800D01*
X2983500Y8536200D01*
X2951300Y8515000D01*
X2936800Y8500200D01*
X2927200Y8479000D01*
X2924000Y8460000D01*
X2991500D01*
G01X2912900Y4917000D02*
Y4826000D01*
X2919300Y4806900D01*
X2932200Y4794200D01*
X2948200Y4790000D01*
X2964300Y4794200D01*
X2977200Y4806900D01*
X2983600Y4826000D01*
Y4917000D01*
G01X3077700Y4790000D02*
Y4917000D01*
X3058400Y4891600D01*
G01Y4790000D02*
X3097000D01*
G01X3263600Y916400D02*
X3254000Y922800D01*
X3242700Y927000D01*
X3229900D01*
X3215400Y920600D01*
X3204100Y910100D01*
X3196100Y897400D01*
X3189600Y876200D01*
X3188000Y857100D01*
X3191300Y838100D01*
X3196100Y825400D01*
X3205700Y812700D01*
X3217000Y804200D01*
X3228200Y800000D01*
X3239500D01*
X3250800Y804200D01*
X3260400Y810600D01*
X3268500Y819000D01*
G01X3357700Y800000D02*
Y927000D01*
X3338400Y901600D01*
G01Y800000D02*
X3377000D01*
G01X3487200D02*
Y927000D01*
X3467900Y901600D01*
G01Y800000D02*
X3506500D01*
G01X3313600Y3506400D02*
X3304000Y3512800D01*
X3292700Y3517000D01*
X3279900D01*
X3265400Y3510600D01*
X3254100Y3500100D01*
X3246100Y3487400D01*
X3239600Y3466200D01*
X3238000Y3447100D01*
X3241300Y3428100D01*
X3246100Y3415400D01*
X3255700Y3402700D01*
X3267000Y3394200D01*
X3278200Y3390000D01*
X3289500D01*
X3300800Y3394200D01*
X3310400Y3400600D01*
X3318500Y3409000D01*
G01X3407700Y3390000D02*
Y3517000D01*
X3388400Y3491600D01*
G01Y3390000D02*
X3427000D01*
G01X3506700Y3442900D02*
X3517900Y3457700D01*
X3527600Y3466200D01*
X3540500Y3470400D01*
X3551700Y3466200D01*
X3559800Y3457700D01*
X3566200Y3445000D01*
X3567800Y3430200D01*
X3566200Y3417500D01*
X3559800Y3404800D01*
X3550100Y3394200D01*
X3538900Y3390000D01*
X3526000Y3394200D01*
X3514700Y3406900D01*
X3508300Y3426000D01*
X3506700Y3447100D01*
X3509900Y3474700D01*
X3514700Y3489500D01*
X3522800Y3504300D01*
X3534000Y3514900D01*
X3545300Y3517000D01*
X3556600Y3512800D01*
X3564600Y3502200D01*
G01X3246100Y7820000D02*
Y7947000D01*
X3286300D01*
X3299200Y7940600D01*
X3307200Y7932200D01*
X3310400Y7915200D01*
X3307200Y7898300D01*
X3297600Y7887700D01*
X3286300Y7881400D01*
X3246100D01*
G01X3286300D02*
X3310400Y7820000D01*
G01X3372400Y7839000D02*
X3382000Y7828500D01*
X3393300Y7822100D01*
X3407700Y7820000D01*
X3422200Y7824200D01*
X3433500Y7832700D01*
X3441500Y7847500D01*
X3443100Y7864400D01*
X3439900Y7881400D01*
X3431900Y7892000D01*
X3420600Y7900400D01*
X3409400Y7902500D01*
X3398100Y7900400D01*
X3383600Y7892000D01*
X3388400Y7947000D01*
X3431900D01*
G01X3537200Y7820000D02*
X3548500Y7822100D01*
X3561400Y7828500D01*
X3569400Y7839000D01*
X3572600Y7853900D01*
X3569400Y7868700D01*
X3559800Y7881400D01*
X3545300Y7887700D01*
X3529200D01*
X3519600Y7892000D01*
X3511500Y7902500D01*
X3508300Y7917400D01*
X3513100Y7932200D01*
X3524400Y7942800D01*
X3537200Y7947000D01*
X3550100Y7942800D01*
X3561400Y7932200D01*
X3566200Y7917400D01*
X3563000Y7902500D01*
X3554900Y7892000D01*
X3545300Y7887700D01*
X3529200D01*
X3514700Y7881400D01*
X3505100Y7868700D01*
X3501900Y7853900D01*
X3505100Y7839000D01*
X3513100Y7828500D01*
X3526000Y7822100D01*
X3537200Y7820000D01*
G01X3556100Y6120000D02*
Y6247000D01*
X3596300D01*
X3609200Y6240600D01*
X3617200Y6232200D01*
X3620400Y6215200D01*
X3617200Y6198300D01*
X3607600Y6187700D01*
X3596300Y6181400D01*
X3556100D01*
G01X3596300D02*
X3620400Y6120000D01*
G01X3687200Y6172900D02*
X3698400Y6187700D01*
X3708100Y6196200D01*
X3721000Y6200400D01*
X3732200Y6196200D01*
X3740300Y6187700D01*
X3746700Y6175000D01*
X3748300Y6160200D01*
X3746700Y6147500D01*
X3740300Y6134800D01*
X3730600Y6124200D01*
X3719400Y6120000D01*
X3706500Y6124200D01*
X3695200Y6136900D01*
X3688800Y6156000D01*
X3687200Y6177100D01*
X3690400Y6204700D01*
X3695200Y6219500D01*
X3703300Y6234300D01*
X3714500Y6244900D01*
X3725800Y6247000D01*
X3737100Y6242800D01*
X3745100Y6232200D01*
G01X3847200Y6247000D02*
X3834400Y6242800D01*
X3824700Y6232200D01*
X3818300Y6219500D01*
X3813500Y6202500D01*
X3811900Y6183500D01*
X3813500Y6164400D01*
X3818300Y6147500D01*
X3824700Y6134800D01*
X3834400Y6124200D01*
X3847200Y6120000D01*
X3860100Y6124200D01*
X3869800Y6134800D01*
X3876200Y6147500D01*
X3881000Y6164400D01*
X3882600Y6183500D01*
X3881000Y6202500D01*
X3876200Y6219500D01*
X3869800Y6232200D01*
X3860100Y6242800D01*
X3847200Y6247000D01*
G01X3486100Y6857000D02*
Y6730000D01*
X3550400D01*
G01X3617200Y6782900D02*
X3628400Y6797700D01*
X3638100Y6806200D01*
X3651000Y6810400D01*
X3662200Y6806200D01*
X3670300Y6797700D01*
X3676700Y6785000D01*
X3678300Y6770200D01*
X3676700Y6757500D01*
X3670300Y6744800D01*
X3660600Y6734200D01*
X3649400Y6730000D01*
X3636500Y6734200D01*
X3625200Y6746900D01*
X3618800Y6766000D01*
X3617200Y6787100D01*
X3620400Y6814700D01*
X3625200Y6829500D01*
X3633300Y6844300D01*
X3644500Y6854900D01*
X3655800Y6857000D01*
X3667100Y6852800D01*
X3675100Y6842200D01*
G01X3453000Y7156100D02*
X3580000D01*
Y7220400D01*
G01X3561000Y7282400D02*
X3571500Y7292000D01*
X3577900Y7303300D01*
X3580000Y7317700D01*
X3575800Y7332200D01*
X3567300Y7343500D01*
X3552500Y7351500D01*
X3535600Y7353100D01*
X3518600Y7349900D01*
X3508000Y7341900D01*
X3499600Y7330600D01*
X3497500Y7319400D01*
X3499600Y7308100D01*
X3508000Y7293600D01*
X3453000Y7298400D01*
Y7341900D01*
G01X3633600Y8133600D02*
X3627200Y8124000D01*
X3623000Y8112700D01*
Y8099900D01*
X3629400Y8085400D01*
X3639900Y8074100D01*
X3652600Y8066100D01*
X3673800Y8059600D01*
X3692900Y8058000D01*
X3711900Y8061300D01*
X3724600Y8066100D01*
X3737300Y8075700D01*
X3745800Y8087000D01*
X3750000Y8098200D01*
Y8109500D01*
X3745800Y8120800D01*
X3739400Y8130400D01*
X3731000Y8138500D01*
G01X3644200Y8197200D02*
X3631500Y8206800D01*
X3625100Y8218100D01*
X3623000Y8231000D01*
X3627200Y8247100D01*
X3637800Y8258300D01*
X3650500Y8261500D01*
X3663200Y8259900D01*
X3673800Y8253500D01*
X3695000Y8221300D01*
X3709800Y8206800D01*
X3731000Y8197200D01*
X3750000Y8194000D01*
Y8261500D01*
G01Y8357200D02*
X3747900Y8368500D01*
X3741500Y8381400D01*
X3731000Y8389400D01*
X3716100Y8392600D01*
X3701300Y8389400D01*
X3688600Y8379800D01*
X3682300Y8365300D01*
Y8349200D01*
X3678000Y8339600D01*
X3667500Y8331500D01*
X3652600Y8328300D01*
X3637800Y8333100D01*
X3627200Y8344400D01*
X3623000Y8357200D01*
X3627200Y8370100D01*
X3637800Y8381400D01*
X3652600Y8386200D01*
X3667500Y8383000D01*
X3678000Y8374900D01*
X3682300Y8365300D01*
Y8349200D01*
X3688600Y8334700D01*
X3701300Y8325100D01*
X3716100Y8321900D01*
X3731000Y8325100D01*
X3741500Y8333100D01*
X3747900Y8346000D01*
X3750000Y8357200D01*
G01X3853600Y8293600D02*
X3847200Y8284000D01*
X3843000Y8272700D01*
Y8259900D01*
X3849400Y8245400D01*
X3859900Y8234100D01*
X3872600Y8226100D01*
X3893800Y8219600D01*
X3912900Y8218000D01*
X3931900Y8221300D01*
X3944600Y8226100D01*
X3957300Y8235700D01*
X3965800Y8247000D01*
X3970000Y8258200D01*
Y8269500D01*
X3965800Y8280800D01*
X3959400Y8290400D01*
X3951000Y8298500D01*
G01X3864200Y8357200D02*
X3851500Y8366800D01*
X3845100Y8378100D01*
X3843000Y8391000D01*
X3847200Y8407100D01*
X3857800Y8418300D01*
X3870500Y8421500D01*
X3883200Y8419900D01*
X3893800Y8413500D01*
X3915000Y8381300D01*
X3929800Y8366800D01*
X3951000Y8357200D01*
X3970000Y8354000D01*
Y8421500D01*
G01X3951000Y8481900D02*
X3961500Y8491500D01*
X3967900Y8502800D01*
X3970000Y8517200D01*
X3965800Y8531700D01*
X3957300Y8543000D01*
X3942500Y8551000D01*
X3925600Y8552600D01*
X3908600Y8549400D01*
X3898000Y8541400D01*
X3889600Y8530100D01*
X3887500Y8518900D01*
X3889600Y8507600D01*
X3898000Y8493100D01*
X3843000Y8497900D01*
Y8541400D01*
G01X3893600Y9096400D02*
X3884000Y9102800D01*
X3872700Y9107000D01*
X3859900D01*
X3845400Y9100600D01*
X3834100Y9090100D01*
X3826100Y9077400D01*
X3819600Y9056200D01*
X3818000Y9037100D01*
X3821300Y9018100D01*
X3826100Y9005400D01*
X3835700Y8992700D01*
X3847000Y8984200D01*
X3858200Y8980000D01*
X3869500D01*
X3880800Y8984200D01*
X3890400Y8990600D01*
X3898500Y8999000D01*
G01X3952400Y9005400D02*
X3962000Y8990600D01*
X3974900Y8982100D01*
X3989400Y8980000D01*
X4002200Y8982100D01*
X4015100Y8992700D01*
X4023100Y9005400D01*
X4024700Y9018100D01*
X4021500Y9032900D01*
X4010300Y9043500D01*
X3999000Y9047700D01*
X3984500D01*
G01X3999000D02*
X4008700Y9054100D01*
X4016700Y9064700D01*
X4019900Y9077400D01*
X4016700Y9090100D01*
X4008700Y9100600D01*
X3994200Y9107000D01*
X3979700Y9104900D01*
X3965200Y9096400D01*
G01X4086700Y9032900D02*
X4097900Y9047700D01*
X4107600Y9056200D01*
X4120500Y9060400D01*
X4131700Y9056200D01*
X4139800Y9047700D01*
X4146200Y9035000D01*
X4147800Y9020200D01*
X4146200Y9007500D01*
X4139800Y8994800D01*
X4130100Y8984200D01*
X4118900Y8980000D01*
X4106000Y8984200D01*
X4094700Y8996900D01*
X4088300Y9016000D01*
X4086700Y9037100D01*
X4089900Y9064700D01*
X4094700Y9079500D01*
X4102800Y9094300D01*
X4114000Y9104900D01*
X4125300Y9107000D01*
X4136600Y9102800D01*
X4144600Y9092200D01*
G01X4173600Y5906400D02*
X4164000Y5912800D01*
X4152700Y5917000D01*
X4139900D01*
X4125400Y5910600D01*
X4114100Y5900100D01*
X4106100Y5887400D01*
X4099600Y5866200D01*
X4098000Y5847100D01*
X4101300Y5828100D01*
X4106100Y5815400D01*
X4115700Y5802700D01*
X4127000Y5794200D01*
X4138200Y5790000D01*
X4149500D01*
X4160800Y5794200D01*
X4170400Y5800600D01*
X4178500Y5809000D01*
G01X4232400D02*
X4242000Y5798500D01*
X4253300Y5792100D01*
X4267700Y5790000D01*
X4282200Y5794200D01*
X4293500Y5802700D01*
X4301500Y5817500D01*
X4303100Y5834400D01*
X4299900Y5851400D01*
X4291900Y5862000D01*
X4280600Y5870400D01*
X4269400Y5872500D01*
X4258100Y5870400D01*
X4243600Y5862000D01*
X4248400Y5917000D01*
X4291900D01*
G01X4397200D02*
X4384400Y5912800D01*
X4374700Y5902200D01*
X4368300Y5889500D01*
X4363500Y5872500D01*
X4361900Y5853500D01*
X4363500Y5834400D01*
X4368300Y5817500D01*
X4374700Y5804800D01*
X4384400Y5794200D01*
X4397200Y5790000D01*
X4410100Y5794200D01*
X4419800Y5804800D01*
X4426200Y5817500D01*
X4431000Y5834400D01*
X4432600Y5853500D01*
X4431000Y5872500D01*
X4426200Y5889500D01*
X4419800Y5902200D01*
X4410100Y5912800D01*
X4397200Y5917000D01*
G01X4036100Y9675400D02*
X4044100Y9662700D01*
X4053800Y9654200D01*
X4065000Y9650000D01*
X4077900Y9654200D01*
X4087600Y9662700D01*
X4097200Y9675400D01*
X4100400Y9692300D01*
Y9777000D01*
G01X4194500Y9650000D02*
X4197700Y9677500D01*
X4202600Y9700800D01*
X4209000Y9722000D01*
X4217100Y9745200D01*
X4229900Y9777000D01*
X4165600D01*
G01X4223600Y3136400D02*
X4214000Y3142800D01*
X4202700Y3147000D01*
X4189900D01*
X4175400Y3140600D01*
X4164100Y3130100D01*
X4156100Y3117400D01*
X4149600Y3096200D01*
X4148000Y3077100D01*
X4151300Y3058100D01*
X4156100Y3045400D01*
X4165700Y3032700D01*
X4177000Y3024200D01*
X4188200Y3020000D01*
X4199500D01*
X4210800Y3024200D01*
X4220400Y3030600D01*
X4228500Y3039000D01*
G01X4287200Y3072900D02*
X4298400Y3087700D01*
X4308100Y3096200D01*
X4321000Y3100400D01*
X4332200Y3096200D01*
X4340300Y3087700D01*
X4346700Y3075000D01*
X4348300Y3060200D01*
X4346700Y3047500D01*
X4340300Y3034800D01*
X4330600Y3024200D01*
X4319400Y3020000D01*
X4306500Y3024200D01*
X4295200Y3036900D01*
X4288800Y3056000D01*
X4287200Y3077100D01*
X4290400Y3104700D01*
X4295200Y3119500D01*
X4303300Y3134300D01*
X4314500Y3144900D01*
X4325800Y3147000D01*
X4337100Y3142800D01*
X4345100Y3132200D01*
G01X4223600Y3386400D02*
X4214000Y3392800D01*
X4202700Y3397000D01*
X4189900D01*
X4175400Y3390600D01*
X4164100Y3380100D01*
X4156100Y3367400D01*
X4149600Y3346200D01*
X4148000Y3327100D01*
X4151300Y3308100D01*
X4156100Y3295400D01*
X4165700Y3282700D01*
X4177000Y3274200D01*
X4188200Y3270000D01*
X4199500D01*
X4210800Y3274200D01*
X4220400Y3280600D01*
X4228500Y3289000D01*
G01X4290400Y3284800D02*
X4301700Y3274200D01*
X4314500Y3270000D01*
X4327400Y3274200D01*
X4338700Y3286900D01*
X4346700Y3306000D01*
X4349900Y3325000D01*
Y3348300D01*
X4346700Y3367400D01*
X4338700Y3384300D01*
X4329000Y3392800D01*
X4317700Y3397000D01*
X4304900Y3392800D01*
X4295200Y3384300D01*
X4288800Y3371600D01*
X4285600Y3354700D01*
X4288800Y3339900D01*
X4296800Y3325000D01*
X4306500Y3316600D01*
X4317700Y3314400D01*
X4330600Y3318700D01*
X4340300Y3329300D01*
X4349900Y3348300D01*
G01X4253600Y5686400D02*
X4244000Y5692800D01*
X4232700Y5697000D01*
X4219900D01*
X4205400Y5690600D01*
X4194100Y5680100D01*
X4186100Y5667400D01*
X4179600Y5646200D01*
X4178000Y5627100D01*
X4181300Y5608100D01*
X4186100Y5595400D01*
X4195700Y5582700D01*
X4207000Y5574200D01*
X4218200Y5570000D01*
X4229500D01*
X4240800Y5574200D01*
X4250400Y5580600D01*
X4258500Y5589000D01*
G01X4312400D02*
X4322000Y5578500D01*
X4333300Y5572100D01*
X4347700Y5570000D01*
X4362200Y5574200D01*
X4373500Y5582700D01*
X4381500Y5597500D01*
X4383100Y5614400D01*
X4379900Y5631400D01*
X4371900Y5642000D01*
X4360600Y5650400D01*
X4349400Y5652500D01*
X4338100Y5650400D01*
X4323600Y5642000D01*
X4328400Y5697000D01*
X4371900D01*
G01X4477200Y5570000D02*
Y5697000D01*
X4457900Y5671600D01*
G01Y5570000D02*
X4496500D01*
G01X4277900Y6060600D02*
X4273900Y6054800D01*
X4271300Y6048000D01*
Y6040200D01*
X4275200Y6031400D01*
X4281800Y6024600D01*
X4289700Y6019700D01*
X4302800Y6015800D01*
X4314600Y6014900D01*
X4326400Y6016800D01*
X4334300Y6019700D01*
X4342100Y6025600D01*
X4347400Y6032400D01*
X4350000Y6039200D01*
Y6046000D01*
X4347400Y6052800D01*
X4343400Y6058700D01*
X4338200Y6063500D01*
G01X4350000Y6129600D02*
X4271300D01*
X4327700Y6093600D01*
Y6142200D01*
G01X4340800Y6180100D02*
X4347400Y6186900D01*
X4350000Y6194700D01*
X4347400Y6202400D01*
X4339500Y6209300D01*
X4327700Y6214100D01*
X4315900Y6216100D01*
X4301500D01*
X4289700Y6214100D01*
X4279200Y6209300D01*
X4273900Y6203400D01*
X4271300Y6196600D01*
X4273900Y6188800D01*
X4279200Y6183000D01*
X4287000Y6179100D01*
X4297500Y6177100D01*
X4306700Y6179100D01*
X4315900Y6183900D01*
X4321100Y6189800D01*
X4322500Y6196600D01*
X4319800Y6204400D01*
X4313300Y6210200D01*
X4301500Y6216100D01*
G01X4223600Y6656400D02*
X4214000Y6662800D01*
X4202700Y6667000D01*
X4189900D01*
X4175400Y6660600D01*
X4164100Y6650100D01*
X4156100Y6637400D01*
X4149600Y6616200D01*
X4148000Y6597100D01*
X4151300Y6578100D01*
X4156100Y6565400D01*
X4165700Y6552700D01*
X4177000Y6544200D01*
X4188200Y6540000D01*
X4199500D01*
X4210800Y6544200D01*
X4220400Y6550600D01*
X4228500Y6559000D01*
G01X4337100Y6540000D02*
Y6667000D01*
X4277500Y6576000D01*
X4358000D01*
G01X4447200Y6540000D02*
X4458500Y6542100D01*
X4471400Y6548500D01*
X4479400Y6559000D01*
X4482600Y6573900D01*
X4479400Y6588700D01*
X4469800Y6601400D01*
X4455300Y6607700D01*
X4439200D01*
X4429600Y6612000D01*
X4421500Y6622500D01*
X4418300Y6637400D01*
X4423100Y6652200D01*
X4434400Y6662800D01*
X4447200Y6667000D01*
X4460100Y6662800D01*
X4471400Y6652200D01*
X4476200Y6637400D01*
X4473000Y6622500D01*
X4464900Y6612000D01*
X4455300Y6607700D01*
X4439200D01*
X4424700Y6601400D01*
X4415100Y6588700D01*
X4411900Y6573900D01*
X4415100Y6559000D01*
X4423100Y6548500D01*
X4436000Y6542100D01*
X4447200Y6540000D01*
G01X4157900Y6850600D02*
X4153900Y6844800D01*
X4151300Y6838000D01*
Y6830200D01*
X4155200Y6821400D01*
X4161800Y6814600D01*
X4169700Y6809700D01*
X4182800Y6805800D01*
X4194600Y6804900D01*
X4206400Y6806800D01*
X4214300Y6809700D01*
X4222100Y6815600D01*
X4227400Y6822400D01*
X4230000Y6829200D01*
Y6836000D01*
X4227400Y6842800D01*
X4223400Y6848700D01*
X4218200Y6853500D01*
G01X4230000Y6919600D02*
X4151300D01*
X4207700Y6883600D01*
Y6932200D01*
G01X4164400Y6968100D02*
X4156500Y6973900D01*
X4152600Y6980800D01*
X4151300Y6988500D01*
X4153900Y6998300D01*
X4160500Y7005100D01*
X4168400Y7007000D01*
X4176200Y7006100D01*
X4182800Y7002200D01*
X4195900Y6982700D01*
X4205100Y6973900D01*
X4218200Y6968100D01*
X4230000Y6966200D01*
Y7007000D01*
G01X4147900Y7400600D02*
X4143900Y7394800D01*
X4141300Y7388000D01*
Y7380200D01*
X4145200Y7371400D01*
X4151800Y7364600D01*
X4159700Y7359700D01*
X4172800Y7355800D01*
X4184600Y7354900D01*
X4196400Y7356800D01*
X4204300Y7359700D01*
X4212100Y7365600D01*
X4217400Y7372400D01*
X4220000Y7379200D01*
Y7386000D01*
X4217400Y7392800D01*
X4213400Y7398700D01*
X4208200Y7403500D01*
G01X4220000Y7469600D02*
X4141300D01*
X4197700Y7433600D01*
Y7482200D01*
G01X4220000Y7536600D02*
X4141300D01*
X4157000Y7524900D01*
G01X4220000D02*
Y7548300D01*
G01X4443600Y9146400D02*
X4434000Y9152800D01*
X4422700Y9157000D01*
X4409900D01*
X4395400Y9150600D01*
X4384100Y9140100D01*
X4376100Y9127400D01*
X4369600Y9106200D01*
X4368000Y9087100D01*
X4371300Y9068100D01*
X4376100Y9055400D01*
X4385700Y9042700D01*
X4397000Y9034200D01*
X4408200Y9030000D01*
X4419500D01*
X4430800Y9034200D01*
X4440400Y9040600D01*
X4448500Y9049000D01*
G01X4507200Y9135800D02*
X4516800Y9148500D01*
X4528100Y9154900D01*
X4541000Y9157000D01*
X4557100Y9152800D01*
X4568300Y9142200D01*
X4571500Y9129500D01*
X4569900Y9116800D01*
X4563500Y9106200D01*
X4531300Y9085000D01*
X4516800Y9070200D01*
X4507200Y9049000D01*
X4504000Y9030000D01*
X4571500D01*
G01X4639900Y9044800D02*
X4651200Y9034200D01*
X4664000Y9030000D01*
X4676900Y9034200D01*
X4688200Y9046900D01*
X4696200Y9066000D01*
X4699400Y9085000D01*
Y9108300D01*
X4696200Y9127400D01*
X4688200Y9144300D01*
X4678500Y9152800D01*
X4667200Y9157000D01*
X4654400Y9152800D01*
X4644700Y9144300D01*
X4638300Y9131600D01*
X4635100Y9114700D01*
X4638300Y9099900D01*
X4646300Y9085000D01*
X4656000Y9076600D01*
X4667200Y9074400D01*
X4680100Y9078700D01*
X4689800Y9089300D01*
X4699400Y9108300D01*
G01X4372900Y9489000D02*
X4382500Y9478500D01*
X4393800Y9472100D01*
X4408200Y9470000D01*
X4422700Y9474200D01*
X4434000Y9482700D01*
X4442000Y9497500D01*
X4443600Y9514400D01*
X4440400Y9531400D01*
X4432400Y9542000D01*
X4421100Y9550400D01*
X4409900Y9552500D01*
X4398600Y9550400D01*
X4384100Y9542000D01*
X4388900Y9597000D01*
X4432400D01*
G01X4497500D02*
X4537700Y9470000D01*
X4578000Y9597000D01*
G01X4518200Y1470000D02*
Y1527100D01*
X4486100Y1597000D01*
G01X4550400D02*
X4518200Y1527100D01*
G01X4647700Y1470000D02*
Y1597000D01*
X4628400Y1571600D01*
G01Y1470000D02*
X4667000D01*
G01X4973600Y906400D02*
X4964000Y912800D01*
X4952700Y917000D01*
X4939900D01*
X4925400Y910600D01*
X4914100Y900100D01*
X4906100Y887400D01*
X4899600Y866200D01*
X4898000Y847100D01*
X4901300Y828100D01*
X4906100Y815400D01*
X4915700Y802700D01*
X4927000Y794200D01*
X4938200Y790000D01*
X4949500D01*
X4960800Y794200D01*
X4970400Y800600D01*
X4978500Y809000D01*
G01X5067700Y790000D02*
Y917000D01*
X5048400Y891600D01*
G01Y790000D02*
X5087000D01*
G01X5197200D02*
X5208500Y792100D01*
X5221400Y798500D01*
X5229400Y809000D01*
X5232600Y823900D01*
X5229400Y838700D01*
X5219800Y851400D01*
X5205300Y857700D01*
X5189200D01*
X5179600Y862000D01*
X5171500Y872500D01*
X5168300Y887400D01*
X5173100Y902200D01*
X5184400Y912800D01*
X5197200Y917000D01*
X5210100Y912800D01*
X5221400Y902200D01*
X5226200Y887400D01*
X5223000Y872500D01*
X5214900Y862000D01*
X5205300Y857700D01*
X5189200D01*
X5174700Y851400D01*
X5165100Y838700D01*
X5161900Y823900D01*
X5165100Y809000D01*
X5173100Y798500D01*
X5186000Y792100D01*
X5197200Y790000D01*
G01X4803600Y4616400D02*
X4794000Y4622800D01*
X4782700Y4627000D01*
X4769900D01*
X4755400Y4620600D01*
X4744100Y4610100D01*
X4736100Y4597400D01*
X4729600Y4576200D01*
X4728000Y4557100D01*
X4731300Y4538100D01*
X4736100Y4525400D01*
X4745700Y4512700D01*
X4757000Y4504200D01*
X4768200Y4500000D01*
X4779500D01*
X4790800Y4504200D01*
X4800400Y4510600D01*
X4808500Y4519000D01*
G01X4897700Y4500000D02*
Y4627000D01*
X4878400Y4601600D01*
G01Y4500000D02*
X4917000D01*
G01X5027200Y4627000D02*
X5014400Y4622800D01*
X5004700Y4612200D01*
X4998300Y4599500D01*
X4993500Y4582500D01*
X4991900Y4563500D01*
X4993500Y4544400D01*
X4998300Y4527500D01*
X5004700Y4514800D01*
X5014400Y4504200D01*
X5027200Y4500000D01*
X5040100Y4504200D01*
X5049800Y4514800D01*
X5056200Y4527500D01*
X5061000Y4544400D01*
X5062600Y4563500D01*
X5061000Y4582500D01*
X5056200Y4599500D01*
X5049800Y4612200D01*
X5040100Y4622800D01*
X5027200Y4627000D01*
G01X4756500Y9297900D02*
Y9330100D01*
X4794600D01*
X4807300Y9320400D01*
X4815800Y9309200D01*
X4820000Y9293100D01*
X4815800Y9277000D01*
X4807300Y9265700D01*
X4794600Y9256100D01*
X4779800Y9249600D01*
X4762900Y9246400D01*
X4748000D01*
X4735300Y9249600D01*
X4720500Y9256100D01*
X4707800Y9265700D01*
X4699400Y9275400D01*
X4693000Y9288200D01*
Y9299500D01*
X4697200Y9312400D01*
X4705700Y9322000D01*
G01X4820000Y9380800D02*
X4693000D01*
X4820000Y9454700D01*
X4693000D01*
G01X4820000Y9511900D02*
X4693000D01*
Y9544000D01*
X4699400Y9556900D01*
X4707800Y9566600D01*
X4720500Y9574600D01*
X4735300Y9581000D01*
X4756500Y9582600D01*
X4777700Y9581000D01*
X4792500Y9574600D01*
X4805200Y9566600D01*
X4813700Y9556900D01*
X4820000Y9544000D01*
Y9511900D01*
G01X5186100Y2250000D02*
Y2377000D01*
X5226300D01*
X5239200Y2370600D01*
X5247200Y2362200D01*
X5250400Y2345200D01*
X5247200Y2328300D01*
X5237600Y2317700D01*
X5226300Y2311400D01*
X5186100D01*
G01X5226300D02*
X5250400Y2250000D01*
G01X5347700D02*
Y2377000D01*
X5328400Y2351600D01*
G01Y2250000D02*
X5367000D01*
G01X5496600D02*
Y2377000D01*
X5437000Y2286000D01*
X5517500D01*
G01X5067700Y3212900D02*
X5078900Y3227700D01*
X5088600Y3236200D01*
X5101500Y3240400D01*
X5112700Y3236200D01*
X5120800Y3227700D01*
X5127200Y3215000D01*
X5128800Y3200200D01*
X5127200Y3187500D01*
X5120800Y3174800D01*
X5111100Y3164200D01*
X5099900Y3160000D01*
X5087000Y3164200D01*
X5075700Y3176900D01*
X5069300Y3196000D01*
X5067700Y3217100D01*
X5070900Y3244700D01*
X5075700Y3259500D01*
X5083800Y3274300D01*
X5095000Y3284900D01*
X5106300Y3287000D01*
X5117600Y3282800D01*
X5125600Y3272200D01*
G01X5012900Y3647000D02*
Y3556000D01*
X5019300Y3536900D01*
X5032200Y3524200D01*
X5048200Y3520000D01*
X5064300Y3524200D01*
X5077200Y3536900D01*
X5083600Y3556000D01*
Y3647000D01*
G01X5147200Y3625800D02*
X5156800Y3638500D01*
X5168100Y3644900D01*
X5181000Y3647000D01*
X5197100Y3642800D01*
X5208300Y3632200D01*
X5211500Y3619500D01*
X5209900Y3606800D01*
X5203500Y3596200D01*
X5171300Y3575000D01*
X5156800Y3560200D01*
X5147200Y3539000D01*
X5144000Y3520000D01*
X5211500D01*
G01X5166100Y3910000D02*
Y4037000D01*
X5206300D01*
X5219200Y4030600D01*
X5227200Y4022200D01*
X5230400Y4005200D01*
X5227200Y3988300D01*
X5217600Y3977700D01*
X5206300Y3971400D01*
X5166100D01*
G01X5206300D02*
X5230400Y3910000D01*
G01X5327700D02*
Y4037000D01*
X5308400Y4011600D01*
G01Y3910000D02*
X5347000D01*
G01X5066100Y6060000D02*
Y6187000D01*
X5106300D01*
X5119200Y6180600D01*
X5127200Y6172200D01*
X5130400Y6155200D01*
X5127200Y6138300D01*
X5117600Y6127700D01*
X5106300Y6121400D01*
X5066100D01*
G01X5106300D02*
X5130400Y6060000D01*
G01X5197200Y6112900D02*
X5208400Y6127700D01*
X5218100Y6136200D01*
X5231000Y6140400D01*
X5242200Y6136200D01*
X5250300Y6127700D01*
X5256700Y6115000D01*
X5258300Y6100200D01*
X5256700Y6087500D01*
X5250300Y6074800D01*
X5240600Y6064200D01*
X5229400Y6060000D01*
X5216500Y6064200D01*
X5205200Y6076900D01*
X5198800Y6096000D01*
X5197200Y6117100D01*
X5200400Y6144700D01*
X5205200Y6159500D01*
X5213300Y6174300D01*
X5224500Y6184900D01*
X5235800Y6187000D01*
X5247100Y6182800D01*
X5255100Y6172200D01*
G01X5321900Y6085400D02*
X5331500Y6070600D01*
X5344400Y6062100D01*
X5358900Y6060000D01*
X5371700Y6062100D01*
X5384600Y6072700D01*
X5392600Y6085400D01*
X5394200Y6098100D01*
X5391000Y6112900D01*
X5379800Y6123500D01*
X5368500Y6127700D01*
X5354000D01*
G01X5368500D02*
X5378200Y6134100D01*
X5386200Y6144700D01*
X5389400Y6157400D01*
X5386200Y6170100D01*
X5378200Y6180600D01*
X5363700Y6187000D01*
X5349200Y6184900D01*
X5334700Y6176400D01*
G01X4966100Y9040000D02*
Y9167000D01*
X5006300D01*
X5019200Y9160600D01*
X5027200Y9152200D01*
X5030400Y9135200D01*
X5027200Y9118300D01*
X5017600Y9107700D01*
X5006300Y9101400D01*
X4966100D01*
G01X5006300D02*
X5030400Y9040000D01*
G01X5092400Y9059000D02*
X5102000Y9048500D01*
X5113300Y9042100D01*
X5127700Y9040000D01*
X5142200Y9044200D01*
X5153500Y9052700D01*
X5161500Y9067500D01*
X5163100Y9084400D01*
X5159900Y9101400D01*
X5151900Y9112000D01*
X5140600Y9120400D01*
X5129400Y9122500D01*
X5118100Y9120400D01*
X5103600Y9112000D01*
X5108400Y9167000D01*
X5151900D01*
G01X5276600Y9040000D02*
Y9167000D01*
X5217000Y9076000D01*
X5297500D01*
G01X5080000Y9366100D02*
X4953000D01*
Y9406300D01*
X4959400Y9419200D01*
X4967800Y9427200D01*
X4984800Y9430400D01*
X5001700Y9427200D01*
X5012300Y9417600D01*
X5018600Y9406300D01*
Y9366100D01*
G01Y9406300D02*
X5080000Y9430400D01*
G01X5054600Y9492400D02*
X5069400Y9502000D01*
X5077900Y9514900D01*
X5080000Y9529400D01*
X5077900Y9542200D01*
X5067300Y9555100D01*
X5054600Y9563100D01*
X5041900Y9564700D01*
X5027100Y9561500D01*
X5016500Y9550300D01*
X5012300Y9539000D01*
Y9524500D01*
G01Y9539000D02*
X5005900Y9548700D01*
X4995300Y9556700D01*
X4982600Y9559900D01*
X4969900Y9556700D01*
X4959400Y9548700D01*
X4953000Y9534200D01*
X4955100Y9519700D01*
X4963600Y9505200D01*
G01X5429700Y3970000D02*
Y4048700D01*
X5454100D01*
X5461900Y4044800D01*
X5466700Y4039500D01*
X5468700Y4029000D01*
X5466700Y4018500D01*
X5460900Y4012000D01*
X5454100Y4008000D01*
X5429700D01*
G01X5454100D02*
X5468700Y3970000D01*
G01X5509400Y4035600D02*
X5515200Y4043500D01*
X5522100Y4047400D01*
X5529800Y4048700D01*
X5539600Y4046100D01*
X5546400Y4039500D01*
X5548300Y4031600D01*
X5547400Y4023800D01*
X5543500Y4017200D01*
X5524000Y4004100D01*
X5515200Y3994900D01*
X5509400Y3981800D01*
X5507500Y3970000D01*
X5548300D01*
G01X5588100Y4002800D02*
X5594900Y4012000D01*
X5600800Y4017200D01*
X5608500Y4019800D01*
X5615400Y4017200D01*
X5620200Y4012000D01*
X5624100Y4004100D01*
X5625100Y3994900D01*
X5624100Y3987100D01*
X5620200Y3979200D01*
X5614400Y3972600D01*
X5607600Y3970000D01*
X5599800Y3972600D01*
X5593000Y3980500D01*
X5589100Y3992300D01*
X5588100Y4005400D01*
X5590100Y4022500D01*
X5593000Y4031600D01*
X5597800Y4040800D01*
X5604700Y4047400D01*
X5611500Y4048700D01*
X5618300Y4046100D01*
X5623100Y4039500D01*
G01X5450000Y4946100D02*
X5323000D01*
Y4986300D01*
X5329400Y4999200D01*
X5337800Y5007200D01*
X5354800Y5010400D01*
X5371700Y5007200D01*
X5382300Y4997600D01*
X5388600Y4986300D01*
Y4946100D01*
G01Y4986300D02*
X5450000Y5010400D01*
G01X5424600Y5072400D02*
X5439400Y5082000D01*
X5447900Y5094900D01*
X5450000Y5109400D01*
X5447900Y5122200D01*
X5437300Y5135100D01*
X5424600Y5143100D01*
X5411900Y5144700D01*
X5397100Y5141500D01*
X5386500Y5130300D01*
X5382300Y5119000D01*
Y5104500D01*
G01Y5119000D02*
X5375900Y5128700D01*
X5365300Y5136700D01*
X5352600Y5139900D01*
X5339900Y5136700D01*
X5329400Y5128700D01*
X5323000Y5114200D01*
X5325100Y5099700D01*
X5333600Y5085200D01*
G01X5323000Y5237200D02*
X5327200Y5224400D01*
X5337800Y5214700D01*
X5350500Y5208300D01*
X5367500Y5203500D01*
X5386500Y5201900D01*
X5405600Y5203500D01*
X5422500Y5208300D01*
X5435200Y5214700D01*
X5445800Y5224400D01*
X5450000Y5237200D01*
X5445800Y5250100D01*
X5435200Y5259800D01*
X5422500Y5266200D01*
X5405600Y5271000D01*
X5386500Y5272600D01*
X5367500Y5271000D01*
X5350500Y5266200D01*
X5337800Y5259800D01*
X5327200Y5250100D01*
X5323000Y5237200D01*
G01X5306400Y8710000D02*
Y8837000D01*
X5348200Y8731200D01*
X5390100Y8837000D01*
Y8710000D01*
G01X5513100Y8826400D02*
X5503500Y8832800D01*
X5492200Y8837000D01*
X5479400D01*
X5464900Y8830600D01*
X5453600Y8820100D01*
X5445600Y8807400D01*
X5439100Y8786200D01*
X5437500Y8767100D01*
X5440800Y8748100D01*
X5445600Y8735400D01*
X5455200Y8722700D01*
X5466500Y8714200D01*
X5477700Y8710000D01*
X5489000D01*
X5500300Y8714200D01*
X5509900Y8720600D01*
X5518000Y8729000D01*
G01X5571900Y8837000D02*
Y8746000D01*
X5578300Y8726900D01*
X5591200Y8714200D01*
X5607200Y8710000D01*
X5623300Y8714200D01*
X5636200Y8726900D01*
X5642600Y8746000D01*
Y8837000D01*
G01X5736700Y8710000D02*
Y8837000D01*
X5717400Y8811600D01*
G01Y8710000D02*
X5756000D01*
G01X5330000Y9366100D02*
X5203000D01*
Y9406300D01*
X5209400Y9419200D01*
X5217800Y9427200D01*
X5234800Y9430400D01*
X5251700Y9427200D01*
X5262300Y9417600D01*
X5268600Y9406300D01*
Y9366100D01*
G01Y9406300D02*
X5330000Y9430400D01*
G01X5224200Y9497200D02*
X5211500Y9506800D01*
X5205100Y9518100D01*
X5203000Y9531000D01*
X5207200Y9547100D01*
X5217800Y9558300D01*
X5230500Y9561500D01*
X5243200Y9559900D01*
X5253800Y9553500D01*
X5275000Y9521300D01*
X5289800Y9506800D01*
X5311000Y9497200D01*
X5330000Y9494000D01*
Y9561500D01*
G01X5580000Y9366100D02*
X5453000D01*
Y9406300D01*
X5459400Y9419200D01*
X5467800Y9427200D01*
X5484800Y9430400D01*
X5501700Y9427200D01*
X5512300Y9417600D01*
X5518600Y9406300D01*
Y9366100D01*
G01Y9406300D02*
X5580000Y9430400D01*
G01Y9527700D02*
X5453000D01*
X5478400Y9508400D01*
G01X5580000D02*
Y9547000D01*
G01X5733600Y906400D02*
X5724000Y912800D01*
X5712700Y917000D01*
X5699900D01*
X5685400Y910600D01*
X5674100Y900100D01*
X5666100Y887400D01*
X5659600Y866200D01*
X5658000Y847100D01*
X5661300Y828100D01*
X5666100Y815400D01*
X5675700Y802700D01*
X5687000Y794200D01*
X5698200Y790000D01*
X5709500D01*
X5720800Y794200D01*
X5730400Y800600D01*
X5738500Y809000D01*
G01X5827700Y790000D02*
Y917000D01*
X5808400Y891600D01*
G01Y790000D02*
X5847000D01*
G01X5929900Y804800D02*
X5941200Y794200D01*
X5954000Y790000D01*
X5966900Y794200D01*
X5978200Y806900D01*
X5986200Y826000D01*
X5989400Y845000D01*
Y868300D01*
X5986200Y887400D01*
X5978200Y904300D01*
X5968500Y912800D01*
X5957200Y917000D01*
X5944400Y912800D01*
X5934700Y904300D01*
X5928300Y891600D01*
X5925100Y874700D01*
X5928300Y859900D01*
X5936300Y845000D01*
X5946000Y836600D01*
X5957200Y834400D01*
X5970100Y838700D01*
X5979800Y849300D01*
X5989400Y868300D01*
G01X5538200Y2490000D02*
Y2617000D01*
X5518900Y2591600D01*
G01Y2490000D02*
X5557500D01*
G01X5667700D02*
X5679000Y2492100D01*
X5691900Y2498500D01*
X5699900Y2509000D01*
X5703100Y2523900D01*
X5699900Y2538700D01*
X5690300Y2551400D01*
X5675800Y2557700D01*
X5659700D01*
X5650100Y2562000D01*
X5642000Y2572500D01*
X5638800Y2587400D01*
X5643600Y2602200D01*
X5654900Y2612800D01*
X5667700Y2617000D01*
X5680600Y2612800D01*
X5691900Y2602200D01*
X5696700Y2587400D01*
X5693500Y2572500D01*
X5685400Y2562000D01*
X5675800Y2557700D01*
X5659700D01*
X5645200Y2551400D01*
X5635600Y2538700D01*
X5632400Y2523900D01*
X5635600Y2509000D01*
X5643600Y2498500D01*
X5656500Y2492100D01*
X5667700Y2490000D01*
G01X5680900Y3750000D02*
Y3828700D01*
X5644900Y3772300D01*
X5693500D01*
G01X5729400Y3815600D02*
X5735200Y3823500D01*
X5742100Y3827400D01*
X5749800Y3828700D01*
X5759600Y3826100D01*
X5766400Y3819500D01*
X5768300Y3811600D01*
X5767400Y3803800D01*
X5763500Y3797200D01*
X5744000Y3784100D01*
X5735200Y3774900D01*
X5729400Y3761800D01*
X5727500Y3750000D01*
X5768300D01*
G01X5699700Y3980000D02*
Y4058700D01*
X5724100D01*
X5731900Y4054800D01*
X5736700Y4049500D01*
X5738700Y4039000D01*
X5736700Y4028500D01*
X5730900Y4022000D01*
X5724100Y4018000D01*
X5699700D01*
G01X5724100D02*
X5738700Y3980000D01*
G01X5797900D02*
Y4058700D01*
X5786200Y4043000D01*
G01Y3980000D02*
X5809600D01*
G01X5874700D02*
X5876600Y3997100D01*
X5879500Y4011500D01*
X5883400Y4024600D01*
X5888300Y4039000D01*
X5896100Y4058700D01*
X5857100D01*
G01X5710000Y4946100D02*
X5583000D01*
Y4986300D01*
X5589400Y4999200D01*
X5597800Y5007200D01*
X5614800Y5010400D01*
X5631700Y5007200D01*
X5642300Y4997600D01*
X5648600Y4986300D01*
Y4946100D01*
G01Y4986300D02*
X5710000Y5010400D01*
G01X5604200Y5077200D02*
X5591500Y5086800D01*
X5585100Y5098100D01*
X5583000Y5111000D01*
X5587200Y5127100D01*
X5597800Y5138300D01*
X5610500Y5141500D01*
X5623200Y5139900D01*
X5633800Y5133500D01*
X5655000Y5101300D01*
X5669800Y5086800D01*
X5691000Y5077200D01*
X5710000Y5074000D01*
Y5141500D01*
G01Y5237200D02*
X5583000D01*
X5608400Y5217900D01*
G01X5710000D02*
Y5256500D01*
G01X5730000Y5686100D02*
X5603000D01*
Y5726300D01*
X5609400Y5739200D01*
X5617800Y5747200D01*
X5634800Y5750400D01*
X5651700Y5747200D01*
X5662300Y5737600D01*
X5668600Y5726300D01*
Y5686100D01*
G01Y5726300D02*
X5730000Y5750400D01*
G01X5677100Y5817200D02*
X5662300Y5828400D01*
X5653800Y5838100D01*
X5649600Y5851000D01*
X5653800Y5862200D01*
X5662300Y5870300D01*
X5675000Y5876700D01*
X5689800Y5878300D01*
X5702500Y5876700D01*
X5715200Y5870300D01*
X5725800Y5860600D01*
X5730000Y5849400D01*
X5725800Y5836500D01*
X5713100Y5825200D01*
X5694000Y5818800D01*
X5672900Y5817200D01*
X5645300Y5820400D01*
X5630500Y5825200D01*
X5615700Y5833300D01*
X5605100Y5844500D01*
X5603000Y5855800D01*
X5607200Y5867100D01*
X5617800Y5875100D01*
G01X5730000Y5996600D02*
X5603000D01*
X5694000Y5937000D01*
Y6017500D01*
G01X5840000Y9366100D02*
X5713000D01*
Y9406300D01*
X5719400Y9419200D01*
X5727800Y9427200D01*
X5744800Y9430400D01*
X5761700Y9427200D01*
X5772300Y9417600D01*
X5778600Y9406300D01*
Y9366100D01*
G01Y9406300D02*
X5840000Y9430400D01*
G01X5713000Y9527700D02*
X5717200Y9514900D01*
X5727800Y9505200D01*
X5740500Y9498800D01*
X5757500Y9494000D01*
X5776500Y9492400D01*
X5795600Y9494000D01*
X5812500Y9498800D01*
X5825200Y9505200D01*
X5835800Y9514900D01*
X5840000Y9527700D01*
X5835800Y9540600D01*
X5825200Y9550300D01*
X5812500Y9556700D01*
X5795600Y9561500D01*
X5776500Y9563100D01*
X5757500Y9561500D01*
X5740500Y9556700D01*
X5727800Y9550300D01*
X5717200Y9540600D01*
X5713000Y9527700D01*
G01X6023600Y376400D02*
X6014000Y382800D01*
X6002700Y387000D01*
X5989900D01*
X5975400Y380600D01*
X5964100Y370100D01*
X5956100Y357400D01*
X5949600Y336200D01*
X5948000Y317100D01*
X5951300Y298100D01*
X5956100Y285400D01*
X5965700Y272700D01*
X5977000Y264200D01*
X5988200Y260000D01*
X5999500D01*
X6010800Y264200D01*
X6020400Y270600D01*
X6028500Y279000D01*
G01X6137100Y260000D02*
Y387000D01*
X6077500Y296000D01*
X6158000D01*
G01X6244000Y260000D02*
X6247200Y287500D01*
X6252100Y310800D01*
X6258500Y332000D01*
X6266600Y355200D01*
X6279400Y387000D01*
X6215100D01*
G01X6110000Y3816100D02*
X5983000D01*
Y3856300D01*
X5989400Y3869200D01*
X5997800Y3877200D01*
X6014800Y3880400D01*
X6031700Y3877200D01*
X6042300Y3867600D01*
X6048600Y3856300D01*
Y3816100D01*
G01Y3856300D02*
X6110000Y3880400D01*
G01X6084600Y3942400D02*
X6099400Y3952000D01*
X6107900Y3964900D01*
X6110000Y3979400D01*
X6107900Y3992200D01*
X6097300Y4005100D01*
X6084600Y4013100D01*
X6071900Y4014700D01*
X6057100Y4011500D01*
X6046500Y4000300D01*
X6042300Y3989000D01*
Y3974500D01*
G01Y3989000D02*
X6035900Y3998700D01*
X6025300Y4006700D01*
X6012600Y4009900D01*
X5999900Y4006700D01*
X5989400Y3998700D01*
X5983000Y3984200D01*
X5985100Y3969700D01*
X5993600Y3955200D01*
G01X5970000Y4966100D02*
X5843000D01*
Y5006300D01*
X5849400Y5019200D01*
X5857800Y5027200D01*
X5874800Y5030400D01*
X5891700Y5027200D01*
X5902300Y5017600D01*
X5908600Y5006300D01*
Y4966100D01*
G01Y5006300D02*
X5970000Y5030400D01*
G01X5864200Y5097200D02*
X5851500Y5106800D01*
X5845100Y5118100D01*
X5843000Y5131000D01*
X5847200Y5147100D01*
X5857800Y5158300D01*
X5870500Y5161500D01*
X5883200Y5159900D01*
X5893800Y5153500D01*
X5915000Y5121300D01*
X5929800Y5106800D01*
X5951000Y5097200D01*
X5970000Y5094000D01*
Y5161500D01*
G01X5833600Y5743600D02*
X5827200Y5734000D01*
X5823000Y5722700D01*
Y5709900D01*
X5829400Y5695400D01*
X5839900Y5684100D01*
X5852600Y5676100D01*
X5873800Y5669600D01*
X5892900Y5668000D01*
X5911900Y5671300D01*
X5924600Y5676100D01*
X5937300Y5685700D01*
X5945800Y5697000D01*
X5950000Y5708200D01*
Y5719500D01*
X5945800Y5730800D01*
X5939400Y5740400D01*
X5931000Y5748500D01*
G01X5950000Y5857100D02*
X5823000D01*
X5914000Y5797500D01*
Y5878000D01*
G01X5924600Y5931900D02*
X5939400Y5941500D01*
X5947900Y5954400D01*
X5950000Y5968900D01*
X5947900Y5981700D01*
X5937300Y5994600D01*
X5924600Y6002600D01*
X5911900Y6004200D01*
X5897100Y6001000D01*
X5886500Y5989800D01*
X5882300Y5978500D01*
Y5964000D01*
G01Y5978500D02*
X5875900Y5988200D01*
X5865300Y5996200D01*
X5852600Y5999400D01*
X5839900Y5996200D01*
X5829400Y5988200D01*
X5823000Y5973700D01*
X5825100Y5959200D01*
X5833600Y5944700D01*
G01X5799700Y6540000D02*
Y6618700D01*
X5824100D01*
X5831900Y6614800D01*
X5836700Y6609500D01*
X5838700Y6599000D01*
X5836700Y6588500D01*
X5830900Y6582000D01*
X5824100Y6578000D01*
X5799700D01*
G01X5824100D02*
X5838700Y6540000D01*
G01X5879400Y6572800D02*
X5886200Y6582000D01*
X5892100Y6587200D01*
X5899800Y6589800D01*
X5906700Y6587200D01*
X5911500Y6582000D01*
X5915400Y6574100D01*
X5916400Y6564900D01*
X5915400Y6557100D01*
X5911500Y6549200D01*
X5905700Y6542600D01*
X5898900Y6540000D01*
X5891100Y6542600D01*
X5884300Y6550500D01*
X5880400Y6562300D01*
X5879400Y6575400D01*
X5881400Y6592500D01*
X5884300Y6601600D01*
X5889100Y6610800D01*
X5896000Y6617400D01*
X5902800Y6618700D01*
X5909600Y6616100D01*
X5914400Y6609500D01*
G01X5958100Y6605600D02*
X5963900Y6613500D01*
X5970800Y6617400D01*
X5978500Y6618700D01*
X5988300Y6616100D01*
X5995100Y6609500D01*
X5997000Y6601600D01*
X5996100Y6593800D01*
X5992200Y6587200D01*
X5972700Y6574100D01*
X5963900Y6564900D01*
X5958100Y6551800D01*
X5956200Y6540000D01*
X5997000D01*
G01X6083600Y5743600D02*
X6077200Y5734000D01*
X6073000Y5722700D01*
Y5709900D01*
X6079400Y5695400D01*
X6089900Y5684100D01*
X6102600Y5676100D01*
X6123800Y5669600D01*
X6142900Y5668000D01*
X6161900Y5671300D01*
X6174600Y5676100D01*
X6187300Y5685700D01*
X6195800Y5697000D01*
X6200000Y5708200D01*
Y5719500D01*
X6195800Y5730800D01*
X6189400Y5740400D01*
X6181000Y5748500D01*
G01X6174600Y5802400D02*
X6189400Y5812000D01*
X6197900Y5824900D01*
X6200000Y5839400D01*
X6197900Y5852200D01*
X6187300Y5865100D01*
X6174600Y5873100D01*
X6161900Y5874700D01*
X6147100Y5871500D01*
X6136500Y5860300D01*
X6132300Y5849000D01*
Y5834500D01*
G01Y5849000D02*
X6125900Y5858700D01*
X6115300Y5866700D01*
X6102600Y5869900D01*
X6089900Y5866700D01*
X6079400Y5858700D01*
X6073000Y5844200D01*
X6075100Y5829700D01*
X6083600Y5815200D01*
G01X6073000Y5967200D02*
X6077200Y5954400D01*
X6087800Y5944700D01*
X6100500Y5938300D01*
X6117500Y5933500D01*
X6136500Y5931900D01*
X6155600Y5933500D01*
X6172500Y5938300D01*
X6185200Y5944700D01*
X6195800Y5954400D01*
X6200000Y5967200D01*
X6195800Y5980100D01*
X6185200Y5989800D01*
X6172500Y5996200D01*
X6155600Y6001000D01*
X6136500Y6002600D01*
X6117500Y6001000D01*
X6100500Y5996200D01*
X6087800Y5989800D01*
X6077200Y5980100D01*
X6073000Y5967200D01*
G01X6156100Y7160000D02*
Y7287000D01*
X6196300D01*
X6209200Y7280600D01*
X6217200Y7272200D01*
X6220400Y7255200D01*
X6217200Y7238300D01*
X6207600Y7227700D01*
X6196300Y7221400D01*
X6156100D01*
G01X6196300D02*
X6220400Y7160000D01*
G01X6287200Y7212900D02*
X6298400Y7227700D01*
X6308100Y7236200D01*
X6321000Y7240400D01*
X6332200Y7236200D01*
X6340300Y7227700D01*
X6346700Y7215000D01*
X6348300Y7200200D01*
X6346700Y7187500D01*
X6340300Y7174800D01*
X6330600Y7164200D01*
X6319400Y7160000D01*
X6306500Y7164200D01*
X6295200Y7176900D01*
X6288800Y7196000D01*
X6287200Y7217100D01*
X6290400Y7244700D01*
X6295200Y7259500D01*
X6303300Y7274300D01*
X6314500Y7284900D01*
X6325800Y7287000D01*
X6337100Y7282800D01*
X6345100Y7272200D01*
G01X6447200Y7160000D02*
Y7287000D01*
X6427900Y7261600D01*
G01Y7160000D02*
X6466500D01*
G01X6313600Y8756400D02*
X6304000Y8762800D01*
X6292700Y8767000D01*
X6279900D01*
X6265400Y8760600D01*
X6254100Y8750100D01*
X6246100Y8737400D01*
X6239600Y8716200D01*
X6238000Y8697100D01*
X6241300Y8678100D01*
X6246100Y8665400D01*
X6255700Y8652700D01*
X6267000Y8644200D01*
X6278200Y8640000D01*
X6289500D01*
X6300800Y8644200D01*
X6310400Y8650600D01*
X6318500Y8659000D01*
G01X6377200Y8745800D02*
X6386800Y8758500D01*
X6398100Y8764900D01*
X6411000Y8767000D01*
X6427100Y8762800D01*
X6438300Y8752200D01*
X6441500Y8739500D01*
X6439900Y8726800D01*
X6433500Y8716200D01*
X6401300Y8695000D01*
X6386800Y8680200D01*
X6377200Y8659000D01*
X6374000Y8640000D01*
X6441500D01*
G01X6506700Y8692900D02*
X6517900Y8707700D01*
X6527600Y8716200D01*
X6540500Y8720400D01*
X6551700Y8716200D01*
X6559800Y8707700D01*
X6566200Y8695000D01*
X6567800Y8680200D01*
X6566200Y8667500D01*
X6559800Y8654800D01*
X6550100Y8644200D01*
X6538900Y8640000D01*
X6526000Y8644200D01*
X6514700Y8656900D01*
X6508300Y8676000D01*
X6506700Y8697100D01*
X6509900Y8724700D01*
X6514700Y8739500D01*
X6522800Y8754300D01*
X6534000Y8764900D01*
X6545300Y8767000D01*
X6556600Y8762800D01*
X6564600Y8752200D01*
G01X6064500Y9106900D02*
X6077300Y9096300D01*
X6091800Y9090000D01*
X6104700D01*
X6117600Y9096300D01*
X6127200Y9106900D01*
X6132000Y9121800D01*
X6128800Y9136600D01*
X6120800Y9149300D01*
X6106300Y9157700D01*
X6087000Y9162000D01*
X6075700Y9170400D01*
X6070900Y9185200D01*
X6074100Y9200100D01*
X6082200Y9210600D01*
X6093400Y9217000D01*
X6104700D01*
X6115900Y9212800D01*
X6125600Y9202200D01*
G01X6179500Y9217000D02*
X6202000Y9090000D01*
X6227700Y9217000D01*
X6253500Y9090000D01*
X6276000Y9217000D01*
G01X6321900Y9090000D02*
Y9217000D01*
X6354000D01*
X6366900Y9210600D01*
X6376600Y9202200D01*
X6384600Y9189500D01*
X6391000Y9174700D01*
X6392600Y9153500D01*
X6391000Y9132300D01*
X6384600Y9117500D01*
X6376600Y9104800D01*
X6366900Y9096300D01*
X6354000Y9090000D01*
X6321900D01*
G01X6467400Y9217000D02*
X6506000D01*
G01X6486700D02*
Y9090000D01*
G01X6467400D02*
X6506000D01*
G01X6616200D02*
X6603400Y9092100D01*
X6592100Y9100600D01*
X6582500Y9113300D01*
X6576000Y9128100D01*
X6572800Y9145000D01*
Y9162000D01*
X6576000Y9178900D01*
X6582500Y9193700D01*
X6592100Y9206400D01*
X6603400Y9214900D01*
X6616200Y9217000D01*
X6629100Y9214900D01*
X6640400Y9206400D01*
X6650000Y9193700D01*
X6656500Y9178900D01*
X6659700Y9162000D01*
Y9145000D01*
X6656500Y9128100D01*
X6650000Y9113300D01*
X6640400Y9100600D01*
X6629100Y9092100D01*
X6616200Y9090000D01*
G01X6064500Y9346900D02*
X6077300Y9336300D01*
X6091800Y9330000D01*
X6104700D01*
X6117600Y9336300D01*
X6127200Y9346900D01*
X6132000Y9361800D01*
X6128800Y9376600D01*
X6120800Y9389300D01*
X6106300Y9397700D01*
X6087000Y9402000D01*
X6075700Y9410400D01*
X6070900Y9425200D01*
X6074100Y9440100D01*
X6082200Y9450600D01*
X6093400Y9457000D01*
X6104700D01*
X6115900Y9452800D01*
X6125600Y9442200D01*
G01X6179500Y9457000D02*
X6202000Y9330000D01*
X6227700Y9457000D01*
X6253500Y9330000D01*
X6276000Y9457000D01*
G01X6392600Y9446400D02*
X6383000Y9452800D01*
X6371700Y9457000D01*
X6358900D01*
X6344400Y9450600D01*
X6333100Y9440100D01*
X6325100Y9427400D01*
X6318600Y9406200D01*
X6317000Y9387100D01*
X6320300Y9368100D01*
X6325100Y9355400D01*
X6334700Y9342700D01*
X6346000Y9334200D01*
X6357200Y9330000D01*
X6368500D01*
X6379800Y9334200D01*
X6389400Y9340600D01*
X6397500Y9349000D01*
G01X6454600Y9457000D02*
Y9330000D01*
X6518900D01*
G01X6580900D02*
Y9457000D01*
G01X6642000D02*
X6580900Y9378700D01*
G01X6651600Y9330000D02*
X6608200Y9414700D01*
G01X6543600Y386400D02*
X6534000Y392800D01*
X6522700Y397000D01*
X6509900D01*
X6495400Y390600D01*
X6484100Y380100D01*
X6476100Y367400D01*
X6469600Y346200D01*
X6468000Y327100D01*
X6471300Y308100D01*
X6476100Y295400D01*
X6485700Y282700D01*
X6497000Y274200D01*
X6508200Y270000D01*
X6519500D01*
X6530800Y274200D01*
X6540400Y280600D01*
X6548500Y289000D01*
G01X6657100Y270000D02*
Y397000D01*
X6597500Y306000D01*
X6678000D01*
G01X6736700Y322900D02*
X6747900Y337700D01*
X6757600Y346200D01*
X6770500Y350400D01*
X6781700Y346200D01*
X6789800Y337700D01*
X6796200Y325000D01*
X6797800Y310200D01*
X6796200Y297500D01*
X6789800Y284800D01*
X6780100Y274200D01*
X6768900Y270000D01*
X6756000Y274200D01*
X6744700Y286900D01*
X6738300Y306000D01*
X6736700Y327100D01*
X6739900Y354700D01*
X6744700Y369500D01*
X6752800Y384300D01*
X6764000Y394900D01*
X6775300Y397000D01*
X6786600Y392800D01*
X6794600Y382200D01*
G01X6442900Y3015400D02*
X6452500Y3000600D01*
X6465400Y2992100D01*
X6479900Y2990000D01*
X6492700Y2992100D01*
X6505600Y3002700D01*
X6513600Y3015400D01*
X6515200Y3028100D01*
X6512000Y3042900D01*
X6500800Y3053500D01*
X6489500Y3057700D01*
X6475000D01*
G01X6489500D02*
X6499200Y3064100D01*
X6507200Y3074700D01*
X6510400Y3087400D01*
X6507200Y3100100D01*
X6499200Y3110600D01*
X6484700Y3117000D01*
X6470200Y3114900D01*
X6455700Y3106400D01*
G01X6607700Y3117000D02*
X6594900Y3112800D01*
X6585200Y3102200D01*
X6578800Y3089500D01*
X6574000Y3072500D01*
X6572400Y3053500D01*
X6574000Y3034400D01*
X6578800Y3017500D01*
X6585200Y3004800D01*
X6594900Y2994200D01*
X6607700Y2990000D01*
X6620600Y2994200D01*
X6630300Y3004800D01*
X6636700Y3017500D01*
X6641500Y3034400D01*
X6643100Y3053500D01*
X6641500Y3072500D01*
X6636700Y3089500D01*
X6630300Y3102200D01*
X6620600Y3112800D01*
X6607700Y3117000D01*
G01X6513600Y8176400D02*
X6504000Y8182800D01*
X6492700Y8187000D01*
X6479900D01*
X6465400Y8180600D01*
X6454100Y8170100D01*
X6446100Y8157400D01*
X6439600Y8136200D01*
X6438000Y8117100D01*
X6441300Y8098100D01*
X6446100Y8085400D01*
X6455700Y8072700D01*
X6467000Y8064200D01*
X6478200Y8060000D01*
X6489500D01*
X6500800Y8064200D01*
X6510400Y8070600D01*
X6518500Y8079000D01*
G01X6572400Y8085400D02*
X6582000Y8070600D01*
X6594900Y8062100D01*
X6609400Y8060000D01*
X6622200Y8062100D01*
X6635100Y8072700D01*
X6643100Y8085400D01*
X6644700Y8098100D01*
X6641500Y8112900D01*
X6630300Y8123500D01*
X6619000Y8127700D01*
X6604500D01*
G01X6619000D02*
X6628700Y8134100D01*
X6636700Y8144700D01*
X6639900Y8157400D01*
X6636700Y8170100D01*
X6628700Y8180600D01*
X6614200Y8187000D01*
X6599700Y8184900D01*
X6585200Y8176400D01*
G01X6706700Y8165800D02*
X6716300Y8178500D01*
X6727600Y8184900D01*
X6740500Y8187000D01*
X6756600Y8182800D01*
X6767800Y8172200D01*
X6771000Y8159500D01*
X6769400Y8146800D01*
X6763000Y8136200D01*
X6730800Y8115000D01*
X6716300Y8100200D01*
X6706700Y8079000D01*
X6703500Y8060000D01*
X6771000D01*
G01X6284500Y9616900D02*
X6297300Y9606300D01*
X6311800Y9600000D01*
X6324700D01*
X6337600Y9606300D01*
X6347200Y9616900D01*
X6352000Y9631800D01*
X6348800Y9646600D01*
X6340800Y9659300D01*
X6326300Y9667700D01*
X6307000Y9672000D01*
X6295700Y9680400D01*
X6290900Y9695200D01*
X6294100Y9710100D01*
X6302200Y9720600D01*
X6313400Y9727000D01*
X6324700D01*
X6335900Y9722800D01*
X6345600Y9712200D01*
G01X6399500Y9727000D02*
X6422000Y9600000D01*
X6447700Y9727000D01*
X6473500Y9600000D01*
X6496000Y9727000D01*
G01X6577200Y9600000D02*
X6564400Y9602100D01*
X6553100Y9610600D01*
X6543500Y9623300D01*
X6537000Y9638100D01*
X6533800Y9655000D01*
Y9672000D01*
X6537000Y9688900D01*
X6543500Y9703700D01*
X6553100Y9716400D01*
X6564400Y9724900D01*
X6577200Y9727000D01*
X6590100Y9724900D01*
X6601400Y9716400D01*
X6611000Y9703700D01*
X6617500Y9688900D01*
X6620700Y9672000D01*
Y9655000D01*
X6617500Y9638100D01*
X6611000Y9623300D01*
X6601400Y9610600D01*
X6590100Y9602100D01*
X6577200Y9600000D01*
G01X6346100Y9815400D02*
X6354100Y9802700D01*
X6363800Y9794200D01*
X6375000Y9790000D01*
X6387900Y9794200D01*
X6397600Y9802700D01*
X6407200Y9815400D01*
X6410400Y9832300D01*
Y9917000D01*
G01X6507700Y9790000D02*
X6519000Y9792100D01*
X6531900Y9798500D01*
X6539900Y9809000D01*
X6543100Y9823900D01*
X6539900Y9838700D01*
X6530300Y9851400D01*
X6515800Y9857700D01*
X6499700D01*
X6490100Y9862000D01*
X6482000Y9872500D01*
X6478800Y9887400D01*
X6483600Y9902200D01*
X6494900Y9912800D01*
X6507700Y9917000D01*
X6520600Y9912800D01*
X6531900Y9902200D01*
X6536700Y9887400D01*
X6533500Y9872500D01*
X6525400Y9862000D01*
X6515800Y9857700D01*
X6499700D01*
X6485200Y9851400D01*
X6475600Y9838700D01*
X6472400Y9823900D01*
X6475600Y9809000D01*
X6483600Y9798500D01*
X6496500Y9792100D01*
X6507700Y9790000D01*
G01X6782900Y1687000D02*
Y1596000D01*
X6789300Y1576900D01*
X6802200Y1564200D01*
X6818200Y1560000D01*
X6834300Y1564200D01*
X6847200Y1576900D01*
X6853600Y1596000D01*
Y1687000D01*
G01X6912400Y1579000D02*
X6922000Y1568500D01*
X6933300Y1562100D01*
X6947700Y1560000D01*
X6962200Y1564200D01*
X6973500Y1572700D01*
X6981500Y1587500D01*
X6983100Y1604400D01*
X6979900Y1621400D01*
X6971900Y1632000D01*
X6960600Y1640400D01*
X6949400Y1642500D01*
X6938100Y1640400D01*
X6923600Y1632000D01*
X6928400Y1687000D01*
X6971900D01*
G01X6766100Y3440000D02*
Y3567000D01*
X6806300D01*
X6819200Y3560600D01*
X6827200Y3552200D01*
X6830400Y3535200D01*
X6827200Y3518300D01*
X6817600Y3507700D01*
X6806300Y3501400D01*
X6766100D01*
G01X6806300D02*
X6830400Y3440000D01*
G01X6892400Y3459000D02*
X6902000Y3448500D01*
X6913300Y3442100D01*
X6927700Y3440000D01*
X6942200Y3444200D01*
X6953500Y3452700D01*
X6961500Y3467500D01*
X6963100Y3484400D01*
X6959900Y3501400D01*
X6951900Y3512000D01*
X6940600Y3520400D01*
X6929400Y3522500D01*
X6918100Y3520400D01*
X6903600Y3512000D01*
X6908400Y3567000D01*
X6951900D01*
G01X6633600Y6233600D02*
X6627200Y6224000D01*
X6623000Y6212700D01*
Y6199900D01*
X6629400Y6185400D01*
X6639900Y6174100D01*
X6652600Y6166100D01*
X6673800Y6159600D01*
X6692900Y6158000D01*
X6711900Y6161300D01*
X6724600Y6166100D01*
X6737300Y6175700D01*
X6745800Y6187000D01*
X6750000Y6198200D01*
Y6209500D01*
X6745800Y6220800D01*
X6739400Y6230400D01*
X6731000Y6238500D01*
G01X6724600Y6292400D02*
X6739400Y6302000D01*
X6747900Y6314900D01*
X6750000Y6329400D01*
X6747900Y6342200D01*
X6737300Y6355100D01*
X6724600Y6363100D01*
X6711900Y6364700D01*
X6697100Y6361500D01*
X6686500Y6350300D01*
X6682300Y6339000D01*
Y6324500D01*
G01Y6339000D02*
X6675900Y6348700D01*
X6665300Y6356700D01*
X6652600Y6359900D01*
X6639900Y6356700D01*
X6629400Y6348700D01*
X6623000Y6334200D01*
X6625100Y6319700D01*
X6633600Y6305200D01*
G01X6750000Y6457200D02*
X6747900Y6468500D01*
X6741500Y6481400D01*
X6731000Y6489400D01*
X6716100Y6492600D01*
X6701300Y6489400D01*
X6688600Y6479800D01*
X6682300Y6465300D01*
Y6449200D01*
X6678000Y6439600D01*
X6667500Y6431500D01*
X6652600Y6428300D01*
X6637800Y6433100D01*
X6627200Y6444400D01*
X6623000Y6457200D01*
X6627200Y6470100D01*
X6637800Y6481400D01*
X6652600Y6486200D01*
X6667500Y6483000D01*
X6678000Y6474900D01*
X6682300Y6465300D01*
Y6449200D01*
X6688600Y6434700D01*
X6701300Y6425100D01*
X6716100Y6421900D01*
X6731000Y6425100D01*
X6741500Y6433100D01*
X6747900Y6446000D01*
X6750000Y6457200D01*
G01X6633600Y6713600D02*
X6627200Y6704000D01*
X6623000Y6692700D01*
Y6679900D01*
X6629400Y6665400D01*
X6639900Y6654100D01*
X6652600Y6646100D01*
X6673800Y6639600D01*
X6692900Y6638000D01*
X6711900Y6641300D01*
X6724600Y6646100D01*
X6737300Y6655700D01*
X6745800Y6667000D01*
X6750000Y6678200D01*
Y6689500D01*
X6745800Y6700800D01*
X6739400Y6710400D01*
X6731000Y6718500D01*
G01X6724600Y6772400D02*
X6739400Y6782000D01*
X6747900Y6794900D01*
X6750000Y6809400D01*
X6747900Y6822200D01*
X6737300Y6835100D01*
X6724600Y6843100D01*
X6711900Y6844700D01*
X6697100Y6841500D01*
X6686500Y6830300D01*
X6682300Y6819000D01*
Y6804500D01*
G01Y6819000D02*
X6675900Y6828700D01*
X6665300Y6836700D01*
X6652600Y6839900D01*
X6639900Y6836700D01*
X6629400Y6828700D01*
X6623000Y6814200D01*
X6625100Y6799700D01*
X6633600Y6785200D01*
G01X6750000Y6934000D02*
X6722500Y6937200D01*
X6699200Y6942100D01*
X6678000Y6948500D01*
X6654800Y6956600D01*
X6623000Y6969400D01*
Y6905100D01*
G01X6593600Y7113600D02*
X6587200Y7104000D01*
X6583000Y7092700D01*
Y7079900D01*
X6589400Y7065400D01*
X6599900Y7054100D01*
X6612600Y7046100D01*
X6633800Y7039600D01*
X6652900Y7038000D01*
X6671900Y7041300D01*
X6684600Y7046100D01*
X6697300Y7055700D01*
X6705800Y7067000D01*
X6710000Y7078200D01*
Y7089500D01*
X6705800Y7100800D01*
X6699400Y7110400D01*
X6691000Y7118500D01*
G01X6710000Y7227100D02*
X6583000D01*
X6674000Y7167500D01*
Y7248000D01*
G01X6583000Y7337200D02*
X6587200Y7324400D01*
X6597800Y7314700D01*
X6610500Y7308300D01*
X6627500Y7303500D01*
X6646500Y7301900D01*
X6665600Y7303500D01*
X6682500Y7308300D01*
X6695200Y7314700D01*
X6705800Y7324400D01*
X6710000Y7337200D01*
X6705800Y7350100D01*
X6695200Y7359800D01*
X6682500Y7366200D01*
X6665600Y7371000D01*
X6646500Y7372600D01*
X6627500Y7371000D01*
X6610500Y7366200D01*
X6597800Y7359800D01*
X6587200Y7350100D01*
X6583000Y7337200D01*
G01X6633600Y7713600D02*
X6627200Y7704000D01*
X6623000Y7692700D01*
Y7679900D01*
X6629400Y7665400D01*
X6639900Y7654100D01*
X6652600Y7646100D01*
X6673800Y7639600D01*
X6692900Y7638000D01*
X6711900Y7641300D01*
X6724600Y7646100D01*
X6737300Y7655700D01*
X6745800Y7667000D01*
X6750000Y7678200D01*
Y7689500D01*
X6745800Y7700800D01*
X6739400Y7710400D01*
X6731000Y7718500D01*
G01X6724600Y7772400D02*
X6739400Y7782000D01*
X6747900Y7794900D01*
X6750000Y7809400D01*
X6747900Y7822200D01*
X6737300Y7835100D01*
X6724600Y7843100D01*
X6711900Y7844700D01*
X6697100Y7841500D01*
X6686500Y7830300D01*
X6682300Y7819000D01*
Y7804500D01*
G01Y7819000D02*
X6675900Y7828700D01*
X6665300Y7836700D01*
X6652600Y7839900D01*
X6639900Y7836700D01*
X6629400Y7828700D01*
X6623000Y7814200D01*
X6625100Y7799700D01*
X6633600Y7785200D01*
G01X6735200Y7909900D02*
X6745800Y7921200D01*
X6750000Y7934000D01*
X6745800Y7946900D01*
X6733100Y7958200D01*
X6714000Y7966200D01*
X6695000Y7969400D01*
X6671700D01*
X6652600Y7966200D01*
X6635700Y7958200D01*
X6627200Y7948500D01*
X6623000Y7937200D01*
X6627200Y7924400D01*
X6635700Y7914700D01*
X6648400Y7908300D01*
X6665300Y7905100D01*
X6680100Y7908300D01*
X6695000Y7916300D01*
X6703400Y7926000D01*
X6705600Y7937200D01*
X6701300Y7950100D01*
X6690700Y7959800D01*
X6671700Y7969400D01*
G01X6936100Y2650000D02*
Y2777000D01*
X6976300D01*
X6989200Y2770600D01*
X6997200Y2762200D01*
X7000400Y2745200D01*
X6997200Y2728300D01*
X6987600Y2717700D01*
X6976300Y2711400D01*
X6936100D01*
G01X6976300D02*
X7000400Y2650000D01*
G01X7097700D02*
Y2777000D01*
X7078400Y2751600D01*
G01Y2650000D02*
X7117000D01*
G01X7191900Y2669000D02*
X7201500Y2658500D01*
X7212800Y2652100D01*
X7227200Y2650000D01*
X7241700Y2654200D01*
X7253000Y2662700D01*
X7261000Y2677500D01*
X7262600Y2694400D01*
X7259400Y2711400D01*
X7251400Y2722000D01*
X7240100Y2730400D01*
X7228900Y2732500D01*
X7217600Y2730400D01*
X7203100Y2722000D01*
X7207900Y2777000D01*
X7251400D01*
G01X7047900Y8923500D02*
X7080100D01*
Y8885400D01*
X7070400Y8872700D01*
X7059200Y8864200D01*
X7043100Y8860000D01*
X7027000Y8864200D01*
X7015700Y8872700D01*
X7006100Y8885400D01*
X6999600Y8900200D01*
X6996400Y8917100D01*
Y8932000D01*
X6999600Y8944700D01*
X7006100Y8959500D01*
X7015700Y8972200D01*
X7025400Y8980600D01*
X7038200Y8987000D01*
X7049500D01*
X7062400Y8982800D01*
X7072000Y8974300D01*
G01X7130800Y8860000D02*
Y8987000D01*
X7204700Y8860000D01*
Y8987000D01*
G01X7261900Y8860000D02*
Y8987000D01*
X7294000D01*
X7306900Y8980600D01*
X7316600Y8972200D01*
X7324600Y8959500D01*
X7331000Y8944700D01*
X7332600Y8923500D01*
X7331000Y8902300D01*
X7324600Y8887500D01*
X7316600Y8874800D01*
X7306900Y8866300D01*
X7294000Y8860000D01*
X7261900D01*
G01X6966100Y9830000D02*
Y9957000D01*
X7006300D01*
X7019200Y9950600D01*
X7027200Y9942200D01*
X7030400Y9925200D01*
X7027200Y9908300D01*
X7017600Y9897700D01*
X7006300Y9891400D01*
X6966100D01*
G01X7006300D02*
X7030400Y9830000D01*
G01X7094000Y9846900D02*
X7106800Y9836300D01*
X7121300Y9830000D01*
X7134200D01*
X7147100Y9836300D01*
X7156700Y9846900D01*
X7161500Y9861800D01*
X7158300Y9876600D01*
X7150300Y9889300D01*
X7135800Y9897700D01*
X7116500Y9902000D01*
X7105200Y9910400D01*
X7100400Y9925200D01*
X7103600Y9940100D01*
X7111700Y9950600D01*
X7122900Y9957000D01*
X7134200D01*
X7145400Y9952800D01*
X7155100Y9942200D01*
G01X7257200Y9957000D02*
Y9830000D01*
G01X7220300Y9957000D02*
X7294200D01*
G01X7266100Y175400D02*
X7274100Y162700D01*
X7283800Y154200D01*
X7295000Y150000D01*
X7307900Y154200D01*
X7317600Y162700D01*
X7327200Y175400D01*
X7330400Y192300D01*
Y277000D01*
G01X7400400Y164800D02*
X7411700Y154200D01*
X7424500Y150000D01*
X7437400Y154200D01*
X7448700Y166900D01*
X7456700Y186000D01*
X7459900Y205000D01*
Y228300D01*
X7456700Y247400D01*
X7448700Y264300D01*
X7439000Y272800D01*
X7427700Y277000D01*
X7414900Y272800D01*
X7405200Y264300D01*
X7398800Y251600D01*
X7395600Y234700D01*
X7398800Y219900D01*
X7406800Y205000D01*
X7416500Y196600D01*
X7427700Y194400D01*
X7440600Y198700D01*
X7450300Y209300D01*
X7459900Y228300D01*
G01X7313600Y2086400D02*
X7304000Y2092800D01*
X7292700Y2097000D01*
X7279900D01*
X7265400Y2090600D01*
X7254100Y2080100D01*
X7246100Y2067400D01*
X7239600Y2046200D01*
X7238000Y2027100D01*
X7241300Y2008100D01*
X7246100Y1995400D01*
X7255700Y1982700D01*
X7267000Y1974200D01*
X7278200Y1970000D01*
X7289500D01*
X7300800Y1974200D01*
X7310400Y1980600D01*
X7318500Y1989000D01*
G01X7427100Y1970000D02*
Y2097000D01*
X7367500Y2006000D01*
X7448000D01*
G01X7501900Y1989000D02*
X7511500Y1978500D01*
X7522800Y1972100D01*
X7537200Y1970000D01*
X7551700Y1974200D01*
X7563000Y1982700D01*
X7571000Y1997500D01*
X7572600Y2014400D01*
X7569400Y2031400D01*
X7561400Y2042000D01*
X7550100Y2050400D01*
X7538900Y2052500D01*
X7527600Y2050400D01*
X7513100Y2042000D01*
X7517900Y2097000D01*
X7561400D01*
G01X7400000Y6229700D02*
X7321300D01*
Y6254100D01*
X7325200Y6261900D01*
X7330500Y6266700D01*
X7341000Y6268700D01*
X7351500Y6266700D01*
X7358000Y6260900D01*
X7362000Y6254100D01*
Y6229700D01*
G01Y6254100D02*
X7400000Y6268700D01*
G01X7384300Y6306500D02*
X7393400Y6312300D01*
X7398700Y6320100D01*
X7400000Y6328900D01*
X7398700Y6336700D01*
X7392100Y6344400D01*
X7384300Y6349300D01*
X7376400Y6350300D01*
X7367200Y6348300D01*
X7360700Y6341500D01*
X7358000Y6334700D01*
Y6326000D01*
G01Y6334700D02*
X7354100Y6340600D01*
X7347500Y6345400D01*
X7339700Y6347400D01*
X7331800Y6345400D01*
X7325200Y6340600D01*
X7321300Y6331800D01*
X7322600Y6323000D01*
X7327900Y6314300D01*
G01X7400000Y6418300D02*
X7321300D01*
X7377700Y6382300D01*
Y6430900D01*
G01X7390000Y6849700D02*
X7311300D01*
Y6874100D01*
X7315200Y6881900D01*
X7320500Y6886700D01*
X7331000Y6888700D01*
X7341500Y6886700D01*
X7348000Y6880900D01*
X7352000Y6874100D01*
Y6849700D01*
G01Y6874100D02*
X7390000Y6888700D01*
G01Y6959600D02*
X7311300D01*
X7367700Y6923600D01*
Y6972200D01*
G01X7324400Y7008100D02*
X7316500Y7013900D01*
X7312600Y7020800D01*
X7311300Y7028500D01*
X7313900Y7038300D01*
X7320500Y7045100D01*
X7328400Y7047000D01*
X7336200Y7046100D01*
X7342800Y7042200D01*
X7355900Y7022700D01*
X7365100Y7013900D01*
X7378200Y7008100D01*
X7390000Y7006200D01*
Y7047000D01*
G01Y7159700D02*
X7311300D01*
Y7184100D01*
X7315200Y7191900D01*
X7320500Y7196700D01*
X7331000Y7198700D01*
X7341500Y7196700D01*
X7348000Y7190900D01*
X7352000Y7184100D01*
Y7159700D01*
G01Y7184100D02*
X7390000Y7198700D01*
G01X7378200Y7236500D02*
X7384800Y7242300D01*
X7388700Y7249100D01*
X7390000Y7257900D01*
X7387400Y7266700D01*
X7382100Y7273500D01*
X7372900Y7278300D01*
X7362500Y7279300D01*
X7352000Y7277400D01*
X7345400Y7272500D01*
X7340200Y7265700D01*
X7338800Y7258900D01*
X7340200Y7252100D01*
X7345400Y7243300D01*
X7311300Y7246200D01*
Y7272500D01*
G01Y7336600D02*
X7313900Y7328800D01*
X7320500Y7323000D01*
X7328400Y7319100D01*
X7338800Y7316200D01*
X7350700Y7315200D01*
X7362500Y7316200D01*
X7372900Y7319100D01*
X7380800Y7323000D01*
X7387400Y7328800D01*
X7390000Y7336600D01*
X7387400Y7344400D01*
X7380800Y7350200D01*
X7372900Y7354100D01*
X7362500Y7357000D01*
X7350700Y7358000D01*
X7338800Y7357000D01*
X7328400Y7354100D01*
X7320500Y7350200D01*
X7313900Y7344400D01*
X7311300Y7336600D01*
G01X7390000Y7479700D02*
X7311300D01*
Y7504100D01*
X7315200Y7511900D01*
X7320500Y7516700D01*
X7331000Y7518700D01*
X7341500Y7516700D01*
X7348000Y7510900D01*
X7352000Y7504100D01*
Y7479700D01*
G01Y7504100D02*
X7390000Y7518700D01*
G01X7378200Y7556500D02*
X7384800Y7562300D01*
X7388700Y7569100D01*
X7390000Y7577900D01*
X7387400Y7586700D01*
X7382100Y7593500D01*
X7372900Y7598300D01*
X7362500Y7599300D01*
X7352000Y7597400D01*
X7345400Y7592500D01*
X7340200Y7585700D01*
X7338800Y7578900D01*
X7340200Y7572100D01*
X7345400Y7563300D01*
X7311300Y7566200D01*
Y7592500D01*
G01X7324400Y7638100D02*
X7316500Y7643900D01*
X7312600Y7650800D01*
X7311300Y7658500D01*
X7313900Y7668300D01*
X7320500Y7675100D01*
X7328400Y7677000D01*
X7336200Y7676100D01*
X7342800Y7672200D01*
X7355900Y7652700D01*
X7365100Y7643900D01*
X7378200Y7638100D01*
X7390000Y7636200D01*
Y7677000D01*
G01X7238000Y9327000D02*
X7278200Y9200000D01*
X7318500Y9327000D01*
G01X7443100Y9316400D02*
X7433500Y9322800D01*
X7422200Y9327000D01*
X7409400D01*
X7394900Y9320600D01*
X7383600Y9310100D01*
X7375600Y9297400D01*
X7369100Y9276200D01*
X7367500Y9257100D01*
X7370800Y9238100D01*
X7375600Y9225400D01*
X7385200Y9212700D01*
X7396500Y9204200D01*
X7407700Y9200000D01*
X7419000D01*
X7430300Y9204200D01*
X7439900Y9210600D01*
X7448000Y9219000D01*
G01X7572600Y9316400D02*
X7563000Y9322800D01*
X7551700Y9327000D01*
X7538900D01*
X7524400Y9320600D01*
X7513100Y9310100D01*
X7505100Y9297400D01*
X7498600Y9276200D01*
X7497000Y9257100D01*
X7500300Y9238100D01*
X7505100Y9225400D01*
X7514700Y9212700D01*
X7526000Y9204200D01*
X7537200Y9200000D01*
X7548500D01*
X7559800Y9204200D01*
X7569400Y9210600D01*
X7577500Y9219000D01*
G01X7457900Y473500D02*
X7490100D01*
Y435400D01*
X7480400Y422700D01*
X7469200Y414200D01*
X7453100Y410000D01*
X7437000Y414200D01*
X7425700Y422700D01*
X7416100Y435400D01*
X7409600Y450200D01*
X7406400Y467100D01*
Y482000D01*
X7409600Y494700D01*
X7416100Y509500D01*
X7425700Y522200D01*
X7435400Y530600D01*
X7448200Y537000D01*
X7459500D01*
X7472400Y532800D01*
X7482000Y524300D01*
G01X7540800Y410000D02*
Y537000D01*
X7614700Y410000D01*
Y537000D01*
G01X7671900Y410000D02*
Y537000D01*
X7704000D01*
X7716900Y530600D01*
X7726600Y522200D01*
X7734600Y509500D01*
X7741000Y494700D01*
X7742600Y473500D01*
X7741000Y452300D01*
X7734600Y437500D01*
X7726600Y424800D01*
X7716900Y416300D01*
X7704000Y410000D01*
X7671900D01*
G01X7534500Y8706900D02*
X7547300Y8696300D01*
X7561800Y8690000D01*
X7574700D01*
X7587600Y8696300D01*
X7597200Y8706900D01*
X7602000Y8721800D01*
X7598800Y8736600D01*
X7590800Y8749300D01*
X7576300Y8757700D01*
X7557000Y8762000D01*
X7545700Y8770400D01*
X7540900Y8785200D01*
X7544100Y8800100D01*
X7552200Y8810600D01*
X7563400Y8817000D01*
X7574700D01*
X7585900Y8812800D01*
X7595600Y8802200D01*
G01X7649500Y8817000D02*
X7672000Y8690000D01*
X7697700Y8817000D01*
X7723500Y8690000D01*
X7746000Y8817000D01*
G01X7827200Y8690000D02*
Y8817000D01*
X7807900Y8791600D01*
G01Y8690000D02*
X7846500D01*
G01X7596100Y9650000D02*
Y9777000D01*
X7636300D01*
X7649200Y9770600D01*
X7657200Y9762200D01*
X7660400Y9745200D01*
X7657200Y9728300D01*
X7647600Y9717700D01*
X7636300Y9711400D01*
X7596100D01*
G01X7636300D02*
X7660400Y9650000D01*
G01X7722400Y9669000D02*
X7732000Y9658500D01*
X7743300Y9652100D01*
X7757700Y9650000D01*
X7772200Y9654200D01*
X7783500Y9662700D01*
X7791500Y9677500D01*
X7793100Y9694400D01*
X7789900Y9711400D01*
X7781900Y9722000D01*
X7770600Y9730400D01*
X7759400Y9732500D01*
X7748100Y9730400D01*
X7733600Y9722000D01*
X7738400Y9777000D01*
X7781900D01*
G01X7859900Y9664800D02*
X7871200Y9654200D01*
X7884000Y9650000D01*
X7896900Y9654200D01*
X7908200Y9666900D01*
X7916200Y9686000D01*
X7919400Y9705000D01*
Y9728300D01*
X7916200Y9747400D01*
X7908200Y9764300D01*
X7898500Y9772800D01*
X7887200Y9777000D01*
X7874400Y9772800D01*
X7864700Y9764300D01*
X7858300Y9751600D01*
X7855100Y9734700D01*
X7858300Y9719900D01*
X7866300Y9705000D01*
X7876000Y9696600D01*
X7887200Y9694400D01*
X7900100Y9698700D01*
X7909800Y9709300D01*
X7919400Y9728300D01*
G01X7803600Y2086400D02*
X7794000Y2092800D01*
X7782700Y2097000D01*
X7769900D01*
X7755400Y2090600D01*
X7744100Y2080100D01*
X7736100Y2067400D01*
X7729600Y2046200D01*
X7728000Y2027100D01*
X7731300Y2008100D01*
X7736100Y1995400D01*
X7745700Y1982700D01*
X7757000Y1974200D01*
X7768200Y1970000D01*
X7779500D01*
X7790800Y1974200D01*
X7800400Y1980600D01*
X7808500Y1989000D01*
G01X7917100Y1970000D02*
Y2097000D01*
X7857500Y2006000D01*
X7938000D01*
G01X8046600Y1970000D02*
Y2097000D01*
X7987000Y2006000D01*
X8067500D01*
G01X7736100Y2865400D02*
X7744100Y2852700D01*
X7753800Y2844200D01*
X7765000Y2840000D01*
X7777900Y2844200D01*
X7787600Y2852700D01*
X7797200Y2865400D01*
X7800400Y2882300D01*
Y2967000D01*
G01X7862400Y2865400D02*
X7872000Y2850600D01*
X7884900Y2842100D01*
X7899400Y2840000D01*
X7912200Y2842100D01*
X7925100Y2852700D01*
X7933100Y2865400D01*
X7934700Y2878100D01*
X7931500Y2892900D01*
X7920300Y2903500D01*
X7909000Y2907700D01*
X7894500D01*
G01X7909000D02*
X7918700Y2914100D01*
X7926700Y2924700D01*
X7929900Y2937400D01*
X7926700Y2950100D01*
X7918700Y2960600D01*
X7904200Y2967000D01*
X7889700Y2964900D01*
X7875200Y2956400D01*
G01X7772900Y7807000D02*
Y7716000D01*
X7779300Y7696900D01*
X7792200Y7684200D01*
X7808200Y7680000D01*
X7824300Y7684200D01*
X7837200Y7696900D01*
X7843600Y7716000D01*
Y7807000D01*
G01X7957100Y7680000D02*
Y7807000D01*
X7897500Y7716000D01*
X7978000D01*
G01X8041800Y1558900D02*
Y1685900D01*
X8073900D01*
X8086800Y1679500D01*
X8096500Y1671100D01*
X8104500Y1658400D01*
X8110900Y1643600D01*
X8112500Y1622400D01*
X8110900Y1601200D01*
X8104500Y1586400D01*
X8096500Y1573700D01*
X8086800Y1565200D01*
X8073900Y1558900D01*
X8041800D01*
G01X8171300Y1577900D02*
X8180900Y1567400D01*
X8192200Y1561000D01*
X8206600Y1558900D01*
X8221100Y1563100D01*
X8232400Y1571600D01*
X8240400Y1586400D01*
X8242000Y1603300D01*
X8238800Y1620300D01*
X8230800Y1630900D01*
X8219500Y1639300D01*
X8208300Y1641400D01*
X8197000Y1639300D01*
X8182500Y1630900D01*
X8187300Y1685900D01*
X8230800D01*
G01X7922900Y6090000D02*
Y6217000D01*
X7955000D01*
X7967900Y6210600D01*
X7977600Y6202200D01*
X7985600Y6189500D01*
X7992000Y6174700D01*
X7993600Y6153500D01*
X7992000Y6132300D01*
X7985600Y6117500D01*
X7977600Y6104800D01*
X7967900Y6096300D01*
X7955000Y6090000D01*
X7922900D01*
G01X8087700D02*
Y6217000D01*
X8068400Y6191600D01*
G01Y6090000D02*
X8107000D01*
G01X8302900Y159000D02*
X8312500Y148500D01*
X8323800Y142100D01*
X8338200Y140000D01*
X8352700Y144200D01*
X8364000Y152700D01*
X8372000Y167500D01*
X8373600Y184400D01*
X8370400Y201400D01*
X8362400Y212000D01*
X8351100Y220400D01*
X8339900Y222500D01*
X8328600Y220400D01*
X8314100Y212000D01*
X8318900Y267000D01*
X8362400D01*
G01X8427500D02*
X8467700Y140000D01*
X8508000Y267000D01*
G01X8246100Y3717000D02*
Y3590000D01*
X8310400D01*
G01X8427100D02*
Y3717000D01*
X8367500Y3626000D01*
X8448000D01*
G01X8363600Y5736400D02*
X8354000Y5742800D01*
X8342700Y5747000D01*
X8329900D01*
X8315400Y5740600D01*
X8304100Y5730100D01*
X8296100Y5717400D01*
X8289600Y5696200D01*
X8288000Y5677100D01*
X8291300Y5658100D01*
X8296100Y5645400D01*
X8305700Y5632700D01*
X8317000Y5624200D01*
X8328200Y5620000D01*
X8339500D01*
X8350800Y5624200D01*
X8360400Y5630600D01*
X8368500Y5639000D01*
G01X8427200Y5725800D02*
X8436800Y5738500D01*
X8448100Y5744900D01*
X8461000Y5747000D01*
X8477100Y5742800D01*
X8488300Y5732200D01*
X8491500Y5719500D01*
X8489900Y5706800D01*
X8483500Y5696200D01*
X8451300Y5675000D01*
X8436800Y5660200D01*
X8427200Y5639000D01*
X8424000Y5620000D01*
X8491500D01*
G01X8551900Y5645400D02*
X8561500Y5630600D01*
X8574400Y5622100D01*
X8588900Y5620000D01*
X8601700Y5622100D01*
X8614600Y5632700D01*
X8622600Y5645400D01*
X8624200Y5658100D01*
X8621000Y5672900D01*
X8609800Y5683500D01*
X8598500Y5687700D01*
X8584000D01*
G01X8598500D02*
X8608200Y5694100D01*
X8616200Y5704700D01*
X8619400Y5717400D01*
X8616200Y5730100D01*
X8608200Y5740600D01*
X8593700Y5747000D01*
X8579200Y5744900D01*
X8564700Y5736400D01*
G01X8623600Y3626400D02*
X8614000Y3632800D01*
X8602700Y3637000D01*
X8589900D01*
X8575400Y3630600D01*
X8564100Y3620100D01*
X8556100Y3607400D01*
X8549600Y3586200D01*
X8548000Y3567100D01*
X8551300Y3548100D01*
X8556100Y3535400D01*
X8565700Y3522700D01*
X8577000Y3514200D01*
X8588200Y3510000D01*
X8599500D01*
X8610800Y3514200D01*
X8620400Y3520600D01*
X8628500Y3529000D01*
G01X8687200Y3615800D02*
X8696800Y3628500D01*
X8708100Y3634900D01*
X8721000Y3637000D01*
X8737100Y3632800D01*
X8748300Y3622200D01*
X8751500Y3609500D01*
X8749900Y3596800D01*
X8743500Y3586200D01*
X8711300Y3565000D01*
X8696800Y3550200D01*
X8687200Y3529000D01*
X8684000Y3510000D01*
X8751500D01*
G01X8866600D02*
Y3637000D01*
X8807000Y3546000D01*
X8887500D01*
G01X8506100Y7750000D02*
Y7877000D01*
X8546300D01*
X8559200Y7870600D01*
X8567200Y7862200D01*
X8570400Y7845200D01*
X8567200Y7828300D01*
X8557600Y7817700D01*
X8546300Y7811400D01*
X8506100D01*
G01X8546300D02*
X8570400Y7750000D01*
G01X8632400Y7769000D02*
X8642000Y7758500D01*
X8653300Y7752100D01*
X8667700Y7750000D01*
X8682200Y7754200D01*
X8693500Y7762700D01*
X8701500Y7777500D01*
X8703100Y7794400D01*
X8699900Y7811400D01*
X8691900Y7822000D01*
X8680600Y7830400D01*
X8669400Y7832500D01*
X8658100Y7830400D01*
X8643600Y7822000D01*
X8648400Y7877000D01*
X8691900D01*
G01X8761900Y7775400D02*
X8771500Y7760600D01*
X8784400Y7752100D01*
X8798900Y7750000D01*
X8811700Y7752100D01*
X8824600Y7762700D01*
X8832600Y7775400D01*
X8834200Y7788100D01*
X8831000Y7802900D01*
X8819800Y7813500D01*
X8808500Y7817700D01*
X8794000D01*
G01X8808500D02*
X8818200Y7824100D01*
X8826200Y7834700D01*
X8829400Y7847400D01*
X8826200Y7860100D01*
X8818200Y7870600D01*
X8803700Y7877000D01*
X8789200Y7874900D01*
X8774700Y7866400D01*
G01X8697700Y1660000D02*
Y1787000D01*
X8758800D01*
G01X8736300Y1725600D02*
X8697700D01*
G01X8857700Y1660000D02*
Y1787000D01*
X8838400Y1761600D01*
G01Y1660000D02*
X8877000D01*
G01X8912900Y2780000D02*
Y2907000D01*
X8945000D01*
X8957900Y2900600D01*
X8967600Y2892200D01*
X8975600Y2879500D01*
X8982000Y2864700D01*
X8983600Y2843500D01*
X8982000Y2822300D01*
X8975600Y2807500D01*
X8967600Y2794800D01*
X8957900Y2786300D01*
X8945000Y2780000D01*
X8912900D01*
G01X9047200Y2885800D02*
X9056800Y2898500D01*
X9068100Y2904900D01*
X9081000Y2907000D01*
X9097100Y2902800D01*
X9108300Y2892200D01*
X9111500Y2879500D01*
X9109900Y2866800D01*
X9103500Y2856200D01*
X9071300Y2835000D01*
X9056800Y2820200D01*
X9047200Y2799000D01*
X9044000Y2780000D01*
X9111500D01*
G01X8946100Y4090000D02*
Y4217000D01*
X8984700D01*
X8997600Y4210600D01*
X9007200Y4195800D01*
X9010400Y4178900D01*
X9007200Y4162000D01*
X8999200Y4149300D01*
X8984700Y4142900D01*
X8946100D01*
G01X9059500Y4217000D02*
X9082000Y4090000D01*
X9107700Y4217000D01*
X9133500Y4090000D01*
X9156000Y4217000D01*
G01X9205100Y4090000D02*
Y4217000D01*
X9245300D01*
X9258200Y4210600D01*
X9266200Y4202200D01*
X9269400Y4185200D01*
X9266200Y4168300D01*
X9256600Y4157700D01*
X9245300Y4151400D01*
X9205100D01*
G01X9245300D02*
X9269400Y4090000D01*
G01X8946100Y4850000D02*
Y4977000D01*
X8984700D01*
X8997600Y4970600D01*
X9007200Y4955800D01*
X9010400Y4938900D01*
X9007200Y4922000D01*
X8999200Y4909300D01*
X8984700Y4902900D01*
X8946100D01*
G01X9059500Y4977000D02*
X9082000Y4850000D01*
X9107700Y4977000D01*
X9133500Y4850000D01*
X9156000Y4977000D01*
G01X9205100Y4850000D02*
Y4977000D01*
X9245300D01*
X9258200Y4970600D01*
X9266200Y4962200D01*
X9269400Y4945200D01*
X9266200Y4928300D01*
X9256600Y4917700D01*
X9245300Y4911400D01*
X9205100D01*
G01X9245300D02*
X9269400Y4850000D01*
G01X8938000Y5220000D02*
X8978200Y5347000D01*
X9018500Y5220000D01*
G01X9004000Y5264400D02*
X8952500D01*
G01X9088400Y5347000D02*
X9127000D01*
G01X9107700D02*
Y5220000D01*
G01X9088400D02*
X9127000D01*
G01X9201900Y5245400D02*
X9211500Y5230600D01*
X9224400Y5222100D01*
X9238900Y5220000D01*
X9251700Y5222100D01*
X9264600Y5232700D01*
X9272600Y5245400D01*
X9274200Y5258100D01*
X9271000Y5272900D01*
X9259800Y5283500D01*
X9248500Y5287700D01*
X9234000D01*
G01X9248500D02*
X9258200Y5294100D01*
X9266200Y5304700D01*
X9269400Y5317400D01*
X9266200Y5330100D01*
X9258200Y5340600D01*
X9243700Y5347000D01*
X9229200Y5344900D01*
X9214700Y5336400D01*
G01X8936100Y5757000D02*
Y5630000D01*
X9000400D01*
G01X9062400Y5655400D02*
X9072000Y5640600D01*
X9084900Y5632100D01*
X9099400Y5630000D01*
X9112200Y5632100D01*
X9125100Y5642700D01*
X9133100Y5655400D01*
X9134700Y5668100D01*
X9131500Y5682900D01*
X9120300Y5693500D01*
X9109000Y5697700D01*
X9094500D01*
G01X9109000D02*
X9118700Y5704100D01*
X9126700Y5714700D01*
X9129900Y5727400D01*
X9126700Y5740100D01*
X9118700Y5750600D01*
X9104200Y5757000D01*
X9089700Y5754900D01*
X9075200Y5746400D01*
G01X8896100Y6490000D02*
Y6617000D01*
X8936300D01*
X8949200Y6610600D01*
X8957200Y6602200D01*
X8960400Y6585200D01*
X8957200Y6568300D01*
X8947600Y6557700D01*
X8936300Y6551400D01*
X8896100D01*
G01X8936300D02*
X8960400Y6490000D01*
G01X9022400Y6515400D02*
X9032000Y6500600D01*
X9044900Y6492100D01*
X9059400Y6490000D01*
X9072200Y6492100D01*
X9085100Y6502700D01*
X9093100Y6515400D01*
X9094700Y6528100D01*
X9091500Y6542900D01*
X9080300Y6553500D01*
X9069000Y6557700D01*
X9054500D01*
G01X9069000D02*
X9078700Y6564100D01*
X9086700Y6574700D01*
X9089900Y6587400D01*
X9086700Y6600100D01*
X9078700Y6610600D01*
X9064200Y6617000D01*
X9049700Y6614900D01*
X9035200Y6606400D01*
G01X9151900Y6509000D02*
X9161500Y6498500D01*
X9172800Y6492100D01*
X9187200Y6490000D01*
X9201700Y6494200D01*
X9213000Y6502700D01*
X9221000Y6517500D01*
X9222600Y6534400D01*
X9219400Y6551400D01*
X9211400Y6562000D01*
X9200100Y6570400D01*
X9188900Y6572500D01*
X9177600Y6570400D01*
X9163100Y6562000D01*
X9167900Y6617000D01*
X9211400D01*
G01X8886100Y6910000D02*
Y7037000D01*
X8926300D01*
X8939200Y7030600D01*
X8947200Y7022200D01*
X8950400Y7005200D01*
X8947200Y6988300D01*
X8937600Y6977700D01*
X8926300Y6971400D01*
X8886100D01*
G01X8926300D02*
X8950400Y6910000D01*
G01X9067100D02*
Y7037000D01*
X9007500Y6946000D01*
X9088000D01*
G01X9141900Y6935400D02*
X9151500Y6920600D01*
X9164400Y6912100D01*
X9178900Y6910000D01*
X9191700Y6912100D01*
X9204600Y6922700D01*
X9212600Y6935400D01*
X9214200Y6948100D01*
X9211000Y6962900D01*
X9199800Y6973500D01*
X9188500Y6977700D01*
X9174000D01*
G01X9188500D02*
X9198200Y6984100D01*
X9206200Y6994700D01*
X9209400Y7007400D01*
X9206200Y7020100D01*
X9198200Y7030600D01*
X9183700Y7037000D01*
X9169200Y7034900D01*
X9154700Y7026400D01*
G01X8886100Y7210000D02*
Y7337000D01*
X8926300D01*
X8939200Y7330600D01*
X8947200Y7322200D01*
X8950400Y7305200D01*
X8947200Y7288300D01*
X8937600Y7277700D01*
X8926300Y7271400D01*
X8886100D01*
G01X8926300D02*
X8950400Y7210000D01*
G01X9012400Y7229000D02*
X9022000Y7218500D01*
X9033300Y7212100D01*
X9047700Y7210000D01*
X9062200Y7214200D01*
X9073500Y7222700D01*
X9081500Y7237500D01*
X9083100Y7254400D01*
X9079900Y7271400D01*
X9071900Y7282000D01*
X9060600Y7290400D01*
X9049400Y7292500D01*
X9038100Y7290400D01*
X9023600Y7282000D01*
X9028400Y7337000D01*
X9071900D01*
G01X9177200Y7210000D02*
Y7337000D01*
X9157900Y7311600D01*
G01Y7210000D02*
X9196500D01*
G01X9033600Y766400D02*
X9024000Y772800D01*
X9012700Y777000D01*
X8999900D01*
X8985400Y770600D01*
X8974100Y760100D01*
X8966100Y747400D01*
X8959600Y726200D01*
X8958000Y707100D01*
X8961300Y688100D01*
X8966100Y675400D01*
X8975700Y662700D01*
X8987000Y654200D01*
X8998200Y650000D01*
X9009500D01*
X9020800Y654200D01*
X9030400Y660600D01*
X9038500Y669000D01*
G01X9092400Y675400D02*
X9102000Y660600D01*
X9114900Y652100D01*
X9129400Y650000D01*
X9142200Y652100D01*
X9155100Y662700D01*
X9163100Y675400D01*
X9164700Y688100D01*
X9161500Y702900D01*
X9150300Y713500D01*
X9139000Y717700D01*
X9124500D01*
G01X9139000D02*
X9148700Y724100D01*
X9156700Y734700D01*
X9159900Y747400D01*
X9156700Y760100D01*
X9148700Y770600D01*
X9134200Y777000D01*
X9119700Y774900D01*
X9105200Y766400D01*
G01X9276600Y650000D02*
Y777000D01*
X9217000Y686000D01*
X9297500D01*
G01X9146100Y2085400D02*
X9154100Y2072700D01*
X9163800Y2064200D01*
X9175000Y2060000D01*
X9187900Y2064200D01*
X9197600Y2072700D01*
X9207200Y2085400D01*
X9210400Y2102300D01*
Y2187000D01*
G01X9277200Y2112900D02*
X9288400Y2127700D01*
X9298100Y2136200D01*
X9311000Y2140400D01*
X9322200Y2136200D01*
X9330300Y2127700D01*
X9336700Y2115000D01*
X9338300Y2100200D01*
X9336700Y2087500D01*
X9330300Y2074800D01*
X9320600Y2064200D01*
X9309400Y2060000D01*
X9296500Y2064200D01*
X9285200Y2076900D01*
X9278800Y2096000D01*
X9277200Y2117100D01*
X9280400Y2144700D01*
X9285200Y2159500D01*
X9293300Y2174300D01*
X9304500Y2184900D01*
X9315800Y2187000D01*
X9327100Y2182800D01*
X9335100Y2172200D01*
G01X9108000Y2950000D02*
X9148200Y3077000D01*
X9188500Y2950000D01*
G01X9174000Y2994400D02*
X9122500D01*
G01X9258400Y3077000D02*
X9297000D01*
G01X9277700D02*
Y2950000D01*
G01X9258400D02*
X9297000D01*
G01X9407200Y3077000D02*
X9394400Y3072800D01*
X9384700Y3062200D01*
X9378300Y3049500D01*
X9373500Y3032500D01*
X9371900Y3013500D01*
X9373500Y2994400D01*
X9378300Y2977500D01*
X9384700Y2964800D01*
X9394400Y2954200D01*
X9407200Y2950000D01*
X9420100Y2954200D01*
X9429800Y2964800D01*
X9436200Y2977500D01*
X9441000Y2994400D01*
X9442600Y3013500D01*
X9441000Y3032500D01*
X9436200Y3049500D01*
X9429800Y3062200D01*
X9420100Y3072800D01*
X9407200Y3077000D01*
G01X8958000Y3700000D02*
X8998200Y3827000D01*
X9038500Y3700000D01*
G01X9024000Y3744400D02*
X8972500D01*
G01X9108400Y3827000D02*
X9147000D01*
G01X9127700D02*
Y3700000D01*
G01X9108400D02*
X9147000D01*
G01X9257200D02*
Y3827000D01*
X9237900Y3801600D01*
G01Y3700000D02*
X9276500D01*
G01X8948000Y4460000D02*
X8988200Y4587000D01*
X9028500Y4460000D01*
G01X9014000Y4504400D02*
X8962500D01*
G01X9098400Y4587000D02*
X9137000D01*
G01X9117700D02*
Y4460000D01*
G01X9098400D02*
X9137000D01*
G01X9216700Y4565800D02*
X9226300Y4578500D01*
X9237600Y4584900D01*
X9250500Y4587000D01*
X9266600Y4582800D01*
X9277800Y4572200D01*
X9281000Y4559500D01*
X9279400Y4546800D01*
X9273000Y4536200D01*
X9240800Y4515000D01*
X9226300Y4500200D01*
X9216700Y4479000D01*
X9213500Y4460000D01*
X9281000D01*
G01X9132900Y6750000D02*
Y6877000D01*
X9165000D01*
X9177900Y6870600D01*
X9187600Y6862200D01*
X9195600Y6849500D01*
X9202000Y6834700D01*
X9203600Y6813500D01*
X9202000Y6792300D01*
X9195600Y6777500D01*
X9187600Y6764800D01*
X9177900Y6756300D01*
X9165000Y6750000D01*
X9132900D01*
G01X9278400Y6877000D02*
X9317000D01*
G01X9297700D02*
Y6750000D01*
G01X9278400D02*
X9317000D01*
G01X9427200Y6877000D02*
X9414400Y6872800D01*
X9404700Y6862200D01*
X9398300Y6849500D01*
X9393500Y6832500D01*
X9391900Y6813500D01*
X9393500Y6794400D01*
X9398300Y6777500D01*
X9404700Y6764800D01*
X9414400Y6754200D01*
X9427200Y6750000D01*
X9440100Y6754200D01*
X9449800Y6764800D01*
X9456200Y6777500D01*
X9461000Y6794400D01*
X9462600Y6813500D01*
X9461000Y6832500D01*
X9456200Y6849500D01*
X9449800Y6862200D01*
X9440100Y6872800D01*
X9427200Y6877000D01*
G01X9122900Y7580000D02*
Y7707000D01*
X9155000D01*
X9167900Y7700600D01*
X9177600Y7692200D01*
X9185600Y7679500D01*
X9192000Y7664700D01*
X9193600Y7643500D01*
X9192000Y7622300D01*
X9185600Y7607500D01*
X9177600Y7594800D01*
X9167900Y7586300D01*
X9155000Y7580000D01*
X9122900D01*
G01X9268400Y7707000D02*
X9307000D01*
G01X9287700D02*
Y7580000D01*
G01X9268400D02*
X9307000D01*
G01X9417200D02*
Y7707000D01*
X9397900Y7681600D01*
G01Y7580000D02*
X9436500D01*
G01X9106100Y7960000D02*
Y8087000D01*
X9144700D01*
X9157600Y8080600D01*
X9167200Y8065800D01*
X9170400Y8048900D01*
X9167200Y8032000D01*
X9159200Y8019300D01*
X9144700Y8012900D01*
X9106100D01*
G01X9219500Y8087000D02*
X9242000Y7960000D01*
X9267700Y8087000D01*
X9293500Y7960000D01*
X9316000Y8087000D01*
G01X9365100Y7960000D02*
Y8087000D01*
X9405300D01*
X9418200Y8080600D01*
X9426200Y8072200D01*
X9429400Y8055200D01*
X9426200Y8038300D01*
X9416600Y8027700D01*
X9405300Y8021400D01*
X9365100D01*
G01X9405300D02*
X9429400Y7960000D01*
G01X9102900Y8350000D02*
Y8477000D01*
X9135000D01*
X9147900Y8470600D01*
X9157600Y8462200D01*
X9165600Y8449500D01*
X9172000Y8434700D01*
X9173600Y8413500D01*
X9172000Y8392300D01*
X9165600Y8377500D01*
X9157600Y8364800D01*
X9147900Y8356300D01*
X9135000Y8350000D01*
X9102900D01*
G01X9248400Y8477000D02*
X9287000D01*
G01X9267700D02*
Y8350000D01*
G01X9248400D02*
X9287000D01*
G01X9366700Y8455800D02*
X9376300Y8468500D01*
X9387600Y8474900D01*
X9400500Y8477000D01*
X9416600Y8472800D01*
X9427800Y8462200D01*
X9431000Y8449500D01*
X9429400Y8436800D01*
X9423000Y8426200D01*
X9390800Y8405000D01*
X9376300Y8390200D01*
X9366700Y8369000D01*
X9363500Y8350000D01*
X9431000D01*
G01X9106100Y8720000D02*
Y8847000D01*
X9144700D01*
X9157600Y8840600D01*
X9167200Y8825800D01*
X9170400Y8808900D01*
X9167200Y8792000D01*
X9159200Y8779300D01*
X9144700Y8772900D01*
X9106100D01*
G01X9219500Y8847000D02*
X9242000Y8720000D01*
X9267700Y8847000D01*
X9293500Y8720000D01*
X9316000Y8847000D01*
G01X9365100Y8720000D02*
Y8847000D01*
X9405300D01*
X9418200Y8840600D01*
X9426200Y8832200D01*
X9429400Y8815200D01*
X9426200Y8798300D01*
X9416600Y8787700D01*
X9405300Y8781400D01*
X9365100D01*
G01X9405300D02*
X9429400Y8720000D01*
G01X9092900Y9100000D02*
Y9227000D01*
X9125000D01*
X9137900Y9220600D01*
X9147600Y9212200D01*
X9155600Y9199500D01*
X9162000Y9184700D01*
X9163600Y9163500D01*
X9162000Y9142300D01*
X9155600Y9127500D01*
X9147600Y9114800D01*
X9137900Y9106300D01*
X9125000Y9100000D01*
X9092900D01*
G01X9238400Y9227000D02*
X9277000D01*
G01X9257700D02*
Y9100000D01*
G01X9238400D02*
X9277000D01*
G01X9351900Y9125400D02*
X9361500Y9110600D01*
X9374400Y9102100D01*
X9388900Y9100000D01*
X9401700Y9102100D01*
X9414600Y9112700D01*
X9422600Y9125400D01*
X9424200Y9138100D01*
X9421000Y9152900D01*
X9409800Y9163500D01*
X9398500Y9167700D01*
X9384000D01*
G01X9398500D02*
X9408200Y9174100D01*
X9416200Y9184700D01*
X9419400Y9197400D01*
X9416200Y9210100D01*
X9408200Y9220600D01*
X9393700Y9227000D01*
X9379200Y9224900D01*
X9364700Y9216400D01*
G01X9386100Y2635400D02*
X9394100Y2622700D01*
X9403800Y2614200D01*
X9415000Y2610000D01*
X9427900Y2614200D01*
X9437600Y2622700D01*
X9447200Y2635400D01*
X9450400Y2652300D01*
Y2737000D01*
G01X9567100Y2610000D02*
Y2737000D01*
X9507500Y2646000D01*
X9588000D01*
G01X9390000Y3206100D02*
X9263000D01*
Y3244700D01*
X9269400Y3257600D01*
X9284200Y3267200D01*
X9301100Y3270400D01*
X9318000Y3267200D01*
X9330700Y3259200D01*
X9337100Y3244700D01*
Y3206100D01*
G01X9263000Y3319500D02*
X9390000Y3342000D01*
X9263000Y3367700D01*
X9390000Y3393500D01*
X9263000Y3416000D01*
G01X9390000Y3465100D02*
X9263000D01*
Y3505300D01*
X9269400Y3518200D01*
X9277800Y3526200D01*
X9294800Y3529400D01*
X9311700Y3526200D01*
X9322300Y3516600D01*
X9328600Y3505300D01*
Y3465100D01*
G01Y3505300D02*
X9390000Y3529400D01*
G01X9420000Y6216100D02*
X9293000D01*
Y6254700D01*
X9299400Y6267600D01*
X9314200Y6277200D01*
X9331100Y6280400D01*
X9348000Y6277200D01*
X9360700Y6269200D01*
X9367100Y6254700D01*
Y6216100D01*
G01X9293000Y6329500D02*
X9420000Y6352000D01*
X9293000Y6377700D01*
X9420000Y6403500D01*
X9293000Y6426000D01*
G01X9420000Y6475100D02*
X9293000D01*
Y6515300D01*
X9299400Y6528200D01*
X9307800Y6536200D01*
X9324800Y6539400D01*
X9341700Y6536200D01*
X9352300Y6526600D01*
X9358600Y6515300D01*
Y6475100D01*
G01Y6515300D02*
X9420000Y6539400D01*
G01Y7126100D02*
X9293000D01*
Y7164700D01*
X9299400Y7177600D01*
X9314200Y7187200D01*
X9331100Y7190400D01*
X9348000Y7187200D01*
X9360700Y7179200D01*
X9367100Y7164700D01*
Y7126100D01*
G01X9293000Y7239500D02*
X9420000Y7262000D01*
X9293000Y7287700D01*
X9420000Y7313500D01*
X9293000Y7336000D01*
G01X9420000Y7385100D02*
X9293000D01*
Y7425300D01*
X9299400Y7438200D01*
X9307800Y7446200D01*
X9324800Y7449400D01*
X9341700Y7446200D01*
X9352300Y7436600D01*
X9358600Y7425300D01*
Y7385100D01*
G01Y7425300D02*
X9420000Y7449400D01*
G01X9546100Y5890000D02*
Y6017000D01*
X9584700D01*
X9597600Y6010600D01*
X9607200Y5995800D01*
X9610400Y5978900D01*
X9607200Y5962000D01*
X9599200Y5949300D01*
X9584700Y5942900D01*
X9546100D01*
G01X9659500Y6017000D02*
X9682000Y5890000D01*
X9707700Y6017000D01*
X9733500Y5890000D01*
X9756000Y6017000D01*
G01X9805100Y5890000D02*
Y6017000D01*
X9845300D01*
X9858200Y6010600D01*
X9866200Y6002200D01*
X9869400Y5985200D01*
X9866200Y5968300D01*
X9856600Y5957700D01*
X9845300Y5951400D01*
X9805100D01*
G01X9845300D02*
X9869400Y5890000D01*
G01X9646100Y9485400D02*
X9654100Y9472700D01*
X9663800Y9464200D01*
X9675000Y9460000D01*
X9687900Y9464200D01*
X9697600Y9472700D01*
X9707200Y9485400D01*
X9710400Y9502300D01*
Y9587000D01*
G01X9772400Y9479000D02*
X9782000Y9468500D01*
X9793300Y9462100D01*
X9807700Y9460000D01*
X9822200Y9464200D01*
X9833500Y9472700D01*
X9841500Y9487500D01*
X9843100Y9504400D01*
X9839900Y9521400D01*
X9831900Y9532000D01*
X9820600Y9540400D01*
X9809400Y9542500D01*
X9798100Y9540400D01*
X9783600Y9532000D01*
X9788400Y9587000D01*
X9831900D01*
G54D11*
G01X5426000Y3635000D02*
G03I-61000J0D01*
M02*
