G04 ================== begin FILE IDENTIFICATION RECORD ==================*
G04 Layout Name:  G:/Work/io/design/pcb/io_4di_4aic_dbdoctor.brd*
G04 Film Name:    SOLDERMASK_TOP*
G04 File Format:  Gerber RS274X*
G04 File Origin:  Cadence Allegro 17.2-P019*
G04 Origin Date:  Sat May 05 11:38:41 2018*
G04 *
G04 Layer:  VIA CLASS/SOLDERMASK_TOP*
G04 Layer:  PIN/SOLDERMASK_TOP*
G04 Layer:  PACKAGE GEOMETRY/SOLDERMASK_TOP*
G04 Layer:  DRC ERROR CLASS/SOLDERMASK_TOP*
G04 Layer:  BOARD GEOMETRY/SOLDERMASK_TOP*
G04 *
G04 Offset:    (0.000 0.000)*
G04 Mirror:    No*
G04 Mode:      Positive*
G04 Rotation:  0*
G04 FullContactRelief:  No*
G04 UndefLineWidth:     0.200*
G04 ================== end FILE IDENTIFICATION RECORD ====================*
%FSLAX25Y25*MOMM*%
%IR0*IPPOS*OFA0.00000B0.00000*MIA0B0*SFA1.00000B1.00000*%
%ADD23R,.3X1.4*%
%ADD22R,1.4X.3*%
%ADD19R,.4X1.4*%
%ADD17R,1.4X.4*%
%ADD29R,1.6X.4*%
%ADD10C,1.2*%
%ADD26R,3.2X.9*%
%ADD31C,2.4*%
%ADD27R,1.X1.*%
%ADD20C,1.7*%
%ADD12R,1.9X.7*%
%ADD30R,2.4X2.4*%
%ADD18R,1.7X1.7*%
%ADD28R,2.X1.1*%
%ADD32R,1.4X2.*%
%ADD15R,1.X1.6*%
%ADD16R,1.6X1.*%
%ADD14R,1.X1.7*%
%ADD11R,1.7X1.*%
%ADD24R,3.8X2.*%
%ADD25R,1.4X1.8*%
%ADD13R,1.7X4.7*%
%ADD21R,4.7X1.7*%
%LPD*%
G75*
G54D10*
X600000Y1700000D03*
Y1904000D03*
Y2312000D03*
Y2108000D03*
Y3800000D03*
Y4208000D03*
Y4004000D03*
Y4412000D03*
X778000Y1802000D03*
Y2006000D03*
Y2210000D03*
Y2414000D03*
Y3902000D03*
Y4106000D03*
Y4310000D03*
Y4514000D03*
X1258000Y1371000D03*
Y1600000D03*
Y2514000D03*
Y2743000D03*
Y3471000D03*
Y3700000D03*
Y4614000D03*
Y4843000D03*
G54D11*
X2400000Y7310000D03*
Y7120000D03*
Y7830000D03*
Y8020000D03*
X3350000Y7470000D03*
Y7660000D03*
X3760000Y7890000D03*
Y7700000D03*
X4090000Y6290000D03*
Y6100000D03*
X3990000Y6820000D03*
Y7010000D03*
Y7220000D03*
Y7410000D03*
X4010000Y7890000D03*
Y8080000D03*
X4560000Y8710000D03*
Y8900000D03*
X4860000Y8710000D03*
Y8900000D03*
X5260000Y4180000D03*
X5040000D03*
X5260000Y4370000D03*
X5040000D03*
X5520000Y4180000D03*
Y4370000D03*
X5390000Y4580000D03*
Y4770000D03*
X5750000Y2180000D03*
Y2370000D03*
X5780000Y4180000D03*
Y4370000D03*
X5650000Y4580000D03*
Y4770000D03*
X5660000Y6200000D03*
Y6390000D03*
X6040000Y4180000D03*
Y4370000D03*
X5910000Y4580000D03*
Y4770000D03*
X5880000Y6200000D03*
Y6390000D03*
X6230000Y530000D03*
Y720000D03*
X6120000Y6200000D03*
Y6390000D03*
X6240000Y6800000D03*
Y6990000D03*
X6260000Y8070000D03*
Y8260000D03*
X6520000Y530000D03*
Y720000D03*
X6570000Y3620000D03*
Y3430000D03*
X6930000Y6520000D03*
Y6330000D03*
Y6720000D03*
Y6910000D03*
Y7110000D03*
Y7300000D03*
Y7490000D03*
Y7680000D03*
X7160000Y6520000D03*
Y6330000D03*
Y6720000D03*
Y7110000D03*
Y6910000D03*
Y7300000D03*
Y7490000D03*
Y7680000D03*
X7410000Y9480000D03*
Y9670000D03*
X7500000Y1630000D03*
Y1820000D03*
X7750000Y1630000D03*
Y1820000D03*
X8650000Y3380000D03*
Y3190000D03*
G54D20*
X4754000Y9750000D03*
X5008000D03*
X5262000D03*
X5516000D03*
X5770000D03*
X6830000Y9162000D03*
Y9416000D03*
X7084000Y9162000D03*
Y9416000D03*
Y9670000D03*
X7746000Y200000D03*
X8182000Y2900000D03*
X8436000D03*
G54D21*
X5145000Y1600000D03*
X6055000D03*
G54D30*
X9700000Y3000000D03*
Y6500000D03*
G54D12*
X2640000Y1727000D03*
Y1600000D03*
Y1981000D03*
Y1854000D03*
Y2235000D03*
Y2108000D03*
Y2489000D03*
Y2362000D03*
Y3827000D03*
Y3700000D03*
Y4081000D03*
Y3954000D03*
Y4335000D03*
Y4208000D03*
Y4589000D03*
Y4462000D03*
X3450000Y1727000D03*
Y1600000D03*
Y1981000D03*
Y1854000D03*
Y2235000D03*
Y2108000D03*
Y2489000D03*
Y2362000D03*
Y3827000D03*
Y3700000D03*
Y4081000D03*
Y3954000D03*
Y4335000D03*
Y4208000D03*
Y4589000D03*
Y4462000D03*
X7550000Y6727000D03*
Y6600000D03*
Y6981000D03*
Y6854000D03*
Y7362000D03*
Y7235000D03*
Y7108000D03*
Y7489000D03*
X8200000Y6727000D03*
Y6600000D03*
Y6981000D03*
Y6854000D03*
Y7362000D03*
Y7235000D03*
Y7108000D03*
Y7489000D03*
G54D13*
X2900000Y7115000D03*
Y8025000D03*
G54D31*
X9700000Y3381000D03*
Y3762000D03*
Y4143000D03*
Y4524000D03*
Y4905000D03*
Y5286000D03*
Y5667000D03*
Y6881000D03*
Y7262000D03*
Y7643000D03*
Y8024000D03*
Y8405000D03*
Y8786000D03*
Y9167000D03*
G54D22*
X5370000Y2925000D03*
Y2975000D03*
Y3025000D03*
Y3075000D03*
Y3125000D03*
Y3175000D03*
Y3225000D03*
Y3275000D03*
Y3325000D03*
Y3375000D03*
Y3425000D03*
Y3475000D03*
X6230000Y3075000D03*
Y3025000D03*
Y2975000D03*
Y2925000D03*
Y3325000D03*
Y3275000D03*
Y3225000D03*
Y3175000D03*
Y3125000D03*
Y3475000D03*
Y3425000D03*
Y3375000D03*
G54D14*
X3260000Y1150000D03*
Y3210000D03*
X3450000Y1150000D03*
Y3210000D03*
X4000000Y8810000D03*
X4370000Y6380000D03*
X4190000Y8810000D03*
X4490000Y3110000D03*
X4680000D03*
X4490000Y3330000D03*
X4680000D03*
X4700000Y5660000D03*
X4610000Y5900000D03*
X4710000Y6140000D03*
X4520000D03*
X4560000Y6380000D03*
X4890000Y5660000D03*
X4800000Y5900000D03*
X5150000Y1100000D03*
X5110000Y6350000D03*
X5340000Y1100000D03*
X5300000Y6350000D03*
X5870000Y1100000D03*
X6060000D03*
X6150000Y6600000D03*
X6220000Y8470000D03*
X6530000Y2770000D03*
X6340000Y6600000D03*
X6410000Y8470000D03*
X6720000Y2770000D03*
X8410000Y5930000D03*
X8680000Y1470000D03*
X8600000Y5930000D03*
X8550000Y6680000D03*
Y6980000D03*
Y7280000D03*
Y7580000D03*
X8870000Y1470000D03*
X8740000Y6680000D03*
Y6980000D03*
Y7280000D03*
Y7580000D03*
G54D32*
X9815000Y1200000D03*
Y2000000D03*
G54D23*
X5725000Y2770000D03*
X5675000D03*
X5625000D03*
X5575000D03*
X5525000D03*
Y3630000D03*
X5575000D03*
X5625000D03*
X5675000D03*
X5725000D03*
X5975000Y2770000D03*
X5925000D03*
X5875000D03*
X5825000D03*
X5775000D03*
Y3630000D03*
X5825000D03*
X5875000D03*
X5925000D03*
X5975000D03*
X6075000Y2770000D03*
X6025000D03*
Y3630000D03*
X6075000D03*
G54D24*
X7100000Y720000D03*
X8000000Y680000D03*
Y1300000D03*
G54D15*
X3570000Y7010000D03*
X3750000D03*
X8900000Y5930000D03*
X9080000D03*
G54D25*
X6871000Y1340000D03*
X7100000D03*
X7329000D03*
G54D16*
X3760000Y7220000D03*
Y7400000D03*
X8430000Y3200000D03*
Y3380000D03*
G54D26*
X7350000Y8059500D03*
Y8186500D03*
Y8313500D03*
Y8440500D03*
X8050000Y8059500D03*
Y8440500D03*
Y8313500D03*
Y8186500D03*
G54D17*
X4385000Y6940000D03*
Y6990000D03*
Y7040000D03*
Y7090000D03*
Y7140000D03*
Y7190000D03*
Y7240000D03*
Y7290000D03*
Y7340000D03*
Y7390000D03*
Y7440000D03*
Y7490000D03*
Y7540000D03*
Y7590000D03*
Y7640000D03*
Y7690000D03*
Y7740000D03*
Y7790000D03*
Y7840000D03*
Y7890000D03*
Y7940000D03*
Y7990000D03*
Y8040000D03*
Y8090000D03*
Y8140000D03*
X5935000Y7040000D03*
Y6990000D03*
Y6940000D03*
Y7340000D03*
Y7290000D03*
Y7240000D03*
Y7190000D03*
Y7140000D03*
Y7090000D03*
Y7590000D03*
Y7540000D03*
Y7490000D03*
Y7440000D03*
Y7390000D03*
Y7840000D03*
Y7790000D03*
Y7740000D03*
Y7690000D03*
Y7640000D03*
Y8140000D03*
Y8090000D03*
Y8040000D03*
Y7990000D03*
Y7940000D03*
Y7890000D03*
G54D18*
X4500000Y9750000D03*
X6830000Y9670000D03*
X8000000Y200000D03*
X8690000Y2900000D03*
G54D27*
X8260000Y6210000D03*
X8600000D03*
X8910000Y3040000D03*
Y3380000D03*
G54D28*
X9200000Y930000D03*
Y1200000D03*
G54D19*
X4660000Y6765000D03*
X4610000D03*
X4560000D03*
Y8315000D03*
X4610000D03*
X4660000D03*
X4910000Y6765000D03*
X4860000D03*
X4810000D03*
X4760000D03*
X4710000D03*
Y8315000D03*
X4760000D03*
X4810000D03*
X4860000D03*
X4910000D03*
X5210000Y6765000D03*
X5160000D03*
X5110000D03*
X5060000D03*
X5010000D03*
X4960000D03*
Y8315000D03*
X5010000D03*
X5060000D03*
X5110000D03*
X5160000D03*
X5210000D03*
X5460000Y6765000D03*
X5410000D03*
X5360000D03*
X5310000D03*
X5260000D03*
Y8315000D03*
X5310000D03*
X5360000D03*
X5410000D03*
X5460000D03*
X5710000Y6765000D03*
X5660000D03*
X5610000D03*
X5560000D03*
X5510000D03*
Y8315000D03*
X5560000D03*
X5610000D03*
X5660000D03*
X5710000D03*
X5760000Y6765000D03*
Y8315000D03*
G54D29*
X9550000Y1470000D03*
Y1730000D03*
Y1665000D03*
Y1600000D03*
Y1535000D03*
M02*
