G04 ================== begin FILE IDENTIFICATION RECORD ==================*
G04 Layout Name:  G:/Work/io/design/pcb/io_4di_4aic_dbdoctor.brd*
G04 Film Name:    SOLDERMASK_BOTTOM*
G04 File Format:  Gerber RS274X*
G04 File Origin:  Cadence Allegro 17.2-P019*
G04 Origin Date:  Sat May 05 11:38:41 2018*
G04 *
G04 Layer:  VIA CLASS/SOLDERMASK_BOTTOM*
G04 Layer:  PIN/SOLDERMASK_BOTTOM*
G04 Layer:  PACKAGE GEOMETRY/SOLDERMASK_BOTTOM*
G04 Layer:  DRC ERROR CLASS/SOLDERMASK_BOTTOM*
G04 Layer:  BOARD GEOMETRY/SOLDERMASK_BOTTOM*
G04 *
G04 Offset:    (0.000 0.000)*
G04 Mirror:    No*
G04 Mode:      Positive*
G04 Rotation:  0*
G04 FullContactRelief:  No*
G04 UndefLineWidth:     0.200*
G04 ================== end FILE IDENTIFICATION RECORD ====================*
%FSLAX25Y25*MOMM*%
%IR0*IPPOS*OFA0.00000B0.00000*MIA0B0*SFA1.00000B1.00000*%
%ADD10C,1.2*%
%ADD18C,2.4*%
%ADD16C,1.7*%
%ADD17R,2.4X2.4*%
%ADD14R,1.7X1.7*%
%ADD13R,1.1X2.*%
%ADD15R,1.6X1.*%
%ADD11R,1.X1.7*%
%ADD12R,1.7X1.*%
%LPD*%
G75*
G54D10*
X600000Y1700000D03*
Y1904000D03*
Y2312000D03*
Y2108000D03*
Y3800000D03*
Y4208000D03*
Y4004000D03*
Y4412000D03*
X778000Y1802000D03*
Y2006000D03*
Y2210000D03*
Y2414000D03*
Y3902000D03*
Y4106000D03*
Y4310000D03*
Y4514000D03*
X1258000Y1371000D03*
Y1600000D03*
Y2514000D03*
Y2743000D03*
Y3471000D03*
Y3700000D03*
Y4614000D03*
Y4843000D03*
G54D11*
X1470000Y1780000D03*
Y1990000D03*
Y2200000D03*
Y2410000D03*
Y3880000D03*
Y4090000D03*
Y4300000D03*
Y4510000D03*
X1660000Y1780000D03*
Y1990000D03*
Y2200000D03*
Y2410000D03*
Y3880000D03*
Y4090000D03*
Y4300000D03*
Y4510000D03*
X2140000Y2360000D03*
Y4460000D03*
X2330000Y2360000D03*
Y4460000D03*
X3760000Y1600000D03*
Y1850000D03*
Y2230000D03*
Y2490000D03*
Y3700000D03*
Y3950000D03*
Y4330000D03*
Y4590000D03*
X3950000Y1600000D03*
Y1850000D03*
Y2230000D03*
Y2490000D03*
Y3700000D03*
Y3950000D03*
Y4330000D03*
Y4590000D03*
X4610000Y3220000D03*
X4660000Y6760000D03*
X4800000Y3220000D03*
X4850000Y6760000D03*
X6020000Y3630000D03*
X5830000D03*
G54D12*
X1900000Y1780000D03*
Y1970000D03*
Y2200000D03*
Y2390000D03*
Y3880000D03*
Y4070000D03*
Y4300000D03*
Y4490000D03*
X4240000Y1600000D03*
Y1790000D03*
Y2230000D03*
Y2420000D03*
X4470000Y2680000D03*
Y2870000D03*
X4240000Y3700000D03*
Y3890000D03*
X4230000Y4330000D03*
Y4520000D03*
X4380000Y7050000D03*
Y7240000D03*
X4680000Y3620000D03*
Y3810000D03*
X5650000Y4580000D03*
Y4770000D03*
X6230000Y3270000D03*
Y3460000D03*
X6360000Y2350000D03*
Y2540000D03*
X6570000Y3430000D03*
Y3620000D03*
X8740000Y3190000D03*
Y3380000D03*
X8500000Y3190000D03*
Y3380000D03*
X8740000Y3950000D03*
Y4140000D03*
X8500000Y3950000D03*
Y4140000D03*
X8740000Y4710000D03*
X8500000D03*
X8740000Y4900000D03*
X8500000D03*
X8740000Y5470000D03*
X8500000D03*
X8740000Y5660000D03*
X8500000D03*
X8980000Y3000000D03*
Y3190000D03*
Y3760000D03*
Y3950000D03*
Y4520000D03*
Y4710000D03*
Y5280000D03*
Y5470000D03*
G54D13*
X2140000Y1830000D03*
Y2100000D03*
Y3920000D03*
Y4190000D03*
X2410000Y1830000D03*
Y2100000D03*
Y3920000D03*
Y4190000D03*
G54D14*
X4500000Y9750000D03*
X6830000Y9670000D03*
X8000000Y200000D03*
X8690000Y2900000D03*
G54D15*
X4680000Y2690000D03*
Y2870000D03*
X4890000Y3620000D03*
Y3800000D03*
G54D16*
X4754000Y9750000D03*
X5008000D03*
X5262000D03*
X5516000D03*
X5770000D03*
X6830000Y9162000D03*
Y9416000D03*
X7084000Y9162000D03*
Y9416000D03*
Y9670000D03*
X7746000Y200000D03*
X8182000Y2900000D03*
X8436000D03*
G54D17*
X9700000Y3000000D03*
Y6500000D03*
G54D18*
Y3381000D03*
Y3762000D03*
Y4143000D03*
Y4524000D03*
Y4905000D03*
Y5286000D03*
Y5667000D03*
Y6881000D03*
Y7262000D03*
Y7643000D03*
Y8024000D03*
Y8405000D03*
Y8786000D03*
Y9167000D03*
M02*
