G04 ================== begin FILE IDENTIFICATION RECORD ==================*
G04 Layout Name:  G:/Work/io/design/pcb/io_4di_4aic_dbdoctor.brd*
G04 Film Name:    SOLDERMASK_TOP*
G04 File Format:  Gerber RS274X*
G04 File Origin:  Cadence Allegro 17.2-P019*
G04 Origin Date:  Sat May 19 21:23:20 2018*
G04 *
G04 Layer:  VIA CLASS/SOLDERMASK_TOP*
G04 Layer:  PIN/SOLDERMASK_TOP*
G04 Layer:  PACKAGE GEOMETRY/SOLDERMASK_TOP*
G04 Layer:  DRC ERROR CLASS/SOLDERMASK_TOP*
G04 Layer:  BOARD GEOMETRY/SOLDERMASK_TOP*
G04 *
G04 Offset:    (0.000 0.000)*
G04 Mirror:    No*
G04 Mode:      Positive*
G04 Rotation:  0*
G04 FullContactRelief:  No*
G04 UndefLineWidth:     0.200*
G04 ================== end FILE IDENTIFICATION RECORD ====================*
%FSLAX25Y25*MOMM*%
%IR0*IPPOS*OFA0.00000B0.00000*MIA0B0*SFA1.00000B1.00000*%
%ADD22R,.3X1.4*%
%ADD30R,.4X2.2*%
%ADD23R,1.4X.3*%
%ADD18R,.4X1.4*%
%ADD16R,1.4X.4*%
%ADD10C,1.2*%
%ADD17C,2.4*%
%ADD31R,1.X1.*%
%ADD25R,1.8X.7*%
%ADD15C,1.7*%
%ADD28R,1.9X.7*%
%ADD19R,2.4X2.4*%
%ADD14R,1.7X1.7*%
%ADD29R,2.X1.4*%
%ADD24R,1.6X1.*%
%ADD11R,1.X1.7*%
%ADD12R,1.7X1.*%
%ADD13R,1.4X1.6*%
%ADD21R,1.6X1.4*%
%ADD20R,2.X3.8*%
%ADD26R,3.8X2.*%
%ADD27R,1.4X1.8*%
%LPD*%
G75*
G54D10*
X255000Y393500D03*
Y647500D03*
Y1464500D03*
Y1718500D03*
X245000Y2343500D03*
Y2597500D03*
Y3414500D03*
Y3668500D03*
X1380000Y738000D03*
Y992000D03*
Y1246000D03*
Y1500000D03*
X1370000Y2688000D03*
Y2942000D03*
Y3196000D03*
Y3450000D03*
X1634000Y612000D03*
Y866000D03*
Y1120000D03*
Y1374000D03*
X1624000Y2562000D03*
Y2816000D03*
Y3070000D03*
Y3324000D03*
G54D20*
X2850000Y400000D03*
X3470000D03*
G54D11*
X380000Y4240000D03*
X570000D03*
X520000Y4800000D03*
X710000D03*
X540000Y5620000D03*
X970000Y4740000D03*
Y4510000D03*
Y4970000D03*
X960000Y5540000D03*
Y5340000D03*
X730000Y5620000D03*
X1160000Y4740000D03*
Y4510000D03*
Y4970000D03*
X1150000Y5540000D03*
Y5340000D03*
X1940000Y1800000D03*
X1910000Y2000000D03*
X1920000Y2200000D03*
X1880000Y3220000D03*
Y3420000D03*
X1930000Y6270000D03*
X2130000Y1800000D03*
X2100000Y2000000D03*
X2110000Y2200000D03*
X2070000Y3220000D03*
Y3420000D03*
X2120000Y6270000D03*
X2540000Y2660000D03*
X2350000D03*
X3320000Y4160000D03*
X3510000D03*
X3610000Y4390000D03*
X3420000D03*
X3610000Y4610000D03*
X3420000D03*
X3500000Y5660000D03*
Y5870000D03*
X3760000Y1680000D03*
Y1900000D03*
Y2100000D03*
Y2300000D03*
X3780000Y4610000D03*
Y4830000D03*
Y5050000D03*
Y5270000D03*
X3690000Y5660000D03*
Y5870000D03*
X4110000Y1680000D03*
X3950000D03*
Y1900000D03*
Y2100000D03*
Y2300000D03*
X3970000Y4610000D03*
Y4830000D03*
Y5050000D03*
Y5270000D03*
X4300000Y1680000D03*
X4700000Y810000D03*
X4530000Y2340000D03*
X4890000Y810000D03*
X4720000Y2340000D03*
X4950000Y3040000D03*
Y3720000D03*
X5190000Y2340000D03*
X5000000D03*
X5140000Y3040000D03*
Y3720000D03*
G54D21*
X2715000Y950000D03*
Y1120000D03*
X2935000Y950000D03*
Y1120000D03*
G54D12*
X220000Y5130000D03*
Y5320000D03*
X800000Y4150000D03*
Y4340000D03*
X1630000Y6210000D03*
Y6400000D03*
X2430000Y950000D03*
Y1140000D03*
X3110000Y3040000D03*
Y3230000D03*
X2900000Y3840000D03*
X3100000D03*
X2900000Y4030000D03*
X3100000D03*
X2980000Y6280000D03*
Y6470000D03*
X3230000Y930000D03*
Y1120000D03*
X3720000Y1040000D03*
Y1230000D03*
X3960000Y1040000D03*
Y1230000D03*
X4520000Y1910000D03*
X4720000D03*
X4520000Y2100000D03*
X4720000D03*
X4990000Y1910000D03*
Y2100000D03*
X4940000Y2800000D03*
Y2610000D03*
Y3290000D03*
Y3480000D03*
X5190000Y1910000D03*
Y2100000D03*
X5140000Y2610000D03*
Y2800000D03*
Y3290000D03*
Y3480000D03*
X5020000Y6520000D03*
Y6330000D03*
G54D30*
X5200000Y450000D03*
X5135000D03*
X5070000D03*
X5330000D03*
X5265000D03*
G54D13*
X540000Y5100000D03*
X710000D03*
X540000Y5320000D03*
X710000D03*
G54D31*
X5200000Y1310000D03*
Y1650000D03*
G54D22*
X2775000Y1595000D03*
Y2455000D03*
X3075000Y1595000D03*
X3025000D03*
X2975000D03*
X2925000D03*
X2875000D03*
X2825000D03*
Y2455000D03*
X2875000D03*
X2925000D03*
X2975000D03*
X3025000D03*
X3075000D03*
X3325000Y1595000D03*
X3275000D03*
X3225000D03*
X3175000D03*
X3125000D03*
Y2455000D03*
X3175000D03*
X3225000D03*
X3275000D03*
X3325000D03*
G54D14*
X1270000Y6700000D03*
X4420000Y6550000D03*
X5200000Y1100000D03*
G54D23*
X2620000Y1750000D03*
Y1800000D03*
Y1850000D03*
Y1900000D03*
Y1950000D03*
Y2000000D03*
Y2050000D03*
Y2100000D03*
Y2150000D03*
Y2200000D03*
Y2250000D03*
Y2300000D03*
X3480000Y2000000D03*
Y1950000D03*
Y1900000D03*
Y1850000D03*
Y1800000D03*
Y1750000D03*
Y2250000D03*
Y2200000D03*
Y2150000D03*
Y2100000D03*
Y2050000D03*
Y2300000D03*
G54D24*
X2860000Y3050000D03*
Y3230000D03*
X4940000Y1470000D03*
Y1650000D03*
G54D15*
X1524000Y6700000D03*
X1778000D03*
X2032000D03*
X2286000D03*
X2540000D03*
X4420000Y6042000D03*
Y6296000D03*
X4692000Y1100000D03*
X4674000Y6042000D03*
Y6296000D03*
Y6550000D03*
X4946000Y1100000D03*
G54D25*
X3239000Y6300000D03*
Y6427000D03*
Y6554000D03*
Y6681000D03*
X3920000Y6554000D03*
Y6427000D03*
Y6300000D03*
Y6681000D03*
G54D16*
X1650000Y4560000D03*
Y4610000D03*
Y4660000D03*
Y4710000D03*
Y4760000D03*
Y4810000D03*
Y4860000D03*
Y4910000D03*
Y4960000D03*
Y5010000D03*
Y5060000D03*
Y5110000D03*
Y5160000D03*
Y5210000D03*
Y5260000D03*
Y5310000D03*
Y5360000D03*
Y5410000D03*
Y5460000D03*
Y5510000D03*
Y5560000D03*
Y5610000D03*
Y5660000D03*
Y5710000D03*
Y5760000D03*
X3200000Y4660000D03*
Y4610000D03*
Y4560000D03*
Y4910000D03*
Y4860000D03*
Y4810000D03*
Y4760000D03*
Y4710000D03*
Y5210000D03*
Y5160000D03*
Y5110000D03*
Y5060000D03*
Y5010000D03*
Y4960000D03*
Y5460000D03*
Y5410000D03*
Y5360000D03*
Y5310000D03*
Y5260000D03*
Y5710000D03*
Y5660000D03*
Y5610000D03*
Y5560000D03*
Y5510000D03*
Y5760000D03*
G54D26*
X4191000Y180000D03*
G54D17*
X2039000Y200000D03*
X5570000Y1281000D03*
Y1662000D03*
Y2043000D03*
Y2424000D03*
Y2805000D03*
Y3186000D03*
Y3567000D03*
Y4421000D03*
Y4802000D03*
Y5183000D03*
Y5564000D03*
Y5945000D03*
Y6326000D03*
Y6707000D03*
G54D27*
X3962000Y800000D03*
X4191000D03*
X4420000D03*
G54D18*
X1975000Y4385000D03*
X1925000D03*
X1875000D03*
X1825000D03*
Y5935000D03*
X1875000D03*
X1925000D03*
X1975000D03*
X2275000Y4385000D03*
X2225000D03*
X2175000D03*
X2125000D03*
X2075000D03*
X2025000D03*
Y5935000D03*
X2075000D03*
X2125000D03*
X2175000D03*
X2225000D03*
X2275000D03*
X2525000Y4385000D03*
X2475000D03*
X2425000D03*
X2375000D03*
X2325000D03*
Y5935000D03*
X2375000D03*
X2425000D03*
X2475000D03*
X2525000D03*
X2775000Y4385000D03*
X2725000D03*
X2675000D03*
X2625000D03*
X2575000D03*
Y5935000D03*
X2625000D03*
X2675000D03*
X2725000D03*
X2775000D03*
X3025000Y4385000D03*
X2975000D03*
X2925000D03*
X2875000D03*
X2825000D03*
Y5935000D03*
X2875000D03*
X2925000D03*
X2975000D03*
X3025000D03*
G54D19*
X2420000Y200000D03*
X5570000Y900000D03*
Y4040000D03*
G54D28*
X4370000Y4677000D03*
Y4550000D03*
Y4931000D03*
Y4804000D03*
Y5185000D03*
Y5058000D03*
Y5439000D03*
Y5312000D03*
X5020000Y4677000D03*
Y4550000D03*
Y4931000D03*
Y4804000D03*
Y5185000D03*
Y5058000D03*
Y5439000D03*
Y5312000D03*
G54D29*
X4800000Y160000D03*
X5600000D03*
M02*
