G04 ================== begin FILE IDENTIFICATION RECORD ==================*
G04 Layout Name:  G:/Work/io/design/pcb/io_4di_4aic_dbdoctor_2.brd*
G04 Film Name:    SOLDERMASK_TOP*
G04 File Format:  Gerber RS274X*
G04 File Origin:  Cadence Allegro 17.2-S007*
G04 Origin Date:  Tue Sep 11 21:02:19 2018*
G04 *
G04 Layer:  VIA CLASS/SOLDERMASK_TOP*
G04 Layer:  PIN/SOLDERMASK_TOP*
G04 Layer:  PACKAGE GEOMETRY/SOLDERMASK_TOP*
G04 Layer:  DRC ERROR CLASS/SOLDERMASK_TOP*
G04 Layer:  BOARD GEOMETRY/SOLDERMASK_TOP*
G04 *
G04 Offset:    (0.000 0.000)*
G04 Mirror:    No*
G04 Mode:      Positive*
G04 Rotation:  0*
G04 FullContactRelief:  No*
G04 UndefLineWidth:     0.200*
G04 ================== end FILE IDENTIFICATION RECORD ====================*
%FSLAX25Y25*MOMM*%
%IR0*IPPOS*OFA0.00000B0.00000*MIA0B0*SFA1.00000B1.00000*%
%ADD27R,.3X1.4*%
%ADD25R,1.4X.3*%
%ADD23R,.4X1.4*%
%ADD24R,1.4X.4*%
%ADD10C,1.2*%
%ADD31C,2.2*%
%ADD19C,1.5*%
%ADD12C,2.4*%
%ADD29R,1.8X.7*%
%ADD22C,1.7*%
%ADD30R,2.2X2.2*%
%ADD20R,1.5X1.5*%
%ADD13R,2.4X2.4*%
%ADD21R,1.7X1.7*%
%ADD17R,2.X1.1*%
%ADD14R,2.X2.2*%
%ADD16R,2.2X2.*%
%ADD28R,1.6X1.*%
%ADD11R,1.X1.7*%
%ADD18R,2.2X1.4*%
%ADD15R,1.7X1.*%
%ADD26R,1.6X1.4*%
%LPD*%
G75*
G54D10*
X255000Y1693500D03*
Y1947500D03*
Y2764500D03*
Y3018500D03*
X245000Y3643500D03*
Y3897500D03*
Y4714500D03*
Y4968500D03*
X1380000Y2038000D03*
Y2292000D03*
Y2546000D03*
Y2800000D03*
X1370000Y3988000D03*
Y4242000D03*
Y4496000D03*
Y4750000D03*
X1634000Y1912000D03*
Y2166000D03*
Y2420000D03*
Y2674000D03*
X1624000Y3862000D03*
Y4116000D03*
Y4370000D03*
Y4624000D03*
G54D11*
X380000Y5540000D03*
X570000D03*
X1360000Y7530000D03*
X1550000D03*
X1870000D03*
X2060000D03*
X2470000Y5810000D03*
Y6040000D03*
Y6270000D03*
X2460000Y6640000D03*
Y6840000D03*
X2660000Y5810000D03*
Y6040000D03*
Y6270000D03*
X2650000Y6640000D03*
Y6840000D03*
X3210000Y3060000D03*
Y3310000D03*
Y3560000D03*
X3380000Y4720000D03*
Y4520000D03*
X3400000Y3060000D03*
Y3310000D03*
Y3560000D03*
X3570000Y4720000D03*
Y4520000D03*
X3620000Y7570000D03*
X3430000D03*
X3850000Y3960000D03*
X4040000D03*
X4820000Y5460000D03*
X4920000Y5690000D03*
Y5910000D03*
X5010000Y5460000D03*
X5110000Y5690000D03*
Y5910000D03*
X5000000Y6960000D03*
X5190000D03*
Y7170000D03*
X5000000D03*
X5260000Y2980000D03*
X5450000D03*
Y3400000D03*
X5260000D03*
X5450000Y3200000D03*
X5260000D03*
X5450000Y3600000D03*
X5260000D03*
X5280000Y5910000D03*
X5470000D03*
X5280000Y6130000D03*
X5470000D03*
X5280000Y6570000D03*
X5470000D03*
X5280000Y6350000D03*
X5470000D03*
X5610000Y2980000D03*
X5800000D03*
X6030000Y3640000D03*
X6220000D03*
X6500000D03*
X6450000Y4340000D03*
Y5020000D03*
X6690000Y3640000D03*
X6640000Y4340000D03*
Y5020000D03*
G54D20*
X1300000Y8000000D03*
G54D21*
X2770000D03*
X5710000Y1400000D03*
X5920000Y7850000D03*
X6470000Y1820000D03*
G54D30*
X8000000Y1630000D03*
Y4900000D03*
G54D12*
X400000Y6919000D03*
G54D13*
Y7300000D03*
G54D22*
X3024000Y8000000D03*
X3278000D03*
X3532000D03*
X3786000D03*
X4040000D03*
X5964000Y1400000D03*
X5962000Y1820000D03*
X5920000Y7342000D03*
Y7596000D03*
X6218000Y1400000D03*
X6216000Y1820000D03*
X6174000Y7342000D03*
Y7596000D03*
Y7850000D03*
G54D31*
X8000000Y2011000D03*
Y2392000D03*
Y2773000D03*
Y3154000D03*
Y3535000D03*
Y3916000D03*
Y4297000D03*
Y5281000D03*
Y5662000D03*
Y6043000D03*
Y6424000D03*
Y6805000D03*
Y7186000D03*
Y7567000D03*
G54D14*
X620000Y6180000D03*
X990000D03*
G54D23*
X3325000Y5685000D03*
Y7235000D03*
X3575000Y5685000D03*
X3525000D03*
X3475000D03*
X3425000D03*
X3375000D03*
Y7235000D03*
X3425000D03*
X3475000D03*
X3525000D03*
X3575000D03*
X3875000Y5685000D03*
X3825000D03*
X3775000D03*
X3725000D03*
X3675000D03*
X3625000D03*
Y7235000D03*
X3675000D03*
X3725000D03*
X3775000D03*
X3825000D03*
X3875000D03*
X4125000Y5685000D03*
X4075000D03*
X4025000D03*
X3975000D03*
X3925000D03*
Y7235000D03*
X3975000D03*
X4025000D03*
X4075000D03*
X4125000D03*
X4375000Y5685000D03*
X4325000D03*
X4275000D03*
X4225000D03*
X4175000D03*
Y7235000D03*
X4225000D03*
X4275000D03*
X4325000D03*
X4375000D03*
X4525000Y5685000D03*
X4475000D03*
X4425000D03*
Y7235000D03*
X4475000D03*
X4525000D03*
G54D15*
X800000Y5450000D03*
Y5640000D03*
X3130000Y7510000D03*
Y7700000D03*
X3930000Y2250000D03*
Y2440000D03*
X4400000Y5140000D03*
Y5330000D03*
X4480000Y7580000D03*
Y7770000D03*
X4730000Y2230000D03*
Y2420000D03*
X4610000Y4340000D03*
Y4530000D03*
X4600000Y5140000D03*
Y5330000D03*
X6020000Y3210000D03*
Y3400000D03*
X6220000Y3210000D03*
Y3400000D03*
X6490000Y3210000D03*
Y3400000D03*
X6440000Y3910000D03*
Y4100000D03*
Y4590000D03*
Y4780000D03*
X6520000Y7630000D03*
Y7820000D03*
X6690000Y3210000D03*
Y3400000D03*
X6640000Y3910000D03*
Y4100000D03*
Y4590000D03*
Y4780000D03*
G54D24*
X3150000Y5860000D03*
Y5910000D03*
Y5960000D03*
Y6010000D03*
Y6060000D03*
Y6110000D03*
Y6160000D03*
Y6210000D03*
Y6260000D03*
Y6310000D03*
Y6360000D03*
Y6410000D03*
Y6460000D03*
Y6510000D03*
Y6560000D03*
Y6610000D03*
Y6660000D03*
Y6710000D03*
Y6760000D03*
Y6810000D03*
Y6860000D03*
Y6910000D03*
Y6960000D03*
Y7010000D03*
Y7060000D03*
X4700000Y6010000D03*
Y5960000D03*
Y5910000D03*
Y5860000D03*
Y6260000D03*
Y6210000D03*
Y6160000D03*
Y6110000D03*
Y6060000D03*
Y6510000D03*
Y6460000D03*
Y6410000D03*
Y6360000D03*
Y6310000D03*
Y6810000D03*
Y6760000D03*
Y6710000D03*
Y6660000D03*
Y6610000D03*
Y6560000D03*
Y7060000D03*
Y7010000D03*
Y6960000D03*
Y6910000D03*
Y6860000D03*
G54D16*
X990000Y6930000D03*
Y7300000D03*
G54D25*
X4120000Y3050000D03*
Y3100000D03*
Y3150000D03*
Y3200000D03*
Y3250000D03*
Y3300000D03*
Y3350000D03*
Y3400000D03*
Y3450000D03*
Y3500000D03*
Y3550000D03*
Y3600000D03*
X4980000Y3050000D03*
Y3300000D03*
Y3250000D03*
Y3200000D03*
Y3150000D03*
Y3100000D03*
Y3600000D03*
Y3550000D03*
Y3500000D03*
Y3450000D03*
Y3400000D03*
Y3350000D03*
G54D26*
X4435000Y2250000D03*
X4215000D03*
Y2420000D03*
X4435000D03*
G54D17*
X1550000Y6180000D03*
Y6450000D03*
X1960000Y6180000D03*
Y6450000D03*
X7040000Y8180000D03*
Y8450000D03*
G54D18*
X1550000Y6800000D03*
Y7120000D03*
G54D27*
X4375000Y2895000D03*
X4325000D03*
X4275000D03*
Y3755000D03*
X4325000D03*
X4375000D03*
X4675000Y2895000D03*
X4625000D03*
X4575000D03*
X4525000D03*
X4475000D03*
X4425000D03*
Y3755000D03*
X4475000D03*
X4525000D03*
X4575000D03*
X4625000D03*
X4675000D03*
X4825000Y2895000D03*
X4775000D03*
X4725000D03*
Y3755000D03*
X4775000D03*
X4825000D03*
G54D28*
X4360000Y4350000D03*
Y4530000D03*
G54D19*
X1554000Y8000000D03*
X1808000D03*
X2062000D03*
G54D29*
X4739000Y7600000D03*
Y7727000D03*
Y7854000D03*
Y7981000D03*
X5420000Y7600000D03*
Y7854000D03*
Y7727000D03*
Y7981000D03*
X5870000Y5977000D03*
Y5850000D03*
Y6231000D03*
Y6104000D03*
Y6485000D03*
Y6358000D03*
Y6739000D03*
Y6612000D03*
X6520000Y5977000D03*
Y5850000D03*
Y6231000D03*
Y6104000D03*
Y6485000D03*
Y6358000D03*
Y6739000D03*
Y6612000D03*
M02*
