G04 ================== begin FILE IDENTIFICATION RECORD ==================*
G04 Layout Name:  G:/Work/io/design/pcb/io_4di_4aic_dbdoctor.brd*
G04 Film Name:    SOLDERMASK_BOTTOM*
G04 File Format:  Gerber RS274X*
G04 File Origin:  Cadence Allegro 17.2-P019*
G04 Origin Date:  Sat May 19 21:23:20 2018*
G04 *
G04 Layer:  VIA CLASS/SOLDERMASK_BOTTOM*
G04 Layer:  PIN/SOLDERMASK_BOTTOM*
G04 Layer:  PACKAGE GEOMETRY/SOLDERMASK_BOTTOM*
G04 Layer:  DRC ERROR CLASS/SOLDERMASK_BOTTOM*
G04 Layer:  BOARD GEOMETRY/SOLDERMASK_BOTTOM*
G04 *
G04 Offset:    (0.000 0.000)*
G04 Mirror:    No*
G04 Mode:      Positive*
G04 Rotation:  0*
G04 FullContactRelief:  No*
G04 UndefLineWidth:     0.200*
G04 ================== end FILE IDENTIFICATION RECORD ====================*
%FSLAX25Y25*MOMM*%
%IR0*IPPOS*OFA0.00000B0.00000*MIA0B0*SFA1.00000B1.00000*%
%ADD10C,1.2*%
%ADD16C,2.4*%
%ADD20R,1.X1.*%
%ADD15C,1.7*%
%ADD17R,2.4X2.4*%
%ADD14R,1.7X1.7*%
%ADD18R,2.X1.1*%
%ADD12R,1.X1.6*%
%ADD19R,1.6X1.*%
%ADD11R,1.X1.7*%
%ADD13R,1.7X1.*%
%LPD*%
G75*
G54D10*
X255000Y393500D03*
Y647500D03*
Y1464500D03*
Y1718500D03*
X245000Y2343500D03*
Y2597500D03*
Y3414500D03*
Y3668500D03*
X1380000Y738000D03*
Y992000D03*
Y1246000D03*
Y1500000D03*
X1370000Y2688000D03*
Y2942000D03*
Y3196000D03*
Y3450000D03*
X1634000Y612000D03*
Y866000D03*
Y1120000D03*
Y1374000D03*
X1624000Y2562000D03*
Y2816000D03*
Y3070000D03*
Y3324000D03*
G54D11*
X380000Y4240000D03*
X570000D03*
X1880000Y850000D03*
Y1080000D03*
Y1540000D03*
Y1310000D03*
X1940000Y1800000D03*
X1920000Y2200000D03*
X1880000Y2800000D03*
Y3030000D03*
Y3260000D03*
Y3490000D03*
X1920000Y4390000D03*
X2070000Y850000D03*
Y1080000D03*
Y1540000D03*
Y1310000D03*
X2130000Y1800000D03*
X2110000Y2200000D03*
X2070000Y2800000D03*
Y3030000D03*
Y3260000D03*
Y3490000D03*
X2110000Y4390000D03*
X2350000Y2660000D03*
X2540000D03*
X2560000Y4380000D03*
X2370000D03*
X3060000Y1590000D03*
X3370000Y1300000D03*
X3180000D03*
X3250000Y1590000D03*
X3520000Y2800000D03*
X3760000Y2300000D03*
Y2570000D03*
X3710000Y2800000D03*
X3780000Y4610000D03*
Y4830000D03*
Y5270000D03*
Y5050000D03*
X3950000Y2300000D03*
Y2570000D03*
X3970000Y3640000D03*
X4160000D03*
X3970000Y3840000D03*
X4160000D03*
X3970000Y4040000D03*
X4160000D03*
X3970000Y4240000D03*
X4160000D03*
X3970000Y4610000D03*
Y4830000D03*
Y5270000D03*
Y5050000D03*
X4380000Y1280000D03*
X4190000D03*
X4830000Y4680000D03*
Y4930000D03*
Y5190000D03*
Y5440000D03*
X5020000Y4680000D03*
Y4930000D03*
Y5190000D03*
Y5440000D03*
G54D20*
X5230000Y3700000D03*
Y4040000D03*
G54D12*
X980000Y4510000D03*
Y4740000D03*
X1160000Y4510000D03*
Y4740000D03*
X1930000Y2430000D03*
X2110000D03*
G54D13*
X1120000Y810000D03*
Y1000000D03*
Y2760000D03*
Y2950000D03*
X1650000Y4560000D03*
Y4750000D03*
Y5110000D03*
Y5300000D03*
X2320000Y850000D03*
Y1040000D03*
Y1350000D03*
Y1540000D03*
Y2890000D03*
Y3080000D03*
Y3300000D03*
Y3490000D03*
X3110000Y3040000D03*
Y3230000D03*
X3720000Y760000D03*
Y950000D03*
X4740000Y3850000D03*
Y4040000D03*
X5200000Y1460000D03*
Y1650000D03*
G54D14*
X1270000Y6700000D03*
X4420000Y6550000D03*
X5200000Y1100000D03*
G54D15*
X1524000Y6700000D03*
X1778000D03*
X2032000D03*
X2286000D03*
X2540000D03*
X4420000Y6042000D03*
Y6296000D03*
X4692000Y1100000D03*
X4674000Y6042000D03*
Y6296000D03*
Y6550000D03*
X4946000Y1100000D03*
G54D16*
X2039000Y200000D03*
X5570000Y1281000D03*
Y1662000D03*
Y2043000D03*
Y2424000D03*
Y2805000D03*
Y3186000D03*
Y3567000D03*
Y4421000D03*
Y4802000D03*
Y5183000D03*
Y5564000D03*
Y5945000D03*
Y6326000D03*
Y6707000D03*
G54D17*
X2420000Y200000D03*
X5570000Y900000D03*
Y4040000D03*
G54D18*
X4800000Y160000D03*
Y430000D03*
G54D19*
X4970000Y3860000D03*
Y4040000D03*
M02*
