G04 ================== begin FILE IDENTIFICATION RECORD ==================*
G04 Layout Name:  G:/Work/io/design/pcb/io_4di_4aic_dbdoctor_2.brd*
G04 Film Name:    SOLDERMASK_BOTTOM*
G04 File Format:  Gerber RS274X*
G04 File Origin:  Cadence Allegro 17.2-S007*
G04 Origin Date:  Wed Sep 05 22:07:17 2018*
G04 *
G04 Layer:  VIA CLASS/SOLDERMASK_BOTTOM*
G04 Layer:  PIN/SOLDERMASK_BOTTOM*
G04 Layer:  PACKAGE GEOMETRY/SOLDERMASK_BOTTOM*
G04 Layer:  DRC ERROR CLASS/SOLDERMASK_BOTTOM*
G04 Layer:  BOARD GEOMETRY/SOLDERMASK_BOTTOM*
G04 *
G04 Offset:    (0.000 0.000)*
G04 Mirror:    No*
G04 Mode:      Positive*
G04 Rotation:  0*
G04 FullContactRelief:  No*
G04 UndefLineWidth:     0.200*
G04 ================== end FILE IDENTIFICATION RECORD ====================*
%FSLAX25Y25*MOMM*%
%IR0*IPPOS*OFA0.00000B0.00000*MIA0B0*SFA1.00000B1.00000*%
%ADD22R,1.1X.7*%
%ADD10C,1.2*%
%ADD24C,2.2*%
%ADD15C,1.5*%
%ADD12C,2.4*%
%ADD20C,1.7*%
%ADD23R,2.2X2.2*%
%ADD16R,1.5X1.5*%
%ADD13R,2.4X2.4*%
%ADD19R,1.7X1.7*%
%ADD21R,1.1X2.*%
%ADD18R,1.X1.6*%
%ADD17R,1.4X2.2*%
%ADD11R,1.X1.7*%
%ADD14R,1.7X1.*%
%LPD*%
G75*
G54D10*
X255000Y1693500D03*
Y1947500D03*
Y2764500D03*
Y3018500D03*
X245000Y3643500D03*
Y3897500D03*
Y4714500D03*
Y4968500D03*
X1380000Y2038000D03*
Y2292000D03*
Y2546000D03*
Y2800000D03*
X1370000Y3988000D03*
Y4242000D03*
Y4496000D03*
Y4750000D03*
X1634000Y1912000D03*
Y2166000D03*
Y2420000D03*
Y2674000D03*
X1624000Y3862000D03*
Y4116000D03*
Y4370000D03*
Y4624000D03*
G54D11*
X380000Y5540000D03*
X570000D03*
X1980000Y2170000D03*
Y2400000D03*
Y2630000D03*
Y2860000D03*
Y4060000D03*
Y4290000D03*
Y4520000D03*
Y4750000D03*
X1870000Y8390000D03*
X2170000Y2170000D03*
Y2400000D03*
Y2630000D03*
Y2860000D03*
Y4060000D03*
Y4290000D03*
Y4520000D03*
Y4750000D03*
X2060000Y8390000D03*
X3210000Y3060000D03*
Y3560000D03*
X3400000Y3060000D03*
Y3560000D03*
X3610000Y5690000D03*
X3420000D03*
X3850000Y3960000D03*
X3870000Y5680000D03*
X4040000Y3960000D03*
X4060000Y5680000D03*
X4680000Y2600000D03*
X4560000Y2890000D03*
X4870000Y2600000D03*
X4750000Y2890000D03*
X5210000Y4100000D03*
X5020000D03*
X5450000Y3600000D03*
X5260000D03*
X5450000Y3870000D03*
X5260000D03*
X5470000Y4940000D03*
Y5140000D03*
Y5340000D03*
Y5540000D03*
X5280000Y5910000D03*
X5470000D03*
X5280000Y6130000D03*
X5470000D03*
X5280000Y6350000D03*
X5470000D03*
X5280000Y6570000D03*
X5470000D03*
X5660000Y4940000D03*
Y5140000D03*
Y5340000D03*
Y5540000D03*
X6330000Y5980000D03*
X6520000D03*
X6330000Y6230000D03*
X6520000D03*
X6330000Y6490000D03*
X6520000D03*
X6330000Y6740000D03*
X6520000D03*
G54D20*
X3024000Y8000000D03*
X3278000D03*
X3532000D03*
X3786000D03*
X4040000D03*
X5964000Y1400000D03*
X5962000Y1820000D03*
X5920000Y7342000D03*
Y7596000D03*
X6218000Y1400000D03*
X6216000Y1820000D03*
X6174000Y7342000D03*
Y7596000D03*
Y7850000D03*
G54D21*
X6210000Y2220000D03*
X6480000D03*
G54D12*
X400000Y6919000D03*
G54D13*
Y7300000D03*
G54D22*
X7360000Y1825000D03*
Y2575000D03*
Y3335000D03*
Y4105000D03*
Y5665000D03*
Y7185000D03*
X7600000Y1730000D03*
Y1920000D03*
Y2480000D03*
Y2670000D03*
Y3240000D03*
Y3430000D03*
Y4010000D03*
Y4200000D03*
Y5570000D03*
Y5760000D03*
Y7090000D03*
Y7280000D03*
G54D14*
X1120000Y2110000D03*
Y2300000D03*
Y4060000D03*
Y4250000D03*
X2420000Y2170000D03*
Y2360000D03*
Y2670000D03*
Y2860000D03*
Y4150000D03*
Y4340000D03*
Y4560000D03*
Y4750000D03*
X3150000Y5860000D03*
Y6050000D03*
Y6410000D03*
Y6600000D03*
X4610000Y4340000D03*
Y4530000D03*
G54D23*
X8000000Y1630000D03*
Y4900000D03*
G54D15*
X1554000Y8000000D03*
X1808000D03*
X2062000D03*
G54D24*
X8000000Y2011000D03*
Y2392000D03*
Y2773000D03*
Y3154000D03*
Y3535000D03*
Y3916000D03*
Y4297000D03*
Y5281000D03*
Y5662000D03*
Y6043000D03*
Y6424000D03*
Y6805000D03*
Y7186000D03*
Y7567000D03*
G54D16*
X1300000Y8000000D03*
G54D17*
Y8390000D03*
X1620000D03*
G54D18*
X2480000Y5810000D03*
Y6040000D03*
X2660000Y5810000D03*
Y6040000D03*
X3670000Y3730000D03*
X3850000D03*
G54D19*
X2770000Y8000000D03*
X5710000Y1400000D03*
X5920000Y7850000D03*
X6470000Y1820000D03*
M02*
