G04 ================== begin FILE IDENTIFICATION RECORD ==================*
G04 Layout Name:  G:/Work/io/design/pcb/io_4di_4aic_dbdoctor_2.brd*
G04 Film Name:    TOP*
G04 File Format:  Gerber RS274X*
G04 File Origin:  Cadence Allegro 17.2-S007*
G04 Origin Date:  Wed Sep 05 22:07:17 2018*
G04 *
G04 Layer:  ETCH/TOP*
G04 Layer:  PIN/TOP*
G04 Layer:  VIA CLASS/TOP*
G04 *
G04 Offset:    (0.000 0.000)*
G04 Mirror:    No*
G04 Mode:      Positive*
G04 Rotation:  0*
G04 FullContactRelief:  No*
G04 UndefLineWidth:     0.200*
G04 ================== end FILE IDENTIFICATION RECORD ====================*
%FSLAX25Y25*MOMM*%
%IR0*IPPOS*OFA0.00000B0.00000*MIA0B0*SFA1.00000B1.00000*%
%ADD26R,.3X1.2*%
%ADD27R,1.2X.3*%
%ADD30R,.25X1.2*%
%ADD11C,1.*%
%ADD35C,2.*%
%ADD28R,1.2X.25*%
%ADD32R,1.6X.5*%
%ADD23C,1.3*%
%ADD14C,2.2*%
%ADD10C,4.*%
%ADD33R,1.6X.6*%
%ADD31R,1.4X.8*%
%ADD16C,3.2*%
%ADD13R,.9X1.5*%
%ADD20C,1.6*%
%ADD18R,1.5X.9*%
%ADD34R,2.X2.*%
%ADD21R,1.8X.9*%
%ADD24R,1.3X1.3*%
%ADD15R,2.2X2.2*%
%ADD25R,1.6X1.6*%
%ADD22R,2.X1.2*%
%ADD29R,1.4X1.2*%
%ADD17R,1.8X2.*%
%ADD19R,2.X1.8*%
%ADD12C,.6*%
%ADD36C,.2*%
%ADD37C,.3*%
%ADD38C,.5*%
%ADD39C,.25*%
%ADD40C,.8*%
%ADD43C,2.01*%
%ADD45C,2.004*%
%ADD41C,1.404*%
%ADD46C,2.404*%
%ADD42C,3.61*%
%ADD44C,1.704*%
G75*
%LPD*%
G75*
G36*
G01X50100Y50100D02*
Y9149900D01*
X8649900D01*
Y50100D01*
X50100D01*
G37*
%LPC*%
G75*
G36*
G01X6369800Y1740000D02*
Y1900000D01*
G02X6390000Y1920200I20200J0D01*
G01X6550000D01*
G02X6570200Y1900000I0J-20200D01*
G01Y1740000D01*
G02X6550000Y1719800I-20200J0D01*
G01X6390000D01*
G02X6369800Y1740000I0J20200D01*
G37*
G36*
G01X5609800Y1320000D02*
Y1480000D01*
G02X5630000Y1500200I20200J0D01*
G01X5790000D01*
G02X5810200Y1480000I0J-20200D01*
G01Y1320000D01*
G02X5790000Y1299800I-20200J0D01*
G01X5630000D01*
G02X5609800Y1320000I0J20200D01*
G37*
G36*
G01X4634800Y2185000D02*
Y2275000D01*
G02X4655000Y2295200I20200J0D01*
G01X4805000D01*
G02X4825200Y2275000I0J-20200D01*
G01Y2185000D01*
G02X4805000Y2164800I-20200J0D01*
G01X4655000D01*
G02X4634800Y2185000I0J20200D01*
G37*
G36*
G01X3834800Y2395000D02*
Y2485000D01*
G02X3855000Y2505200I20200J0D01*
G01X4005000D01*
G02X4025200Y2485000I0J-20200D01*
G01Y2395000D01*
G02X4005000Y2374800I-20200J0D01*
G01X3855000D01*
G02X3834800Y2395000I0J20200D01*
G37*
G36*
G01X3144800Y3485000D02*
Y3635000D01*
G02X3165000Y3655200I20200J0D01*
G01X3255000D01*
G02X3275200Y3635000I0J-20200D01*
G01Y3485000D01*
G02X3255000Y3464800I-20200J0D01*
G01X3165000D01*
G02X3144800Y3485000I0J20200D01*
G37*
G36*
G01Y3235000D02*
Y3385000D01*
G02X3165000Y3405200I20200J0D01*
G01X3255000D01*
G02X3275200Y3385000I0J-20200D01*
G01Y3235000D01*
G02X3255000Y3214800I-20200J0D01*
G01X3165000D01*
G02X3144800Y3235000I0J20200D01*
G37*
G36*
G01Y2985000D02*
Y3135000D01*
G02X3165000Y3155200I20200J0D01*
G01X3255000D01*
G02X3275200Y3135000I0J-20200D01*
G01Y2985000D01*
G02X3255000Y2964800I-20200J0D01*
G01X3165000D01*
G02X3144800Y2985000I0J20200D01*
G37*
G36*
G01X2404800Y6195000D02*
Y6345000D01*
G02X2425000Y6365200I20200J0D01*
G01X2515000D01*
G02X2535200Y6345000I0J-20200D01*
G01Y6195000D01*
G02X2515000Y6174800I-20200J0D01*
G01X2425000D01*
G02X2404800Y6195000I0J20200D01*
G37*
G36*
G01Y5965000D02*
Y6115000D01*
G02X2425000Y6135200I20200J0D01*
G01X2515000D01*
G02X2535200Y6115000I0J-20200D01*
G01Y5965000D01*
G02X2515000Y5944800I-20200J0D01*
G01X2425000D01*
G02X2404800Y5965000I0J20200D01*
G37*
G36*
G01Y5735000D02*
Y5885000D01*
G02X2425000Y5905200I20200J0D01*
G01X2515000D01*
G02X2535200Y5885000I0J-20200D01*
G01Y5735000D01*
G02X2515000Y5714800I-20200J0D01*
G01X2425000D01*
G02X2404800Y5735000I0J20200D01*
G37*
G36*
G01X1804800Y7455000D02*
Y7605000D01*
G02X1825000Y7625200I20200J0D01*
G01X1915000D01*
G02X1935200Y7605000I0J-20200D01*
G01Y7455000D01*
G02X1915000Y7434800I-20200J0D01*
G01X1825000D01*
G02X1804800Y7455000I0J20200D01*
G37*
G36*
G01X1425200D02*
G02X1405000Y7434800I-20200J0D01*
G01X1315000D01*
G02X1294800Y7455000I0J20200D01*
G01Y7503900D01*
X1294200Y7505600D01*
G02X1289800Y7530000I65789J24460D01*
G01Y7890900D01*
X1265900Y7914800D01*
X1235000D01*
G02X1214800Y7935000I0J20200D01*
G01Y8065000D01*
G02X1235000Y8085200I20200J0D01*
G01X1365000D01*
G02X1385200Y8065000I0J-20200D01*
G01Y7994100D01*
X1430200Y7949100D01*
Y7530000D01*
G02X1425800Y7505600I-70189J60D01*
G01X1425200Y7503900D01*
Y7455000D01*
G37*
G36*
G01X530200Y7190000D02*
G02X510000Y7169800I-20200J0D01*
G01X290000D01*
G02X269800Y7190000I0J20200D01*
G01Y7410000D01*
G02X290000Y7430200I20200J0D01*
G01X510000D01*
G02X530200Y7410000I0J-20200D01*
G01Y7370200D01*
X869800D01*
Y7390000D01*
G02X890000Y7410200I20200J0D01*
G01X1090000D01*
G02X1110200Y7390000I0J-20200D01*
G01Y7210000D01*
G02X1090000Y7189800I-20200J0D01*
G01X890000D01*
G02X869800Y7210000I0J20200D01*
G01Y7229800D01*
X530200D01*
Y7190000D01*
G37*
G36*
G01X1479800Y7890100D02*
X1483800Y7894100D01*
Y7951700D01*
G02X1624200I70200J48300D01*
G01Y7835900D01*
X1620200Y7831900D01*
Y7200200D01*
X1650000D01*
G02X1670200Y7180000I0J-20200D01*
G01Y7060000D01*
G02X1650000Y7039800I-20200J0D01*
G01X1450000D01*
G02X1429800Y7060000I0J20200D01*
G01Y7180000D01*
G02X1450000Y7200200I20200J0D01*
G01X1479800D01*
Y7890100D01*
G37*
G36*
G01X6615800Y6696500D02*
G02X6600000Y6688800I-15800J12360D01*
G01X6440000D01*
G02X6419800Y6709000I0J20200D01*
G01Y6769000D01*
G02X6440000Y6789200I20200J0D01*
G01X6600000D01*
G02X6615800Y6781500I0J-20060D01*
G03X6629500Y6779600I7846J6234D01*
G02Y6698400I29500J-40600D01*
G03X6615800Y6696500I-5854J-8134D01*
G37*
G36*
G01X6614500Y6441000D02*
G02X6600000Y6434800I-14552J13978D01*
G01X6440000D01*
G02X6419800Y6455000I0J20200D01*
G01Y6515000D01*
G02X6440000Y6535200I20200J0D01*
G01X6600000D01*
G02X6614400Y6529200I0J-20280D01*
G03X6627900Y6528600I7077J7051D01*
G02X6637800Y6445000I32104J-38584D01*
G03X6614500Y6441000I-8916J-17924D01*
G37*
G36*
G01X6616100Y6188800D02*
G02X6600000Y6180800I-16100J12201D01*
G01X6440000D01*
G02X6419800Y6201000I0J20200D01*
G01Y6261000D01*
G02X6440000Y6281200I20200J0D01*
G01X6600000D01*
G02X6616100Y6273200I0J-20201D01*
G03X6630000Y6271300I7912J6090D01*
G02Y6190700I30000J-40300D01*
G03X6616100Y6188800I-5988J-7990D01*
G37*
G36*
G01X1100200Y6080000D02*
G02X1080000Y6059800I-20200J0D01*
G01X900000D01*
G02X879800Y6080000I0J20200D01*
G01Y6280000D01*
G02X900000Y6300200I20200J0D01*
G01X919800D01*
Y6819800D01*
X890000D01*
G02X869800Y6840000I0J20200D01*
G01Y7020000D01*
G02X890000Y7040200I20200J0D01*
G01X1090000D01*
G02X1110200Y7020000I0J-20200D01*
G01Y6840000D01*
G02X1090000Y6819800I-20200J0D01*
G01X1060200D01*
Y6300200D01*
X1080000D01*
G02X1100200Y6280000I0J-20200D01*
G01Y6250200D01*
X1550000D01*
G02X1574400Y6245800I-60J-70189D01*
G01X1576100Y6245200D01*
X1640000D01*
G02X1660200Y6225000I0J-20200D01*
G01Y6135000D01*
G02X1640000Y6114800I-20200J0D01*
G01X1576100D01*
X1574400Y6114200D01*
G02X1550000Y6109800I-24460J65789D01*
G01X1100200D01*
Y6080000D01*
G37*
G36*
G01X6613900Y5932300D02*
G02X6600000Y5926800I-13900J14815D01*
G01X6440000D01*
G02X6419800Y5947000I0J20200D01*
G01Y6007000D01*
G02X6440000Y6027200I20200J0D01*
G01X6600000D01*
G02X6615100Y6020500I61J-20227D01*
G03X6628800Y6019300I7482J6615D01*
G02X6636800Y5935500I31211J-39302D01*
G03X6613900Y5932300I-9193J-17753D01*
G37*
G36*
G01X329800Y6380900D02*
Y6809300D01*
G02X470200I70200J109700D01*
G01Y6439100D01*
X609100Y6300200D01*
X710000D01*
G02X730200Y6280000I0J-20200D01*
G01Y6159100D01*
X879100Y6010200D01*
X1840900D01*
X1889800Y6059100D01*
Y6114800D01*
X1870000D01*
G02X1849800Y6135000I0J20200D01*
G01Y6225000D01*
G02X1870000Y6245200I20200J0D01*
G01X1933900D01*
X1935600Y6245800D01*
G02X1984400I24400J-65800D01*
G01X1986100Y6245200D01*
X2050000D01*
G02X2070200Y6225000I0J-20200D01*
G01Y6135000D01*
G02X2050000Y6114800I-20200J0D01*
G01X2030200D01*
Y6000900D01*
X1899100Y5869800D01*
X820900D01*
X630900Y6059800D01*
X530000D01*
G02X509800Y6080000I0J20200D01*
G01Y6200900D01*
X329800Y6380900D01*
G37*
G36*
G01X5886100Y5660100D02*
X5994800Y5768700D01*
Y5804800D01*
X5963600D01*
X5961100Y5803100D01*
G02X5950000Y5799800I-11100J17018D01*
G01X5790000D01*
G02X5769800Y5820000I0J20200D01*
G01Y5880000D01*
G02X5790000Y5900200I20200J0D01*
G01X5950000D01*
G02X5961100Y5896900I0J-20318D01*
G01X5963600Y5895200D01*
X5994800D01*
Y6058800D01*
X5963600D01*
X5961100Y6057100D01*
G02X5950000Y6053800I-11100J17018D01*
G01X5790000D01*
G02X5769800Y6074000I0J20200D01*
G01Y6134000D01*
G02X5790000Y6154200I20200J0D01*
G01X5950000D01*
G02X5961100Y6150900I0J-20318D01*
G01X5963600Y6149200D01*
X5994800D01*
Y6312800D01*
X5963600D01*
X5961100Y6311100D01*
G02X5950000Y6307800I-11100J17018D01*
G01X5790000D01*
G02X5769800Y6328000I0J20200D01*
G01Y6388000D01*
G02X5790000Y6408200I20200J0D01*
G01X5950000D01*
G02X5961100Y6404900I0J-20318D01*
G01X5963600Y6403200D01*
X5994800D01*
Y6551300D01*
X5979300Y6566800D01*
X5963600D01*
X5961100Y6565100D01*
G02X5950000Y6561800I-11100J17018D01*
G01X5790000D01*
G02X5769800Y6582000I0J20200D01*
G01Y6642000D01*
G02X5790000Y6662200I20200J0D01*
G01X5950000D01*
G02X5961100Y6658900I0J-20318D01*
G01X5963600Y6657200D01*
X6016700D01*
X6085200Y6588700D01*
Y5731300D01*
X5950100Y5596100D01*
X5950200Y5591800D01*
G02X5881800Y5660200I-70200J-1800D01*
G01X5886100Y5660100D01*
G37*
G36*
G01X6515000Y4714800D02*
X6365000D01*
G02X6344800Y4735000I0J20200D01*
G01Y4825000D01*
G02X6365000Y4845200I20200J0D01*
G01X6515000D01*
G02X6527600Y4840800I0J-20241D01*
G03X6552400I12400J15677D01*
G02X6565000Y4845200I12600J-15841D01*
G01X6609800D01*
Y4924800D01*
X6595000D01*
G02X6574800Y4945000I0J20200D01*
G01Y5095000D01*
G02X6595000Y5115200I20200J0D01*
G01X6685000D01*
G02X6705200Y5095000I0J-20200D01*
G01Y4945000D01*
G02X6685000Y4924800I-20200J0D01*
G01X6670200D01*
Y4845200D01*
X6715000D01*
G02X6735200Y4825000I0J-20200D01*
G01Y4735000D01*
G02X6715000Y4714800I-20200J0D01*
G01X6565000D01*
G02X6552400Y4719200I0J20241D01*
G03X6527600I-12400J-15677D01*
G02X6515000Y4714800I-12600J15841D01*
G37*
G36*
G01Y4034800D02*
X6365000D01*
G02X6344800Y4055000I0J20200D01*
G01Y4145000D01*
G02X6365000Y4165200I20200J0D01*
G01X6515000D01*
G02X6527600Y4160800I0J-20241D01*
G03X6552400I12400J15677D01*
G02X6565000Y4165200I12600J-15841D01*
G01X6609800D01*
Y4244800D01*
X6595000D01*
G02X6574800Y4265000I0J20200D01*
G01Y4415000D01*
G02X6595000Y4435200I20200J0D01*
G01X6685000D01*
G02X6705200Y4415000I0J-20200D01*
G01Y4265000D01*
G02X6685000Y4244800I-20200J0D01*
G01X6670200D01*
Y4165200D01*
X6715000D01*
G02X6735200Y4145000I0J-20200D01*
G01Y4055000D01*
G02X6715000Y4034800I-20200J0D01*
G01X6565000D01*
G02X6552400Y4039200I0J20241D01*
G03X6527600I-12400J-15677D01*
G02X6515000Y4034800I-12600J15841D01*
G37*
G36*
G01X6565000Y3334800D02*
X6415000D01*
G02X6394800Y3355000I0J20200D01*
G01Y3445000D01*
G02X6415000Y3465200I20200J0D01*
G01X6565000D01*
G02X6577600Y3460800I0J-20241D01*
G03X6602400I12400J15677D01*
G02X6615000Y3465200I12600J-15841D01*
G01X6659800D01*
Y3544800D01*
X6645000D01*
G02X6624800Y3565000I0J20200D01*
G01Y3715000D01*
G02X6645000Y3735200I20200J0D01*
G01X6735000D01*
G02X6755200Y3715000I0J-20200D01*
G01Y3565000D01*
G02X6735000Y3544800I-20200J0D01*
G01X6720200D01*
Y3465200D01*
X6765000D01*
G02X6785200Y3445000I0J-20200D01*
G01Y3355000D01*
G02X6765000Y3334800I-20200J0D01*
G01X6615000D01*
G02X6602400Y3339200I0J20241D01*
G03X6577600I-12400J-15677D01*
G02X6565000Y3334800I-12600J15841D01*
G37*
G36*
G01X7484900Y1670200D02*
X7734900Y1420200D01*
X8115100D01*
X8189800Y1494900D01*
Y1960800D01*
X8109200D01*
G02Y2061200I-109200J50200D01*
G01X8189800D01*
Y2722800D01*
X8109200D01*
G02Y2823200I-109200J50200D01*
G01X8189800D01*
Y3484800D01*
X8109200D01*
G02Y3585200I-109200J50200D01*
G01X8189800D01*
Y4022100D01*
X8031100Y4180800D01*
X8025800Y4179600D01*
G02X8117400Y4271200I-25800J117400D01*
G01X8116200Y4265900D01*
X8310200Y4071900D01*
Y1445100D01*
X8164900Y1299800D01*
X7685100D01*
X7435100Y1549800D01*
X6265100D01*
X6155800Y1659100D01*
Y1739900D01*
G02X6276200I60200J80100D01*
G01Y1708900D01*
X6314900Y1670200D01*
X7484900D01*
G37*
G36*
G01X6014200Y1708800D02*
Y1486700D01*
G02X5913800I-50200J-86700D01*
G01Y1667200D01*
X5911800Y1669200D01*
Y1733300D01*
G02X6012200I50200J86700D01*
G01Y1710800D01*
X6014200Y1708800D01*
G37*
G36*
G01X1999800Y7618600D02*
Y7897900D01*
X2001800Y7899900D01*
Y7939700D01*
G02X2122200I60200J60300D01*
G01Y7850100D01*
X2120200Y7848100D01*
Y7618600D01*
X2121900Y7616100D01*
G02X2125200Y7605000I-17018J-11100D01*
G01Y7502800D01*
G03X2159300Y7488600I19992J-36D01*
G01X2669800Y7999100D01*
Y8080000D01*
G02X2690000Y8100200I20200J0D01*
G01X2709800D01*
Y8264900D01*
X2955100Y8510200D01*
X6936400D01*
X6938900Y8511900D01*
G02X6950000Y8515200I11100J-17018D01*
G01X7130000D01*
G02X7141100Y8511900I0J-20318D01*
G01X7143600Y8510200D01*
X7934900D01*
X8510200Y7934900D01*
Y1375100D01*
X8254900Y1119800D01*
X7615100D01*
X7395100Y1339800D01*
X6298100D01*
G02Y1460200I-80100J60200D01*
G01X7444900D01*
X7664900Y1240200D01*
X8205100D01*
X8389800Y1424900D01*
Y4554800D01*
X7741300D01*
X6934800Y5361300D01*
Y5814800D01*
X6620300D01*
X6617500Y5809800D01*
G02X6600000Y5799800I-17500J10312D01*
G01X6440000D01*
G02X6419800Y5820000I0J20200D01*
G01Y5880000D01*
G02X6440000Y5900200I20200J0D01*
G01X6600000D01*
G02X6617500Y5890200I0J-20312D01*
G01X6620300Y5885200D01*
X6934800D01*
Y6068800D01*
X6620300D01*
X6617500Y6063800D01*
G02X6600000Y6053800I-17500J10312D01*
G01X6440000D01*
G02X6419800Y6074000I0J20200D01*
G01Y6134000D01*
G02X6440000Y6154200I20200J0D01*
G01X6600000D01*
G02X6617500Y6144200I0J-20312D01*
G01X6620300Y6139200D01*
X6934800D01*
Y6322800D01*
X6620300D01*
X6617500Y6317800D01*
G02X6600000Y6307800I-17500J10312D01*
G01X6440000D01*
G02X6419800Y6328000I0J20200D01*
G01Y6388000D01*
G02X6440000Y6408200I20200J0D01*
G01X6600000D01*
G02X6617500Y6398200I0J-20312D01*
G01X6620300Y6393200D01*
X6864600D01*
G03X6878700Y6427300I-33J19979D01*
G01X6739300Y6566800D01*
X6613600D01*
X6611100Y6565100D01*
G02X6600000Y6561800I-11100J17018D01*
G01X6440000D01*
G02X6419800Y6582000I0J20200D01*
G01Y6642000D01*
G02X6440000Y6662200I20200J0D01*
G01X6600000D01*
G02X6611100Y6658900I0J-20318D01*
G01X6613600Y6657200D01*
X6776700D01*
X7025200Y6408700D01*
Y5398700D01*
X7778700Y4645200D01*
X8389800D01*
Y7885100D01*
X7885100Y8389800D01*
X7143600D01*
X7141100Y8388100D01*
G02X7130000Y8384800I-11100J17018D01*
G01X6950000D01*
G02X6938900Y8388100I0J20318D01*
G01X6936400Y8389800D01*
X3004900D01*
X2830200Y8215100D01*
Y8100200D01*
X2850000D01*
G02X2870200Y8080000I0J-20200D01*
G01Y7920000D01*
G02X2850000Y7899800I-20200J0D01*
G01X2769100D01*
X2030200Y7160900D01*
Y6515200D01*
X2050000D01*
G02X2070200Y6495000I0J-20200D01*
G01Y6405000D01*
G02X2050000Y6384800I-20200J0D01*
G01X1986100D01*
X1984400Y6384200D01*
G02X1960000Y6379800I-24460J65789D01*
G01X1550000D01*
G02X1525600Y6384200I60J70189D01*
G01X1523900Y6384800D01*
X1460000D01*
G02X1439800Y6405000I0J20200D01*
G01Y6495000D01*
G02X1460000Y6515200I20200J0D01*
G01X1479800D01*
Y6719800D01*
X1450000D01*
G02X1429800Y6740000I0J20200D01*
G01Y6860000D01*
G02X1450000Y6880200I20200J0D01*
G01X1650000D01*
G02X1670200Y6860000I0J-20200D01*
G01Y6740000D01*
G02X1650000Y6719800I-20200J0D01*
G01X1620200D01*
Y6520200D01*
X1889800D01*
Y7219100D01*
X2071400Y7400700D01*
G03X2057200Y7434800I-14164J14108D01*
G01X2015000D01*
G02X1994800Y7455000I0J20200D01*
G01Y7605000D01*
G02X1998100Y7616100I20318J0D01*
G01X1999800Y7618600D01*
G37*
G36*
G01X8100000Y1509800D02*
X7900000D01*
G02X7879800Y1530000I0J20200D01*
G01Y1707500D01*
X6827500Y2759800D01*
X6657500D01*
X6272500Y3144800D01*
X6145000D01*
G02X6132400Y3149200I0J20241D01*
G03X6107600I-12400J-15677D01*
G02X6095000Y3144800I-12600J15841D01*
G01X5945000D01*
G02X5924800Y3165000I0J20200D01*
G01Y3255000D01*
G02X5945000Y3275200I20200J0D01*
G01X6095000D01*
G02X6107600Y3270800I0J-20241D01*
G03X6132400I12400J15677D01*
G02X6145000Y3275200I12600J-15841D01*
G01X6295000D01*
G02X6315200Y3255000I0J-20200D01*
G01Y3187500D01*
X6682500Y2820200D01*
X6852500D01*
X7922500Y1750200D01*
X8100000D01*
G02X8120200Y1730000I0J-20200D01*
G01Y1530000D01*
G02X8100000Y1509800I-20200J0D01*
G37*
G36*
G01X7883400Y2422200D02*
X7885700Y2429100D01*
G02Y2354900I114300J-37100D01*
G01X7883400Y2361800D01*
X7627500D01*
X6809500Y3179800D01*
X6785200D01*
Y3165000D01*
G02X6765000Y3144800I-20200J0D01*
G01X6615000D01*
G02X6602400Y3149200I0J20241D01*
G03X6577600I-12400J-15677D01*
G02X6565000Y3144800I-12600J15841D01*
G01X6415000D01*
G02X6394800Y3165000I0J20200D01*
G01Y3255000D01*
G02X6415000Y3275200I20200J0D01*
G01X6565000D01*
G02X6577600Y3270800I0J-20241D01*
G03X6602400I12400J15677D01*
G02X6615000Y3275200I12600J-15841D01*
G01X6765000D01*
G02X6785200Y3255000I0J-20200D01*
G01Y3240200D01*
X6834500D01*
X7652500Y2422200D01*
X7883400D01*
G37*
G36*
G01Y3184200D02*
X7885700Y3191100D01*
G02Y3116900I114300J-37100D01*
G01X7883400Y3123800D01*
X7627500D01*
X6871500Y3879800D01*
X6735200D01*
Y3865000D01*
G02X6715000Y3844800I-20200J0D01*
G01X6565000D01*
G02X6552400Y3849200I0J20241D01*
G03X6527600I-12400J-15677D01*
G02X6515000Y3844800I-12600J15841D01*
G01X6365000D01*
G02X6344800Y3865000I0J20200D01*
G01Y3955000D01*
G02X6365000Y3975200I20200J0D01*
G01X6515000D01*
G02X6527600Y3970800I0J-20241D01*
G03X6552400I12400J15677D01*
G02X6565000Y3975200I12600J-15841D01*
G01X6715000D01*
G02X6735200Y3955000I0J-20200D01*
G01Y3940200D01*
X6896500D01*
X7652500Y3184200D01*
X7883400D01*
G37*
G36*
G01Y3946200D02*
X7885700Y3953100D01*
G02Y3878900I114300J-37100D01*
G01X7883400Y3885800D01*
X7627500D01*
X6953500Y4559800D01*
X6735200D01*
Y4545000D01*
G02X6715000Y4524800I-20200J0D01*
G01X6565000D01*
G02X6552400Y4529200I0J20241D01*
G03X6527600I-12400J-15677D01*
G02X6515000Y4524800I-12600J15841D01*
G01X6365000D01*
G02X6344800Y4545000I0J20200D01*
G01Y4635000D01*
G02X6365000Y4655200I20200J0D01*
G01X6515000D01*
G02X6527600Y4650800I0J-20241D01*
G03X6552400I12400J15677D01*
G02X6565000Y4655200I12600J-15841D01*
G01X6715000D01*
G02X6735200Y4635000I0J-20200D01*
G01Y4620200D01*
X6978500D01*
X7652500Y3946200D01*
X7883400D01*
G37*
G36*
G01X2505000Y6544800D02*
X2415000D01*
G02X2394800Y6565000I0J20200D01*
G01Y6715000D01*
G02X2399200Y6727600I20241J0D01*
G03Y6752400I-15677J12400D01*
G02X2394800Y6765000I15841J12600D01*
G01Y6915000D01*
G02X2415000Y6935200I20200J0D01*
G01X2505000D01*
G02X2525200Y6915000I0J-20200D01*
G01Y6765000D01*
G02X2520800Y6752400I-20241J0D01*
G03Y6727600I15677J-12400D01*
G02X2525200Y6715000I-15841J-12600D01*
G01Y6565000D01*
G02X2505000Y6544800I-20200J0D01*
G37*
G36*
G01X322800Y1965600D02*
G02X273100Y2015300I-67800J-18100D01*
G01X278600Y2013900D01*
X419800Y2155000D01*
Y2838300D01*
G03X385700Y2852500I-19999J18D01*
G01X321400Y2788100D01*
X322800Y2782600D01*
G02X273100Y2832300I-67800J-18100D01*
G01X278600Y2830900D01*
X339800Y2892000D01*
Y2955800D01*
G03X305400Y2969700I-20012J-10D01*
G02Y3067300I-50400J48800D01*
G03X339800Y3081200I14388J13910D01*
G01Y3925500D01*
G03X322700Y3932500I-10001J-44D01*
G01X311400Y3921100D01*
X312800Y3915600D01*
G02X263100Y3965300I-67800J-18100D01*
G01X268600Y3963900D01*
X399800Y4095000D01*
Y4778300D01*
G03X365700Y4792500I-19999J18D01*
G01X311400Y4738100D01*
X312800Y4732600D01*
G02X263100Y4782300I-67800J-18100D01*
G01X268600Y4780900D01*
X349800Y4862000D01*
Y5444800D01*
X335000D01*
G02X314800Y5465000I0J20200D01*
G01Y5615000D01*
G02X335000Y5635200I20200J0D01*
G01X425000D01*
G02X445200Y5615000I0J-20200D01*
G01Y5465000D01*
G02X425000Y5444800I-20200J0D01*
G01X410200D01*
Y5181200D01*
G03X444300Y5167000I19999J-18D01*
G01X704800Y5427500D01*
Y5495000D01*
G02X705100Y5498200I20174J-277D01*
G01X705200Y5499000D01*
Y5509800D01*
X635200D01*
Y5465000D01*
G02X615000Y5444800I-20200J0D01*
G01X525000D01*
G02X504800Y5465000I0J20200D01*
G01Y5615000D01*
G02X525000Y5635200I20200J0D01*
G01X539800D01*
Y5649700D01*
X536500Y5652600D01*
G02X603500I33500J37400D01*
G01X600200Y5649700D01*
Y5635200D01*
X615000D01*
G02X635200Y5615000I0J-20200D01*
G01Y5570200D01*
X685100D01*
G03X704900Y5592600I-36J19983D01*
G02X704800Y5595000I20115J2040D01*
G01Y5685000D01*
G02X725000Y5705200I20200J0D01*
G01X875000D01*
G02X895200Y5685000I0J-20200D01*
G01Y5670200D01*
X2422500D01*
X3102500Y4990200D01*
X3528800D01*
G03X3543000Y5024300I18J19999D01*
G01X3119800Y5447500D01*
Y5481400D01*
G02X3119700Y5483500I30082J2485D01*
G01Y5516500D01*
G02X3119800Y5518600I30182J-385D01*
G01Y5824800D01*
X3090000D01*
G02X3078900Y5828100I0J20318D01*
G01X3076400Y5829800D01*
X3060100D01*
G02X3041300Y5905500I-40096J30227D01*
G03X3069800Y5923600I8516J18079D01*
G01Y5925000D01*
G02X3072400Y5935000I20221J81D01*
G02X3069800Y5945000I17621J9919D01*
G01Y5977300D01*
X2983500D01*
X2820200Y5814000D01*
Y5809800D01*
G02X2752300Y5763000I-50207J187D01*
G03X2725200Y5744300I-7111J-18682D01*
G01Y5735000D01*
G02X2705000Y5714800I-20200J0D01*
G01X2615000D01*
G02X2594800Y5735000I0J20200D01*
G01Y5885000D01*
G02X2615000Y5905200I20200J0D01*
G01X2705000D01*
G02X2725200Y5885000I0J-20200D01*
G01Y5875700D01*
G03X2752300Y5857000I19989J-18D01*
G02X2769800Y5860200I17638J-47007D01*
G01X2774000D01*
X2906900Y5993200D01*
G03X2892800Y6027300I-14145J14116D01*
G01X2808100D01*
G02X2752300Y6013000I-38110J32691D01*
G03X2725200Y5994300I-7111J-18682D01*
G01Y5965000D01*
G02X2705000Y5944800I-20200J0D01*
G01X2615000D01*
G02X2594800Y5965000I0J20200D01*
G01Y6115000D01*
G02X2615000Y6135200I20200J0D01*
G01X2705000D01*
G02X2725200Y6115000I0J-20200D01*
G01Y6109100D01*
G03X2741000Y6101000I9992J31D01*
G02X2808100Y6092700I28993J-40993D01*
G01X3069800D01*
Y6127300D01*
X2876500D01*
X2784000Y6219800D01*
X2779800D01*
G02X2746800Y6232300I152J50211D01*
G01X2744000Y6234800D01*
X2725200D01*
Y6195000D01*
G02X2705000Y6174800I-20200J0D01*
G01X2615000D01*
G02X2594800Y6195000I0J20200D01*
G01Y6345000D01*
G02X2615000Y6365200I20200J0D01*
G01X2705000D01*
G02X2725200Y6345000I0J-20200D01*
G01Y6305200D01*
X2744000D01*
X2746800Y6307700D01*
G02X2830200Y6270200I33189J-37679D01*
G01Y6266000D01*
X2903500Y6192700D01*
X3069800D01*
Y6225000D01*
G02X3072400Y6235000I20221J81D01*
G02X3069800Y6245000I17621J9919D01*
G01Y6275000D01*
G02X3072400Y6285000I20221J81D01*
G02X3069800Y6295000I17621J9919D01*
G01Y6325000D01*
G02X3072400Y6335000I20221J81D01*
G02X3069800Y6345000I17621J9919D01*
G01Y6375000D01*
G02X3072400Y6385000I20221J81D01*
G02X3069800Y6395000I17621J9919D01*
G01Y6425000D01*
G02X3072400Y6435000I20221J81D01*
G02X3069800Y6445000I17621J9919D01*
G01Y6475000D01*
G02X3072400Y6485000I20221J81D01*
G02X3069800Y6495000I17621J9919D01*
G01Y6527300D01*
X2686500D01*
X2669000Y6544800D01*
X2605000D01*
G02X2584800Y6565000I0J20200D01*
G01Y6715000D01*
G02X2589200Y6727600I20241J0D01*
G03Y6752400I-15677J12400D01*
G02X2584800Y6765000I15841J12600D01*
G01Y6915000D01*
G02X2605000Y6935200I20200J0D01*
G01X2695000D01*
G02X2715200Y6915000I0J-20200D01*
G01Y6842700D01*
X3069800D01*
Y6875000D01*
G02X3072400Y6885000I20221J81D01*
G02X3069800Y6895000I17621J9919D01*
G01Y6925000D01*
G02X3072400Y6935000I20221J81D01*
G02X3069800Y6945000I17621J9919D01*
G01Y6975000D01*
G02X3072400Y6985000I20221J81D01*
G02X3069800Y6995000I17621J9919D01*
G01Y7025000D01*
G02X3072400Y7035000I20221J81D01*
G02X3069800Y7045000I17621J9919D01*
G01Y7075000D01*
G02X3090000Y7095200I20200J0D01*
G01X3210000D01*
G02X3230200Y7075000I0J-20200D01*
G01Y7045000D01*
G02X3227600Y7035000I-20221J-81D01*
G02X3230200Y7025000I-17621J-9919D01*
G01Y6995000D01*
G02X3227600Y6985000I-20221J-81D01*
G02X3230200Y6975000I-17621J-9919D01*
G01Y6945000D01*
G02X3227600Y6935000I-20221J-81D01*
G02X3230200Y6925000I-17621J-9919D01*
G01Y6895000D01*
G02X3227600Y6885000I-20221J-81D01*
G02X3230200Y6875000I-17621J-9919D01*
G01Y6845000D01*
G02X3227600Y6835000I-20221J-81D01*
G02X3230200Y6825000I-17621J-9919D01*
G01Y6795000D01*
G02X3227600Y6785000I-20221J-81D01*
G02X3230200Y6775000I-17621J-9919D01*
G01Y6745000D01*
G02X3227600Y6735000I-20221J-81D01*
G02X3230200Y6725000I-17621J-9919D01*
G01Y6695000D01*
G02X3227600Y6685000I-20221J-81D01*
G02X3230200Y6675000I-17621J-9919D01*
G01Y6645000D01*
G02X3227600Y6635000I-20221J-81D01*
G02X3230200Y6625000I-17621J-9919D01*
G01Y6595000D01*
G02X3227600Y6585000I-20221J-81D01*
G02X3230200Y6575000I-17621J-9919D01*
G01Y6545000D01*
G02X3227600Y6535000I-20221J-81D01*
G02X3230200Y6525000I-17621J-9919D01*
G01Y6495000D01*
G02X3227600Y6485000I-20221J-81D01*
G02X3230200Y6475000I-17621J-9919D01*
G01Y6440200D01*
X3269900D01*
G02X3279800Y6450100I40100J-30200D01*
G01Y7077500D01*
X3177500Y7179800D01*
X3017500D01*
X2839800Y7357500D01*
Y7672500D01*
X3033100Y7865800D01*
G03X3019800Y7899900I-14173J14116D01*
G02X2963800Y8080100I4204J100108D01*
G01Y8208900D01*
X3095100Y8340200D01*
X6124900D01*
X6224900Y8240200D01*
X6936400D01*
X6938900Y8241900D01*
G02X6950000Y8245200I11100J-17018D01*
G01X7130000D01*
G02X7141100Y8241900I0J-20318D01*
G01X7143600Y8240200D01*
X7954900D01*
X8325200Y7869900D01*
Y5140100D01*
X8120200Y4935100D01*
Y4800000D01*
G02X8100000Y4779800I-20200J0D01*
G01X7900000D01*
G02X7879800Y4800000I0J20200D01*
G01Y5000000D01*
G02X7900000Y5020200I20200J0D01*
G01X8035100D01*
X8204800Y5189900D01*
Y5601800D01*
X8104000D01*
G02Y5722200I-104000J60200D01*
G01X8204800D01*
Y6363800D01*
X8104000D01*
G02Y6484200I-104000J60200D01*
G01X8204800D01*
Y7125800D01*
X8104000D01*
G02Y7246200I-104000J60200D01*
G01X8204800D01*
Y7820100D01*
X7905100Y8119800D01*
X7143600D01*
X7141100Y8118100D01*
G02X7130000Y8114800I-11100J17018D01*
G01X6950000D01*
G02X6938900Y8118100I0J20318D01*
G01X6936400Y8119800D01*
X6175100D01*
X6075100Y8219800D01*
X5895200D01*
G03X5881000Y8185700I-18J-19999D01*
G01X6127600Y7939100D01*
X6133900Y7941800D01*
G02X6267300Y7886600I40129J-91813D01*
G01X6269800Y7880200D01*
X6431400D01*
X6433900Y7881900D01*
G02X6445000Y7885200I11100J-17018D01*
G01X6595000D01*
G02X6615200Y7865000I0J-20200D01*
G01Y7775000D01*
G02X6595000Y7754800I-20200J0D01*
G01X6445000D01*
G02X6424800Y7775000I0J20200D01*
G01Y7819800D01*
X6269800D01*
X6267300Y7813400D01*
G02X6082200Y7890100I-93285J36576D01*
G01X6084900Y7896400D01*
X6029100Y7952200D01*
X6017900Y7941000D01*
X6019500Y7935400D01*
G02X6020200Y7930000I-19516J-5275D01*
G01Y7770000D01*
G02X6019900Y7766300I-20218J-223D01*
G03X6039500Y7742700I19653J-3617D01*
G01X6073500D01*
X6130000Y7686300D01*
X6136100Y7688800D01*
G02X6267300Y7632600I37894J-92781D01*
G01X6269800Y7626200D01*
X6424800D01*
Y7675000D01*
G02X6445000Y7695200I20200J0D01*
G01X6595000D01*
G02X6615200Y7675000I0J-20200D01*
G01Y7585000D01*
G02X6595000Y7564800I-20200J0D01*
G01X6445000D01*
G02X6439800Y7565500I71J20190D01*
G01X6438600Y7565800D01*
X6269800D01*
X6267300Y7559400D01*
G02X6081200Y7633900I-93309J36604D01*
G01X6083700Y7640000D01*
X6046500Y7677300D01*
X6023400D01*
G03X6006200Y7647100I-7J-19994D01*
G02X5879900Y7504200I-86195J-51082D01*
G01X5873600Y7506900D01*
X5746500Y7379800D01*
X4667500D01*
X4560200Y7272500D01*
Y7175000D01*
G02X4540000Y7154800I-20200J0D01*
G01X3336200D01*
G03X3322000Y7120700I-18J-19999D01*
G01X3340200Y7102500D01*
Y6450100D01*
G02X3323300Y6361600I-30202J-40096D01*
G03X3314400Y6328200I5278J-19292D01*
G01X3370200Y6272400D01*
Y5847500D01*
X3322000Y5799300D01*
G03X3336200Y5765200I14182J-14101D01*
G01X4540000D01*
G02X4560200Y5745000I0J-20200D01*
G01Y5717700D01*
X4638500D01*
X4801000Y5555200D01*
X4865000D01*
G02X4885200Y5535000I0J-20200D01*
G01Y5385000D01*
G02X4865000Y5364800I-20200J0D01*
G01X4775000D01*
G02X4754800Y5385000I0J20200D01*
G01Y5424800D01*
X4705400D01*
X4670600Y5459700D01*
X4666800Y5459900D01*
G02X4655800Y5461800I2994J50127D01*
G03X4630200Y5442700I-5619J-19174D01*
G01Y5395200D01*
X4675000D01*
G02X4695200Y5375000I0J-20200D01*
G01Y5285000D01*
G02X4675000Y5264800I-20200J0D01*
G01X4525000D01*
G02X4512400Y5269200I0J20241D01*
G03X4487600I-12400J-15677D01*
G02X4475000Y5264800I-12600J15841D01*
G01X4325000D01*
G02X4304800Y5285000I0J20200D01*
G01Y5375000D01*
G02X4325000Y5395200I20200J0D01*
G01X4394800D01*
Y5604800D01*
X3938600D01*
G03X3920500Y5576300I-21J-19984D01*
G02X3893700Y5508400I-45482J-21287D01*
G03X3887000Y5475700I7438J-18560D01*
G01X4402500Y4960200D01*
X4518800D01*
G03X4533000Y4994300I18J19999D01*
G01X4452500Y5074800D01*
X4325000D01*
G02X4304800Y5095000I0J20200D01*
G01Y5185000D01*
G02X4325000Y5205200I20200J0D01*
G01X4475000D01*
G02X4487600Y5200800I0J-20241D01*
G03X4512400I12400J15677D01*
G02X4525000Y5205200I12600J-15841D01*
G01X4675000D01*
G02X4695200Y5185000I0J-20200D01*
G01Y5095000D01*
G02X4675000Y5074800I-20200J0D01*
G01X4562000D01*
G03X4555000Y5057700I44J-10001D01*
G01X4572500Y5040200D01*
X4762500D01*
X5045700Y4757000D01*
G03X5079800Y4771200I14101J14182D01*
G01Y5345100D01*
G03X5057400Y5364900I-19983J-36D01*
G02X5055000Y5364800I-2040J20115D01*
G01X4965000D01*
G02X4944800Y5385000I0J20200D01*
G01Y5535000D01*
G02X4965000Y5555200I20200J0D01*
G01X5055000D01*
G02X5057400Y5555100I360J-20215D01*
G03X5079800Y5574900I2417J19836D01*
G01Y5594800D01*
X5065000D01*
G02X5044800Y5615000I0J20200D01*
G01Y5765000D01*
G02X5065000Y5785200I20200J0D01*
G01X5138000D01*
G03X5145000Y5802300I-44J10001D01*
G01X5132500Y5814800D01*
X5065000D01*
G02X5044800Y5835000I0J20200D01*
G01Y5985000D01*
G02X5065000Y6005200I20200J0D01*
G01X5148000D01*
G03X5155000Y6022300I-44J10001D01*
G01X5147500Y6029800D01*
X4780200D01*
Y5995000D01*
G02X4777600Y5985000I-20221J-81D01*
G02X4780200Y5975000I-17621J-9919D01*
G01Y5940200D01*
X4854800D01*
Y5985000D01*
G02X4875000Y6005200I20200J0D01*
G01X4965000D01*
G02X4985200Y5985000I0J-20200D01*
G01Y5835000D01*
G02X4965000Y5814800I-20200J0D01*
G01X4892000D01*
G03X4885000Y5797700I44J-10001D01*
G01X4897500Y5785200D01*
X4965000D01*
G02X4985200Y5765000I0J-20200D01*
G01Y5615000D01*
G02X4965000Y5594800I-20200J0D01*
G01X4875000D01*
G02X4854800Y5615000I0J20200D01*
G01Y5742500D01*
X4770500Y5826800D01*
X4765000Y5825400D01*
G02X4760000Y5824800I-4890J19613D01*
G01X4640000D01*
G02X4619800Y5845000I0J20200D01*
G01Y5875000D01*
G02X4622400Y5885000I20221J81D01*
G02X4619800Y5895000I17621J9919D01*
G01Y5925000D01*
G02X4622400Y5935000I20221J81D01*
G02X4619800Y5945000I17621J9919D01*
G01Y5975000D01*
G02X4622400Y5985000I20221J81D01*
G02X4619800Y5995000I17621J9919D01*
G01Y6025000D01*
G02X4622400Y6035000I20221J81D01*
G02X4619800Y6045000I17621J9919D01*
G01Y6075000D01*
G02X4622400Y6085000I20221J81D01*
G02X4619800Y6095000I17621J9919D01*
G01Y6125000D01*
G02X4622400Y6135000I20221J81D01*
G02X4619800Y6145000I17621J9919D01*
G01Y6175000D01*
G02X4622400Y6185000I20221J81D01*
G02X4619800Y6195000I17621J9919D01*
G01Y6225000D01*
G02X4622400Y6235000I20221J81D01*
G02X4619800Y6245000I17621J9919D01*
G01Y6275000D01*
G02X4622400Y6285000I20221J81D01*
G02X4619800Y6295000I17621J9919D01*
G01Y6325000D01*
G02X4622400Y6335000I20221J81D01*
G02X4619800Y6345000I17621J9919D01*
G01Y6375000D01*
G02X4622400Y6385000I20221J81D01*
G02X4619800Y6395000I17621J9919D01*
G01Y6425000D01*
G02X4622400Y6435000I20221J81D01*
G02X4619800Y6445000I17621J9919D01*
G01Y6475000D01*
G02X4622400Y6485000I20221J81D01*
G02X4619800Y6495000I17621J9919D01*
G01Y6525000D01*
G02X4622400Y6535000I20221J81D01*
G02X4619800Y6545000I17621J9919D01*
G01Y6575000D01*
G02X4622400Y6585000I20221J81D01*
G02X4619800Y6595000I17621J9919D01*
G01Y6625000D01*
G02X4622400Y6635000I20221J81D01*
G02X4619800Y6645000I17621J9919D01*
G01Y6675000D01*
G02X4622400Y6685000I20221J81D01*
G02X4619800Y6695000I17621J9919D01*
G01Y6725000D01*
G02X4622400Y6735000I20221J81D01*
G02X4619800Y6745000I17621J9919D01*
G01Y6775000D01*
G02X4622400Y6785000I20221J81D01*
G02X4619800Y6795000I17621J9919D01*
G01Y6825000D01*
G02X4622400Y6835000I20221J81D01*
G02X4619800Y6845000I17621J9919D01*
G01Y6875000D01*
G02X4622400Y6885000I20221J81D01*
G02X4619800Y6895000I17621J9919D01*
G01Y6925000D01*
G02X4622400Y6935000I20221J81D01*
G02X4619800Y6945000I17621J9919D01*
G01Y6975000D01*
G02X4622400Y6985000I20221J81D01*
G02X4619800Y6995000I17621J9919D01*
G01Y7025000D01*
G02X4622400Y7035000I20221J81D01*
G02X4619800Y7045000I17621J9919D01*
G01Y7075000D01*
G02X4640000Y7095200I20200J0D01*
G01X4760000D01*
G02X4768000Y7093500I-107J-20177D01*
G01X4770000Y7092700D01*
X4906500D01*
X4934800Y7121000D01*
Y7245000D01*
G02X4944000Y7261900I20122J0D01*
G03X4952200Y7284800I-10875J16812D01*
G02X5047800I47800J15200D01*
G03X5056000Y7261900I19075J-6088D01*
G02X5065200Y7245000I-10922J-16900D01*
G01Y7095000D01*
G02X5058400Y7079900I-20165J0D01*
G03Y7050100I13354J-14900D01*
G02X5065200Y7035000I-13365J-15100D01*
G01Y6885000D01*
G02X5064900Y6881800I-20174J277D01*
G01X5064800Y6881000D01*
Y6870200D01*
X5125200D01*
Y6881000D01*
X5125100Y6881800D01*
G02X5124800Y6885000I19874J3477D01*
G01Y7035000D01*
G02X5131600Y7050100I20165J0D01*
G03Y7079900I-13354J14900D01*
G02X5124800Y7095000I13365J15100D01*
G01Y7245000D01*
G02X5145000Y7265200I20200J0D01*
G01X5235000D01*
G02X5255200Y7245000I0J-20200D01*
G01Y7095000D01*
G02X5248400Y7079900I-20165J0D01*
G03Y7050100I13354J-14900D01*
G02X5255200Y7035000I-13365J-15100D01*
G01Y6885000D01*
G02X5254900Y6881800I-20174J277D01*
G01X5254800Y6881000D01*
Y6870200D01*
X5405500D01*
X5830900Y7295600D01*
X5828200Y7301900D01*
G02X5879900Y7250200I91800J40100D01*
G01X5873600Y7252900D01*
X5430500Y6809800D01*
X4917400D01*
X4847400Y6879800D01*
X4780200D01*
Y6845000D01*
G02X4777600Y6835000I-20221J-81D01*
G02X4780200Y6825000I-17621J-9919D01*
G01Y6795000D01*
G02X4777600Y6785000I-20221J-81D01*
G02X4780200Y6775000I-17621J-9919D01*
G01Y6745000D01*
G02X4777600Y6735000I-20221J-81D01*
G02X4780200Y6725000I-17621J-9919D01*
G01Y6695000D01*
G02X4777600Y6685000I-20221J-81D01*
G02X4780200Y6675000I-17621J-9919D01*
G01Y6645000D01*
G02X4777600Y6635000I-20221J-81D01*
G02X4780200Y6625000I-17621J-9919D01*
G01Y6595000D01*
G02X4777600Y6585000I-20221J-81D01*
G02X4780200Y6575000I-17621J-9919D01*
G01Y6545000D01*
G02X4777600Y6535000I-20221J-81D01*
G02X4780200Y6525000I-17621J-9919D01*
G01Y6495000D01*
G02X4777600Y6485000I-20221J-81D01*
G02X4780200Y6475000I-17621J-9919D01*
G01Y6445000D01*
G02X4777600Y6435000I-20221J-81D01*
G02X4780200Y6425000I-17621J-9919D01*
G01Y6395000D01*
G02X4777600Y6385000I-20221J-81D01*
G02X4780200Y6375000I-17621J-9919D01*
G01Y6345000D01*
G02X4777600Y6335000I-20221J-81D01*
G02X4780200Y6325000I-17621J-9919D01*
G01Y6295000D01*
G02X4777600Y6285000I-20221J-81D01*
G02X4780200Y6275000I-17621J-9919D01*
G01Y6240200D01*
X4937500D01*
X5214800Y6517500D01*
Y6645000D01*
G02X5235000Y6665200I20200J0D01*
G01X5302500D01*
X5407500Y6770200D01*
X5768700D01*
X5771200Y6776500D01*
G02X5790000Y6789200I18800J-7565D01*
G01X5950000D01*
G02X5970200Y6769000I0J-20200D01*
G01Y6709000D01*
G02X5950000Y6688800I-20200J0D01*
G01X5790000D01*
G02X5771000Y6702200I0J20170D01*
G01X5768600Y6708800D01*
X5737500D01*
X5736500Y6709800D01*
X5432500D01*
X5372000Y6649300D01*
G03X5378700Y6616600I14138J-14140D01*
G02X5389000Y6611000I-18669J-46611D01*
G03X5404800Y6619100I5808J8131D01*
G01Y6645000D01*
G02X5425000Y6665200I20200J0D01*
G01X5515000D01*
G02X5535200Y6645000I0J-20200D01*
G01Y6490200D01*
X5637500D01*
X5662500Y6515200D01*
X5768600D01*
X5771000Y6521800D01*
G02X5790000Y6535200I19000J-6770D01*
G01X5950000D01*
G02X5970200Y6515000I0J-20200D01*
G01Y6455000D01*
G02X5950000Y6434800I-20200J0D01*
G01X5790000D01*
G02X5771000Y6448200I0J20170D01*
G01X5768600Y6454800D01*
X5687500D01*
X5662500Y6429800D01*
X5535200D01*
Y6270200D01*
X5771400D01*
X5774400Y6273800D01*
G02X5790000Y6281200I15600J-12743D01*
G01X5950000D01*
G02X5970200Y6261000I0J-20200D01*
G01Y6201000D01*
G02X5950000Y6180800I-20200J0D01*
G01X5790000D01*
G02X5769800Y6200200I0J20216D01*
G01X5769400Y6209800D01*
X5535200D01*
Y6050200D01*
X5662500D01*
X5705500Y6007200D01*
X5768600D01*
X5771000Y6013800D01*
G02X5790000Y6027200I19000J-6770D01*
G01X5950000D01*
G02X5970200Y6007000I0J-20200D01*
G01Y5947000D01*
G02X5950000Y5926800I-20200J0D01*
G01X5790000D01*
G02X5771000Y5940200I0J20170D01*
G01X5768600Y5946800D01*
X5680500D01*
X5637500Y5989800D01*
X5535200D01*
Y5835000D01*
G02X5515000Y5814800I-20200J0D01*
G01X5425000D01*
G02X5404800Y5835000I0J20200D01*
G01Y5844300D01*
G03X5377700Y5863000I-19989J18D01*
G02X5363700Y5859900I-17746J46980D01*
G03X5345200Y5840000I1485J-19930D01*
G01Y5835000D01*
G02X5325000Y5814800I-20200J0D01*
G01X5235000D01*
G02X5231800Y5815100I277J20174D01*
G01X5231000Y5815200D01*
X5220200D01*
Y5489500D01*
G03X5254400Y5475400I19995J-27D01*
G02X5330100Y5470200I35597J-35399D01*
G01X5362500D01*
X5782500Y5050200D01*
X6384800D01*
Y5095000D01*
G02X6405000Y5115200I20200J0D01*
G01X6495000D01*
G02X6515200Y5095000I0J-20200D01*
G01Y4945000D01*
G02X6495000Y4924800I-20200J0D01*
G01X6405000D01*
G02X6384800Y4945000I0J20200D01*
G01Y4989800D01*
X5811200D01*
G03X5797000Y4955700I-18J-19999D01*
G01X6367700Y4385000D01*
G03X6384800Y4392000I7099J7044D01*
G01Y4415000D01*
G02X6405000Y4435200I20200J0D01*
G01X6495000D01*
G02X6515200Y4415000I0J-20200D01*
G01Y4265000D01*
G02X6495000Y4244800I-20200J0D01*
G01X6405000D01*
G02X6384800Y4265000I0J20200D01*
G01Y4309800D01*
X6357500D01*
X5604300Y5063000D01*
G03X5570200Y5048800I-14101J-14182D01*
G01Y4537500D01*
X6417700Y3690000D01*
G03X6434800Y3697000I7099J7044D01*
G01Y3715000D01*
G02X6455000Y3735200I20200J0D01*
G01X6545000D01*
G02X6565200Y3715000I0J-20200D01*
G01Y3565000D01*
G02X6545000Y3544800I-20200J0D01*
G01X6455000D01*
G02X6434800Y3565000I0J20200D01*
G01Y3609800D01*
X6412500D01*
X6319300Y3703000D01*
G03X6285200Y3688800I-14101J-14182D01*
G01Y3565000D01*
G02X6265000Y3544800I-20200J0D01*
G01X6250200D01*
Y3465200D01*
X6295000D01*
G02X6315200Y3445000I0J-20200D01*
G01Y3355000D01*
G02X6295000Y3334800I-20200J0D01*
G01X6145000D01*
G02X6132400Y3339200I0J20241D01*
G03X6107600I-12400J-15677D01*
G02X6095000Y3334800I-12600J15841D01*
G01X5945000D01*
G02X5924800Y3355000I0J20200D01*
G01Y3445000D01*
G02X5945000Y3465200I20200J0D01*
G01X6095000D01*
G02X6107600Y3460800I0J-20241D01*
G03X6132400I12400J15677D01*
G02X6145000Y3465200I12600J-15841D01*
G01X6189800D01*
Y3544800D01*
X6175000D01*
G02X6154800Y3565000I0J20200D01*
G01Y3715000D01*
G02X6175000Y3735200I20200J0D01*
G01X6238800D01*
G03X6253000Y3769300I18J19999D01*
G01X6094300Y3928000D01*
G03X6060200Y3913800I-14101J-14182D01*
G01Y3735200D01*
X6075000D01*
G02X6095200Y3715000I0J-20200D01*
G01Y3565000D01*
G02X6075000Y3544800I-20200J0D01*
G01X5985000D01*
G02X5964800Y3565000I0J20200D01*
G01Y3715000D01*
G02X5985000Y3735200I20200J0D01*
G01X5999800D01*
Y3947500D01*
X5864300Y4083000D01*
G03X5830200Y4068800I-14101J-14182D01*
G01Y3222500D01*
X5970200Y3082500D01*
Y2837500D01*
X5752500Y2619800D01*
X4677500D01*
X4544800Y2752500D01*
Y2814800D01*
X4405200D01*
Y2500200D01*
X4505000D01*
G02X4525200Y2480000I0J-20200D01*
G01Y2450200D01*
X4634800D01*
Y2465000D01*
G02X4655000Y2485200I20200J0D01*
G01X4805000D01*
G02X4825200Y2465000I0J-20200D01*
G01Y2375000D01*
G02X4805000Y2354800I-20200J0D01*
G01X4655000D01*
G02X4634800Y2375000I0J20200D01*
G01Y2389800D01*
X4525200D01*
Y2360000D01*
G02X4520800Y2347400I-20241J0D01*
G03Y2322600I15677J-12400D01*
G02X4525200Y2310000I-15841J-12600D01*
G01Y2190000D01*
G02X4505000Y2169800I-20200J0D01*
G01X4365000D01*
G02X4344800Y2190000I0J20200D01*
G01Y2273800D01*
G03X4310700Y2288000I-19999J18D01*
G01X4305200Y2282500D01*
Y2190000D01*
G02X4285000Y2169800I-20200J0D01*
G01X4145000D01*
G02X4124800Y2190000I0J20200D01*
G01Y2219800D01*
X4025200D01*
Y2205000D01*
G02X4005000Y2184800I-20200J0D01*
G01X3855000D01*
G02X3834800Y2205000I0J20200D01*
G01Y2295000D01*
G02X3855000Y2315200I20200J0D01*
G01X4005000D01*
G02X4025200Y2295000I0J-20200D01*
G01Y2280200D01*
X4124800D01*
Y2310000D01*
G02X4129200Y2322600I20241J0D01*
G03Y2347400I-15677J12400D01*
G02X4124800Y2360000I15841J12600D01*
G01Y2480000D01*
G02X4145000Y2500200I20200J0D01*
G01X4294800D01*
Y2814800D01*
X4262500D01*
G02X4242300Y2835000I0J20200D01*
G01Y2922200D01*
G03X4208200Y2936300I-19982J-40D01*
G01X3681600Y2409800D01*
X1962900D01*
X1733300Y2180200D01*
X1733800Y2175500D01*
G02X1643500Y2265800I-99800J-9500D01*
G01X1648200Y2265300D01*
X1798500Y2415700D01*
G03X1784400Y2449800I-14140J14118D01*
G01X1723700D01*
G03X1703800Y2427600I-30J-19993D01*
G02X1564200I-69800J-7600D01*
G03X1544300Y2449800I-19870J2207D01*
G01X1408100D01*
X1406800Y2449400D01*
G02X1398800Y2644400I-26778J96566D01*
G03X1416700Y2678200I3739J19660D01*
G01X1394200Y2700700D01*
X1389500Y2700200D01*
G02X1479800Y2790500I-9500J99800D01*
G01X1479300Y2785800D01*
X1527900Y2737200D01*
G03X1557300Y2738500I14102J14183D01*
G02X1728600Y2706900I76666J-64503D01*
G01X1731000Y2700200D01*
X3325100D01*
X3858000Y3233200D01*
G03X3843900Y3267300I-14140J14118D01*
G01X3813500D01*
X3610200Y3064000D01*
Y3059800D01*
G02X3524200Y3024800I-50202J196D01*
G01X3465200D01*
Y2985000D01*
G02X3445000Y2964800I-20200J0D01*
G01X3355000D01*
G02X3334800Y2985000I0J20200D01*
G01Y3135000D01*
G02X3355000Y3155200I20200J0D01*
G01X3445000D01*
G02X3465200Y3135000I0J-20200D01*
G01Y3095200D01*
X3524200D01*
G02X3559800Y3110200I35792J-35202D01*
G01X3564000D01*
X3696900Y3243200D01*
G03X3682800Y3277300I-14145J14116D01*
G01X3465200D01*
Y3235000D01*
G02X3445000Y3214800I-20200J0D01*
G01X3355000D01*
G02X3334800Y3235000I0J20200D01*
G01Y3385000D01*
G02X3355000Y3405200I20200J0D01*
G01X3445000D01*
G02X3465200Y3385000I0J-20200D01*
G01Y3342700D01*
X3696500D01*
X3704000Y3350200D01*
G03X3696900Y3367300I-7064J7091D01*
G01X3696500D01*
X3596200Y3467600D01*
X3594600Y3468300D01*
G02X3585100Y3475100I15465J31642D01*
G01X3550600Y3509700D01*
X3546800Y3509900D01*
G02X3514200Y3524800I3194J50101D01*
G01X3465200D01*
Y3485000D01*
G02X3445000Y3464800I-20200J0D01*
G01X3355000D01*
G02X3334800Y3485000I0J20200D01*
G01Y3635000D01*
G02X3355000Y3655200I20200J0D01*
G01X3445000D01*
G02X3465200Y3635000I0J-20200D01*
G01Y3595200D01*
X3514200D01*
G02X3547500Y3610100I35747J-35230D01*
G03X3560600Y3644200I-1043J19967D01*
G01X3235100Y3969800D01*
X1555100D01*
X1459800Y4065100D01*
Y4184900D01*
G03X1424300Y4197500I-19995J-26D01*
G02Y4286500I-54300J44500D01*
G03X1459800Y4299100I15505J12626D01*
G01Y4321100D01*
X1384200Y4396700D01*
X1379500Y4396200D01*
G02X1388800Y4594400I-9465J99762D01*
G03X1406700Y4628200I3739J19660D01*
G01X1384200Y4650700D01*
X1379500Y4650200D01*
G02X1278100Y4710100I-9458J99766D01*
G03X1245600Y4716300I-18357J-7946D01*
G01X480200Y3950900D01*
Y2130000D01*
X321400Y1971100D01*
X322800Y1965600D01*
G37*
G54D43*
X1050000Y1581500D03*
Y3130500D03*
X1040000Y3531500D03*
G54D45*
X6174000Y7342000D03*
G54D41*
X255000Y1693500D03*
X245000Y3643500D03*
Y4968500D03*
X1380000Y2038000D03*
Y2292000D03*
X1370000Y3988000D03*
X1634000Y1912000D03*
X1624000Y3862000D03*
G54D46*
X8000000Y5281000D03*
Y6043000D03*
Y6805000D03*
Y7567000D03*
G54D42*
X745000Y1784500D03*
Y2927500D03*
X735000Y3734500D03*
G54D44*
X1808000Y8000000D03*
%LPD*%
G75*
G36*
G01X460200Y4131200D02*
Y5097500D01*
X747500Y5384800D01*
X875000D01*
G03X895200Y5405000I0J20200D01*
G01Y5495000D01*
G03X894900Y5498200I-20174J-277D01*
G01X894800Y5499000D01*
Y5509800D01*
X2437600D01*
X3003100Y4944300D01*
G02X2988900Y4910200I-14182J-14101D01*
G01X1287500D01*
X494300Y4117000D01*
G02X460200Y4131200I-14101J14182D01*
G37*
G36*
G01X4344800Y3916200D02*
G02X4310700Y3902000I-19999J-18D01*
G01X4222500Y3990200D01*
X4180100D01*
G03X4129400Y4009100I-40125J-30184D01*
G02X4105200Y4028600I-4214J19537D01*
G01Y4035000D01*
G03X4085000Y4055200I-20200J0D01*
G01X3995000D01*
G03X3974800Y4035000I0J-20200D01*
G01Y3885000D01*
G03X3995000Y3864800I20200J0D01*
G01X4085000D01*
G03X4105200Y3885000I0J20200D01*
G01Y3891400D01*
G02X4129400Y3910900I19986J-37D01*
G03X4180100Y3929800I10575J49084D01*
G01X4197500D01*
X4275000Y3852300D01*
G02X4268000Y3835200I-7044J-7099D01*
G01X4262500D01*
G03X4242300Y3815000I0J-20200D01*
G01Y3695000D01*
G03X4262500Y3674800I20200J0D01*
G01X4783800D01*
G02X4798000Y3640700I18J-19999D01*
G01X4759800Y3602500D01*
Y3120200D01*
X4467500D01*
X4394800Y3047500D01*
Y2975200D01*
X4285100D01*
G02X4266400Y3002200I22J19991D01*
G03X4270200Y3023200I-56409J21051D01*
G01Y3104900D01*
X4219500Y3155600D01*
X4223400Y3162300D01*
G03X4230200Y3187500I-43294J25200D01*
G01Y3212500D01*
G03X4228600Y3225000I-50191J-72D01*
G03X4230200Y3237500I-48591J12572D01*
G01Y3262500D01*
G03X4200400Y3308300I-50095J0D01*
G01Y3312500D01*
G03X4196000Y3325100I-20383J-50D01*
G03X4200200Y3337500I-16205J12400D01*
G01Y3362500D01*
G03X4196000Y3374900I-20405J0D01*
G03X4200400Y3387500I-15983J12650D01*
G01Y3391700D01*
G03X4230200Y3437500I-20295J45800D01*
G01Y3462500D01*
G03X4228600Y3475000I-50191J-72D01*
G03X4230200Y3487500I-48591J12572D01*
G01Y3512500D01*
G03X4228600Y3525000I-50191J-72D01*
G03X4230200Y3537500I-48591J12572D01*
G01Y3562500D01*
G03X4228600Y3575000I-50191J-72D01*
G03X4230200Y3587500I-48591J12572D01*
G01Y3612500D01*
G03X4180000Y3662700I-50200J0D01*
G01X4060000D01*
G03X4049900Y3661700I-128J-50213D01*
G01X4044600Y3660600D01*
X3874600Y3830700D01*
G02X3888700Y3864800I14140J14118D01*
G01X3895000D01*
G03X3915200Y3885000I0J20200D01*
G01Y4035000D01*
G03X3895000Y4055200I-20200J0D01*
G01X3805000D01*
G03X3784800Y4035000I0J-20200D01*
G01Y3968700D01*
G02X3750700Y3954600I-19982J40D01*
G01X3065000Y4640200D01*
X1723200D01*
X1721300Y4647800D01*
G03X1547300Y4688500I-97327J-23800D01*
G02X1517900Y4687200I-15298J12883D01*
G01X1469300Y4735800D01*
X1469800Y4740500D01*
G03X1464500Y4783200I-99775J9295D01*
G02X1483400Y4809800I18893J6591D01*
G01X3277500D01*
X3314800Y4772500D01*
Y4645000D01*
G03X3319200Y4632400I20241J0D01*
G02Y4607600I-15677J-12400D01*
G03X3314800Y4595000I15841J-12600D01*
G01Y4445000D01*
G03X3335000Y4424800I20200J0D01*
G01X3425000D01*
G03X3445200Y4445000I0J20200D01*
G01Y4572500D01*
X3506300Y4633600D01*
X3513200Y4628600D01*
G03X3513700Y4628300I10609J17115D01*
G02Y4611700I-5639J-8300D01*
G03X3504800Y4595000I11218J-16700D01*
G01Y4445000D01*
G03X3525000Y4424800I20200J0D01*
G01X3615000D01*
G03X3635200Y4445000I0J20200D01*
G01Y4489800D01*
X3807500D01*
X4344800Y3952500D01*
Y3916200D01*
G37*
G36*
G01X3874900Y3560200D02*
X3304900Y4130200D01*
X1723500D01*
X1721800Y4138000D01*
G03X1604200Y4214200I-97757J-22022D01*
G02X1580200Y4233800I-3995J19602D01*
G01Y4283000D01*
G02X1605500Y4302300I20003J11D01*
G03X1569000Y4413600I18509J67705D01*
G02X1539200Y4411900I-15659J12458D01*
G01X1469300Y4481800D01*
X1469800Y4486500D01*
G03X1468400Y4514800I-99783J9248D01*
G02X1502200Y4532700I19660J3739D01*
G01X1555100Y4479800D01*
X2998600D01*
X3901100Y3577300D01*
G02X3894000Y3560200I-7059J-7093D01*
G01X3874900D01*
G37*
G36*
G01X2826200Y6620500D02*
G03X2760000Y6686000I-46234J19475D01*
G01X2758100Y6685200D01*
X2715200D01*
Y6715000D01*
G03X2710800Y6727600I-20241J0D01*
G02Y6752400I15677J12400D01*
G03X2715200Y6765000I-15841J12600D01*
G01Y6777300D01*
X3069800D01*
Y6745000D01*
G03X3072400Y6735000I20221J-81D01*
G03X3069800Y6725000I17621J-9919D01*
G01Y6695000D01*
G03X3072400Y6685000I20221J-81D01*
G03X3069800Y6675000I17621J-9919D01*
G01Y6645000D01*
G03X3072400Y6635000I20221J-81D01*
G03X3069800Y6625000I17621J-9919D01*
G01Y6592700D01*
X2844700D01*
G02X2826200Y6620500I-62J20015D01*
G37*
G36*
G01X3357700Y7315200D02*
Y7358500D01*
X3225200Y7491000D01*
Y7555000D01*
G03X3205000Y7575200I-20200J0D01*
G01X3055000D01*
G03X3039900Y7568400I0J-20165D01*
G02X3012700Y7565700I-15043J13189D01*
G03X2931200Y7568500I-42712J-55703D01*
G02X2900200Y7585200I-11002J16699D01*
G01Y7647500D01*
X3180200Y7927500D01*
Y7943400D01*
X3195200D01*
X3198200Y7939400D01*
G03X3318100Y7908200I79781J60610D01*
G01X3324400Y7910900D01*
X3343300Y7892000D01*
X3345300D01*
X3467500Y7769800D01*
X3640900D01*
X3886700Y7523900D01*
G02X3874700Y7489900I-14127J-14132D01*
G03X3844800Y7404200I5300J-49915D01*
G01Y7315200D01*
X3655200D01*
Y7464800D01*
G02X3665100Y7474800I9998J2D01*
G03X3685200Y7495000I-100J20200D01*
G01Y7645000D01*
G03X3665000Y7665200I-20200J0D01*
G01X3575000D01*
G03X3554800Y7645000I0J-20200D01*
G01Y7495000D01*
G03X3575000Y7474800I20200J0D01*
G01X3594800D01*
Y7315200D01*
X3357700D01*
G37*
G36*
G01X3280200Y5867000D02*
Y5902400D01*
X3242400Y5940200D01*
X3230200D01*
Y5975000D01*
G03X3227600Y5985000I-20221J81D01*
G03X3230200Y5995000I-17621J9919D01*
G01Y6025000D01*
G03X3227600Y6035000I-20221J81D01*
G03X3230200Y6045000I-17621J9919D01*
G01Y6075000D01*
G03X3227600Y6085000I-20221J81D01*
G03X3230200Y6095000I-17621J9919D01*
G01Y6125000D01*
G03X3227600Y6135000I-20221J81D01*
G03X3230200Y6145000I-17621J9919D01*
G01Y6175000D01*
G03X3227600Y6185000I-20221J81D01*
G03X3230200Y6195000I-17621J9919D01*
G01Y6225000D01*
G03X3227600Y6235000I-20221J81D01*
G03X3230200Y6245000I-17621J9919D01*
G01Y6279800D01*
X3277400D01*
X3309800Y6247400D01*
Y5872500D01*
X3297300Y5860000D01*
G02X3280200Y5867000I-7099J7044D01*
G37*
G36*
G01X4239800Y7507800D02*
G02X4205700Y7493600I-19999J-18D01*
G01X4070200Y7629100D01*
Y7904200D01*
X4076600Y7906700D01*
G03X4003400I-36600J93300D01*
G01X4009800Y7904200D01*
Y7681200D01*
G02X3975700Y7667000I-19999J-18D01*
G01X3816200Y7826500D01*
Y7904200D01*
X3822600Y7906700D01*
G03X3749400I-36600J93300D01*
G01X3755800Y7904200D01*
Y7867200D01*
G02X3721700Y7853000I-19999J-18D01*
G01X3621100Y7953600D01*
X3623800Y7959900D01*
G03X3572100Y7908200I-91800J40100D01*
G01X3578400Y7910900D01*
X3625000Y7864300D01*
G02X3610800Y7830200I-14182J-14101D01*
G01X3492500D01*
X3367800Y7955000D01*
X3370400Y7961100D01*
G03X3280600Y8100200I-92371J38904D01*
G02X3267000Y8134300I547J19980D01*
G01X3272500Y8139800D01*
X5841500D01*
X6022200Y7959100D01*
X6011000Y7947900D01*
X6005400Y7949500D01*
G03X6000000Y7950200I-5275J-19516D01*
G01X5840000D01*
G03X5819800Y7930000I0J-20200D01*
G01Y7814700D01*
G02X5785700Y7800600I-19984J45D01*
G01X5699500Y7886700D01*
X5519400D01*
X5516400Y7890800D01*
G03X5500000Y7899200I-16400J-11810D01*
G01X5340000D01*
G03X5319800Y7879000I0J-20200D01*
G01Y7863200D01*
G02X5285700Y7849000I-19999J-18D01*
G01X5184500Y7950200D01*
X4839200D01*
Y8006000D01*
G03X4819000Y8026200I-20200J0D01*
G01X4659000D01*
G03X4641500Y8016200I0J-20312D01*
G01X4638700Y8011200D01*
X4378500D01*
X4239800Y7872500D01*
Y7507800D01*
G37*
G36*
G01X3456100Y2604300D02*
X3991500Y3139800D01*
X4012300D01*
Y3128300D01*
X4011900Y3126900D01*
G03X4009800Y3112500I48105J-14368D01*
G01Y3087500D01*
G03X4011400Y3075000I50191J72D01*
G03X4009800Y3062500I48591J-12572D01*
G01Y3037500D01*
G03X4022500Y3004100I50270J0D01*
G02X4021700Y2976700I-14958J-13275D01*
G01X3615200Y2570200D01*
X3470200D01*
G02X3456100Y2604300I40J19982D01*
G37*
G36*
G01X3957600Y4820200D02*
X3652100Y5125700D01*
G02X3655900Y5157000I14117J14167D01*
G03X3667500Y5233400I-25894J43012D01*
G02Y5246600I7487J6600D01*
G03Y5313400I-37500J33400D01*
G02Y5326600I7487J6600D01*
G03Y5393400I-37500J33400D01*
G02Y5406600I7487J6600D01*
G03X3671600Y5412000I-37830J32980D01*
G02X3702400Y5414900I16591J-11200D01*
G01X4263000Y4854300D01*
G02X4248800Y4820200I-14182J-14101D01*
G01X3957600D01*
G37*
G36*
G01X4610200Y3835200D02*
Y4099600D01*
X4460300Y4249400D01*
X4460100Y4253200D01*
G03X4446500Y4284500I-50109J-3168D01*
G02X4445900Y4297500I7261J6849D01*
G03X4450200Y4310000I-16019J12500D01*
G01Y4390000D01*
G03X4430000Y4410200I-20200J0D01*
G01X4290000D01*
G03X4269800Y4390000I0J-20200D01*
G01Y4351100D01*
G02X4235700Y4336900I-19999J-18D01*
G01X3909900Y4662700D01*
G02X3916900Y4679800I7044J7099D01*
G01X3924800D01*
G03X3926900Y4679700I2485J30082D01*
G01X3993100D01*
G03X3995200Y4679800I-385J30182D01*
G01X4627600D01*
X4702400Y4605000D01*
X4691900Y4594600D01*
X4687200Y4595100D01*
G03X4685000Y4595200I-2016J-20108D01*
G01X4535000D01*
G03X4514800Y4575000I0J-20200D01*
G01Y4485000D01*
G03X4535000Y4464800I20200J0D01*
G01X4685000D01*
G03X4705200Y4485000I0J20200D01*
G01Y4575000D01*
G03X4705100Y4577200I-20208J184D01*
G01X4704600Y4581900D01*
X4715000Y4592400D01*
X4794800Y4512600D01*
Y4416300D01*
G02X4768600Y4397200I-20014J-66D01*
G03X4750000Y4400200I-18763J-57174D01*
G01X4698600D01*
X4696100Y4401900D01*
G03X4685000Y4405200I-11100J-17018D01*
G01X4535000D01*
G03X4514800Y4385000I0J-20200D01*
G01Y4295000D01*
G03X4535000Y4274800I20200J0D01*
G01X4577300D01*
Y4248900D01*
X4642300Y4183900D01*
Y3835200D01*
X4610200D01*
G37*
G36*
G01X4530200Y7470800D02*
G03X4527000Y7487700I-50204J-753D01*
G02X4545700Y7514800I18682J7111D01*
G01X4555000D01*
G03X4575200Y7535000I0J20200D01*
G01Y7554800D01*
X4819000D01*
G03X4839200Y7575000I0J20200D01*
G01Y7625000D01*
G03X4819000Y7645200I-20200J0D01*
G01X4784200D01*
Y7681800D01*
X4819000D01*
G03X4839200Y7702000I0J20200D01*
G01Y7752000D01*
G03X4819000Y7772200I-20200J0D01*
G01X4659000D01*
G03X4638800Y7752000I0J-20200D01*
G01Y7702000D01*
G03X4659000Y7681800I20200J0D01*
G01X4693800D01*
Y7645200D01*
X4405000D01*
G03X4402600Y7645100I-360J-20215D01*
G02X4380200Y7664900I-2417J19836D01*
G01Y7685100D01*
G02X4402600Y7704900I19983J-36D01*
G03X4405000Y7704800I2040J20115D01*
G01X4555000D01*
G03X4575200Y7725000I0J20200D01*
G01Y7823800D01*
X4638700D01*
X4641500Y7818800D01*
G03X4659000Y7808800I17500J10312D01*
G01X4819000D01*
G03X4839200Y7829000I0J20200D01*
G01Y7879000D01*
Y7889800D01*
X5159500D01*
X5319800Y7729500D01*
Y7702000D01*
G03X5340000Y7681800I20200J0D01*
G01X5500000D01*
G03X5520200Y7702000I0J20200D01*
G01Y7752000D01*
G03X5500000Y7772200I-20200J0D01*
G01X5362500D01*
X5343000Y7791700D01*
G02X5350000Y7808800I7044J7099D01*
G01X5500000D01*
G03X5516400Y7817200I0J20210D01*
G01X5519400Y7821300D01*
X5672500D01*
X5816500Y7677300D01*
X5816600D01*
G02X5833800Y7647100I7J-19994D01*
G03X5828200Y7555900I86205J-51065D01*
G01X5830900Y7549600D01*
X5721500Y7440200D01*
X5241200D01*
G02X5227000Y7474300I-18J19999D01*
G01X5319300Y7566600D01*
X5326300Y7560100D01*
G03X5340000Y7554800I13647J14920D01*
G01X5500000D01*
G03X5520200Y7575000I0J20200D01*
G01Y7625000D01*
G03X5500000Y7645200I-20200J0D01*
G01X5340000D01*
G03X5322500Y7635200I0J-20312D01*
G01X5319700Y7630200D01*
X5297500D01*
X5157500Y7490200D01*
X4597500D01*
X4564300Y7457000D01*
G02X4530200Y7470800I-14107J14173D01*
G37*
G36*
G01X4722500Y2720200D02*
X4655200Y2787500D01*
Y2814800D01*
X4744800D01*
Y2762500D01*
X4753000Y2754300D01*
G02X4738800Y2720200I-14182J-14101D01*
G01X4722500D01*
G37*
G36*
G01X4455200Y2975200D02*
Y3022500D01*
X4492500Y3059800D01*
X4683800D01*
G02X4701900Y3031300I21J-19984D01*
G03X4697200Y3010200I45513J-21211D01*
G01Y3006000D01*
X4692300Y3001100D01*
Y2975200D01*
X4455200D01*
G37*
G36*
G01X4892300Y3060400D02*
X4820200Y3132500D01*
Y3577500D01*
X4900200Y3657500D01*
Y4472100D01*
G02X4934300Y4486300I19999J18D01*
G01X4949800Y4470800D01*
Y3632700D01*
X4920000D01*
G03X4899800Y3612500I0J-20200D01*
G01Y3587500D01*
G03X4904100Y3575000I20319J0D01*
G03X4899800Y3562500I16019J-12500D01*
G01Y3537500D01*
G03X4904100Y3525000I20319J0D01*
G03X4899800Y3512500I16019J-12500D01*
G01Y3487500D01*
G03X4904100Y3475000I20319J0D01*
G03X4899800Y3462500I16019J-12500D01*
G01Y3437500D01*
G03X4904100Y3425000I20319J0D01*
G03X4899800Y3412500I16019J-12500D01*
G01Y3387500D01*
G03X4904100Y3375000I20319J0D01*
G03X4899800Y3362500I16019J-12500D01*
G01Y3337500D01*
G03X4904100Y3325000I20319J0D01*
G03X4899800Y3312500I16019J-12500D01*
G01Y3287500D01*
G03X4904100Y3275000I20319J0D01*
G03X4899800Y3262500I16019J-12500D01*
G01Y3237500D01*
G03X4904100Y3225000I20319J0D01*
G03X4899800Y3212500I16019J-12500D01*
G01Y3187500D01*
G03X4904100Y3175000I20319J0D01*
G03X4899800Y3162500I16019J-12500D01*
G01Y3137500D01*
G03X4904100Y3125000I20319J0D01*
G03X4899800Y3112500I16019J-12500D01*
G01Y3087500D01*
G03X4904100Y3075000I20319J0D01*
G03X4901500Y3070600I15957J-12397D01*
G01X4900700Y3068800D01*
X4892300Y3060400D01*
G37*
G36*
G01X4780200Y6990200D02*
Y7027300D01*
X4934800D01*
Y6990200D01*
X4780200D01*
G37*
G36*
G01X5060200Y3280200D02*
Y3312500D01*
G03X5055900Y3325000I-20319J0D01*
G03X5060200Y3337500I-16019J12500D01*
G01Y3367300D01*
X5103500D01*
X5160700Y3424400D01*
G02X5194800Y3410300I14116J-14145D01*
G01Y3347500D01*
X5127500Y3280200D01*
X5060200D01*
G37*
G36*
G01Y3432700D02*
Y3462500D01*
G03X5055900Y3475000I-20319J0D01*
G03X5060200Y3487500I-16019J12500D01*
G01Y3519800D01*
X5082500D01*
X5150200Y3587500D01*
Y3809800D01*
G02X5160200Y3819800I9998J2D01*
G03X5109900Y3867300I-181J50191D01*
G01X5110100Y3862800D01*
X5089800Y3842500D01*
Y3612500D01*
X5077300Y3600000D01*
G02X5060200Y3607000I-7099J7044D01*
G01Y3612500D01*
G03X5040000Y3632700I-20200J0D01*
G01X5010200D01*
Y4418700D01*
G02X5044300Y4432900I19999J18D01*
G01X5329800Y4147400D01*
Y3769500D01*
G02X5295600Y3755400I-19995J-27D01*
G03X5212000Y3705400I-35577J-35405D01*
G02X5206600Y3693400I-9566J-2910D01*
G03X5194800Y3675000I8446J-18400D01*
G01Y3551000D01*
X5076500Y3432700D01*
X5060200D01*
G37*
G36*
G01X5515200Y3457000D02*
Y3475000D01*
G03X5510800Y3487600I-20241J0D01*
G02Y3512400I15677J12400D01*
G03X5515200Y3525000I-15841J12600D01*
G01Y3675000D01*
G03X5495000Y3695200I-20200J0D01*
G01X5405000D01*
G03X5401800Y3694900I277J-20174D01*
G01X5401000Y3694800D01*
X5390200D01*
Y4118800D01*
G02X5424300Y4133000I19999J18D01*
G01X5569800Y3987500D01*
Y3487500D01*
X5532300Y3450000D01*
G02X5515200Y3457000I-7099J7044D01*
G37*
%LPC*%
G75*
G36*
G01X3364800Y7495000D02*
Y7645000D01*
G02X3385000Y7665200I20200J0D01*
G01X3475000D01*
G02X3495200Y7645000I0J-20200D01*
G01Y7495000D01*
G02X3475000Y7474800I-20200J0D01*
G01X3385000D01*
G02X3364800Y7495000I0J20200D01*
G37*
G36*
G01X3034800Y7655000D02*
Y7745000D01*
G02X3055000Y7765200I20200J0D01*
G01X3205000D01*
G02X3225200Y7745000I0J-20200D01*
G01Y7655000D01*
G02X3205000Y7634800I-20200J0D01*
G01X3055000D01*
G02X3034800Y7655000I0J20200D01*
G37*
G36*
G01X5319800Y7956000D02*
Y8006000D01*
G02X5340000Y8026200I20200J0D01*
G01X5500000D01*
G02X5520200Y8006000I0J-20200D01*
G01Y7956000D01*
G02X5500000Y7935800I-20200J0D01*
G01X5340000D01*
G02X5319800Y7956000I0J20200D01*
G37*
G36*
G01X4450200Y4490000D02*
G02X4430000Y4469800I-20200J0D01*
G01X4290000D01*
G02X4270100Y4486500I0J20207D01*
G01X4268700Y4494800D01*
X4256000D01*
X4253200Y4492300D01*
G02Y4567700I-33200J37700D01*
G01X4256000Y4565200D01*
X4268700D01*
X4270100Y4573500D01*
G02X4290000Y4590200I19900J-3507D01*
G01X4430000D01*
G02X4450200Y4570000I0J-20200D01*
G01Y4490000D01*
G37*
G54D43*
X1040000Y5080500D03*
G54D42*
X735000Y4877500D03*
%LPD*%
G75*
G54D10*
X350000Y350000D03*
Y8850000D03*
X8350000Y350000D03*
Y8850000D03*
G54D20*
X1050000Y1581500D03*
Y3130500D03*
X1040000Y3531500D03*
Y5080500D03*
X3024000Y8000000D03*
X3278000D03*
X3532000D03*
X3786000D03*
X4040000D03*
X5964000Y1400000D03*
X5962000Y1820000D03*
X5920000Y7342000D03*
Y7596000D03*
X6218000Y1400000D03*
X6216000Y1820000D03*
X6174000Y7342000D03*
Y7596000D03*
Y7850000D03*
G54D11*
G01X400000Y6919000D02*
Y6410000D01*
X620000Y6190000D01*
Y6180000D01*
G01X400000Y7300000D02*
X990000D01*
G01X1960000Y6180000D02*
Y6030000D01*
X1870000Y5940000D01*
X850000D01*
X620000Y6170000D01*
Y6180000D01*
G01X990000Y6930000D02*
Y6180000D01*
G01D02*
X1550000D01*
G01X1360000Y7530000D02*
Y7920000D01*
X1300000Y7980000D01*
Y8000000D01*
G01X1550000Y6450000D02*
Y6800000D01*
G01Y6450000D02*
X1960000D01*
G01X1550000Y7120000D02*
Y7530000D01*
G01D02*
Y7861000D01*
X1554000Y7865000D01*
Y8000000D01*
G01X1960000Y6450000D02*
Y7190000D01*
X2770000Y8000000D01*
X255000Y1693500D03*
Y1947500D03*
Y2764500D03*
Y3018500D03*
X245000Y3643500D03*
Y3897500D03*
Y4714500D03*
Y4968500D03*
X1380000Y2038000D03*
Y2292000D03*
Y2546000D03*
Y2800000D03*
X1370000Y3988000D03*
Y4242000D03*
Y4496000D03*
Y4750000D03*
X1634000Y1912000D03*
Y2166000D03*
Y2420000D03*
Y2674000D03*
X1624000Y3862000D03*
Y4116000D03*
Y4370000D03*
Y4624000D03*
X2970000Y7510000D03*
X5880000Y5590000D03*
G54D12*
G01X5964000Y1400000D02*
Y1688000D01*
X5962000Y1690000D01*
Y1820000D01*
G01X8250000Y2010000D02*
X8249000Y2011000D01*
X8000000D01*
G01X8250000Y2770000D02*
X8247000Y2773000D01*
X8000000D01*
G01X8250000Y3530000D02*
X8245000Y3535000D01*
X8000000D01*
X250000Y2380000D03*
X210000Y3340000D03*
X230000Y4370000D03*
X190000Y5300000D03*
X310000Y5880000D03*
X390000Y8290000D03*
X660000Y2380000D03*
X610000Y4490000D03*
X570000Y5690000D03*
X590000Y7690000D03*
X790000Y870000D03*
X740000Y3340000D03*
X880000Y4030000D03*
X710000Y6580000D03*
X1080000Y2730000D03*
X1160000Y4480000D03*
X1190000Y5360000D03*
X1040000Y8860000D03*
X1380000Y380000D03*
X1330000Y1790000D03*
X1490000Y3340000D03*
X1250000Y6580000D03*
X1300000Y7290000D03*
X1770000Y7310000D03*
X1780000Y7750000D03*
X2100000Y860000D03*
X2170000Y5890000D03*
X2210000Y6940000D03*
X2270000Y7780000D03*
X2100000Y8920000D03*
X2360000Y3410000D03*
X2470000Y5180000D03*
X2430000Y8330000D03*
X2810000Y4300000D03*
X2770000Y5810000D03*
Y6060000D03*
X2780000Y6270000D03*
Y6640000D03*
X2650000Y7490000D03*
X2880000Y390000D03*
X2900000Y1870000D03*
X2910000Y5590000D03*
X3020000Y5860000D03*
X2930000Y6390000D03*
Y6700000D03*
X2950000Y7020000D03*
X3220000Y2820000D03*
X3190000Y3810000D03*
X3120000Y4720000D03*
X3130000Y5200000D03*
X3310000Y6410000D03*
X3320000Y7760000D03*
X3560000Y3060000D03*
X3550000Y3560000D03*
X3410000Y5540000D03*
X3550000Y5950000D03*
X3510000Y6980000D03*
X3800000Y870000D03*
X3720000Y2780000D03*
X3710000Y4290000D03*
X3880000Y5060000D03*
X3630000Y5200000D03*
Y5280000D03*
Y5360000D03*
Y5440000D03*
X3875000Y5555000D03*
X3880000Y7440000D03*
X3690000Y8840000D03*
X4060000Y1810000D03*
X4150000Y2680000D03*
X4140000Y3960000D03*
X3990000Y6490000D03*
X4330000Y3090000D03*
X4310000Y3590000D03*
X4410000Y4250000D03*
X4220000Y4530000D03*
X4280000Y8040000D03*
X4690000Y340000D03*
X4500000Y2650000D03*
X4650000Y3030000D03*
X4690000Y3350000D03*
X4670000Y5510000D03*
X4430000Y5940000D03*
X4460000Y6980000D03*
X4480000Y7470000D03*
X4867500Y2795000D03*
X4747400Y3010000D03*
X4860000Y3220000D03*
Y3510000D03*
X4760000Y3910000D03*
X4750000Y4340000D03*
X4940000Y5050000D03*
X4790000Y7260000D03*
X4860000Y8840000D03*
X5120000Y3330000D03*
X5160000Y3870000D03*
X5070000Y3940000D03*
X4970000Y6570000D03*
X5000000Y7300000D03*
X5050000Y7720000D03*
X5070000Y8030000D03*
X5230000Y1810000D03*
X5260000Y3720000D03*
X5440000Y4040000D03*
X5290000Y5200000D03*
Y5280000D03*
Y5360000D03*
Y5440000D03*
X5360000Y5910000D03*
Y6130000D03*
Y6350000D03*
Y6570000D03*
X5760000Y880000D03*
X5660000Y4730000D03*
Y5750000D03*
Y6120000D03*
Y6350000D03*
X5650000Y6600000D03*
X5600000Y7270000D03*
X5650000Y7630000D03*
X5670000Y8020000D03*
X5890000Y2170000D03*
X5930000Y7060000D03*
X5970000Y8840000D03*
X6270000Y2760000D03*
X6100000Y4320000D03*
X6170000Y4830000D03*
X6120000Y5280000D03*
Y6740000D03*
X6550000Y7370000D03*
X6390000Y8010000D03*
X6660000Y360000D03*
X6740000Y3000000D03*
X6660000Y5980000D03*
Y6231000D03*
Y6490000D03*
X6659000Y6739000D03*
X6810000Y7020000D03*
X6910000Y2120000D03*
X6970000Y3480000D03*
X6920000Y4220000D03*
X6930000Y4970000D03*
X7120000Y6670000D03*
Y8860000D03*
X7390000Y860000D03*
X7520000Y4490000D03*
X7620000Y5220000D03*
X7460000Y6100000D03*
X7470000Y7590000D03*
X7720000Y2180000D03*
X7710000Y2920000D03*
Y3690000D03*
X7650000Y6790000D03*
X7820000Y7900000D03*
X8250000Y4400000D03*
G54D21*
X1550000Y6180000D03*
Y6450000D03*
X1960000Y6180000D03*
Y6450000D03*
X7040000Y8180000D03*
Y8450000D03*
G54D30*
X4375000Y2895000D03*
X4325000D03*
X4275000D03*
Y3755000D03*
X4325000D03*
X4375000D03*
X4675000Y2895000D03*
X4625000D03*
X4575000D03*
X4525000D03*
X4475000D03*
X4425000D03*
Y3755000D03*
X4475000D03*
X4525000D03*
X4575000D03*
X4625000D03*
X4675000D03*
X4825000Y2895000D03*
X4775000D03*
X4725000D03*
Y3755000D03*
X4775000D03*
X4825000D03*
G54D40*
G01X2060000Y7530000D02*
Y7873000D01*
X2062000Y7875000D01*
Y8000000D01*
G01X2770000D02*
Y8240000D01*
X2980000Y8450000D01*
X7040000D01*
G01Y8180000D02*
X6200000D01*
X6100000Y8280000D01*
X3120000D01*
X3024000Y8184000D01*
Y8000000D01*
G01X4750000Y4340000D02*
X4610000D01*
G01X6218000Y1400000D02*
X7420000D01*
X7640000Y1180000D01*
X8230000D01*
X8450000Y1400000D01*
Y4600000D01*
G01X8250000Y2010000D02*
Y1470000D01*
X8140000Y1360000D01*
X7710000D01*
X7460000Y1610000D01*
X6290000D01*
X6216000Y1684000D01*
Y1820000D01*
G01X7040000Y8180000D02*
X7930000D01*
X8265000Y7845000D01*
Y7190000D01*
G01X7040000Y8450000D02*
X7910000D01*
X8450000Y7910000D01*
Y4600000D01*
G01X8250000Y3530000D02*
Y4047000D01*
X8000000Y4297000D01*
G01Y4900000D02*
X8265000Y5165000D01*
Y5660000D01*
G01X8000000Y5662000D02*
X8263000D01*
X8265000Y5660000D01*
G01X8000000Y6424000D02*
X8259000D01*
X8265000Y6430000D01*
G01X8000000Y7186000D02*
X8261000D01*
X8265000Y7190000D01*
G01X8250000Y2010000D02*
Y2770000D01*
G01D02*
Y3530000D01*
G01X8265000Y5660000D02*
Y6430000D01*
G01D02*
Y7190000D01*
G54D22*
X1550000Y6800000D03*
Y7120000D03*
G54D13*
X380000Y5540000D03*
X570000D03*
X1360000Y7530000D03*
X1550000D03*
X1870000D03*
X2060000D03*
X2470000Y5810000D03*
Y6040000D03*
Y6270000D03*
X2460000Y6640000D03*
Y6840000D03*
X2660000Y5810000D03*
Y6040000D03*
Y6270000D03*
X2650000Y6640000D03*
Y6840000D03*
X3210000Y3060000D03*
Y3310000D03*
Y3560000D03*
X3380000Y4720000D03*
Y4520000D03*
X3400000Y3060000D03*
Y3310000D03*
Y3560000D03*
X3570000Y4720000D03*
Y4520000D03*
X3620000Y7570000D03*
X3430000D03*
X3850000Y3960000D03*
X4040000D03*
X4820000Y5460000D03*
X4920000Y5690000D03*
Y5910000D03*
X5010000Y5460000D03*
X5110000Y5690000D03*
Y5910000D03*
X5000000Y6960000D03*
X5190000D03*
Y7170000D03*
X5000000D03*
X5260000Y2980000D03*
X5450000D03*
Y3400000D03*
X5260000D03*
X5450000Y3200000D03*
X5260000D03*
X5450000Y3600000D03*
X5260000D03*
X5280000Y5910000D03*
X5470000D03*
X5280000Y6130000D03*
X5470000D03*
X5280000Y6570000D03*
X5470000D03*
X5280000Y6350000D03*
X5470000D03*
X5610000Y2980000D03*
X5800000D03*
X6030000Y3640000D03*
X6220000D03*
X6500000D03*
X6450000Y4340000D03*
Y5020000D03*
X6690000Y3640000D03*
X6640000Y4340000D03*
Y5020000D03*
G54D31*
X4360000Y4350000D03*
Y4530000D03*
G54D14*
X400000Y6919000D03*
G54D23*
X1554000Y8000000D03*
X1808000D03*
X2062000D03*
G54D32*
X4739000Y7600000D03*
Y7727000D03*
Y7854000D03*
Y7981000D03*
X5420000Y7600000D03*
Y7854000D03*
Y7727000D03*
Y7981000D03*
G54D15*
X400000Y7300000D03*
G54D24*
X1300000Y8000000D03*
G54D33*
X5870000Y5977000D03*
Y5850000D03*
Y6231000D03*
Y6104000D03*
Y6485000D03*
Y6358000D03*
Y6739000D03*
Y6612000D03*
X6520000Y5977000D03*
Y5850000D03*
Y6231000D03*
Y6104000D03*
Y6485000D03*
Y6358000D03*
Y6739000D03*
Y6612000D03*
G54D25*
X2770000Y8000000D03*
X5710000Y1400000D03*
X5920000Y7850000D03*
X6470000Y1820000D03*
G54D34*
X8000000Y1630000D03*
Y4900000D03*
G54D16*
X745000Y1784500D03*
Y2927500D03*
X735000Y3734500D03*
Y4877500D03*
G54D17*
X620000Y6180000D03*
X990000D03*
G54D35*
X8000000Y2011000D03*
Y2392000D03*
Y2773000D03*
Y3154000D03*
Y3535000D03*
Y3916000D03*
Y4297000D03*
Y5281000D03*
Y5662000D03*
Y6043000D03*
Y6424000D03*
Y6805000D03*
Y7186000D03*
Y7567000D03*
G54D26*
X3325000Y5685000D03*
Y7235000D03*
X3575000Y5685000D03*
X3525000D03*
X3475000D03*
X3425000D03*
X3375000D03*
Y7235000D03*
X3425000D03*
X3475000D03*
X3525000D03*
X3575000D03*
X3875000Y5685000D03*
X3825000D03*
X3775000D03*
X3725000D03*
X3675000D03*
X3625000D03*
Y7235000D03*
X3675000D03*
X3725000D03*
X3775000D03*
X3825000D03*
X3875000D03*
X4125000Y5685000D03*
X4075000D03*
X4025000D03*
X3975000D03*
X3925000D03*
Y7235000D03*
X3975000D03*
X4025000D03*
X4075000D03*
X4125000D03*
X4375000Y5685000D03*
X4325000D03*
X4275000D03*
X4225000D03*
X4175000D03*
Y7235000D03*
X4225000D03*
X4275000D03*
X4325000D03*
X4375000D03*
X4525000Y5685000D03*
X4475000D03*
X4425000D03*
Y7235000D03*
X4475000D03*
X4525000D03*
G54D36*
G01X255000Y1947500D02*
X450000Y2142500D01*
Y3963400D01*
X1326600Y4840000D01*
X3290000D01*
X3380000Y4750000D01*
Y4720000D01*
G01Y4520000D02*
Y4550000D01*
X3470000Y4640000D01*
Y4810100D01*
X3400100Y4880000D01*
X1300000D01*
X370000Y3950000D01*
Y2879500D01*
X255000Y2764500D01*
G01X245000Y3897500D02*
X430000Y4082500D01*
Y5110000D01*
X770000Y5450000D01*
X800000D01*
G01X245000Y4714500D02*
X380000Y4849500D01*
Y5540000D01*
G01X570000Y5690000D02*
Y5540000D01*
G01D02*
X2450100D01*
X3070100Y4920000D01*
X3550000D01*
X4475000Y3995000D01*
Y3755000D01*
G01X800000Y5640000D02*
X2410000D01*
X3090000Y4960000D01*
X3569900D01*
X4525000Y4004900D01*
Y3755000D01*
G01X1380000Y2546000D02*
X1416000Y2510000D01*
X3640100D01*
X4120000Y2989900D01*
Y3050000D01*
G01X1380000Y2800000D02*
X1586000Y2594000D01*
X3360600D01*
X3966600Y3200000D01*
X4120000D01*
G01Y3450000D02*
X4010000D01*
X4000000Y3460000D01*
X3830000D01*
X3260000Y4030000D01*
X1580000D01*
X1520000Y4090000D01*
Y4346000D01*
X1370000Y4496000D01*
G01Y4750000D02*
X1580000Y4540000D01*
X3023500D01*
X4013500Y3550000D01*
X4120000D01*
G01X1634000Y2166000D02*
X1938000Y2470000D01*
X3656700D01*
X4210000Y3023300D01*
Y3080000D01*
X4190000Y3100000D01*
X4120000D01*
G01X1634000Y2674000D02*
X1668000Y2640000D01*
X3350000D01*
X3950000Y3240000D01*
X4020000D01*
X4030000Y3250000D01*
X4120000D01*
G01Y3500000D02*
X3850000D01*
X3280000Y4070000D01*
X1670000D01*
X1624000Y4116000D01*
G01Y4624000D02*
Y4621300D01*
X1665300Y4580000D01*
X3040100D01*
X4020100Y3600000D01*
X4120000D01*
G01X2470000Y5704800D02*
Y5810000D01*
G01Y5934800D02*
Y6040000D01*
G01Y5810000D02*
Y5915200D01*
G01X2394800Y5810000D02*
X2470000D01*
G01D02*
X2545200D01*
G01X2470000Y6164800D02*
Y6270000D01*
G01D02*
Y6375200D01*
G01X2394800Y6270000D02*
X2470000D01*
G01D02*
X2545200D01*
G01X2470000Y6040000D02*
Y6145200D01*
G01X2394800Y6040000D02*
X2470000D01*
G01D02*
X2545200D01*
G01X2460000Y6534800D02*
Y6640000D01*
G01X2384800D02*
X2460000D01*
G01D02*
X2535200D01*
G01X2460000Y6840000D02*
Y6945200D01*
G01X2384800Y6840000D02*
X2460000D01*
G01D02*
X2535200D01*
G01X3150000Y5860000D02*
X3020000D01*
G01X6174000Y7850000D02*
X5854000Y8170000D01*
X3260000D01*
X3150000Y8060000D01*
Y7940000D01*
X2870000Y7660000D01*
Y7370000D01*
X3030000Y7210000D01*
X3190000D01*
X3310000Y7090000D01*
Y6410000D01*
G01X3210000Y2954800D02*
Y3060000D01*
G01D02*
Y3165200D01*
G01X3134800Y3060000D02*
X3210000D01*
G01D02*
X3285200D01*
G01X3210000Y3204800D02*
Y3310000D01*
G01D02*
Y3415200D01*
G01X3134800Y3310000D02*
X3210000D01*
G01D02*
X3285200D01*
G01X3210000Y3454800D02*
Y3560000D01*
G01D02*
Y3665200D01*
G01X3134800Y3560000D02*
X3210000D01*
G01D02*
X3285200D01*
G01X3150000Y6310000D02*
X3289900D01*
X3340000Y6259900D01*
Y5860000D01*
X3240000Y5760000D01*
Y5495100D01*
X3945100Y4790000D01*
X4673300D01*
X4980000Y4483300D01*
Y3600000D01*
G01X5450000Y2980000D02*
Y2875000D01*
X5385000Y2810000D01*
X5100000D01*
X4790000Y3120000D01*
Y3590000D01*
X4870000Y3670000D01*
Y4536700D01*
X4656700Y4750000D01*
X3976600D01*
X3976500Y4749900D01*
X3943500D01*
X3943400Y4750000D01*
X3920000D01*
X3190000Y5480000D01*
Y5782500D01*
X3250000Y5842500D01*
Y5889900D01*
X3229900Y5910000D01*
X3150000D01*
G01X4825000Y3755000D02*
Y4525100D01*
X4640100Y4710000D01*
X3993200D01*
X3993100Y4709900D01*
X3926900D01*
X3926800Y4710000D01*
X3900000D01*
X3150000Y5460000D01*
Y5483400D01*
X3149900Y5483500D01*
Y5516500D01*
X3150000Y5516600D01*
Y5860000D01*
G01X3325000Y5685000D02*
Y5495000D01*
X3620000Y5200000D01*
X3630000D01*
G01X3150000Y6410000D02*
X3310000D01*
G01X3278000Y8000000D02*
X3355800Y7922200D01*
X3357800D01*
X3480000Y7800000D01*
X3653400D01*
X4125000Y7328400D01*
Y7235000D01*
G01X3570000Y4520000D02*
X3820000D01*
X4375000Y3965000D01*
Y3755000D01*
G01X3570000Y4720000D02*
X3685000D01*
X4425000Y3980000D01*
Y3755000D01*
G01X3475000Y5685000D02*
Y5425000D01*
X3620000Y5280000D01*
X3630000D01*
G01X3525000Y5685000D02*
Y5455000D01*
X3620000Y5360000D01*
X3630000D01*
G01X3575000Y5685000D02*
Y5495000D01*
X3630000Y5440000D01*
G01X3375000Y7144800D02*
Y7235000D01*
G01D02*
Y7325200D01*
G01X3532000Y8000000D02*
X4175000Y7357000D01*
Y7235000D01*
G01X3824800Y2440000D02*
X3930000D01*
G01X4980000Y3050000D02*
Y3007500D01*
X5137500Y2850000D01*
X5320100D01*
X5360000Y2889900D01*
Y4159900D01*
X4689800Y4830100D01*
X4329900D01*
X3625000Y5535000D01*
Y5685000D01*
G01X5450000Y3400000D02*
X5525000D01*
X5600000Y3475000D01*
Y4000000D01*
X4730000Y4870000D01*
X4706500D01*
X4706400Y4870100D01*
X4369900D01*
X3675000Y5565000D01*
Y5685000D01*
G01X5450000Y3200000D02*
X5525000D01*
X5650000Y3325000D01*
Y4030000D01*
X4750000Y4930000D01*
X4390000D01*
X3725000Y5595000D01*
Y5685000D01*
G01X3875000D02*
Y5555000D01*
G01X3620000Y7570000D02*
X3625000Y7565000D01*
Y7235000D01*
G01X3875000D02*
Y7435000D01*
X3880000Y7440000D01*
G01X3786000Y8000000D02*
Y7814000D01*
X4225000Y7375000D01*
Y7235000D01*
G01X3930000Y2250000D02*
X4215000D01*
G01X3930000Y2364800D02*
Y2440000D01*
G01D02*
Y2515200D01*
G01Y2440000D02*
X4035200D01*
G01X4040000Y3960000D02*
X4140000D01*
G01X4325000Y3755000D02*
Y3845000D01*
X4210000Y3960000D01*
X4140000D01*
G01X4040000Y8000000D02*
Y7616600D01*
X4275000Y7381600D01*
Y7235000D01*
G01X4334800Y2250000D02*
X4435000D01*
G01X4325000Y2895000D02*
Y2345000D01*
X4230000Y2250000D01*
X4215000D01*
G01X4375000Y2895000D02*
Y2475000D01*
X4430000Y2420000D01*
X4435000D01*
G01X4400000Y5140000D02*
X4430000D01*
X4560000Y5010000D01*
X4750000D01*
X5700000Y4060000D01*
Y2890000D01*
X5580000Y2770000D01*
X5080000D01*
X4760000Y3090000D01*
X4480000D01*
X4425000Y3035000D01*
Y2895000D01*
G01X4400000Y5330000D02*
X4425000Y5355000D01*
Y5685000D01*
G01X4325000Y7235000D02*
Y7395000D01*
X4270000Y7450000D01*
Y7860000D01*
X4391000Y7981000D01*
X4739000D01*
G01X4375000Y7235000D02*
Y7405000D01*
X4310000Y7470000D01*
Y7840000D01*
X4390000Y7920000D01*
X5172000D01*
X5365000Y7727000D01*
X5420000D01*
G01X4425000Y7235000D02*
Y7415000D01*
X4350000Y7490000D01*
Y7820000D01*
X4384000Y7854000D01*
X4739000D01*
G01X4624800Y2230000D02*
X4730000D01*
G01X4435000Y2159800D02*
Y2250000D01*
G01D02*
X4535200D01*
G01X4435000Y2420000D02*
X4730000D01*
G01X5110000Y5690000D02*
Y4730000D01*
X5750000Y4090000D01*
Y3192500D01*
X5890000Y3052500D01*
Y2880000D01*
X5700000Y2690000D01*
X4710000D01*
X4625000Y2775000D01*
Y2895000D01*
G01X5110000Y5910000D02*
Y5880000D01*
X5190000Y5800000D01*
Y4726800D01*
X5800000Y4116800D01*
Y3210000D01*
X5940000Y3070000D01*
Y2850000D01*
X5740000Y2650000D01*
X4690000D01*
X4575000Y2765000D01*
Y2895000D01*
G01X4610000Y4454800D02*
Y4530000D01*
G01D02*
Y4605200D01*
G01X4504800Y4530000D02*
X4610000D01*
G01D02*
X4715200D01*
G01X4600000Y5064800D02*
Y5140000D01*
G01D02*
Y5215200D01*
G01Y5140000D02*
X4705200D01*
G01X4600000Y5330000D02*
Y5470000D01*
X4475000Y5595000D01*
Y5685000D01*
G01X5920000Y7596000D02*
X5734000Y7410000D01*
X4655000D01*
X4525000Y7280000D01*
Y7235000D01*
G01X4475000D02*
Y7325000D01*
X4610000Y7460000D01*
X5170000D01*
X5310000Y7600000D01*
X5420000D01*
G01X4730000Y2154800D02*
Y2230000D01*
G01D02*
Y2305200D01*
G01Y2230000D02*
X4835200D01*
G01X4825000Y2895000D02*
Y2837500D01*
X4867500Y2795000D01*
G01X5800000Y2980000D02*
Y2870000D01*
X5660000Y2730000D01*
X4820000D01*
X4775000Y2775000D01*
Y2895000D01*
G01X4725000Y3755000D02*
Y3875000D01*
X4760000Y3910000D01*
G01X4934800Y5460000D02*
X5010000D01*
G01X4920000Y5690000D02*
Y5720000D01*
X4780000Y5860000D01*
X4700000D01*
G01X4920000Y5910000D02*
X4700000D01*
G01X5280000Y5940000D02*
X5160000Y6060000D01*
X4700000D01*
G01X5280000Y6130000D02*
X5260000Y6110000D01*
X4700000D01*
G01X5280000Y6350000D02*
Y6320000D01*
X5120000Y6160000D01*
X4700000D01*
G01X5280000Y6570000D02*
Y6540000D01*
X4950000Y6210000D01*
X4700000D01*
G01Y6960000D02*
X5000000D01*
G01X5920000Y7342000D02*
X5418000Y6840000D01*
X4929900D01*
X4859900Y6910000D01*
X4700000D01*
G01X5260000Y2980000D02*
Y3010000D01*
X5170000Y3100000D01*
X4980000D01*
G01X5260000Y3400000D02*
Y3370000D01*
X5140000Y3250000D01*
X4980000D01*
G01Y3200000D02*
X5260000D01*
G01X5070200Y3350000D02*
X5067500D01*
G01X4980000Y3550000D02*
X5070000D01*
X5120000Y3600000D01*
Y3830000D01*
X5160000Y3870000D01*
G01X5010000Y5354800D02*
Y5460000D01*
G01D02*
Y5565200D01*
G01X5190000Y7170000D02*
Y7275200D01*
G01X5114800Y7170000D02*
X5190000D01*
G01D02*
X5265200D01*
G01X5610000Y2980000D02*
X5450000D01*
G01X6030000Y3640000D02*
Y3960000D01*
X5290000Y4700000D01*
Y5200000D01*
G01X6500000Y3640000D02*
X6425000D01*
X5540000Y4525000D01*
Y5090000D01*
X5350000Y5280000D01*
X5290000D01*
G01X6450000Y4340000D02*
X6370000D01*
X5350000Y5360000D01*
X5290000D01*
G01X6450000Y5020000D02*
X5770000D01*
X5350000Y5440000D01*
X5290000D01*
G01X5280000Y5910000D02*
Y5940000D01*
G01X5870000Y5977000D02*
X5693000D01*
X5650000Y6020000D01*
X5360000D01*
X5280000Y5940000D01*
G01Y5910000D02*
X5360000D01*
G01Y6130000D02*
X5280000D01*
G01X5870000Y6231000D02*
X5809000D01*
X5800000Y6240000D01*
X5360000D01*
X5280000Y6160000D01*
Y6130000D01*
G01Y6350000D02*
X5360000D01*
G01X5870000Y6485000D02*
X5675000D01*
X5650000Y6460000D01*
X5360000D01*
X5280000Y6380000D01*
Y6350000D01*
G01X5360000Y6570000D02*
X5280000D01*
G01X5870000Y6739000D02*
X5750000D01*
X5749000Y6740000D01*
X5420000D01*
X5280000Y6600000D01*
Y6570000D01*
G01X5420000Y7925800D02*
Y7981000D01*
G01D02*
Y8036200D01*
G01X5309800Y7981000D02*
X5420000D01*
G01D02*
X5530200D01*
G01X6220000Y3210000D02*
X6250000D01*
X6670000Y2790000D01*
X6840000D01*
X8000000Y1630000D01*
G01X6020000Y3400000D02*
X6220000D01*
G01D02*
Y3640000D01*
G01X6520000Y7630000D02*
X6486000Y7596000D01*
X6174000D01*
G01X6520000Y7820000D02*
X6490000Y7850000D01*
X6174000D01*
G01X6490000Y3400000D02*
X6690000D01*
G01X6440000Y4100000D02*
X6640000D01*
G01X6440000Y4780000D02*
X6640000D01*
G01X8000000Y2392000D02*
X7640000D01*
X6822000Y3210000D01*
X6690000D01*
G01Y3400000D02*
Y3640000D01*
G01X6640000Y4100000D02*
Y4340000D01*
G01X8000000Y3154000D02*
X7640000D01*
X6884000Y3910000D01*
X6640000D01*
G01X8000000Y3916000D02*
X7640000D01*
X6966000Y4590000D01*
X6640000D01*
G01Y4780000D02*
Y5020000D01*
G54D18*
X800000Y5450000D03*
Y5640000D03*
X3130000Y7510000D03*
Y7700000D03*
X3930000Y2250000D03*
Y2440000D03*
X4400000Y5140000D03*
Y5330000D03*
X4480000Y7580000D03*
Y7770000D03*
X4730000Y2230000D03*
Y2420000D03*
X4610000Y4340000D03*
Y4530000D03*
X4600000Y5140000D03*
Y5330000D03*
X6020000Y3210000D03*
Y3400000D03*
X6220000Y3210000D03*
Y3400000D03*
X6490000Y3210000D03*
Y3400000D03*
X6440000Y3910000D03*
Y4100000D03*
Y4590000D03*
Y4780000D03*
X6520000Y7630000D03*
Y7820000D03*
X6690000Y3210000D03*
Y3400000D03*
X6640000Y3910000D03*
Y4100000D03*
Y4590000D03*
Y4780000D03*
G54D27*
X3150000Y5860000D03*
Y5910000D03*
Y5960000D03*
Y6010000D03*
Y6060000D03*
Y6110000D03*
Y6160000D03*
Y6210000D03*
Y6260000D03*
Y6310000D03*
Y6360000D03*
Y6410000D03*
Y6460000D03*
Y6510000D03*
Y6560000D03*
Y6610000D03*
Y6660000D03*
Y6710000D03*
Y6760000D03*
Y6810000D03*
Y6860000D03*
Y6910000D03*
Y6960000D03*
Y7010000D03*
Y7060000D03*
X4700000Y6010000D03*
Y5960000D03*
Y5910000D03*
Y5860000D03*
Y6260000D03*
Y6210000D03*
Y6160000D03*
Y6110000D03*
Y6060000D03*
Y6510000D03*
Y6460000D03*
Y6410000D03*
Y6360000D03*
Y6310000D03*
Y6810000D03*
Y6760000D03*
Y6710000D03*
Y6660000D03*
Y6610000D03*
Y6560000D03*
Y7060000D03*
Y7010000D03*
Y6960000D03*
Y6910000D03*
Y6860000D03*
G54D37*
G01X1634000Y1912000D02*
X1553800D01*
G01X1634000D02*
Y1992200D01*
G01X1714200Y1912000D02*
X1634000D01*
G01D02*
Y1831800D01*
G01X1624000Y3862000D02*
Y3781800D01*
G01Y3862000D02*
X1543800D01*
G01X1624000Y3942200D02*
Y3862000D01*
G01D02*
X1704200D01*
G01X1870000Y7530000D02*
X1794800D01*
G01X1870000D02*
X1945200D01*
G01X1870000D02*
Y7424800D01*
G01Y7530000D02*
Y7635200D01*
G01X2660000Y5810000D02*
X2770000D01*
G01X2780000Y6270000D02*
X2660000D01*
G01X3130000Y7700000D02*
X3024800D01*
G01X3130000D02*
Y7775200D01*
G01X3235200Y7700000D02*
X3130000D01*
G01D02*
Y7624800D01*
G01X3560000Y3060000D02*
X3400000D01*
G01X3610000Y3500000D02*
X3550000Y3560000D01*
G01X3400000D02*
X3550000D01*
G01X3430000Y7570000D02*
Y7464800D01*
G01Y7675200D02*
Y7570000D01*
G01D02*
X3354800D01*
G01X3850000Y3960000D02*
X3925200D01*
G01X3850000Y4065200D02*
Y3960000D01*
G01X4114800Y2420000D02*
X4215000D01*
G01D02*
Y2510200D01*
G01X4575000Y3755000D02*
Y4085000D01*
X4410000Y4250000D01*
G01X4360000Y4350000D02*
X4370000Y4340000D01*
Y4290000D01*
X4410000Y4250000D01*
G01X4360000Y4530000D02*
X4220000D01*
G01X4820000Y5460000D02*
X4720000D01*
X4670000Y5510000D01*
G01X4480000Y7470000D02*
Y7580000D01*
G01D02*
Y7600000D01*
G01Y7770000D02*
X4585200D01*
G01X4480000Y7694800D02*
Y7770000D01*
G01X5190000Y6960000D02*
X5265200D01*
G01X5114800D02*
X5190000D01*
G01X5450000Y3600000D02*
Y3705200D01*
G01X5525200Y3600000D02*
X5450000D01*
G01X5470000Y5910000D02*
Y5804800D01*
G01X5545200Y5910000D02*
X5470000D01*
G01Y6570000D02*
Y6675200D01*
G01X5545200Y6570000D02*
X5470000D01*
G01X5914800Y3210000D02*
X6020000D01*
G01D02*
Y3134800D01*
G01Y3285200D02*
Y3210000D01*
G01X6174000Y7342000D02*
Y7231800D01*
G01Y7342000D02*
X6063800D01*
G01X6174000Y7452200D02*
Y7342000D01*
G01D02*
X6284200D01*
G01X6470000Y1709800D02*
Y1820000D01*
G01D02*
X6580200D01*
G01X6359800D02*
X6470000D01*
G01D02*
Y1930200D01*
G01X6490000Y3210000D02*
Y3134800D01*
G01Y3285200D02*
Y3210000D01*
G01X6384800D02*
X6490000D01*
G01X6440000Y3910000D02*
Y3834800D01*
G01X6334800Y3910000D02*
X6440000D01*
G01Y3985200D02*
Y3910000D01*
G01Y4590000D02*
Y4514800D01*
G01Y4665200D02*
Y4590000D01*
G01X6334800D02*
X6440000D01*
G01X6520000Y5977000D02*
X6523000Y5980000D01*
X6660000D01*
G01X6520000Y5850000D02*
X6980000D01*
G01X6520000Y6231000D02*
X6660000D01*
G01X6520000Y6104000D02*
X6976000D01*
X6980000Y6100000D01*
G01X6520000Y6485000D02*
X6525000Y6490000D01*
X6660000D01*
G01X6520000Y6358000D02*
X6978000D01*
X6980000Y6360000D01*
G01X6520000Y6739000D02*
X6659000D01*
G54D19*
X990000Y6930000D03*
Y7300000D03*
G54D28*
X4120000Y3050000D03*
Y3100000D03*
Y3150000D03*
Y3200000D03*
Y3250000D03*
Y3300000D03*
Y3350000D03*
Y3400000D03*
Y3450000D03*
Y3500000D03*
Y3550000D03*
Y3600000D03*
X4980000Y3050000D03*
Y3300000D03*
Y3250000D03*
Y3200000D03*
Y3150000D03*
Y3100000D03*
Y3600000D03*
Y3550000D03*
Y3500000D03*
Y3450000D03*
Y3400000D03*
Y3350000D03*
G54D38*
G01X1808000Y8000000D02*
X1712800D01*
G01X1808000D02*
X1903200D01*
G01X1808000D02*
Y7904800D01*
G01Y8000000D02*
Y8095200D01*
G01X2780000Y6640000D02*
X2650000D01*
G01Y6830000D02*
Y6640000D01*
G01Y6840000D02*
Y6830000D01*
G01X2970000Y7510000D02*
X3130000D01*
G01X4480000Y7600000D02*
X4739000D01*
G01D02*
Y7727000D01*
G01X5470000Y6130000D02*
X5550000D01*
G01X5470000Y6350000D02*
X5550000D01*
G01X6040000Y5850000D02*
Y5750000D01*
X5880000Y5590000D01*
G01X5870000Y5850000D02*
X6040000D01*
G01Y6100000D02*
X6036000Y6104000D01*
X5870000D01*
G01X6040000Y6360000D02*
X6038000Y6358000D01*
X5870000D01*
G01Y6612000D02*
X5998000D01*
X6040000Y6570000D01*
Y6360000D01*
G01Y5850000D02*
Y6100000D01*
G01Y6360000D02*
Y6100000D01*
G01X6980000Y6360000D02*
Y6390000D01*
X6758000Y6612000D01*
X6520000D01*
G01X8450000Y4600000D02*
X7760000D01*
X6980000Y5380000D01*
Y5850000D01*
G01D02*
Y6100000D01*
G01D02*
Y6360000D01*
G54D29*
X4435000Y2250000D03*
X4215000D03*
Y2420000D03*
X4435000D03*
G54D39*
G01X3150000Y6010000D02*
X2970000D01*
X2770000Y5810000D01*
G01X2660000Y6040000D02*
X2680000Y6060000D01*
X2770000D01*
G01D02*
X3150000D01*
G01Y6160000D02*
X2890000D01*
X2780000Y6270000D01*
G01X3150000Y6560000D02*
X2700000D01*
X2650000Y6610000D01*
Y6640000D01*
G01X3150000Y6810000D02*
X2670000D01*
X2650000Y6830000D01*
G01X3040000Y6110000D02*
X3150000D01*
G01Y6610000D02*
X3059800D01*
G01X3150000Y6110000D02*
X3260000D01*
G01X3250000Y6610000D02*
X3150000D01*
G01X3325000Y7235000D02*
Y7345000D01*
X3160000Y7510000D01*
X3130000D01*
G01X4120000Y3300000D02*
X3800000D01*
X3560000Y3060000D01*
G01X3400000Y3310000D02*
X3710000D01*
X3750000Y3350000D01*
X4120000D01*
G01Y3400000D02*
X3710000D01*
X3610000Y3500000D01*
G01X3375000Y5775000D02*
Y5685000D01*
G01X3425000D02*
Y5555000D01*
X3410000Y5540000D01*
G01X3380000Y5780000D02*
X3375000Y5775000D01*
G01X3960000Y3082600D02*
X4027400Y3150000D01*
X4120000D01*
G01X4260000D02*
X4120000D01*
G01X3960000Y3080000D02*
Y3082600D01*
G01X4675000Y2804800D02*
Y2895000D01*
G01X4650000Y3030000D02*
X4675000Y3005000D01*
G01D02*
Y2895000D01*
G01X4625000Y3755000D02*
Y3664800D01*
G01Y3845200D02*
Y3755000D01*
G01X4610000Y4340000D02*
Y4262400D01*
X4675000Y4197400D01*
Y3755000D01*
G01X4525000Y5685000D02*
X4625000D01*
X4820000Y5490000D01*
Y5460000D01*
G01X4609800Y7010000D02*
X4700000D01*
G01X4725000Y2895000D02*
Y2987600D01*
X4747400Y3010000D01*
G01X4889800Y3350000D02*
X4980000D01*
G01X4700000Y7010000D02*
X4810000D01*
G01X5000000Y7170000D02*
Y7140000D01*
X4920000Y7060000D01*
X4700000D01*
G01X5067500Y3350000D02*
X4980000D01*
G01X5260000Y3600000D02*
Y3570000D01*
X5090000Y3400000D01*
X4980000D01*
G01X5000000Y7300000D02*
Y7170000D01*
G01X5260000Y3720000D02*
Y3600000D01*
G01X6174000Y7596000D02*
X6060000Y7710000D01*
X5830000D01*
X5686000Y7854000D01*
X5420000D01*
M02*
